<svg xmlns="http://www.w3.org/2000/svg" viewBox="0 0 16 16" fill="currentColor" height="16px" width="16px">
    <path d="M15 8a7 7 0 01-7 7 7 7 0 01-7-7 7 7 0 017-7 7 7 0 017 7z" opacity=".2"/>
    <path d="M8 0C2.812-.197-1.359 5.47.357 10.363 1.64 15.067 7.64 17.5 11.834 15.02c3.257-1.722 4.973-5.862 3.809-9.383C14.67 2.344 11.43-.047 8 0zm0 1c4.618-.177 8.284 4.957 6.62 9.268-1.013 3.193-4.56 5.262-7.83 4.62-3.509-.54-6.18-4.063-5.755-7.587C1.32 3.81 4.497.935 8 1z"/>
    <path style="marker:none" stroke-dashoffset=".5" stroke-linecap="round" stroke-linejoin="round" d="M11.5 10.5c-.5 1-1.5 2.002-3.5 2.002S5 11.5 4.5 10.5"/>
    <path style="line-height:normal;font-variant-ligatures:normal;font-variant-position:normal;font-variant-caps:normal;font-variant-numeric:normal;font-variant-alternates:normal;font-feature-settings:normal;text-indent:0;text-align:start;text-decoration-line:none;text-decoration-style:solid;text-decoration-color:#000;text-transform:none;text-orientation:mixed;white-space:normal;shape-padding:0;isolation:auto;mix-blend-mode:normal;solid-color:#000;solid-opacity:1" d="M5.01 4.981c-1.334 0-1.948 1.278-1.948 1.278a.5.5 0 10.895.445s.386-.723 1.052-.723c.667 0 1.053.723 1.053.723a.5.5 0 10.895-.445S6.343 4.98 5.009 4.98zM11.01 4.981c-1.334 0-1.948 1.278-1.948 1.278a.5.5 0 10.895.445s.386-.723 1.052-.723c.667 0 1.053.723 1.053.723a.5.5 0 10.895-.445s-.614-1.278-1.948-1.278z" color="#000" font-family="sans-serif" font-weight="400" overflow="visible"/>
</svg>
