<svg xmlns="http://www.w3.org/2000/svg" viewBox="0 0 16 16" fill="currentColor" height="16px" width="16px">
    <path d="M8 1a7 7 0 00-5.742 3H5c.554 0 1 .446 1 1v2c0 1-1.5 2-3 2-1.296 0-1.845-.747-1.97-1.596A7 7 0 001 8a7 7 0 007 7 7 7 0 007-7 7 7 0 00-.03-.598C14.847 8.252 14.298 9 13 9c-1.5 0-3-1-3-2V5c0-.554.446-1 1-1h2.734A7 7 0 008 1z" opacity=".2"/>
    <path d="M8 0C2.812-.197-1.359 5.47.357 10.363 1.64 15.067 7.64 17.5 11.834 15.02c3.257-1.722 4.973-5.862 3.809-9.383C14.67 2.344 11.43-.047 8 0zm0 1c2.33-.09 4.414 1.174 5.697 3H14c.554 0 1 .446 1 1v2c0 .12-.008.24-.023.357.105.967.01 1.958-.358 2.91-1.013 3.194-4.56 5.264-7.83 4.622-3.477-.535-6.125-4-5.76-7.493A2.771 2.771 0 011 7V5c0-.554.446-1 1-1h.268C3.562 2.177 5.708.957 8 1z"/>
    <path style="marker:none" stroke-dashoffset=".5" stroke-linecap="round" stroke-linejoin="round" d="M11.5 11.5c-.5 1-2.5 1.002-3.5 1.002S5 12.5 4.5 11.5"/>
    <path d="M2 3C.892 3 0 3.892 0 5v2c0 1 .5 3 3 3s4-1.5 4-3V6h2v1c0 1.5 1.5 3 4 3s3-2 3-3V5c0-1.108-.892-2-2-2h-3c-1.108 0-2 .892-2 2H7c0-1.108-.892-2-2-2zm0 1h3c.554 0 1 .446 1 1v2c0 1-1.5 2-3 2S1 8 1 7V5c0-.554.446-1 1-1zm9 0h3c.554 0 1 .446 1 1v2c0 1-.5 2-2 2s-3-1-3-2V5c0-.554.446-1 1-1z"/>
    <path d="M1 7c0 1 .5 2 2 2s3-1 3-2V5c0-.554-.446-1-1-1zm10-3c-.554 0-1 .446-1 1v2c0 1 1.5 2 3 2s2-1 2-2V5c0-.554-.446-1-1-1z" opacity=".5"/>
    <path d="M2 4h3C3.67 5 2 6.257 1 7V5c0-.554.446-1 1-1z" opacity=".2"/>
</svg>
