<svg xmlns="http://www.w3.org/2000/svg" viewBox="0 0 16 16" fill="currentColor" height="16px" width="16px">
    <path d="M8 1a7 7 0 00-5.742 3H5c.554 0 1 .446 1 1v2c0 .554-.446 1-1 1H2a.957.957 0 01-.355-.07c-.06-.023-.109-.06-.163-.094-.04-.026-.083-.048-.119-.08a.971.971 0 01-.172-.197c-.008-.014-.019-.026-.027-.04a.966.966 0 01-.117-.287l-.002-.003A7 7 0 001 8a7 7 0 007 7 7 7 0 007-7 7 7 0 00-.049-.756.963.963 0 01-.119.28l-.031.044a.966.966 0 01-.17.19c-.035.03-.076.052-.115.078-.054.033-.101.071-.16.094A.955.955 0 0114 8h-3c-.554 0-1-.446-1-1V5a.996.996 0 011-1h2.734A7 7 0 008 1z" opacity=".2"/>
    <path d="M1 7c0 .554.446 1 1 1h3c.554 0 1-.446 1-1V5c0-.554-.446-1-1-1L1 7zm10-3c-.554 0-1 .446-1 1v2c0 .554.446 1 1 1h3c.554 0 1-.446 1-1V5c0-.554-.446-1-1-1z" opacity=".3"/>
    <path d="M8 0C5.52-.094 3.28 1.16 1.797 3.021A1.987 1.987 0 000 5v2c0 .08.014.155.023.232a7.05 7.05 0 00.334 3.131C1.64 15.067 7.64 17.5 11.834 15.02c2.76-1.46 4.405-4.655 4.137-7.739C15.984 7.19 16 7.096 16 7V5a1.989 1.989 0 00-1.74-1.975C12.759 1.16 10.429-.033 8 0zm0 1c1.87-.072 3.575.737 4.842 2H11c-1.108 0-2 .892-2 2H7c0-1.108-.892-2-2-2H3.143C4.427 1.75 6.163.966 8 1zM2 4h3c.554 0 1 .446 1 1v2c0 .554-.446 1-1 1H2a.983.983 0 01-.955-.773C1.027 7.152 1 7.08 1 7V5c0-.554.446-1 1-1zm2 4c.554 0 1-.446 1-1V6c0-.554-.446-1-1-1s-1 .446-1 1v1c0 .554.446 1 1 1zm7-4h3c.554 0 1 .446 1 1v2c0 .07-.025.131-.04.197A.984.984 0 0114 8h-3c-.554 0-1-.446-1-1V5c0-.554.446-1 1-1zm1 4c.554 0 1-.446 1-1V6c0-.554-.446-1-1-1s-1 .446-1 1v1c0 .554.446 1 1 1zM7 6h2v1c0 1.108.892 2 2 2h3c.361 0 .694-.101.986-.268a6.19 6.19 0 01-.367 1.536c-1.014 3.194-4.56 5.263-7.83 4.62-3.029-.465-5.427-3.153-5.756-6.146.288.16.614.258.967.258h3c1.108 0 2-.892 2-2V6zm-2.547 4.004c-.31.038-.591.354-.4.728.559 1.12 1.78 2.278 3.947 2.278s3.387-1.159 3.947-2.278c.306-.598-.598-1.05-.894-.447-.441.881-1.22 1.725-3.053 1.725s-2.613-.844-3.053-1.725a.47.47 0 00-.494-.281z"/>
</svg>
