<svg xmlns="http://www.w3.org/2000/svg" viewBox="0 0 16 16" fill="currentColor" height="16px" width="16px">
    <path d="M8 1a7 7 0 00-7 7 7 7 0 005.148 6.742A1.971 1.971 0 016 14v-1.404a4.022 4.022 0 01-1.947-1.873.5.5 0 11.894-.446c.44.881 1.22 1.725 3.053 1.725s2.612-.844 3.053-1.725a.5.5 0 11.894.446A4.022 4.022 0 0110 12.596V14c0 .266-.055.518-.15.75A7 7 0 008 1z" opacity=".2"/>
    <path d="M8 0C2.812-.197-1.359 5.47.357 10.363c.914 3.35 4.219 5.537 7.561 5.63.028 0 .054.007.082.007.02 0 .04-.005.06-.006 1.304.013 2.609-.286 3.774-.974 3.257-1.722 4.973-5.862 3.809-9.383C14.67 2.344 11.43-.047 8 0zm0 1c4.618-.177 8.283 4.957 6.62 9.268-.697 2.195-2.59 3.86-4.768 4.476.093-.23.148-.48.148-.744v-1.404a4.022 4.022 0 001.947-1.873.5.5 0 00-.45-.74.5.5 0 00-.444.294c-.44.881-1.22 1.725-3.053 1.725s-2.612-.844-3.053-1.725a.5.5 0 00-.44-.283.5.5 0 00-.454.729A4.022 4.022 0 006 12.596V14c0 .267.056.52.152.754-3.188-.84-5.516-4.146-5.117-7.453C1.32 3.81 4.497.935 8 1zM5 4c-.554 0-1 .446-1 1v2c0 .554.446 1 1 1s1-.446 1-1V5c0-.554-.446-1-1-1zm6 1C9.667 5 9.053 6.277 9.053 6.277a.5.5 0 10.894.446S10.333 6 11 6c.667 0 1.053.723 1.053.723a.5.5 0 10.894-.446S12.333 5 11 5zm-4 7.9c.31.06.638.102 1 .102s.69-.042 1-.102V14c0 .563-.437 1-1 1s-1-.437-1-1v-1.1z"/>
    <path d="M7 12.9V14c0 .563.437 1 1 1s1-.437 1-1v-1.1a5.26 5.26 0 01-1 .102 5.26 5.26 0 01-1-.102z" opacity=".4"/>
</svg>
