<svg xmlns="http://www.w3.org/2000/svg" viewBox="0 0 16 16" fill="currentColor" height="16px" width="16px">
    <path d="M8 1a7 7 0 00-5.742 3H5c.554 0 1 .446 1 1v2c0 .554-.446 1-1 1H2a.957.957 0 01-.355-.07c-.06-.023-.109-.06-.163-.094-.04-.026-.083-.048-.119-.08a.971.971 0 01-.172-.197c-.008-.014-.019-.026-.027-.04a.966.966 0 01-.117-.287l-.002-.003A7 7 0 001 8a7 7 0 007 7 7 7 0 007-7 7 7 0 00-.049-.756.963.963 0 01-.119.28l-.031.044a.966.966 0 01-.17.19c-.035.03-.076.052-.115.078-.054.033-.101.071-.16.094A.955.955 0 0114 8h-3c-.554 0-1-.446-1-1V5a.996.996 0 011-1h2.734A7 7 0 008 1z" opacity=".2"/>
    <path d="M1 7c0 .554.446 1 1 1h3c.554 0 1-.446 1-1V5c0-.554-.446-1-1-1L1 7zm10-3c-.554 0-1 .446-1 1v2c0 .554.446 1 1 1h3c.554 0 1-.446 1-1V5c0-.554-.446-1-1-1z" opacity=".3"/>
    <path d="M8 0C2.812-.197-1.359 5.47.357 10.363 1.64 15.067 7.64 17.5 11.834 15.02c3.257-1.722 4.973-5.862 3.809-9.383C14.67 2.344 11.43-.047 8 0zm0 1c2.33-.09 4.414 1.174 5.697 3H14c.554 0 1 .446 1 1v2c0 .07-.026.131-.04.197a6.19 6.19 0 01-.34 3.07c-1.014 3.194-4.56 5.264-7.83 4.622-3.51-.54-6.18-4.064-5.755-7.588.002-.025.008-.05.01-.074C1.027 7.152 1 7.08 1 7V5c0-.554.446-1 1-1h.271C3.563 2.176 5.708.957 8 1z"/>
    <rect style="marker:none" width="2" height="3" x="3" y="5" rx="1" ry="1"/>
    <rect style="marker:none" width="2" height="3" x="11" y="5" rx="1" ry="1"/>
    <path style="marker:none" stroke-dashoffset=".5" stroke-linecap="round" stroke-linejoin="round" d="M11.5 10.5c-.5 1-1.5 2.002-3.5 2.002S5 11.5 4.5 10.5"/>
    <path d="M2 3C.892 3 0 3.892 0 5v2c0 1.108.892 2 2 2h3c1.108 0 2-.892 2-2V6h2v1c0 1.108.892 2 2 2h3c1.108 0 2-.892 2-2V5c0-1.108-.892-2-2-2h-3c-1.108 0-2 .892-2 2H7c0-1.108-.892-2-2-2zm0 1h3c.554 0 1 .446 1 1v2c0 .554-.446 1-1 1H2c-.554 0-1-.446-1-1V5c0-.554.446-1 1-1zm9 0h3c.554 0 1 .446 1 1v2c0 .554-.446 1-1 1h-3c-.554 0-1-.446-1-1V5c0-.554.446-1 1-1z"/>
</svg>
