<svg xmlns="http://www.w3.org/2000/svg" viewBox="0 0 16 16" fill="currentColor" height="16px" width="16px">
    <path d="M8 1a7 7 0 00-7 7c0 1.315.37 2.54 1 3.592V8c0-.138.028-.27.078-.389V7.61a.998.998 0 011.31-.53h.003C3.749 7.23 4 7.585 4 8v5.74A6.963 6.963 0 008 15a6.963 6.963 0 004-1.26V8c0-.554.367-1 .824-1h.352c.457 0 .824.446.824 1v3.592c.63-1.051 1-2.277 1-3.592a7 7 0 00-7-7z" opacity=".2"/>
    <path d="M8 0C2.812-.197-1.359 5.47.357 10.363c.15.55.372 1.062.643 1.543v.465c-.568.352-1 .913-1 1.629 0 1.1.9 2 2 2h1a1.99 1.99 0 001.598-.807c2.136 1.002 4.677 1.113 6.83.026.367.471.933.781 1.572.781h1c1.1 0 2-.9 2-2 0-.716-.432-1.277-1-1.629v-.578c1.007-1.867 1.319-4.11.643-6.156C14.67 2.344 11.43-.047 8 0zm0 1c4.045-.155 7.358 3.765 7 7.637V8a2 2 0 00-.041-.402 2 2 0 00-1.176-1.436 2 2 0 00-.015-.006 2 2 0 00-.344-.11l-.04-.007A2 2 0 0013 6a2 2 0 00-.223.014C12.52 5.64 11.951 5 11 5 9.667 5 9.053 6.277 9.053 6.277a.5.5 0 10.894.446S10.333 6 11 6c.37 0 .626.203.805.4a2 2 0 00-.201.176l-.03.03a2 2 0 00-.219.263l-.023.037a2 2 0 00-.168.309l-.012.027a2 2 0 00-.105.336l-.01.055A2 2 0 0011 8v1.38A3.972 3.972 0 008 8a3.972 3.972 0 00-3 1.38V8.05A2 2 0 005 8a2 2 0 00-.04-.387 2 2 0 00-.001-.01l-.008-.029a2 2 0 00-.539-.986 2 2 0 00-.217-.19C4.375 6.201 4.633 6 5 6c.667 0 1.053.723 1.053.723a.5.5 0 10.894-.446S6.333 5 5 5c-.953 0-1.523.643-1.78 1.016A2 2 0 003 6a2 2 0 00-.402.041 2 2 0 00-1.436 1.176l-.006.015a2 2 0 00-.11.344l-.007.04A2 2 0 001 8v.281a6.187 6.187 0 01.035-.98C1.32 3.81 4.497.935 8 1zM3 7c.13 0 .252.027.365.07a1 1 0 01.022.008h.004a1 1 0 01.005.004 1 1 0 01.026.014.973.973 0 01.26.174 1 1 0 01.023.021 1 1 0 01.004.004 1 1 0 01.023.027.973.973 0 01.17.252 1 1 0 01.012.024l.01.021a1 1 0 01.006.016c.043.113.07.235.07.365v6a1.034 1.034 0 01-.213.615c-.005.007-.008.017-.014.024l-.002.002A.998.998 0 013 15H2c-.563 0-1-.437-1-1 0-.441.276-.8.666-.938a.5.5 0 00.186-.117c.048-.017.095-.039.148-.045v-.293a.5.5 0 000-.015V8c0-.13.027-.252.07-.365a1 1 0 01.008-.022v-.002a1 1 0 010-.002l.004-.005a1 1 0 01.014-.026.973.973 0 01.174-.26 1 1 0 01.021-.023 1 1 0 01.002-.002l.002-.002a1 1 0 01.027-.023.973.973 0 01.252-.17 1 1 0 01.024-.012l.021-.01a1 1 0 01.016-.006C2.748 7.027 2.87 7 3 7zm10 0c.405 0 .74.23.898.566.011.028.025.054.034.082.04.11.068.227.068.352v4.887c.044.002.082.02.123.031a.5.5 0 00.211.145c.39.138.666.496.666.937 0 .563-.437 1-1 1h-1a.986.986 0 01-1-1V8c0-.125.029-.24.068-.35.01-.03.024-.055.036-.084A.98.98 0 0113 7zM8 9c1.38 0 3 1.12 3 2.5 0 0-1.5.5-3 .5s-3-.5-3-.5C5 10.12 6.62 9 8 9zm-3 3.543c.63.235 1.587.457 3 .457s2.37-.222 3-.457V14c0 .097.016.19.03.283-1.309.636-2.8.889-4.24.606a6.265 6.265 0 01-1.817-.588C4.988 14.202 5 14.102 5 14v-1.457z"/>
    <path d="M11 11.5s-1.5.5-3 .5-3-.5-3-.5C5 10.12 6.62 9 8 9s3 1.12 3 2.5z" opacity=".4"/>
</svg>
