<svg xmlns="http://www.w3.org/2000/svg" viewBox="0 0 16 16" fill="currentColor" height="16px" width="16px">
    <path d="M4.533 0C4.238 0 4 .223 4 .5s.238.5.533.5H5v5l.002.006A1.039 1.039 0 0 0 4 7.033v6.934c0 .012.007.021.008.033h-.475c-.295 0-.533.223-.533.5s.238.5.533.5H5v.5c0 .277.238.5.533.5h4.934c.295 0 .533-.223.533-.5V15h1.467c.295 0 .533-.223.533-.5s-.238-.5-.533-.5h-.475c0-.012.008-.021.008-.033V7.033a1.04 1.04 0 0 0-1.002-1.027L11 6V1h.467C11.763 1 12 .777 12 .5s-.237-.5-.533-.5H6zM6 1h4v5H6zm-.967 6h5.934c.027 0 .033.006.033.033v6.934c0 .027-.006.033-.033.033H5.033C5.006 14 5 13.994 5 13.967V7.033C5 7.006 5.006 7 5.033 7zM9.5 14a.49.49 0 0 0 .5-.482v-.036A.49.49 0 0 0 9.5 13a.49.49 0 0 0-.5.482v.036a.49.49 0 0 0 .5.482zm0-7a.49.49 0 0 0-.5.482v.036A.49.49 0 0 0 9.5 8a.49.49 0 0 0 .5-.482v-.036A.49.49 0 0 0 9.5 7zm-.004 2C9.222 9 9 9.204 9 9.457v.086c0 .253.222.457.496.457h.008c.275 0 .496-.204.496-.457v-.086C10 9.204 9.779 9 9.504 9zm.004 2a.49.49 0 0 0-.5.482v.036a.49.49 0 0 0 .5.482.49.49 0 0 0 .5-.482v-.036A.49.49 0 0 0 9.5 11z"/>
    <path d="M6 1v11.5c0 .277.223.5.5.5h3a.5.5 0 0 0 .5-.5V1z" opacity=".2"/>
    <rect width="6" height="7" x="5" y="7" opacity=".3" rx="0" ry="0"/>
</svg>
