<?xml version="1.0" encoding="UTF-8" standalone="no"?>
<svg
   xmlns:dc="http://purl.org/dc/elements/1.1/"
   xmlns:cc="http://creativecommons.org/ns#"
   xmlns:rdf="http://www.w3.org/1999/02/22-rdf-syntax-ns#"
   xmlns:svg="http://www.w3.org/2000/svg"
   xmlns="http://www.w3.org/2000/svg"
   id="svg6"
   version="1.1"
   viewBox="0 0 16 16">
  <metadata
     id="metadata12">
    <rdf:RDF>
      <cc:Work
         rdf:about="">
        <dc:format>image/svg+xml</dc:format>
        <dc:type
           rdf:resource="http://purl.org/dc/dcmitype/StillImage" />
        <dc:title />
      </cc:Work>
    </rdf:RDF>
  </metadata>
  <defs
     id="defs10" />
  <path
     id="path816"
     d="M 1.6796875,3.0273438 1.2070312,3.5 4.0058594,6.2988281 4,6.3007812 5.703125,8.0039062 9.7207031,3.9863281 C 7.2457855,3.744521 4.4075578,3.4608328 1.6796875,3.0273438 Z M 12.017578,6.2753906 7.9960938,10.296875 9.6992188,12 9.7011719,11.994141 12.5,14.792969 12.972656,14.320312 C 12.656229,11.785225 12.226676,8.6970076 12.017578,6.2753906 Z M 1,11 v 0.292969 0.002 L 1.7109375,12 2.7070312,11 H 1.2949219 1.2929688 Z M 5,13.28125 4,14.318359 4.7070312,15 H 5 v -0.292969 z"
     style="color:#000000;font-style:normal;font-variant:normal;font-weight:normal;font-stretch:normal;font-size:medium;line-height:normal;font-family:sans-serif;font-variant-ligatures:normal;font-variant-position:normal;font-variant-caps:normal;font-variant-numeric:normal;font-variant-alternates:normal;font-feature-settings:normal;text-indent:0;text-align:start;text-decoration:none;text-decoration-line:none;text-decoration-style:solid;text-decoration-color:#000000;letter-spacing:normal;word-spacing:normal;text-transform:none;writing-mode:lr-tb;direction:ltr;text-orientation:mixed;dominant-baseline:auto;baseline-shift:baseline;text-anchor:start;white-space:normal;shape-padding:0;clip-rule:nonzero;display:inline;overflow:visible;visibility:visible;opacity:0.4;isolation:auto;mix-blend-mode:normal;color-interpolation:sRGB;color-interpolation-filters:linearRGB;solid-color:#000000;solid-opacity:1;vector-effect:none;fill:#000000;fill-opacity:1;fill-rule:nonzero;stroke:none;stroke-width:1px;stroke-linecap:butt;stroke-linejoin:round;stroke-miterlimit:4;stroke-dasharray:none;stroke-dashoffset:0;stroke-opacity:1;color-rendering:auto;image-rendering:auto;shape-rendering:auto;text-rendering:auto;enable-background:accumulate" />
  <path
     id="path904"
     d="M 12.708984 1 L 12.5 1.2070312 L 12 1.7070312 L 11.207031 2.5 L 11.212891 2.5058594 L 10.505859 3.2128906 L 10.5 3.2070312 L 9.8535156 3.8535156 L 9.7207031 3.9863281 L 5.703125 8.0039062 L 5.3535156 8.3535156 C 5.3453246 8.3616176 5.336855 8.3694331 5.328125 8.3769531 L 3.7070312 10 L 3.2070312 10.5 L 2.7070312 11 L 1.7109375 12 L 1 11.294922 L 4.0117188 14.304688 L 5 13.28125 L 5.4941406 12.787109 L 5.5 12.792969 L 6 12.292969 L 7.6464844 10.646484 L 7.9960938 10.296875 L 12.017578 6.2753906 L 12.146484 6.1464844 C 12.150304 6.1425154 12.154203 6.1386056 12.158203 6.1347656 L 12.792969 5.5 L 13.292969 5 L 13.28125 5 L 14.28125 4 L 14.292969 4 L 14.792969 3.5 L 15 3.3066406 L 15 2.2929688 L 15 2 L 15 1 L 13.707031 1 L 12.708984 1 z "
     style="color:#000000;font-style:normal;font-variant:normal;font-weight:normal;font-stretch:normal;font-size:medium;line-height:normal;font-family:sans-serif;font-variant-ligatures:normal;font-variant-position:normal;font-variant-caps:normal;font-variant-numeric:normal;font-variant-alternates:normal;font-feature-settings:normal;text-indent:0;text-align:start;text-decoration:none;text-decoration-line:none;text-decoration-style:solid;text-decoration-color:#000000;letter-spacing:normal;word-spacing:normal;text-transform:none;writing-mode:lr-tb;direction:ltr;text-orientation:mixed;dominant-baseline:auto;baseline-shift:baseline;text-anchor:start;white-space:normal;shape-padding:0;clip-rule:nonzero;display:inline;overflow:visible;visibility:visible;opacity:0.2;isolation:auto;mix-blend-mode:normal;color-interpolation:sRGB;color-interpolation-filters:linearRGB;solid-color:#000000;solid-opacity:1;vector-effect:none;fill:#000000;fill-opacity:1;fill-rule:nonzero;stroke:none;stroke-width:1px;stroke-linecap:butt;stroke-linejoin:round;stroke-miterlimit:4;stroke-dasharray:none;stroke-dashoffset:0;stroke-opacity:1;color-rendering:auto;image-rendering:auto;shape-rendering:auto;text-rendering:auto;enable-background:accumulate" />
  <path
     id="path815"
     d="M 12.484375 0 C 12.470655 0.00073803937 12.456979 0.00204123 12.443359 0.00390625 C 12.428959 0.00523711 12.414621 0.007192075 12.400391 0.009765625 C 12.397791 0.010395665 12.395178 0.01104675 12.392578 0.01171875 C 12.360368 0.01901445 12.328968 0.02948221 12.298828 0.04296875 C 12.285558 0.04826745 12.272526 0.054132265 12.259766 0.060546875 C 12.257766 0.061835175 12.255906 0.063137225 12.253906 0.064453125 C 12.240496 0.072305225 12.227464 0.08077792 12.214844 0.08984375 C 12.210244 0.09302215 12.205642 0.096277875 12.201172 0.099609375 C 12.193172 0.10523858 12.185374 0.11110047 12.177734 0.1171875 C 12.175734 0.1191245 12.173875 0.12107786 12.171875 0.12304688 C 12.163175 0.13056487 12.154674 0.13838167 12.146484 0.14648438 L 9.3203125 2.9726562 L 1.5625 2.0039062 C 1.5456503 2.0017428 1.528701 2.0004386 1.5117188 2 C 1.3750705 1.9968592 1.2430924 2.0497915 1.1464844 2.1464844 L 0.14648438 3.1464844 C -0.048699795 3.3417493 -0.048699795 3.6582507 0.14648438 3.8535156 L 4.2929688 8 L 2.2949219 10 L 0 10 L 0 10.5 L 0 11.425781 A 0.50005 0.50005 0 0 0 0.14648438 11.853516 L 0.29492188 12 L 4 15.707031 L 4.1464844 15.853516 A 0.50005 0.50005 0 0 0 4.5917969 16 L 6 16 L 6 15.5 L 6 13.707031 L 8 11.707031 L 12.146484 15.853516 C 12.341749 16.048701 12.658251 16.048701 12.853516 15.853516 L 13.853516 14.853516 C 13.962742 14.744306 14.015369 14.59075 13.996094 14.4375 L 13.027344 6.6796875 L 15.853516 3.8535156 C 15.947284 3.7597597 15.999975 3.6325994 16 3.5 C 16.00002 3.4974 16.00002 3.4947875 16 3.4921875 L 16 2 L 16 0.5 L 16 0 L 15.5 0 L 14 0 L 12.5 0 C 12.4974 -2.0340724e-05 12.494786 -2.0340724e-05 12.492188 0 C 12.489586 -2.0345932e-05 12.486975 -2.0345932e-05 12.484375 0 z M 12.708984 1 L 13.707031 1 L 15 1 L 15 2 L 15 2.2929688 L 15 3.3066406 L 14.792969 3.5 L 14.292969 4 L 14.28125 4 L 13.28125 5 L 13.292969 5 L 12.792969 5.5 L 12.158203 6.1347656 C 12.154203 6.1386056 12.150304 6.1425154 12.146484 6.1464844 L 12.017578 6.2753906 C 12.210364 8.9164365 12.627493 11.555008 12.972656 14.320312 L 12.5 14.792969 L 9.7011719 11.994141 L 9.6992188 12 L 7.9960938 10.296875 L 7.6464844 10.646484 L 6 12.292969 L 5.5 12.792969 L 5.4941406 12.787109 L 5 13.28125 L 5 13.292969 L 5 14.707031 L 5 15 L 4.7070312 15 L 1 11.294922 L 1 11.292969 L 1 11 L 1.2929688 11 L 1.2949219 11 L 2.7070312 11 L 3.2070312 10.5 L 3.7070312 10 L 5.328125 8.3769531 C 5.336855 8.3694331 5.3453246 8.3616176 5.3535156 8.3535156 L 5.703125 8.0039062 L 4 6.3007812 L 4.0058594 6.2988281 L 1.2070312 3.5 L 1.6796875 3.0273438 C 4.5445378 3.4826005 7.1197708 3.7324772 9.7207031 3.9863281 L 9.8535156 3.8535156 L 10.5 3.2070312 L 10.505859 3.2128906 L 11.212891 2.5058594 L 11.207031 2.5 L 12 1.7070312 L 12.5 1.2070312 L 12.708984 1 z "
     style="color:#000000;font-style:normal;font-variant:normal;font-weight:normal;font-stretch:normal;font-size:medium;line-height:normal;font-family:sans-serif;font-variant-ligatures:normal;font-variant-position:normal;font-variant-caps:normal;font-variant-numeric:normal;font-variant-alternates:normal;font-feature-settings:normal;text-indent:0;text-align:start;text-decoration:none;text-decoration-line:none;text-decoration-style:solid;text-decoration-color:#000000;letter-spacing:normal;word-spacing:normal;text-transform:none;writing-mode:lr-tb;direction:ltr;text-orientation:mixed;dominant-baseline:auto;baseline-shift:baseline;text-anchor:start;white-space:normal;shape-padding:0;clip-rule:nonzero;display:inline;overflow:visible;visibility:visible;opacity:1;isolation:auto;mix-blend-mode:normal;color-interpolation:sRGB;color-interpolation-filters:linearRGB;solid-color:#000000;solid-opacity:1;vector-effect:none;fill:#000000;fill-opacity:1;fill-rule:nonzero;stroke:none;stroke-width:1px;stroke-linecap:butt;stroke-linejoin:round;stroke-miterlimit:4;stroke-dasharray:none;stroke-dashoffset:0;stroke-opacity:1;color-rendering:auto;image-rendering:auto;shape-rendering:auto;text-rendering:auto;enable-background:accumulate" />
</svg>
