<?xml version="1.0" encoding="UTF-8" standalone="no"?>
<svg
   xmlns:dc="http://purl.org/dc/elements/1.1/"
   xmlns:cc="http://creativecommons.org/ns#"
   xmlns:rdf="http://www.w3.org/1999/02/22-rdf-syntax-ns#"
   xmlns:svg="http://www.w3.org/2000/svg"
   xmlns="http://www.w3.org/2000/svg"
   id="svg6"
   version="1.1"
   viewBox="0 0 16 16">
  <metadata
     id="metadata12">
    <rdf:RDF>
      <cc:Work
         rdf:about="">
        <dc:format>image/svg+xml</dc:format>
        <dc:type
           rdf:resource="http://purl.org/dc/dcmitype/StillImage" />
        <dc:title />
      </cc:Work>
    </rdf:RDF>
  </metadata>
  <defs
     id="defs10" />
  <circle
     r="6"
     cy="9"
     cx="8"
     id="path825"
     style="opacity:0.2;fill:#000000;fill-opacity:1;stroke:none;stroke-width:1;stroke-linecap:butt;stroke-linejoin:round;stroke-miterlimit:4;stroke-dasharray:none;stroke-dashoffset:0;stroke-opacity:1" />
  <path
     id="path4"
     d="M 3.9804688 -0.009765625 A 1.0001 1.0001 0 0 0 3.2929688 0.29296875 L 1.2929688 2.2929688 A 1.0001 1.0001 0 1 0 2.7070312 3.7070312 L 4.7070312 1.7070312 A 1.0001 1.0001 0 0 0 3.9804688 -0.009765625 z M 11.990234 -0.009765625 A 1.0001 1.0001 0 0 0 11.292969 1.7070312 L 13.292969 3.7070312 A 1.0001 1.0001 0 1 0 14.707031 2.2929688 L 12.707031 0.29296875 A 1.0001 1.0001 0 0 0 11.990234 -0.009765625 z M 8 2 A 7 7 0 0 0 1 9 A 7 7 0 0 0 2.984375 13.873047 L 2.0839844 15.222656 A 0.50005 0.50005 0 1 0 2.9160156 15.777344 L 3.7363281 14.544922 A 7 7 0 0 0 8 16 A 7 7 0 0 0 12.261719 14.542969 L 13.083984 15.777344 A 0.50005 0.50005 0 1 0 13.916016 15.222656 L 13.019531 13.878906 A 7 7 0 0 0 15 9 A 7 7 0 0 0 8 2 z M 8 3 A 6 6 0 0 1 14 9 A 6 6 0 0 1 8 15 A 6 6 0 0 1 2 9 A 6 6 0 0 1 8 3 z M 10.5 6 C 10.352738 5.9993665 10.212682 6.0636769 10.117188 6.1757812 L 7.7714844 9 L 5.5 9 C 4.8238387 8.99044 4.8238387 10.009562 5.5 10 L 7.9804688 10 C 8.0039227 10.000997 8.0274192 10.000391 8.0507812 9.9980469 C 8.0560012 9.9974779 8.0612082 9.9968937 8.0664062 9.9960938 C 8.0788453 9.9945937 8.0912236 9.9927344 8.1035156 9.9902344 C 8.232331 9.9648144 8.3459802 9.88975 8.4199219 9.78125 C 8.4212419 9.77935 8.4225381 9.7773906 8.4238281 9.7753906 L 10.871094 6.8359375 C 11.162692 6.5143394 10.934114 5.9994364 10.5 6 z " />
</svg>
