<svg xmlns="http://www.w3.org/2000/svg" viewBox="0 0 16 16" fill="currentColor" height="16px" width="16px">
    <path d="M3.878 4h8.237C10.5 6 9.67 7 8.004 8.997A295.602 295.602 0 0 1 3.878 4z" opacity=".2"/>
    <path d="M4 .994c-2 0-2.255 1.731-1.81 2.5C4 5.681 5 7 7 9.5V14H4.5a.499.499 0 1 0 0 1h7a.499.499 0 1 0 0-1H9V9.5c2-2.5 3-3.82 4.81-6.006.445-.769.19-2.5-1.81-2.5L8 .996 4 .994zm.004 1L8 1.996l3.996-.002c1.004 0 1.156.805.795 1.166a353.617 353.617 0 0 1-4.787 5.836h-.008A353.616 353.616 0 0 1 3.21 3.16c-.36-.36-.209-1.166.795-1.166z"/>
</svg>
