<?xml version="1.0" encoding="UTF-8" standalone="no"?>
<svg
   xmlns:dc="http://purl.org/dc/elements/1.1/"
   xmlns:cc="http://creativecommons.org/ns#"
   xmlns:rdf="http://www.w3.org/1999/02/22-rdf-syntax-ns#"
   xmlns:svg="http://www.w3.org/2000/svg"
   xmlns="http://www.w3.org/2000/svg"
   id="svg6"
   version="1.1"
   viewBox="0 0 16 16">
  <metadata
     id="metadata12">
    <rdf:RDF>
      <cc:Work
         rdf:about="">
        <dc:format>image/svg+xml</dc:format>
        <dc:type
           rdf:resource="http://purl.org/dc/dcmitype/StillImage" />
      </cc:Work>
    </rdf:RDF>
  </metadata>
  <defs
     id="defs10" />
  <path
     id="path2"
     opacity=".2"
     d="M5 1L1 5v6l4 4h6l4-4V5l-4-4H8z" />
  <path
     id="path4"
     d="M4.5 0L0 4.5v7L4.5 16h7l4.5-4.5v-7L11.5 0H8zM5 1h6l4 4v6l-4 4H5l-4-4V5l4-4zm2 1.992V9h2V7l.002-.008v-4h-2zM7 10v2h2v-.93a.999.999 0 0 0 0-.125V10z" />
</svg>
