<?xml version="1.0" encoding="UTF-8" standalone="no"?>
<svg
   xmlns:dc="http://purl.org/dc/elements/1.1/"
   xmlns:cc="http://creativecommons.org/ns#"
   xmlns:rdf="http://www.w3.org/1999/02/22-rdf-syntax-ns#"
   xmlns:svg="http://www.w3.org/2000/svg"
   xmlns="http://www.w3.org/2000/svg"
   id="svg6"
   version="1.1"
   width="16px"
   height="16px"
   fill="currentColor"
   viewBox="0 0 16 16">
  <metadata
     id="metadata12">
    <rdf:RDF>
      <cc:Work
         rdf:about="">
        <dc:format>image/svg+xml</dc:format>
        <dc:type
           rdf:resource="http://purl.org/dc/dcmitype/StillImage" />
        <dc:title />
      </cc:Work>
    </rdf:RDF>
  </metadata>
  <defs
     id="defs10" />
  <path
     id="path4"
     d="M 2 2 L 2 3 L 14 3 L 14 2 L 2 2 z M 2 6 L 2 7 L 14 7 L 14 6 L 2 6 z M 2 10 L 2 11 L 14 11 L 14 10 L 2 10 z M 2 14 L 2 15 L 14 15 L 14 14 L 2 14 z "
     style="opacity:0.2" />
  <path
     id="rect826"
     d="M 1.5 1 C 1.223 1 1 1.223 1 1.5 L 1 3.5 C 1 3.777 1.223 4 1.5 4 L 14.5 4 C 14.777 4 15 3.777 15 3.5 L 15 1.5 C 15 1.223 14.777 1 14.5 1 L 1.5 1 z M 2 2 L 14 2 L 14 3 L 2 3 L 2 2 z M 1.5 5 C 1.223 5 1 5.223 1 5.5 L 1 7.5 C 1 7.777 1.223 8 1.5 8 L 14.5 8 C 14.777 8 15 7.777 15 7.5 L 15 5.5 C 15 5.223 14.777 5 14.5 5 L 1.5 5 z M 2 6 L 14 6 L 14 7 L 2 7 L 2 6 z M 1.5 9 C 1.223 9 1 9.223 1 9.5 L 1 11.5 C 1 11.777 1.223 12 1.5 12 L 14.5 12 C 14.777 12 15 11.777 15 11.5 L 15 9.5 C 15 9.223 14.777 9 14.5 9 L 1.5 9 z M 2 10 L 14 10 L 14 11 L 2 11 L 2 10 z M 1.5 13 C 1.223 13 1 13.223 1 13.5 L 1 15.5 C 1 15.777 1.223 16 1.5 16 L 14.5 16 C 14.777 16 15 15.777 15 15.5 L 15 13.5 C 15 13.223 14.777 13 14.5 13 L 1.5 13 z M 2 14 L 14 14 L 14 15 L 2 15 L 2 14 z "
     style="opacity:1;fill:#000000;fill-opacity:1;stroke:none;stroke-width:2;stroke-linecap:round;stroke-linejoin:round;stroke-miterlimit:4;stroke-dasharray:none;stroke-dashoffset:0;stroke-opacity:1" />
</svg>
