<?xml version="1.0" encoding="UTF-8" standalone="no"?>
<svg
   xmlns:dc="http://purl.org/dc/elements/1.1/"
   xmlns:cc="http://creativecommons.org/ns#"
   xmlns:rdf="http://www.w3.org/1999/02/22-rdf-syntax-ns#"
   xmlns:svg="http://www.w3.org/2000/svg"
   xmlns="http://www.w3.org/2000/svg"
   id="svg6"
   version="1.1"
   width="16px"
   height="16px"
   fill="currentColor"
   viewBox="0 0 16 16">
  <metadata
     id="metadata12">
    <rdf:RDF>
      <cc:Work
         rdf:about="">
        <dc:format>image/svg+xml</dc:format>
        <dc:type
           rdf:resource="http://purl.org/dc/dcmitype/StillImage" />
        <dc:title />
      </cc:Work>
    </rdf:RDF>
  </metadata>
  <defs
     id="defs10" />
  <path
     id="path4"
     d="M 2,2 V 3 H 14 V 2 Z m 0,4 v 1 h 8 V 6 Z m 0,4 v 1 h 12 v -1 z m 0,4 v 1 h 8 v -1 z"
     style="opacity:0.2" />
  <path
     id="rect826"
     d="M 1.5,1 C 1.223,1 1,1.223 1,1.5 v 2 C 1,3.777 1.223,4 1.5,4 h 13 C 14.777,4 15,3.777 15,3.5 v -2 C 15,1.223 14.777,1 14.5,1 Z M 2,2 H 14 V 3 H 2 Z M 1.5,5 C 1.223,5 1,5.223 1,5.5 v 2 C 1,7.777 1.223,8 1.5,8 h 9 C 10.777,8 11,7.777 11,7.5 v -2 C 11,5.223 10.777,5 10.5,5 Z M 2,6 h 8 V 7 H 2 Z M 1.5,9 C 1.223,9 1,9.223 1,9.5 v 2 C 1,11.777 1.223,12 1.5,12 h 13 c 0.277,0 0.5,-0.223 0.5,-0.5 v -2 C 15,9.223 14.777,9 14.5,9 Z M 2,10 h 12 v 1 H 2 Z M 1.5,13 C 1.223,13 1,13.223 1,13.5 v 2 C 1,15.777 1.223,16 1.5,16 h 9 c 0.277,0 0.5,-0.223 0.5,-0.5 v -2 C 11,13.223 10.777,13 10.5,13 Z M 2,14 h 8 v 1 H 2 Z"
     style="opacity:1;fill:#000000;fill-opacity:1;stroke:none;stroke-width:2;stroke-linecap:round;stroke-linejoin:round;stroke-miterlimit:4;stroke-dasharray:none;stroke-dashoffset:0;stroke-opacity:1" />
</svg>
