<svg xmlns="http://www.w3.org/2000/svg" viewBox="0 0 16 16" fill="currentColor" height="16px" width="16px">
    <path d="M2.003 2.004V14H6V2.004zM9 3.999v8.002h4.003V4H8.996z" opacity=".2"/>
    <path d="M1.5 1.002a.499.499 0 00-.498.499v4.498H2V2.004h3.999v3.999H7V1.5a.499.499 0 00-.499-.499zm7 2a.499.499 0 00-.498.498V6H9v-2h4.003v2.004H14V3.497a.499.499 0 00-.498-.5zM0 7v2.003h2.003V7zm3.001 0v2.003h4V7zm5 0v2.003h4V7zm5.002 0v2.003H16V7zM1.002 10V14.5a.5.5 0 00.499.502h5a.499.499 0 00.5-.502v-4.498H5.998V14H2.003v-4zm7 0v2.5a.5.5 0 00.499.502h5a.499.499 0 00.5-.503v-2.498h-.998v2H8.996V9.997z"/>
</svg>
