<svg xmlns="http://www.w3.org/2000/svg" viewBox="0 0 16 16" fill="currentColor" height="16px" width="16px">
    <path d="M2 2v1h12V2zm0 4v1h8V6zm0 4v1h12v-1zm0 4v1h8v-1z" opacity=".2"/>
    <path d="M1.5 1c-.277 0-.5.223-.5.5v2c0 .277.223.5.5.5h13c.277 0 .5-.223.5-.5v-2c0-.277-.223-.5-.5-.5zM2 2h12v1H2zm-.5 3c-.277 0-.5.223-.5.5v2c0 .277.223.5.5.5h9c.277 0 .5-.223.5-.5v-2c0-.277-.223-.5-.5-.5zM2 6h8v1H2zm-.5 3c-.277 0-.5.223-.5.5v2c0 .277.223.5.5.5h13c.277 0 .5-.223.5-.5v-2c0-.277-.223-.5-.5-.5zm.5 1h12v1H2zm-.5 3c-.277 0-.5.223-.5.5v2c0 .277.223.5.5.5h9c.277 0 .5-.223.5-.5v-2c0-.277-.223-.5-.5-.5zm.5 1h8v1H2z"/>
</svg>
