<svg xmlns="http://www.w3.org/2000/svg" viewBox="0 0 16 16" fill="currentColor" height="16px" width="16px">
    <path d="M11 11h3v4.006h-3z" opacity=".4"/>
    <path d="M3.001 1.002v7.994H6V1.002zM9 3.999v5h3V4z" opacity=".2"/>
    <path d="M16 11h-.994V15.5a.499.499 0 01-.503.499H10.5a.499.499 0 01-.499-.499v-4.498H0V9h2.003V.499c0-.272.216-.499.492-.499H6.5c.276 0 .5.223.5.499v8.505h1V3.496c0-.276.224-.499.5-.499H12.5a.5.5 0 01.503.5v5.499H16zm-2 4.006v-4.007h-3v4.007zm-2-6.01V3.999H9v5zm-5.998 0V1.002h-3v7.994z"/>
</svg>
