<?xml version="1.0" encoding="UTF-8" standalone="no"?>
<svg
   xmlns:dc="http://purl.org/dc/elements/1.1/"
   xmlns:cc="http://creativecommons.org/ns#"
   xmlns:rdf="http://www.w3.org/1999/02/22-rdf-syntax-ns#"
   xmlns:svg="http://www.w3.org/2000/svg"
   xmlns="http://www.w3.org/2000/svg"
   id="svg6"
   version="1.1"
   width="16px"
   height="16px"
   fill="currentColor"
   viewBox="0 0 16 16">
  <metadata
     id="metadata12">
    <rdf:RDF>
      <cc:Work
         rdf:about="">
        <dc:format>image/svg+xml</dc:format>
        <dc:type
           rdf:resource="http://purl.org/dc/dcmitype/StillImage" />
        <dc:title />
      </cc:Work>
    </rdf:RDF>
  </metadata>
  <defs
     id="defs10" />
  <path
     id="path4"
     d="M 14,2 V 3 H 2 V 2 Z m 0,4 V 7 H 6 V 6 Z m 0,4 v 1 H 2 v -1 z m 0,4 v 1 H 6 v -1 z"
     style="opacity:0.2" />
  <path
     id="rect826"
     d="M 14.5,1 C 14.777,1 15,1.223 15,1.5 v 2 C 15,3.777 14.777,4 14.5,4 H 1.5 C 1.223,4 1,3.777 1,3.5 v -2 C 1,1.223 1.223,1 1.5,1 Z M 14,2 H 2 v 1 h 12 z m 0.5,3 C 14.777,5 15,5.223 15,5.5 v 2 C 15,7.777 14.777,8 14.5,8 h -9 C 5.223,8 5,7.777 5,7.5 v -2 C 5,5.223 5.223,5 5.5,5 Z M 14,6 H 6 v 1 h 8 z m 0.5,3 C 14.777,9 15,9.223 15,9.5 v 2 C 15,11.777 14.777,12 14.5,12 H 1.5 C 1.223,12 1,11.777 1,11.5 v -2 C 1,9.223 1.223,9 1.5,9 Z M 14,10 H 2 v 1 h 12 z m 0.5,3 c 0.277,0 0.5,0.223 0.5,0.5 v 2 c 0,0.277 -0.223,0.5 -0.5,0.5 h -9 C 5.223,16 5,15.777 5,15.5 v -2 C 5,13.223 5.223,13 5.5,13 Z M 14,14 H 6 v 1 h 8 z"
     style="opacity:1;fill:#000000;fill-opacity:1;stroke:none;stroke-width:2;stroke-linecap:round;stroke-linejoin:round;stroke-miterlimit:4;stroke-dasharray:none;stroke-dashoffset:0;stroke-opacity:1" />
</svg>
