<?xml version="1.0" encoding="UTF-8" standalone="no"?>
<svg
   xmlns:dc="http://purl.org/dc/elements/1.1/"
   xmlns:cc="http://creativecommons.org/ns#"
   xmlns:rdf="http://www.w3.org/1999/02/22-rdf-syntax-ns#"
   xmlns:svg="http://www.w3.org/2000/svg"
   xmlns="http://www.w3.org/2000/svg"
   width="16"
   height="16"
   viewBox="0 0 4.2333332 4.2333335"
   version="1.1"
   id="svg1328">
  <defs
     id="defs1322" />
  <metadata
     id="metadata1325">
    <rdf:RDF>
      <cc:Work
         rdf:about="">
        <dc:format>image/svg+xml</dc:format>
        <dc:type
           rdf:resource="http://purl.org/dc/dcmitype/StillImage" />
        <dc:title />
      </cc:Work>
    </rdf:RDF>
  </metadata>
  <path
     id="rect821"
     d="m 2.9104166,2.9104166 h 0.79375 v 1.0583333 h -0.79375 z"
     style="opacity:0.4;fill:#000000;fill-opacity:1;stroke:none;stroke-width:0.26458332;stroke-linecap:round;stroke-linejoin:round;stroke-miterlimit:4;stroke-dasharray:none;stroke-dashoffset:0;stroke-opacity:1" />
  <path
     id="rect817"
     transform="scale(0.26458333)"
     d="M 3 1 L 3 9 L 6 9 L 6 1 L 3 1 z M 9 4 L 9 9 L 12 9 L 12 4 L 9 4 z "
     style="opacity:0.2;fill:#000000;fill-opacity:1;stroke:none;stroke-width:0.99999994;stroke-linecap:round;stroke-linejoin:round;stroke-miterlimit:4;stroke-dasharray:none;stroke-dashoffset:0;stroke-opacity:1" />
  <path
     style="opacity:1;vector-effect:none;fill:#000000;fill-opacity:1.0;stroke:none;stroke-width:0.26458329;stroke-linecap:butt;stroke-linejoin:round;stroke-miterlimit:3;stroke-dasharray:none;stroke-dashoffset:0;stroke-opacity:1;marker:none;paint-order:normal"
     d="M 4.2333334,2.9104167 H 3.9687501 v 1.1906249 c 0,0.07329 -0.059002,0.1322917 -0.1322917,0.1322917 H 2.7781251 c -0.07329,0 -0.1322917,-0.059002 -0.1322917,-0.1322917 V 2.9104167 l -2.6458333,0 V 2.38125 H 0.5291668 V 0.13229169 C 0.5291668,0.05900157 0.5881588,2e-8 0.6614584,2e-8 l 1.0583334,0 c 0.0733,0 0.1322916,0.05900208 0.1322916,0.13229167 V 2.38125 H 2.1166668 V 0.92604167 c 0,-0.0732901 0.059002,-0.13229166 0.1322916,-0.13229166 h 1.0583334 c 0.0733,0 0.1322916,0.0590021 0.1322916,0.13229166 V 2.38125 h 0.79375 z M 3.7041667,3.96875 V 2.9104167 H 2.9104168 V 3.96875 Z m -0.5291666,-1.5875 0,-1.3229167 -0.79375,0 0,1.3229167 z m -1.5875,0 V 0.26458335 l -0.79375,0 V 2.38125 Z"
     id="rect941" />
</svg>
