<?xml version="1.0" encoding="UTF-8" standalone="no"?>
<svg
   xmlns:dc="http://purl.org/dc/elements/1.1/"
   xmlns:cc="http://creativecommons.org/ns#"
   xmlns:rdf="http://www.w3.org/1999/02/22-rdf-syntax-ns#"
   xmlns:svg="http://www.w3.org/2000/svg"
   xmlns="http://www.w3.org/2000/svg"
   id="svg1328"
   version="1.1"
   viewBox="0 0 4.2333332 4.2333335"
   height="16"
   width="16">
  <defs
     id="defs1322" />
  <metadata
     id="metadata1325">
    <rdf:RDF>
      <cc:Work
         rdf:about="">
        <dc:format>image/svg+xml</dc:format>
        <dc:type
           rdf:resource="http://purl.org/dc/dcmitype/StillImage" />
        <dc:title />
      </cc:Work>
    </rdf:RDF>
  </metadata>
  <path
     id="rect822"
     transform="scale(0.26458333)"
     d="M 4 3 L 4 7 L 12 7 L 12 3 L 4 3 z M 2 10 L 2 14 L 14 14 L 14 10 L 2 10 z "
     style="opacity:0.2;fill:#000000;fill-opacity:1;stroke:none;stroke-width:0.99999994;stroke-linecap:round;stroke-linejoin:round;stroke-miterlimit:4;stroke-dasharray:none;stroke-dashoffset:0;stroke-opacity:1" />
  <path
     id="rect1050"
     transform="scale(0.26458333)"
     d="M 7,0 V 3 H 9 V 0 Z M 3.5,2 C 3.2229999,2 3,2.2229999 3,2.5 v 5 C 3,7.7770016 3.2230001,8 3.5,8 H 6 V 7 H 4 V 3 H 6 V 2 Z M 10,2 v 1 h 2 v 4 h -2 v 1 h 2.5 C 12.777002,8 13,7.7770004 13,7.5 v -5 C 13,2.2229984 12.777,2 12.5,2 Z M 7,4.0000001 v 4 h 2 v -4 z M 1.5,9 C 1.223,9 1,9.223 1,9.5 v 5 C 1,14.777 1.223,15 1.5,15 H 6 V 14 H 2 V 10 H 6 V 9 Z M 10,9 v 1 h 4 v 4 h -4 v 1 h 4.5 c 0.277,0 0.5,-0.223 0.5,-0.5 v -5 C 15,9.223 14.777,9 14.5,9 Z m -3,10e-8 V 13 H 9 V 9.0000001 Z M 7,14 v 2 h 2 v -2 z"
     style="opacity:1;vector-effect:none;fill:#000000;fill-opacity:1;stroke:none;stroke-width:0.99999994;stroke-linecap:butt;stroke-linejoin:miter;stroke-miterlimit:4;stroke-dasharray:none;stroke-dashoffset:0;stroke-opacity:1;marker:none;paint-order:normal" />
</svg>
