<?xml version="1.0" encoding="UTF-8" standalone="no"?>
<svg
   xmlns:dc="http://purl.org/dc/elements/1.1/"
   xmlns:cc="http://creativecommons.org/ns#"
   xmlns:rdf="http://www.w3.org/1999/02/22-rdf-syntax-ns#"
   xmlns:svg="http://www.w3.org/2000/svg"
   xmlns="http://www.w3.org/2000/svg"
   width="16"
   height="16"
   viewBox="0 0 4.2333332 4.2333335"
   version="1.1"
   id="svg1328">
  <defs
     id="defs1322" />
  <metadata
     id="metadata1325">
    <rdf:RDF>
      <cc:Work
         rdf:about="">
        <dc:format>image/svg+xml</dc:format>
        <dc:type
           rdf:resource="http://purl.org/dc/dcmitype/StillImage" />
        <dc:title />
      </cc:Work>
    </rdf:RDF>
  </metadata>
  <path
     id="rect821"
     d="M 2.9104166,0.52916664 H 3.9687499 V 1.3229166 H 2.9104166 Z"
     style="opacity:0.4;fill:#000000;fill-opacity:1;stroke:none;stroke-width:0.26458332;stroke-linecap:round;stroke-linejoin:round;stroke-miterlimit:4;stroke-dasharray:none;stroke-dashoffset:0;stroke-opacity:1" />
  <path
     id="rect817"
     transform="scale(0.26458333)"
     d="M 4 4 L 4 7 L 9 7 L 9 4 L 4 4 z M 1 10 L 1 13 L 9 13 L 9 10 L 1 10 z "
     style="opacity:0.2;fill:#000000;fill-opacity:1;stroke:none;stroke-width:0.99999994;stroke-linecap:round;stroke-linejoin:round;stroke-miterlimit:4;stroke-dasharray:none;stroke-dashoffset:0;stroke-opacity:1" />
  <path
     style="opacity:1;vector-effect:none;fill:#000000;fill-opacity:1.0;stroke:none;stroke-width:0.26458329;stroke-linecap:butt;stroke-linejoin:round;stroke-miterlimit:3;stroke-dasharray:none;stroke-dashoffset:0;stroke-opacity:1;marker:none;paint-order:normal"
     d="m 2.9104167,0 v 0.26458333 h 1.1906249 c 0.07329,0 0.1322917,0.0590021 0.1322917,0.13229167 v 1.0583333 c 0,0.07329 -0.059002,0.1322917 -0.1322917,0.1322917 H 2.9104167 V 4.2333333 H 2.38125 V 3.7041666 H 0.13229169 C 0.05900157,3.7041666 2e-8,3.6451746 2e-8,3.571875 V 2.5135416 C 2e-8,2.4402416 0.0590021,2.38125 0.13229169,2.38125 H 2.38125 V 2.1166666 H 0.92604167 c -0.0732901,0 -0.13229166,-0.059002 -0.13229166,-0.1322916 V 0.92604165 c 0,-0.0733 0.0590021,-0.13229166 0.13229166,-0.13229166 H 2.38125 V 0 Z M 3.96875,0.52916666 H 2.9104167 V 1.3229166 H 3.96875 Z M 2.38125,1.0583333 H 1.0583333 v 0.79375 H 2.38125 Z m 0,1.5875 H 0.26458335 v 0.79375 H 2.38125 Z"
     id="rect941" />
</svg>
