<svg xmlns="http://www.w3.org/2000/svg" viewBox="0 0 16 16" fill="currentColor" height="16px" width="16px">
    <path d="M1.002 2H5v3H1z" opacity=".4"/>
    <path d="M7 4v3h5V4zM7 10v3.002h8.006V10z" opacity=".2"/>
    <path d="M5 0v1.002H.504A.499.499 0 000 1.5V5.5c0 .276.223.499.499.499h4.498V16H7v-2h8.501a.499.499 0 00.499-.498v-4A.499.499 0 0015.501 9h-8.5v-.998H12.5a.499.499 0 00.503-.503V3.5a.499.499 0 00-.503-.499H7V0H4.997zM1.003 2.003H5v2.998H1V2zM7 4h5V7H7zm0 6.002h8.006v3.002H7z"/>
</svg>
