<?xml version="1.0" encoding="UTF-8" standalone="no"?>
<svg
   xmlns:dc="http://purl.org/dc/elements/1.1/"
   xmlns:cc="http://creativecommons.org/ns#"
   xmlns:rdf="http://www.w3.org/1999/02/22-rdf-syntax-ns#"
   xmlns:svg="http://www.w3.org/2000/svg"
   xmlns="http://www.w3.org/2000/svg"
   id="svg1328"
   version="1.1"
   viewBox="0 0 4.2333332 4.2333335"
   height="16"
   width="16">
  <defs
     id="defs1322" />
  <metadata
     id="metadata1325">
    <rdf:RDF>
      <cc:Work
         rdf:about="">
        <dc:format>image/svg+xml</dc:format>
        <dc:type
           rdf:resource="http://purl.org/dc/dcmitype/StillImage" />
        <dc:title />
      </cc:Work>
    </rdf:RDF>
  </metadata>
  <path
     id="rect822"
     transform="scale(0.26458333)"
     d="M 2 2 L 2 14 L 6 14 L 6 2 L 2 2 z M 9 4 L 9 12 L 13 12 L 13 4 L 9 4 z "
     style="opacity:0.2;fill:#000000;fill-opacity:1;stroke:none;stroke-width:0.99999994;stroke-linecap:round;stroke-linejoin:round;stroke-miterlimit:4;stroke-dasharray:none;stroke-dashoffset:0;stroke-opacity:1" />
  <path
     id="rect1050"
     transform="scale(0.26458333)"
     d="M 1.5,1 C 1.2229999,1 1,1.2230001 1,1.5 V 6 H 2 V 2 H 6 V 6 H 7 V 1.5 C 7,1.2229999 6.7770001,1 6.5,1 Z m 7,2 C 8.2229984,3 8,3.2230001 8,3.5 V 6 H 9 V 4 h 4 v 2 h 1 V 3.5 C 14,3.2229999 13.777,3 13.5,3 Z M 0,7 V 9 H 2 V 7 Z M 3,7 V 9 H 7.0000001 V 7 Z M 8.0000001,7 V 9 H 12 V 7 Z M 13,7 v 2 h 3 V 7 Z M 1,10 v 4.5 C 1,14.777002 1.2230001,15 1.5,15 h 5 C 6.7770016,15 7,14.777 7,14.5 V 10 H 6 v 4 H 2 v -4 z m 7,0 v 2.5 C 8,12.777002 8.2229999,13 8.5,13 h 5 C 13.777002,13 14,12.777 14,12.5 V 10 h -1 v 2 H 9 v -2 z"
     style="opacity:1;vector-effect:none;fill:#000000;fill-opacity:1.0;stroke:none;stroke-width:0.99999994;stroke-linecap:butt;stroke-linejoin:miter;stroke-miterlimit:4;stroke-dasharray:none;stroke-dashoffset:0;stroke-opacity:1;marker:none;paint-order:normal" />
</svg>
