<?xml version="1.0" encoding="UTF-8" standalone="no"?>
<svg
   xmlns:dc="http://purl.org/dc/elements/1.1/"
   xmlns:cc="http://creativecommons.org/ns#"
   xmlns:rdf="http://www.w3.org/1999/02/22-rdf-syntax-ns#"
   xmlns:svg="http://www.w3.org/2000/svg"
   xmlns="http://www.w3.org/2000/svg"
   id="svg6"
   version="1.1"
   viewBox="0 0 16 16">
  <metadata
     id="metadata12">
    <rdf:RDF>
      <cc:Work
         rdf:about="">
        <dc:format>image/svg+xml</dc:format>
        <dc:type
           rdf:resource="http://purl.org/dc/dcmitype/StillImage" />
        <dc:title />
      </cc:Work>
    </rdf:RDF>
  </metadata>
  <defs
     id="defs10" />
  <path
     id="path814"
     d="M 8,0 C 6.8954305,0 6,0.8954305 6,2 6.0012614,2.7132679 6.3822903,3.3718822 7,3.7285156 V 6 H 5 v 1 h 2 v 7 C 5,14 3,13 3,10 H 4 L 1,7 v 3 0 c 0,4 3,6 7,6 4,0 7,-2 7,-6 v 0 -3 l -3,3 h 1 c 0,3 -2,4 -4,4 V 7 h 2 V 6 H 9 V 3.7304688 C 9.6183129,3.373486 9.9994351,2.7139659 10,2 10,0.8954305 9.1045695,0 8,0 Z M 8,1 C 8.5522847,1 9,1.4477153 9,2 9,2.5522847 8.5522847,3 8,3 7.4477153,3 7,2.5522847 7,2 7,1.4477153 7.4477153,1 8,1 Z"
     style="opacity:1;fill:#000000;fill-opacity:1;stroke:none;stroke-width:2;stroke-linecap:round;stroke-linejoin:round;stroke-miterlimit:4;stroke-dasharray:none;stroke-dashoffset:0;stroke-opacity:1" />
</svg>
