<svg xmlns="http://www.w3.org/2000/svg" viewBox="0 0 16 16" fill="currentColor" height="16px" width="16px">
    <path d="M2 2v2h12V2zm0 3v8c0 .554.446 1 1 1h10c.554 0 1-.446 1-1V5zm4 2h4c.554 0 1 .5 1 1v1c0 .5-.446 1-1 1H6c-.554 0-1-.446-1-1V8c0-.554.446-1 1-1z" opacity=".2"/>
    <path d="M2 1c-.545 0-1 .455-1 1v11c0 1.1.9 2 2 2h10c1.1 0 2-.9 2-2V2c0-.545-.455-1-1-1zm0 1h12v2H2zm0 3h12v8c0 .563-.437 1-1 1H3c-.563 0-1-.437-1-1zm4 2c-.554 0-1 .446-1 1v1c0 .554.446 1 1 1h4c.554 0 1-.5 1-1V8c0-.5-.446-1-1-1zm0 1h4v1H6z"/>
</svg>
