<?xml version="1.0" encoding="UTF-8" standalone="no"?>
<svg
   xmlns:dc="http://purl.org/dc/elements/1.1/"
   xmlns:cc="http://creativecommons.org/ns#"
   xmlns:rdf="http://www.w3.org/1999/02/22-rdf-syntax-ns#"
   xmlns:svg="http://www.w3.org/2000/svg"
   xmlns="http://www.w3.org/2000/svg"
   id="svg6"
   version="1.1"
   viewBox="0 0 16 16">
  <metadata
     id="metadata12">
    <rdf:RDF>
      <cc:Work
         rdf:about="">
        <dc:format>image/svg+xml</dc:format>
        <dc:type
           rdf:resource="http://purl.org/dc/dcmitype/StillImage" />
        <dc:title />
      </cc:Work>
    </rdf:RDF>
  </metadata>
  <defs
     id="defs10" />
  <path
     id="path2"
     d="M 2,2 V 4 H 14 V 2 Z m 0,3 v 8 c 0,0.554 0.446,1 1,1 h 10 c 0.554,0 1,-0.446 1,-1 V 5 Z m 4,2 h 4 c 0.554,0 1,0.5 1,1 0,0.5 0,0.5 0,1 0,0.5 -0.446,1 -1,1 H 6 C 5.446,10 5,9.554 5,9 V 8 C 5,7.446 5.446,7 6,7 Z"
     style="opacity:0.2" />
  <path
     id="path4"
     d="M 2,1 C 1.4546486,1 1,1.4546486 1,2 V 4 5.5 13 c 0,1.1 0.9,2 2,2 h 10 c 1.1,0 2,-0.9 2,-2 V 5.5 5 4 2 C 15,1.4546486 14.545351,1 14,1 Z M 2,2 H 14 V 4 H 2 Z M 2,5 H 14 V 5.5 13 c 0,0.563 -0.437,1 -1,1 H 3 C 2.437,14 2,13.563 2,13 Z M 6,7 C 5.446,7 5,7.446 5,8 v 1 c 0,0.554 0.446,1 1,1 h 4 c 0.554,0 1,-0.5 1,-1 0,-0.5 0,-0.5 0,-1 0,-0.5 -0.446,-1 -1,-1 z m 0,1 h 4 V 9 H 6 Z" />
</svg>
