<svg xmlns="http://www.w3.org/2000/svg" viewBox="0 0 16 16">
    <path d="M8 15.001a7 7 0 0 0 7-7 7 7 0 0 0-7-7 7 7 0 0 0-7 7 7 7 0 0 0 7 7z" opacity=".2"/>
    <path d="M-.014 8.014C-.211 2.826 5.456-1.345 10.349.371c4.704 1.283 7.136 7.283 4.656 11.477-1.722 3.257-5.861 4.973-9.382 3.809-3.293-.973-5.684-4.213-5.637-7.643zm1 0c-.177 4.618 4.957 8.283 9.268 6.62 3.193-1.014 5.263-4.56 4.62-7.83-.54-3.51-4.063-6.18-7.587-5.755C3.796 1.334.92 4.511.986 8.014zm2-.02a.5.5 0 0 1 .213-.39l5-3.498a.5.5 0 0 1 .787.41v2.496h4v2.002l-4-.002v2.5a.5.5 0 0 1-.787.41l-5-3.498a.5.5 0 0 1-.213-.43z"/>
</svg>
