<?xml version="1.0" encoding="UTF-8" standalone="no"?>
<svg
   xmlns:dc="http://purl.org/dc/elements/1.1/"
   xmlns:cc="http://creativecommons.org/ns#"
   xmlns:rdf="http://www.w3.org/1999/02/22-rdf-syntax-ns#"
   xmlns:svg="http://www.w3.org/2000/svg"
   xmlns="http://www.w3.org/2000/svg"
   id="svg6"
   version="1.1"
   viewBox="0 0 16 16">
  <metadata
     id="metadata12">
    <rdf:RDF>
      <cc:Work
         rdf:about="">
        <dc:format>image/svg+xml</dc:format>
        <dc:type
           rdf:resource="http://purl.org/dc/dcmitype/StillImage" />
      </cc:Work>
    </rdf:RDF>
  </metadata>
  <defs
     id="defs10" />
  <path
     id="path2"
     opacity=".2"
     d="M7.973 15.001a7 7 0 0 1-7-7 7 7 0 0 1 7-7 7 7 0 0 1 7 7 7 7 0 0 1-7 7z" />
  <path
     id="path4"
     d="M15.987 8.014c.197-5.188-5.47-9.359-10.363-7.643C.92 1.654-1.513 7.654.967 11.848c1.722 3.257 5.862 4.973 9.383 3.809 3.293-.973 5.684-4.213 5.637-7.643zm-1 0c.177 4.618-4.957 8.283-9.268 6.62-3.193-1.014-5.263-4.56-4.62-7.83.54-3.51 4.063-6.18 7.587-5.755 3.491.285 6.366 3.462 6.301 6.965zm-2-.02a.5.5 0 0 0-.213-.39l-5-3.498a.5.5 0 0 0-.787.41v2.496h-4v2.002l4-.002v2.5a.5.5 0 0 0 .787.41l5-3.498a.5.5 0 0 0 .213-.43z" />
</svg>
