<?xml version="1.0" encoding="UTF-8" standalone="no"?>
<svg
   xmlns:dc="http://purl.org/dc/elements/1.1/"
   xmlns:cc="http://creativecommons.org/ns#"
   xmlns:rdf="http://www.w3.org/1999/02/22-rdf-syntax-ns#"
   xmlns:svg="http://www.w3.org/2000/svg"
   xmlns="http://www.w3.org/2000/svg"
   id="svg6"
   version="1.1"
   viewBox="0 0 16 16">
  <metadata
     id="metadata12">
    <rdf:RDF>
      <cc:Work
         rdf:about="">
        <dc:format>image/svg+xml</dc:format>
        <dc:type
           rdf:resource="http://purl.org/dc/dcmitype/StillImage" />
      </cc:Work>
    </rdf:RDF>
  </metadata>
  <defs
     id="defs10" />
  <path
     id="path2"
     d="M1 1v6h6V1zm7 0v1h7V1zM2 2h4v4H2zm6 1v1h6V3zm0 2v1h7V5zm0 2v1h6V7zm0 1H1v1h7zm1 1v6h6V9zm-7 1v1h6v-1zm8 0h4v4h-4zm-9 2v1h7v-1zm1 2v1h6v-1z" />
  <path
     id="path4"
     opacity=".2"
     d="M2 2v4h4V2zm8 8v4h4v-4z" />
</svg>
