<svg xmlns="http://www.w3.org/2000/svg" viewBox="0 0 16 16" fill="currentColor" height="16px" width="16px">
    <path d="M8 1c-.554 0-1 .446-1 1v.02H2c-.554 0-1 .446-1 1s.446 1 1 1h.15L.063 7.778A.5.5 0 000 8.01v.002a.5.5 0 00.012.12A2.994 2.994 0 003 11.01a2.99 2.99 0 002.965-2.652.5.5 0 00.066-.588L3.867 4.02H7v8.05c-2.282.232-4 1.24-4 2.45v.5h10v-.5c0-1.21-1.718-2.218-4-2.45V4.02h3.143l-2.088 3.758a.5.5 0 00-.04.39A2.992 2.992 0 0013 11.01a2.99 2.99 0 002.967-2.662.5.5 0 00.056-.578L13.86 4.02H14c.554 0 1-.446 1-1s-.446-1-1-1H9V2c0-.554-.446-1-1-1zM3.008 4.536L5.016 8.01H1.078zm9.992 0l2.008 3.474H11.07z"/>
</svg>
