<?xml version="1.0" encoding="UTF-8" standalone="no"?>
<svg
   xmlns:dc="http://purl.org/dc/elements/1.1/"
   xmlns:cc="http://creativecommons.org/ns#"
   xmlns:rdf="http://www.w3.org/1999/02/22-rdf-syntax-ns#"
   xmlns:svg="http://www.w3.org/2000/svg"
   xmlns="http://www.w3.org/2000/svg"
   id="svg6"
   version="1.1"
   viewBox="0 0 16 16">
  <metadata
     id="metadata12">
    <rdf:RDF>
      <cc:Work
         rdf:about="">
        <dc:format>image/svg+xml</dc:format>
        <dc:type
           rdf:resource="http://purl.org/dc/dcmitype/StillImage" />
        <dc:title />
      </cc:Work>
    </rdf:RDF>
  </metadata>
  <defs
     id="defs10" />
  <path
     id="path2"
     d="M 2 4 C 1.446 4 1 4.446 1 5 L 1 12 C 1 12.554 1.446 13 2 13 L 13 13 C 13.554 13 14 12.554 14 12 L 14 10 L 15 10 L 15 7 L 14 7 L 14 5 C 14 4.446 13.554 4 13 4 L 2 4 z M 2.5 5 L 13 5 L 13 8 L 14 8 L 14 9 L 13 9 L 13 12 L 2.5 12 C 2.223 12 2 11.777 2 11.5 L 2 5.5 C 2 5.223 2.223 5 2.5 5 z "
     style="opacity:0.2" />
  <path
     id="path4"
     d="M 2 3 C 0.892 3 0 3.892 0 5 L 0 12 C 0 13.108 0.892 14 2 14 L 13 14 C 14.108 14 15 13.108 15 12 L 15 11 C 15.545351 11 16 10.545351 16 10 L 16 7 C 16 6.4546486 15.545351 6 15 6 L 15 5 C 15 3.892 14.108 3 13 3 L 2 3 z M 2 4 L 13 4 C 13.554 4 14 4.446 14 5 L 14 6 L 14 7 L 15 7 L 15 10 L 14 10 L 14 11 L 14 12 C 14 12.554 13.554 13 13 13 L 2 13 C 1.446 13 1 12.554 1 12 L 1 5 C 1 4.446 1.446 4 2 4 z " />
  <path
     id="rect865"
     d="M 2.5 5 C 2.223 5 2 5.223 2 5.5 L 2 11.5 C 2 11.777 2.223 12 2.5 12 L 13 12 L 13 9 L 14 9 L 14 8 L 13 8 L 13 5 L 2.5 5 z "
     style="opacity:0.5;fill:#000000;fill-opacity:1;stroke:none;stroke-width:1;stroke-linecap:butt;stroke-linejoin:round;stroke-miterlimit:4;stroke-dasharray:none;stroke-dashoffset:0;stroke-opacity:1" />
</svg>
