<?xml version="1.0" encoding="UTF-8" standalone="no"?>
<svg
   xmlns:dc="http://purl.org/dc/elements/1.1/"
   xmlns:cc="http://creativecommons.org/ns#"
   xmlns:rdf="http://www.w3.org/1999/02/22-rdf-syntax-ns#"
   xmlns:svg="http://www.w3.org/2000/svg"
   xmlns="http://www.w3.org/2000/svg"
   id="svg6"
   version="1.1"
   viewBox="0 0 16 16">
  <metadata
     id="metadata12">
    <rdf:RDF>
      <cc:Work
         rdf:about="">
        <dc:format>image/svg+xml</dc:format>
        <dc:type
           rdf:resource="http://purl.org/dc/dcmitype/StillImage" />
        <dc:title />
      </cc:Work>
    </rdf:RDF>
  </metadata>
  <defs
     id="defs10" />
  <path
     style="opacity:0.2;fill:#000000;stroke:none;stroke-width:1px;stroke-linecap:butt;stroke-linejoin:miter;stroke-opacity:1"
     d="m 1.5,4 c 0,1 2,4 2,9 v 1 c 0,0.831 0.669,1.5 1.5,1.5 h 6 c 0.831,0 1.5,-0.669 1.5,-1.5 v -1 c 0,-5 2,-8 2,-9 -2,0 -11.5,0.055447 -13,0 z"
     id="path827" />
  <path
     id="path817"
     d="M 3,0 C 2.5833333,0 2.1513794,0.1632715 1.75,0.484375 1.3486206,0.8054785 1,1.3333333 1,2 1,4.0833333 1.5236039,5.6533729 2.0214844,7.2714844 2.5193648,8.8895959 3,10.566667 3,13 v 1 c 0,1.099351 0.9006486,2 2,2 h 6 c 1.099351,0 2,-0.900649 2,-2 V 13 C 13,10.566667 13.480635,8.8895959 13.978516,7.2714844 14.476396,5.6533729 15,4.0833333 15,2 15,1.3333333 14.651379,0.8054785 14.25,0.484375 13.848621,0.1632715 13.416667,0 13,0 Z m 0,1 h 10 c 0.08333,0 0.401379,0.086728 0.625,0.265625 C 13.848621,1.4445215 14,1.6666667 14,2 14,3.9166667 13.523604,5.3466271 13.021484,6.9785156 12.519365,8.6104041 12,10.433333 12,13 v 1 c 0,0.562649 -0.437351,1 -1,1 H 5 C 4.4373514,15 4,14.562649 4,14 V 13 C 4,10.433333 3.4806352,8.6104041 2.9785156,6.9785156 2.4763961,5.3466271 2,3.9166667 2,2 2,1.6666667 2.1513794,1.4445215 2.375,1.265625 2.5986206,1.0867285 2.9166667,1 3,1 Z"
     style="color:#000000;font-style:normal;font-variant:normal;font-weight:normal;font-stretch:normal;font-size:medium;line-height:normal;font-family:sans-serif;font-variant-ligatures:normal;font-variant-position:normal;font-variant-caps:normal;font-variant-numeric:normal;font-variant-alternates:normal;font-feature-settings:normal;text-indent:0;text-align:start;text-decoration:none;text-decoration-line:none;text-decoration-style:solid;text-decoration-color:#000000;letter-spacing:normal;word-spacing:normal;text-transform:none;writing-mode:lr-tb;direction:ltr;text-orientation:mixed;dominant-baseline:auto;baseline-shift:baseline;text-anchor:start;white-space:normal;shape-padding:0;clip-rule:nonzero;display:inline;overflow:visible;visibility:visible;opacity:1;isolation:auto;mix-blend-mode:normal;color-interpolation:sRGB;color-interpolation-filters:linearRGB;solid-color:#000000;solid-opacity:1;vector-effect:none;fill:#000000;fill-opacity:1;fill-rule:nonzero;stroke:none;stroke-width:1px;stroke-linecap:butt;stroke-linejoin:miter;stroke-miterlimit:4;stroke-dasharray:none;stroke-dashoffset:0;stroke-opacity:1;color-rendering:auto;image-rendering:auto;shape-rendering:auto;text-rendering:auto;enable-background:accumulate" />
</svg>
