<svg xmlns="http://www.w3.org/2000/svg" viewBox="0 0 16 16" fill="currentColor" height="16px" width="16px">
    <path d="M7.998 1.002a.998.998 0 00-.998 1c0 .05.02.091.027.139-.092.023-.186.044-.277.07l-.104.035c-.139.05-.272.11-.404.174-.05.024-.102.044-.15.07-.165.09-.323.19-.473.301l8.192 8.191C13.182 9.517 12 9.352 12 8.006V6.002a3.955 3.955 0 00-3.027-3.86c0-.006.002-.012.004-.019v-.006c.004-.04.023-.074.023-.115 0-.044-.02-.082-.025-.125a.999.999 0 00-.027-.137c-.002-.003-.002-.006-.003-.01a.96.96 0 00-.09-.216v-.002a.99.99 0 00-.105-.155l-.002-.002a.96.96 0 00-.105-.103l-.006-.006a.987.987 0 00-.2-.135l-.001-.002c-.002 0-.004 0-.006-.002-.026-.012-.051-.024-.078-.035l-.004-.002a.995.995 0 00-.346-.068h-.004zM4 6.828v1.174c0 1.5-1.495 2.263-2 3.5 0 .831.669 1.5 1.5 1.5h6.674L4 6.828z" opacity=".2"/>
    <path d="M8 0a2 2 0 00-1.912 1.412c-.407.186-.775.441-1.111.736l.642.643c.15-.11.308-.214.473-.303.048-.026.1-.045.15-.07.132-.064.265-.125.404-.174l.104-.035c.091-.026.185-.047.277-.07C7.021 2.09 7 2.049 7 2c0-.553.445-.999.998-1h.004c.122 0 .237.028.346.068l.004.002c.027.01.052.023.078.035l.006.002.002.002a.987.987 0 01.199.135l.006.006a.96.96 0 01.105.104l.002.001c.04.048.074.1.105.155v.002a.96.96 0 01.09.217l.002.01a.999.999 0 01.028.136C8.98 1.918 9 1.955 9 2c0 .04-.019.076-.023.115v.006l-.004.02A3.955 3.955 0 0112 6V7.906c0 1.443 1.223 1.594 1.826 3.092l1.096 1.096c.046-.191.078-.388.078-.594 0-1.214-1.11-2-2-3.543V7c0-2.553-1.183-4.718-3.09-5.588A2 2 0 008 0zM1.99.99a1 1 0 00-.697 1.717l12 12a1 1 0 101.414-1.414l-12-12A1 1 0 001.99.99zm1.092 4.92C3.032 6.264 3 6.626 3 7v1.05c-.388 1.45-2 2.236-2 3.45C1 12.885 2.115 14 3.5 14H6a2 2 0 104 0h1.172l-1-1H3.5c-.831 0-1.5-.669-1.5-1.5.505-1.237 2-2 2-3.5V6.828l-.918-.918zM6.984 14h2a1 1 0 11-2 0z"/>
    <path d="M8.984 14h-2a1 1 0 102 0z" opacity=".4"/>
</svg>
