<?xml version="1.0" encoding="UTF-8" standalone="no"?>
<svg
   xmlns:dc="http://purl.org/dc/elements/1.1/"
   xmlns:cc="http://creativecommons.org/ns#"
   xmlns:rdf="http://www.w3.org/1999/02/22-rdf-syntax-ns#"
   xmlns:svg="http://www.w3.org/2000/svg"
   xmlns="http://www.w3.org/2000/svg"
   id="svg6"
   version="1.1"
   viewBox="0 0 16 16">
  <metadata
     id="metadata12">
    <rdf:RDF>
      <cc:Work
         rdf:about="">
        <dc:format>image/svg+xml</dc:format>
        <dc:type
           rdf:resource="http://purl.org/dc/dcmitype/StillImage" />
        <dc:title />
      </cc:Work>
    </rdf:RDF>
  </metadata>
  <defs
     id="defs10" />
  <path
     id="path864"
     d="m 8.0022729,1.0011918 -0.00196,-4.2e-6 -0.00196,-4.3e-6 c -0.5530749,0.00107 -0.9980469,0.4466659 -0.9980469,1 -3e-7,0.04914 0.020562,0.091466 0.027347,0.1386736 -0.092415,0.023328 -0.1859737,0.04388 -0.277344,0.070312 -0.034639,0.011457 -0.06935,0.022718 -0.1035164,0.035156 -0.1392604,0.049346 -0.27264,0.1099103 -0.4042967,0.1738284 -0.049509,0.024553 -0.1018798,0.043941 -0.150394,0.07031 C 4.848631,3.1589218 4.0003036,4.470042 4.0003032,6.0011826 v 1 l 2e-7,0.9999996 c 1e-7,1.4999999 -1.4954337,2.2633768 -1.9999993,3.5000008 10e-8,0.831 0.6690001,1.5 1.5,1.5 l 8.9999999,-10e-7 c 0.831016,10e-6 1.500016,-0.66899 1.500016,-1.49999 -0.537596,-1.9789232 -1.999999,-1.9999995 -2,-3.4943686 l 10e-7,-1.0056311 v -1 c 0,-1.89015 -1.291643,-3.4382502 -3.0273451,-3.8593755 9.549e-4,-0.00665 0.00255,-0.013015 0.00389,-0.019541 4.031e-4,-0.00188 -4.585e-4,-0.00401 2.35e-5,-0.00584 0.00472,-0.039572 0.023435,-0.07435 0.023436,-0.1152326 3.2e-6,-0.044346 -0.019844,-0.082209 -0.025391,-0.1250007 -0.00121,-0.00651 -0.00253,-0.013026 -0.00391,-0.01953 -0.00597,-0.039835 -0.012942,-0.079064 -0.023436,-0.1171873 -8.318e-4,-0.00316 -0.00104,-0.00659 -0.00197,-0.00979 -0.021135,-0.073893 -0.047396,-0.1412929 -0.083984,-0.2070312 -0.00192,-0.00327 -0.00387,-0.0065 -0.0059,-0.00979 l 6e-7,-0.00195 C 8.824412,1.456358 8.790975,1.4040518 8.7502666,1.3566327 c -6.501e-4,-6.52e-4 -0.00132,-0.00131 -0.00198,-0.00197 -0.0329,-0.038115 -0.067206,-0.070776 -0.1054691,-0.1035161 -0.00198,-0.00198 -0.00387,-0.0039 -0.00586,-0.00585 -0.06154,-0.051793 -0.1262233,-0.098909 -0.1992117,-0.1347611 -6.5e-4,-6.52e-4 -0.00132,-0.00131 -0.00198,-0.00197 -0.00189,-9.243e-4 -0.00401,-0.00106 -0.0059,-0.00198 -0.025921,-0.012564 -0.050764,-0.024874 -0.07813,-0.035155 -0.00134,-6.775e-4 -0.0026,-0.0013 -0.00394,-0.00197 C 8.239585,1.0292831 8.1245456,1.0013293 8.0020834,1.001092 Z m 0,0 c 0.023931,1e-5 0.046511,0.00356 0.070315,0.00391 -0.023389,-0.00213 -0.046838,-0.00343 -0.070315,-0.00391 z"
     style="opacity:0.2;fill:#000000;fill-opacity:1;stroke:none;stroke-width:1;stroke-linecap:round;stroke-linejoin:round;stroke-miterlimit:4;stroke-dasharray:none;stroke-dashoffset:0;stroke-opacity:1" />
  <path
     id="rect815"
     d="M 3.5136719 -0.00390625 A 0.50005 0.50005 0 0 0 3.2421875 0.0703125 C 1.9627637 0.83796677 1.1123629 1.5330868 0.61523438 2.5273438 C 0.1181059 3.5216006 0 4.7261905 0 6.5 A 0.50005 0.50005 0 1 0 1 6.5 C 1 4.7738095 1.1318941 3.7283993 1.5097656 2.9726562 C 1.8876371 2.2169133 2.5372363 1.6620332 3.7578125 0.9296875 A 0.50005 0.50005 0 0 0 3.5136719 -0.00390625 z M 12.470703 -0.00390625 A 0.50005 0.50005 0 0 0 12.242188 0.9296875 C 13.462763 1.6620332 14.112363 2.2169132 14.490234 2.9726562 C 14.868106 3.7283994 15 4.7738095 15 6.5 A 0.50005 0.50005 0 1 0 16 6.5 C 16 4.7261905 15.881894 3.5216007 15.384766 2.5273438 C 14.887637 1.5330867 14.037237 0.83796677 12.757812 0.0703125 A 0.50005 0.50005 0 0 0 12.470703 -0.00390625 z M 8 0 C 7.1217096 -0.00020439 6.3460603 0.57262028 6.0878906 1.4121094 C 4.1818335 2.2820072 2.9999997 4.4473605 3 7 L 3 8.0507812 C 2.6117192 9.5000213 1.0000002 10.28614 1 11.5 C 1.0000001 12.885 2.1150001 14 3.5 14 L 6 14 C 5.9999999 15.104569 6.8954301 16 8 16 C 9.1045694 16 10.000001 15.104569 10 14 L 12.5 14 C 13.884999 14 15.000001 12.885 15 11.5 C 15 10.28614 13.890834 9.5000002 13 7.9570312 L 13 7 C 12.999999 4.4466316 11.817172 2.2815121 9.9101562 1.4121094 C 9.6521985 0.57330915 8.8775684 0.00065302 8 0 z M 7.9980469 1 L 8 1 L 8.0019531 1 C 8.1244144 1.0002368 8.2394459 1.0281866 8.3476562 1.0683594 C 8.3489962 1.0690294 8.3502225 1.069635 8.3515625 1.0703125 C 8.3789285 1.0805925 8.4037665 1.0929047 8.4296875 1.1054688 C 8.4315775 1.1063887 8.4336569 1.1064975 8.4355469 1.1074219 C 8.4355469 1.1074219 8.4375 1.109375 8.4375 1.109375 C 8.5104883 1.1452274 8.5751718 1.1923406 8.6367188 1.2441406 C 8.6387088 1.2460906 8.6405981 1.24802 8.6425781 1.25 C 8.6808404 1.2827396 8.7151469 1.3154006 8.7480469 1.3535156 C 8.7480469 1.3535156 8.75 1.3554688 8.75 1.3554688 C 8.7907074 1.4028874 8.8241518 1.455202 8.8554688 1.5097656 L 8.8554688 1.5117188 C 8.8574988 1.5150088 8.8594081 1.5182144 8.8613281 1.5214844 C 8.8979161 1.5872227 8.9241775 1.6546226 8.9453125 1.7285156 C 8.9462425 1.7317156 8.9464337 1.7351212 8.9472656 1.7382812 C 8.9577596 1.7764045 8.9647331 1.8156337 8.9707031 1.8554688 C 8.9720831 1.8619727 8.9733994 1.86849 8.9746094 1.875 C 8.9801564 1.9177917 9.0000032 1.955654 9 2 C 8.999998 2.0408825 8.9812825 2.0756624 8.9765625 2.1152344 C 8.9760805 2.1170644 8.9769656 2.1192138 8.9765625 2.1210938 C 8.9752225 2.1276197 8.9736112 2.133975 8.9726562 2.140625 C 10.708358 2.5617501 12 4.1098499 12 6 L 12 7 L 12 7.90625 C 12 9.5 13.5 9.5 14 11.5 C 14 12.331 13.331018 13.00001 12.5 13 L 3.5 13 C 2.6690009 13 2 12.330999 2 11.5 C 2.5045665 10.263377 4.0000001 9.4999999 4 8 L 4 7 L 4 6 C 3.9999994 4.468859 4.8483271 3.1577401 6.0917969 2.4882812 C 6.1403111 2.4619123 6.1926782 2.4425215 6.2421875 2.4179688 C 6.3738442 2.3540507 6.507224 2.2934862 6.6464844 2.2441406 C 6.6806509 2.2317026 6.715361 2.2204414 6.75 2.2089844 C 6.8413703 2.1825524 6.9349288 2.1619999 7.0273438 2.1386719 C 7.0205587 2.0914643 6.9999997 2.04914 7 2 C 7 1.4466659 7.4449719 1.00107 7.9980469 1 z M 6.984375 14 L 8.984375 14 C 8.9843754 14.552286 8.5366599 15.000001 7.984375 15 C 7.4320899 15.000001 6.9843749 14.552286 6.984375 14 z "
     style="opacity:1;fill:#000000;fill-opacity:1;stroke:none;stroke-width:1;stroke-linecap:round;stroke-linejoin:round;stroke-miterlimit:4;stroke-dasharray:none;stroke-dashoffset:0;stroke-opacity:1" />
  <path
     style="opacity:0.4;fill:#000000;fill-opacity:1;stroke:none;stroke-width:1;stroke-linecap:round;stroke-linejoin:round;stroke-miterlimit:4;stroke-dasharray:none;stroke-dashoffset:0;stroke-opacity:1"
     d="M 8.9843744,14.000001 6.9843753,14 c -2e-7,0.552285 0.4477145,1.000001 0.9999997,1.000001 0.5522854,0 1.0000003,-0.447715 0.9999994,-1 z"
     id="path862" />
</svg>
