<?xml version="1.0" encoding="UTF-8" standalone="no"?>
<svg
   xmlns:dc="http://purl.org/dc/elements/1.1/"
   xmlns:cc="http://creativecommons.org/ns#"
   xmlns:rdf="http://www.w3.org/1999/02/22-rdf-syntax-ns#"
   xmlns:svg="http://www.w3.org/2000/svg"
   xmlns="http://www.w3.org/2000/svg"
   id="svg6"
   version="1.1"
   viewBox="0 0 16 16">
  <metadata
     id="metadata12">
    <rdf:RDF>
      <cc:Work
         rdf:about="">
        <dc:format>image/svg+xml</dc:format>
        <dc:type
           rdf:resource="http://purl.org/dc/dcmitype/StillImage" />
        <dc:title />
      </cc:Work>
    </rdf:RDF>
  </metadata>
  <defs
     id="defs10" />
  <path
     id="path864"
     d="m 2.3280953,2.1785892 -0.0017,9.766e-4 -0.0017,9.765e-4 c -0.478442,0.2774641 -0.641001,0.8858475 -0.364334,1.3650489 0.02457,0.042557 0.06354,0.068931 0.09302,0.1064214 -0.06837,0.06641 -0.139118,0.1309879 -0.205031,0.1995638 -0.02427,0.027242 -0.0487,0.054349 -0.07207,0.082204 -0.09593,0.1123651 -0.181158,0.2315051 -0.263217,0.3526881 -0.0306,0.046018 -0.06626,0.088994 -0.09509,0.1360873 -0.74214701,1.2015033 -0.82126001,2.7611304 -0.05569,4.0871372 l 0.5,0.8660254 0.5,0.8660246 c 0.75,1.299038 -0.163395,2.707859 0.01795,4.031089 0.4155,0.719667 1.329371,0.964538 2.049038,0.549038 l 7.7942287,-4.5 C 12.943186,9.9063706 13.188057,8.9924996 12.772557,8.2728325 11.317523,6.827833 10.040506,7.5407817 9.2933215,6.2466203 l -0.5028156,-0.8709021 -0.5,-0.8660254 C 7.3454309,2.8727748 5.4527863,2.1779021 3.7390613,2.6810479 c -0.0025,-0.00624 -0.0043,-0.012546 -0.0064,-0.018869 -5.91e-4,-0.00183 -0.0024,-0.00324 -0.0029,-0.00507 -0.0157,-0.036629 -0.01688,-0.076106 -0.03732,-0.1115124 -0.02217,-0.038406 -0.05829,-0.061273 -0.08449,-0.095558 -0.0043,-0.00503 -0.0087,-0.010018 -0.01315,-0.014959 -0.02509,-0.031512 -0.05074,-0.062001 -0.07889,-0.089769 -0.0023,-0.00232 -0.0042,-0.00519 -0.0066,-0.00749 -0.05525,-0.053426 -0.111693,-0.098665 -0.176248,-0.1373022 -0.0033,-0.00187 -0.0066,-0.0037 -0.01,-0.00553 l -9.75e-4,-0.00169 c -0.05441,-0.031594 -0.10952,-0.060174 -0.168484,-0.080886 -8.89e-4,-2.396e-4 -0.0018,-4.759e-4 -0.0027,-7.138e-4 -0.04755,-0.016558 -0.09359,-0.027691 -0.143097,-0.036913 -0.0027,-7.224e-4 -0.0053,-0.00144 -0.008,-0.00214 -0.0792,-0.014084 -0.158775,-0.022546 -0.239911,-0.017101 -8.89e-4,-2.396e-4 -0.0018,-4.759e-4 -0.0027,-7.138e-4 -0.0021,1.451e-4 -0.004,0.00109 -0.0061,0.00124 -0.02873,0.00208 -0.0564,0.00384 -0.08524,0.00862 -0.0015,8.37e-5 -0.0029,1.741e-4 -0.0044,2.662e-4 -0.113797,0.019304 -0.227401,0.052615 -0.333575,0.1136406 z m 0,0 c 0.02073,-0.011957 0.04206,-0.020171 0.06285,-0.03177 -0.02132,0.00985 -0.04228,0.020444 -0.06285,0.03177 z"
     style="opacity:0.2;fill:#000000;fill-opacity:1;stroke:none;stroke-width:1;stroke-linecap:round;stroke-linejoin:round;stroke-miterlimit:4;stroke-dasharray:none;stroke-dashoffset:0;stroke-opacity:1" />
  <path
     id="rect815"
     d="m 3.0490463,1.0573445 c 0.414684,0.047058 0.81532,0.2247158 1.136719,0.5234375 2.0862251,-0.2005835 4.194018,1.0836402 5.4707021,3.2949219 l 0.4785156,0.828125 c 1.542969,0.8908335 2.895023,1.0171258 3.501953,2.0683594 0.6925,1.1994452 0.200435,2.5917957 -0.914062,3.4140617 l -1.134766,0.837891 c 0.552285,0.956585 0.224163,2.180137 -0.732422,2.732422 -0.956585,0.552285 -2.1801372,0.224163 -2.7324217,-0.732422 l -3.195312,1.662109 c -1.228603,0.639343 -2.721562,0.285383 -3.414063,-0.914062 -0.60693001,-1.051234 0.396172,-2.539062 0.0078,-3.988281 L 0.99631129,9.8757039 c -1.27632,-2.2106505 -1.336838,-4.6783834 -0.121093,-6.3847656 C 0.67905529,2.6348346 1.0656653,1.7521721 1.8263893,1.3132039 2.2065513,1.0940946 2.6343613,1.0102865 3.0490463,1.0573445 Z m -0.292969,0.9960938 c -0.0021,1.451e-4 -0.0038,0.0018 -0.0059,0.00195 -0.02873,0.00208 -0.0571,0.00303 -0.08594,0.00781 -0.0015,8.37e-5 -0.0024,-9.21e-5 -0.0039,0 -0.113797,0.019304 -0.227811,0.054209 -0.333985,0.1152344 l -0.002,0.00195 c -0.478442,0.2774641 -0.641901,0.886033 -0.365234,1.3652344 0.02457,0.042557 0.06427,0.067978 0.09375,0.1054687 -0.06837,0.06641 -0.139165,0.1306429 -0.205078,0.1992188 -0.02427,0.027242 -0.0489,0.054176 -0.07227,0.082031 -0.09593,0.1123651 -0.181613,0.2323326 -0.263672,0.3535157 -0.0306,0.046018 -0.06687,0.089625 -0.0957,0.1367187 -0.74214701,1.2015033 -0.82025801,2.7599307 -0.05469,4.0859375 l 0.5,0.8671875 0.5,0.865234 c 0.75,1.299038 -0.163766,2.70802 0.01758,4.03125 0.4155,0.719667 1.329162,0.964328 2.048828,0.548828 l 7.7949217,-4.5 C 12.942562,9.9055163 13.187202,8.9918554 12.771702,8.2721883 11.338689,6.7901375 10.03928,7.539135 9.2424049,6.158907 l -0.453125,-0.7832031 -0.5,-0.8671875 C 7.3442049,2.8715984 5.4522233,2.1772456 3.7384993,2.6803914 c -0.0025,-0.00624 -0.0038,-0.013208 -0.0059,-0.019531 -5.91e-4,-0.00183 -0.0034,-0.00208 -0.0039,-0.00391 -0.0157,-0.036629 -0.01667,-0.075922 -0.03711,-0.1113281 -0.02217,-0.038406 -0.05779,-0.061418 -0.08399,-0.095703 -0.0043,-0.00503 -0.0092,-0.010684 -0.01367,-0.015625 -0.02509,-0.031512 -0.04997,-0.062076 -0.07813,-0.089844 -0.0023,-0.00232 -0.0054,-0.00551 -0.0078,-0.00781 -0.05525,-0.053426 -0.111226,-0.098082 -0.175781,-0.1367188 -0.0033,-0.00187 -0.0064,-0.00403 -0.0098,-0.00586 l -0.002,-0.00195 c -0.05441,-0.031594 -0.109006,-0.059366 -0.167969,-0.080078 0,0 -0.002,-0.00195 -0.002,-0.00195 -0.04755,-0.016558 -0.09502,-0.027887 -0.144531,-0.037109 -0.0027,-7.224e-4 -0.0051,-0.00125 -0.0078,-0.00195 -0.0792,-0.014084 -0.157146,-0.02107 -0.238282,-0.015625 -8.89e-4,-2.396e-4 -0.003,-0.00172 -0.0039,-0.00195 z M 15.480686,5.018282 a 0.50005,0.50005 0 0 1 0.347656,0.859375 l -1,1 A 0.50005,0.50005 0 1 1 14.121311,6.1706258 l 1,-1 A 0.50005,0.50005 0 0 1 15.480686,5.018282 Z m -0.0059,3.0058594 c 0.277,0 0.5,0.223 0.5,0.5 0,0.277 -0.223,0.5 -0.5,0.5 -0.277,0 -0.5,-0.223 -0.5,-0.5 0,-0.277 0.223,-0.5 0.5,-0.5 z m -0.990235,2.9960936 a 0.50005,0.50005 0 0 1 0.34375,0.15039 l 1,1 a 0.50005,0.50005 0 1 1 -0.707031,0.707032 l -1,-1 a 0.50005,0.50005 0 0 1 0.363281,-0.857422 z m -3.77539,1.511718 -1.7324221,1 c 0.2761425,0.478293 0.8869418,0.641378 1.3652341,0.365235 0.478293,-0.276142 0.64333,-0.886941 0.367188,-1.365235 z"
     style="opacity:1;fill:#000000;fill-opacity:1;stroke:none;stroke-width:1;stroke-linecap:round;stroke-linejoin:round;stroke-miterlimit:4;stroke-dasharray:none;stroke-dashoffset:0;stroke-opacity:1" />
  <path
     style="opacity:0.4;fill:#000000;fill-opacity:1;stroke:none;stroke-width:1;stroke-linecap:round;stroke-linejoin:round;stroke-miterlimit:4;stroke-dasharray:none;stroke-dashoffset:0;stroke-opacity:1"
     d="m 10.706877,12.524142 -1.7320502,0.999999 c 0.2761424,0.478293 0.8877327,0.642169 1.3660252,0.366026 0.478293,-0.276143 0.642168,-0.887733 0.366025,-1.366025 z"
     id="path862" />
</svg>
