<?xml version="1.0" encoding="UTF-8" standalone="no"?>
<svg
   xmlns:dc="http://purl.org/dc/elements/1.1/"
   xmlns:cc="http://creativecommons.org/ns#"
   xmlns:rdf="http://www.w3.org/1999/02/22-rdf-syntax-ns#"
   xmlns:svg="http://www.w3.org/2000/svg"
   xmlns="http://www.w3.org/2000/svg"
   id="svg6"
   version="1.1"
   viewBox="0 0 16 16">
  <metadata
     id="metadata12">
    <rdf:RDF>
      <cc:Work
         rdf:about="">
        <dc:format>image/svg+xml</dc:format>
        <dc:type
           rdf:resource="http://purl.org/dc/dcmitype/StillImage" />
        <dc:title />
      </cc:Work>
    </rdf:RDF>
  </metadata>
  <defs
     id="defs10" />
  <path
     id="path864"
     d="M 7.9980469 1.0019531 C 7.444972 1.0030231 7 1.448619 7 2.0019531 C 6.9999997 2.0510931 7.0205587 2.0934174 7.0273438 2.140625 C 6.9349288 2.163953 6.8413703 2.1845055 6.75 2.2109375 C 6.715361 2.2223945 6.6806508 2.2336557 6.6464844 2.2460938 C 6.507224 2.2954397 6.3738442 2.3560038 6.2421875 2.4199219 C 6.1926785 2.4444749 6.1403111 2.4638654 6.0917969 2.4902344 C 5.9265284 2.5792115 5.7693849 2.6803588 5.6191406 2.7910156 L 13.810547 10.982422 C 13.182458 9.5168186 12.000001 9.3528024 12 8.0058594 L 12 7.0019531 L 12 6.0019531 C 12 4.1118031 10.708358 2.5637034 8.9726562 2.1425781 C 8.9736111 2.1359281 8.9752225 2.1295729 8.9765625 2.1230469 C 8.9769656 2.1211669 8.9760805 2.1190175 8.9765625 2.1171875 C 8.9812825 2.0776155 8.999999 2.0428357 9 2.0019531 C 9.0000032 1.9576071 8.9801564 1.9197448 8.9746094 1.8769531 C 8.9733994 1.8704431 8.9720831 1.8639259 8.9707031 1.8574219 C 8.9647331 1.8175869 8.9577596 1.7783577 8.9472656 1.7402344 C 8.9464338 1.7370744 8.9462425 1.7336687 8.9453125 1.7304688 C 8.9241775 1.6565758 8.8979161 1.5891758 8.8613281 1.5234375 C 8.8594081 1.5201675 8.8574988 1.5169619 8.8554688 1.5136719 L 8.8554688 1.5117188 C 8.8241458 1.4571527 8.7907084 1.404841 8.75 1.3574219 C 8.75 1.3574219 8.7480469 1.3554688 8.7480469 1.3554688 C 8.7151469 1.3173538 8.6808412 1.2846932 8.6425781 1.2519531 C 8.6405981 1.2499731 8.6387087 1.2480437 8.6367188 1.2460938 C 8.5751787 1.1943008 8.5104884 1.1471802 8.4375 1.1113281 C 8.4375 1.1113281 8.4355469 1.109375 8.4355469 1.109375 C 8.4336569 1.1084507 8.4315775 1.1083419 8.4296875 1.1074219 C 8.4037665 1.0948579 8.3789285 1.0825466 8.3515625 1.0722656 C 8.3502225 1.0715881 8.3489963 1.0709825 8.3476562 1.0703125 C 8.2394454 1.0301351 8.1244153 1.0021904 8.0019531 1.0019531 L 8 1.0019531 L 7.9980469 1.0019531 z M 4 6.828125 L 4 7.0019531 L 4 8.0019531 C 4.0000001 9.501953 2.5045656 10.265329 2 11.501953 C 2.0000001 12.332953 2.6690001 13.001953 3.5 13.001953 L 10.173828 13.001953 L 4 6.828125 z "
     style="opacity:0.2;fill:#000000;fill-opacity:1;stroke:none;stroke-width:1;stroke-linecap:round;stroke-linejoin:round;stroke-miterlimit:4;stroke-dasharray:none;stroke-dashoffset:0;stroke-opacity:1" />
  <path
     id="rect815"
     d="M 8 0 C 7.1217096 -0.00020439 6.3460603 0.57262025 6.0878906 1.4121094 C 5.6805112 1.5980316 5.3133091 1.8530289 4.9765625 2.1484375 L 5.6191406 2.7910156 C 5.7694035 2.6803404 5.9265054 2.5772708 6.0917969 2.4882812 C 6.1403111 2.4619123 6.1926782 2.4425214 6.2421875 2.4179688 C 6.3738442 2.3540507 6.507224 2.2934862 6.6464844 2.2441406 C 6.6806509 2.2317026 6.715361 2.2204414 6.75 2.2089844 C 6.8413703 2.1825524 6.9349288 2.1619999 7.0273438 2.1386719 C 7.0205586 2.0914643 6.9999997 2.04914 7 2 C 7 1.4466659 7.4449719 1.00107 7.9980469 1 L 8 1 L 8.0019531 1 C 8.1244144 1.0002368 8.2394459 1.0281866 8.3476562 1.0683594 C 8.3489963 1.0690294 8.3502225 1.069635 8.3515625 1.0703125 C 8.3789285 1.0805925 8.4037665 1.0929047 8.4296875 1.1054688 C 8.4315775 1.1063886 8.4336569 1.1064975 8.4355469 1.1074219 L 8.4375 1.109375 C 8.5104883 1.1452274 8.5751717 1.1923406 8.6367188 1.2441406 C 8.6387087 1.2460906 8.6405981 1.24802 8.6425781 1.25 C 8.6808404 1.2827396 8.7151469 1.3154006 8.7480469 1.3535156 L 8.75 1.3554688 C 8.7907074 1.4028874 8.8241517 1.455202 8.8554688 1.5097656 L 8.8554688 1.5117188 C 8.8574987 1.5150088 8.8594081 1.5182144 8.8613281 1.5214844 C 8.8979161 1.5872227 8.9241775 1.6546226 8.9453125 1.7285156 C 8.9462425 1.7317156 8.9464337 1.7351212 8.9472656 1.7382812 C 8.9577596 1.7764045 8.9647331 1.8156337 8.9707031 1.8554688 C 8.9720831 1.8619727 8.9733994 1.86849 8.9746094 1.875 C 8.9801564 1.9177917 9.0000032 1.955654 9 2 C 8.999998 2.0408825 8.9812825 2.0756624 8.9765625 2.1152344 C 8.9760805 2.1170644 8.9769656 2.1192138 8.9765625 2.1210938 C 8.9752225 2.1276196 8.9736113 2.133975 8.9726562 2.140625 C 10.708358 2.5617501 12 4.1098499 12 6 L 12 7 L 12 7.90625 C 12 9.3494493 13.222525 9.5000939 13.826172 10.998047 L 14.921875 12.09375 C 14.968257 11.902805 15 11.705611 15 11.5 C 15 10.28614 13.890834 9.5000003 13 7.9570312 L 13 7 C 12.999999 4.4466316 11.817172 2.2815121 9.9101562 1.4121094 C 9.6521986 0.57330913 8.8775684 0.00065302 8 0 z M 1.9902344 0.99023438 A 1.0001 1.0001 0 0 0 1.2929688 2.7070312 L 13.292969 14.707031 A 1.0001 1.0001 0 1 0 14.707031 13.292969 L 2.7070312 1.2929688 A 1.0001 1.0001 0 0 0 1.9902344 0.99023438 z M 3.0820312 5.9101562 C 3.0328199 6.264367 3 6.6263438 3 7 L 3 8.0507812 C 2.6117192 9.5000214 1.0000002 10.28614 1 11.5 C 1.0000001 12.885 2.1150001 14 3.5 14 L 6 14 C 5.9999999 15.104569 6.8954301 16 8 16 C 9.1045694 16 10.000001 15.104569 10 14 L 11.171875 14 L 10.171875 13 L 3.5 13 C 2.6690009 13 2 12.330999 2 11.5 C 2.5045665 10.263377 4.0000001 9.4999999 4 8 L 4 7 L 4 6.828125 L 3.0820312 5.9101562 z M 6.984375 14 L 8.984375 14 C 8.9843754 14.552286 8.5366599 15.000001 7.984375 15 C 7.4320899 15.000001 6.9843749 14.552286 6.984375 14 z "
     style="opacity:1;fill:#000000;fill-opacity:1;stroke:none;stroke-width:1;stroke-linecap:round;stroke-linejoin:round;stroke-miterlimit:4;stroke-dasharray:none;stroke-dashoffset:0;stroke-opacity:1" />
  <path
     style="opacity:0.4;fill:#000000;fill-opacity:1;stroke:none;stroke-width:1;stroke-linecap:round;stroke-linejoin:round;stroke-miterlimit:4;stroke-dasharray:none;stroke-dashoffset:0;stroke-opacity:1"
     d="M 8.9843744,14.000001 6.9843753,14 c -2e-7,0.552285 0.4477145,1.000001 0.9999997,1.000001 0.5522854,0 1.0000003,-0.447715 0.9999994,-1 z"
     id="path862" />
</svg>
