<?xml version="1.0" encoding="UTF-8" standalone="no"?>
<svg
   xmlns:dc="http://purl.org/dc/elements/1.1/"
   xmlns:cc="http://creativecommons.org/ns#"
   xmlns:rdf="http://www.w3.org/1999/02/22-rdf-syntax-ns#"
   xmlns:svg="http://www.w3.org/2000/svg"
   xmlns="http://www.w3.org/2000/svg"
   id="svg6"
   version="1.1"
   viewBox="0 0 16 16">
  <metadata
     id="metadata12">
    <rdf:RDF>
      <cc:Work
         rdf:about="">
        <dc:format>image/svg+xml</dc:format>
        <dc:type
           rdf:resource="http://purl.org/dc/dcmitype/StillImage" />
        <dc:title />
      </cc:Work>
    </rdf:RDF>
  </metadata>
  <defs
     id="defs10" />
  <path
     id="path864"
     d="m 13.646732,2.1544478 0.0017,9.766e-4 0.0017,9.765e-4 c 0.478442,0.2774641 0.641001,0.8858475 0.364334,1.3650489 -0.02457,0.042557 -0.06354,0.068931 -0.09302,0.1064214 0.06837,0.06641 0.139118,0.1309879 0.205031,0.1995638 0.02427,0.027242 0.0487,0.054349 0.07207,0.082204 0.09593,0.1123651 0.181158,0.2315051 0.263217,0.3526881 0.0306,0.046018 0.06626,0.088994 0.09509,0.1360873 0.742147,1.2015033 0.82126,2.7611304 0.05569,4.0871372 l -0.5,0.8660254 -0.5,0.866025 c -0.75,1.299038 0.163395,2.707859 -0.01795,4.031089 -0.4155,0.719667 -1.329371,0.964538 -2.049038,0.549038 l -7.7942288,-4.5 C 3.0316411,9.8822292 2.7867701,8.9683582 3.2022701,8.2486911 4.6573042,6.8036916 5.9343209,7.5166403 6.6815053,6.2224789 l 0.5028156,-0.8709021 0.5,-0.8660254 c 0.945075,-1.636918 2.8377201,-2.3317907 4.5514451,-1.8286449 0.0025,-0.00624 0.0043,-0.012546 0.0064,-0.018869 5.91e-4,-0.00183 0.0024,-0.00324 0.0029,-0.00507 0.0157,-0.036629 0.01688,-0.076106 0.03732,-0.1115124 0.02217,-0.038406 0.05829,-0.061273 0.08449,-0.095558 0.0043,-0.00503 0.0087,-0.010018 0.01315,-0.014959 0.02509,-0.031512 0.05074,-0.062001 0.07889,-0.089769 0.0023,-0.00232 0.0042,-0.00519 0.0066,-0.00749 0.05525,-0.053426 0.111693,-0.098665 0.176248,-0.1373022 0.0033,-0.00187 0.0066,-0.0037 0.01,-0.00553 l 9.75e-4,-0.00169 c 0.05441,-0.031594 0.10952,-0.060174 0.168484,-0.080886 8.89e-4,-2.396e-4 0.0018,-4.759e-4 0.0027,-7.138e-4 0.04755,-0.016558 0.09359,-0.027691 0.143097,-0.036913 0.0027,-7.224e-4 0.0053,-0.00144 0.008,-0.00214 0.0792,-0.014084 0.158775,-0.022546 0.239911,-0.017101 8.89e-4,-2.396e-4 0.0018,-4.759e-4 0.0027,-7.138e-4 0.0021,1.451e-4 0.004,0.00109 0.0061,0.00124 0.02873,0.00208 0.0564,0.00384 0.08524,0.00862 0.0015,8.37e-5 0.0029,1.741e-4 0.0044,2.662e-4 0.113797,0.019304 0.227401,0.052615 0.333575,0.1136406 z m 0,0 c -0.02073,-0.011957 -0.04206,-0.020171 -0.06285,-0.03177 0.02132,0.00985 0.04228,0.020444 0.06285,0.03177 z"
     style="opacity:0.2;fill:#000000;fill-opacity:1;stroke:none;stroke-width:1;stroke-linecap:round;stroke-linejoin:round;stroke-miterlimit:4;stroke-dasharray:none;stroke-dashoffset:0;stroke-opacity:1" />
  <path
     id="rect815"
     d="M 12.925781 1.0332031 C 12.511097 1.0802611 12.110461 1.2579189 11.789062 1.5566406 C 9.7028364 1.3560571 7.5950435 2.6402808 6.3183594 4.8515625 L 5.8398438 5.6796875 C 4.2968749 6.570521 2.9448206 6.6968133 2.3378906 7.7480469 C 1.6453905 8.9474921 2.1374559 10.339843 3.2519531 11.162109 L 4.3867188 12 C 3.8344342 12.956585 4.1625553 14.180137 5.1191406 14.732422 C 6.0757258 15.284707 7.299278 14.956585 7.8515625 14 L 11.046875 15.662109 C 12.275478 16.301452 13.768437 15.947492 14.460938 14.748047 C 15.067868 13.696813 14.064766 12.208985 14.453125 10.759766 L 14.978516 9.8515625 C 16.254836 7.640912 16.315354 5.1731791 15.099609 3.4667969 C 15.295772 2.6106932 14.909162 1.7280307 14.148438 1.2890625 C 13.768276 1.0699532 13.340466 0.9861451 12.925781 1.0332031 z M 13.21875 2.0292969 C 13.22085 2.029442 13.222509 2.0311 13.224609 2.03125 C 13.253339 2.03333 13.281707 2.0342825 13.310547 2.0390625 C 13.312047 2.0391462 13.312953 2.0389704 13.314453 2.0390625 C 13.42825 2.0583665 13.542264 2.0932713 13.648438 2.1542969 L 13.650391 2.15625 C 14.128833 2.4337141 14.292292 3.042283 14.015625 3.5214844 C 13.991055 3.5640414 13.951355 3.5894627 13.921875 3.6269531 C 13.990245 3.6933631 14.06104 3.757596 14.126953 3.8261719 C 14.151223 3.8534139 14.175849 3.8803481 14.199219 3.9082031 C 14.295149 4.0205682 14.380832 4.1405357 14.462891 4.2617188 C 14.493491 4.3077368 14.529764 4.3513442 14.558594 4.3984375 C 15.300741 5.5999408 15.378852 7.1583682 14.613281 8.484375 L 14.113281 9.3515625 L 13.613281 10.216797 C 12.863281 11.515835 13.777047 12.924817 13.595703 14.248047 C 13.180203 14.967714 12.266541 15.212375 11.546875 14.796875 L 3.7519531 10.296875 C 3.032265 9.8813749 2.787625 8.967714 3.203125 8.2480469 C 4.6361377 6.7659961 5.9355469 7.5149936 6.7324219 6.1347656 L 7.1855469 5.3515625 L 7.6855469 4.484375 C 8.6306219 2.847457 10.522604 2.1531042 12.236328 2.65625 C 12.238828 2.65001 12.240088 2.6430417 12.242188 2.6367188 C 12.242779 2.6348888 12.245594 2.6346425 12.246094 2.6328125 C 12.261794 2.5961835 12.262763 2.5568908 12.283203 2.5214844 C 12.305373 2.4830784 12.340988 2.4600662 12.367188 2.4257812 C 12.371488 2.4207512 12.376409 2.4150973 12.380859 2.4101562 C 12.405949 2.3786442 12.430834 2.3480805 12.458984 2.3203125 C 12.461284 2.3179925 12.464397 2.3148 12.466797 2.3125 C 12.522047 2.259074 12.578023 2.2144185 12.642578 2.1757812 C 12.645878 2.1739113 12.648944 2.1717519 12.652344 2.1699219 L 12.654297 2.1679688 C 12.708707 2.1363747 12.763303 2.1086026 12.822266 2.0878906 C 12.822266 2.0878906 12.824219 2.0859375 12.824219 2.0859375 C 12.871769 2.0693795 12.919244 2.0580501 12.96875 2.0488281 C 12.97145 2.0481057 12.973863 2.047575 12.976562 2.046875 C 13.055763 2.032791 13.133708 2.025805 13.214844 2.03125 C 13.215733 2.0310104 13.21785 2.0295348 13.21875 2.0292969 z M 0.49414062 4.9941406 A 0.50005 0.50005 0 0 0 0.14648438 5.8535156 L 1.1464844 6.8535156 A 0.50005 0.50005 0 1 0 1.8535156 6.1464844 L 0.85351562 5.1464844 A 0.50005 0.50005 0 0 0 0.49414062 4.9941406 z M 0.5 8 C 0.223 8 0 8.223 0 8.5 C 0 8.777 0.223 9 0.5 9 C 0.777 9 1 8.777 1 8.5 C 1 8.223 0.777 8 0.5 8 z M 1.4902344 10.996094 A 0.50005 0.50005 0 0 0 1.1464844 11.146484 L 0.14648438 12.146484 A 0.50005 0.50005 0 1 0 0.85351562 12.853516 L 1.8535156 11.853516 A 0.50005 0.50005 0 0 0 1.4902344 10.996094 z M 5.265625 12.507812 L 6.9980469 13.507812 C 6.7219044 13.986105 6.1111051 14.14919 5.6328125 13.873047 C 5.15452 13.596905 4.9894825 12.986106 5.265625 12.507812 z "
     style="opacity:1;fill:#000000;fill-opacity:1;stroke:none;stroke-width:1;stroke-linecap:round;stroke-linejoin:round;stroke-miterlimit:4;stroke-dasharray:none;stroke-dashoffset:0;stroke-opacity:1" />
  <path
     style="opacity:0.4;fill:#000000;fill-opacity:1;stroke:none;stroke-width:1;stroke-linecap:round;stroke-linejoin:round;stroke-miterlimit:4;stroke-dasharray:none;stroke-dashoffset:0;stroke-opacity:1"
     d="M 5.2679493,12.500001 7,13.5 C 6.7238576,13.978293 6.1122673,14.142169 5.6339745,13.866026 5.1556821,13.589883 4.9918066,12.978293 5.2679493,12.500001 Z"
     id="path862" />
</svg>
