<?xml version="1.0" encoding="UTF-8" standalone="no"?>
<svg
   xmlns:dc="http://purl.org/dc/elements/1.1/"
   xmlns:cc="http://creativecommons.org/ns#"
   xmlns:rdf="http://www.w3.org/1999/02/22-rdf-syntax-ns#"
   xmlns:svg="http://www.w3.org/2000/svg"
   xmlns="http://www.w3.org/2000/svg"
   id="svg6"
   version="1.1"
   viewBox="0 0 16 16">
  <metadata
     id="metadata12">
    <rdf:RDF>
      <cc:Work
         rdf:about="">
        <dc:format>image/svg+xml</dc:format>
        <dc:type
           rdf:resource="http://purl.org/dc/dcmitype/StillImage" />
        <dc:title />
      </cc:Work>
    </rdf:RDF>
  </metadata>
  <defs
     id="defs10" />
  <path
     id="path864"
     d="m 8.0022729,1.0011918 -0.00196,-4.2e-6 -0.00196,-4.3e-6 c -0.5530749,0.00107 -0.9980469,0.4466659 -0.9980469,1 -3e-7,0.04914 0.020562,0.091466 0.027347,0.1386736 -0.092415,0.023328 -0.1859737,0.04388 -0.277344,0.070312 -0.034639,0.011457 -0.06935,0.022718 -0.1035164,0.035156 -0.1392604,0.049346 -0.27264,0.1099103 -0.4042967,0.1738284 -0.049509,0.024553 -0.1018798,0.043941 -0.150394,0.07031 C 4.848631,3.1589218 4.0003036,4.470042 4.0003032,6.0011826 v 1 l 2e-7,0.9999996 c 1e-7,1.4999999 -1.4954337,2.2633768 -1.9999993,3.5000008 10e-8,0.831 0.6690001,1.5 1.5,1.5 l 8.9999999,-10e-7 c 0.831016,10e-6 1.500016,-0.66899 1.500016,-1.49999 -0.537596,-1.9789232 -1.999999,-1.9999995 -2,-3.4943686 l 10e-7,-1.0056311 v -1 c 0,-1.89015 -1.291643,-3.4382502 -3.0273451,-3.8593755 9.549e-4,-0.00665 0.00255,-0.013015 0.00389,-0.019541 4.031e-4,-0.00188 -4.585e-4,-0.00401 2.35e-5,-0.00584 0.00472,-0.039572 0.023435,-0.07435 0.023436,-0.1152326 3.2e-6,-0.044346 -0.019844,-0.082209 -0.025391,-0.1250007 -0.00121,-0.00651 -0.00253,-0.013026 -0.00391,-0.01953 -0.00597,-0.039835 -0.012942,-0.079064 -0.023436,-0.1171873 -8.318e-4,-0.00316 -0.00104,-0.00659 -0.00197,-0.00979 -0.021135,-0.073893 -0.047396,-0.1412929 -0.083984,-0.2070312 -0.00192,-0.00327 -0.00387,-0.0065 -0.0059,-0.00979 l 6e-7,-0.00195 C 8.824412,1.456358 8.790975,1.4040518 8.7502666,1.3566327 c -6.501e-4,-6.52e-4 -0.00132,-0.00131 -0.00198,-0.00197 -0.0329,-0.038115 -0.067206,-0.070776 -0.1054691,-0.1035161 -0.00198,-0.00198 -0.00387,-0.0039 -0.00586,-0.00585 -0.06154,-0.051793 -0.1262233,-0.098909 -0.1992117,-0.1347611 -6.5e-4,-6.52e-4 -0.00132,-0.00131 -0.00198,-0.00197 -0.00189,-9.243e-4 -0.00401,-0.00106 -0.0059,-0.00198 -0.025921,-0.012564 -0.050764,-0.024874 -0.07813,-0.035155 -0.00134,-6.775e-4 -0.0026,-0.0013 -0.00394,-0.00197 C 8.239585,1.0292831 8.1245456,1.0013293 8.0020834,1.001092 Z m 0,0 c 0.023931,1e-5 0.046511,0.00356 0.070315,0.00391 -0.023389,-0.00213 -0.046838,-0.00343 -0.070315,-0.00391 z"
     style="opacity:0.2;fill:#000000;fill-opacity:1;stroke:none;stroke-width:1;stroke-linecap:round;stroke-linejoin:round;stroke-miterlimit:4;stroke-dasharray:none;stroke-dashoffset:0;stroke-opacity:1" />
  <path
     id="rect815"
     d="M 8.0000002,1.7e-7 C 8.8775686,6.5319e-4 9.6521992,0.57330958 9.9101569,1.4121098 11.817173,2.2815125 13,4.446632 13.000001,7.0000004 L 13,7.9570313 C 13.890834,9.5000002 15,10.28614 15,11.5 c 10e-7,1.385 -1.115,2.5 -2.499999,2.5 H 10 c 10e-7,1.104569 -0.8954299,2 -1.9999993,2 C 6.8954308,16 6.0000004,15.104569 6.0000005,14 H 3.5000007 C 2.1150008,14 1.0000001,12.885 1,11.5 c 2e-7,-1.21386 1.6116833,-1.9999992 1.9999641,-3.4492392 l 3.62e-5,-1.0507606 C 3,4.4473607 4.1818334,2.2820072 6.0878905,1.4121094 6.3460602,0.57262031 7.1217098,-2.0422e-4 8.0000002,1.7e-7 Z m 0.00195,1.00000013 -0.00196,-5.63e-6 -0.00196,-4.33e-6 c -0.553075,0.00107 -0.9980469,0.44666596 -0.9980469,1.00000006 -3e-7,0.04914 0.020562,0.091466 0.027347,0.1386736 C 6.9349153,2.161992 6.8413567,2.182544 6.7499864,2.208976 6.7153474,2.220433 6.6806364,2.231694 6.6464699,2.244132 6.5072095,2.2934776 6.3738307,2.3540424 6.242174,2.4179604 6.1926647,2.4425132 6.1402942,2.4619015 6.09178,2.4882705 4.8483102,3.1577294 3.9999819,4.4688491 3.9999825,5.9999901 v 1 0.9999999 c 10e-8,1.4999999 -1.4954328,2.263378 -1.9999993,3.500001 0,0.830999 0.669,1.499999 1.4999991,1.499999 H 12.499982 C 13.331,13 14,12.331 14,11.5 13.5,9.5 12,9.5000001 12,7.9062501 v -0.9062499 -1 C 12,4.1098501 10.708358,2.56175 8.972656,2.1406249 c 9.55e-4,-0.00665 0.00255,-0.013015 0.00389,-0.019541 4.031e-4,-0.00188 -4.585e-4,-0.00401 2.35e-5,-0.00584 0.00472,-0.039572 0.023434,-0.07435 0.023436,-0.1152325 3.2e-6,-0.044346 -0.019844,-0.082209 -0.025391,-0.1250007 -0.00121,-0.00651 -0.00253,-0.013026 -0.00391,-0.01953 -0.00597,-0.039835 -0.012942,-0.079064 -0.023436,-0.1171872 -8.319e-4,-0.00316 -0.00104,-0.00659 -0.00197,-0.00979 -0.021135,-0.073893 -0.047396,-0.1412929 -0.083984,-0.2070312 -0.00192,-0.00327 -0.00387,-0.0065 -0.0059,-0.00979 l 6e-7,-0.00195 C 8.8240982,1.4551687 8.7906615,1.4028626 8.7499541,1.355444 c -6.51e-4,-6.525e-4 -0.00132,-0.00131 -0.00198,-0.00197 -0.0329,-0.038115 -0.067206,-0.070776 -0.1054683,-0.1035156 -0.00198,-0.00198 -0.00387,-0.0039 -0.00586,-0.00585 -0.061547,-0.0518 -0.1262302,-0.098916 -0.1992185,-0.1347684 -6.501e-4,-6.52e-4 -0.00132,-0.00131 -0.00198,-0.00197 -0.00189,-9.244e-4 -0.00401,-0.00106 -0.0059,-0.00198 -0.025921,-0.012564 -0.050764,-0.024875 -0.07813,-0.035155 -0.00134,-6.775e-4 -0.0026,-0.0013 -0.00394,-0.00197 C 8.2392669,1.0280922 8.1242274,1.0001384 8.0017661,0.9999016 Z m 0,0 c 0.023931,9.9e-6 0.046511,0.00356 0.070315,0.00391 -0.023375,-0.00213 -0.046837,-0.00344 -0.070314,-0.003913 z M 8.9843747,14 H 6.9843751 c -1e-7,0.552286 0.4477151,1.000001 1.0000002,1 0.5522849,10e-7 0.9999998,-0.447714 0.9999994,-1 z"
     style="opacity:1;fill:#000000;fill-opacity:1;stroke:none;stroke-width:1;stroke-linecap:round;stroke-linejoin:round;stroke-miterlimit:4;stroke-dasharray:none;stroke-dashoffset:0;stroke-opacity:1" />
  <path
     style="opacity:0.4;fill:#000000;fill-opacity:1;stroke:none;stroke-width:1;stroke-linecap:round;stroke-linejoin:round;stroke-miterlimit:4;stroke-dasharray:none;stroke-dashoffset:0;stroke-opacity:1"
     d="M 8.9843744,14.000001 6.9843753,14 c -2e-7,0.552285 0.4477145,1.000001 0.9999997,1.000001 0.5522854,0 1.0000003,-0.447715 0.9999994,-1 z"
     id="path862" />
</svg>
