<?xml version="1.0" encoding="UTF-8" standalone="no"?>
<svg
   xmlns:dc="http://purl.org/dc/elements/1.1/"
   xmlns:cc="http://creativecommons.org/ns#"
   xmlns:rdf="http://www.w3.org/1999/02/22-rdf-syntax-ns#"
   xmlns:svg="http://www.w3.org/2000/svg"
   xmlns="http://www.w3.org/2000/svg"
   id="svg6"
   version="1.1"
   viewBox="0 0 16 16">
  <metadata
     id="metadata12">
    <rdf:RDF>
      <cc:Work
         rdf:about="">
        <dc:format>image/svg+xml</dc:format>
        <dc:type
           rdf:resource="http://purl.org/dc/dcmitype/StillImage" />
        <dc:title />
      </cc:Work>
    </rdf:RDF>
  </metadata>
  <defs
     id="defs10" />
  <path
     id="path2"
     d="m 2,2 v 9 c 0,0.06293 0.012104,0.124677 0.015625,0.1875 C 2.0057608,11.291382 2.0005473,11.395652 2,11.5 2,13.432997 3.5670034,15 5.5,15 7.4329966,15 9,13.432997 9,11.5 9,9.567003 7.4329966,8 5.5,8 5.392365,8.0009008 5.2848288,8.0067664 5.1777344,8.0175781 5.116512,8.0146279 5.0632208,8 5,8 H 4 V 2 Z M 5,1 c 0,1 -2.4e-6,1.5000069 0,2 4.9705627,0 9,3.0294373 9,8 -0.002,0.334 -0.0059,2.5 -0.0059,3 H 16 C 16,13.5 15.997,11.334 16,11 16,4.925 11.075,1 5,1 Z m 0,4 v 2 c 4,0 5,1.6862915 5,5 -0.002,0.335 0,1.5 0,2 h 2 C 12,13.5 11.997,12.334 12,12 12,7.581722 10,5 5,5 Z m 0.5,5 C 6.3284271,10 7,10.671573 7,11.5 7,12.328427 6.3284271,13 5.5,13 4.6715729,13 4,12.328427 4,11.5 4,10.671573 4.6715729,10 5.5,10 Z" />
  <circle
     r="1.5"
     cy="11.5"
     cx="5.5"
     id="path832"
     style="opacity:0.2;fill:#000000;fill-opacity:1;stroke:none;stroke-width:2;stroke-linecap:round;stroke-linejoin:round;stroke-miterlimit:4;stroke-dasharray:none;stroke-dashoffset:0;stroke-opacity:1" />
</svg>
