<?xml version="1.0" encoding="UTF-8" standalone="no"?>
<svg
   xmlns:dc="http://purl.org/dc/elements/1.1/"
   xmlns:cc="http://creativecommons.org/ns#"
   xmlns:rdf="http://www.w3.org/1999/02/22-rdf-syntax-ns#"
   xmlns:svg="http://www.w3.org/2000/svg"
   xmlns="http://www.w3.org/2000/svg"
   id="svg6"
   version="1.1"
   viewBox="0 0 16 16">
  <metadata
     id="metadata12">
    <rdf:RDF>
      <cc:Work
         rdf:about="">
        <dc:format>image/svg+xml</dc:format>
        <dc:type
           rdf:resource="http://purl.org/dc/dcmitype/StillImage" />
        <dc:title />
      </cc:Work>
    </rdf:RDF>
  </metadata>
  <defs
     id="defs10" />
  <path
     id="rect818"
     d="M 2 0 L 2 4.5 L 2 7.5 L 2 8.5 L 2 11.5 L 2 16 L 3 16 L 5 16 L 8 16 L 9.5 16 C 11.993 16 14 13.993 14 11.5 C 14 10.123749 13.231875 8.8450265 12.208984 8 C 13.231875 7.1549735 14 5.8762506 14 4.5 C 14 2.007 11.993 0 9.5 0 L 8 0 L 5 0 L 3 0 L 2 0 z M 5 3 L 7 3 L 8 3 L 9 3 C 10.108 3 11 3.892 11 5 C 11 6.108 10.108 7 9 7 L 8 7 L 7 7 L 5 7 L 5 5 L 5 3 z M 5 9 L 7 9 L 8 9 L 9 9 C 10.108 9 11 9.892 11 11 C 11 12.108 10.108 13 9 13 L 8 13 L 7 13 L 5 13 L 5 11 L 5 9 z "
     style="opacity:1;fill:#000000;fill-opacity:1;stroke:none;stroke-width:2;stroke-linecap:round;stroke-linejoin:round;stroke-miterlimit:4;stroke-dasharray:none;stroke-dashoffset:0;stroke-opacity:1" />
</svg>
