<?xml version="1.0" encoding="UTF-8" standalone="no"?>
<svg
   xmlns:dc="http://purl.org/dc/elements/1.1/"
   xmlns:cc="http://creativecommons.org/ns#"
   xmlns:rdf="http://www.w3.org/1999/02/22-rdf-syntax-ns#"
   xmlns:svg="http://www.w3.org/2000/svg"
   xmlns="http://www.w3.org/2000/svg"
   id="svg6"
   version="1.1"
   viewBox="0 0 16 16">
  <metadata
     id="metadata12">
    <rdf:RDF>
      <cc:Work
         rdf:about="">
        <dc:format>image/svg+xml</dc:format>
        <dc:type
           rdf:resource="http://purl.org/dc/dcmitype/StillImage" />
        <dc:title />
      </cc:Work>
    </rdf:RDF>
  </metadata>
  <defs
     id="defs10" />
  <path
     id="rect845"
     d="M 4.5 1 C 3.669 1 3 1.669 3 2.5 L 3 9 L 3 9.5 L 3 11 L 3 12 L 3 13 C 3 12.446 3.446 12 4 12 L 4.5 12 L 5 12 L 11.5 12 L 13 12 L 13 9.5 L 13 1 L 4.5 1 z "
     style="opacity:0.2;fill:#000000;fill-opacity:1;stroke:none;stroke-width:2;stroke-linecap:round;stroke-linejoin:round;stroke-miterlimit:4;stroke-dasharray:none;stroke-dashoffset:0;stroke-opacity:1" />
  <path
     id="rect826"
     d="M 4 0 C 2.892 0 2 0.892 2 2 L 2 14 C 2 15.108 2.892 16 4 16 L 8.5 16 L 12 16 L 13.5 16 C 13.777 16 14 15.777 14 15.5 L 14 15 L 13 15 L 13 13 L 14 13 L 14 12 L 14 11.5 L 14 11 L 14 9.5 L 14 2 L 14 1 L 14 0.5 L 14 0 L 13.5 0 L 13 0 L 12 0 L 8.5 0 L 4 0 z M 4.5 1 L 13 1 L 13 9.5 L 13 12 L 4 12 C 3.446 12 3 12.446 3 13 L 3 12 L 3 11 L 3 9.5 L 3 9 L 3 2.5 C 3 1.669 3.669 1 4.5 1 z M 5.5 4 C 5.223 4 5 4.223 5 4.5 C 5 4.777 5.223 5 5.5 5 L 10.5 5 C 10.777 5 11 4.777 11 4.5 C 11 4.223 10.777 4 10.5 4 L 5.5 4 z M 5.5 6 C 5.223 6 5 6.223 5 6.5 C 5 6.777 5.223 7 5.5 7 L 10.5 7 C 10.777 7 11 6.777 11 6.5 C 11 6.223 10.777 6 10.5 6 L 5.5 6 z M 5 13 L 8 13 L 12 13 L 12 15 L 8 15 L 5 15 C 4.446 15 4 14.554 4 14 C 4 13.446 4.446 13 5 13 z "
     style="opacity:1;fill:#000000;fill-opacity:1;stroke:none;stroke-width:2;stroke-linecap:round;stroke-linejoin:round;stroke-miterlimit:4;stroke-dasharray:none;stroke-dashoffset:0;stroke-opacity:1" />
</svg>
