<?xml version="1.0" encoding="UTF-8" standalone="no"?>
<svg
   xmlns:dc="http://purl.org/dc/elements/1.1/"
   xmlns:cc="http://creativecommons.org/ns#"
   xmlns:rdf="http://www.w3.org/1999/02/22-rdf-syntax-ns#"
   xmlns:svg="http://www.w3.org/2000/svg"
   xmlns="http://www.w3.org/2000/svg"
   id="svg6"
   version="1.1"
   width="16px"
   height="16px"
   fill="currentColor"
   viewBox="0 0 16 16">
  <metadata
     id="metadata12">
    <rdf:RDF>
      <cc:Work
         rdf:about="">
        <dc:format>image/svg+xml</dc:format>
        <dc:type
           rdf:resource="http://purl.org/dc/dcmitype/StillImage" />
        <dc:title />
      </cc:Work>
    </rdf:RDF>
  </metadata>
  <defs
     id="defs10" />
  <path
     id="path2"
     d="M 2 1 A 2 2 0 0 0 0 3 A 2 2 0 0 0 2 5 A 2 2 0 0 0 4 3 A 2 2 0 0 0 2 1 z M 6.5 1 C 5.678 1 5 1.678 5 2.5 L 5 3.5 C 5 4.322 5.678 5 6.5 5 L 14.5 5 C 15.322 5 16 4.322 16 3.5 L 16 2.5 C 16 1.678 15.322 1 14.5 1 L 6.5 1 z M 2 2 A 1 1 0 0 1 3 3 A 1 1 0 0 1 2 4 A 1 1 0 0 1 1 3 A 1 1 0 0 1 2 2 z M 6.5 2 L 14.5 2 C 14.786 2 15 2.214 15 2.5 L 15 3.5 C 15 3.786 14.786 4 14.5 4 L 6.5 4 C 6.214 4 6 3.786 6 3.5 L 6 2.5 C 6 2.214 6.214 2 6.5 2 z M 2 6 A 2 2 0 0 0 0 8 A 2 2 0 0 0 2 10 A 2 2 0 0 0 4 8 A 2 2 0 0 0 2 6 z M 6.5 6 C 5.678 6 5 6.678 5 7.5 L 5 8.5 C 5 9.322 5.678 10 6.5 10 L 14.5 10 C 15.322 10 16 9.322 16 8.5 L 16 7.5 C 16 6.678 15.322 6 14.5 6 L 6.5 6 z M 2 7 A 1 1 0 0 1 3 8 A 1 1 0 0 1 2 9 A 1 1 0 0 1 1 8 A 1 1 0 0 1 2 7 z M 6.5 7 L 14.5 7 C 14.785 7 15 7.214 15 7.5 L 15 8.5 C 15 8.786 14.785 9 14.5 9 L 6.5 9 C 6.214 9 6 8.786 6 8.5 L 6 7.5 C 6 7.214 6.214 7 6.5 7 z M 2 11 A 2 2 0 0 0 0 13 A 2 2 0 0 0 2 15 A 2 2 0 0 0 4 13 A 2 2 0 0 0 2 11 z M 6.5 11 C 5.678 11 5 11.678 5 12.5 L 5 13.5 C 5 14.322 5.678 15 6.5 15 L 14.5 15 C 15.322 15 16 14.322 16 13.5 L 16 12.5 C 16 11.678 15.322 11 14.5 11 L 6.5 11 z M 2 12 A 1 1 0 0 1 3 13 A 1 1 0 0 1 2 14 A 1 1 0 0 1 1 13 A 1 1 0 0 1 2 12 z M 6.5 12 L 14.5 12 C 14.786 12 15 12.214 15 12.5 L 15 13.5 C 15 13.786 14.786 14 14.5 14 L 6.5 14 C 6.214 14 6 13.786 6 13.5 L 6 12.5 C 6 12.214 6.214 12 6.5 12 z " />
  <path
     style="opacity:0.4"
     id="path4"
     d="M 15,2 V 4 H 6 V 2 Z m 0,5 V 9 H 6 V 7 Z m 0,5 v 2 H 6 v -2 z" />
  <path
     id="path830"
     d="M 2 2 A 1 1 0 0 0 1 3 A 1 1 0 0 0 2 4 A 1 1 0 0 0 3 3 A 1 1 0 0 0 2 2 z M 2 7 A 1 1 0 0 0 1 8 A 1 1 0 0 0 2 9 A 1 1 0 0 0 3 8 A 1 1 0 0 0 2 7 z M 2 12 A 1 1 0 0 0 1 13 A 1 1 0 0 0 2 14 A 1 1 0 0 0 3 13 A 1 1 0 0 0 2 12 z "
     style="opacity:0.3;fill:#000000;fill-opacity:1;stroke:none;stroke-width:2;stroke-linecap:round;stroke-linejoin:round;stroke-miterlimit:4;stroke-dasharray:none;stroke-dashoffset:0;stroke-opacity:1" />
</svg>
