<?xml version="1.0" encoding="UTF-8" standalone="no"?>
<svg
   xmlns:dc="http://purl.org/dc/elements/1.1/"
   xmlns:cc="http://creativecommons.org/ns#"
   xmlns:rdf="http://www.w3.org/1999/02/22-rdf-syntax-ns#"
   xmlns:svg="http://www.w3.org/2000/svg"
   xmlns="http://www.w3.org/2000/svg"
   id="svg6"
   version="1.1"
   viewBox="0 0 16 16">
  <metadata
     id="metadata12">
    <rdf:RDF>
      <cc:Work
         rdf:about="">
        <dc:format>image/svg+xml</dc:format>
        <dc:type
           rdf:resource="http://purl.org/dc/dcmitype/StillImage" />
        <dc:title />
      </cc:Work>
    </rdf:RDF>
  </metadata>
  <defs
     id="defs10" />
  <path
     style="opacity:0.2"
     id="rect4"
     d="M 3,2 C 2.446,2 2,2.446 2,3 V 5 H 14 V 3 C 14,2.446 13.554,2 13,2 Z" />
  <path
     id="path2"
     d="M 3 1 C 1.892 1 1 1.892 1 3 L 1 13 C 1 14.108 1.892 15 3 15 L 13 15 C 14.108 15 15 14.108 15 13 L 15 3 C 15 1.892 14.108 1 13 1 L 12 1 L 11 1 L 5 1 L 4 1 L 3 1 z M 3 2 L 4 2 L 5 2 L 11 2 L 12 2 L 13 2 C 13.554 2 14 2.446 14 3 L 14 5 L 2 5 L 2 3 C 2 2.446 2.446 2 3 2 z M 4.5 3 C 4.223 3 4 3.223 4 3.5 C 4 3.777 4.223 4 4.5 4 L 5.5 4 C 5.777 4 6 3.777 6 3.5 C 6 3.223 5.777 3 5.5 3 L 4.5 3 z M 10.5 3 C 10.223 3 10 3.223 10 3.5 C 10 3.777 10.223 4 10.5 4 L 11.5 4 C 11.777 4 12 3.777 12 3.5 C 12 3.223 11.777 3 11.5 3 L 10.5 3 z M 2 6 L 14 6 L 14 13 C 14 13.554 13.554 14 13 14 L 3 14 C 2.446 14 2 13.554 2 13 L 2 6 z " />
</svg>
