<svg xmlns="http://www.w3.org/2000/svg" viewBox="0 0 16 16" fill="currentColor" height="16px" width="16px">
    <path d="M.5 1C-.176.99-.176 2.01.5 2H2v8.465a.5.5 0 000 .035v2a.5.5 0 00.5.5h10c.676.01.676-1.01 0-1H3v-1h9.5a.5.5 0 00.459-.303l3-7A.5.5 0 0015.5 3H3V1.5a.5.5 0 00-.5-.5zm10 12a1.5 1.5 0 100 3 1.5 1.5 0 000-3zm-6 0a1.5 1.5 0 100 3 1.5 1.5 0 000-3zM3 4h11.742l-2.572 6H3zm1.5 10a.5.5 0 110 1 .5.5 0 010-1zm6 0a.5.5 0 110 1 .5.5 0 010-1z"/>
    <path d="M3 4h11.742l-2.572 6H3z" opacity=".2"/>
    <path d="M4.5 14a.5.5 0 00-.5.5.5.5 0 00.5.5.5.5 0 00.5-.5.5.5 0 00-.5-.5zm6 0a.5.5 0 00-.5.5.5.5 0 00.5.5.5.5 0 00.5-.5.5.5 0 00-.5-.5z" opacity=".4"/>
</svg>
