<?xml version="1.0" encoding="UTF-8" standalone="no"?>
<svg
   xmlns:dc="http://purl.org/dc/elements/1.1/"
   xmlns:cc="http://creativecommons.org/ns#"
   xmlns:rdf="http://www.w3.org/1999/02/22-rdf-syntax-ns#"
   xmlns:svg="http://www.w3.org/2000/svg"
   xmlns="http://www.w3.org/2000/svg"
   id="svg6"
   version="1.1"
   viewBox="0 0 16 16">
  <metadata
     id="metadata12">
    <rdf:RDF>
      <cc:Work
         rdf:about="">
        <dc:format>image/svg+xml</dc:format>
        <dc:type
           rdf:resource="http://purl.org/dc/dcmitype/StillImage" />
        <dc:title />
      </cc:Work>
    </rdf:RDF>
  </metadata>
  <defs
     id="defs10" />
  <path
     id="path817"
     d="m 0.5,1 c -0.67616134,-0.009563 -0.67616134,1.0095626 0,1 H 2 v 1.5 6.964844 c -4.121e-4,0.01172 -4.121e-4,0.02344 0,0.03516 v 2 c 2.76e-5,0.276131 0.2238691,0.499972 0.5,0.5 h 2 6 2 c 0.676161,0.0096 0.676161,-1.009563 0,-1 H 3 V 11 h 9.5 c 0.199723,-1.96e-4 0.380175,-0.119217 0.458984,-0.302734 l 3,-7.0000004 C 16.100522,3.3674801 15.858875,3.0003825 15.5,3 H 3 V 1.5 C 2.9999724,1.2238691 2.7761309,1.0000276 2.5,1 Z m 10,12 C 9.6715729,13 9,13.671573 9,14.5 9,15.328427 9.6715729,16 10.5,16 11.328427,16 12,15.328427 12,14.5 12,13.671573 11.328427,13 10.5,13 Z m -6,0 C 3.6715729,13 3,13.671573 3,14.5 3,15.328427 3.6715729,16 4.5,16 5.3284271,16 6,15.328427 6,14.5 6,13.671573 5.3284271,13 4.5,13 Z M 3,4 h 11.742188 l -2.572266,6 H 3 Z M 4.5,14 C 4.7761424,14 5,14.223858 5,14.5 5,14.776142 4.7761424,15 4.5,15 4.2238576,15 4,14.776142 4,14.5 4,14.223858 4.2238576,14 4.5,14 Z m 6,0 C 10.776142,14 11,14.223858 11,14.5 11,14.776142 10.776142,15 10.5,15 10.223858,15 10,14.776142 10,14.5 10,14.223858 10.223858,14 10.5,14 Z"
     style="color:#000000;font-style:normal;font-variant:normal;font-weight:normal;font-stretch:normal;font-size:medium;line-height:normal;font-family:sans-serif;font-variant-ligatures:normal;font-variant-position:normal;font-variant-caps:normal;font-variant-numeric:normal;font-variant-alternates:normal;font-feature-settings:normal;text-indent:0;text-align:start;text-decoration:none;text-decoration-line:none;text-decoration-style:solid;text-decoration-color:#000000;letter-spacing:normal;word-spacing:normal;text-transform:none;writing-mode:lr-tb;direction:ltr;text-orientation:mixed;dominant-baseline:auto;baseline-shift:baseline;text-anchor:start;white-space:normal;shape-padding:0;clip-rule:nonzero;display:inline;overflow:visible;visibility:visible;opacity:1;isolation:auto;mix-blend-mode:normal;color-interpolation:sRGB;color-interpolation-filters:linearRGB;solid-color:#000000;solid-opacity:1;vector-effect:none;fill:#000000;fill-opacity:1;fill-rule:nonzero;stroke:none;stroke-width:1px;stroke-linecap:butt;stroke-linejoin:round;stroke-miterlimit:4;stroke-dasharray:none;stroke-dashoffset:0;stroke-opacity:1;color-rendering:auto;image-rendering:auto;shape-rendering:auto;text-rendering:auto;enable-background:accumulate" />
  <path
     style="color:#000000;font-style:normal;font-variant:normal;font-weight:normal;font-stretch:normal;font-size:medium;line-height:normal;font-family:sans-serif;font-variant-ligatures:normal;font-variant-position:normal;font-variant-caps:normal;font-variant-numeric:normal;font-variant-alternates:normal;font-feature-settings:normal;text-indent:0;text-align:start;text-decoration:none;text-decoration-line:none;text-decoration-style:solid;text-decoration-color:#000000;letter-spacing:normal;word-spacing:normal;text-transform:none;writing-mode:lr-tb;direction:ltr;text-orientation:mixed;dominant-baseline:auto;baseline-shift:baseline;text-anchor:start;white-space:normal;shape-padding:0;clip-rule:nonzero;display:inline;overflow:visible;visibility:visible;opacity:0.2;isolation:auto;mix-blend-mode:normal;color-interpolation:sRGB;color-interpolation-filters:linearRGB;solid-color:#000000;solid-opacity:1;vector-effect:none;fill:#000000;fill-opacity:1;fill-rule:nonzero;stroke:none;stroke-width:1px;stroke-linecap:butt;stroke-linejoin:round;stroke-miterlimit:4;stroke-dasharray:none;stroke-dashoffset:0;stroke-opacity:1;color-rendering:auto;image-rendering:auto;shape-rendering:auto;text-rendering:auto;enable-background:accumulate"
     d="m 3,4 h 11.742188 l -2.572266,6 H 3 Z"
     id="path842" />
  <path
     id="path847"
     d="M 4.5 14 A 0.5 0.5 0 0 0 4 14.5 A 0.5 0.5 0 0 0 4.5 15 A 0.5 0.5 0 0 0 5 14.5 A 0.5 0.5 0 0 0 4.5 14 z M 10.5 14 A 0.5 0.5 0 0 0 10 14.5 A 0.5 0.5 0 0 0 10.5 15 A 0.5 0.5 0 0 0 11 14.5 A 0.5 0.5 0 0 0 10.5 14 z "
     style="opacity:0.4;fill:#000000;fill-opacity:1;stroke:none;stroke-width:2;stroke-linecap:round;stroke-linejoin:round;stroke-miterlimit:4;stroke-dasharray:none;stroke-dashoffset:0;stroke-opacity:1" />
</svg>
