<svg xmlns="http://www.w3.org/2000/svg" viewBox="0 0 16 16" fill="currentColor" height="16px" width="16px">
    <path d="M15 8a7 7 0 01-7 7 7 7 0 01-7-7 7 7 0 017-7 7 7 0 017 7z" opacity=".2"/>
    <path d="M8 0C2.812-.197-1.359 5.47.357 10.363 1.64 15.067 7.64 17.5 11.834 15.02c3.257-1.722 4.973-5.862 3.809-9.383C14.67 2.344 11.43-.047 8 0zm0 1c4.48-.172 8.049 4.652 6.74 8.877L5.225 6.479C5.672 5.022 6.743 4 8 4c.759 0 1.442.385 1.969 1h1.48a3.985 3.985 0 00-7.336 1.082l-2.521-.9C2.694 2.722 5.242.949 8 1zM1.248 6.12L4 7.101V9c0 2.216 1.784 4 4 4a3.975 3.975 0 003.45-2H9.968c-.527.615-1.21 1-1.969 1-1.662 0-3-1.784-3-4 0-.18.022-.353.04-.527l9.372 3.347c-1.225 2.875-4.546 4.673-7.623 4.069C3.28 14.349.61 10.825 1.035 7.3c.033-.404.107-.798.213-1.182z"/>
</svg>
