<?xml version="1.0" encoding="UTF-8" standalone="no"?>
<svg
   xmlns:dc="http://purl.org/dc/elements/1.1/"
   xmlns:cc="http://creativecommons.org/ns#"
   xmlns:rdf="http://www.w3.org/1999/02/22-rdf-syntax-ns#"
   xmlns:svg="http://www.w3.org/2000/svg"
   xmlns="http://www.w3.org/2000/svg"
   id="svg6"
   version="1.1"
   viewBox="0 0 16 16">
  <metadata
     id="metadata12">
    <rdf:RDF>
      <cc:Work
         rdf:about="">
        <dc:format>image/svg+xml</dc:format>
        <dc:type
           rdf:resource="http://purl.org/dc/dcmitype/StillImage" />
        <dc:title />
      </cc:Work>
    </rdf:RDF>
  </metadata>
  <defs
     id="defs10" />
  <path
     style="opacity:0.2"
     d="m 3,2.9991449 h 10 c 0.554,0 1,0.446 1,1 v 7.0000001 c 0,0.554 -0.446,1 -1,1 H 7.5957031 c -0.1648202,-0.02946 -0.3334457,0.02553 -0.4492187,0.146484 L 5,14.292114 v -1.792969 c 0.00442,-0.282266 -0.2255463,-0.512229 -0.5078125,-0.507812 -0.0249,7.52e-4 -0.049708,0.0034 -0.074219,0.0078 H 3 C 2.446,11.999145 2,11.553145 2,10.999145 V 3.9991449 c 0,-0.554 0.446,-1 1,-1 z"
     id="path835" />
  <path
     id="path4"
     d="M 3 2 C 1.892 2 1 2.892 1 4 L 1 11 C 1 12.108 1.8964455 13.099153 3 13 L 4 13 L 4 15.5 C 4.0001744 15.945319 4.5385182 16.168294 4.8535156 15.853516 L 7.7070312 13 L 13 13 C 14.108 13 15 12.108 15 11 L 15 4 C 15 2.892 14.108 2 13 2 L 3 2 z M 3 3 L 13 3 C 13.554 3 14 3.446 14 4 L 14 11 C 14 11.554 13.554 12 13 12 L 7.5957031 12 C 7.4308829 11.97054 7.2622574 12.02553 7.1464844 12.146484 L 5 14.292969 L 5 12.5 C 5.00442 12.217734 4.7744537 11.98777 4.4921875 11.992188 C 4.4672875 11.99294 4.4424798 11.9956 4.4179688 12 L 3 12 C 2.446 12.000012 2 11.554 2 11 L 2 4 C 2 3.446 2.446 3 3 3 z M 5 7 A 1 1 0 0 0 4 8 A 1 1 0 0 0 5 9 A 1 1 0 0 0 6 8 A 1 1 0 0 0 5 7 z M 8 7 A 1 1 0 0 0 7 8 A 1 1 0 0 0 8 9 A 1 1 0 0 0 9 8 A 1 1 0 0 0 8 7 z M 11 7 A 1 1 0 0 0 10 8 A 1 1 0 0 0 11 9 A 1 1 0 0 0 12 8 A 1 1 0 0 0 11 7 z " />
</svg>
