<svg xmlns="http://www.w3.org/2000/svg" viewBox="0 0 16 16" fill="currentColor" height="16px" width="16px">
    <path d="M4 0c-.417 0-.849.164-1.25.484C2.349.805 2 1.333 2 2c0 2.083 2.153 3.547 2.543 5C4.153 8.453 1 11.917 1 14c0 .667.349 1.195.75 1.516.401.32.833.484 1.25.484h10c.417 0 .849-.164 1.25-.484.401-.321.75-.849.75-1.516 0-2.083-3.153-5.547-3.543-7C11.847 5.547 14 4.083 14 2c0-.667-.349-1.195-.75-1.516C12.849.164 12.417 0 12 0H8zm0 1h8c.083 0 .401.087.625.266.224.179.375.4.375.734 0 1.14-.748 2.113-1.438 3H4.439C3.748 4.113 3 3.14 3 2c0-.334.151-.555.375-.734C3.599 1.086 3.917 1 4 1zm1.16 5h5.68c-.15.241-.278.477-.34.707v.586c.051.19.173.436.324.707H5.176c.15-.27.273-.516.324-.707v-.586c-.062-.23-.19-.466-.34-.707zm-.603 3h6.886C12.49 10.592 14 12.662 14 14c0 .334-.151.555-.375.734-.224.18-.542.266-.625.266H3c-.083 0-.401-.087-.625-.266C2.151 14.555 2 14.334 2 14c0-1.338 1.51-3.408 2.557-5z"/>
    <path d="M3.17 11C2.565 11.926 2 12.98 2 14c0 .333.151.555.375.734.224.18.542.266.625.266h10c.083 0 .401-.087.625-.266.224-.179.375-.4.375-.734 0-1.02-.565-2.074-1.17-3z" opacity="0.2"/>
    <path d="M5.16 6h5.68c-.15.241-.278.477-.34.707v.586c.051.19.173.436.324.707H5.176c.15-.27.273-.516.324-.707v-.586c-.062-.23-.19-.466-.34-.707z" opacity="0.4"/>
</svg>
