<?xml version="1.0" encoding="UTF-8" standalone="no"?>
<svg
   xmlns:dc="http://purl.org/dc/elements/1.1/"
   xmlns:cc="http://creativecommons.org/ns#"
   xmlns:rdf="http://www.w3.org/1999/02/22-rdf-syntax-ns#"
   xmlns:svg="http://www.w3.org/2000/svg"
   xmlns="http://www.w3.org/2000/svg"
   id="svg6"
   version="1.1"
   viewBox="0 0 16 16">
  <metadata
     id="metadata12">
    <rdf:RDF>
      <cc:Work
         rdf:about="">
        <dc:format>image/svg+xml</dc:format>
        <dc:type
           rdf:resource="http://purl.org/dc/dcmitype/StillImage" />
        <dc:title />
      </cc:Work>
    </rdf:RDF>
  </metadata>
  <defs
     id="defs10" />
  <path
     id="path2"
     opacity=".2"
     d="M15 8a7 7 0 0 1-7 7 7 7 0 0 1-7-7 7 7 0 0 1 7-7 7 7 0 0 1 7 7z" />
  <path
     id="path4"
     d="m 8,0 c -5.188,-0.197 -9.3585781,5.4702813 -7.64257812,10.363281 1.28300002,4.704 7.28256252,7.13625 11.47656212,4.65625 3.257,-1.722 4.972594,-5.8618123 3.808594,-9.3828122 C 14.669578,2.3437187 11.43,-0.047 8,0 Z m 0,1 c 4.618,-0.177 8.283141,4.9565781 6.619141,9.267578 -1.013,3.193 -4.560079,5.263094 -7.8300785,4.621094 -3.509,-0.54 -6.17890625,-4.063891 -5.7539063,-7.5878908 C 1.3201562,3.8097812 4.497,0.935 8,1 Z m 3.505859,2.9941406 c -0.147262,-6.335e-4 -0.287317,0.063677 -0.382812,0.1757813 L 7.7714844,8 H 4.5 c -0.6761613,-0.00956 -0.6761613,1.0095626 0,1 h 3.4804688 c 0.023454,9.969e-4 0.04695,3.443e-4 0.070312,-0.00195 0.00522,-5.69e-4 0.010427,-0.00122 0.015625,-0.00195 0.012439,-0.00149 0.024817,-0.00344 0.037109,-0.00586 0.1288154,-0.02542 0.2424646,-0.1004846 0.3164063,-0.2089844 0.00132,-0.00194 0.00262,-0.0039 0.00391,-0.00586 L 11.876953,4.8300781 C 12.168551,4.50848 11.939972,3.993577 11.505859,3.9941406 Z" />
</svg>
