<?xml version="1.0" encoding="UTF-8" standalone="no"?>
<svg
   xmlns:dc="http://purl.org/dc/elements/1.1/"
   xmlns:cc="http://creativecommons.org/ns#"
   xmlns:rdf="http://www.w3.org/1999/02/22-rdf-syntax-ns#"
   xmlns:svg="http://www.w3.org/2000/svg"
   xmlns="http://www.w3.org/2000/svg"
   id="svg6"
   version="1.1"
   viewBox="0 0 16 16">
  <metadata
     id="metadata12">
    <rdf:RDF>
      <cc:Work
         rdf:about="">
        <dc:format>image/svg+xml</dc:format>
        <dc:type
           rdf:resource="http://purl.org/dc/dcmitype/StillImage" />
      </cc:Work>
    </rdf:RDF>
  </metadata>
  <defs
     id="defs10" />
  <path
     id="path2"
     opacity=".2"
     d="M15 8a7 7 0 0 1-7 7 7 7 0 0 1-7-7 7 7 0 0 1 7-7 7 7 0 0 1 7 7z" />
  <path
     id="path4"
     d="M8 0C4.854-.044 1.82 1.978.629 4.886-.668 7.86.095 11.58 2.479 13.788c2.333 2.29 6.115 2.872 9.03 1.4 2.89-1.374 4.75-4.608 4.468-7.804-.202-3.196-2.532-6.11-5.598-7.025A7.99 7.99 0 0 0 8 0zm0 1c3.11-.056 6.051 2.23 6.78 5.25.79 2.887-.537 6.184-3.115 7.705-2.334 1.486-5.534 1.358-7.756-.284C1.39 11.914.32 8.402 1.445 5.541 2.417 2.857 5.142.963 8 1zM5.41 3.998L4.002 5.414 6.588 8l-2.586 2.59L5.41 12 8 9.414 10.586 12l1.418-1.41L9.414 8l2.59-2.586-1.418-1.416L8 6.588l-2.59-2.59z" />
</svg>
