<svg xmlns="http://www.w3.org/2000/svg" viewBox="0 0 16 16" fill="currentColor" height="16px" width="16px">
    <path d="M3 1c-1.108 0-2 .892-2 2v10c0 1.108.892 2 2 2h10c1.108 0 2-.892 2-2V3c0-1.108-.892-2-2-2H3zm0 1h10c.554 0 1 .446 1 1v10c0 .554-.446 1-1 1H3c-.554 0-1-.446-1-1V3c0-.554.446-1 1-1zm2.406 1.998L3.998 5.414l2.588 2.588-2.588 2.59 1.408 1.41 2.59-2.588 2.586 2.588 1.42-1.41-2.592-2.59 2.592-2.588-1.42-1.416L7.996 6.59l-2.59-2.592z"/>
    <rect width="12" height="12" x="2" y="2" opacity=".2" rx="1" ry="1"/>
</svg>
