<?xml version="1.0" encoding="UTF-8" standalone="no"?>
<svg
   xmlns:dc="http://purl.org/dc/elements/1.1/"
   xmlns:cc="http://creativecommons.org/ns#"
   xmlns:rdf="http://www.w3.org/1999/02/22-rdf-syntax-ns#"
   xmlns:svg="http://www.w3.org/2000/svg"
   xmlns="http://www.w3.org/2000/svg"
   id="svg6"
   version="1.1"
   viewBox="0 0 16 16">
  <metadata
     id="metadata12">
    <rdf:RDF>
      <cc:Work
         rdf:about="">
        <dc:format>image/svg+xml</dc:format>
        <dc:type
           rdf:resource="http://purl.org/dc/dcmitype/StillImage" />
        <dc:title />
      </cc:Work>
    </rdf:RDF>
  </metadata>
  <defs
     id="defs10" />
  <path
     id="path2"
     d="M 6.5,2 C 4.0149473,2.000552 2.000552,4.0149473 2,6.5 2,6.784 2.0622812,7.0350156 2.1132812,7.2910156 0.92828125,7.6890156 0,8.681 0,10 c 0,1.653 1.347,3 3,3 h 10 c 1.653,0 3,-1.347 3,-3 C 16,8.702 15.114078,7.6913906 13.955078,7.2753906 13.833078,5.4553906 12.351,4 10.5,4 10.372,4 10.264437,4.0211562 10.148438,4.0351562 9.3434375,2.8451563 8.05,2 6.5,2 Z m 0,1 c 1.32,0 2.4410156,0.724875 3.0410156,1.796875 l 0.171875,0.3105469 0.3496094,-0.0625 C 10.2185,5.0169219 10.363,5 10.5,5 11.894,5 13,6.106 13,7.5 13,7.406 12.9961,7.418016 12.9941,7.541016 l -0.0059,0.4160156 0.408203,0.082031 C 14.314484,8.2210625 15,9.02 15,10 c 0,1.117 -0.883,2 -2,2 H 3 C 1.883,12 1,11.117 1,10 1,8.98 1.73975,8.16825 2.71875,8.03125 L 3.2792969,7.9511719 3.1328125,7.40625 C 3.0489483,7.1113874 3.004419,6.806525 3,6.5 3,4.552 4.552,3 6.5,3 Z" />
  <path
     style="opacity:0.2"
     id="path4"
     d="m 6.5,2.5 c -2.216,0 -4,1.784 -4,4 0,0.36 0.062,0.703 0.15,1.035 C 1.4175901,7.7031109 0.49909394,8.7561774 0.5,10 c 0,1.385 1.115,2.5 2.5,2.5 4.4136663,0 5.474269,0 10,0 1.385,0 2.5,-1.115 2.5,-2.5 0.0029,-1.1913673 -0.837581,-2.2182728 -2.006,-2.451 0,-0.017 0.006,-0.032 0.006,-0.049 0,-1.662 -1.338,-3 -3,-3 -0.18,0 -0.353,0.023 -0.523,0.053 C 9.2780668,3.2868149 7.9462822,2.5004606 6.5,2.5 Z" />
</svg>
