<?xml version="1.0" encoding="UTF-8" standalone="no"?>
<svg
   xmlns:dc="http://purl.org/dc/elements/1.1/"
   xmlns:cc="http://creativecommons.org/ns#"
   xmlns:rdf="http://www.w3.org/1999/02/22-rdf-syntax-ns#"
   xmlns:svg="http://www.w3.org/2000/svg"
   xmlns="http://www.w3.org/2000/svg"
   id="svg6"
   version="1.1"
   viewBox="0 0 16 16">
  <metadata
     id="metadata12">
    <rdf:RDF>
      <cc:Work
         rdf:about="">
        <dc:format>image/svg+xml</dc:format>
        <dc:type
           rdf:resource="http://purl.org/dc/dcmitype/StillImage" />
        <dc:title />
      </cc:Work>
    </rdf:RDF>
  </metadata>
  <defs
     id="defs10" />
  <path
     style="opacity:0.2"
     id="path2"
     d="m 1,4 v 9.5 C 1,14.331 1.669,15 2.5,15 h 8 C 11.331,15 12,14.331 12,13.5 V 4 Z" />
  <path
     id="path4"
     d="m 0,3 v 9.5 C 0,13.876 1.124,15 2.5,15 h 8 C 11.876,15 13,13.876 13,12.5 V 11 c 3.990243,-0.6274 3.990243,-6.3726002 0,-7 V 3 Z m 1,1 h 11 v 8.5 c 0,0.84 -0.66,1.5 -1.5,1.5 h -8 C 1.66,14 1,13.34 1,12.5 Z m 12,2.066 c 0.59,0.203 1,0.754 1,1.434 0,0.68 -0.41,1.23 -1,1.434 z" />
</svg>
