<svg xmlns="http://www.w3.org/2000/svg" viewBox="0 0 16 16" fill="currentColor" height="16px" width="16px">
    <path d="M8 1c3.324 0 6 2.676 6 6v2c0 3.324-2.676 6-6 6s-6-2.676-6-6V7c0-3.324 2.676-6 6-6z" opacity=".3"/>
    <path d="M8 0C4.13 0 1 3.13 1 7v2c0 3.87 3.13 7 7 7s7-3.13 7-7V7c0-3.87-3.13-7-7-7zm0 1c3.333 0 6 2.667 6 6v2c0 3.333-2.667 6-6 6s-6-2.667-6-6V7c0-3.333 2.667-6 6-6zm.49.996a.5.5 0 00-.344.15c-.959.96-1.304 2.036-1.287 3.065.018 1.029.354 2.01.666 2.947.313.938.602 1.832.616 2.647.013.814-.204 1.55-.995 2.341a.5.5 0 10.708.708c.959-.96 1.304-2.036 1.287-3.065-.018-1.029-.354-2.01-.666-2.947-.313-.938-.602-1.832-.616-2.647-.013-.814.204-1.55.995-2.341a.5.5 0 00-.364-.858z"/>
</svg>
