<?xml version="1.0" encoding="UTF-8" standalone="no"?>
<svg
   xmlns:dc="http://purl.org/dc/elements/1.1/"
   xmlns:cc="http://creativecommons.org/ns#"
   xmlns:rdf="http://www.w3.org/1999/02/22-rdf-syntax-ns#"
   xmlns:svg="http://www.w3.org/2000/svg"
   xmlns="http://www.w3.org/2000/svg"
   id="svg6"
   version="1.1"
   viewBox="0 0 16 16">
  <metadata
     id="metadata12">
    <rdf:RDF>
      <cc:Work
         rdf:about="">
        <dc:format>image/svg+xml</dc:format>
        <dc:type
           rdf:resource="http://purl.org/dc/dcmitype/StillImage" />
        <dc:title />
      </cc:Work>
    </rdf:RDF>
  </metadata>
  <defs
     id="defs10" />
  <path
     id="path2"
     d="M 4,1 V 2 H 3 C 2.446,2 2,2.446 2,3 v 1 c 0,0.554 0.446,1 1,1 h 10 c 0.554,0 1,-0.446 1,-1 V 3 C 14,2.446 13.554,2 13,2 H 12 V 1 Z m -1,7 0.5,4 c 1.5,0 8,0 9,0 L 13,8 Z"
     style="opacity:0.2" />
  <path
     id="path4"
     d="M 4,0 C 3.446,0 3,0.446 3,1 1.9,1 1,1.9 1,3 V 4 C 1,4.734 1.406,5.36975 2,5.71875 L 3,14 c 0.1318722,1.092067 0.9,2 2,2 h 6 c 1.1,0 1.868128,-0.907933 2,-2 L 14,5.71875 C 14.594,5.37075 15,4.734 15,4 V 3 C 15,1.9 14.1,1 13,1 13,0.446 12.554,0 12,0 Z m 0,1 h 8 v 1 h 1 c 0.563,0 1,0.437 1,1 v 1 c 0,0.563 -0.437,1 -1,1 H 3 C 2.437,5 2,4.563 2,4 V 3 C 2,2.437 2.437,2 3,2 H 4 Z M 3,6 h 10 l -1,8 c -0.06983,0.558652 -0.437,1 -1,1 H 5 C 4.437,15 4.1221318,14.549593 4,14 Z" />
  <path
     id="path838"
     d="M 3,8.5 H 13"
     style="fill:none;stroke:#000000;stroke-width:1px;stroke-linecap:butt;stroke-linejoin:miter;stroke-opacity:1" />
  <path
     id="path840"
     d="m 3.5,11.5 h 9"
     style="fill:none;stroke:#000000;stroke-width:1px;stroke-linecap:butt;stroke-linejoin:miter;stroke-opacity:1" />
</svg>
