<svg xmlns="http://www.w3.org/2000/svg" viewBox="0 0 16 16" fill="currentColor" height="16px" width="16px">
    <path d="M2 3a.998.998 0 00-1 1v9c0 .554.446 1 1 1h12c.554 0 1-.446 1-1V4c0-.554-.446-1-1-1H2zm4 1a3 3 0 012.146 5.094A2.487 2.487 0 0110 11.5V13H2v-1.5c0-1.16.787-2.122 1.855-2.406A3 3 0 013 7a3 3 0 013-3zm5.5 2h2a.499.499 0 110 1h-2a.499.499 0 110-1zm0 2h2a.499.499 0 110 1h-2a.499.499 0 110-1zm0 2h2a.499.499 0 110 1h-2a.499.499 0 110-1z" opacity=".1"/>
    <path d="M2 2C.892 2 0 2.892 0 4v9c0 1.108.892 2 2 2h12c1.108 0 2-.892 2-2V4c0-1.108-.892-2-2-2H2zm0 1h12c.554 0 1 .446 1 1v9c0 .554-.446 1-1 1H2c-.554 0-1-.446-1-1V4c0-.554.446-1 1-1zm4 1a3 3 0 00-3 3 3 3 0 00.855 2.094A2.486 2.486 0 002 11.5V13h8v-1.5c0-1.16-.786-2.121-1.854-2.406A3 3 0 006 4zm0 1a2 2 0 110 4 2 2 0 010-4zm5.5 1a.499.499 0 100 1h2a.499.499 0 100-1h-2zm0 2a.499.499 0 100 1h2a.499.499 0 100-1h-2zm-7 2h3c.831 0 1.5.669 1.5 1.5v.5H3v-.5c0-.831.669-1.5 1.5-1.5zm7 0a.499.499 0 100 1h2a.499.499 0 100-1h-2z"/>
    <path d="M6 5a2 2 0 100 4 2 2 0 000-4zm-1.5 5c-.831 0-1.5.669-1.5 1.5v.5h6v-.5c0-.831-.669-1.5-1.5-1.5z" opacity=".3"/>
</svg>
