<?xml version="1.0" encoding="UTF-8" standalone="no"?>
<svg
   xmlns:dc="http://purl.org/dc/elements/1.1/"
   xmlns:cc="http://creativecommons.org/ns#"
   xmlns:rdf="http://www.w3.org/1999/02/22-rdf-syntax-ns#"
   xmlns:svg="http://www.w3.org/2000/svg"
   xmlns="http://www.w3.org/2000/svg"
   id="svg6"
   version="1.1"
   viewBox="0 0 16 16">
  <metadata
     id="metadata12">
    <rdf:RDF>
      <cc:Work
         rdf:about="">
        <dc:format>image/svg+xml</dc:format>
        <dc:type
           rdf:resource="http://purl.org/dc/dcmitype/StillImage" />
        <dc:title />
      </cc:Work>
    </rdf:RDF>
  </metadata>
  <defs
     id="defs10" />
  <path
     id="rect845"
     d="M 4.5 1 C 3.669 1 3 1.669 3 2.5 L 3 9 L 3 9.5 L 3 11 L 3 12 L 3 13 C 3 12.446 3.446 12 4 12 L 4.5 12 L 5 12 L 11.5 12 L 13 12 L 13 9.5 L 13 1 L 4.5 1 z M 8 2 C 9.6568542 2 11 3.3431458 11 5 C 10.999451 5.7825224 10.693169 6.5338595 10.146484 7.09375 C 11.214301 7.3785136 12 8.3400219 12 9.5 L 12 11 L 9.5 11 L 6.5 11 L 4 11 L 4 9.5 C 4 8.3393631 4.7867209 7.3778958 5.8554688 7.09375 C 5.3080695 6.5341723 5.0010713 5.7827975 5 5 C 5 3.3431458 6.3431458 2 8 2 z "
     style="opacity:0.2;fill:#000000;fill-opacity:1;stroke:none;stroke-width:2;stroke-linecap:round;stroke-linejoin:round;stroke-miterlimit:4;stroke-dasharray:none;stroke-dashoffset:0;stroke-opacity:1" />
  <path
     id="rect826"
     d="M 4,0 C 2.892,0 2,0.892 2,2 v 12 c 0,1.108 0.892,2 2,2 H 8.5 12 13.5 C 13.777,16 14,15.777 14,15.5 V 15 h -1 v -2 h 1 V 12 11.5 11 9.5 2 1 0.5 0 H 13.5 13 12 8.5 Z M 4.5,1 H 13 V 9.5 12 H 4 C 3.446,12 3,12.446 3,13 V 12 11 9.5 9 2.5 C 3,1.669 3.669,1 4.5,1 Z M 5,13 h 3 4 v 2 H 8 5 C 4.446,15 4,14.554 4,14 4,13.446 4.446,13 5,13 Z"
     style="opacity:1;fill:#000000;fill-opacity:1;stroke:none;stroke-width:2;stroke-linecap:round;stroke-linejoin:round;stroke-miterlimit:4;stroke-dasharray:none;stroke-dashoffset:0;stroke-opacity:1" />
  <path
     id="path854"
     d="M 8,2 C 6.3431458,2 5,3.3431458 5,5 5.0010713,5.7827975 5.3080696,6.5341723 5.8554688,7.09375 4.7867209,7.3778958 4,8.3393631 4,9.5 V 11 h 2.5 3 2.5 V 9.5 C 12,8.3400219 11.214301,7.3785136 10.146484,7.09375 10.693169,6.5338595 10.999451,5.7825224 11,5 11,3.3431458 9.6568542,2 8,2 Z M 8,3 C 9.1045695,3 10,3.8954305 10,5 10,6.1045695 9.1045695,7 8,7 6.8954305,7 6,6.1045695 6,5 6,3.8954305 6.8954305,3 8,3 Z M 6.5,8 H 8 9.5 C 10.331,8 11,8.669 11,9.5 V 10 H 9.5 6.5 5 V 9.5 C 5,8.669 5.669,8 6.5,8 Z"
     style="opacity:1;fill:#000000;fill-opacity:1;stroke:none;stroke-width:2;stroke-linecap:round;stroke-linejoin:round;stroke-miterlimit:4;stroke-dasharray:none;stroke-dashoffset:0;stroke-opacity:1" />
  <path
     id="path856"
     d="M 8,3 C 6.8954305,3 6,3.8954305 6,5 6,6.1045695 6.8954305,7 8,7 9.1045695,7 10,6.1045695 10,5 10,3.8954305 9.1045695,3 8,3 Z M 6.5,8 C 5.669,8 5,8.669 5,9.5 V 10 h 1.5 3 1.5 V 9.5 C 11,8.669 10.331,8 9.5,8 Z"
     style="opacity:0.4;fill:#000000;fill-opacity:1;stroke:none;stroke-width:2;stroke-linecap:round;stroke-linejoin:round;stroke-miterlimit:4;stroke-dasharray:none;stroke-dashoffset:0;stroke-opacity:1" />
</svg>
