<?xml version="1.0" encoding="UTF-8" standalone="no"?>
<svg
   xmlns:dc="http://purl.org/dc/elements/1.1/"
   xmlns:cc="http://creativecommons.org/ns#"
   xmlns:rdf="http://www.w3.org/1999/02/22-rdf-syntax-ns#"
   xmlns:svg="http://www.w3.org/2000/svg"
   xmlns="http://www.w3.org/2000/svg"
   id="svg6"
   version="1.1"
   viewBox="0 0 16 16">
  <metadata
     id="metadata12">
    <rdf:RDF>
      <cc:Work
         rdf:about="">
        <dc:format>image/svg+xml</dc:format>
        <dc:type
           rdf:resource="http://purl.org/dc/dcmitype/StillImage" />
        <dc:title />
      </cc:Work>
    </rdf:RDF>
  </metadata>
  <defs
     id="defs10" />
  <path
     id="path4"
     d="M 2 2 C 0.892 2 0 2.892 0 4 L 0 13 C 0 14.108 0.892 15 2 15 L 14 15 C 15.108 15 16 14.108 16 13 L 16 4 C 16 2.892 15.108 2 14 2 L 2 2 z M 2 3 L 14 3 C 14.554 3 15 3.446 15 4 L 15 13 C 15 13.554 14.554 14 14 14 L 2 14 C 1.446 14 1 13.554 1 13 L 1 4 C 1 3.446 1.446 3 2 3 z M 6 4 C 4.3431458 4 3 5.343146 3 7 C 3.00107 7.782798 3.3080696 8.534173 3.8554688 9.09375 C 2.7867209 9.377896 2 10.339363 2 11.5 L 2 13 L 4.5 13 L 7.5 13 L 10 13 L 10 11.5 C 10 10.340022 9.2143014 9.378514 8.1464844 9.09375 C 8.6931694 8.53386 8.999451 7.782523 9 7 C 9 5.343146 7.6568542 4 6 4 z M 6 5 C 7.1045695 5 8 5.895431 8 7 C 8 8.10457 7.1045695 9 6 9 C 4.8954305 9 4 8.10457 4 7 C 4 5.895431 4.8954305 5 6 5 z M 11.5 6 C 11.223 6 11 6.223 11 6.5 C 11 6.777 11.223 7 11.5 7 L 13.5 7 C 13.777 7 14 6.777 14 6.5 C 14 6.223 13.777 6 13.5 6 L 11.5 6 z M 11.5 8 C 11.223 8 11 8.223 11 8.5 C 11 8.777 11.223 9 11.5 9 L 13.5 9 C 13.777 9 14 8.777 14 8.5 C 14 8.223 13.777 8 13.5 8 L 11.5 8 z M 4.5 10 L 6 10 L 7.5 10 C 8.331 10 9 10.669 9 11.5 L 9 12 L 7.5 12 L 4.5 12 L 3 12 L 3 11.5 C 3 10.669 3.669 10 4.5 10 z M 11.5 10 C 11.223 10 11 10.223 11 10.5 C 11 10.777 11.223 11 11.5 11 L 13.5 11 C 13.777 11 14 10.777 14 10.5 C 14 10.223 13.777 10 13.5 10 L 11.5 10 z " />
  <path
     id="path856"
     d="m 6,4.9999996 c -1.1045695,0 -2,0.895431 -2,2 0,1.10457 0.8954305,2 2,2 1.1045695,0 2,-0.89543 2,-2 0,-1.104569 -0.8954305,-2 -2,-2 z M 4.5,10 C 3.669,10 3,10.669 3,11.5 V 12 H 4.5 7.5 9 V 11.5 C 9,10.669 8.331,10 7.5,10 Z"
     style="opacity:0.2;fill:#000000;fill-opacity:1;stroke:none;stroke-width:2;stroke-linecap:round;stroke-linejoin:round;stroke-miterlimit:4;stroke-dasharray:none;stroke-dashoffset:0;stroke-opacity:1" />
</svg>
