<svg xmlns="http://www.w3.org/2000/svg" viewBox="0 0 16 16" fill="currentColor" height="16px" width="16px">
    <path d="M4.5 1C3.669 1 3 1.669 3 2.5V13c0-.554.446-1 1-1h9V1H4.5zM8 2a3 3 0 012.146 5.094A2.487 2.487 0 0112 9.5V11H4V9.5c0-1.16.787-2.122 1.855-2.406A3 3 0 015 5a3 3 0 013-3z" opacity=".1"/>
    <path d="M4 0C2.892 0 2 .892 2 2v12c0 1.108.892 2 2 2h9.5c.277 0 .5-.223.5-.5V15h-1v-2h1V0H8.5zm.5 1H13v11H4c-.554 0-1 .446-1 1V2.5C3 1.669 3.669 1 4.5 1zM5 13h7v2H5c-.554 0-1-.446-1-1s.446-1 1-1z"/>
    <path d="M8 2a3 3 0 00-3 3 3 3 0 00.855 2.094A2.486 2.486 0 004 9.5V11h8V9.5c0-1.16-.786-2.121-1.854-2.406A3 3 0 008 2zm0 1a2 2 0 110 4 2 2 0 010-4zM6.5 8h3c.831 0 1.5.669 1.5 1.5v.5H5v-.5C5 8.669 5.669 8 6.5 8z"/>
    <path d="M8 3a2 2 0 100 4 2 2 0 000-4zM6.5 8C5.669 8 5 8.669 5 9.5v.5h6v-.5c0-.831-.669-1.5-1.5-1.5z" opacity=".4"/>
</svg>
