<?xml version="1.0" encoding="UTF-8" standalone="no"?>
<svg
   xmlns:dc="http://purl.org/dc/elements/1.1/"
   xmlns:cc="http://creativecommons.org/ns#"
   xmlns:rdf="http://www.w3.org/1999/02/22-rdf-syntax-ns#"
   xmlns:svg="http://www.w3.org/2000/svg"
   xmlns="http://www.w3.org/2000/svg"
   id="svg6"
   version="1.1"
   viewBox="0 0 16 16">
  <metadata
     id="metadata12">
    <rdf:RDF>
      <cc:Work
         rdf:about="">
        <dc:format>image/svg+xml</dc:format>
        <dc:type
           rdf:resource="http://purl.org/dc/dcmitype/StillImage" />
        <dc:title />
      </cc:Work>
    </rdf:RDF>
  </metadata>
  <defs
     id="defs10" />
  <path
     id="rect823"
     d="m 7,7 -1,8 h 8 V 9.5 H 11.5 V 7 Z"
     style="opacity:0.2;fill:#000000;fill-opacity:1;stroke:none;stroke-width:1;stroke-linecap:round;stroke-linejoin:round;stroke-miterlimit:4;stroke-dasharray:none;stroke-dashoffset:0.5;stroke-opacity:1" />
  <path
     id="path817"
     d="m 2,2 v 8 H 7 V 6 H 9.3847656 L 9.5,4.5 h -3 V 2 Z"
     style="opacity:0.3;fill:#000000;fill-opacity:1;stroke:none;stroke-width:1;stroke-linecap:round;stroke-linejoin:round;stroke-miterlimit:4;stroke-dasharray:none;stroke-dashoffset:0.5;stroke-opacity:1" />
  <path
     id="rect821"
     d="M 1.5 1 C 1.223 1 1 1.223 1 1.5 L 1 10.5 C 1 10.777 1.223 11 1.5 11 L 6 11 L 6 15.5 C 6 15.777 6.223 16 6.5 16 L 14.5 16 C 14.777 16 15 15.777 15 15.5 L 15 8.5 L 12.5 6 L 10 6 L 10 3.5 L 7.5 1 L 1.5 1 z M 2 2 L 6 2 L 6 4.5 C 6 4.777 6.223 5 6.5 5 L 9 5 L 9 6 L 7 6 L 4 6 L 4 7 L 6 7 L 6 8 L 4 8 L 4 9 L 6 9 L 6 10 L 2 10 L 2 2 z M 7 2 L 9 4 L 7 4 L 7 2 z M 7 7 L 11 7 L 11 9.5 C 11 9.777 11.223087 10.006923 11.5 10 L 14 10 L 14 15 L 7 15 L 7 7 z M 12 7 L 14 9 L 12 9 L 12 7 z M 9 11 L 9 12 L 12 12 L 12 11 L 9 11 z M 9 13 L 9 14 L 12 14 L 12 13 L 9 13 z "
     style="opacity:1;fill:#000000;fill-opacity:1;stroke:none;stroke-width:1;stroke-linecap:round;stroke-linejoin:round;stroke-miterlimit:4;stroke-dasharray:none;stroke-dashoffset:0.5;stroke-opacity:1" />
</svg>
