<?xml version="1.0" encoding="UTF-8" standalone="no"?>
<svg
   xmlns:dc="http://purl.org/dc/elements/1.1/"
   xmlns:cc="http://creativecommons.org/ns#"
   xmlns:rdf="http://www.w3.org/1999/02/22-rdf-syntax-ns#"
   xmlns:svg="http://www.w3.org/2000/svg"
   xmlns="http://www.w3.org/2000/svg"
   id="svg6"
   version="1.1"
   viewBox="0 0 16 16">
  <metadata
     id="metadata12">
    <rdf:RDF>
      <cc:Work
         rdf:about="">
        <dc:format>image/svg+xml</dc:format>
        <dc:type
           rdf:resource="http://purl.org/dc/dcmitype/StillImage" />
        <dc:title />
      </cc:Work>
    </rdf:RDF>
  </metadata>
  <defs
     id="defs10" />
  <path
     id="path2"
     opacity=".2"
     d="M15 8a7 7 0 0 1-7 7 7 7 0 0 1-7-7 7 7 0 0 1 7-7 7 7 0 0 1 7 7z" />
  <path
     id="path4"
     d="M 8 0 C 2.812 -0.197 -1.3585781 5.4702816 0.35742188 10.363281 C 1.6404219 15.067281 7.6399848 17.499531 11.833984 15.019531 C 15.090984 13.297531 16.806578 9.1577187 15.642578 5.6367188 C 14.669578 2.3437187 11.43 -0.047 8 0 z M 8 1 C 12.479848 0.82829513 16.048891 5.6524779 14.740234 9.8769531 L 7.5585938 7.3125 L 9.3847656 7.3125 L 9.7636719 6.5195312 L 5.7910156 6.5195312 C 5.9378466 5.7148402 6.2435959 5.0963318 6.7070312 4.6660156 C 7.1704666 4.2356996 7.7620322 4.0214844 8.4824219 4.0214844 C 8.9504457 4.0214844 9.3782405 4.1188578 9.7636719 4.3125 C 10.153692 4.5061422 10.557059 4.8274649 10.974609 5.2792969 L 10.974609 3.9042969 C 10.575413 3.5987724 10.163056 3.3713137 9.7363281 3.2207031 C 9.3141889 3.0657893 8.8774043 2.9882812 8.4277344 2.9882812 C 7.3448557 2.9882813 6.4475408 3.2998698 5.7363281 3.9238281 C 5.0954435 4.4860865 4.6811588 5.2553752 4.46875 6.2089844 L 1.5917969 5.1816406 C 2.6935675 2.7227 5.2424025 0.94883133 8 1 z M 1.2480469 6.1191406 L 3.1816406 6.8105469 L 2.9414062 7.3125 L 4.2773438 7.3125 C 4.2773438 7.4114727 4.2760777 7.5139116 4.2714844 7.6171875 L 4.2714844 7.9902344 L 4.2714844 8.3515625 C 4.2760777 8.4505352 4.2773438 8.5494648 4.2773438 8.6484375 L 3.3203125 8.6484375 L 2.9414062 9.4433594 L 4.3945312 9.4433594 C 4.57807 10.557879 5.0238445 11.426823 5.7304688 12.050781 C 6.4416815 12.674739 7.3402672 12.986328 8.4277344 12.986328 C 8.8682274 12.986328 9.3005171 12.90882 9.7226562 12.753906 C 10.149384 12.598992 10.566236 12.366468 10.974609 12.056641 L 10.974609 10.695312 C 10.557059 11.147144 10.153692 11.47042 9.7636719 11.664062 C 9.3782405 11.857705 8.9504457 11.953125 8.4824219 11.953125 C 7.7620322 11.953125 7.1704666 11.737354 6.7070312 11.302734 C 6.2435959 10.868115 5.9378466 10.248051 5.7910156 9.4433594 L 8.3652344 9.4433594 L 8.6894531 8.7773438 L 14.412109 10.820312 C 13.186771 13.695018 9.8661914 15.492805 6.7890625 14.888672 C 3.2800625 14.348672 0.6101563 10.824781 1.0351562 7.3007812 C 1.0681194 6.8970111 1.1416795 6.5028342 1.2480469 6.1191406 z M 5.6601562 7.6953125 L 8.3300781 8.6484375 L 5.6816406 8.6484375 C 5.6724686 8.5451616 5.6647496 8.4446759 5.6601562 8.3457031 L 5.6601562 7.9902344 L 5.6601562 7.6953125 z " />
</svg>
