<?xml version="1.0" encoding="UTF-8" standalone="no"?>
<svg
   xmlns:dc="http://purl.org/dc/elements/1.1/"
   xmlns:cc="http://creativecommons.org/ns#"
   xmlns:rdf="http://www.w3.org/1999/02/22-rdf-syntax-ns#"
   xmlns:svg="http://www.w3.org/2000/svg"
   xmlns="http://www.w3.org/2000/svg"
   id="svg6"
   version="1.1"
   viewBox="0 0 16 16">
  <metadata
     id="metadata12">
    <rdf:RDF>
      <cc:Work
         rdf:about="">
        <dc:format>image/svg+xml</dc:format>
        <dc:type
           rdf:resource="http://purl.org/dc/dcmitype/StillImage" />
        <dc:title />
      </cc:Work>
    </rdf:RDF>
  </metadata>
  <defs
     id="defs10" />
  <path
     id="path2"
     opacity=".2"
     d="M15 8a7 7 0 0 1-7 7 7 7 0 0 1-7-7 7 7 0 0 1 7-7 7 7 0 0 1 7 7z" />
  <path
     id="path4"
     d="M 8 0 C 2.812 -0.197 -1.3585781 5.4702813 0.35742188 10.363281 C 1.6404219 15.067281 7.6399844 17.499531 11.833984 15.019531 C 15.090984 13.297531 16.806578 9.1577187 15.642578 5.6367188 C 14.669578 2.3437187 11.43 -0.047 8 0 z M 8 1 C 12.618 0.823 16.283141 5.9565781 14.619141 10.267578 C 13.606141 13.460578 10.059062 15.530672 6.7890625 14.888672 C 3.2800625 14.348672 0.61015625 10.824781 1.0351562 7.3007812 C 1.3201562 3.8097812 4.497 0.935 8 1 z " />
  <path
     id="rect895"
     d="M 8 3 C 6.13145 3 4.5823641 4.2737034 4.1386719 6 L 2.5 6 C 2.0546816 6.0001747 1.8317063 6.5385183 2.1464844 6.8535156 L 4.1464844 8.8535156 C 4.3417493 9.0486998 4.6582507 9.0486998 4.8535156 8.8535156 L 6.8535156 6.8535156 C 7.1682937 6.5385183 6.9453184 6.0001747 6.5 6 L 5.1816406 6 C 5.593201 4.8353112 6.6909174 4 8 4 C 9.662 4 11 5.338 11 7 L 11 9 C 11 10.662 9.662 12 8 12 C 6.6909174 12 5.593201 11.164689 5.1816406 10 L 4.1386719 10 C 4.5823641 11.726297 6.13145 13 8 13 C 10.216 13 12 11.216 12 9 L 12 7 C 12 4.784 10.216 3 8 3 z "
     style="opacity:1;fill:#000000;fill-opacity:1;stroke:none;stroke-width:2;stroke-linecap:butt;stroke-linejoin:round;stroke-miterlimit:4;stroke-dasharray:none;stroke-dashoffset:0;stroke-opacity:1" />
</svg>
