<?xml version="1.0" encoding="UTF-8" standalone="no"?>
<svg
   xmlns:dc="http://purl.org/dc/elements/1.1/"
   xmlns:cc="http://creativecommons.org/ns#"
   xmlns:rdf="http://www.w3.org/1999/02/22-rdf-syntax-ns#"
   xmlns:svg="http://www.w3.org/2000/svg"
   xmlns="http://www.w3.org/2000/svg"
   id="svg6"
   version="1.1"
   viewBox="0 0 16 16">
  <metadata
     id="metadata12">
    <rdf:RDF>
      <cc:Work
         rdf:about="">
        <dc:format>image/svg+xml</dc:format>
        <dc:type
           rdf:resource="http://purl.org/dc/dcmitype/StillImage" />
        <dc:title />
      </cc:Work>
    </rdf:RDF>
  </metadata>
  <defs
     id="defs10" />
  <path
     id="path2"
     opacity=".2"
     d="M15 8a7 7 0 0 1-7 7 7 7 0 0 1-7-7 7 7 0 0 1 7-7 7 7 0 0 1 7 7z" />
  <path
     id="text977"
     d="M 8 0 C 2.812 -0.197 -1.3585781 5.4702816 0.35742188 10.363281 C 1.6404219 15.067281 7.6399848 17.499531 11.833984 15.019531 C 15.090984 13.297531 16.806578 9.1577187 15.642578 5.6367188 C 14.669578 2.3437187 11.43 -0.047 8 0 z M 8 1 C 12.479848 0.82829513 16.048891 5.6524779 14.740234 9.8769531 L 10.445312 8.34375 C 10.412756 8.3088211 10.387305 8.2692328 10.351562 8.2363281 C 9.9541914 7.8636642 9.335402 7.6040455 8.4960938 7.4570312 L 8 7.3632812 L 8 4.8964844 C 8.0521471 4.8947638 8.0901941 4.8828125 8.1445312 4.8828125 C 8.4973379 4.8828125 8.8633847 4.9291731 9.2421875 5.0214844 C 9.6209903 5.1137956 10.02409 5.2533649 10.451172 5.4414062 L 10.451172 4.4316406 C 10.027804 4.3017211 9.6137835 4.2036316 9.2089844 4.1386719 C 8.8041853 4.0737121 8.4075222 4.0410156 8.0175781 4.0410156 C 8.0113742 4.0410156 8.0061858 4.0429506 8 4.0429688 L 8 3 L 7 3 L 7 4.1484375 C 6.5595282 4.2428634 6.1787284 4.397801 5.8730469 4.6269531 C 5.3568352 5.0167118 5.0976562 5.5496133 5.0976562 6.2265625 C 5.0976562 6.3016957 5.1090435 6.3685589 5.1152344 6.4394531 L 1.5917969 5.1816406 C 2.6935675 2.7227 5.2424025 0.94883133 8 1 z M 7 5.0703125 L 7 7.1132812 L 6.8867188 7.0722656 C 6.7612229 7.0220151 6.6327961 6.9724874 6.5566406 6.9140625 C 6.3375292 6.7396968 6.2285156 6.4830059 6.2285156 6.1445312 C 6.2285156 5.7410969 6.3940853 5.4297494 6.7246094 5.2109375 C 6.8074641 5.1566959 6.9000294 5.1111081 7 5.0703125 z M 1.2480469 6.1191406 L 6.03125 7.828125 C 6.2973604 7.9775055 6.6050589 8.1101872 7 8.2109375 L 7 11.074219 C 6.8253903 11.045406 6.6516435 11.013185 6.4746094 10.964844 C 6.0363865 10.845181 5.587651 10.667547 5.1308594 10.431641 L 5.1308594 11.498047 C 5.6062198 11.658737 6.0658759 11.781227 6.5078125 11.863281 C 6.6769752 11.894428 6.8383287 11.91427 7 11.933594 L 7 13 L 8 13 L 8 11.974609 C 8.9235317 11.946563 9.6430277 11.76456 10.138672 11.412109 C 10.68088 11.029189 10.953125 10.466518 10.953125 9.7246094 C 10.953125 9.6739087 10.944068 9.6291118 10.941406 9.5800781 L 14.412109 10.820312 C 13.186771 13.695018 9.8661914 15.492805 6.7890625 14.888672 C 3.2800625 14.348672 0.6101563 10.824781 1.0351562 7.3007812 C 1.0681194 6.8970111 1.1416795 6.5028342 1.2480469 6.1191406 z M 8 8.53125 L 9.5605469 9.0878906 C 9.704811 9.2785853 9.7773438 9.5165589 9.7773438 9.8007812 C 9.7773438 10.231567 9.6029991 10.562434 9.2539062 10.794922 C 8.9527294 10.995499 8.5195514 11.093563 8 11.121094 L 8 8.53125 z "
     style="font-style:normal;font-weight:normal;font-size:10.94644737px;line-height:1.25;font-family:sans-serif;letter-spacing:0px;word-spacing:0px;fill:#000000;fill-opacity:1;stroke:none;stroke-width:0.2736612" />
</svg>
