<?xml version="1.0" encoding="UTF-8" standalone="no"?>
<svg
   xmlns:dc="http://purl.org/dc/elements/1.1/"
   xmlns:cc="http://creativecommons.org/ns#"
   xmlns:rdf="http://www.w3.org/1999/02/22-rdf-syntax-ns#"
   xmlns:svg="http://www.w3.org/2000/svg"
   xmlns="http://www.w3.org/2000/svg"
   id="svg6"
   version="1.1"
   viewBox="0 0 16 16">
  <metadata
     id="metadata12">
    <rdf:RDF>
      <cc:Work
         rdf:about="">
        <dc:format>image/svg+xml</dc:format>
        <dc:type
           rdf:resource="http://purl.org/dc/dcmitype/StillImage" />
        <dc:title />
      </cc:Work>
    </rdf:RDF>
  </metadata>
  <defs
     id="defs10" />
  <path
     style="opacity:0.2"
     d="m 2,3 h 12 c 0.554,0 1,0.446 1,1 v 9 c 0,0.554 -0.446,1 -1,1 H 2 C 1.446,14 1,13.554 1,13 V 4 C 1,3.446 1.446,3 2,3 Z"
     id="path826" />
  <path
     id="path4"
     d="M 2,2 C 0.892,2 0,2.892 0,4 v 9 c 0,1.108 0.892,2 2,2 h 12 c 1.108,0 2,-0.892 2,-2 V 4 C 16,2.892 15.108,2 14,2 Z m 0,1 h 12 c 0.554,0 1,0.446 1,1 V 5 H 1 V 4 C 1,3.446 1.446,3 2,3 Z M 1,8 h 14 v 5 c 0,0.554 -0.446,1 -1,1 H 2 C 1.446,14 1,13.554 1,13 Z" />
</svg>
