<?xml version="1.0" encoding="UTF-8" standalone="no"?>
<svg
   xmlns:dc="http://purl.org/dc/elements/1.1/"
   xmlns:cc="http://creativecommons.org/ns#"
   xmlns:rdf="http://www.w3.org/1999/02/22-rdf-syntax-ns#"
   xmlns:svg="http://www.w3.org/2000/svg"
   xmlns="http://www.w3.org/2000/svg"
   id="svg6"
   version="1.1"
   viewBox="0 0 16 16">
  <metadata
     id="metadata12">
    <rdf:RDF>
      <cc:Work
         rdf:about="">
        <dc:format>image/svg+xml</dc:format>
        <dc:type
           rdf:resource="http://purl.org/dc/dcmitype/StillImage" />
        <dc:title />
      </cc:Work>
    </rdf:RDF>
  </metadata>
  <defs
     id="defs10" />
  <path
     id="path826"
     d="M 12.980469 2.9902344 A 1.0001 1.0001 0 0 0 12.292969 3.2929688 L 9 6.5859375 L 6.9296875 4.515625 A 2 2 0 0 1 5.5175781 5.9316406 L 7.5859375 8 L 5.515625 10.070312 A 2 2 0 0 1 6.9316406 11.482422 L 9 9.4140625 L 12.292969 12.707031 A 1.0001 1.0001 0 0 0 13.179688 13 L 14.5 13 A 0.50005 0.50005 0 0 0 14.820312 12.115234 L 13.058594 10.644531 L 10.414062 8 L 13.058594 5.3554688 L 14.820312 3.8847656 A 0.50005 0.50005 0 0 0 14.5 3 L 13.146484 3 A 1.0001 1.0001 0 0 0 12.980469 2.9902344 z "
     style="color:#000000;font-style:normal;font-variant:normal;font-weight:normal;font-stretch:normal;font-size:medium;line-height:normal;font-family:sans-serif;font-variant-ligatures:normal;font-variant-position:normal;font-variant-caps:normal;font-variant-numeric:normal;font-variant-alternates:normal;font-feature-settings:normal;text-indent:0;text-align:start;text-decoration:none;text-decoration-line:none;text-decoration-style:solid;text-decoration-color:#000000;letter-spacing:normal;word-spacing:normal;text-transform:none;writing-mode:lr-tb;direction:ltr;text-orientation:mixed;dominant-baseline:auto;baseline-shift:baseline;text-anchor:start;white-space:normal;shape-padding:0;clip-rule:nonzero;display:inline;overflow:visible;visibility:visible;opacity:0.4;isolation:auto;mix-blend-mode:normal;color-interpolation:sRGB;color-interpolation-filters:linearRGB;solid-color:#000000;solid-opacity:1;vector-effect:none;fill:#000000;fill-opacity:1;fill-rule:nonzero;stroke:none;stroke-width:2;stroke-linecap:round;stroke-linejoin:miter;stroke-miterlimit:4;stroke-dasharray:none;stroke-dashoffset:0;stroke-opacity:1;color-rendering:auto;image-rendering:auto;shape-rendering:auto;text-rendering:auto;enable-background:accumulate" />
  <path
     id="path815"
     d="M 5 1 A 3 3 0 0 0 2 4 A 3 3 0 0 0 5 7 A 3 3 0 0 0 5.1640625 6.9921875 L 6.171875 8 L 5.1660156 9.0058594 A 3 3 0 0 0 5 9 A 3 3 0 0 0 2 12 A 3 3 0 0 0 5 15 A 3 3 0 0 0 8 12 A 3 3 0 0 0 7.9921875 11.835938 L 9 10.828125 L 11.572266 13.400391 C 12.029544 13.875834 12.695184 14.095759 13.345703 13.986328 L 13.179688 14 L 14.498047 14 C 15.149642 14.0011 15.717637 13.546937 15.912109 13.009766 C 16.106299 12.473374 15.960489 11.764159 15.460938 11.347656 L 15.458984 11.345703 L 13.734375 9.90625 L 11.828125 8 L 13.734375 6.09375 L 15.458984 4.6542969 C 15.960293 4.2380444 16.106582 3.5274055 15.912109 2.9902344 C 15.717832 2.4536004 15.150774 1.9997755 14.5 2 L 13.146484 2 L 13.287109 2.0097656 C 13.177173 1.9940496 13.066099 1.9875154 12.955078 1.9902344 L 12.953125 1.9902344 L 12.951172 1.9902344 C 12.431949 2.0057054 11.938154 2.2231433 11.576172 2.5957031 L 9 5.171875 L 7.9941406 4.1660156 A 3 3 0 0 0 8 4 A 3 3 0 0 0 5 1 z M 5 2 A 2 2 0 0 1 6.4355469 2.6074219 A 2 2 0 0 1 6.5664062 2.7558594 A 2 2 0 0 1 6.5683594 2.7578125 A 2 2 0 0 1 6.8632812 3.2753906 A 2 2 0 0 1 6.8652344 3.2773438 A 2 2 0 0 1 6.9277344 3.4648438 A 2 2 0 0 1 6.9277344 3.4667969 A 2 2 0 0 1 6.9707031 3.6601562 A 2 2 0 0 1 6.9707031 3.6621094 A 2 2 0 0 1 6.9941406 3.859375 A 2 2 0 0 1 7 4 A 2 2 0 0 1 6.9296875 4.515625 A 2 2 0 0 1 5.5175781 5.9316406 A 2 2 0 0 1 5.3398438 5.9707031 A 2 2 0 0 1 5.140625 5.9941406 A 2 2 0 0 1 5 6 A 2 2 0 0 1 4.8007812 5.9902344 A 2 2 0 0 1 4.4082031 5.9101562 A 2 2 0 0 1 4.2207031 5.8417969 A 2 2 0 0 1 3.59375 5.4199219 A 2 2 0 0 1 3 4 A 2 2 0 0 1 5 2 z M 12.980469 2.9902344 A 1.0001 1.0001 0 0 1 13.146484 3 L 14.5 3 A 0.50005 0.50005 0 0 1 14.820312 3.8847656 L 13.058594 5.3554688 L 10.414062 8 L 13.058594 10.644531 L 14.820312 12.115234 A 0.50005 0.50005 0 0 1 14.5 13 L 13.179688 13 A 1.0001 1.0001 0 0 1 12.292969 12.707031 L 9 9.4140625 L 7.7050781 10.708984 A 3 3 0 0 0 6.2910156 9.2949219 L 7.5859375 8 L 6.2910156 6.7050781 A 3 3 0 0 0 7.7050781 5.2910156 L 9 6.5859375 L 12.292969 3.2929688 A 1.0001 1.0001 0 0 1 12.980469 2.9902344 z M 9 7 A 1 1 0 0 0 8 8 A 1 1 0 0 0 9 9 A 1 1 0 0 0 10 8 A 1 1 0 0 0 9 7 z M 5 10 A 2 2 0 0 1 5.515625 10.070312 A 2 2 0 0 1 6.9316406 11.482422 A 2 2 0 0 1 6.9707031 11.660156 A 2 2 0 0 1 6.9941406 11.859375 A 2 2 0 0 1 7 12 A 2 2 0 0 1 6.9902344 12.199219 A 2 2 0 0 1 6.9101562 12.591797 A 2 2 0 0 1 6.8417969 12.779297 A 2 2 0 0 1 6.4199219 13.40625 A 2 2 0 0 1 6.4160156 13.410156 A 2 2 0 0 1 5 14 A 2 2 0 0 1 3 12 A 2 2 0 0 1 3.6074219 10.564453 A 2 2 0 0 1 3.7578125 10.431641 A 2 2 0 0 1 3.9199219 10.316406 A 2 2 0 0 1 4.2773438 10.134766 A 2 2 0 0 1 4.4023438 10.09375 A 2 2 0 0 1 5 10 z "
     style="color:#000000;font-style:normal;font-variant:normal;font-weight:normal;font-stretch:normal;font-size:medium;line-height:normal;font-family:sans-serif;font-variant-ligatures:normal;font-variant-position:normal;font-variant-caps:normal;font-variant-numeric:normal;font-variant-alternates:normal;font-feature-settings:normal;text-indent:0;text-align:start;text-decoration:none;text-decoration-line:none;text-decoration-style:solid;text-decoration-color:#000000;letter-spacing:normal;word-spacing:normal;text-transform:none;writing-mode:lr-tb;direction:ltr;text-orientation:mixed;dominant-baseline:auto;baseline-shift:baseline;text-anchor:start;white-space:normal;shape-padding:0;clip-rule:nonzero;display:inline;overflow:visible;visibility:visible;opacity:1;isolation:auto;mix-blend-mode:normal;color-interpolation:sRGB;color-interpolation-filters:linearRGB;solid-color:#000000;solid-opacity:1;vector-effect:none;fill:#000000;fill-opacity:1;fill-rule:nonzero;stroke:none;stroke-width:2;stroke-linecap:round;stroke-linejoin:miter;stroke-miterlimit:4;stroke-dasharray:none;stroke-dashoffset:0;stroke-opacity:1;color-rendering:auto;image-rendering:auto;shape-rendering:auto;text-rendering:auto;enable-background:accumulate" />
</svg>
