<svg xmlns="http://www.w3.org/2000/svg" viewBox="0 0 16 16" fill="currentColor" height="16px" width="16px">
    <path d="M3 8l1 7h8l1-7z" opacity=".3"/>
    <path d="M7.492 0A.5.5 0 007 .508V2H3C1.5 2 1 3 1 4c0 .734.406 1.37 1 1.719L3 14c.132 1.092.9 2 2 2h6c1.1 0 1.868-.908 2-2l1-8.281c.594-.348 1-.985 1-1.719 0-1-.5-1.954-2-2H8V.508A.5.5 0 007.492 0zM3 3h4v.492a.5.5 0 101 0V3h5c.5 0 .993.5 1 1 0 .563-.437 1-1 1H7.592a.5.5 0 00-.1-.008.5.5 0 00-.074.008H3c-.563 0-1-.437-1-1 0-.5.5-1 1-1zm0 3h4v1H3.125L3 6zm5 0h5l-.125 1H8V6zM3.25 8H7v5.5a.5.5 0 101 0V8h4.75L12 14c-.07.559-.437 1-1 1H5c-.563 0-.878-.45-1-1l-.75-6z"/>
    <path d="M3 3c-.554 0-1 .529-1 1s.446 1 1 1h10c.554 0 1-.529 1-1s-.446-1-1-1z" opacity=".2"/>
</svg>
