<?xml version="1.0" encoding="UTF-8" standalone="no"?>
<svg
   xmlns:dc="http://purl.org/dc/elements/1.1/"
   xmlns:cc="http://creativecommons.org/ns#"
   xmlns:rdf="http://www.w3.org/1999/02/22-rdf-syntax-ns#"
   xmlns:svg="http://www.w3.org/2000/svg"
   xmlns="http://www.w3.org/2000/svg"
   id="svg6"
   version="1.1"
   viewBox="0 0 16 16">
  <metadata
     id="metadata12">
    <rdf:RDF>
      <cc:Work
         rdf:about="">
        <dc:format>image/svg+xml</dc:format>
        <dc:type
           rdf:resource="http://purl.org/dc/dcmitype/StillImage" />
        <dc:title />
      </cc:Work>
    </rdf:RDF>
  </metadata>
  <defs
     id="defs10" />
  <path
     id="path2"
     d="M 3,2 C 2.446,2 2,2.446 2,3 v 1 c 0,0.554 0.446,1 1,1 h 10 c 0.554,0 1,-0.446 1,-1 V 3 C 14,2.446 13.554,2 13,2 10,2 4.7322106,2 3,2 Z m 0,6 1,7 h 8 l 1,-7 z"
     style="opacity:0.2" />
  <path
     id="path4"
     d="M 7.4921875 0 A 0.50005 0.50005 0 0 0 7 0.5078125 L 7 2 L 4 2 L 3 2 C 1.5 2 1 3 1 4 C 1 4.734 1.406 5.36975 2 5.71875 L 3 14 C 3.1318722 15.092067 3.9 16 5 16 L 11 16 C 12.1 16 12.868128 15.092067 13 14 L 14 5.71875 C 14.594 5.37075 15 4.734 15 4 C 15 3 14.5 2.0459844 13 2 L 12.5 2 L 12 2 L 8 2 L 8 0.5078125 A 0.50005 0.50005 0 0 0 7.4921875 0 z M 3 3 L 4 3 L 7 3 L 7 3.4921875 A 0.50005 0.50005 0 1 0 8 3.4921875 L 8 3 L 12 3 L 12.5 3 L 13 3 C 13.5 3 13.993181 3.5 14 4 C 14 4.563 13.563 5 13 5 L 7.5917969 5 A 0.50005 0.50005 0 0 0 7.4921875 4.9921875 A 0.50005 0.50005 0 0 0 7.4179688 5 L 3 5 C 2.437 5 2 4.563 2 4 C 2 3.5 2.5 3 3 3 z M 3 6 L 7 6 L 7 7 L 3.125 7 L 3 6 z M 8 6 L 13 6 L 12.875 7 L 8 7 L 8 6 z M 3.25 8 L 7 8 L 7 13.5 A 0.50005 0.50005 0 1 0 8 13.5 L 8 8 L 12.75 8 L 12 14 C 11.93017 14.558652 11.563 15 11 15 L 5 15 C 4.437 15 4.1221318 14.549593 4 14 L 3.25 8 z " />
</svg>
