<?xml version="1.0" encoding="UTF-8" standalone="no"?>
<svg
   xmlns:dc="http://purl.org/dc/elements/1.1/"
   xmlns:cc="http://creativecommons.org/ns#"
   xmlns:rdf="http://www.w3.org/1999/02/22-rdf-syntax-ns#"
   xmlns:svg="http://www.w3.org/2000/svg"
   xmlns="http://www.w3.org/2000/svg"
   id="svg6"
   version="1.1"
   viewBox="0 0 16 16">
  <metadata
     id="metadata12">
    <rdf:RDF>
      <cc:Work
         rdf:about="">
        <dc:format>image/svg+xml</dc:format>
        <dc:type
           rdf:resource="http://purl.org/dc/dcmitype/StillImage" />
        <dc:title />
      </cc:Work>
    </rdf:RDF>
  </metadata>
  <defs
     id="defs10" />
  <path
     id="rect821"
     d="M 2.5,0 C 2.223,0 2,0.223 2,0.5 v 15 C 2,15.777 2.223,16 2.5,16 h 11 C 13.777,16 14,15.777 14,15.5 V 4.5 L 9.5,0 Z M 3,1 H 8 V 5.5 C 8,5.777 8.223,6 8.5,6 H 13 v 9 H 3 Z m 6,0 4,4 H 9 Z"
     style="opacity:1;fill:#000000;fill-opacity:1;stroke:none;stroke-width:1;stroke-linecap:round;stroke-linejoin:round;stroke-miterlimit:4;stroke-dasharray:none;stroke-dashoffset:0.5;stroke-opacity:1" />
  <path
     id="rect823"
     d="M 3 1 L 3 15 L 13 15 L 13 5 L 9 5 L 9 1 L 3 1 z "
     style="opacity:0.2;fill:#000000;fill-opacity:1;stroke:none;stroke-width:1;stroke-linecap:round;stroke-linejoin:round;stroke-miterlimit:4;stroke-dasharray:none;stroke-dashoffset:0.5;stroke-opacity:1" />
  <path
     id="path4"
     d="M 7.982,13 C 7.8258583,12.9938 7.6815737,12.91504 7.592,12.787 L 5,8.787 C 4.7675742,8.455427 5.00508,7.999536 5.41,8 H 7 L 7,5 H 9.002 L 9,8 h 1.5 c 0.404922,-4.64e-4 0.642426,0.455427 0.41,0.787 l -2.498,4 C 8.314328,12.926635 8.1522649,13.006913 7.982,13 Z" />
</svg>
