<?xml version="1.0" encoding="UTF-8" standalone="no"?>
<svg
   xmlns:dc="http://purl.org/dc/elements/1.1/"
   xmlns:cc="http://creativecommons.org/ns#"
   xmlns:rdf="http://www.w3.org/1999/02/22-rdf-syntax-ns#"
   xmlns:svg="http://www.w3.org/2000/svg"
   xmlns="http://www.w3.org/2000/svg"
   id="svg6"
   version="1.1"
   viewBox="0 0 16 16">
  <metadata
     id="metadata12">
    <rdf:RDF>
      <cc:Work
         rdf:about="">
        <dc:format>image/svg+xml</dc:format>
        <dc:type
           rdf:resource="http://purl.org/dc/dcmitype/StillImage" />
        <dc:title />
      </cc:Work>
    </rdf:RDF>
  </metadata>
  <defs
     id="defs10" />
  <path
     id="rect821"
     d="M 2.5 0 C 2.223 0 2 0.223 2 0.5 L 2 15.5 C 2 15.777 2.223 16 2.5 16 L 13.5 16 C 13.777 16 14 15.777 14 15.5 L 14 4.5 L 9.5 0 L 2.5 0 z M 3 1 L 8 1 L 8 5.5 C 8 5.777 8.223 6 8.5 6 L 13 6 L 13 15 L 3 15 L 3 1 z M 9 1 L 13 5 L 9 5 L 9 1 z M 5 7 L 5 8 L 11 8 L 11 7 L 5 7 z M 5 9 L 5 10 L 11 10 L 11 9 L 5 9 z M 5 11 L 5 12 L 11 12 L 11 11 L 5 11 z "
     style="opacity:1;fill:#000000;fill-opacity:1;stroke:none;stroke-width:1;stroke-linecap:round;stroke-linejoin:round;stroke-miterlimit:4;stroke-dasharray:none;stroke-dashoffset:0.5;stroke-opacity:1" />
  <path
     id="rect823"
     d="M 3 1 L 3 15 L 13 15 L 13 5 L 9 5 L 9 1 L 3 1 z "
     style="opacity:0.2;fill:#000000;fill-opacity:1;stroke:none;stroke-width:1;stroke-linecap:round;stroke-linejoin:round;stroke-miterlimit:4;stroke-dasharray:none;stroke-dashoffset:0.5;stroke-opacity:1" />
</svg>
