<svg xmlns="http://www.w3.org/2000/svg" viewBox="0 0 16 16" fill="currentColor" height="16px" width="16px">
    <path d="M8 .023c-.269 0-.37.078-.545.166a5.12 5.12 0 0 0-.59.357 9.347 9.347 0 0 0-1.457 1.26c-.915.97-1.708 2.338-1.81 3.895a1.483 1.483 0 0 1-.493-.325c-.415-.389-.878-1.093-1.123-2.005a.5.5 0 0 0-.898-.149C-.055 4.93-.399 8.009.525 10.782 1.45 13.557 3.813 16 8 16c4.156 0 6.536-2.04 7.47-4.643.935-2.603.535-5.702-.513-8.06a.5.5 0 0 0-.932.044c-.22.659-.692 1.4-1.138 1.87a2.234 2.234 0 0 1-.504.406c-.13-1.519-.893-2.857-1.791-3.809A9.368 9.368 0 0 0 9.135.546a5.118 5.118 0 0 0-.59-.357C8.37.101 8.269.023 8 .023zm0 1c-.144 0-.023-.001.096.059.118.06.284.159.472.289.377.26.848.647 1.297 1.123.898.951 1.683 2.242 1.635 3.6a.5.5 0 0 0 .146.37.864.864 0 0 0 .58.239c.197 0 .365-.053.52-.127.31-.148.588-.386.865-.678.283-.298.456-.752.696-1.143.653 1.994.919 4.323.222 6.264-.815 2.272-2.685 3.98-6.529 3.98-3.812 0-5.7-2.057-6.525-4.533-.69-2.071-.417-4.262.162-5.742.261.482.463 1.081.785 1.383.288.27.584.467.908.564.324.098.747.07 1.024-.207a.5.5 0 0 0 .146-.37c-.048-1.358.737-2.649 1.635-3.6.449-.476.92-.863 1.297-1.123.188-.13.354-.23.472-.29.119-.059.24-.058.096-.058z"/>
    <path d="M8 .523C7.5.523 3.89 3 4 6.111 3.502 6.61 2.036 5.5 1.5 3.5c-2 3-1.5 12 6.5 12s8.5-7.5 6.5-12C14 5 12.498 6.609 12 6.111c.11-3.11-3.5-5.588-4-5.588zm0 6.502c.266 0 2.06 1.318 2 2.975.265.265 1.234-.201 1.5-1 1.065 2.396.76 6-3.5 6s-4.565-4.402-3.5-6c.285 1.065 1.235 1.265 1.5 1-.06-1.657 1.734-2.975 2-2.975z" opacity=".2"/>
</svg>
