<svg xmlns="http://www.w3.org/2000/svg" viewBox="0 0 16 16" fill="currentColor" height="16px" width="16px">
    <path d="M1 0a.945.945 0 0 0-.488.139A.85.85 0 0 0 .08.63L.078.633C.07.655.061.676.055.699A.91.91 0 0 0 0 1l.002.008c-.017.286.033.621.133.992l3.22 12c.296 1.102.466 2 2.002 2 1.537 0 1.219-1.177.998-2L4.742 7.988C6.015 8.03 7 8.15 7 8.5c0 .5 1.5 1.514 3.02 1.5L14 9.965c.554-.005 1-.446 1-1V4c0-.554-.446-1-1-1-2 0-4 0-4-1 0-1.5-2-2-4-2H1zm1.764 1H6c1.5 0 3 .5 3 1.5C9 4 11 4 13.5 4c.277 0 .5.223.5.5v4c0 .277-.223.5-.5.5H10c-1 0-2-.5-2-1 0-.813-1.974-.964-3.521-.992L3.135 2a4.842 4.842 0 0 0-.371-1z"/>
    <path d="M2.764 1H6c1.5 0 3 .5 3 1.5C9 4 11 4 13.5 4c.277 0 .5.223.5.5v4c0 .277-.223.5-.5.5H10c-1 0-2-.5-2-1 0-.813-1.974-.964-3.521-.992L3.135 2a4.842 4.842 0 0 0-.371-1Z" opacity="0.2"/>
</svg>
