<?xml version="1.0" encoding="UTF-8" standalone="no"?>
<svg
   xmlns:dc="http://purl.org/dc/elements/1.1/"
   xmlns:cc="http://creativecommons.org/ns#"
   xmlns:rdf="http://www.w3.org/1999/02/22-rdf-syntax-ns#"
   xmlns:svg="http://www.w3.org/2000/svg"
   xmlns="http://www.w3.org/2000/svg"
   id="svg6"
   version="1.1"
   viewBox="0 0 16 16">
  <metadata
     id="metadata12">
    <rdf:RDF>
      <cc:Work
         rdf:about="">
        <dc:format>image/svg+xml</dc:format>
        <dc:type
           rdf:resource="http://purl.org/dc/dcmitype/StillImage" />
        <dc:title />
      </cc:Work>
    </rdf:RDF>
  </metadata>
  <defs
     id="defs10" />
  <path
     id="path4"
     d="M 1 2 C 0.45464862 2 0 2.4546486 0 3 L 0 4.5 L 0 5 L 0 13 C 0 14.108 0.892 15 2 15 L 14 15 C 15.108 15 16 14.108 16 13 L 16 5 C 16 3.892 15.108 3 14 3 L 7.5 3 L 7 3 C 7 2.4546486 6.5453514 2 6 2 L 1 2 z M 1 3 L 6 3 C 6 4 6 4 7 4 L 8 4 L 8.125 4 L 14 4 C 14.554 4 15 4.446 15 5 L 15 6 L 1 6 L 1 5 L 1 4 L 1 3 z M 1 7 L 15 7 L 15 13 C 15 13.554 14.554 14 14 14 L 2 14 C 1.446 14 1 13.554 1 13 L 1 7 z " />
  <path
     style="opacity:0.2"
     d="m 1,7 v 6 c 0,0.554 0.446,1 1,1 h 12 c 0.554,0 1,-0.446 1,-1 V 7 Z"
     id="path3773" />
</svg>
