<?xml version="1.0" encoding="UTF-8" standalone="no"?>
<svg
   xmlns:dc="http://purl.org/dc/elements/1.1/"
   xmlns:cc="http://creativecommons.org/ns#"
   xmlns:rdf="http://www.w3.org/1999/02/22-rdf-syntax-ns#"
   xmlns:svg="http://www.w3.org/2000/svg"
   xmlns="http://www.w3.org/2000/svg"
   id="svg6"
   version="1.1"
   viewBox="0 0 16 16">
  <metadata
     id="metadata12">
    <rdf:RDF>
      <cc:Work
         rdf:about="">
        <dc:format>image/svg+xml</dc:format>
        <dc:type
           rdf:resource="http://purl.org/dc/dcmitype/StillImage" />
      </cc:Work>
    </rdf:RDF>
  </metadata>
  <defs
     id="defs10" />
  <path
     style="opacity:0.2"
     id="path2"
     d="M 2 2 L 2 5 L 5 5 L 5 2 L 2 2 z M 8 2 L 8 5 L 14 5 L 14 2 L 8 2 z M 8 11.087891 L 5.9101562 12.878906 L 6.75 14 L 8 14 L 8 11.087891 z M 3.4453125 11.261719 L 2 12.707031 L 2 14 L 5.5 14 L 3.4453125 11.261719 z M 11 13 L 11 14 L 14 14 L 14 13 L 11 13 z " />
  <path
     id="path4"
     d="M1 1v5h5V1zm6 0v5h8V1zM2 2h3v3H2zm6 0h6v3h-1V3h-1v2h-1V4h-1v1H8zM3.5 3a.5.5 0 1 0 0 1 .5.5 0 0 0 0-1zM1 7v8h8V7zm9 0v8h5V7zM2 8h6v1.77l-2.691 2.306-1.754-2.338L2 11.293zm9 0h3v4h-3zm1.5 1a.499.499 0 1 0 0 1 .499.499 0 1 0 0-1zM8 11.088V14H6.75l-.84-1.121zm-4.555.174L5.5 14H2v-1.293zM11 13h3v1h-3z" />
</svg>
