<svg xmlns="http://www.w3.org/2000/svg" viewBox="0 0 16 16" fill="currentColor" height="16px" width="16px">
    <path d="M2 2v3h3V2H2zm6 0v3h6V2H8zm0 9.088l-2.09 1.79L6.75 14H8v-2.912zm-4.555.174L2 12.707V14h3.5l-2.055-2.738zM11 13v1h3v-1h-3z" opacity=".2"/>
    <path d="M1 1v5h5V1zm6 0v5h8V1zM2 2h3v3H2zm6 0h6v3h-1V3h-1v2h-1V4h-1v1H8zM3.5 3a.5.5 0 100 1 .5.5 0 000-1zM1 7v8h8V7zm9 0v8h5V7zM2 8h6v1.77l-2.691 2.306-1.754-2.338L2 11.293zm9 0h3v4h-3zm1.5 1a.499.499 0 100 1 .499.499 0 100-1zM8 11.088V14H6.75l-.84-1.121zm-4.555.174L5.5 14H2v-1.293zM11 13h3v1h-3z"/>
</svg>
