<svg xmlns="http://www.w3.org/2000/svg" viewBox="0 0 16 16" fill="currentColor" height="16px" width="16px">
    <path d="M2 6C.892 6 0 6.892 0 8v2c0 1.108.892 2 2 2h3c1.108 0 2-.892 2-2V9h2v1c0 1.108.892 2 2 2h3c1.108 0 2-.892 2-2V8c0-1.108-.892-2-2-2h-3c-1.108 0-2 .892-2 2H7c0-1.108-.892-2-2-2H2zm0 1h3c.554 0 1 .446 1 1v2c0 .554-.446 1-1 1H2c-.554 0-1-.446-1-1V8c0-.554.446-1 1-1zm9 0h3c.554 0 1 .446 1 1v2c0 .554-.446 1-1 1h-3c-.554 0-1-.446-1-1V8c0-.554.446-1 1-1z"/>
    <path d="M1 10c0 .554.446 1 1 1h3c.554 0 1-.446 1-1V8c0-.554-.446-1-1-1l-4 3zm10-3c-.554 0-1 .446-1 1v2c0 .554.446 1 1 1h3c.554 0 1-.446 1-1V8c0-.554-.446-1-1-1z" opacity=".2"/>
</svg>
