<?xml version="1.0" encoding="UTF-8" standalone="no"?>
<svg
   xmlns:dc="http://purl.org/dc/elements/1.1/"
   xmlns:cc="http://creativecommons.org/ns#"
   xmlns:rdf="http://www.w3.org/1999/02/22-rdf-syntax-ns#"
   xmlns:svg="http://www.w3.org/2000/svg"
   xmlns="http://www.w3.org/2000/svg"
   id="svg8"
   version="1.1"
   width="16"
   height="16">
  <metadata
     id="metadata14">
    <rdf:RDF>
      <cc:Work
         rdf:about="">
        <dc:format>image/svg+xml</dc:format>
        <dc:type
           rdf:resource="http://purl.org/dc/dcmitype/StillImage" />
        <dc:title />
      </cc:Work>
    </rdf:RDF>
  </metadata>
  <defs
     id="defs12" />
  <path
     id="rect880"
     d="M 2 6 C 0.892 6 0 6.892 0 8 L 0 10 C 0 11.108 0.892 12 2 12 L 5 12 C 6.108 12 7 11.108 7 10 L 7 9 L 9 9 L 9 10 C 9 11.108 9.892 12 11 12 L 14 12 C 15.108 12 16 11.108 16 10 L 16 8 C 16 6.892 15.108 6 14 6 L 11 6 C 9.892 6 9 6.892 9 8 L 7 8 C 7 6.892 6.108 6 5 6 L 2 6 z M 2 7 L 5 7 C 5.554 7 6 7.446 6 8 L 6 10 C 6 10.554 5.554 11 5 11 L 2 11 C 1.446 11 1 10.554 1 10 L 1 8 C 1 7.446 1.446 7 2 7 z M 11 7 L 14 7 C 14.554 7 15 7.446 15 8 L 15 10 C 15 10.554 14.554 11 14 11 L 11 11 C 10.446 11 10 10.554 10 10 L 10 8 C 10 7.446 10.446 7 11 7 z "
     style="opacity:1;vector-effect:none;fill:#000000;fill-opacity:1;stroke:none;stroke-width:1.00000012;stroke-linecap:round;stroke-linejoin:miter;stroke-miterlimit:4;stroke-dasharray:none;stroke-dashoffset:0;stroke-opacity:1" />
  <path
     id="rect882"
     d="m 1,10 c 0,0.554 0.446,1 1,1 h 3 c 0.554,0 1,-0.446 1,-1 V 8 C 6,7.446 5.554,7 5,7 3,8.5 3,8.5 1,10 Z M 11,7 c -0.554,0 -1,0.446 -1,1 v 2 c 0,0.554 0.446,1 1,1 h 3 c 0.554,0 1,-0.446 1,-1 V 8 C 15,7.446 14.554,7 14,7 Z"
     style="opacity:0.2;vector-effect:none;fill:#000000;fill-opacity:1;stroke:none;stroke-width:1.00000012;stroke-linecap:round;stroke-linejoin:miter;stroke-miterlimit:4;stroke-dasharray:none;stroke-dashoffset:0;stroke-opacity:1" />
</svg>
