<svg xmlns="http://www.w3.org/2000/svg" viewBox="0 0 16 16" fill="currentColor" height="16px" width="16px">
    <path d="M15 8a7 7 0 01-7 7 7 7 0 01-7-7 7 7 0 017-7 7 7 0 017 7z" opacity=".2"/>
    <path d="M8 0C2.812-.197-1.359 5.47.357 10.363c.88 3.223 3.974 5.35 7.184 5.59h.002c.055.012.114.01.17.018.07.003.138.02.207.021.028.001.054.008.082.008.02 0 .037-.005.057-.006h.002c1.303.013 2.608-.286 3.773-.974 3.257-1.722 4.973-5.862 3.809-9.383C14.67 2.344 11.43-.046 8.002 0H8zm0 1a7 7 0 01.002 0c.677 0 1.431.64 2.023 1.908.252.54.456 1.196.62 1.906a20.654 20.654 0 01-5.286.006c.164-.713.369-1.37.621-1.912C6.572 1.64 7.324 1.001 8 1zm2.266.357c.086.033.167.08.254.114a7 7 0 01.664.297c.04.021.08.04.12.062a7 7 0 012.544 2.328c-.736.204-1.472.376-2.21.506-.178-.8-.41-1.544-.706-2.18a6.577 6.577 0 00-.666-1.127zm-4.547.028a6.632 6.632 0 00-.645 1.1c-.297.637-.53 1.382-.709 2.185a22.92 22.92 0 01-2.215-.512A7 7 0 015.72 1.385zM1.65 5.059c.847.247 1.692.445 2.538.593-.098.658-.16 1.343-.172 2.06-.97-.14-1.956-.336-2.96-.593a7 7 0 01.221-1.064l.055-.178a7 7 0 01.318-.818zm12.7 0a7 7 0 01.558 1.818c.008.042.025.081.031.123h-.011a7 7 0 01.015.113c-.975.231-1.958.43-2.955.576-.013-.71-.075-1.39-.172-2.04.847-.15 1.692-.347 2.534-.59zm-3.524.74c.095.637.157 1.304.166 2.008a27.288 27.288 0 01-5.982.033c.007-.714.071-1.39.168-2.035 1.89.245 3.773.24 5.648-.006zM15.01 8.12a6.157 6.157 0 01-.295 1.854 7 7 0 01-.006.015 7 7 0 01-.021.072c-.963.25-1.934.459-2.918.616.107-.627.17-1.29.199-1.977a34.937 34.937 0 003.04-.58zM1 8.133c1.027.255 2.04.458 3.035.596.03.687.096 1.35.205 1.976a24.374 24.374 0 01-2.928-.643 7 7 0 01-.132-.488l-.018-.078a7 7 0 01-.1-.559 6.434 6.434 0 01-.039-.384 7 7 0 01-.002-.014 7 7 0 01-.017-.312L1 8.133zm9.965.68a14.5 14.5 0 01-.227 2 23.664 23.664 0 01-5.463.035 14.411 14.411 0 01-.232-2.004c2.035.204 4.005.176 5.922-.031zm3.264 2.382a7 7 0 01-.485.805h.008c-.017.023-.038.043-.055.066a7 7 0 01-3.408 2.547c.238-.326.454-.694.643-1.097.248-.532.442-1.148.609-1.797.91-.132 1.803-.315 2.688-.524zm-12.446.02c.91.23 1.81.422 2.692.545.165.633.356 1.235.6 1.756.188.404.404.772.642 1.1a7 7 0 01-3.934-3.401zm8.694.633c-.133.45-.28.876-.452 1.244C9.433 14.36 8.68 15 8.002 15A7 7 0 018 15c-.676-.001-1.428-.64-2.02-1.908a8.926 8.926 0 01-.445-1.219c1.696.16 3.34.143 4.942-.025z"/>
</svg>
