<svg xmlns="http://www.w3.org/2000/svg" viewBox="0 0 16 16" fill="currentColor" height="16px" width="16px">
    <path d="M10.418 0a3.99 3.99 0 00-3.895 3.135 3.967 3.967 0 00-.935-.123 3.994 3.994 0 00-3.994 3.994 3.994 3.994 0 001.879 3.383 6 6 0 00-2.907 2.355L0 13.723a8 8 0 005.045 2.257 8 8 0 006.1-2.227l-.004-.007.029-.03-.432-.743c.427-.018.851-.06 1.27-.145a8 8 0 003.629-1.781c.115-.098.228-.2.338-.305l-.004-.008.029-.029-.598-1.031a6 6 0 00-2.87-2.293A3.994 3.994 0 0010.417 0zm0 .988c4 0 4 6 0 6-.31 0-.589-.045-.85-.113a3.973 3.973 0 00-2.1-3.373c.193-1.32 1.167-2.514 2.95-2.514zM5.588 4c.307 0 .583.046.844.111l.015.006c.198.051.383.117.553.2.175.084.337.184.482.298.563.442.91 1.075 1.041 1.758.034.174.052.35.057.527l.002.024v.004c.004.174-.008.347-.031.52-.001.008 0 .018-.002.027l-.002.004a3.268 3.268 0 01-.117.513c-.003.007-.004.015-.006.022l-.002.004a3.076 3.076 0 01-.215.502 2.716 2.716 0 01-1.67 1.337l-.014.004a3.779 3.779 0 01-.935.139c-.117 0-.218-.021-.328-.031C1.603 9.639 1.705 4 5.588 4zm4.83 3.988a5 5 0 014.326 2.5 7 7 0 01-4.326 1.5c-.141 0-.28-.026-.42-.035a6 6 0 00-2.297-1.56 3.992 3.992 0 001.723-2.291 4.82 4.82 0 01.994-.114zM5.588 11c.212 0 .423.016.63.043.06.008.118.022.177.031.14.023.279.05.416.084.081.021.161.046.242.07a5.013 5.013 0 011.13.508c.094.057.183.12.272.182.076.053.154.104.227.162.085.067.165.142.246.215.072.065.148.127.217.197a4.995 4.995 0 01.77 1.008A7 7 0 015.587 15a7.002 7.002 0 01-4.32-1.502 4.993 4.993 0 013.937-2.473c.128-.01.254-.025.383-.025z"/>
    <path d="M5.588 4c4 0 4 6 0 6s-4-6 0-6zm0 7a5 5 0 014.326 2.5A7 7 0 015.588 15a7.002 7.002 0 01-4.32-1.502A5 5 0 015.588 11z" opacity=".3"/>
    <path d="M10.418.988c-2.281 0-3.257 1.95-2.936 3.627.563.442.91 1.075 1.041 1.758.478.375 1.106.615 1.895.615 4 0 4-6 0-6zm0 7a4.986 4.986 0 00-2.211.532 2.716 2.716 0 01-1.67 1.337 4.99 4.99 0 00-.44.63 7.002 7.002 0 004.321 1.501 7 7 0 004.326-1.5 5 5 0 00-4.326-2.5z" opacity=".2"/>
</svg>
