<?xml version="1.0" encoding="UTF-8" standalone="no"?>
<svg
   xmlns:dc="http://purl.org/dc/elements/1.1/"
   xmlns:cc="http://creativecommons.org/ns#"
   xmlns:rdf="http://www.w3.org/1999/02/22-rdf-syntax-ns#"
   xmlns:svg="http://www.w3.org/2000/svg"
   xmlns="http://www.w3.org/2000/svg"
   id="svg6"
   version="1.1"
   width="16px"
   height="16px"
   fill="currentColor"
   viewBox="0 0 16 16">
  <metadata
     id="metadata12">
    <rdf:RDF>
      <cc:Work
         rdf:about="">
        <dc:format>image/svg+xml</dc:format>
        <dc:type
           rdf:resource="http://purl.org/dc/dcmitype/StillImage" />
      </cc:Work>
    </rdf:RDF>
  </metadata>
  <defs
     id="defs10" />
  <path
     id="path2"
     d="M13.5 1c.822 0 1.5.678 1.5 1.5v1c0 .822-.678 1.5-1.5 1.5h-11C1.678 5 1 4.322 1 3.5v-1C1 1.678 1.678 1 2.5 1zm0 1h-11c-.286 0-.5.214-.5.5v1c0 .286.214.5.5.5h11c.286 0 .5-.214.5-.5v-1c0-.286-.214-.5-.5-.5zm0 4c.822 0 1.5.678 1.5 1.5v1c0 .822-.678 1.5-1.5 1.5h-11C1.678 10 1 9.322 1 8.5v-1C1 6.678 1.678 6 2.5 6zm0 1h-11c-.286 0-.5.214-.5.5v1c0 .286.214.5.5.5h11c.285 0 .5-.214.5-.5v-1c0-.286-.215-.5-.5-.5zm0 4c.822 0 1.5.678 1.5 1.5v1c0 .822-.678 1.5-1.5 1.5h-11c-.822 0-1.5-.678-1.5-1.5v-1c0-.822.678-1.5 1.5-1.5zm0 1h-11c-.286 0-.5.214-.5.5v1c0 .286.214.5.5.5h11c.286 0 .5-.214.5-.5v-1c0-.286-.214-.5-.5-.5z" />
  <path
     id="path4"
     opacity=".2"
     d="M14 2v2H2V2zm0 5v2H2V7zm0 5v2H2v-2z" />
</svg>
