<?xml version="1.0" encoding="UTF-8" standalone="no"?>
<svg
   xmlns:dc="http://purl.org/dc/elements/1.1/"
   xmlns:cc="http://creativecommons.org/ns#"
   xmlns:rdf="http://www.w3.org/1999/02/22-rdf-syntax-ns#"
   xmlns:svg="http://www.w3.org/2000/svg"
   xmlns="http://www.w3.org/2000/svg"
   id="svg6"
   version="1.1"
   viewBox="0 0 16 16">
  <metadata
     id="metadata12">
    <rdf:RDF>
      <cc:Work
         rdf:about="">
        <dc:format>image/svg+xml</dc:format>
        <dc:type
           rdf:resource="http://purl.org/dc/dcmitype/StillImage" />
        <dc:title />
      </cc:Work>
    </rdf:RDF>
  </metadata>
  <defs
     id="defs10" />
  <path
     id="rect828"
     d="M 2.5 1 C 1.6776486 1 1 1.6776486 1 2.5 L 1 3.5 C 1 4.3223514 1.6776486 5 2.5 5 L 13.5 5 C 14.322351 5 15 4.3223514 15 3.5 L 15 2.5 C 15 1.6776486 14.322351 1 13.5 1 L 2.5 1 z M 2.5 2 L 13.5 2 C 13.785649 2 14 2.2143514 14 2.5 L 14 3.5 C 14 3.7856486 13.785649 4 13.5 4 L 2.5 4 C 2.2143514 4 2 3.7856486 2 3.5 L 2 2.5 C 2 2.2143514 2.2143514 2 2.5 2 z M 4.5 6 C 3.6776486 6 3 6.6776486 3 7.5 L 3 8.5 C 3 9.3223514 3.6776486 10 4.5 10 L 13.5 10 C 14.322351 10 15 9.3223514 15 8.5 L 15 7.5 C 15 6.6776486 14.322351 6 13.5 6 L 4.5 6 z M 4.5 7 L 13.5 7 C 13.785649 7 14 7.2143514 14 7.5 L 14 8.5 C 14 8.7856486 13.785649 9 13.5 9 L 4.5 9 C 4.2143514 9 4 8.7856486 4 8.5 L 4 7.5 C 4 7.2143514 4.2143514 7 4.5 7 z M 2.5 11 C 1.6776486 11 1 11.677649 1 12.5 L 1 13.5 C 1 14.322351 1.6776486 15 2.5 15 L 13.5 15 C 14.322351 15 15 14.322351 15 13.5 L 15 12.5 C 15 11.677649 14.322351 11 13.5 11 L 2.5 11 z M 2.5 12 L 13.5 12 C 13.785649 12 14 12.214351 14 12.5 L 14 13.5 C 14 13.785649 13.785649 14 13.5 14 L 2.5 14 C 2.2143514 14 2 13.785649 2 13.5 L 2 12.5 C 2 12.214351 2.2143514 12 2.5 12 z "
     style="color:#000000;font-style:normal;font-variant:normal;font-weight:normal;font-stretch:normal;font-size:medium;line-height:normal;font-family:sans-serif;font-variant-ligatures:normal;font-variant-position:normal;font-variant-caps:normal;font-variant-numeric:normal;font-variant-alternates:normal;font-feature-settings:normal;text-indent:0;text-align:start;text-decoration:none;text-decoration-line:none;text-decoration-style:solid;text-decoration-color:#000000;letter-spacing:normal;word-spacing:normal;text-transform:none;writing-mode:lr-tb;direction:ltr;text-orientation:mixed;dominant-baseline:auto;baseline-shift:baseline;text-anchor:start;white-space:normal;shape-padding:0;clip-rule:nonzero;display:inline;overflow:visible;visibility:visible;opacity:1;isolation:auto;mix-blend-mode:normal;color-interpolation:sRGB;color-interpolation-filters:linearRGB;solid-color:#000000;solid-opacity:1;vector-effect:none;fill:#000000;fill-opacity:1;fill-rule:nonzero;stroke:none;stroke-width:1;stroke-linecap:round;stroke-linejoin:round;stroke-miterlimit:4;stroke-dasharray:none;stroke-dashoffset:0;stroke-opacity:1;color-rendering:auto;image-rendering:auto;shape-rendering:auto;text-rendering:auto;enable-background:accumulate" />
  <path
     id="rect834"
     d="M 2,2 V 4 H 14 V 2 Z M 4,7 V 9 H 14 V 7 Z m -2,5 v 2 h 12 v -2 z"
     style="opacity:0.2;fill:#000000;fill-opacity:1;stroke:none;stroke-linecap:round;stroke-linejoin:round;stroke-opacity:1" />
</svg>
