<?xml version="1.0" encoding="UTF-8" standalone="no"?>
<svg
   xmlns:dc="http://purl.org/dc/elements/1.1/"
   xmlns:cc="http://creativecommons.org/ns#"
   xmlns:rdf="http://www.w3.org/1999/02/22-rdf-syntax-ns#"
   xmlns:svg="http://www.w3.org/2000/svg"
   xmlns="http://www.w3.org/2000/svg"
   id="svg6"
   version="1.1"
   viewBox="0 0 16 16">
  <metadata
     id="metadata12">
    <rdf:RDF>
      <cc:Work
         rdf:about="">
        <dc:format>image/svg+xml</dc:format>
        <dc:type
           rdf:resource="http://purl.org/dc/dcmitype/StillImage" />
        <dc:title />
      </cc:Work>
    </rdf:RDF>
  </metadata>
  <defs
     id="defs10" />
  <path
     id="rect828"
     d="M 13.5,1 C 14.322351,1 15,1.6776486 15,2.5 v 1 C 15,4.3223514 14.322351,5 13.5,5 H 2.5 C 1.677649,5 1,4.3223514 1,3.5 v -1 C 1,1.6776486 1.677649,1 2.5,1 Z m 0,1 H 2.5 C 2.214351,2 2,2.2143514 2,2.5 v 1 C 2,3.7856486 2.214351,4 2.5,4 h 11 C 13.785649,4 14,3.7856486 14,3.5 v -1 C 14,2.2143514 13.785649,2 13.5,2 Z m -2,4 C 12.322351,6 13,6.6776486 13,7.5 v 1 C 13,9.3223514 12.322351,10 11.5,10 h -9 C 1.677649,10 1,9.3223514 1,8.5 v -1 C 1,6.6776486 1.677649,6 2.5,6 Z m 0,1 h -9 C 2.214351,7 2,7.2143514 2,7.5 v 1 C 2,8.7856486 2.214351,9 2.5,9 h 9 C 11.785649,9 12,8.7856486 12,8.5 v -1 C 12,7.2143514 11.785649,7 11.5,7 Z m 2,4 c 0.822351,0 1.5,0.677649 1.5,1.5 v 1 C 15,14.322351 14.322351,15 13.5,15 H 2.5 C 1.677649,15 1,14.322351 1,13.5 v -1 C 1,11.677649 1.677649,11 2.5,11 Z m 0,1 H 2.5 C 2.214351,12 2,12.214351 2,12.5 v 1 C 2,13.785649 2.214351,14 2.5,14 h 11 c 0.285649,0 0.5,-0.214351 0.5,-0.5 v -1 C 14,12.214351 13.785649,12 13.5,12 Z"
     style="color:#000000;font-style:normal;font-variant:normal;font-weight:normal;font-stretch:normal;font-size:medium;line-height:normal;font-family:sans-serif;font-variant-ligatures:normal;font-variant-position:normal;font-variant-caps:normal;font-variant-numeric:normal;font-variant-alternates:normal;font-feature-settings:normal;text-indent:0;text-align:start;text-decoration:none;text-decoration-line:none;text-decoration-style:solid;text-decoration-color:#000000;letter-spacing:normal;word-spacing:normal;text-transform:none;writing-mode:lr-tb;direction:ltr;text-orientation:mixed;dominant-baseline:auto;baseline-shift:baseline;text-anchor:start;white-space:normal;shape-padding:0;clip-rule:nonzero;display:inline;overflow:visible;visibility:visible;opacity:1;isolation:auto;mix-blend-mode:normal;color-interpolation:sRGB;color-interpolation-filters:linearRGB;solid-color:#000000;solid-opacity:1;vector-effect:none;fill:#000000;fill-opacity:1;fill-rule:nonzero;stroke:none;stroke-width:1;stroke-linecap:round;stroke-linejoin:round;stroke-miterlimit:4;stroke-dasharray:none;stroke-dashoffset:0;stroke-opacity:1;color-rendering:auto;image-rendering:auto;shape-rendering:auto;text-rendering:auto;enable-background:accumulate" />
  <path
     id="rect834"
     d="M 14,2 V 4 H 2 V 2 Z M 12,7 V 9 H 2 V 7 Z m 2,5 v 2 H 2 v -2 z"
     style="opacity:0.2;fill:#000000;fill-opacity:1;stroke:none;stroke-linecap:round;stroke-linejoin:round;stroke-opacity:1" />
</svg>
