<?xml version="1.0" encoding="UTF-8" standalone="no"?>
<svg
   xmlns:dc="http://purl.org/dc/elements/1.1/"
   xmlns:cc="http://creativecommons.org/ns#"
   xmlns:rdf="http://www.w3.org/1999/02/22-rdf-syntax-ns#"
   xmlns:svg="http://www.w3.org/2000/svg"
   xmlns="http://www.w3.org/2000/svg"
   id="svg6"
   version="1.1"
   viewBox="0 0 16 16">
  <metadata
     id="metadata12">
    <rdf:RDF>
      <cc:Work
         rdf:about="">
        <dc:format>image/svg+xml</dc:format>
        <dc:type
           rdf:resource="http://purl.org/dc/dcmitype/StillImage" />
        <dc:title />
      </cc:Work>
    </rdf:RDF>
  </metadata>
  <defs
     id="defs10" />
  <path
     id="path830"
     d="M 4 2 C 1.75 2 0.0326385 3.7507585 0 5.9921875 L 0 5.9960938 L 0 6 C 0 8.0625 0.42973845 9.4987573 1.6210938 10.888672 C 2.8124489 12.278586 4.7009964 13.651724 7.6992188 15.900391 L 7.8320312 16 L 8.1679688 16 L 8.3007812 15.900391 C 11.299003 13.651724 13.187551 12.278586 14.378906 10.888672 C 15.570261 9.4987573 16 8.0625 16 6 C 16 3.75 14.249914 2.0227267 12.005859 2 L 12.001953 2 L 12 2 C 10.921875 2 10.050731 2.2645608 9.3417969 2.7519531 C 8.8019722 3.1230826 8.4054399 3.6912185 7.9980469 4.2578125 C 7.5906001 3.6941644 7.194509 3.1285801 6.65625 2.7617188 C 5.9479551 2.2789656 5.0822071 2.0159264 4.0078125 2 L 4.0039062 2 L 4 2 z M 11.996094 3 C 13.750955 3.0187262 15 4.2506847 15 6 C 15 7.9375 14.679739 9.0012427 13.621094 10.236328 C 12.616139 11.408776 10.74043 12.798806 8 14.853516 C 5.2595699 12.798806 3.3838616 11.408776 2.3789062 10.236328 C 1.3219713 9.0032373 1.0010361 7.9393712 1 6.0078125 L 1 6.0058594 C 1.0265082 4.2500282 2.2494178 3.0043045 3.9960938 3.0019531 C 4.9187354 3.0163989 5.5531093 3.2194058 6.09375 3.5878906 C 6.568412 3.9114063 6.9808578 4.4067765 7.4003906 5.0253906 L 6.0703125 7.2421875 A 0.50005 0.50005 0 0 0 6.2226562 7.9160156 L 8.7148438 9.578125 L 7.1464844 11.146484 A 0.50005 0.50005 0 1 0 7.8535156 11.853516 L 9.8535156 9.8535156 A 0.50005 0.50005 0 0 0 9.7773438 9.0839844 L 7.1738281 7.3476562 L 8.421875 5.2695312 C 8.4232644 5.2673603 8.4243922 5.2658397 8.4257812 5.2636719 L 8.4296875 5.2578125 C 8.9103431 4.508571 9.3702459 3.9460175 9.9082031 3.5761719 C 10.44833 3.2048348 11.076834 3.0007072 11.996094 3 z "
     style="color:#000000;font-style:normal;font-variant:normal;font-weight:normal;font-stretch:normal;font-size:medium;line-height:normal;font-family:sans-serif;font-variant-ligatures:normal;font-variant-position:normal;font-variant-caps:normal;font-variant-numeric:normal;font-variant-alternates:normal;font-feature-settings:normal;text-indent:0;text-align:start;text-decoration:none;text-decoration-line:none;text-decoration-style:solid;text-decoration-color:#000000;letter-spacing:normal;word-spacing:normal;text-transform:none;writing-mode:lr-tb;direction:ltr;text-orientation:mixed;dominant-baseline:auto;baseline-shift:baseline;text-anchor:start;white-space:normal;shape-padding:0;clip-rule:nonzero;display:inline;overflow:visible;visibility:visible;opacity:1;isolation:auto;mix-blend-mode:normal;color-interpolation:sRGB;color-interpolation-filters:linearRGB;solid-color:#000000;solid-opacity:1;vector-effect:none;fill:#000000;fill-opacity:1;fill-rule:nonzero;stroke:none;stroke-width:1;stroke-linecap:round;stroke-linejoin:miter;stroke-miterlimit:4;stroke-dasharray:none;stroke-dashoffset:0.5;stroke-opacity:1;marker:none;color-rendering:auto;image-rendering:auto;shape-rendering:auto;text-rendering:auto;enable-background:accumulate" />
  <g
     style="stroke-width:0.99930221"
     transform="matrix(0.70760054,0.70760054,-0.70760054,0.70760054,11,-1.0760054)"
     id="g842" />
  <path
     style="opacity:0.2;vector-effect:none;fill:#000000;fill-opacity:1;stroke:none;stroke-width:1;stroke-linecap:round;stroke-linejoin:miter;stroke-miterlimit:4;stroke-dasharray:none;stroke-dashoffset:0.5;stroke-opacity:1;marker:none"
     d="M 4,2.5 C 2,2.5 0.52912294,4 0.5,6 0.5,10 2,11 8,15.5 14,11 15.5,10 15.5,6 15.5,4 14,2.520255 12,2.5 10,2.5 9,3.4375 8,5 7,3.4375 6,2.5296472 4,2.5 Z"
     id="path868" />
</svg>
