<?xml version="1.0" encoding="UTF-8" standalone="no"?>
<svg
   xmlns:dc="http://purl.org/dc/elements/1.1/"
   xmlns:cc="http://creativecommons.org/ns#"
   xmlns:rdf="http://www.w3.org/1999/02/22-rdf-syntax-ns#"
   xmlns:svg="http://www.w3.org/2000/svg"
   xmlns="http://www.w3.org/2000/svg"
   id="svg6"
   version="1.1"
   viewBox="0 0 16 16">
  <metadata
     id="metadata12">
    <rdf:RDF>
      <cc:Work
         rdf:about="">
        <dc:format>image/svg+xml</dc:format>
        <dc:type
           rdf:resource="http://purl.org/dc/dcmitype/StillImage" />
      </cc:Work>
    </rdf:RDF>
  </metadata>
  <defs
     id="defs10" />
  <path
     id="path2"
     d="M 10 4 C 9.442 4 9 4.442 9 5 C 9 5.558 9.442 6 10 6 C 10.558 6 11 5.558 11 5 C 11 4.442 10.558 4 10 4 z M 5.5644531 7.1425781 L 2 10.707031 L 2 13.982422 L 13.982422 13.982422 L 13.982422 12.755859 L 5.5644531 7.1425781 z M 13.982422 7.3945312 L 10.697266 9.3652344 L 13.982422 11.554688 L 13.982422 7.3945312 z "
     style="opacity:0.2" />
  <path
     id="path4"
     d="M1 1v14h14V1H1zm1 1h12v4.215L9.775 8.75l-4.34-2.893L2 9.293V2zm8 1c-1.099 0-2 .901-2 2s.901 2 2 2 2-.901 2-2-.901-2-2-2zm0 1c.558 0 1 .442 1 1s-.442 1-1 1-1-.442-1-1 .442-1 1-1zM5.564 7.143L14 12.768V14H2v-3.293l3.564-3.564zM14 7.385v4.181l-3.303-2.2L14 7.384z" />
</svg>
