<svg xmlns="http://www.w3.org/2000/svg" viewBox="0 0 16 16" fill="currentColor" height="16px" width="16px">
    <path d="M3 1c-1.108 0-2 .892-2 2v10c0 1.108.892 2 2 2h10c1.108 0 2-.892 2-2V3c0-1.108-.892-2-2-2H3zm0 1h10c.554 0 1 .446 1 1v5h-1V3.5a.5.5 0 0 0-.5-.5h-9a.5.5 0 0 0-.5.5V8H2V3c0-.554.446-1 1-1zm1 2h8v1.176L8 6.953 4 5.176V4zm0 2.27 4 1.777 4-1.777V8h-.5c-.417 0-.775.193-1.041.459-.266.266-.459.624-.459 1.041v1a.544.544 0 0 1-.166.334A.544.544 0 0 1 9.5 11h-3a.544.544 0 0 1-.334-.166A.544.544 0 0 1 6 10.5v-1c0-.417-.193-.775-.459-1.041C5.275 8.193 4.917 8 4.5 8H4V6.27zM2 9h2.5c.083 0 .225.057.334.166.109.109.166.25.166.334v1c0 .417.193.775.459 1.041.266.266.624.459 1.041.459h3c.417 0 .775-.193 1.041-.459.266-.266.459-.624.459-1.041v-1c0-.083.057-.225.166-.334A.544.544 0 0 1 11.5 9H14v4c0 .554-.446 1-1 1H3c-.554 0-1-.446-1-1V9z"/>
    <path d="M3 2c-.554 0-1 .446-1 1v10c0 .554.446 1 1 1h10c.554 0 1-.446 1-1V3c0-.554-.446-1-1-1H3zm1 2h8v4.5h-1.5V11h-5V8.5H4V4z" opacity="0.2"/>
    <path d="M6 10h4v1H6Z" opacity="0.4"/>
</svg>
