<svg xmlns="http://www.w3.org/2000/svg" viewBox="0 0 16 16" fill="currentColor" height="16px" width="16px">
  <path d="M 8,4.5 A -3.5,3.5 0 0 1 11.5,8 -3.5,3.5 0 0 1 11.445,8.617 L 7.387,4.56 A -3.5,3.5 0 0 1 8,4.5 Z M 4.555,7.383 8.613,11.44 A -3.5,3.5 0 0 1 8,11.5 -3.5,3.5 0 0 1 4.5,8 -3.5,3.5 0 0 1 4.555,7.383 Z" opacity="0.2" id="path2" />
  <path d="m 3.02,1.99 a -1,1 0 0 1 0.687,0.303 l 11,11 a -1,1 0 1 1 -1.414,1.414 l -11,-11 A -1,1 0 0 1 3.02,1.99 Z M 7.998,3 c 2.633,-0.01 4.543,1.2 5.809,2.521 1.265,1.322 1.923,2.765 2.15,3.279 L 16,8.895 v 0.21 l -0.043,0.096 c -0.18,0.41 -0.652,1.405 -1.469,2.46 L 13.783,10.955 C 14.385,10.15 14.723,9.415 14.91,9 14.66,8.445 14.141,7.317 13.084,6.213 11.95,5.029 10.33,3.99 8.002,4 A -4.008,4.008 0 0 1 12,8 c 0,0.355 -0.063,0.693 -0.15,1.021 L 10.984,8.156 C 10.987,8.103 11,8.054 11,8 11,6.337 9.663,5 8,5 7.946,5 7.897,5.013 7.844,5.016 L 6.979,4.15 A -4.91,4.91 0 0 1 7.469,4.045 C 7.286,4.061 7.095,4.065 6.919,4.092 L 6.07,3.242 A -7.992,7.992 0 0 1 7.998,3 Z M 2.455,5.283 3.162,5.99 C 3.08,6.07 2.994,6.148 2.916,6.229 1.858,7.328 1.339,8.449 1.09,9 1.34,9.552 1.858,10.678 2.916,11.78 4.05,12.96 5.671,14 8,14 a -6.768,6.768 0 0 0 2.648,-0.523 l 0.758,0.757 A -7.743,7.743 0 0 1 8,15 C 5.368,15 3.461,13.79 2.195,12.47 0.929,11.152 0.27,9.716 0.043,9.201 L 0,9.105 V 8.895 L 0.043,8.799 C 0.27,8.282 0.929,6.851 2.195,5.535 2.277,5.45 2.368,5.367 2.455,5.283 Z M 4.15,6.98 5.016,7.845 C 5.013,7.898 5,7.947 5,8.001 c 0,1.663 1.337,3 3,3 0.054,0 0.103,-0.013 0.156,-0.016 l 0.865,0.866 c -0.328,0.087 -0.666,0.15 -1.021,0.15 -2.203,0 -4,-1.797 -4,-4 C 4,7.646 4.063,7.308 4.15,6.98 Z" id="path4" />
</svg>
