<?xml version="1.0" encoding="UTF-8" standalone="no"?>
<svg
   xmlns:dc="http://purl.org/dc/elements/1.1/"
   xmlns:cc="http://creativecommons.org/ns#"
   xmlns:rdf="http://www.w3.org/1999/02/22-rdf-syntax-ns#"
   xmlns:svg="http://www.w3.org/2000/svg"
   xmlns="http://www.w3.org/2000/svg"
   id="svg6"
   version="1.1"
   viewBox="0 0 16 16">
  <metadata
     id="metadata12">
    <rdf:RDF>
      <cc:Work
         rdf:about="">
        <dc:format>image/svg+xml</dc:format>
        <dc:type
           rdf:resource="http://purl.org/dc/dcmitype/StillImage" />
        <dc:title />
      </cc:Work>
    </rdf:RDF>
  </metadata>
  <defs
     id="defs10" />
  <path
     id="circle835"
     d="M 8 4.5 A 3.5 3.5 0 0 0 4.5 8 A 3.5 3.5 0 0 0 4.5546875 8.6171875 L 8.6132812 4.5585938 A 3.5 3.5 0 0 0 8 4.5 z M 11.445312 7.3828125 L 7.3867188 11.441406 A 3.5 3.5 0 0 0 8 11.5 A 3.5 3.5 0 0 0 11.5 8 A 3.5 3.5 0 0 0 11.445312 7.3828125 z "
     style="opacity:0.2;vector-effect:none;fill:#000000;fill-opacity:1;stroke:none;stroke-width:1;stroke-linecap:round;stroke-linejoin:miter;stroke-miterlimit:4;stroke-dasharray:none;stroke-dashoffset:0.5;stroke-opacity:1;marker:none" />
  <path
     id="rect822"
     d="M 12.980469 1.9902344 A 1.0001 1.0001 0 0 0 12.292969 2.2929688 L 1.2929688 13.292969 A 1.0001 1.0001 0 1 0 2.7070312 14.707031 L 13.707031 3.7070312 A 1.0001 1.0001 0 0 0 12.980469 1.9902344 z M 8.0019531 3 C 5.3694856 2.9894147 3.4587832 4.2001175 2.1933594 5.5214844 C 0.92793547 6.8428512 0.26950198 8.2861472 0.04296875 8.7988281 L 0 8.8945312 L 0 9.1054688 L 0.04296875 9.2011719 C 0.22376548 9.6103439 0.69522737 10.606045 1.5117188 11.660156 L 2.2167969 10.955078 C 1.6154818 10.150056 1.2774749 9.4143189 1.0898438 9 C 1.3408442 8.4451572 1.8589774 7.3166594 2.9160156 6.2128906 C 4.0495243 5.0292707 5.6698582 3.9906383 7.9980469 4 C 5.7957397 4.0010786 4 5.7974449 4 8 C 4 8.3551325 4.0628466 8.6932942 4.1503906 9.0214844 L 5.015625 8.15625 C 5.012876 8.1033235 5 8.053638 5 8 C 5 6.3372234 6.3372234 5 8 5 C 8.053638 5 8.1033235 5.012876 8.15625 5.015625 L 9.0214844 4.1503906 C 8.8609474 4.1075874 8.6974857 4.0714795 8.53125 4.0449219 C 8.7137635 4.0611225 8.905284 4.0649598 9.0800781 4.0917969 L 9.9296875 3.2421875 C 9.3351647 3.0927509 8.695673 3.0027895 8.0019531 3 z M 13.544922 5.2832031 L 12.837891 5.9902344 C 12.920295 6.0694649 13.006228 6.1476896 13.083984 6.2285156 C 14.141593 7.3278799 14.66097 8.4489705 14.910156 9 C 14.660633 9.5523746 14.141608 10.677719 13.083984 11.779297 C 11.949697 12.960724 10.329138 14 8 14 C 6.9870804 14 6.1148254 13.795893 5.3515625 13.476562 L 4.59375 14.234375 C 5.5563066 14.699319 6.6884628 15 8 15 C 10.631518 15 12.538727 13.789276 13.804688 12.470703 C 15.070645 11.15213 15.730249 9.7164609 15.957031 9.2011719 L 16 9.1054688 L 16 8.8945312 L 15.957031 8.7988281 C 15.729757 8.2824172 15.07051 6.8509595 13.804688 5.5351562 C 13.722924 5.4501648 13.632053 5.3670074 13.544922 5.2832031 z M 11.849609 6.9785156 L 10.984375 7.84375 C 10.987124 7.8966765 11 7.946362 11 8 C 11 9.6627766 9.6627766 11 8 11 C 7.946362 11 7.8966765 10.987124 7.84375 10.984375 L 6.9785156 11.849609 C 7.3067058 11.937153 7.6448675 12 8 12 C 10.203217 12 12 10.203217 12 8 C 12 7.6449742 11.937104 7.3066171 11.849609 6.9785156 z "
     style="color:#000000;font-style:normal;font-variant:normal;font-weight:normal;font-stretch:normal;font-size:medium;line-height:normal;font-family:sans-serif;font-variant-ligatures:normal;font-variant-position:normal;font-variant-caps:normal;font-variant-numeric:normal;font-variant-alternates:normal;font-feature-settings:normal;text-indent:0;text-align:start;text-decoration:none;text-decoration-line:none;text-decoration-style:solid;text-decoration-color:#000000;letter-spacing:normal;word-spacing:normal;text-transform:none;writing-mode:lr-tb;direction:ltr;text-orientation:mixed;dominant-baseline:auto;baseline-shift:baseline;text-anchor:start;white-space:normal;shape-padding:0;clip-rule:nonzero;display:inline;overflow:visible;visibility:visible;opacity:1;isolation:auto;mix-blend-mode:normal;color-interpolation:sRGB;color-interpolation-filters:linearRGB;solid-color:#000000;solid-opacity:1;vector-effect:none;fill:#000000;fill-opacity:1;fill-rule:nonzero;stroke:none;stroke-width:0.99999994;stroke-linecap:round;stroke-linejoin:miter;stroke-miterlimit:4;stroke-dasharray:none;stroke-dashoffset:0.5;stroke-opacity:1;marker:none;color-rendering:auto;image-rendering:auto;shape-rendering:auto;text-rendering:auto;enable-background:accumulate" />
</svg>
