<svg xmlns="http://www.w3.org/2000/svg" viewBox="0 0 16 16" fill="currentColor" height="16px" width="16px">
    <path d="M15 5v7c0 .554-.446 1-1 1H2c-.554 0-1-.446-1-1V5c0-.554.446-1 1-1h12c.554 0 1 .446 1 1z" opacity=".2"/>
    <path d="M2 3C.892 3 0 3.892 0 5v7c0 1.108.892 2 2 2h12c1.108 0 2-.892 2-2V5c0-1.108-.892-2-2-2H2zm0 1h12c.554 0 1 .446 1 1v7c0 .554-.446 1-1 1H2c-.554 0-1-.446-1-1V5c0-.554.446-1 1-1zm.168 1A.167.167 0 002 5.168v.664c0 .093.075.168.168.168h.664A.167.167 0 003 5.832v-.664A.167.167 0 002.832 5h-.664zm2 0A.167.167 0 004 5.168v.664c0 .093.075.168.168.168h.664A.167.167 0 005 5.832v-.664A.167.167 0 004.832 5h-.664zm2 0A.167.167 0 006 5.168v.664c0 .093.075.168.168.168h.664A.167.167 0 007 5.832v-.664A.167.167 0 006.832 5h-.664zm2 0A.167.167 0 008 5.168v.664c0 .093.075.168.168.168h.664A.167.167 0 009 5.832v-.664A.167.167 0 008.832 5h-.664zm2 0a.167.167 0 00-.168.168v.664c0 .093.075.168.168.168h.664A.167.167 0 0011 5.832v-.664A.167.167 0 0010.832 5h-.664zm2 0a.167.167 0 00-.168.168v.664c0 .093.075.168.168.168h.664A.167.167 0 0013 5.832v-.664A.167.167 0 0012.832 5h-.664zm-9 2A.167.167 0 003 7.168v.664c0 .093.075.168.168.168h.664A.167.167 0 004 7.832v-.664A.167.167 0 003.832 7h-.664zm2 0A.167.167 0 005 7.168v.664c0 .093.075.168.168.168h.664A.167.167 0 006 7.832v-.664A.167.167 0 005.832 7h-.664zm2 0A.167.167 0 007 7.168v.664c0 .093.075.168.168.168h.664A.167.167 0 008 7.832v-.664A.167.167 0 007.832 7h-.664zm2 0A.167.167 0 009 7.168v.664c0 .093.075.168.168.168h.664A.167.167 0 0010 7.832v-.664A.167.167 0 009.832 7h-.664zm2 0a.167.167 0 00-.168.168v.664c0 .093.075.168.168.168h.664A.167.167 0 0012 7.832v-.664A.167.167 0 0011.832 7h-.664zm2 0a.167.167 0 00-.168.168v.664c0 .093.075.168.168.168h.664A.167.167 0 0014 7.832v-.664A.167.167 0 0013.832 7h-.664zm-11 2A.167.167 0 002 9.168v.664c0 .093.075.168.168.168h.664A.167.167 0 003 9.832v-.664A.167.167 0 002.832 9h-.664zm2 0A.167.167 0 004 9.168v.664c0 .093.075.168.168.168h.664A.167.167 0 005 9.832v-.664A.167.167 0 004.832 9h-.664zm2 0A.167.167 0 006 9.168v.664c0 .093.075.168.168.168h.664A.167.167 0 007 9.832v-.664A.167.167 0 006.832 9h-.664zm2 0A.167.167 0 008 9.168v.664c0 .093.075.168.168.168h.664A.167.167 0 009 9.832v-.664A.167.167 0 008.832 9h-.664zm2 0a.167.167 0 00-.168.168v.664c0 .093.075.168.168.168h.664A.167.167 0 0011 9.832v-.664A.167.167 0 0010.832 9h-.664zm2 0a.167.167 0 00-.168.168v.664c0 .093.075.168.168.168h.664A.167.167 0 0013 9.832v-.664A.167.167 0 0012.832 9h-.664zm-10 2a.167.167 0 00-.168.168v.664c0 .093.075.168.168.168h.664A.167.167 0 003 11.832v-.664A.167.167 0 002.832 11h-.664zm2 0a.168.168 0 00-.168.168v.664c0 .093.075.168.168.168h7.664a.167.167 0 00.168-.168v-.664a.167.167 0 00-.168-.168H4.168zm9 0a.167.167 0 00-.168.168v.664c0 .093.075.168.168.168h.664a.167.167 0 00.168-.168v-.664a.167.167 0 00-.168-.168h-.664z"/>
</svg>
