<?xml version="1.0" encoding="UTF-8" standalone="no"?>
<svg
   xmlns:dc="http://purl.org/dc/elements/1.1/"
   xmlns:cc="http://creativecommons.org/ns#"
   xmlns:rdf="http://www.w3.org/1999/02/22-rdf-syntax-ns#"
   xmlns:svg="http://www.w3.org/2000/svg"
   xmlns="http://www.w3.org/2000/svg"
   id="svg6"
   version="1.1"
   viewBox="0 0 16 16">
  <metadata
     id="metadata12">
    <rdf:RDF>
      <cc:Work
         rdf:about="">
        <dc:format>image/svg+xml</dc:format>
        <dc:type
           rdf:resource="http://purl.org/dc/dcmitype/StillImage" />
      </cc:Work>
    </rdf:RDF>
  </metadata>
  <defs
     id="defs10" />
  <path
     id="path2"
     opacity=".2"
     d="M15 5v7c0 .554-.446 1-1 1H2c-.554 0-1-.446-1-1V5c0-.554.446-1 1-1h12c.554 0 1 .446 1 1z" />
  <path
     id="path4"
     d="M2 3C.892 3 0 3.892 0 5v7c0 1.108.892 2 2 2h12c1.108 0 2-.892 2-2V5c0-1.108-.892-2-2-2H2zm0 1h12c.554 0 1 .446 1 1v7c0 .554-.446 1-1 1H2c-.554 0-1-.446-1-1V5c0-.554.446-1 1-1zm.168 1A.167.167 0 0 0 2 5.168v.664c0 .093.075.168.168.168h.664A.167.167 0 0 0 3 5.832v-.664A.167.167 0 0 0 2.832 5h-.664zm2 0A.167.167 0 0 0 4 5.168v.664c0 .093.075.168.168.168h.664A.167.167 0 0 0 5 5.832v-.664A.167.167 0 0 0 4.832 5h-.664zm2 0A.167.167 0 0 0 6 5.168v.664c0 .093.075.168.168.168h.664A.167.167 0 0 0 7 5.832v-.664A.167.167 0 0 0 6.832 5h-.664zm2 0A.167.167 0 0 0 8 5.168v.664c0 .093.075.168.168.168h.664A.167.167 0 0 0 9 5.832v-.664A.167.167 0 0 0 8.832 5h-.664zm2 0a.167.167 0 0 0-.168.168v.664c0 .093.075.168.168.168h.664A.167.167 0 0 0 11 5.832v-.664A.167.167 0 0 0 10.832 5h-.664zm2 0a.167.167 0 0 0-.168.168v.664c0 .093.075.168.168.168h.664A.167.167 0 0 0 13 5.832v-.664A.167.167 0 0 0 12.832 5h-.664zm-9 2A.167.167 0 0 0 3 7.168v.664c0 .093.075.168.168.168h.664A.167.167 0 0 0 4 7.832v-.664A.167.167 0 0 0 3.832 7h-.664zm2 0A.167.167 0 0 0 5 7.168v.664c0 .093.075.168.168.168h.664A.167.167 0 0 0 6 7.832v-.664A.167.167 0 0 0 5.832 7h-.664zm2 0A.167.167 0 0 0 7 7.168v.664c0 .093.075.168.168.168h.664A.167.167 0 0 0 8 7.832v-.664A.167.167 0 0 0 7.832 7h-.664zm2 0A.167.167 0 0 0 9 7.168v.664c0 .093.075.168.168.168h.664A.167.167 0 0 0 10 7.832v-.664A.167.167 0 0 0 9.832 7h-.664zm2 0a.167.167 0 0 0-.168.168v.664c0 .093.075.168.168.168h.664A.167.167 0 0 0 12 7.832v-.664A.167.167 0 0 0 11.832 7h-.664zm2 0a.167.167 0 0 0-.168.168v.664c0 .093.075.168.168.168h.664A.167.167 0 0 0 14 7.832v-.664A.167.167 0 0 0 13.832 7h-.664zm-11 2A.167.167 0 0 0 2 9.168v.664c0 .093.075.168.168.168h.664A.167.167 0 0 0 3 9.832v-.664A.167.167 0 0 0 2.832 9h-.664zm2 0A.167.167 0 0 0 4 9.168v.664c0 .093.075.168.168.168h.664A.167.167 0 0 0 5 9.832v-.664A.167.167 0 0 0 4.832 9h-.664zm2 0A.167.167 0 0 0 6 9.168v.664c0 .093.075.168.168.168h.664A.167.167 0 0 0 7 9.832v-.664A.167.167 0 0 0 6.832 9h-.664zm2 0A.167.167 0 0 0 8 9.168v.664c0 .093.075.168.168.168h.664A.167.167 0 0 0 9 9.832v-.664A.167.167 0 0 0 8.832 9h-.664zm2 0a.167.167 0 0 0-.168.168v.664c0 .093.075.168.168.168h.664A.167.167 0 0 0 11 9.832v-.664A.167.167 0 0 0 10.832 9h-.664zm2 0a.167.167 0 0 0-.168.168v.664c0 .093.075.168.168.168h.664A.167.167 0 0 0 13 9.832v-.664A.167.167 0 0 0 12.832 9h-.664zm-10 2a.167.167 0 0 0-.168.168v.664c0 .093.075.168.168.168h.664A.167.167 0 0 0 3 11.832v-.664A.167.167 0 0 0 2.832 11h-.664zm2 0a.168.168 0 0 0-.168.168v.664c0 .093.075.168.168.168H11.832a.167.167 0 0 0 .168-.168v-.664a.167.167 0 0 0-.168-.168H4.168zm9 0a.167.167 0 0 0-.168.168v.664c0 .093.075.168.168.168h.664a.167.167 0 0 0 .168-.168v-.664a.167.167 0 0 0-.168-.168h-.664z" />
</svg>
