<?xml version="1.0" encoding="UTF-8" standalone="no"?>
<svg
   xmlns:dc="http://purl.org/dc/elements/1.1/"
   xmlns:cc="http://creativecommons.org/ns#"
   xmlns:rdf="http://www.w3.org/1999/02/22-rdf-syntax-ns#"
   xmlns:svg="http://www.w3.org/2000/svg"
   xmlns="http://www.w3.org/2000/svg"
   id="svg4372"
   height="16"
   width="16"
   version="1.1">
  <defs
     id="defs4374" />
  <metadata
     id="metadata4377">
    <rdf:RDF>
      <cc:Work
         rdf:about="">
        <dc:format>image/svg+xml</dc:format>
        <dc:type
           rdf:resource="http://purl.org/dc/dcmitype/StillImage" />
        <dc:title />
      </cc:Work>
    </rdf:RDF>
  </metadata>
  <path
     id="rect5505-21-2-8"
     d="M 2.5 1 C 1.6776486 1 1 1.6776486 1 2.5 L 1 10.398438 C 0.65860403 11.116497 0.41290439 12.026097 0.048828125 12.783203 A 0.50005 0.50005 0 0 0 0 13.001953 L 0.005859375 14.216797 C 0.006531645 14.416196 0.12329249 14.56721 0.20507812 14.636719 C 0.28686382 14.706229 0.35229328 14.73386 0.41210938 14.757812 C 0.53174155 14.805722 0.63970813 14.829522 0.765625 14.851562 C 1.0174587 14.895642 1.3282118 14.923742 1.6796875 14.945312 C 2.3826388 14.988461 3.2349057 15 3.8925781 15 L 12.119141 15 C 12.780533 15 13.631644 14.986819 14.333984 14.943359 C 14.685154 14.921629 14.996684 14.893869 15.248047 14.849609 C 15.373728 14.827479 15.481896 14.806042 15.601562 14.757812 C 15.661392 14.733702 15.726738 14.704952 15.808594 14.634766 C 15.890454 14.564576 16.006537 14.409868 16.005859 14.210938 L 16 12.998047 A 0.50005 0.50005 0 0 0 15.955078 12.794922 C 15.608492 12.023855 15.327841 11.108214 15 10.404297 L 15 2.5 C 15 1.6776486 14.322351 1 13.5 1 L 2.5 1 z M 2.5 2 L 13.5 2 C 13.785649 2 14 2.2143514 14 2.5 L 14 10 L 2 10 L 2 2.5 C 2 2.2143514 2.2143514 2 2.5 2 z M 1.8359375 11 L 3.5 11 L 3 13 L 13 13 L 12.5 11 L 14.162109 11 C 14.404265 11.558627 14.665762 12.326448 15 13.09375 L 15.003906 13.873047 C 14.823235 13.901327 14.576255 13.926582 14.273438 13.945312 C 13.609442 13.986408 12.767401 14 12.119141 14 L 3.8925781 14 C 3.2478045 14 2.4069811 13.988066 1.7421875 13.947266 C 1.4371836 13.928546 1.1853174 13.899514 1.0039062 13.871094 L 1 13.09375 C 1.3594794 12.310575 1.6000425 11.543924 1.8359375 11 z "
     style="color:#000000;font-style:normal;font-variant:normal;font-weight:normal;font-stretch:normal;font-size:medium;line-height:normal;font-family:sans-serif;font-variant-ligatures:normal;font-variant-position:normal;font-variant-caps:normal;font-variant-numeric:normal;font-variant-alternates:normal;font-feature-settings:normal;text-indent:0;text-align:start;text-decoration:none;text-decoration-line:none;text-decoration-style:solid;text-decoration-color:#000000;letter-spacing:normal;word-spacing:normal;text-transform:none;writing-mode:lr-tb;direction:ltr;text-orientation:mixed;dominant-baseline:auto;baseline-shift:baseline;text-anchor:start;white-space:normal;shape-padding:0;clip-rule:nonzero;display:inline;overflow:visible;visibility:visible;opacity:1;isolation:auto;mix-blend-mode:normal;color-interpolation:sRGB;color-interpolation-filters:linearRGB;solid-color:#000000;solid-opacity:1;vector-effect:none;fill:#000000;fill-opacity:1;fill-rule:nonzero;stroke:none;stroke-width:1;stroke-linecap:round;stroke-linejoin:round;stroke-miterlimit:4;stroke-dasharray:none;stroke-dashoffset:0;stroke-opacity:1;marker:none;color-rendering:auto;image-rendering:auto;shape-rendering:auto;text-rendering:auto;enable-background:accumulate" />
  <path
     id="path817"
     d="M 13.5 2 L 1.5 8 L 1.5 10.5 L 14.5 10.5 L 14.5 2.5 C 14.5 2.223 14 2 13.5 2 z M 6.5 13 C 6.223 13 6 13.223 6 13.5 C 6 13.777 6.223 14 6.5 14 L 9.5 14 C 9.777 14 10 13.777 10 13.5 C 10 13.223 9.777 13 9.5 13 L 6.5 13 z "
     style="color:#000000;display:inline;overflow:visible;visibility:visible;opacity:0.2;fill:#000000;stroke:none;stroke-width:1;stroke-linecap:round;stroke-linejoin:round;stroke-miterlimit:4;stroke-dasharray:none;stroke-dashoffset:0;stroke-opacity:1;marker:none;enable-background:accumulate" />
</svg>
