<svg xmlns="http://www.w3.org/2000/svg" viewBox="0 0 16 16" fill="currentColor" height="16px" width="16px">
    <path d="M.736 10.658C-.5 12 .036 13.43 1.268 14.732c1.232 1.303 2.761 1.768 4.074.532L8 12.606a2.49 2.49 0 00.442-2.922l-.766.766c.133.5.01 1.054-.385 1.448l-2.657 2.657c-.445.445-1.681.445-2.658-.531C1 13.047 1 12 1.445 11.366L4.102 8.71a1.494 1.494 0 011.448-.385l.766-.766A2.49 2.49 0 003.394 8zM8 3.394a2.49 2.49 0 00-.442 2.922l.766-.766c-.133-.5-.01-1.054.385-1.448l2.657-2.657c.445-.445 1.681-.492 2.658.531C15 3 15 4.19 14.555 4.634L11.898 7.29a1.494 1.494 0 01-1.448.385l-.766.766A2.49 2.49 0 0012.606 8l2.658-2.658c.842-.842.736-2.807-.532-4.074C13.465 0 11.44 0 10.658.736zm-2.835 6.732a.5.5 0 10.709.709l4.96-4.961a.5.5 0 10-.708-.709z"/>
</svg>
