<?xml version="1.0" encoding="UTF-8" standalone="no"?>
<svg
   xmlns:dc="http://purl.org/dc/elements/1.1/"
   xmlns:cc="http://creativecommons.org/ns#"
   xmlns:rdf="http://www.w3.org/1999/02/22-rdf-syntax-ns#"
   xmlns:svg="http://www.w3.org/2000/svg"
   xmlns="http://www.w3.org/2000/svg"
   id="svg6"
   version="1.1"
   viewBox="0 0 16 16">
  <metadata
     id="metadata12">
    <rdf:RDF>
      <cc:Work
         rdf:about="">
        <dc:format>image/svg+xml</dc:format>
        <dc:type
           rdf:resource="http://purl.org/dc/dcmitype/StillImage" />
        <dc:title />
      </cc:Work>
    </rdf:RDF>
  </metadata>
  <defs
     id="defs10" />
  <path
     id="rect67"
     d="M 0.73613052,10.657514 C -0.5,12 0.03526722,13.429886 1.2676336,14.732367 2.5,16.034847 4.0293712,16.5 5.3424879,15.263869 L 8.0000008,12.606356 C 8.7948543,11.811503 8.9340725,10.628699 8.4415358,9.6844758 L 7.6761162,10.449895 c 0.1330856,0.500386 0.00912,1.053861 -0.3847859,1.447792 L 4.6338174,14.5552 C 4.1890174,15 2.9526066,15 1.9763035,14.023697 1.0000005,13.047394 1,12 1.444801,11.366184 L 4.1023148,8.70867 C 4.4962449,8.3147399 5.049721,8.1907985 5.5501059,8.3238841 L 6.3155245,7.5584655 C 5.3713014,7.0659288 4.188498,7.205146 3.3936444,8.0000006 Z M 8.0000008,3.3936442 C 7.2051472,4.1884978 7.065929,5.3713012 7.5584657,6.3155243 L 8.3238853,5.5501056 C 8.1907997,5.0497197 8.3147652,4.4962447 8.7086712,4.1023135 L 11.366184,1.4448007 C 11.810985,1 13.047396,0.9526066 14.023698,1.9763033 15,3 15,4.1890172 14.555201,4.6338162 l -2.657514,2.6575139 c -0.393931,0.39393 -0.947406,0.5178715 -1.447791,0.3847858 L 9.684477,8.4415346 c 0.944224,0.4925367 2.127027,0.3533195 2.92188,-0.441534 l 2.657512,-2.657514 C 16.106356,4.5 16,2.5352671 14.732366,1.2676331 13.464732,-9e-7 11.439491,0 10.657514,0.73613047 Z M 5.16532,10.126011 c -0.1963021,0.196301 -0.1963021,0.512368 0,0.708669 0.1963011,0.196303 0.5123684,0.196303 0.7086704,0 L 10.834682,5.8739892 c 0.196302,-0.196301 0.196302,-0.5123683 0,-0.7086694 -0.196302,-0.1963021 -0.512368,-0.1963021 -0.70867,0 z"
     style="opacity:1;fill:#000000;fill-opacity:1;stroke-width:1.00221097;stroke-linecap:round;stroke-linejoin:bevel" />
</svg>
