<?xml version="1.0" encoding="UTF-8" standalone="no"?>
<svg
   xmlns:dc="http://purl.org/dc/elements/1.1/"
   xmlns:cc="http://creativecommons.org/ns#"
   xmlns:rdf="http://www.w3.org/1999/02/22-rdf-syntax-ns#"
   xmlns:svg="http://www.w3.org/2000/svg"
   xmlns="http://www.w3.org/2000/svg"
   id="svg6"
   version="1.1"
   viewBox="0 0 16 16">
  <metadata
     id="metadata12">
    <rdf:RDF>
      <cc:Work
         rdf:about="">
        <dc:format>image/svg+xml</dc:format>
        <dc:type
           rdf:resource="http://purl.org/dc/dcmitype/StillImage" />
        <dc:title />
      </cc:Work>
    </rdf:RDF>
  </metadata>
  <defs
     id="defs10" />
  <path
     id="path824"
     d="M 8 0 C 4.6922138 0 2 2.6922138 2 6 C 2 9.3119086 4.6196921 12.324537 7.6210938 15.826172 L 7.7695312 16 L 8.2304688 16 L 8.3789062 15.826172 C 11.380308 12.324537 14 9.3119086 14 6 C 14 2.6922138 11.307786 0 8 0 z M 8 1 C 10.767346 1 13 3.232654 13 6 C 13 8.6260657 10.787363 11.420895 8 14.691406 C 5.2126373 11.420895 3 8.6260657 3 6 C 3 3.232654 5.232654 1 8 1 z M 8 3 A 3 3 0 0 0 5 6 A 3 3 0 0 0 8 9 A 3 3 0 0 0 11 6 A 3 3 0 0 0 8 3 z M 8 4 A 2 2 0 0 1 10 6 A 2 2 0 0 1 8 8 A 2 2 0 0 1 6 6 A 2 2 0 0 1 8 4 z "
     style="color:#000000;font-style:normal;font-variant:normal;font-weight:normal;font-stretch:normal;font-size:medium;line-height:normal;font-family:sans-serif;font-variant-ligatures:normal;font-variant-position:normal;font-variant-caps:normal;font-variant-numeric:normal;font-variant-alternates:normal;font-feature-settings:normal;text-indent:0;text-align:start;text-decoration:none;text-decoration-line:none;text-decoration-style:solid;text-decoration-color:#000000;letter-spacing:normal;word-spacing:normal;text-transform:none;writing-mode:lr-tb;direction:ltr;text-orientation:mixed;dominant-baseline:auto;baseline-shift:baseline;text-anchor:start;white-space:normal;shape-padding:0;clip-rule:nonzero;display:inline;overflow:visible;visibility:visible;opacity:1;isolation:auto;mix-blend-mode:normal;color-interpolation:sRGB;color-interpolation-filters:linearRGB;solid-color:#000000;solid-opacity:1;vector-effect:none;fill:#000000;fill-opacity:1;fill-rule:nonzero;stroke:none;stroke-width:1;stroke-linecap:round;stroke-linejoin:miter;stroke-miterlimit:4;stroke-dasharray:none;stroke-dashoffset:0.5;stroke-opacity:1;marker:none;color-rendering:auto;image-rendering:auto;shape-rendering:auto;text-rendering:auto;enable-background:accumulate" />
  <path
     id="path822"
     d="M 8 0.5 C 4.9624339 0.5 2.5 2.9624339 2.5 6 C 2.5 9.0375661 5 12 8 15.5 C 11 12 13.5 9.0375661 13.5 6 C 13.5 2.9624339 11.037566 0.5 8 0.5 z M 8 3 C 9.6568542 3 11 4.3431458 11 6 C 11 7.6568542 9.6568542 9 8 9 C 6.3431458 9 5 7.6568542 5 6 C 5 4.3431458 6.3431458 3 8 3 z "
     style="opacity:0.2;vector-effect:none;fill:#000000;fill-opacity:1;stroke:none;stroke-width:1;stroke-linecap:round;stroke-linejoin:miter;stroke-miterlimit:4;stroke-dasharray:none;stroke-dashoffset:0.5;stroke-opacity:1;marker:none" />
</svg>
