<svg xmlns="http://www.w3.org/2000/svg" viewBox="0 0 16 16" fill="currentColor" height="16px" width="16px">
    <path d="M8 0C4.692 0 2 2.692 2 6c0 3.312 2.62 6.325 5.621 9.826L7.77 16h.46l.149-.174C11.38 12.325 14 9.312 14 6c0-3.308-2.692-6-6-6zm0 1c2.767 0 5 2.233 5 5 0 2.626-2.213 5.42-5 8.691C5.213 11.421 3 8.626 3 6c0-2.767 2.233-5 5-5zm0 2a3 3 0 00-3 3 3 3 0 003 3 3 3 0 003-3 3 3 0 00-3-3zm0 1a2 2 0 012 2 2 2 0 01-2 2 2 2 0 01-2-2 2 2 0 012-2z"/>
    <path d="M8 .5A5.5 5.5 0 002.5 6c0 3.038 2.5 6 5.5 9.5 3-3.5 5.5-6.462 5.5-9.5A5.5 5.5 0 008 .5zM8 3a3 3 0 110 6 3 3 0 010-6z" opacity=".2"/>
</svg>
