<?xml version="1.0" encoding="UTF-8" standalone="no"?>
<svg
   xmlns:dc="http://purl.org/dc/elements/1.1/"
   xmlns:cc="http://creativecommons.org/ns#"
   xmlns:rdf="http://www.w3.org/1999/02/22-rdf-syntax-ns#"
   xmlns:svg="http://www.w3.org/2000/svg"
   xmlns="http://www.w3.org/2000/svg"
   id="svg6"
   version="1.1"
   viewBox="0 0 16 16">
  <metadata
     id="metadata12">
    <rdf:RDF>
      <cc:Work
         rdf:about="">
        <dc:format>image/svg+xml</dc:format>
        <dc:type
           rdf:resource="http://purl.org/dc/dcmitype/StillImage" />
      </cc:Work>
    </rdf:RDF>
  </metadata>
  <defs
     id="defs10" />
  <path
     style="opacity:0.2"
     id="path2"
     d="M 3.5 4.2070312 L 1 6.7070312 L 1 9 L 5 9 L 5 6 L 5.2929688 6 L 3.5 4.2070312 z M 6 7 L 6 8 L 7 8 L 7 7 L 6 7 z M 8 7 L 8 9 L 8 15 L 13 15 L 13 7 L 9.5 7 L 8 7 z M 9.4726562 9 C 9.5900214 8.9938667 9.7069212 9.0288812 9.8007812 9.0996094 L 11.800781 10.599609 C 12.067448 10.799609 12.067448 11.200391 11.800781 11.400391 L 9.8007812 12.900391 C 9.4711631 13.147605 9 12.912023 9 12.5 L 9 9.5 C 8.999612 9.2340671 9.207111 9.0143601 9.4726562 9 z " />
  <path
     id="path4"
     d="M0 0v10h5v6h11V6h-6V0H0zm1 1h8v5H6.707L3.5 2.793 1 5.293V1zm6 1a1 1 0 0 0-1 1 1 1 0 0 0 1 1 1 1 0 0 0 1-1 1 1 0 0 0-1-1zM3.5 4.207L5.293 6H5v3H1V6.707l2.5-2.5zM6 7h1v1H6V7zm2 0h5v8H8V7zm6 0h1v1h-1V7zM6 9h1v1H6V9zm3.473 0A.5.5 0 0 0 9 9.5v3a.5.5 0 0 0 .8.4l2-1.5a.5.5 0 0 0 0-.8l-2-1.5a.5.5 0 0 0-.327-.1zM14 9h1v1h-1V9zm-8 2h1v1H6v-1zm8 0h1v1h-1v-1zm-8 2h1v1H6v-1zm8 0h1v1h-1v-1z" />
</svg>
