<?xml version="1.0" encoding="UTF-8" standalone="no"?>
<svg
   xmlns:dc="http://purl.org/dc/elements/1.1/"
   xmlns:cc="http://creativecommons.org/ns#"
   xmlns:rdf="http://www.w3.org/1999/02/22-rdf-syntax-ns#"
   xmlns:svg="http://www.w3.org/2000/svg"
   xmlns="http://www.w3.org/2000/svg"
   id="svg6"
   version="1.1"
   viewBox="0 0 16 16">
  <metadata
     id="metadata12">
    <rdf:RDF>
      <cc:Work
         rdf:about="">
        <dc:format>image/svg+xml</dc:format>
        <dc:type
           rdf:resource="http://purl.org/dc/dcmitype/StillImage" />
        <dc:title />
      </cc:Work>
    </rdf:RDF>
  </metadata>
  <defs
     id="defs10" />
  <path
     id="path4"
     d="M 4.9567007,1.0633991 C 1.2322752,3.0291761 0.03197555,7.9948055 1.8058414,11.60595 L 1.7013492,11.424965 c 0.044416,0.09475 0.099415,0.183112 0.1477889,0.275518 0.051725,0.101643 0.1059176,0.20158 0.162445,0.300885 0.057737,0.09861 0.1171935,0.195505 0.1793596,0.29112 0.05583,0.0881 0.1048559,0.179912 0.164711,0.265748 L 2.2511615,12.37725 C 4.4915643,15.71904 9.392075,17.162364 12.956701,14.919806 14.555007,14.025996 15.536251,12.730735 16,11 c 0.223544,-0.387188 -0.203494,-1.1838586 -0.63942,-0.932177 -0.264259,0.15257 -0.14897,0.0858 -0.439778,0.253906 C 12.52934,11.702441 9.471387,10.883066 8.0906755,8.4916023 6.7099636,6.1001392 7.5293399,3.0421869 9.920802,1.6614754 10.211788,1.4936804 10.096321,1.5601394 10.36058,1.4075694 10.796507,1.1558869 10.376363,0.08240147 9.929276,0.0824017 8.1461268,-0.19640676 6.5299164,0.12613057 4.9567007,1.0633991 Z m 0.5,0.8660254 C 6.572863,1.2266764 7.8377135,0.94915375 9.09273,1.0006497 9.199853,0.92874012 9.309267,0.8603048 9.420802,0.79544995 6.551047,2.452304 5.5677958,6.1218465 7.2246501,8.9916023 8.8815046,11.861359 12.551047,12.844609 15.420802,11.187755 15.308869,11.251925 15.194874,11.312421 15.079059,11.369276 14.496146,12.481898 13.62338,13.43853 12.456701,14.05378 9.455514,15.861572 5.266896,14.96036 3.2745787,12.079565 3.1335222,11.891537 3.0054397,11.696031 2.8877573,11.495509 2.7729413,11.293332 2.6676693,11.084656 2.5753599,10.868483 1.0766772,7.7026883 2.390514,3.6246327 5.4567007,1.9294245 Z" />
  <path
     id="path2"
     d="M 5.4567007,1.9294245 C 2.1086526,3.8624212 0.96152666,8.1435538 2.8945231,11.491602 c 1.9329966,3.348048 6.2141295,4.495175 9.5621779,2.562178 1.10141,-0.639452 2.007496,-1.567273 2.620665,-2.683529 C 12.241968,12.770721 8.80634,11.730042 7.2246501,8.9916023 5.6439366,6.2525987 6.4604968,2.7569179 9.091038,1.0016262 7.8177475,0.97451838 6.5611877,1.2953015 5.4567007,1.9294245 Z"
     style="opacity:0.2" />
</svg>
