<svg xmlns="http://www.w3.org/2000/svg" viewBox="0 0 16 16" fill="currentColor" height="16px" width="16px">
    <path d="M6 1c-1.108 0-2 .892-2 2v7.516A2.47 2.47 0 002.5 10 2.508 2.508 0 000 12.5C0 13.875 1.125 15 2.5 15S5 13.875 5 12.5V6h9v4.516A2.47 2.47 0 0012.5 10a2.508 2.508 0 00-2.5 2.5c0 1.375 1.125 2.5 2.5 2.5s2.5-1.125 2.5-2.5V3c0-1.108-.892-2-2-2H6zm0 1h7c.554 0 1 .446 1 1v2H5V3c0-.554.446-1 1-1zm-3.5 9c.834 0 1.5.666 1.5 1.5S3.334 14 2.5 14 1 13.334 1 12.5 1.666 11 2.5 11zm10 0c.834 0 1.5.666 1.5 1.5s-.666 1.5-1.5 1.5-1.5-.666-1.5-1.5.666-1.5 1.5-1.5z"/>
    <path d="M6 2c-.554 0-1 .446-1 1v2h9V3c0-.554-.446-1-1-1H6zm-3.5 9A1.5 1.5 0 001 12.5 1.5 1.5 0 002.5 14 1.5 1.5 0 004 12.5 1.5 1.5 0 002.5 11zm10 0a1.5 1.5 0 00-1.5 1.5 1.5 1.5 0 001.5 1.5 1.5 1.5 0 001.5-1.5 1.5 1.5 0 00-1.5-1.5z" opacity=".2"/>
</svg>
