<svg xmlns="http://www.w3.org/2000/svg" viewBox="0 0 16 16" fill="currentColor" height="16px" width="16px">
    <path d="M9 1c-1.108 0-2 .892-2 2v6.05A3.487 3.487 0 004.508 8a3.508 3.508 0 00-3.5 3.5c0 1.927 1.573 3.5 3.5 3.5s3.5-1.573 3.5-3.5c0-.026-.007-.05-.008-.076V5h7V3c0-1.108-.892-2-2-2H9zm0 1h4c.554 0 1 .446 1 1v1H8V3c0-.554.446-1 1-1zM4.508 9c1.36 0 2.45 1.073 2.492 2.422v.078h.008c0 1.387-1.114 2.5-2.5 2.5a2.492 2.492 0 01-2.5-2.5c0-1.387 1.113-2.5 2.5-2.5z"/>
    <path d="M9 2c-.554 0-1 .446-1 1v1h6V3c0-.554-.446-1-1-1H9zM4.5 9A2.5 2.5 0 002 11.5 2.5 2.5 0 004.5 14 2.5 2.5 0 007 11.5 2.5 2.5 0 004.5 9z" opacity=".2"/>
</svg>
