<?xml version="1.0" encoding="UTF-8" standalone="no"?>
<svg
   xmlns:dc="http://purl.org/dc/elements/1.1/"
   xmlns:cc="http://creativecommons.org/ns#"
   xmlns:rdf="http://www.w3.org/1999/02/22-rdf-syntax-ns#"
   xmlns:svg="http://www.w3.org/2000/svg"
   xmlns="http://www.w3.org/2000/svg"
   id="svg8"
   version="1.1"
   width="16"
   height="16">
  <metadata
     id="metadata14">
    <rdf:RDF>
      <cc:Work
         rdf:about="">
        <dc:format>image/svg+xml</dc:format>
        <dc:type
           rdf:resource="http://purl.org/dc/dcmitype/StillImage" />
        <dc:title />
      </cc:Work>
    </rdf:RDF>
  </metadata>
  <defs
     id="defs12" />
  <path
     id="path834"
     d="M 12.5 5.5 L 12.5 14.5 L 14 14.5 C 14.831 14.5 15.530039 13.830457 15.5 13 L 15.5 11 L 15.5 6 C 15.5 5.723 15.277 5.5 15 5.5 L 12.5 5.5 z M 6.5273438 6.5 L 6.5273438 10.5 L 10.5 10.5 L 10.5 6.5 L 6.5273438 6.5 z "
     style="opacity:0.2;vector-effect:none;fill:#000000;fill-opacity:1;stroke:none;stroke-width:1;stroke-linecap:round;stroke-linejoin:miter;stroke-miterlimit:4;stroke-dasharray:none;stroke-dashoffset:0;stroke-opacity:1" />
  <path
     id="rect825"
     d="M 0.5 1 A 0.50005 0.50005 0 0 0 0 1.5 L 0 11 L 0 12.5 L 0 13 C 0 14.099351 0.90064862 15 2 15 L 12.5 15 L 14 15 C 15.099351 15 16 14.099351 16 13 L 16 11 L 16 6 C 16 5.4546486 15.545351 5 15 5 L 13 5 L 13 1.5 A 0.50005 0.50005 0 0 0 12.5 1 L 0.5 1 z M 1 2 L 12 2 L 12 5 L 12 5.5 L 12 11 L 12 12.5 C 11.9972 12.979258 11.999109 13.481851 12 14 L 2 14 C 1.4373514 14 1 13.562649 1 13 L 1 12.5 L 1 11 L 1 2 z M 2 3 L 2 4 L 4 4 L 4 3 L 2 3 z M 5 3 L 5 4 L 11 4 L 11 3 L 5 3 z M 2 6 L 2 7 L 5 7 L 5 6 L 2 6 z M 6.0273438 6 L 6.0273438 6.5 L 6.0273438 11 L 11 11 L 11 6 L 6.0273438 6 z M 13 6 L 15 6 L 15 11 L 15 13 C 15 13.562649 14.562649 14 14 14 L 13 14 C 12.999109 13.480967 12.997152 12.978037 13 12.503906 A 0.50005 0.50005 0 0 0 13 12.5 L 13 6 z M 7.0273438 7 L 10 7 L 10 10 L 7.0273438 10 L 7.0273438 7 z M 2 8 L 2 9 L 5 9 L 5 8 L 2 8 z M 2 10 L 2 11 L 5 11 L 5 10 L 2 10 z M 2 12 L 2 13 L 11 13 L 11 12 L 2 12 z "
     style="color:#000000;font-style:normal;font-variant:normal;font-weight:normal;font-stretch:normal;font-size:medium;line-height:normal;font-family:sans-serif;font-variant-ligatures:normal;font-variant-position:normal;font-variant-caps:normal;font-variant-numeric:normal;font-variant-alternates:normal;font-feature-settings:normal;text-indent:0;text-align:start;text-decoration:none;text-decoration-line:none;text-decoration-style:solid;text-decoration-color:#000000;letter-spacing:normal;word-spacing:normal;text-transform:none;writing-mode:lr-tb;direction:ltr;text-orientation:mixed;dominant-baseline:auto;baseline-shift:baseline;text-anchor:start;white-space:normal;shape-padding:0;clip-rule:nonzero;display:inline;overflow:visible;visibility:visible;opacity:1;isolation:auto;mix-blend-mode:normal;color-interpolation:sRGB;color-interpolation-filters:linearRGB;solid-color:#000000;solid-opacity:1;vector-effect:none;fill:#000000;fill-opacity:1;fill-rule:nonzero;stroke:none;stroke-width:1;stroke-linecap:round;stroke-linejoin:round;stroke-miterlimit:4;stroke-dasharray:none;stroke-dashoffset:0;stroke-opacity:1;color-rendering:auto;image-rendering:auto;shape-rendering:auto;text-rendering:auto;enable-background:accumulate" />
</svg>
