<svg xmlns="http://www.w3.org/2000/svg" viewBox="0 0 16 16" fill="currentColor" height="16px" width="16px">
    <path d="M0 1v14h16V4h-5V1H0zm1 1h9v2H7v10H6v-2H5v2H1V2zm2 2v1h1V4H3zm2 0v1h1V4H5zm3 1h7v9h-3v-2h-1v2H8V5zM3 6v1h1V6H3zm2 0v1h1V6H5zm4 0v1h1V6H9zm2 0v1h1V6h-1zm2 0v1h1V6h-1zM3 8v1h1V8H3zm2 0v1h1V8H5zm4 0v1h1V8H9zm2 0v1h1V8h-1zm2 0v1h1V8h-1zM3 10v1h1v-1H3zm2 0v1h1v-1H5zm4 0v1h1v-1H9zm2 0v1h1v-1h-1zm2 0v1h1v-1h-1z"/>
    <path d="M8 5h7v9H8z" opacity=".2"/>
    <path d="M1 2v12h6V4h3V2H1z" opacity=".3"/>
</svg>
