<svg xmlns="http://www.w3.org/2000/svg" viewBox="0 0 16 16" fill="currentColor" height="16px" width="16px">
    <path d="M3 2c-.554 0-1 .446-1 1v10c0 .554.446 1 1 1h10c.554 0 1-.446 1-1V3c0-.554-.446-1-1-1h-2.182l.733 1h.949c.277 0 .5.223.5.5v1.475l.02.025H13v2h-1v1.5h-1.5V11h-5V8.5H4V7H3V5h-.02L3 4.975V3.5c0-.277.223-.5.5-.5h.95l.732-1H3z" opacity="0.2"/>
    <path d="M7.982 0a.501.501 0 0 0-.39.213l-3.498 5a.5.5 0 0 0 .41.787H7v4h2.002L9 6h2.5a.5.5 0 0 0 .41-.787l-3.498-5A.5.5 0 0 0 7.982 0zM3 1c-1.108 0-2 .892-2 2v10c0 1.108.892 2 2 2h10c1.108 0 2-.892 2-2V3c0-1.108-.892-2-2-2h-2.914l.732 1H13c.554 0 1 .446 1 1v5h-1V7h-1v1h-.5c-.417 0-.775.193-1.041.459-.266.266-.459.624-.459 1.041v1a.5.5 0 0 1-.5.5h-3a.5.5 0 0 1-.5-.5v-1c0-.417-.193-.775-.459-1.041C5.275 8.193 4.917 8 4.5 8H4V7H3v1H2V3c0-.554.446-1 1-1h2.182l.732-1H3zM2 9h2.5c.083 0 .225.057.334.166.109.109.166.25.166.334v1c0 .417.193.775.459 1.041.266.266.624.459 1.041.459h3c.417 0 .775-.193 1.041-.459.266-.266.459-.624.459-1.041v-1c0-.083.057-.225.166-.334A.544.544 0 0 1 11.5 9H14v4c0 .554-.446 1-1 1H3c-.554 0-1-.446-1-1V9z"/>
</svg>
