<?xml version="1.0" encoding="UTF-8" standalone="no"?>
<svg
   xmlns:dc="http://purl.org/dc/elements/1.1/"
   xmlns:cc="http://creativecommons.org/ns#"
   xmlns:rdf="http://www.w3.org/1999/02/22-rdf-syntax-ns#"
   xmlns:svg="http://www.w3.org/2000/svg"
   xmlns="http://www.w3.org/2000/svg"
   id="svg6"
   version="1.1"
   viewBox="0 0 16 16">
  <metadata
     id="metadata12">
    <rdf:RDF>
      <cc:Work
         rdf:about="">
        <dc:format>image/svg+xml</dc:format>
        <dc:type
           rdf:resource="http://purl.org/dc/dcmitype/StillImage" />
        <dc:title />
      </cc:Work>
    </rdf:RDF>
  </metadata>
  <defs
     id="defs10" />
  <path
     id="rect823"
     d="m 6,5 v 10 h 8 V 8 H 11 V 5 Z"
     style="opacity:0.2;fill:#000000;fill-opacity:1;stroke:none;stroke-width:1;stroke-linecap:round;stroke-linejoin:round;stroke-miterlimit:4;stroke-dasharray:none;stroke-dashoffset:0.5;stroke-opacity:1" />
  <path
     id="rect826"
     d="M 4.5 0 C 4.223 0 4 0.223 4 0.5 L 4 1 L 2 1 C 1.446 1 1 1.446 1 2 L 1 13 C 1 13.554 1.446 14 2 14 L 5 14 L 5 15.5 C 5 15.777 5.223 16 5.5 16 L 14.5 16 C 14.777 16 15 15.777 15 15.5 L 15 6.5 L 12.5 4 L 12 4 L 12 2 C 12 1.446 11.554 1 11 1 L 9 1 L 9 0.5 C 9 0.223 8.777 0 8.5 0 L 4.5 0 z M 5 1 L 8 1 L 8 2 L 5 2 L 5 1 z M 2.5 2 L 4 2 L 4 2.5 C 4 2.777 4.223 3 4.5 3 L 8.5 3 C 8.777 3 9 2.777 9 2.5 L 9 2 L 10.5 2 C 10.777 2 11 2.223 11 2.5 L 11 4 L 10 4 L 9 4 L 6 4 L 5 4 L 5 5 L 5 6 L 5 7 L 5 8 L 5 11 L 5 13 L 2.5 13 C 2.223 13 2 12.777 2 12.5 L 2 2.5 C 2 2.223 2.223 2 2.5 2 z M 6 5 L 11 5 L 11 7.5 C 11 7.777 11.223087 8.006923 11.5 8 L 14 8 L 14 15 L 6 15 L 6 5 z M 12 5 L 14 7 L 12 7 L 12 5 z M 8 9 L 8 10 L 12 10 L 12 9 L 8 9 z M 8 11 L 8 12 L 12 12 L 12 11 L 8 11 z "
     style="opacity:1;fill:#000000;fill-opacity:1;stroke:none;stroke-width:2;stroke-linecap:round;stroke-linejoin:round;stroke-miterlimit:4;stroke-dasharray:none;stroke-dashoffset:0;stroke-opacity:1" />
  <path
     id="rect832"
     d="M 5,1 H 8 V 2 H 5 Z"
     style="opacity:0.4;fill:#000000;fill-opacity:1;stroke:none;stroke-width:2;stroke-linecap:round;stroke-linejoin:round;stroke-miterlimit:4;stroke-dasharray:none;stroke-dashoffset:0;stroke-opacity:1" />
</svg>
