<svg xmlns="http://www.w3.org/2000/svg" viewBox="0 0 16 16" fill="currentColor" height="16px" width="16px">
    <path d="M6 5v10h8V8h-3V5z" opacity=".2"/>
    <path d="M4.5 0c-.277 0-.5.223-.5.5V1H2c-.554 0-1 .446-1 1v11c0 .554.446 1 1 1h3v1.5c0 .277.223.5.5.5h9c.277 0 .5-.223.5-.5v-9L12.5 4H12V2c0-.554-.446-1-1-1H9V.5c0-.277-.223-.5-.5-.5h-4zM5 1h3v1H5V1zM2.5 2H4v.5c0 .277.223.5.5.5h4c.277 0 .5-.223.5-.5V2h1.5c.277 0 .5.223.5.5V4H5v9H2.5a.499.499 0 01-.5-.5v-10c0-.277.223-.5.5-.5zM6 5h5v2.5c0 .277.223.507.5.5H14v7H6V5zm6 0l2 2h-2V5zM8 9v1h4V9H8zm0 2v1h4v-1H8z"/>
    <path d="M5 1h3v1H5z" opacity=".4"/>
</svg>
