<?xml version="1.0" encoding="UTF-8" standalone="no"?>
<svg
   xmlns:dc="http://purl.org/dc/elements/1.1/"
   xmlns:cc="http://creativecommons.org/ns#"
   xmlns:rdf="http://www.w3.org/1999/02/22-rdf-syntax-ns#"
   xmlns:svg="http://www.w3.org/2000/svg"
   xmlns="http://www.w3.org/2000/svg"
   id="svg6"
   version="1.1"
   viewBox="0 0 16 16">
  <metadata
     id="metadata12">
    <rdf:RDF>
      <cc:Work
         rdf:about="">
        <dc:format>image/svg+xml</dc:format>
        <dc:type
           rdf:resource="http://purl.org/dc/dcmitype/StillImage" />
        <dc:title />
      </cc:Work>
    </rdf:RDF>
  </metadata>
  <defs
     id="defs10" />
  <path
     id="path2"
     d="M 3 1 C 1.892 1 1 1.892 1 3 L 1 13 C 1 14.108 1.892 15 3 15 L 5 15 C 6.108 15 7 14.108 7 13 L 7 3 C 7 1.892 6.108 1 5 1 L 3 1 z M 11 1 C 9.892 1 9 1.892 9 3 L 9 13 C 9 14.108 9.892 15 11 15 L 13 15 C 14.108 15 15 14.108 15 13 L 15 3 C 15 1.892 14.108 1 13 1 L 11 1 z M 3 2 L 5 2 C 5.554 2 6 2.446 6 3 L 6 13 C 6 13.554 5.554 14 5 14 L 3 14 C 2.446 14 2 13.554 2 13 L 2 3 C 2 2.446 2.446 2 3 2 z M 11 2 L 13 2 C 13.554 2 14 2.446 14 3 L 14 13 C 14 13.554 13.554 14 13 14 L 11 14 C 10.446 14 10 13.554 10 13 L 10 3 C 10 2.446 10.446 2 11 2 z " />
  <path
     id="rect4"
     d="M 3 2 C 2.446 2 2 2.446 2 3 L 2 13 C 2 13.554 2.446 14 3 14 L 5 14 C 5.554 14 6 13.554 6 13 L 6 3 C 6 2.446 5.554 2 5 2 L 3 2 z M 11 2 C 10.446 2 10 2.446 10 3 L 10 13 C 10 13.554 10.446 14 11 14 L 13 14 C 13.554 14 14 13.554 14 13 L 14 3 C 14 2.446 13.554 2 13 2 L 11 2 z "
     style="opacity:0.2" />
</svg>
