<?xml version="1.0" encoding="UTF-8" standalone="no"?>
<svg
   xmlns:dc="http://purl.org/dc/elements/1.1/"
   xmlns:cc="http://creativecommons.org/ns#"
   xmlns:rdf="http://www.w3.org/1999/02/22-rdf-syntax-ns#"
   xmlns:svg="http://www.w3.org/2000/svg"
   xmlns="http://www.w3.org/2000/svg"
   id="svg6"
   version="1.1"
   viewBox="0 0 16 16">
  <metadata
     id="metadata12">
    <rdf:RDF>
      <cc:Work
         rdf:about="">
        <dc:format>image/svg+xml</dc:format>
        <dc:type
           rdf:resource="http://purl.org/dc/dcmitype/StillImage" />
        <dc:title />
      </cc:Work>
    </rdf:RDF>
  </metadata>
  <defs
     id="defs10" />
  <path
     id="path2"
     d="M 2.0019531 2 C 1.7519531 2 1.5463818 2.0308838 1.3828125 2.0859375 C 1.1374585 2.1685181 0.98766906 2.3049774 0.92578125 2.4667969 C 0.90493873 2.5213111 0.89363751 2.5772767 0.89257812 2.6367188 C 0.89013379 2.7542725 0.92579687 2.8789062 0.99804688 3.0039062 L 1.5410156 4 L 14.462891 4 L 15.005859 3.0039062 C 15.07748 2.8795654 15.113414 2.7537417 15.111328 2.6367188 C 15.106346 2.4016113 14.948076 2.1960449 14.621094 2.0859375 C 14.457603 2.0308838 14.251953 2 14.001953 2 L 2.0019531 2 z M 5 6 C 4.4417929 6 4 6.4417929 4 7 C 4 7.5582071 4.4417929 8 5 8 C 5.5582071 8 6 7.5582071 6 7 C 6 6.4417929 5.5582071 6 5 6 z M 10 8 C 9.4417929 8 9 8.4417929 9 9 C 9 9.5582071 9.4417929 10 10 10 C 10.558207 10 11 9.5582071 11 9 C 11 8.4417929 10.558207 8 10 8 z M 6 12 C 5.9708162 12 5.9461126 12.012759 5.9179688 12.015625 L 6.7871094 13.609375 C 6.917286 13.441042 7 13.232912 7 13 C 7 12.441793 6.5582071 12 6 12 z "
     style="opacity:0.2" />
  <path
     id="path4"
     d="M 1.5 1 C 0.36347481 1.001578 -0.35890923 2.2161538 0.18359375 3.2148438 L 6.6855469 15.212891 C 6.9401678 15.684269 7.427349 15.98503 7.9628906 16 C 8.5265942 16.014308 9.0509216 15.709322 9.3183594 15.212891 L 15.816406 3.2148438 C 16.358909 2.2161538 15.636525 1.0016 14.5 1 L 1.5 1 z M 2.0019531 2 L 14.001953 2 C 15.001953 2 15.293859 2.5039062 15.005859 3.0039062 L 14.462891 4 L 1.5410156 4 L 0.99804688 3.0039062 C 0.70904687 2.5039062 1.0019531 2 2.0019531 2 z M 2.0878906 5 L 5 5 L 13.916016 5 L 11.957031 8.5898438 C 11.766394 7.685263 10.958493 7 10 7 C 8.9013528 7 8 7.9013528 8 9 C 8 10.098647 8.9013528 11 10 11 C 10.253179 11 10.493189 10.946492 10.716797 10.859375 L 9.0019531 14.001953 C 8.7139531 14.498953 8.5039062 14.997 8.0039062 15 L 8 15 L 8 14.998047 C 7.6807823 14.996135 7.4847363 14.773241 7.3066406 14.498047 C 7.7285302 14.132265 8 13.59814 8 13 C 8 11.901353 7.0986472 11 6 11 C 5.7955844 11 5.6013101 11.036403 5.4160156 11.095703 L 4.1679688 8.8105469 C 4.4226257 8.9288313 4.7023944 9 5 9 C 6.0986472 9 7 8.0986472 7 7 C 7 5.9013528 6.0986472 5 5 5 C 3.9959858 5 3.1644727 5.7544764 3.0273438 6.7226562 L 2.0878906 5 z M 5 6 C 5.5582071 6 6 6.4417929 6 7 C 6 7.5582071 5.5582071 8 5 8 C 4.4417929 8 4 7.5582071 4 7 C 4 6.4417929 4.4417929 6 5 6 z M 10 8 C 10.558207 8 11 8.4417929 11 9 C 11 9.5582071 10.558207 10 10 10 C 9.4417929 10 9 9.5582071 9 9 C 9 8.4417929 9.4417929 8 10 8 z M 6 12 C 6.5582071 12 7 12.441793 7 13 C 7 13.232912 6.9172863 13.441042 6.7871094 13.609375 L 5.9179688 12.015625 C 5.9461126 12.012759 5.9708162 12 6 12 z " />
</svg>
