<?xml version="1.0" encoding="UTF-8" standalone="no"?>
<svg
   xmlns:dc="http://purl.org/dc/elements/1.1/"
   xmlns:cc="http://creativecommons.org/ns#"
   xmlns:rdf="http://www.w3.org/1999/02/22-rdf-syntax-ns#"
   xmlns:svg="http://www.w3.org/2000/svg"
   xmlns="http://www.w3.org/2000/svg"
   id="svg6"
   version="1.1"
   viewBox="0 0 16 16">
  <metadata
     id="metadata12">
    <rdf:RDF>
      <cc:Work
         rdf:about="">
        <dc:format>image/svg+xml</dc:format>
        <dc:type
           rdf:resource="http://purl.org/dc/dcmitype/StillImage" />
        <dc:title />
      </cc:Work>
    </rdf:RDF>
  </metadata>
  <defs
     id="defs10" />
  <path
     style="opacity:0.2"
     id="path2"
     d="m 15,8 c 0,0.322 -0.344,0.469 -0.344,0.469 L 2.846,15.03 c 0,0 -0.36,0.093 -0.633,-0.067 -0.273,-0.161 -0.211,-0.401 -0.211,-0.401 0,-4.374667 0,-8.7493333 0,-13.124 0,0 0.015,-0.237 0.289,-0.398 C 2.564,0.879 2.846,0.969 2.846,0.969 l 11.81,6.562 C 14.656,7.531 15,7.678 15,8 Z" />
  <path
     id="path4"
     d="M 16,7.963 C 15.984824,7.4275195 15.685231,6.9407761 15.214,6.686 L 3.216,0.184 C 2.2173096,-0.35850298 1.001578,0.36347481 1,1.5 c 0,4.5692848 0,8.51307 0,13 0.00158,1.136525 1.2173096,1.858503 2.216,1.316 L 15.214,9.318 c 0.496,-0.267 0.8,-0.791 0.785,-1.355 z M 15,8 c 0,0.321 -0.344,0.468 -0.344,0.468 l -11.81,6.563 c 0,0 -0.36,0.092 -0.633,-0.069 -0.274,-0.16 -0.211,-0.4 -0.211,-0.4 C 2.0021644,9.921991 2.001,5.9459877 2.001,1.438 c 0,0 0.015,-0.238 0.289,-0.399 0.273,-0.16 0.554,-0.07 0.554,-0.07 l 11.81,6.562 C 14.654,7.531 15,7.678 15,8 Z" />
</svg>
