<?xml version="1.0" encoding="UTF-8" standalone="no"?>
<svg
   xmlns:dc="http://purl.org/dc/elements/1.1/"
   xmlns:cc="http://creativecommons.org/ns#"
   xmlns:rdf="http://www.w3.org/1999/02/22-rdf-syntax-ns#"
   xmlns:svg="http://www.w3.org/2000/svg"
   xmlns="http://www.w3.org/2000/svg"
   id="svg6"
   version="1.1"
   viewBox="0 0 16 16">
  <metadata
     id="metadata12">
    <rdf:RDF>
      <cc:Work
         rdf:about="">
        <dc:format>image/svg+xml</dc:format>
        <dc:type
           rdf:resource="http://purl.org/dc/dcmitype/StillImage" />
        <dc:title />
      </cc:Work>
    </rdf:RDF>
  </metadata>
  <defs
     id="defs10" />
  <path
     id="path2"
     opacity=".2"
     d="M15 8a7 7 0 0 1-7 7 7 7 0 0 1-7-7 7 7 0 0 1 7-7 7 7 0 0 1 7 7z" />
  <path
     id="path4"
     d="M 8 0 C 2.812 -0.197 -1.3585781 5.4702819 0.35742188 10.363281 C 1.6404219 15.067281 7.6399852 17.499531 11.833984 15.019531 C 15.090984 13.297531 16.806578 9.1577187 15.642578 5.6367188 C 14.669578 2.3437187 11.43 -0.047 8 0 z M 7.9648438 1 A 7 7 0 0 1 8 1 C 9.2110647 0.95358197 10.350043 1.2822216 11.349609 1.8554688 A 7 7 0 0 1 11.355469 1.8574219 C 11.377232 1.8699285 11.398297 1.8837375 11.419922 1.8964844 C 11.560592 1.9794044 11.703338 2.0596195 11.837891 2.1523438 A 7 7 0 0 1 14.869141 6.6835938 A 7 7 0 0 1 14.939453 7.15625 C 15.038942 7.873114 15.02307 8.6046019 14.871094 9.328125 A 7 7 0 0 1 14.787109 9.6816406 C 14.76933 9.7466482 14.760291 9.8122071 14.740234 9.8769531 L 14.736328 9.875 A 7 7 0 0 1 14.404297 10.816406 L 14.412109 10.820312 C 14.156831 11.41921 13.806635 11.967503 13.390625 12.460938 A 7 7 0 0 1 13.279297 12.589844 C 13.21201 12.665761 13.142827 12.739583 13.072266 12.8125 A 7 7 0 0 1 10.230469 14.625 A 7 7 0 0 1 9.1308594 14.90625 C 8.5290906 15.00993 7.9155706 15.032178 7.3046875 14.964844 C 7.3034121 14.964703 7.3020567 14.964985 7.3007812 14.964844 A 7 7 0 0 1 7.0703125 14.929688 C 6.9767157 14.915757 6.8822775 14.906973 6.7890625 14.888672 C 6.786398 14.888262 6.7839135 14.887132 6.78125 14.886719 A 7 7 0 0 1 6.4042969 14.808594 C 6.2499848 14.774662 6.097669 14.736608 5.9472656 14.691406 A 7 7 0 0 1 5.90625 14.677734 C 5.6994914 14.614044 5.4971747 14.540821 5.2988281 14.457031 A 7 7 0 0 1 5.2304688 14.427734 C 5.0611169 14.353913 4.8947595 14.273094 4.7324219 14.185547 A 7 7 0 0 1 4.5136719 14.0625 C 4.4240466 14.009778 4.3351773 13.957128 4.2480469 13.900391 A 7 7 0 0 1 3.8144531 13.599609 A 7 7 0 0 1 1.3144531 10.050781 C 1.2956438 9.9919819 1.2730842 9.9342821 1.2558594 9.875 A 7 7 0 0 1 1.2539062 9.8652344 C 1.0154419 9.0400534 0.9302199 8.1708892 1.0351562 7.3007812 C 1.0681194 6.8970111 1.1416795 6.5028342 1.2480469 6.1191406 L 1.2636719 6.125 A 7 7 0 0 1 1.5957031 5.1835938 L 1.5917969 5.1816406 C 1.6073018 5.1470366 1.6304097 5.1163608 1.6464844 5.0820312 A 7 7 0 0 1 2.0566406 4.3203125 C 2.0655477 4.3061787 2.0730245 4.2914138 2.0820312 4.2773438 A 7 7 0 0 1 4.984375 1.6914062 C 5.0552007 1.6566688 5.1272449 1.6260712 5.1992188 1.59375 A 7 7 0 0 1 5.7148438 1.3925781 C 6.0170661 1.285163 6.326442 1.2016064 6.6425781 1.1386719 C 6.70016 1.1272088 6.7564919 1.1114742 6.8144531 1.1015625 C 6.964348 1.0759296 7.1154493 1.061853 7.2675781 1.046875 A 7 7 0 0 1 7.9648438 1 z M 8 3 C 5.784 3 4 4.784 4 7 L 4 9 C 4 11.216 5.784 13 8 13 C 10.216 13 12 11.216 12 9 L 12 7 C 12 4.784 10.216 3 8 3 z M 8 4 C 9.662 4 11 5.784 11 8 C 11 8.1806413 10.978169 8.3531759 10.960938 8.5273438 L 5.2246094 6.4785156 C 5.6720452 5.0218479 6.7426632 4 8 4 z M 5.0390625 7.4726562 L 10.775391 9.5214844 C 10.327955 10.978152 9.2573368 12 8 12 C 6.338 12 5 10.216 5 8 C 5 7.8193587 5.0218298 7.646824 5.0390625 7.4726562 z " />
</svg>
