<?xml version="1.0" encoding="UTF-8" standalone="no"?>
<svg
   xmlns:dc="http://purl.org/dc/elements/1.1/"
   xmlns:cc="http://creativecommons.org/ns#"
   xmlns:rdf="http://www.w3.org/1999/02/22-rdf-syntax-ns#"
   xmlns:svg="http://www.w3.org/2000/svg"
   xmlns="http://www.w3.org/2000/svg"
   id="svg6"
   version="1.1"
   viewBox="0 0 16 16">
  <metadata
     id="metadata12">
    <rdf:RDF>
      <cc:Work
         rdf:about="">
        <dc:format>image/svg+xml</dc:format>
        <dc:type
           rdf:resource="http://purl.org/dc/dcmitype/StillImage" />
        <dc:title />
      </cc:Work>
    </rdf:RDF>
  </metadata>
  <defs
     id="defs10" />
  <path
     id="path2"
     opacity=".2"
     d="M15 8a7 7 0 0 1-7 7 7 7 0 0 1-7-7 7 7 0 0 1 7-7 7 7 0 0 1 7 7z" />
  <path
     id="path4"
     d="M 8 0 C 2.812 -0.197 -1.3585781 5.4702816 0.35742188 10.363281 C 1.6404219 15.067281 7.6399848 17.499531 11.833984 15.019531 C 15.090984 13.297531 16.806578 9.1577187 15.642578 5.6367188 C 14.669578 2.3437187 11.43 -0.047 8 0 z M 8 1 C 12.479848 0.82829513 16.048891 5.6524779 14.740234 9.8769531 L 5.2246094 6.4785156 C 5.6720452 5.0218479 6.7426632 4 8 4 C 8.7587013 4 9.4415485 4.385076 9.96875 5 L 11.449219 5 C 10.75838 3.8072919 9.4829714 3 8 3 C 6.1012282 3 4.527194 4.3129783 4.1132812 6.0820312 L 1.5917969 5.1816406 C 2.6935675 2.7227 5.2424025 0.94883133 8 1 z M 1.2480469 6.1191406 L 4 7.1015625 L 4 9 C 4 11.216 5.784 13 8 13 C 9.4829714 13 10.75838 12.192708 11.449219 11 L 9.96875 11 C 9.4415485 11.614924 8.7587013 12 8 12 C 6.338 12 5 10.216 5 8 C 5 7.8193587 5.0218298 7.646824 5.0390625 7.4726562 L 14.412109 10.820312 C 13.186771 13.695018 9.8661914 15.492805 6.7890625 14.888672 C 3.2800625 14.348672 0.6101563 10.824781 1.0351562 7.3007812 C 1.0681194 6.8970111 1.1416795 6.5028342 1.2480469 6.1191406 z " />
</svg>
