<svg xmlns="http://www.w3.org/2000/svg" viewBox="0 0 16 16" fill="currentColor" height="16px" width="16px">
    <path d="M1 1v6h1v1H1v7h5v-2h1v-1H6v-1h1v-1H6V9H5v1H4V9H3v1H2V9h1V7h2v1h1V7h2V6H7V4h1V2H7V1H1zm7 1h1V1H8v1zm1 0v1h1v1H8v2h1V5h1v1H9v1h2V6h2v1h1V6h1V1h-5v1H9zm5 5v2h-2V8h1V7h-2v2h-1V8H9v1H8V8H6v1h1v1h2v2H8v1h1v1H8v-1H7v2h8V7h-1zm-6 5v-1H7v1h1zm0-4h1V7H8v1zM5 8H4v1h1V8zM2 2h4v4H2V2zm9 0h3v3h-3V2zM3 3v2h2V3H3zm9 0v1h1V3h-1zm-2 7h4v4h-4v-4zm-8 1h3v3H2v-3zm9 0v2h2v-2h-2zm-8 1v1h1v-1H3z"/>
    <path d="M2 2v4h4V2H2zm9 0v3h3V2h-3zm-1 8v4h4v-4h-4zm-8 1v3h3v-3H2z" opacity="0.2"/>
</svg>
