<?xml version="1.0" encoding="UTF-8" standalone="no"?>
<svg
   xmlns:dc="http://purl.org/dc/elements/1.1/"
   xmlns:cc="http://creativecommons.org/ns#"
   xmlns:rdf="http://www.w3.org/1999/02/22-rdf-syntax-ns#"
   xmlns:svg="http://www.w3.org/2000/svg"
   xmlns="http://www.w3.org/2000/svg"
   id="svg6"
   version="1.1"
   viewBox="0 0 16 16">
  <metadata
     id="metadata12">
    <rdf:RDF>
      <cc:Work
         rdf:about="">
        <dc:format>image/svg+xml</dc:format>
        <dc:type
           rdf:resource="http://purl.org/dc/dcmitype/StillImage" />
        <dc:title />
      </cc:Work>
    </rdf:RDF>
  </metadata>
  <defs
     id="defs10" />
  <path
     id="path2"
     opacity=".2"
     d="M15 8a7 7 0 0 1-7 7 7 7 0 0 1-7-7 7 7 0 0 1 7-7 7 7 0 0 1 7 7z" />
  <path
     id="path4"
     d="m 8,0 c -5.188,-0.197 -9.3585781,5.4702813 -7.64257812,10.363281 1.28300002,4.704 7.28256252,7.13625 11.47656212,4.65625 3.257,-1.722 4.972594,-5.8618123 3.808594,-9.3828122 C 14.669578,2.3437188 11.43,-0.047 8,0 Z m 0,1 c 4.618,-0.177 8.283141,4.9565781 6.619141,9.267578 -1.013,3.193 -4.560079,5.263094 -7.8300785,4.621094 -3.509,-0.54 -6.17890625,-4.063891 -5.7539063,-7.5878908 C 1.3201563,3.8097812 4.497,0.935 8,1 Z M 8,3 C 6.3431458,3 5,4.3431458 5,6 H 7 C 7,5.4477153 7.4477153,5 8,5 8.5522847,5 9,5.4477153 9,6 9.0768123,7.0693561 8,7 8,7 L 7,8 v 2 H 9 V 9 8.8242188 C 10.197184,8.4009516 10.998218,7.2698042 11,6 11,4.3431458 9.6568542,3 8,3 Z m -1.0019531,8 v 2 H 9 V 11 H 7 Z" />
</svg>
