<svg xmlns="http://www.w3.org/2000/svg" viewBox="0 0 16 16" fill="currentColor" height="16px" width="16px">
    <path d="M8.512 0a.5.5 0 00-.366.146l-8 8A.5.5 0 00.5 9h8a.5.5 0 00.5-.5v-8a.5.5 0 00-.488-.5zm1.959 0A.5.5 0 0010 .5v8a.5.5 0 00.5.5h5a.5.5 0 00.424-.766l-5-8A.5.5 0 0010.47 0zM8 1.707V8H1.707L8 1.707zm3 .537L14.598 8H11V2.244zM.5 10a.5.5 0 00-.459.697l3.17 4A.5.5 0 003.67 15h8.66a.5.5 0 00.46-.303l3.169-4A.5.5 0 0015.5 10H.5zm.758 1h13.484L12 14H4l-2.742-3z"/>
    <path d="M1.258 11h13.484L12 14H4z" opacity=".2"/>
</svg>
