<?xml version="1.0" encoding="UTF-8" standalone="no"?>
<svg
   xmlns:dc="http://purl.org/dc/elements/1.1/"
   xmlns:cc="http://creativecommons.org/ns#"
   xmlns:rdf="http://www.w3.org/1999/02/22-rdf-syntax-ns#"
   xmlns:svg="http://www.w3.org/2000/svg"
   xmlns="http://www.w3.org/2000/svg"
   id="svg6"
   version="1.1"
   viewBox="0 0 16 16">
  <metadata
     id="metadata12">
    <rdf:RDF>
      <cc:Work
         rdf:about="">
        <dc:format>image/svg+xml</dc:format>
        <dc:type
           rdf:resource="http://purl.org/dc/dcmitype/StillImage" />
      </cc:Work>
    </rdf:RDF>
  </metadata>
  <defs
     id="defs10" />
  <path
     id="path2"
     opacity=".2"
     d="M15 8c0 .322-.344.469-.344.469L2.846 15.03s-.36.093-.633-.067c-.273-.161-.211-.401-.211-.401V10l6-2-6-2V1.438s.015-.237.289-.398c.273-.161.555-.071.555-.071l11.81 6.562S15 7.678 15 8z" />
  <path
     id="path4"
     d="M16 7.963a1.5 1.5 0 0 0-.786-1.277L3.216.184A1.5 1.5 0 0 0 1 1.5V7l5.002 1L1 9v5.5a1.5 1.5 0 0 0 2.216 1.316l11.998-6.498c.496-.267.8-.791.785-1.355zM15 8c0 .321-.344.468-.344.468l-11.81 6.563s-.36.092-.633-.069c-.274-.16-.211-.4-.211-.4v-4.562c2.041-.584 3.458-.917 5.5-1.5 0 0 .5 0 .5-.5s-.5-.5-.5-.5C5.46 6.917 4.042 6.583 2.001 6V1.438s.015-.238.289-.399c.273-.16.554-.07.554-.07l11.81 6.562S15 7.678 15 8z" />
</svg>
