<?xml version="1.0" encoding="UTF-8" standalone="no"?>
<svg
   xmlns:dc="http://purl.org/dc/elements/1.1/"
   xmlns:cc="http://creativecommons.org/ns#"
   xmlns:rdf="http://www.w3.org/1999/02/22-rdf-syntax-ns#"
   xmlns:svg="http://www.w3.org/2000/svg"
   xmlns="http://www.w3.org/2000/svg"
   id="svg6"
   version="1.1"
   viewBox="0 0 16 16">
  <metadata
     id="metadata12">
    <rdf:RDF>
      <cc:Work
         rdf:about="">
        <dc:format>image/svg+xml</dc:format>
        <dc:type
           rdf:resource="http://purl.org/dc/dcmitype/StillImage" />
        <dc:title />
      </cc:Work>
    </rdf:RDF>
  </metadata>
  <defs
     id="defs10" />
  <path
     id="path829"
     d="M 13 0 A 3 3 0 0 0 10 3 A 3 3 0 0 0 10.15625 3.9453125 L 5.7304688 6.7617188 A 3 3 0 0 0 3 5 A 3 3 0 0 0 0 8 A 3 3 0 0 0 3 11 A 3 3 0 0 0 5.7285156 9.2382812 L 10.15625 12.054688 A 3 3 0 0 0 10 13 A 3 3 0 0 0 13 16 A 3 3 0 0 0 16 13 A 3 3 0 0 0 13 10 A 3 3 0 0 0 10.625 11.169922 L 5.9921875 8.2207031 A 3 3 0 0 0 6 8 A 3 3 0 0 0 5.9882812 7.78125 L 10.626953 4.8300781 A 3 3 0 0 0 13 6 A 3 3 0 0 0 16 3 A 3 3 0 0 0 13 0 z M 13 1 A 2 2 0 0 1 15 3 A 2 2 0 0 1 13 5 A 2 2 0 0 1 11 3 A 2 2 0 0 1 13 1 z M 3 6 A 2 2 0 0 1 5 8 A 2 2 0 0 1 3 10 A 2 2 0 0 1 1 8 A 2 2 0 0 1 3 6 z M 13 11 A 2 2 0 0 1 15 13 A 2 2 0 0 1 13 15 A 2 2 0 0 1 11 13 A 2 2 0 0 1 13 11 z "
     style="opacity:1;fill:#000000;fill-opacity:1;stroke:none;stroke-width:1;stroke-linecap:round;stroke-linejoin:round;stroke-miterlimit:4;stroke-dasharray:none;stroke-dashoffset:0.5;stroke-opacity:1" />
  <path
     id="path835"
     d="M 13 1 A 2 2 0 0 0 11 3 A 2 2 0 0 0 13 5 A 2 2 0 0 0 15 3 A 2 2 0 0 0 13 1 z M 3 6 A 2 2 0 0 0 1 8 A 2 2 0 0 0 3 10 A 2 2 0 0 0 5 8 A 2 2 0 0 0 3 6 z M 13 11 A 2 2 0 0 0 11 13 A 2 2 0 0 0 13 15 A 2 2 0 0 0 15 13 A 2 2 0 0 0 13 11 z "
     style="opacity:0.2;fill:#000000;fill-opacity:1;stroke:none;stroke-width:1;stroke-linecap:round;stroke-linejoin:round;stroke-miterlimit:4;stroke-dasharray:none;stroke-dashoffset:0.5;stroke-opacity:1" />
</svg>
