<svg xmlns="http://www.w3.org/2000/svg" viewBox="0 0 16 16" fill="currentColor" height="16px" width="16px">
    <path d="M13 0a3 3 0 00-3 3 3 3 0 00.156.945L5.73 6.762A3 3 0 003 5a3 3 0 00-3 3 3 3 0 003 3 3 3 0 002.729-1.762l4.427 2.817A3 3 0 0010 13a3 3 0 003 3 3 3 0 003-3 3 3 0 00-3-3 3 3 0 00-2.375 1.17L5.992 8.22A3 3 0 006 8a3 3 0 00-.012-.219l4.639-2.95A3 3 0 0013 6a3 3 0 003-3 3 3 0 00-3-3zm0 1a2 2 0 012 2 2 2 0 01-2 2 2 2 0 01-2-2 2 2 0 012-2zM3 6a2 2 0 012 2 2 2 0 01-2 2 2 2 0 01-2-2 2 2 0 012-2zm10 5a2 2 0 012 2 2 2 0 01-2 2 2 2 0 01-2-2 2 2 0 012-2z"/>
    <path d="M13 1a2 2 0 00-2 2 2 2 0 002 2 2 2 0 002-2 2 2 0 00-2-2zM3 6a2 2 0 00-2 2 2 2 0 002 2 2 2 0 002-2 2 2 0 00-2-2zm10 5a2 2 0 00-2 2 2 2 0 002 2 2 2 0 002-2 2 2 0 00-2-2z" opacity=".2"/>
</svg>
