<?xml version="1.0" encoding="UTF-8" standalone="no"?>
<svg
   xmlns:dc="http://purl.org/dc/elements/1.1/"
   xmlns:cc="http://creativecommons.org/ns#"
   xmlns:rdf="http://www.w3.org/1999/02/22-rdf-syntax-ns#"
   xmlns:svg="http://www.w3.org/2000/svg"
   xmlns="http://www.w3.org/2000/svg"
   id="svg6"
   version="1.1"
   viewBox="0 0 16 16">
  <metadata
     id="metadata12">
    <rdf:RDF>
      <cc:Work
         rdf:about="">
        <dc:format>image/svg+xml</dc:format>
        <dc:type
           rdf:resource="http://purl.org/dc/dcmitype/StillImage" />
        <dc:title />
      </cc:Work>
    </rdf:RDF>
  </metadata>
  <defs
     id="defs10" />
  <path
     id="rect832"
     d="M 1,4.6367188 V 13.363281 L 5.759765,9 Z"
     style="opacity:0.2;fill:#000000;fill-opacity:1;stroke:none;stroke-width:2;stroke-linecap:round;stroke-linejoin:round;stroke-miterlimit:4;stroke-dasharray:none;stroke-dashoffset:0;stroke-opacity:1" />
  <path
     id="path826"
     d="M 0.470703,3 A 0.50005,0.50005 0 0 0 0,3.5 v 11 a 0.50005,0.50005 0 0 0 0.83789,0.369141 L 5.9999997,10.136719 V 14.5 a 0.50005,0.50005 0 0 0 0.8378906,0.369141 L 12.837891,9.3691406 A 0.50005,0.50005 0 0 0 13,9.015625 V 14 c 0,0.554 0.446,1 1,1 h 1 c 0.554,0 1,-0.446 1,-1 V 4 C 16,3.446 15.554,3 15,3 H 14 C 13.446,3 13,3.446 13,4 V 8.9648438 A 0.50005,0.50005 0 0 0 12.837891,8.6308594 l -6.0000007,-5.5 A 0.50005,0.50005 0 0 0 6.4707028,3 0.50005,0.50005 0 0 0 5.9999997,3.5 V 7.8632812 L 0.83789,3.1308594 A 0.50005,0.50005 0 0 0 0.470703,3 Z M 14,4 h 1 V 14 H 14 Z M 1,4.6367188 5.759765,9 1,13.363281 Z m 5.9999997,0 L 11.759766,9 6.9999997,13.363281 V 9.015625 a 0.50005,0.50005 0 0 0 0,-0.050781 z"
     style="color:#000000;font-style:normal;font-variant:normal;font-weight:normal;font-stretch:normal;font-size:medium;line-height:normal;font-family:sans-serif;font-variant-ligatures:normal;font-variant-position:normal;font-variant-caps:normal;font-variant-numeric:normal;font-variant-alternates:normal;font-feature-settings:normal;text-indent:0;text-align:start;text-decoration:none;text-decoration-line:none;text-decoration-style:solid;text-decoration-color:#000000;letter-spacing:normal;word-spacing:normal;text-transform:none;writing-mode:lr-tb;direction:ltr;text-orientation:mixed;dominant-baseline:auto;baseline-shift:baseline;text-anchor:start;white-space:normal;shape-padding:0;clip-rule:nonzero;display:inline;overflow:visible;visibility:visible;opacity:1;isolation:auto;mix-blend-mode:normal;color-interpolation:sRGB;color-interpolation-filters:linearRGB;solid-color:#000000;solid-opacity:1;vector-effect:none;fill:#000000;fill-opacity:1;fill-rule:nonzero;stroke:none;stroke-width:1px;stroke-linecap:butt;stroke-linejoin:round;stroke-miterlimit:4;stroke-dasharray:none;stroke-dashoffset:0;stroke-opacity:1;color-rendering:auto;image-rendering:auto;shape-rendering:auto;text-rendering:auto;enable-background:accumulate" />
  <path
     style="opacity:0.4;fill:#000000;fill-opacity:1;stroke:none;stroke-width:2;stroke-linecap:round;stroke-linejoin:round;stroke-miterlimit:4;stroke-dasharray:none;stroke-dashoffset:0;stroke-opacity:1"
     d="m 14,4 v 10 h 1 V 4 Z"
     id="path815" />
  <path
     id="path817"
     d="m 6.9999997,4.6367188 v 4.328125 c 8.6e-4,0.016916 8.6e-4,0.033865 0,0.050781 V 13.363281 L 11.759766,9 Z"
     style="opacity:0.3;fill:#000000;fill-opacity:1;stroke:none;stroke-width:2;stroke-linecap:round;stroke-linejoin:round;stroke-miterlimit:4;stroke-dasharray:none;stroke-dashoffset:0;stroke-opacity:1" />
</svg>
