<?xml version="1.0" encoding="UTF-8" standalone="no"?>
<svg
   xmlns:dc="http://purl.org/dc/elements/1.1/"
   xmlns:cc="http://creativecommons.org/ns#"
   xmlns:rdf="http://www.w3.org/1999/02/22-rdf-syntax-ns#"
   xmlns:svg="http://www.w3.org/2000/svg"
   xmlns="http://www.w3.org/2000/svg"
   id="svg6"
   version="1.1"
   viewBox="0 0 16 16">
  <metadata
     id="metadata12">
    <rdf:RDF>
      <cc:Work
         rdf:about="">
        <dc:format>image/svg+xml</dc:format>
        <dc:type
           rdf:resource="http://purl.org/dc/dcmitype/StillImage" />
        <dc:title />
      </cc:Work>
    </rdf:RDF>
  </metadata>
  <defs
     id="defs10" />
  <path
     id="rect836"
     d="M 4 1 C 3.446 1 3 1.446 3 2 L 3 14 C 3 14.554 3.446 15 4 15 L 12 15 C 12.554 15 13 14.554 13 14 L 13 2 C 13 1.446 12.554 1 12 1 L 4 1 z M 8 6 C 10.216 6 12 7.784 12 10 C 12 12.216 10.216 14 8 14 C 5.784 14 4 12.216 4 10 C 4 7.784 5.784 6 8 6 z "
     style="opacity:0.4;fill:#000000;fill-opacity:1;stroke:none;stroke-width:1;stroke-linecap:round;stroke-linejoin:round;stroke-miterlimit:4;stroke-dasharray:none;stroke-dashoffset:0.5;stroke-opacity:1" />
  <path
     id="path4"
     d="M 4 0 C 2.892 0 2 0.892 2 2 L 2 14 C 2 15.108 2.892 16 4 16 L 12 16 C 13.108 16 14 15.108 14 14 L 14 2 C 14 0.892 13.108 0 12 0 L 4 0 z M 4 1 L 12 1 C 12.554 1 13 1.446 13 2 L 13 14 C 13 14.554 12.554 15 12 15 L 4 15 C 3.446 15 3 14.554 3 14 L 3 2 C 3 1.446 3.446 1 4 1 z M 8 3 A 1 1 0 0 0 7 4 A 1 1 0 0 0 8 5 A 1 1 0 0 0 9 4 A 1 1 0 0 0 8 3 z M 8 6 A 4 4 0 0 0 4 10 A 4 4 0 0 0 8 14 A 4 4 0 0 0 12 10 A 4 4 0 0 0 8 6 z M 8 7 A 3 3 0 0 1 11 10 A 3 3 0 0 1 8 13 A 3 3 0 0 1 5 10 A 3 3 0 0 1 8 7 z M 8 9 A 1 1 0 0 0 7 10 A 1 1 0 0 0 8 11 A 1 1 0 0 0 9 10 A 1 1 0 0 0 8 9 z " />
  <circle
     r="3"
     cy="10"
     cx="8"
     id="path826"
     style="opacity:0.2;fill:#000000;fill-opacity:1;stroke:none;stroke-width:1;stroke-linecap:round;stroke-linejoin:round;stroke-miterlimit:4;stroke-dasharray:none;stroke-dashoffset:0.5;stroke-opacity:1" />
</svg>
