<svg xmlns="http://www.w3.org/2000/svg" viewBox="0 0 16 16" fill="currentColor" height="16px" width="16px">
    <path d="M4 1c-.554 0-1 .446-1 1v12c0 .554.446 1 1 1h8c.554 0 1-.446 1-1V2c0-.554-.446-1-1-1H4zm4 5c2.216 0 4 1.784 4 4s-1.784 4-4 4-4-1.784-4-4 1.784-4 4-4z" opacity=".4"/>
    <path d="M4 0C2.892 0 2 .892 2 2v12c0 1.108.892 2 2 2h8c1.108 0 2-.892 2-2V2c0-1.108-.892-2-2-2H4zm0 1h8c.554 0 1 .446 1 1v12c0 .554-.446 1-1 1H4c-.554 0-1-.446-1-1V2c0-.554.446-1 1-1zm4 2a1 1 0 00-1 1 1 1 0 001 1 1 1 0 001-1 1 1 0 00-1-1zm0 3a4 4 0 00-4 4 4 4 0 004 4 4 4 0 004-4 4 4 0 00-4-4zm0 1a3 3 0 013 3 3 3 0 01-3 3 3 3 0 01-3-3 3 3 0 013-3zm0 2a1 1 0 00-1 1 1 1 0 001 1 1 1 0 001-1 1 1 0 00-1-1z"/>
    <circle cx="8" cy="10" r="3" opacity=".2"/>
</svg>
