<svg xmlns="http://www.w3.org/2000/svg" viewBox="0 0 16 16" fill="currentColor" height="16px" width="16px">
    <path d="M8.004 0a.5.5 0 00-.451.277L5.19 5H.5a.5.5 0 00-.354.854l3.782 3.78-1.903 5.708a.5.5 0 00.715.597L8 13.07l5.26 2.87a.5.5 0 00.715-.598l-1.903-5.707 3.782-3.781A.5.5 0 0015.5 5h-4.691L8.447.277A.5.5 0 008.004 0zM8 1.617l2.053 4.106A.5.5 0 0010.5 6h3.793l-3.147 3.146a.5.5 0 00-.12.512l1.597 4.793-4.383-2.39a.5.5 0 00-.48 0l-4.383 2.39 1.598-4.793a.5.5 0 00-.121-.512L1.707 6H5.5a.5.5 0 00.447-.277z"/>
    <path d="M8 1.617l2.053 4.106A.5.5 0 0010.5 6h3.793l-3.147 3.146a.5.5 0 00-.12.512l1.597 4.793-4.383-2.39a.5.5 0 00-.48 0l-4.383 2.39 1.598-4.793a.5.5 0 00-.121-.512L1.707 6H5.5a.5.5 0 00.447-.277z" opacity=".2"/>
</svg>
