<svg xmlns="http://www.w3.org/2000/svg" viewBox="0 0 16 16" fill="currentColor" height="16px" width="16px">
    <path d="M8.004 0a.5.5 0 00-.451.277L5.19 5H.5a.5.5 0 00-.354.854l3.782 3.78-1.903 5.708a.5.5 0 00.715.597L8 13.07l5.26 2.87a.5.5 0 00.715-.598l-1.903-5.707 3.782-3.781A.5.5 0 0015.5 5h-4.691L8.447.277A.5.5 0 008.004 0zM8 1.617V12a.5.5 0 00-.24.06l-4.383 2.391 1.598-4.793a.5.5 0 00-.121-.512L1.707 6H5.5a.5.5 0 00.447-.277L8 1.617zm1 2l1.053 2.106A.5.5 0 0010.5 6h3.793l-3.147 3.146a.5.5 0 00-.12.512l1.597 4.793L9 12.475V3.617z"/>
    <path d="M8 1.617L5.947 5.723A.5.5 0 015.5 6H1.707l3.147 3.146a.5.5 0 01.12.512l-1.597 4.793 4.383-2.39a.495.495 0 01.244-.059V1.625L8 1.617z" opacity=".2"/>
</svg>
