<?xml version="1.0" encoding="UTF-8" standalone="no"?>
<svg
   xmlns:dc="http://purl.org/dc/elements/1.1/"
   xmlns:cc="http://creativecommons.org/ns#"
   xmlns:rdf="http://www.w3.org/1999/02/22-rdf-syntax-ns#"
   xmlns:svg="http://www.w3.org/2000/svg"
   xmlns="http://www.w3.org/2000/svg"
   id="svg6"
   version="1.1"
   viewBox="0 0 16 16">
  <metadata
     id="metadata12">
    <rdf:RDF>
      <cc:Work
         rdf:about="">
        <dc:format>image/svg+xml</dc:format>
        <dc:type
           rdf:resource="http://purl.org/dc/dcmitype/StillImage" />
        <dc:title />
      </cc:Work>
    </rdf:RDF>
  </metadata>
  <defs
     id="defs10" />
  <path
     id="path818"
     d="M 8.0039062,0 A 0.50005,0.50005 0 0 0 7.5527344,0.27734375 L 5.1914062,5 H 0.5 A 0.50005,0.50005 0 0 0 0.14648438,5.8535156 l 3.78125002,3.78125 -1.9023438,5.7070314 a 0.50005,0.50005 0 0 0 0.7148438,0.597656 L 8,13.070312 l 5.259766,2.869141 a 0.50005,0.50005 0 0 0 0.714843,-0.597656 l -1.902343,-5.7070314 3.78125,-3.78125 A 0.50005,0.50005 0 0 0 15.5,5 H 10.808594 L 8.4472656,0.27734375 A 0.50005,0.50005 0 0 0 8.0039062,0 Z M 8,1.6171875 10.052734,5.7226562 A 0.50005,0.50005 0 0 0 10.5,6 h 3.792969 l -3.146485,3.1464844 a 0.50005,0.50005 0 0 0 -0.121093,0.5117187 l 1.597656,4.7929689 -4.3828126,-2.390625 a 0.50005,0.50005 0 0 0 -0.4804688,0 L 3.3769531,14.451172 4.9746094,9.6582031 A 0.50005,0.50005 0 0 0 4.8535156,9.1464844 L 1.7070312,6 H 5.5 A 0.50005,0.50005 0 0 0 5.9472656,5.7226562 Z"
     style="color:#000000;font-style:normal;font-variant:normal;font-weight:normal;font-stretch:normal;font-size:medium;line-height:normal;font-family:sans-serif;font-variant-ligatures:normal;font-variant-position:normal;font-variant-caps:normal;font-variant-numeric:normal;font-variant-alternates:normal;font-feature-settings:normal;text-indent:0;text-align:start;text-decoration:none;text-decoration-line:none;text-decoration-style:solid;text-decoration-color:#000000;letter-spacing:normal;word-spacing:normal;text-transform:none;writing-mode:lr-tb;direction:ltr;text-orientation:mixed;dominant-baseline:auto;baseline-shift:baseline;text-anchor:start;white-space:normal;shape-padding:0;clip-rule:nonzero;display:inline;overflow:visible;visibility:visible;opacity:1;isolation:auto;mix-blend-mode:normal;color-interpolation:sRGB;color-interpolation-filters:linearRGB;solid-color:#000000;solid-opacity:1;vector-effect:none;fill:#000000;fill-opacity:1;fill-rule:nonzero;stroke:none;stroke-width:1px;stroke-linecap:butt;stroke-linejoin:round;stroke-miterlimit:4;stroke-dasharray:none;stroke-dashoffset:0;stroke-opacity:1;color-rendering:auto;image-rendering:auto;shape-rendering:auto;text-rendering:auto;enable-background:accumulate" />
</svg>
