<?xml version="1.0" encoding="UTF-8" standalone="no"?>
<svg
   xmlns:dc="http://purl.org/dc/elements/1.1/"
   xmlns:cc="http://creativecommons.org/ns#"
   xmlns:rdf="http://www.w3.org/1999/02/22-rdf-syntax-ns#"
   xmlns:svg="http://www.w3.org/2000/svg"
   xmlns="http://www.w3.org/2000/svg"
   id="svg6"
   version="1.1"
   viewBox="0 0 16 16">
  <metadata
     id="metadata12">
    <rdf:RDF>
      <cc:Work
         rdf:about="">
        <dc:format>image/svg+xml</dc:format>
        <dc:type
           rdf:resource="http://purl.org/dc/dcmitype/StillImage" />
        <dc:title />
      </cc:Work>
    </rdf:RDF>
  </metadata>
  <defs
     id="defs10" />
  <path
     id="path818"
     d="M 8.0039062 0 A 0.50005 0.50005 0 0 0 7.5527344 0.27734375 L 5.1914062 5 L 0.5 5 A 0.50005 0.50005 0 0 0 0.14648438 5.8535156 L 3.9277344 9.6347656 L 2.0253906 15.341797 A 0.50005 0.50005 0 0 0 2.7402344 15.939453 L 8 13.070312 L 13.259766 15.939453 A 0.50005 0.50005 0 0 0 13.974609 15.341797 L 12.072266 9.6347656 L 15.853516 5.8535156 A 0.50005 0.50005 0 0 0 15.5 5 L 10.808594 5 L 8.4472656 0.27734375 A 0.50005 0.50005 0 0 0 8.0039062 0 z M 8 1.6171875 L 8 12 A 0.50005 0.50005 0 0 0 7.7597656 12.060547 L 3.3769531 14.451172 L 4.9746094 9.6582031 A 0.50005 0.50005 0 0 0 4.8535156 9.1464844 L 1.7070312 6 L 5.5 6 A 0.50005 0.50005 0 0 0 5.9472656 5.7226562 L 8 1.6171875 z M 9 3.6171875 L 10.052734 5.7226562 A 0.50005 0.50005 0 0 0 10.5 6 L 14.292969 6 L 11.146484 9.1464844 A 0.50005 0.50005 0 0 0 11.025391 9.6582031 L 12.623047 14.451172 L 9 12.474609 L 9 3.6171875 z "
     style="color:#000000;font-style:normal;font-variant:normal;font-weight:normal;font-stretch:normal;font-size:medium;line-height:normal;font-family:sans-serif;font-variant-ligatures:normal;font-variant-position:normal;font-variant-caps:normal;font-variant-numeric:normal;font-variant-alternates:normal;font-feature-settings:normal;text-indent:0;text-align:start;text-decoration:none;text-decoration-line:none;text-decoration-style:solid;text-decoration-color:#000000;letter-spacing:normal;word-spacing:normal;text-transform:none;writing-mode:lr-tb;direction:ltr;text-orientation:mixed;dominant-baseline:auto;baseline-shift:baseline;text-anchor:start;white-space:normal;shape-padding:0;clip-rule:nonzero;display:inline;overflow:visible;visibility:visible;opacity:1;isolation:auto;mix-blend-mode:normal;color-interpolation:sRGB;color-interpolation-filters:linearRGB;solid-color:#000000;solid-opacity:1;vector-effect:none;fill:#000000;fill-opacity:1;fill-rule:nonzero;stroke:none;stroke-width:1px;stroke-linecap:butt;stroke-linejoin:round;stroke-miterlimit:4;stroke-dasharray:none;stroke-dashoffset:0;stroke-opacity:1;color-rendering:auto;image-rendering:auto;shape-rendering:auto;text-rendering:auto;enable-background:accumulate" />
  <path
     id="path864"
     d="M 8 1.6171875 L 5.9472656 5.7226562 C 5.862818 5.8924261 5.6896133 5.9998282 5.5 6 L 1.7070312 6 L 4.8535156 9.1464844 C 4.9875488 9.2803508 5.0344303 9.4784628 4.9746094 9.6582031 L 3.3769531 14.451172 L 7.7597656 12.060547 C 7.8358863 12.018851 7.9197838 12.001235 8.0039062 12.001953 L 8.0039062 1.625 L 8 1.6171875 z "
     style="color:#000000;font-style:normal;font-variant:normal;font-weight:normal;font-stretch:normal;font-size:medium;line-height:normal;font-family:sans-serif;font-variant-ligatures:normal;font-variant-position:normal;font-variant-caps:normal;font-variant-numeric:normal;font-variant-alternates:normal;font-feature-settings:normal;text-indent:0;text-align:start;text-decoration:none;text-decoration-line:none;text-decoration-style:solid;text-decoration-color:#000000;letter-spacing:normal;word-spacing:normal;text-transform:none;writing-mode:lr-tb;direction:ltr;text-orientation:mixed;dominant-baseline:auto;baseline-shift:baseline;text-anchor:start;white-space:normal;shape-padding:0;clip-rule:nonzero;display:inline;overflow:visible;visibility:visible;opacity:0.2;isolation:auto;mix-blend-mode:normal;color-interpolation:sRGB;color-interpolation-filters:linearRGB;solid-color:#000000;solid-opacity:1;vector-effect:none;fill:#000000;fill-opacity:1;fill-rule:nonzero;stroke:none;stroke-width:1px;stroke-linecap:butt;stroke-linejoin:round;stroke-miterlimit:4;stroke-dasharray:none;stroke-dashoffset:0;stroke-opacity:1;color-rendering:auto;image-rendering:auto;shape-rendering:auto;text-rendering:auto;enable-background:accumulate" />
</svg>
