<?xml version="1.0" encoding="UTF-8" standalone="no"?>
<svg
   xmlns:dc="http://purl.org/dc/elements/1.1/"
   xmlns:cc="http://creativecommons.org/ns#"
   xmlns:rdf="http://www.w3.org/1999/02/22-rdf-syntax-ns#"
   xmlns:svg="http://www.w3.org/2000/svg"
   xmlns="http://www.w3.org/2000/svg"
   id="svg6"
   version="1.1"
   viewBox="0 0 16 16">
  <metadata
     id="metadata12">
    <rdf:RDF>
      <cc:Work
         rdf:about="">
        <dc:format>image/svg+xml</dc:format>
        <dc:type
           rdf:resource="http://purl.org/dc/dcmitype/StillImage" />
      </cc:Work>
    </rdf:RDF>
  </metadata>
  <defs
     id="defs10" />
  <path
     id="path2"
     opacity=".2"
     d="M15 8a7 7 0 0 1-7 7 7 7 0 0 1-7-7 7 7 0 0 1 7-7 7 7 0 0 1 7 7z" />
  <path
     id="path4"
     d="M8 0C2.812-.197-1.358 5.471.358 10.364 1.64 15.068 7.639 17.5 11.834 15.02c3.257-1.722 4.973-5.863 3.809-9.384C14.67 2.343 11.43-.047 8 0zm0 1a6.988 6.988 0 0 1 5.213 2.34L7.979 9.068 5.447 6.41 4 7.79 8.008 12l6.34-6.936c1.55 3.13.238 7.263-2.798 8.96-2.81 1.745-6.784 1.06-8.878-1.495C-.272 9.312.873 3.601 4.825 1.762A7.005 7.005 0 0 1 8 1z" />
</svg>
