<svg xmlns="http://www.w3.org/2000/svg" viewBox="0 0 16 16" fill="currentColor" height="16px" width="16px">
    <path d="M8 .5l-2 3-4.5-2 2 4.5-3 2 3 2-2 4.5 4.5-2 2 3 2-3 4.5 2-2-4.5 3-2-3-2 1-3.5-3.5 1zM8 5a3 3 0 110 6 3 3 0 010-6z" opacity=".2"/>
    <path d="M7.992 0a.5.5 0 00-.408.223L5.818 2.87 1.703 1.043a.5.5 0 00-.66.66l1.828 4.115L.223 7.584a.5.5 0 000 .832l2.648 1.766-1.828 4.115a.5.5 0 00.66.66l4.115-1.828 1.766 2.648a.5.5 0 00.832 0l1.766-2.648 4.115 1.828a.5.5 0 00.66-.66l-1.828-4.115 2.648-1.766a.5.5 0 000-.832L13.13 5.818l1.828-4.115a.5.5 0 00-.66-.66l-4.115 1.828L8.416.223A.5.5 0 007.992 0zM8 1.402l1.584 2.375a.5.5 0 00.62.18l3.312-1.473-1.473 3.313a.5.5 0 00.18.619L14.598 8l-2.375 1.584a.5.5 0 00-.18.62l1.473 3.312-3.313-1.473a.5.5 0 00-.619.18L8 14.598l-1.584-2.375a.5.5 0 00-.62-.18l-3.312 1.473 1.473-3.313a.5.5 0 00-.18-.619L1.402 8l2.375-1.584a.5.5 0 00.18-.62L2.484 2.485l3.313 1.473a.5.5 0 00.619-.18L8 1.402zM8 4a4 4 0 100 8 4 4 0 000-8zm0 1a3 3 0 110 6 3 3 0 010-6z"/>
</svg>
