<?xml version="1.0" encoding="UTF-8" standalone="no"?>
<svg
   xmlns:dc="http://purl.org/dc/elements/1.1/"
   xmlns:cc="http://creativecommons.org/ns#"
   xmlns:rdf="http://www.w3.org/1999/02/22-rdf-syntax-ns#"
   xmlns:svg="http://www.w3.org/2000/svg"
   xmlns="http://www.w3.org/2000/svg"
   id="svg6"
   version="1.1"
   viewBox="0 0 16 16">
  <metadata
     id="metadata12">
    <rdf:RDF>
      <cc:Work
         rdf:about="">
        <dc:format>image/svg+xml</dc:format>
        <dc:type
           rdf:resource="http://purl.org/dc/dcmitype/StillImage" />
        <dc:title />
      </cc:Work>
    </rdf:RDF>
  </metadata>
  <defs
     id="defs10" />
  <path
     id="path831"
     d="m 8,0.5 -2,3 -4.5,-2 2,4.5 -3,2 3,2 -2,4.5 4.5,-2 2,3 2,-3 4.5,2 -2,-4.5 3,-2 -3,-2 1,-3.5 -3.5,1 z M 8,5 c 1.6568543,0 3,1.3431457 3,3 0,1.6568543 -1.3431457,3 -3,3 C 6.3431457,11 5,9.6568543 5,8 5,6.3431457 6.3431457,5 8,5 Z"
     style="opacity:0.2;fill:#000000;stroke:none;stroke-width:1px;stroke-linecap:round;stroke-linejoin:round;stroke-opacity:1" />
  <path
     id="path4"
     d="M 7.9921875 0 A 0.50005 0.50005 0 0 0 7.5839844 0.22265625 L 5.8183594 2.8710938 L 1.703125 1.0429688 A 0.50005 0.50005 0 0 0 1.0429688 1.703125 L 2.8710938 5.8183594 L 0.22265625 7.5839844 A 0.50005 0.50005 0 0 0 0.22265625 8.4160156 L 2.8710938 10.181641 L 1.0429688 14.296875 A 0.50005 0.50005 0 0 0 1.703125 14.957031 L 5.8183594 13.128906 L 7.5839844 15.777344 A 0.50005 0.50005 0 0 0 8.4160156 15.777344 L 10.181641 13.128906 L 14.296875 14.957031 A 0.50005 0.50005 0 0 0 14.957031 14.296875 L 13.128906 10.181641 L 15.777344 8.4160156 A 0.50005 0.50005 0 0 0 15.777344 7.5839844 L 13.128906 5.8183594 L 14.957031 1.703125 A 0.50005 0.50005 0 0 0 14.296875 1.0429688 L 10.181641 2.8710938 L 8.4160156 0.22265625 A 0.50005 0.50005 0 0 0 7.9921875 0 z M 8 1.4023438 L 9.5839844 3.7773438 A 0.50005 0.50005 0 0 0 10.203125 3.9570312 L 13.515625 2.484375 L 12.042969 5.796875 A 0.50005 0.50005 0 0 0 12.222656 6.4160156 L 14.597656 8 L 12.222656 9.5839844 A 0.50005 0.50005 0 0 0 12.042969 10.203125 L 13.515625 13.515625 L 10.203125 12.042969 A 0.50005 0.50005 0 0 0 9.5839844 12.222656 L 8 14.597656 L 6.4160156 12.222656 A 0.50005 0.50005 0 0 0 5.796875 12.042969 L 2.484375 13.515625 L 3.9570312 10.203125 A 0.50005 0.50005 0 0 0 3.7773438 9.5839844 L 1.4023438 8 L 3.7773438 6.4160156 A 0.50005 0.50005 0 0 0 3.9570312 5.796875 L 2.484375 2.484375 L 5.796875 3.9570312 A 0.50005 0.50005 0 0 0 6.4160156 3.7773438 L 8 1.4023438 z M 8 4 C 5.790861 4 4 5.790861 4 8 C 4 10.209139 5.790861 12 8 12 C 10.209139 12 12 10.209139 12 8 C 12 5.790861 10.209139 4 8 4 z M 8 5 C 9.6568542 5 11 6.3431458 11 8 C 11 9.6568542 9.6568542 11 8 11 C 6.3431458 11 5 9.6568542 5 8 C 5 6.3431458 6.3431458 5 8 5 z "
     style="opacity:1;stroke-width:1" />
</svg>
