<?xml version="1.0" encoding="UTF-8" standalone="no"?>
<svg
   xmlns:dc="http://purl.org/dc/elements/1.1/"
   xmlns:cc="http://creativecommons.org/ns#"
   xmlns:rdf="http://www.w3.org/1999/02/22-rdf-syntax-ns#"
   xmlns:svg="http://www.w3.org/2000/svg"
   xmlns="http://www.w3.org/2000/svg"
   id="svg6"
   version="1.1"
   viewBox="0 0 16 16">
  <metadata
     id="metadata12">
    <rdf:RDF>
      <cc:Work
         rdf:about="">
        <dc:format>image/svg+xml</dc:format>
        <dc:type
           rdf:resource="http://purl.org/dc/dcmitype/StillImage" />
        <dc:title />
      </cc:Work>
    </rdf:RDF>
  </metadata>
  <defs
     id="defs10" />
  <path
     id="path840"
     d="M 1 1 L 1 8 L 8 15 L 15 8 L 8 1 L 1 1 z M 4 3 A 1 1 0 0 1 5 4 A 1 1 0 0 1 4 5 A 1 1 0 0 1 3 4 A 1 1 0 0 1 4 3 z "
     style="fill:#000000;stroke:none;stroke-width:1px;stroke-linecap:butt;stroke-linejoin:miter;stroke-opacity:1;fill-opacity:1;opacity:0.2" />
  <path
     id="rect836"
     d="M 0.5 0 A 0.50005 0.50005 0 0 0 0 0.5 L 0 8 A 0.50005 0.50005 0 0 0 0.14648438 8.3535156 L 7.6464844 15.853516 A 0.50005 0.50005 0 0 0 8.3535156 15.853516 L 15.853516 8.3535156 A 0.50005 0.50005 0 0 0 15.853516 7.6464844 L 8.3535156 0.14648438 A 0.50005 0.50005 0 0 0 8 0 L 0.5 0 z M 1 1 L 7.7929688 1 L 14.792969 8 L 8 14.792969 L 1 7.7929688 L 1 1 z M 4 2 C 2.8954305 2 2 2.8954305 2 4 C 2 5.1045695 2.8954305 6 4 6 C 5.1045695 6 6 5.1045695 6 4 C 6 2.8954305 5.1045695 2 4 2 z M 4 3 C 4.5522847 3 5 3.4477153 5 4 C 5 4.5522847 4.5522847 5 4 5 C 3.4477153 5 3 4.5522847 3 4 C 3 3.4477153 3.4477153 3 4 3 z "
     style="opacity:1;fill:#000000;fill-opacity:1;stroke:none;stroke-width:2;stroke-linecap:round;stroke-linejoin:round;stroke-miterlimit:4;stroke-dasharray:none;stroke-dashoffset:0;stroke-opacity:1" />
</svg>
