<?xml version="1.0" encoding="UTF-8" standalone="no"?>
<svg
   xmlns:dc="http://purl.org/dc/elements/1.1/"
   xmlns:cc="http://creativecommons.org/ns#"
   xmlns:rdf="http://www.w3.org/1999/02/22-rdf-syntax-ns#"
   xmlns:svg="http://www.w3.org/2000/svg"
   xmlns="http://www.w3.org/2000/svg"
   id="svg6"
   version="1.1"
   viewBox="0 0 16 16">
  <metadata
     id="metadata12">
    <rdf:RDF>
      <cc:Work
         rdf:about="">
        <dc:format>image/svg+xml</dc:format>
        <dc:type
           rdf:resource="http://purl.org/dc/dcmitype/StillImage" />
        <dc:title />
      </cc:Work>
    </rdf:RDF>
  </metadata>
  <defs
     id="defs10" />
  <path
     id="rect842"
     d="M 8 1 C 6.892 1 6 1.892 6 3 L 6 6.0917969 C 5.8427787 6.0361391 5.6767598 6 5.5 6 L 2.5 6 C 1.669 6 1 6.669 1 7.5 L 1 12.5 C 1 13.331 1.669 14 2.5 14 L 5.5 14 C 6.0358999 14 6.5004434 13.719298 6.765625 13.298828 C 7.2147186 13.731765 7.8240523 14 8.5 14 L 13.5 14 C 14.885 14 16 12.885 16 11.5 L 16 7.5 C 16 6.115 14.885 5 13.5 5 L 10 5 L 10 3 C 10 1.892 9.108 1 8 1 z M 7.9746094 2 L 8.0253906 2 C 8.5649636 2 9 2.4838177 9 3.0839844 L 9 6 L 13.5 6 C 14.331 6 15 6.669 15 7.5 L 15 11.5 C 15 12.331 14.331 13 13.5 13 L 8.5 13 C 7.669 13 7 12.331 7 11.5 L 7 8.9160156 L 7 7.5 L 7 3.0839844 C 7 2.4838177 7.4350364 2 7.9746094 2 z M 2.5 7 L 5.5 7 C 5.777 7 6 7.223 6 7.5 L 6 10 L 2 10 L 2 7.5 C 2 7.223 2.223 7 2.5 7 z M 3.5 8 C 3.223 8 3 8.223 3 8.5 C 3 8.777 3.223 9 3.5 9 C 3.777 9 4 8.777 4 8.5 C 4 8.223 3.777 8 3.5 8 z M 2 11 L 6 11 L 6 12.5 C 6 12.777 5.777 13 5.5 13 L 2.5 13 C 2.223 13 2 12.777 2 12.5 L 2 11 z "
     style="opacity:1;fill:#000000;fill-opacity:1;stroke:none;stroke-width:1;stroke-linecap:round;stroke-linejoin:round;stroke-miterlimit:4;stroke-dasharray:none;stroke-dashoffset:0.5;stroke-opacity:1" />
  <path
     id="rect844"
     d="M 7.9746094 2 C 7.4350364 2 7 2.4838177 7 3.0839844 L 7 7.5 L 7 8.9160156 L 7 11.5 C 7 12.331 7.669 13 8.5 13 L 13.5 13 C 14.331 13 15 12.331 15 11.5 L 15 7.5 C 15 6.669 14.331 6 13.5 6 L 9 6 L 9 3.0839844 C 9 2.4838177 8.5649636 2 8.0253906 2 L 7.9746094 2 z "
     style="opacity:0.2;fill:#000000;fill-opacity:1;stroke:none;stroke-width:1;stroke-linecap:round;stroke-linejoin:round;stroke-miterlimit:4;stroke-dasharray:none;stroke-dashoffset:0.5;stroke-opacity:1" />
</svg>
