<svg xmlns="http://www.w3.org/2000/svg" viewBox="0 0 16 16" fill="currentColor" height="16px" width="16px">
    <path d="M8 1c-1.108 0-2 .892-2 2v3.092A1.489 1.489 0 005.5 6h-3C1.669 6 1 6.669 1 7.5v5c0 .831.669 1.5 1.5 1.5h3c.536 0 1-.28 1.266-.701.449.433 1.058.701 1.734.701h5c1.385 0 2.5-1.115 2.5-2.5v-4C16 6.115 14.885 5 13.5 5H10V3c0-1.108-.892-2-2-2zm-.025 1h.05C8.565 2 9 2.484 9 3.084V6h4.5c.831 0 1.5.669 1.5 1.5v4c0 .831-.669 1.5-1.5 1.5h-5c-.831 0-1.5-.669-1.5-1.5V3.084C7 2.484 7.435 2 7.975 2zM2.5 7h3c.277 0 .5.223.5.5V10H2V7.5c0-.277.223-.5.5-.5zm1 1a.499.499 0 100 1 .499.499 0 100-1zM2 11h4v1.5c0 .277-.223.5-.5.5h-3a.499.499 0 01-.5-.5V11z"/>
    <path d="M7.975 2C7.435 2 7 2.484 7 3.084V11.5c0 .831.669 1.5 1.5 1.5h5c.831 0 1.5-.669 1.5-1.5v-4c0-.831-.669-1.5-1.5-1.5H9V3.084C9 2.484 8.565 2 8.025 2h-.05z" opacity=".2"/>
    <path d="M2.5 7h3c.277 0 .5.223.5.5v5c0 .277-.223.5-.5.5h-3a.499.499 0 01-.5-.5v-5c0-.277.223-.5.5-.5z" opacity=".1"/>
</svg>
