<svg xmlns="http://www.w3.org/2000/svg" viewBox="0 0 16 16" fill="currentColor" height="16px" width="16px">
    <path d="M8 15c-1.108 0-2-.892-2-2V9.908a1.489 1.489 0 01-.5.092h-3C1.669 10 1 9.331 1 8.5v-5C1 2.669 1.669 2 2.5 2h3c.536 0 1 .28 1.266.701A2.489 2.489 0 018.5 2h5C14.885 2 16 3.115 16 4.5v4c0 1.385-1.115 2.5-2.5 2.5H10v2c0 1.108-.892 2-2 2zm-.025-1h.05c.54 0 .975-.484.975-1.084V10h4.5c.831 0 1.5-.669 1.5-1.5v-4c0-.831-.669-1.5-1.5-1.5h-5C7.669 3 7 3.669 7 4.5v8.416c0 .6.435 1.084.975 1.084zM2.5 9h3c.277 0 .5-.223.5-.5V7H2v1.5c0 .277.223.5.5.5zm1-4a.499.499 0 110-1 .499.499 0 110 1zM2 6h4V3.5c0-.277-.223-.5-.5-.5h-3c-.277 0-.5.223-.5.5z"/>
    <path d="M7.975 14C7.435 14 7 13.516 7 12.916V4.5C7 3.669 7.669 3 8.5 3h5c.831 0 1.5.669 1.5 1.5v4c0 .831-.669 1.5-1.5 1.5H9v2.916c0 .6-.435 1.084-.975 1.084z" opacity=".2"/>
    <path d="M2.5 3h3c.277 0 .5.223.5.5v5c0 .277-.223.5-.5.5h-3a.499.499 0 01-.5-.5v-5c0-.277.223-.5.5-.5z" opacity=".1"/>
</svg>
