<?xml version="1.0" encoding="UTF-8" standalone="no"?>
<svg
   xmlns:dc="http://purl.org/dc/elements/1.1/"
   xmlns:cc="http://creativecommons.org/ns#"
   xmlns:rdf="http://www.w3.org/1999/02/22-rdf-syntax-ns#"
   xmlns:svg="http://www.w3.org/2000/svg"
   xmlns="http://www.w3.org/2000/svg"
   id="svg6"
   version="1.1"
   viewBox="0 0 16 16">
  <metadata
     id="metadata12">
    <rdf:RDF>
      <cc:Work
         rdf:about="">
        <dc:format>image/svg+xml</dc:format>
        <dc:type
           rdf:resource="http://purl.org/dc/dcmitype/StillImage" />
      </cc:Work>
    </rdf:RDF>
  </metadata>
  <defs
     id="defs10" />
  <path
     id="path2"
     opacity=".2"
     d="M3 3c-.554 0-1 .446-1 1v1c0 .554.446 1 1 1h10c.554 0 1-.446 1-1V4c0-.554-.446-1-1-1H3zm0 4v7c0 .554.446 1 1 1h8c.554 0 1-.446 1-1V7H3z" />
  <path
     id="path4"
     d="M6.5 0C5.678 0 5 .678 5 1.5V2H3c-1.1 0-2 .9-2 2v1c0 .734.406 1.37 1 1.719V14c0 1.1.9 2 2 2h8c1.1 0 2-.9 2-2V6.719c.594-.348 1-.985 1-1.719V4c0-1.1-.9-2-2-2h-2v-.5C11 .678 10.322 0 9.5 0h-3zm0 1h3c.286 0 .5.214.5.5V2H6v-.5c0-.286.214-.5.5-.5zM3 3h10c.563 0 1 .437 1 1v1c0 .563-.437 1-1 1H3c-.563 0-1-.437-1-1V4c0-.563.437-1 1-1zm0 4h10v7c0 .563-.437 1-1 1H4c-.563 0-1-.437-1-1V7zm1.5 1c-.277 0-.5.223-.5.5v5a.499.499 0 1 0 1 0v-5c0-.277-.223-.5-.5-.5zm2 0c-.277 0-.5.223-.5.5v5a.499.499 0 1 0 1 0v-5c0-.277-.223-.5-.5-.5zm3 0c-.277 0-.5.223-.5.5v5a.499.499 0 1 0 1 0v-5c0-.277-.223-.5-.5-.5zm2 0c-.277 0-.5.223-.5.5v5a.499.499 0 1 0 1 0v-5c0-.277-.223-.5-.5-.5z" />
</svg>
