<svg xmlns="http://www.w3.org/2000/svg" viewBox="0 0 16 16" fill="currentColor" height="16px" width="16px">
    <path d="M7.941 0c-.466.019-.9.258-1.168.64l-4.502 5C1.611 6.588 2.346 8 3.5 8h1.148l-2.377 2.64c-.66.947.075 2.36 1.229 2.36H6v3h4.002L10 13h2.5c1.154 0 1.89-1.413 1.229-2.36v-.001L11.354 8H12.5c1.154 0 1.89-1.413 1.229-2.36V5.64L9.23.64A1.503 1.503 0 0 0 7.943 0h-.002zm.041 1a.5.5 0 0 1 .43.213l4.498 5A.5.5 0 0 1 12.5 7h-1.977a.612.612 0 0 0-.03-.002.612.612 0 0 0-.614.611.612.612 0 0 0 .14.391l.004.004a.612.612 0 0 0 .014.016l2.873 3.193a.5.5 0 0 1-.41.787h-9a.5.5 0 0 1-.41-.787l2.867-3.186L5.982 8a.612.612 0 0 0 .141-.39.612.612 0 0 0-.611-.612A.612.612 0 0 0 5.47 7H3.5a.5.5 0 0 1-.41-.787l4.502-5A.501.501 0 0 1 7.982 1zM7 13h2l.002 2H7v-2z"/>
    <path d="M7 13h2l.002 2H7z" opacity="0.4"/>
    <path d="M7.982 1a.5.5 0 0 1 .43.213l4.498 5A.5.5 0 0 1 12.5 7h-1.977a.612.612 0 0 0-.504 1l.004.004.014.016 2.873 3.193a.5.5 0 0 1-.41.787h-9a.5.5 0 0 1-.41-.787l2.867-3.186L5.982 8a.612.612 0 0 0-.511-1H3.5a.5.5 0 0 1-.41-.787l4.502-5A.501.501 0 0 1 7.982 1z" opacity="0.2"/>
</svg>
