<?xml version="1.0" encoding="UTF-8" standalone="no"?>
<svg
   xmlns:dc="http://purl.org/dc/elements/1.1/"
   xmlns:cc="http://creativecommons.org/ns#"
   xmlns:rdf="http://www.w3.org/1999/02/22-rdf-syntax-ns#"
   xmlns:svg="http://www.w3.org/2000/svg"
   xmlns="http://www.w3.org/2000/svg"
   id="svg6"
   version="1.1"
   width="16"
   height="16.004">
  <metadata
     id="metadata12">
    <rdf:RDF>
      <cc:Work
         rdf:about="">
        <dc:format>image/svg+xml</dc:format>
        <dc:type
           rdf:resource="http://purl.org/dc/dcmitype/StillImage" />
        <dc:title />
      </cc:Work>
    </rdf:RDF>
  </metadata>
  <defs
     id="defs10" />
  <g
     id="g4"
     transform="translate(-1053 -61)" />
  <path
     id="path4527"
     d="M 1 1.0039062 C 0.45464862 1.0039062 0 1.4585549 0 2.0039062 L 0 12.003906 C 0 12.549258 0.45464862 13.003906 1 13.003906 L 2 13.003906 L 1 15.003906 L 3 15.003906 L 4 13.003906 L 12 13.003906 L 13 15.003906 L 15 15.003906 L 14 13.003906 L 15 13.003906 C 15.545351 13.003906 16 12.549258 16 12.003906 L 16 2.0039062 C 16 1.4585549 15.545351 1.0039062 15 1.0039062 L 1 1.0039062 z M 1 2.0039062 L 15 2.0039062 L 15 12.003906 L 1 12.003906 L 1 2.0039062 z "
     style="fill:#000000;stroke:none;stroke-width:1px;stroke-linecap:butt;stroke-linejoin:miter;stroke-opacity:1;fill-opacity:1.0" />
  <path
     id="path2-1"
     d="M 15,2.0039997 V 12.004 c -4.666667,-10e-7 -9.3333333,1e-6 -14,0 0,-1.328198 0,-2.6585571 0,-4.0000003 z"
     style="opacity:0.2" />
</svg>
