<svg xmlns="http://www.w3.org/2000/svg" viewBox="0 0 16 16" fill="currentColor" height="16px" width="16px">
    <rect width="13" height="9" x="1.5" y="6.5" opacity=".3" rx="1.5" ry="1.5"/>
    <path d="M8 0a5 5 0 00-5 5v1c-1.1 0-2 .9-2 2v6c0 1.1.9 2 2 2h10c1.1 0 2-.9 2-2V8c0-1.1-.9-2-2-2H6V5c0-1.117.883-2 2-2 .553 0 1.043.22 1.404.576l.006.006a.5.5 0 00.008.006c.28.269.653.418 1.041.418.823-.001 1.5-.68 1.502-1.502 0-.567-.328-1.084-.834-1.338C10.277.464 9.205 0 8 0zm0 1c.992 0 1.874.378 2.576.984a.5.5 0 00.106.069.5.5 0 01.279.45.495.495 0 01-.502.503.505.505 0 01-.35-.14h-.002A2.997 2.997 0 008 2C6.347 2 5 3.347 5 5v1H4V5c0-2.225 1.775-4 4-4zM3 7h10c.563 0 1 .437 1 1v6c0 .563-.437 1-1 1H3c-.563 0-1-.437-1-1V8c0-.563.437-1 1-1zm5 2a1 1 0 00-1 1 1 1 0 00.684.947L7 13h2l-.684-2.05A1 1 0 009 10a1 1 0 00-1-1z"/>
    <path d="M8 .5A4.49 4.49 0 003.5 5v1.5h2V5c0-1.385 1.115-2.5 2.5-2.5a2.49 2.49 0 011.756.72l.008.007a1.003 1.003 0 00.695.279 1.003 1.003 0 001.002-1.002 1.003 1.003 0 00-.559-.899C10.12.93 9.12.5 8 .5z" opacity=".2"/>
</svg>
