<svg xmlns="http://www.w3.org/2000/svg" viewBox="0 0 16 16">
  <path d="M6.5.5c-2.216 0-4 1.784-4 4 0 .36.062.703.15 1.035A2.486 2.486 0 0 0 .5 8c0 1.385 1.115 2.5 2.5 2.5v.168l4.59-6.455a.501.501 0 0 1 .82 0L13 10.664V10.5c0 .164 2.5-1.115 2.5-2.5a2.493 2.493 0 0 0-2.006-2.451c0-.017.006-.032.006-.049 0-1.662-1.338-3-3-3-.18 0-.353.023-.523.053A3.973 3.973 0 0 0 6.5.5z" opacity=".2"/>
  <path d="M6.5 0A4.501 4.501 0 0 0 2 4.5c0 .284.062.535.113.791C.928 5.689 0 6.681 0 8c0 1.653 1.347 3 3 3v-1c-1.117 0-2-.883-2-2 0-1.02.74-1.832 1.719-1.969l.56-.08-.146-.545A3.496 3.496 0 0 1 3 4.5C3 2.552 4.552 1 6.5 1c1.32 0 2.441.725 3.041 1.797l.172.31.35-.062c.155-.028.3-.045.437-.045C11.894 3 13 4.106 13 5.5c0-.094-.004-.082-.006.041l-.006.416.408.082C14.314 6.221 15 7.02 15 8c0 1.117-.883 2-2 2v1c1.653 0 3-1.347 3-3 0-1.298-.886-2.309-2.045-2.725C13.833 3.455 12.351 2 10.5 2c-.128 0-.236.021-.352.035C9.343.845 8.05 0 6.5 0zm1.48 6a.5.5 0 0 0-.39.213l-3.498 5a.5.5 0 0 0 .41.787h2.496v4H9l-.002-4h2.5a.5.5 0 0 0 .41-.787l-3.498-5A.5.5 0 0 0 7.98 6z"/>
</svg>
