<svg xmlns="http://www.w3.org/2000/svg" viewBox="0 0 16 16" fill="currentColor" height="16px" width="16px">
    <path d="M8 0c-.554 0-1 .446-1 1v1h-.5A3.492 3.492 0 0 0 3 5.5C3 7.439 4.561 9 6.5 9H7v3c-1.5 0-2-.5-2-1 0-.554-.446-1-1-1s-1 .446-1 1c0 1.5 2 3 3.943 3H7v1c0 .554.446 1 1 1s1-.446 1-1v-1h.5c1.939 0 3.5-1.561 3.5-3.5S11.439 7 9.5 7H9V4c1.5 0 2 .5 2 1 0 .554.446 1 1 1s1-.446 1-1c0-1.5-2-3-3.943-3H9V1c0-.554-.446-1-1-1zM6.5 4H7v3h-.5C5.669 7 5 6.331 5 5.5S5.669 4 6.5 4zM9 9h.5c.831 0 1.5.669 1.5 1.5S10.331 12 9.5 12H9V9z"/>
</svg>
