<?xml version="1.0" encoding="UTF-8" standalone="no"?>
<svg
   xmlns:dc="http://purl.org/dc/elements/1.1/"
   xmlns:cc="http://creativecommons.org/ns#"
   xmlns:rdf="http://www.w3.org/1999/02/22-rdf-syntax-ns#"
   xmlns:svg="http://www.w3.org/2000/svg"
   xmlns="http://www.w3.org/2000/svg"
   id="svg6"
   version="1.1"
   viewBox="0 0 16 16">
  <metadata
     id="metadata12">
    <rdf:RDF>
      <cc:Work
         rdf:about="">
        <dc:format>image/svg+xml</dc:format>
        <dc:type
           rdf:resource="http://purl.org/dc/dcmitype/StillImage" />
      </cc:Work>
    </rdf:RDF>
  </metadata>
  <defs
     id="defs10" />
  <path
     id="path2"
     opacity=".2"
     d="M2 2v12h.355a6.03 6.03 0 0 1 3.543-3.613A3.99 3.99 0 0 1 4 7c0-2.203 1.797-4 4-4 2.203 0 4 1.797 4 4a3.99 3.99 0 0 1-1.898 3.387A6.03 6.03 0 0 1 13.645 14H14V2H2z" />
  <path
     id="path4"
     d="M1 1v14h14V1H1zm1 1h12v12h-.355a6.03 6.03 0 0 0-3.543-3.613A3.99 3.99 0 0 0 12 7c0-2.203-1.797-4-4-4-2.203 0-4 1.797-4 4 0 1.43.764 2.68 1.898 3.387A6.03 6.03 0 0 0 2.355 14H2V2zm6 2c1.663 0 3 1.337 3 3s-1.337 3-3 3-3-1.337-3-3 1.337-3 3-3zm0 7a4.988 4.988 0 0 1 4.58 3H3.42c.77-1.767 2.525-3 4.58-3z" />
</svg>
