<svg xmlns="http://www.w3.org/2000/svg" viewBox="0 0 16 16" fill="currentColor" height="16px" width="16px">
    <path d="M8 0a8 8 0 00-8 8 8 8 0 006.664 7.885 8 8 0 00.793.095A8 8 0 008 16a8 8 0 001.59-.16 8 8 0 00.773-.197 8 8 0 002.856-1.584 8 8 0 00.338-.305 6 6 0 00-.004-.008A8 8 0 0016 8a8 8 0 00-8-8zm0 1a7 7 0 017 7 7 7 0 01-1.932 4.813 6 6 0 00-2.955-2.42 3.994 3.994 0 001.881-3.387A3.994 3.994 0 008 3.012a3.994 3.994 0 00-3.994 3.994 3.994 3.994 0 001.879 3.383 6 6 0 00-2.95 2.42A7 7 0 011 8a7 7 0 017-7zm0 3a3 3 0 110 6 3 3 0 010-6zm0 7a5 5 0 014.326 2.5A7 7 0 018 15a7.002 7.002 0 01-4.32-1.502A5 5 0 018 11z"/>
    <path d="M8 1a7 7 0 00-6.965 6.3A7 7 0 001 8a7 7 0 00.016.422 7 7 0 00.076.683 7 7 0 001.844 3.704 6 6 0 012.949-2.42 3.994 3.994 0 01-1.88-3.383A3.994 3.994 0 018 3.012a3.994 3.994 0 013.994 3.994 3.994 3.994 0 01-1.88 3.387 6 6 0 012.954 2.42A7 7 0 0015 8a7 7 0 00-7-7z" opacity=".2"/>
</svg>
