<?xml version="1.0" encoding="UTF-8" standalone="no"?>
<svg
   xmlns:dc="http://purl.org/dc/elements/1.1/"
   xmlns:cc="http://creativecommons.org/ns#"
   xmlns:rdf="http://www.w3.org/1999/02/22-rdf-syntax-ns#"
   xmlns:svg="http://www.w3.org/2000/svg"
   xmlns="http://www.w3.org/2000/svg"
   id="svg6"
   version="1.1"
   viewBox="0 0 16 16">
  <metadata
     id="metadata12">
    <rdf:RDF>
      <cc:Work
         rdf:about="">
        <dc:format>image/svg+xml</dc:format>
        <dc:type
           rdf:resource="http://purl.org/dc/dcmitype/StillImage" />
      </cc:Work>
    </rdf:RDF>
  </metadata>
  <defs
     id="defs10" />
  <path
     id="path2"
     d="M8 0a8 8 0 0 0-8 8 8 8 0 0 0 6.664 7.885 8 8 0 0 0 .793.095A8 8 0 0 0 8 16a8 8 0 0 0 1.59-.16 8 8 0 0 0 .773-.197 8 8 0 0 0 2.856-1.584 8 8 0 0 0 .338-.305 6 6 0 0 0-.004-.008A8 8 0 0 0 16 8a8 8 0 0 0-8-8zm0 1a7 7 0 0 1 7 7 7 7 0 0 1-1.932 4.813 6 6 0 0 0-2.955-2.42 3.994 3.994 0 0 0 1.881-3.387A3.994 3.994 0 0 0 8 3.012a3.994 3.994 0 0 0-3.994 3.994 3.994 3.994 0 0 0 1.879 3.383 6 6 0 0 0-2.95 2.42A7 7 0 0 1 1 8a7 7 0 0 1 7-7zm0 3a3 3 0 1 1 0 6 3 3 0 0 1 0-6zm0 7a5 5 0 0 1 4.326 2.5A7 7 0 0 1 8 15a7.002 7.002 0 0 1-4.32-1.502A5 5 0 0 1 8 11z" />
  <path
     id="path4"
     opacity=".2"
     d="M8 1a7 7 0 0 0-6.965 6.3A7 7 0 0 0 1 8a7 7 0 0 0 .016.422 7 7 0 0 0 .076.683 7 7 0 0 0 1.844 3.704 6 6 0 0 1 2.949-2.42 3.994 3.994 0 0 1-1.88-3.383A3.994 3.994 0 0 1 8 3.012a3.994 3.994 0 0 1 3.994 3.994 3.994 3.994 0 0 1-1.88 3.387 6 6 0 0 1 2.954 2.42A7 7 0 0 0 15 8a7 7 0 0 0-7-7z" />
</svg>
