<?xml version="1.0" encoding="UTF-8" standalone="no"?>
<svg
   xmlns:dc="http://purl.org/dc/elements/1.1/"
   xmlns:cc="http://creativecommons.org/ns#"
   xmlns:rdf="http://www.w3.org/1999/02/22-rdf-syntax-ns#"
   xmlns:svg="http://www.w3.org/2000/svg"
   xmlns="http://www.w3.org/2000/svg"
   id="svg6"
   version="1.1"
   viewBox="0 0 16 16">
  <metadata
     id="metadata12">
    <rdf:RDF>
      <cc:Work
         rdf:about="">
        <dc:format>image/svg+xml</dc:format>
        <dc:type
           rdf:resource="http://purl.org/dc/dcmitype/StillImage" />
      </cc:Work>
    </rdf:RDF>
  </metadata>
  <defs
     id="defs10" />
  <path
     id="path2"
     opacity=".2"
     d="M2.96 2v11.996c.014 0 .027.004.04.004h10V2zM5 4l3.5 2 2.746 1.568.754.434L8.5 10 5 12V8.002z" />
  <path
     id="path4"
     d="M0 1v14h16V1H0zm1 1h1v1H1V2zm1.96 0H13v12H2.96V2zM14 2h1v1h-1V2zM1 4h1v1H1V4zm4 0v8l3.5-2L12 8.002l-.754-.434L8.5 6 5 4zm9 0h1v1h-1V4zM6.006 5.723l1.99 1.138 1.992 1.137-1.992 1.14-1.99 1.14V5.722zM1 6h1v1H1V6zm13 0h1v1h-1V6zM1 8h1v1H1V8zm13 0h1v1h-1V8zM1 10h1v1H1v-1zm13 0h1v1h-1v-1zM1 12h1v1H1v-1zm13 0h1v1h-1v-1z" />
</svg>
