<?xml version="1.0" encoding="UTF-8" standalone="no"?>
<svg
   xmlns:dc="http://purl.org/dc/elements/1.1/"
   xmlns:cc="http://creativecommons.org/ns#"
   xmlns:rdf="http://www.w3.org/1999/02/22-rdf-syntax-ns#"
   xmlns:svg="http://www.w3.org/2000/svg"
   xmlns="http://www.w3.org/2000/svg"
   id="svg6"
   version="1.1"
   viewBox="0 0 16 16">
  <metadata
     id="metadata12">
    <rdf:RDF>
      <cc:Work
         rdf:about="">
        <dc:format>image/svg+xml</dc:format>
        <dc:type
           rdf:resource="http://purl.org/dc/dcmitype/StillImage" />
        <dc:title />
      </cc:Work>
    </rdf:RDF>
  </metadata>
  <defs
     id="defs10" />
  <path
     id="rect854"
     d="M 2 5 C 1.446 5 1 5.446 1 6 L 1 13 C 1 13.554 1.446 14 2 14 L 11 14 C 11.554 14 12 13.554 12 13 L 12 6 C 12 5.446 11.554 5 11 5 L 2 5 z M 3.5 8 L 7.5 8 C 7.777 8 8 8.223 8 8.5 L 8 10.5 C 8 10.777 7.777 11 7.5 11 L 3.5 11 C 3.223 11 3 10.777 3 10.5 L 3 8.5 C 3 8.223 3.223 8 3.5 8 z "
     style="opacity:0.2;fill:#000000;fill-opacity:1;stroke:none;stroke-width:2;stroke-linecap:round;stroke-linejoin:round;stroke-miterlimit:4;stroke-dasharray:none;stroke-dashoffset:0;stroke-opacity:1" />
  <path
     id="path4"
     d="M 4 1 C 3.446 1 3 1.446 3 2 C 3 2.554 3.446 3 4 3 L 8 3 L 8 3.5 L 8 4 L 2 4 C 0.892 4 0 4.892 0 6 L 0 13 C 0 14.108 0.892 15 2 15 L 11 15 C 12.108 15 13 14.108 13 13 L 13 11.707031 L 15.146484 13.853516 A 0.50005 0.50005 0 0 0 16 13.5 L 16 5.5 A 0.50005 0.50005 0 0 0 15.484375 5 A 0.50005 0.50005 0 0 0 15.146484 5.1464844 L 13 7.2929688 L 13 6 C 13 4.892 12.108 4 11 4 L 10 4 L 10 3.5 L 10 3 L 10 2 C 10 1.446 9.554 1 9 1 L 8 1 L 4 1 z M 2 5 L 11 5 C 11.554 5 12 5.446 12 6 L 12 8.5 L 12 10.5 L 12 13 C 12 13.554 11.554 14 11 14 L 2 14 C 1.446 14 1 13.554 1 13 L 1 6 C 1 5.446 1.446 5 2 5 z M 10.5 6 A 0.5 0.5 0 0 0 10 6.5 A 0.5 0.5 0 0 0 10.5 7 A 0.5 0.5 0 0 0 11 6.5 A 0.5 0.5 0 0 0 10.5 6 z M 15 6.7070312 L 15 12.292969 L 13 10.292969 L 13 8.7070312 L 15 6.7070312 z M 3.5 7 C 2.669 7 2 7.669 2 8.5 L 2 10.5 C 2 11.331 2.669 12 3.5 12 L 7.5 12 C 8.331 12 9 11.331 9 10.5 L 9 8.5 C 9 7.669 8.331 7 7.5 7 L 3.5 7 z M 3.5 8 L 7.5 8 C 7.777 8 8 8.223 8 8.5 L 8 10.5 C 8 10.777 7.777 11 7.5 11 L 3.5 11 C 3.223 11 3 10.777 3 10.5 L 3 8.5 C 3 8.223 3.223 8 3.5 8 z " />
  <rect
     style="opacity:0.3;fill:#000000;fill-opacity:1;stroke:none;stroke-width:2;stroke-linecap:round;stroke-linejoin:round;stroke-miterlimit:4;stroke-dasharray:none;stroke-dashoffset:0;stroke-opacity:1"
     id="rect856"
     width="5"
     height="3"
     x="3"
     y="8"
     rx="0.5"
     ry="0.5" />
  <path
     style="opacity:0.4"
     d="m 15,6.7070312 v 5.5859378 l -2,-2 V 8.7070312 Z"
     id="path858" />
</svg>
