<?xml version="1.0" encoding="UTF-8" standalone="no"?>
<svg
   xmlns:dc="http://purl.org/dc/elements/1.1/"
   xmlns:cc="http://creativecommons.org/ns#"
   xmlns:rdf="http://www.w3.org/1999/02/22-rdf-syntax-ns#"
   xmlns:svg="http://www.w3.org/2000/svg"
   xmlns="http://www.w3.org/2000/svg"
   id="svg6"
   version="1.1"
   viewBox="0 0 16 16">
  <metadata
     id="metadata12">
    <rdf:RDF>
      <cc:Work
         rdf:about="">
        <dc:format>image/svg+xml</dc:format>
        <dc:type
           rdf:resource="http://purl.org/dc/dcmitype/StillImage" />
        <dc:title />
      </cc:Work>
    </rdf:RDF>
  </metadata>
  <defs
     id="defs10" />
  <circle
     style="opacity:0.2;vector-effect:none;fill:#000000;fill-opacity:1;stroke:none;stroke-width:1;stroke-linecap:round;stroke-linejoin:miter;stroke-miterlimit:4;stroke-dasharray:none;stroke-dashoffset:0.5;stroke-opacity:1;marker:none"
     id="circle835"
     cx="8"
     cy="8"
     r="3.5" />
  <path
     id="rect822"
     d="M 8.0019531 3 C 5.3694856 2.9894147 3.4587832 4.2001175 2.1933594 5.5214844 C 0.92793551 6.8428512 0.26950198 8.2861472 0.04296875 8.7988281 L 0 8.8945312 L 0 9.1054688 L 0.04296875 9.2011719 C 0.2699987 9.714977 0.928068 11.152105 2.1933594 12.470703 C 3.4586507 13.789301 5.3684822 15 8 15 C 10.631518 15 12.538727 13.789276 13.804688 12.470703 C 15.070646 11.15213 15.730249 9.7164609 15.957031 9.2011719 L 16 9.1054688 L 16 8.8945312 L 15.957031 8.7988281 C 15.729756 8.2824173 15.070512 6.8509595 13.804688 5.5351562 C 12.538861 4.219353 10.632513 3.0105776 8.0019531 3 z M 7.9980469 4 C 5.7957359 4.0010786 4 5.7974449 4 8 C 4 10.203217 5.7967833 12 8 12 C 10.203217 12 12 10.203217 12 8 C 12 5.7974449 10.204264 4.0010786 8.0019531 4 C 10.329888 4.0105542 11.950219 5.0499871 13.083984 6.2285156 C 14.141593 7.3278799 14.66097 8.4489705 14.910156 9 C 14.660633 9.5523746 14.141608 10.677719 13.083984 11.779297 C 11.949697 12.960724 10.329138 14 8 14 C 5.6708616 14 4.0496568 12.960699 2.9160156 11.779297 C 1.8589941 10.677743 1.340504 9.5534965 1.0898438 9 C 1.3408442 8.4451572 1.8589774 7.3166594 2.9160156 6.2128906 C 4.0495243 5.0292707 5.6698582 3.9906383 7.9980469 4 z M 8 5 C 9.6627766 5 11 6.3372234 11 8 C 11 9.6627766 9.6627766 11 8 11 C 6.3372234 11 5 9.6627766 5 8 C 5 6.3372234 6.3372234 5 8 5 z M 8 6 A 2 2 0 0 0 6 8 A 2 2 0 0 0 8 10 A 2 2 0 0 0 10 8 A 2 2 0 0 0 8 6 z "
     style="color:#000000;font-style:normal;font-variant:normal;font-weight:normal;font-stretch:normal;font-size:medium;line-height:normal;font-family:sans-serif;font-variant-ligatures:normal;font-variant-position:normal;font-variant-caps:normal;font-variant-numeric:normal;font-variant-alternates:normal;font-feature-settings:normal;text-indent:0;text-align:start;text-decoration:none;text-decoration-line:none;text-decoration-style:solid;text-decoration-color:#000000;letter-spacing:normal;word-spacing:normal;text-transform:none;writing-mode:lr-tb;direction:ltr;text-orientation:mixed;dominant-baseline:auto;baseline-shift:baseline;text-anchor:start;white-space:normal;shape-padding:0;clip-rule:nonzero;display:inline;overflow:visible;visibility:visible;opacity:1;isolation:auto;mix-blend-mode:normal;color-interpolation:sRGB;color-interpolation-filters:linearRGB;solid-color:#000000;solid-opacity:1;vector-effect:none;fill:#000000;fill-opacity:1;fill-rule:nonzero;stroke:none;stroke-width:0.99999994;stroke-linecap:round;stroke-linejoin:miter;stroke-miterlimit:4;stroke-dasharray:none;stroke-dashoffset:0.5;stroke-opacity:1;marker:none;color-rendering:auto;image-rendering:auto;shape-rendering:auto;text-rendering:auto;enable-background:accumulate" />
</svg>
