<svg xmlns="http://www.w3.org/2000/svg" viewBox="0 0 16 16" fill="currentColor" height="16px" width="16px">
    <circle cx="8" cy="8" r="3.5" style="marker:none" opacity=".2"/>
    <path d="M8.002 3c-2.633-.01-4.543 1.2-5.809 2.521C.928 6.843.27 8.286.043 8.8L0 8.895v.21l.043.096c.227.514.885 1.951 2.15 3.27C3.46 13.789 5.368 15 8 15c2.632 0 4.539-1.21 5.805-2.53 1.266-1.318 1.925-2.754 2.152-3.269L16 9.105v-.21l-.043-.096c-.227-.517-.886-1.948-2.152-3.264C12.539 4.22 10.633 3.011 8.002 3zm-.004 1A4.008 4.008 0 004 8c0 2.203 1.797 4 4 4 2.203 0 4-1.797 4-4a4.008 4.008 0 00-3.998-4c2.328.01 3.948 1.05 5.082 2.229C14.142 7.328 14.661 8.449 14.91 9c-.25.552-.768 1.678-1.826 2.78C11.95 12.96 10.329 14 8 14c-2.33 0-3.95-1.04-5.084-2.22C1.859 10.677 1.341 9.552 1.09 9c.25-.555.769-1.683 1.826-2.787C4.05 5.029 5.67 3.99 7.998 4zM8 5c1.663 0 3 1.337 3 3s-1.337 3-3 3-3-1.337-3-3 1.337-3 3-3zm0 1a2 2 0 00-2 2 2 2 0 002 2 2 2 0 002-2 2 2 0 00-2-2z"/>
</svg>
