<?xml version="1.0" encoding="UTF-8" standalone="no"?>
<svg
   xmlns:dc="http://purl.org/dc/elements/1.1/"
   xmlns:cc="http://creativecommons.org/ns#"
   xmlns:rdf="http://www.w3.org/1999/02/22-rdf-syntax-ns#"
   xmlns:svg="http://www.w3.org/2000/svg"
   xmlns="http://www.w3.org/2000/svg"
   id="svg6"
   version="1.1"
   viewBox="0 0 16 16">
  <metadata
     id="metadata12">
    <rdf:RDF>
      <cc:Work
         rdf:about="">
        <dc:format>image/svg+xml</dc:format>
        <dc:type
           rdf:resource="http://purl.org/dc/dcmitype/StillImage" />
        <dc:title />
      </cc:Work>
    </rdf:RDF>
  </metadata>
  <defs
     id="defs10" />
  <path
     id="path844"
     d="M 2.5 4 C 1.6603514 4 1 4.6603514 1 5.5 L 1 11.5 C 1 12.339649 1.6603514 13 2.5 13 L 5 13 C 5.0801643 13 5.1119787 12.985544 5.2363281 12.849609 C 5.3606776 12.713674 5.5185644 12.470655 5.7226562 12.199219 C 6.13084 11.656346 6.8333333 11 8 11 C 9.1666667 11 9.8683902 11.656552 10.275391 12.199219 C 10.478891 12.470552 10.635489 12.714035 10.759766 12.849609 C 10.884042 12.98518 10.91667 13 11 13 L 13.5 13 C 14.339649 13 15 12.339649 15 11.5 L 15 5.5 C 15 4.6603514 14.339649 4 13.5 4 L 2.5 4 z M 5 6 C 6.0986472 6 7 6.9013528 7 8 C 7 9.0986472 6.0986472 10 5 10 C 3.9013528 10 3 9.0986472 3 8 C 3 6.9013528 3.9013528 6 5 6 z M 10.96875 6 C 12.067397 6 12.96875 6.9013528 12.96875 8 C 12.96875 9.0986472 12.067397 10 10.96875 10 C 9.8701028 10 8.96875 9.0986472 8.96875 8 C 8.96875 6.9013528 9.8701028 6 10.96875 6 z "
     style="color:#000000;font-style:normal;font-variant:normal;font-weight:normal;font-stretch:normal;font-size:medium;line-height:normal;font-family:sans-serif;font-variant-ligatures:normal;font-variant-position:normal;font-variant-caps:normal;font-variant-numeric:normal;font-variant-alternates:normal;font-feature-settings:normal;text-indent:0;text-align:start;text-decoration:none;text-decoration-line:none;text-decoration-style:solid;text-decoration-color:#000000;letter-spacing:normal;word-spacing:normal;text-transform:none;writing-mode:lr-tb;direction:ltr;text-orientation:mixed;dominant-baseline:auto;baseline-shift:baseline;text-anchor:start;white-space:normal;shape-padding:0;clip-rule:nonzero;display:inline;overflow:visible;visibility:visible;opacity:0.2;isolation:auto;mix-blend-mode:normal;color-interpolation:sRGB;color-interpolation-filters:linearRGB;solid-color:#000000;solid-opacity:1;vector-effect:none;fill:#000000;fill-opacity:1;fill-rule:nonzero;stroke:none;stroke-width:1;stroke-linecap:round;stroke-linejoin:round;stroke-miterlimit:4;stroke-dasharray:none;stroke-dashoffset:0.5;stroke-opacity:1;color-rendering:auto;image-rendering:auto;shape-rendering:auto;text-rendering:auto;enable-background:accumulate" />
  <path
     id="path828"
     d="M 2.5 3 C 1.1236486 3 0 4.1236486 0 5.5 L 0 11.5 C 0 12.876351 1.1236486 14 2.5 14 L 5 14 C 5.4160444 14 5.7559197 13.764456 5.9746094 13.525391 C 6.1932991 13.286326 6.3496285 13.029345 6.5214844 12.800781 C 6.8651962 12.343654 7.1666667 12 8 12 C 8.8333333 12 9.1316094 12.343448 9.4746094 12.800781 C 9.6461094 13.029448 9.8020116 13.285965 10.021484 13.525391 C 10.240958 13.764816 10.583333 14 11 14 L 13.5 14 C 14.876351 14 16 12.876351 16 11.5 L 16 5.5 C 16 4.1236486 14.876351 3 13.5 3 L 2.5 3 z M 2.5 4 L 13.5 4 C 14.339649 4 15 4.6603514 15 5.5 L 15 11.5 C 15 12.339649 14.339649 13 13.5 13 L 11 13 C 10.91667 13 10.884042 12.98518 10.759766 12.849609 C 10.635489 12.714035 10.478891 12.470552 10.275391 12.199219 C 9.8683902 11.656552 9.1666667 11 8 11 C 6.8333333 11 6.13084 11.656346 5.7226562 12.199219 C 5.5185644 12.470655 5.3606776 12.713674 5.2363281 12.849609 C 5.1119787 12.985544 5.0801643 13 5 13 L 2.5 13 C 1.6603514 13 1 12.339649 1 11.5 L 1 5.5 C 1 4.6603514 1.6603514 4 2.5 4 z M 5 6 C 3.9013528 6 3 6.9013528 3 8 C 3 9.0986472 3.9013528 10 5 10 C 6.0986472 10 7 9.0986472 7 8 C 7 6.9013528 6.0986472 6 5 6 z M 10.96875 6 C 9.8701028 6 8.96875 6.9013528 8.96875 8 C 8.96875 9.0986472 9.8701028 10 10.96875 10 C 12.067397 10 12.96875 9.0986472 12.96875 8 C 12.96875 6.9013528 12.067397 6 10.96875 6 z M 5 7 C 5.5582071 7 6 7.4417929 6 8 C 6 8.5582071 5.5582071 9 5 9 C 4.4417929 9 4 8.5582071 4 8 C 4 7.4417929 4.4417929 7 5 7 z M 10.96875 7 C 11.526957 7 11.96875 7.4417929 11.96875 8 C 11.96875 8.5582071 11.526957 9 10.96875 9 C 10.410543 9 9.96875 8.5582071 9.96875 8 C 9.96875 7.4417929 10.410543 7 10.96875 7 z "
     style="color:#000000;font-style:normal;font-variant:normal;font-weight:normal;font-stretch:normal;font-size:medium;line-height:normal;font-family:sans-serif;font-variant-ligatures:normal;font-variant-position:normal;font-variant-caps:normal;font-variant-numeric:normal;font-variant-alternates:normal;font-feature-settings:normal;text-indent:0;text-align:start;text-decoration:none;text-decoration-line:none;text-decoration-style:solid;text-decoration-color:#000000;letter-spacing:normal;word-spacing:normal;text-transform:none;writing-mode:lr-tb;direction:ltr;text-orientation:mixed;dominant-baseline:auto;baseline-shift:baseline;text-anchor:start;white-space:normal;shape-padding:0;clip-rule:nonzero;display:inline;overflow:visible;visibility:visible;opacity:1;isolation:auto;mix-blend-mode:normal;color-interpolation:sRGB;color-interpolation-filters:linearRGB;solid-color:#000000;solid-opacity:1;vector-effect:none;fill:#000000;fill-opacity:1;fill-rule:nonzero;stroke:none;stroke-width:1;stroke-linecap:round;stroke-linejoin:round;stroke-miterlimit:4;stroke-dasharray:none;stroke-dashoffset:0.5;stroke-opacity:1;color-rendering:auto;image-rendering:auto;shape-rendering:auto;text-rendering:auto;enable-background:accumulate" />
  <path
     id="rect833"
     d="m 2.5,3.5 h 11 c 1.108,0 2,0.892 2,2 v 6 c 0,1.108 -0.892,2 -2,2 0,0 -1.5,0 -2.5,0 -1,0 -1,-2 -3,-2 -2,0 -2.0075825,2 -3,2 -1,0 -2.5,0 -2.5,0 -1.108,0 -2,-0.892 -2,-2 v -6 c 0,-1.108 0.892,-2 2,-2 z"
     style="opacity:1;fill:none;fill-opacity:1;stroke:#000000;stroke-width:1;stroke-linecap:round;stroke-linejoin:round;stroke-miterlimit:4;stroke-dasharray:none;stroke-dashoffset:0.5;stroke-opacity:1" />
</svg>
