<svg xmlns="http://www.w3.org/2000/svg" viewBox="0 0 16 16" fill="currentColor" height="16px" width="16px">
    <path d="M1.5 1C.669 1 0 1.669 0 2.5v11c0 .831.669 1.5 1.5 1.5h13c.831 0 1.5-.669 1.5-1.5v-11c0-.831-.669-1.5-1.5-1.5h-13zm0 1h13c.277 0 .5.223.5.5V4H1V2.5c0-.277.223-.5.5-.5zM1 5h14v2H1V5zm7.5 4H15v3H8.5c-.831 0-1.5-.669-1.5-1.5S7.669 9 8.5 9zm0 1a.5.5 0 00-.5.5.5.5 0 00.5.5.5.5 0 00.5-.5.5.5 0 00-.5-.5z"/>
    <path d="M8.5 9C7.669 9 7 9.669 7 10.5S7.669 12 8.5 12H15V9h-5z" opacity=".4"/>
    <rect width="14" height="2" x="1" y="5" opacity=".2" rx="0" ry="0"/>
    <path d="M1 2h14v2H1z" opacity=".3"/>
</svg>
