<?xml version="1.0" encoding="UTF-8" standalone="no"?>
<svg
   xmlns:dc="http://purl.org/dc/elements/1.1/"
   xmlns:cc="http://creativecommons.org/ns#"
   xmlns:rdf="http://www.w3.org/1999/02/22-rdf-syntax-ns#"
   xmlns:svg="http://www.w3.org/2000/svg"
   xmlns="http://www.w3.org/2000/svg"
   id="svg6"
   version="1.1"
   viewBox="0 0 16 16">
  <metadata
     id="metadata12">
    <rdf:RDF>
      <cc:Work
         rdf:about="">
        <dc:format>image/svg+xml</dc:format>
        <dc:type
           rdf:resource="http://purl.org/dc/dcmitype/StillImage" />
      </cc:Work>
    </rdf:RDF>
  </metadata>
  <defs
     id="defs10" />
  <path
     id="path2"
     opacity=".2"
     d="M8 .999V1c-.5.003-.71.5-.998.997L.998 12.996C.71 13.496 1.002 14 2.002 14h12c1 0 1.292-.504 1.004-1.004L9.002 1.998c-.288-.498-.497-.994-.998-.997z" />
  <path
     id="path4"
     d="M7.963 0a1.499 1.499 0 0 0-1.277.786L.184 12.784A1.5 1.5 0 0 0 1.5 15h13a1.5 1.5 0 0 0 1.316-2.216L9.318.786A1.496 1.496 0 0 0 7.963 0zM8 1h.004c.5.003.71.5.998.997l6.004 10.998c.288.5-.004 1.004-1.004 1.004h-12c-1 0-1.293-.504-1.004-1.004L7.002 1.998c.288-.498.497-.994.998-.997zm-.998 3.003v6.007h2l.002-6.008h-2zm0 7.006v2h2v-2z" />
</svg>
