<?xml version="1.0" encoding="UTF-8" standalone="no"?>
<svg
   xmlns:dc="http://purl.org/dc/elements/1.1/"
   xmlns:cc="http://creativecommons.org/ns#"
   xmlns:rdf="http://www.w3.org/1999/02/22-rdf-syntax-ns#"
   xmlns:svg="http://www.w3.org/2000/svg"
   xmlns="http://www.w3.org/2000/svg"
   id="svg6"
   version="1.1"
   viewBox="0 0 16 16">
  <metadata
     id="metadata12">
    <rdf:RDF>
      <cc:Work
         rdf:about="">
        <dc:format>image/svg+xml</dc:format>
        <dc:type
           rdf:resource="http://purl.org/dc/dcmitype/StillImage" />
        <dc:title />
      </cc:Work>
    </rdf:RDF>
  </metadata>
  <defs
     id="defs10" />
  <path
     id="path2"
     d="m 9.5,4.9999999 c 2.485053,5.52e-4 4.499448,2.0149473 4.5,4.5 0,0.284 -0.06228,0.5350161 -0.113281,0.7910161 C 15.071719,10.689016 16,11.681 16,13 c 0,1.653 -1.347,3 -3,3 H 3 C 1.347,16 0,14.653 0,13 0,11.702 0.885922,10.691391 2.044922,10.275391 2.166922,8.4553905 3.649,6.9999999 5.5,6.9999999 c 0.128,0 0.235563,0.021156 0.351562,0.035156 C 6.6565625,5.8451562 7.95,4.9999999 9.5,4.9999999 Z m 0,1 c -1.32,0 -2.4410156,0.724875 -3.0410156,1.796875 L 6.2871094,8.1074218 5.9375,8.0449218 C 5.7815,8.0169218 5.637,7.9999998 5.5,7.9999998 4.106,7.9999998 3,9.1059998 3,10.5 3,10.406 3.0039,10.41802 3.0059,10.54102 l 0.0059,0.416016 -0.408203,0.08203 C 1.685516,11.221062 1,12.02 1,13 c 0,1.117 0.883,2 2,2 h 10 c 1.117,0 2,-0.883 2,-2 0,-1.02 -0.73975,-1.83175 -1.71875,-1.96875 l -0.560547,-0.08008 0.146485,-0.544922 C 12.951052,10.111387 12.995581,9.8065249 13,9.4999999 c 0,-1.948 -1.552,-3.5 -3.5,-3.5 z" />
  <path
     style="opacity:0.4"
     id="path4"
     d="m 9.5,5.4999999 c 2.216,0 4,1.784 4,4 0,0.36 -0.062,0.7030001 -0.15,1.0350001 1.23241,0.168111 2.150906,1.221177 2.15,2.465 0,1.385 -1.115,2.5 -2.5,2.5 -4.4136663,0 -5.474269,0 -10,0 C 1.615,15.5 0.5,14.385 0.5,13 0.4971,11.808633 1.337581,10.781727 2.506,10.549 2.506,10.532 2.5,10.517 2.5,10.5 c 0,-1.6620001 1.338,-3.0000001 3,-3.0000001 0.18,0 0.353,0.023 0.523,0.053 0.6989332,-1.2661851 2.0307178,-2.0525394 3.477,-2.053 z" />
  <path
     id="path4-2"
     d="M 7.6210938 -0.013671875 C 6.340524 0.0033538637 5.136943 0.35954865 3.9570312 1.0625 C 0.23260587 3.028277 -0.96722524 7.9943244 0.80664062 11.605469 L 0.70117188 11.425781 C 0.74558788 11.520531 0.80123547 11.608766 0.84960938 11.701172 C 0.85225267 11.706366 0.85476571 11.711611 0.85742188 11.716797 C 1.0453025 11.402762 1.3016793 11.137281 1.6074219 10.931641 C 1.5979594 10.910225 1.5853798 10.890704 1.5761719 10.869141 C 0.077489295 7.7033463 1.3908447 3.6248957 4.4570312 1.9296875 C 5.5731936 1.2269394 6.8367804 0.94850414 8.0917969 1 C 8.1989199 0.92809104 8.3083869 0.85977677 8.4199219 0.79492188 C 6.025536 2.1773213 4.9531654 4.9606458 5.6230469 7.5117188 C 5.7584092 7.5193114 5.8933782 7.5297827 6.0234375 7.5527344 C 6.1618987 7.3018985 6.3315212 7.0760288 6.515625 6.8652344 C 6.1576947 4.8518173 7.0465537 2.7436992 8.9199219 1.6621094 C 9.2109079 1.4943144 9.0970691 1.5607731 9.3613281 1.4082031 C 9.7972551 1.1565206 9.3767745 0.08203095 8.9296875 0.08203125 C 8.4839002 0.012329125 8.0479503 -0.019347121 7.6210938 -0.013671875 z M 14.521484 10.019531 C 14.468525 10.021078 14.415819 10.036899 14.361328 10.068359 C 14.097069 10.220929 14.21073 10.15416 13.919922 10.322266 C 13.76678 10.410682 13.611118 10.488056 13.453125 10.558594 C 14.02397 10.661441 14.52352 10.948082 14.884766 11.361328 C 14.923473 11.24144 14.966674 11.124373 15 11 C 15.195601 10.66121 14.892202 10.008706 14.521484 10.019531 z M 5.3261719 15.5 C 7.0794423 16.131541 9.0279141 16.186064 10.785156 15.5 L 5.3261719 15.5 z " />
  <path
     id="path2-6"
     d="M 8.0917969 1.0019531 C 6.8185064 0.97484537 5.5615183 1.2955645 4.4570312 1.9296875 C 1.2932581 3.7562931 0.098695004 7.6782472 1.6074219 10.929688 C 1.8741715 10.750454 2.1746791 10.614793 2.5058594 10.548828 C 2.5058594 10.531828 2.5 10.517 2.5 10.5 C 2.5 8.8379999 3.838 7.5 5.5 7.5 C 5.5416253 7.5 5.5801677 7.5094567 5.6210938 7.5117188 C 4.9862134 5.092294 5.9168269 2.453254 8.0917969 1.0019531 z "
     style="opacity:0.2" />
</svg>
