<?xml version="1.0" encoding="UTF-8" standalone="no"?>
<svg
   xmlns:dc="http://purl.org/dc/elements/1.1/"
   xmlns:cc="http://creativecommons.org/ns#"
   xmlns:rdf="http://www.w3.org/1999/02/22-rdf-syntax-ns#"
   xmlns:svg="http://www.w3.org/2000/svg"
   xmlns="http://www.w3.org/2000/svg"
   id="svg6"
   version="1.1"
   viewBox="0 0 16 16">
  <metadata
     id="metadata12">
    <rdf:RDF>
      <cc:Work
         rdf:about="">
        <dc:format>image/svg+xml</dc:format>
        <dc:type
           rdf:resource="http://purl.org/dc/dcmitype/StillImage" />
        <dc:title />
      </cc:Work>
    </rdf:RDF>
  </metadata>
  <defs
     id="defs10" />
  <path
     id="path2"
     d="M 6.5 0 C 4.0149473 0.000552 2.000552 2.0149473 2 4.5 C 2 4.784 2.062281 5.0350156 2.1132812 5.2910156 C 0.9282813 5.6890156 2.9605947e-16 6.681 0 8 C 0 9.653 1.347 11 3 11 L 7.2929688 11 L 5.1464844 13.146484 A 0.50005 0.50005 0 0 0 5.5 14 L 9.2929688 14 L 8.1464844 15.146484 A 0.50005 0.50005 0 1 0 8.8535156 15.853516 L 10.853516 13.853516 A 0.50005 0.50005 0 0 0 10.5 13 L 6.7070312 13 L 8.7070312 11 L 13 11 C 14.653 11 16 9.653 16 8 C 16 6.702 15.114078 5.6913906 13.955078 5.2753906 C 13.833078 3.4553906 12.351 2 10.5 2 C 10.372 2 10.264436 2.0211562 10.148438 2.0351562 C 9.343437 0.84515655 8.05 -2.9605947e-16 6.5 0 z M 6.5 1 C 7.82 1 8.9410156 1.724875 9.5410156 2.796875 L 9.7128906 3.1074219 L 10.0625 3.0449219 C 10.2185 3.0169219 10.363 3 10.5 3 C 11.894 3 13 4.106 13 5.5 C 13 5.406 12.996141 5.4180156 12.994141 5.5410156 L 12.988281 5.9570312 L 13.396484 6.0390625 C 14.314565 6.2210624 15 7.02 15 8 C 15 9.117 14.117 10 13 10 L 8.5703125 10 A 0.50005 0.50005 0 0 0 8.4902344 9.9960938 A 0.50005 0.50005 0 0 0 8.4394531 10 L 3 10 C 1.883 10 1 9.117 1 8 C 1 6.98 1.73975 6.16825 2.71875 6.03125 L 3.2792969 5.9511719 L 3.1328125 5.40625 C 3.0489483 5.1113874 3.004419 4.806525 3 4.5 C 3 2.552 4.552 1 6.5 1 z " />
  <path
     id="path4"
     d="M 6.5 0.5 C 4.284 0.5 2.5 2.284 2.5 4.5 C 2.5 4.86 2.5623906 5.2031562 2.6503906 5.5351562 C 1.4179807 5.7032671 0.49909394 6.7561774 0.5 8 C 0.5 9.385 1.615 10.5 3 10.5 L 13 10.5 C 14.385 10.5 15.5 9.385 15.5 8 C 15.5029 6.8086327 14.66256 5.7815553 13.494141 5.5488281 C 13.494141 5.5318281 13.5 5.517 13.5 5.5 C 13.5 3.838 12.162 2.5 10.5 2.5 C 10.32 2.5 10.146562 2.5227344 9.9765625 2.5527344 C 9.2776293 1.2865493 7.9462822 0.5004606 6.5 0.5 z M 3.4765625 11.994141 A 0.50005 0.50005 0 0 0 3.0527344 12.277344 L 2.0527344 14.277344 A 0.50005 0.50005 0 1 0 2.9472656 14.722656 L 3.9472656 12.722656 A 0.50005 0.50005 0 0 0 3.4765625 11.994141 z M 13.476562 11.994141 A 0.50005 0.50005 0 0 0 13.052734 12.277344 L 12.052734 14.277344 A 0.50005 0.50005 0 1 0 12.947266 14.722656 L 13.947266 12.722656 A 0.50005 0.50005 0 0 0 13.476562 11.994141 z "
     style="opacity:0.4" />
</svg>
