<?xml version="1.0" encoding="UTF-8" standalone="no"?>
<svg
   xmlns:dc="http://purl.org/dc/elements/1.1/"
   xmlns:cc="http://creativecommons.org/ns#"
   xmlns:rdf="http://www.w3.org/1999/02/22-rdf-syntax-ns#"
   xmlns:svg="http://www.w3.org/2000/svg"
   xmlns="http://www.w3.org/2000/svg"
   id="svg6"
   version="1.1"
   viewBox="0 0 16 16">
  <metadata
     id="metadata12">
    <rdf:RDF>
      <cc:Work
         rdf:about="">
        <dc:format>image/svg+xml</dc:format>
        <dc:type
           rdf:resource="http://purl.org/dc/dcmitype/StillImage" />
        <dc:title />
      </cc:Work>
    </rdf:RDF>
  </metadata>
  <defs
     id="defs10" />
  <path
     id="path2"
     d="m 6.5,4e-7 c -2.4850527,5.52e-4 -4.499448,2.0149473 -4.5,4.5 0,0.284 0.062281,0.5350156 0.1132812,0.7910156 C 0.92828125,5.689016 0,6.6810004 0,8.0000004 0,9.6530004 1.347,11 3,11 h 10 c 1.653,0 3,-1.3469996 3,-2.9999996 0,-1.298 -0.885922,-2.3086094 -2.044922,-2.7246094 -0.122,-1.82 -1.604078,-3.2753906 -3.455078,-3.2753906 -0.128,0 -0.235563,0.021156 -0.351562,0.035156 C 9.3434375,0.8451567 8.05,4e-7 6.5,4e-7 Z m 0,1 c 1.32,0 2.4410156,0.724875 3.0410156,1.796875 l 0.171875,0.3105469 0.3496094,-0.0625 c 0.156,-0.028 0.3005,-0.044922 0.4375,-0.044922 1.394,0 2.5,1.106 2.5,2.5 0,-0.094 -0.0039,-0.081984 -0.0059,0.041016 L 12.9882,5.957032 13.396403,6.039063 C 14.314484,6.2210629 15,7.0200004 15,8.0000004 15,9.1170004 14.117,10 13,10 H 3 C 1.883,10 1,9.1170004 1,8.0000004 c 0,-1.02 0.73975,-1.83175 1.71875,-1.96875 L 3.2792969,5.9511723 3.1328125,5.4062504 C 3.0489483,5.1113878 3.004419,4.8065254 3,4.5000004 c 0,-1.948 1.552,-3.5 3.5,-3.5 z" />
  <path
     id="path4"
     d="M 6.5 0.5 C 4.284 0.5 2.5 2.284 2.5 4.5 C 2.5 4.86 2.5623906 5.2031562 2.6503906 5.5351562 C 1.4179807 5.7032671 0.49909394 6.7561774 0.5 8 C 0.5 9.385 1.615 10.5 3 10.5 L 13 10.5 C 14.385 10.5 15.5 9.385 15.5 8 C 15.5029 6.8086327 14.66256 5.7815553 13.494141 5.5488281 C 13.494141 5.5318281 13.5 5.517 13.5 5.5 C 13.5 3.838 12.162 2.5 10.5 2.5 C 10.32 2.5 10.146562 2.5227344 9.9765625 2.5527344 C 9.2776293 1.2865493 7.9462822 0.5004606 6.5 0.5 z M 3.4765625 11.994141 A 0.50005 0.50005 0 0 0 3.0527344 12.277344 L 2.0527344 14.277344 A 0.50005 0.50005 0 1 0 2.9472656 14.722656 L 3.9472656 12.722656 A 0.50005 0.50005 0 0 0 3.4765625 11.994141 z M 6.4765625 11.994141 A 0.50005 0.50005 0 0 0 6.0527344 12.277344 L 5.0527344 14.277344 A 0.50005 0.50005 0 1 0 5.9472656 14.722656 L 6.9472656 12.722656 A 0.50005 0.50005 0 0 0 6.4765625 11.994141 z M 9.4765625 11.994141 A 0.50005 0.50005 0 0 0 9.0527344 12.277344 L 8.0527344 14.277344 A 0.50005 0.50005 0 1 0 8.9472656 14.722656 L 9.9472656 12.722656 A 0.50005 0.50005 0 0 0 9.4765625 11.994141 z M 12.476562 11.994141 A 0.50005 0.50005 0 0 0 12.052734 12.277344 L 11.052734 14.277344 A 0.50005 0.50005 0 1 0 11.947266 14.722656 L 12.947266 12.722656 A 0.50005 0.50005 0 0 0 12.476562 11.994141 z "
     style="opacity:0.4" />
</svg>
