<?xml version="1.0" encoding="UTF-8" standalone="no"?>
<svg
   xmlns:dc="http://purl.org/dc/elements/1.1/"
   xmlns:cc="http://creativecommons.org/ns#"
   xmlns:rdf="http://www.w3.org/1999/02/22-rdf-syntax-ns#"
   xmlns:svg="http://www.w3.org/2000/svg"
   xmlns="http://www.w3.org/2000/svg"
   id="svg6"
   version="1.1"
   viewBox="0 0 16 16">
  <metadata
     id="metadata12">
    <rdf:RDF>
      <cc:Work
         rdf:about="">
        <dc:format>image/svg+xml</dc:format>
        <dc:type
           rdf:resource="http://purl.org/dc/dcmitype/StillImage" />
        <dc:title />
      </cc:Work>
    </rdf:RDF>
  </metadata>
  <defs
     id="defs10" />
  <path
     id="path2"
     d="m 9.5,5 c 2.485053,5.52e-4 4.499448,2.0149473 4.5,4.5 0,0.284 -0.06228,0.535016 -0.113281,0.791016 C 15.071719,10.689016 16,11.681 16,13 c 0,1.653 -1.347,3 -3,3 H 3 C 1.347,16 0,14.653 0,13 0,11.702 0.885922,10.691391 2.044922,10.275391 2.166922,8.4553906 3.649,7 5.5,7 5.628,7 5.735563,7.0211562 5.851562,7.0351562 6.6565625,5.8451563 7.95,5 9.5,5 Z m 0,1 C 8.18,6 7.0589844,6.724875 6.4589844,7.796875 L 6.2871094,8.1074219 5.9375,8.0449219 C 5.7815,8.0169219 5.637,8 5.5,8 4.106,8 3,9.106 3,10.5 3,10.406 3.0039,10.41802 3.0059,10.54102 l 0.0059,0.416016 -0.408203,0.08203 C 1.685516,11.221063 1,12.02 1,13 c 0,1.117 0.883,2 2,2 h 10 c 1.117,0 2,-0.883 2,-2 0,-1.02 -0.73975,-1.83175 -1.71875,-1.96875 l -0.560547,-0.08008 0.146485,-0.544922 C 12.951052,10.111387 12.995581,9.806525 13,9.5 13,7.552 11.448,6 9.5,6 Z" />
  <path
     style="opacity:0.4"
     id="path4"
     d="m 9.5,5.5 c 2.216,0 4,1.784 4,4 0,0.36 -0.062,0.703 -0.15,1.035 1.23241,0.168111 2.150906,1.221177 2.15,2.465 0,1.385 -1.115,2.5 -2.5,2.5 -4.4136663,0 -5.474269,0 -10,0 C 1.615,15.5 0.5,14.385 0.5,13 0.4971,11.808633 1.337581,10.781727 2.506,10.549 2.506,10.532 2.5,10.517 2.5,10.5 c 0,-1.662 1.338,-3 3,-3 0.18,0 0.353,0.023 0.523,0.053 C 6.7219332,6.2868149 8.0537178,5.5004606 9.5,5.5 Z" />
  <path
     id="path831"
     d="M 8 0.5 L 6 3.5 L 1.5 1.5 L 3.5 6 L 0.5 8 L 2.6933594 9.4628906 C 3.064161 8.4554237 3.9535162 7.7111055 5.0449219 7.5449219 C 5.2653345 6.1053454 6.49879 5 8 5 C 8.6248296 5 9.2051591 5.1907509 9.6855469 5.5175781 C 11.759963 5.613421 13.403484 7.2653339 13.484375 9.34375 L 15.5 8 L 12.5 6 L 13.5 2.5 L 10 3.5 L 8 0.5 z "
     style="opacity:0.2;fill:#000000;stroke:none;stroke-width:1px;stroke-linecap:round;stroke-linejoin:round;stroke-opacity:1" />
  <path
     id="path4-1"
     d="M 7.9921875 0 A 0.50005 0.50005 0 0 0 7.5839844 0.22265625 L 5.8183594 2.8710938 L 1.703125 1.0429688 A 0.50005 0.50005 0 0 0 1.0429688 1.703125 L 2.8710938 5.8183594 L 0.22265625 7.5839844 A 0.50005 0.50005 0 0 0 0.22265625 8.4160156 L 2.5527344 9.96875 C 2.614551 9.6217917 2.7405979 9.300015 2.9101562 9.0058594 L 1.4023438 8 L 3.7773438 6.4160156 A 0.50005 0.50005 0 0 0 3.9570312 5.796875 L 2.484375 2.484375 L 5.796875 3.9570312 A 0.50005 0.50005 0 0 0 6.4160156 3.7773438 L 8 1.4023438 L 9.5839844 3.7773438 A 0.50005 0.50005 0 0 0 10.203125 3.9570312 L 13.515625 2.484375 L 12.042969 5.796875 A 0.50005 0.50005 0 0 0 12.222656 6.4160156 L 14.597656 8 L 13.427734 8.7792969 C 13.470164 9.0136204 13.5 9.2530787 13.5 9.5 C 13.5 9.6566587 13.483406 9.8082697 13.462891 9.9589844 L 15.777344 8.4160156 A 0.50005 0.50005 0 0 0 15.777344 7.5839844 L 13.128906 5.8183594 L 14.957031 1.703125 A 0.50005 0.50005 0 0 0 14.296875 1.0429688 L 10.181641 2.8710938 L 8.4160156 0.22265625 A 0.50005 0.50005 0 0 0 7.9921875 0 z M 8 4 C 5.8223012 4 4.0597408 5.7425146 4.0097656 7.9082031 C 4.3240068 7.7276771 4.671462 7.601787 5.0449219 7.5449219 C 5.2653345 6.1053454 6.4987901 5 8 5 C 8.6248296 5 9.205159 5.1907509 9.6855469 5.5175781 C 10.331441 5.5474199 10.93161 5.7305544 11.460938 6.0292969 C 10.772164 4.8228472 9.4886757 4 8 4 z M 1 14.490234 A 0.50005 0.50005 0 0 0 1.5097656 15 C 1.3154945 14.855272 1.144728 14.684506 1 14.490234 z M 15 14.490234 C 14.855272 14.684506 14.684506 14.855272 14.490234 15 A 0.50005 0.50005 0 0 0 15 14.490234 z M 7.3984375 15.5 L 7.5839844 15.777344 A 0.50005 0.50005 0 0 0 8.4160156 15.777344 L 8.6015625 15.5 L 7.3984375 15.5 z "
     style="opacity:1;stroke-width:1" />
</svg>
