<?xml version="1.0" encoding="UTF-8" standalone="no"?>
<svg
   xmlns:dc="http://purl.org/dc/elements/1.1/"
   xmlns:cc="http://creativecommons.org/ns#"
   xmlns:rdf="http://www.w3.org/1999/02/22-rdf-syntax-ns#"
   xmlns:svg="http://www.w3.org/2000/svg"
   xmlns="http://www.w3.org/2000/svg"
   id="svg6"
   version="1.1"
   viewBox="0 0 16 16">
  <metadata
     id="metadata12">
    <rdf:RDF>
      <cc:Work
         rdf:about="">
        <dc:format>image/svg+xml</dc:format>
        <dc:type
           rdf:resource="http://purl.org/dc/dcmitype/StillImage" />
        <dc:title />
      </cc:Work>
    </rdf:RDF>
  </metadata>
  <defs
     id="defs10" />
  <path
     id="path2"
     d="M 6.5 0 C 4.0149473 0.000552 2.000552 2.0149473 2 4.5 C 2 4.784 2.0622812 5.0350156 2.1132812 5.2910156 C 0.9282813 5.6890156 2.9605947e-16 6.681 0 8 C 0 9.2547015 0.77810708 10.328546 1.875 10.775391 C 2.0722276 10.675964 2.2805466 10.593706 2.5058594 10.548828 C 2.5058594 10.531828 2.5 10.517 2.5 10.5 C 2.5 10.310364 2.5213549 10.126959 2.5546875 9.9472656 C 1.6580514 9.7479197 1 8.9629291 1 8 C 1 6.98 1.73975 6.16825 2.71875 6.03125 L 3.2792969 5.9511719 L 3.1328125 5.40625 C 3.0489483 5.1113874 3.004419 4.806525 3 4.5 C 3 2.552 4.552 1 6.5 1 C 7.82 1 8.9410156 1.724875 9.5410156 2.796875 L 9.7128906 3.1074219 L 10.0625 3.0449219 C 10.2185 3.0169219 10.363 3 10.5 3 C 11.894 3 13 4.106 13 5.5 C 13 5.406 12.996141 5.4180156 12.994141 5.5410156 L 12.988281 5.9570312 L 13.396484 6.0390625 C 14.314565 6.2210624 15 7.02 15 8 C 15 8.9557062 14.351151 9.7347988 13.464844 9.9414062 C 13.438334 10.143099 13.400785 10.342084 13.349609 10.535156 C 13.625323 10.572766 13.88163 10.660876 14.119141 10.779297 C 15.219317 10.334 16 9.2570709 16 8 C 16 6.702 15.114078 5.6913906 13.955078 5.2753906 C 13.833078 3.4553906 12.351 2 10.5 2 C 10.372 2 10.264436 2.0211563 10.148438 2.0351562 C 9.343437 0.84515635 8.05 2.9605947e-16 6.5 0 z " />
  <path
     id="path4"
     d="M 6.5 0.5 C 4.284 0.5 2.5 2.284 2.5 4.5 C 2.5 4.86 2.5623906 5.2031563 2.6503906 5.5351562 C 1.4179807 5.7032672 0.49909394 6.7561774 0.5 8 C 0.5 9.215912 1.3588817 10.223217 2.5058594 10.451172 C 2.5325132 8.8125401 3.8547872 7.5 5.5 7.5 C 5.68 7.5 5.8534375 7.5227344 6.0234375 7.5527344 C 6.7223707 6.2865493 8.0537178 5.5004606 9.5 5.5 C 11.716 5.5 13.5 7.284 13.5 9.5 C 13.5 9.8343604 13.443358 10.153052 13.365234 10.462891 C 14.574617 10.286038 15.5 9.2599873 15.5 8 C 15.5029 6.8086327 14.66256 5.7815553 13.494141 5.5488281 C 13.494141 5.5318281 13.5 5.517 13.5 5.5 C 13.5 3.838 12.162 2.5 10.5 2.5 C 10.32 2.5 10.146562 2.5227344 9.9765625 2.5527344 C 9.2776293 1.2865493 7.9462822 0.5004606 6.5 0.5 z "
     style="opacity:0.3" />
  <path
     d="m 9.5,4.9999995 c 2.485053,5.52e-4 4.499448,2.0149473 4.5,4.5 0,0.284 -0.06228,0.5350155 -0.113281,0.7910155 C 15.071719,10.689015 16,11.681 16,13 c 0,1.653 -1.347,3 -3,3 H 3 C 1.347,16 0,14.653 0,13 0,11.702 0.885922,10.69139 2.044922,10.27539 2.166922,8.4553901 3.649,6.9999995 5.5,6.9999995 c 0.128,0 0.235563,0.021156 0.351562,0.035156 C 6.6565625,5.8451558 7.95,4.9999995 9.5,4.9999995 Z m 0,1 c -1.32,0 -2.4410156,0.724875 -3.0410156,1.796875 L 6.2871094,8.1074214 5.9375,8.0449214 C 5.7815,8.0169214 5.637,7.9999994 5.5,7.9999994 4.106,7.9999994 3,9.1059994 3,10.5 3,10.406 3.0039,10.41802 3.0059,10.54102 l 0.0059,0.416015 -0.408203,0.08203 C 1.685516,11.221062 1,12.02 1,13 c 0,1.117 0.883,2 2,2 h 10 c 1.117,0 2,-0.883 2,-2 0,-1.02 -0.73975,-1.83175 -1.71875,-1.96875 l -0.560547,-0.08008 0.146485,-0.544921 C 12.951052,10.111387 12.995581,9.8065245 13,9.4999995 c 0,-1.948 -1.552,-3.5 -3.5,-3.5 z"
     id="path816" />
  <path
     d="m 9.5,5.4999995 c 2.216,0 4,1.784 4,4 0,0.36 -0.062,0.7030005 -0.15,1.0350005 1.23241,0.16811 2.150906,1.221177 2.15,2.465 0,1.385 -1.115,2.5 -2.5,2.5 -4.4136663,0 -5.474269,0 -10,0 C 1.615,15.5 0.5,14.385 0.5,13 0.4971,11.808632 1.337581,10.781727 2.506,10.549 2.506,10.532 2.5,10.517 2.5,10.5 c 0,-1.6620005 1.338,-3.0000005 3,-3.0000005 0.18,0 0.353,0.023 0.523,0.053 0.6989332,-1.2661851 2.0307178,-2.0525394 3.477,-2.053 z"
     id="path818"
     style="opacity:0.2" />
</svg>
