<?xml version="1.0" encoding="UTF-8" standalone="no"?>
<svg
   xmlns:dc="http://purl.org/dc/elements/1.1/"
   xmlns:cc="http://creativecommons.org/ns#"
   xmlns:rdf="http://www.w3.org/1999/02/22-rdf-syntax-ns#"
   xmlns:svg="http://www.w3.org/2000/svg"
   xmlns="http://www.w3.org/2000/svg"
   id="svg6"
   version="1.1"
   viewBox="0 0 16 16">
  <metadata
     id="metadata12">
    <rdf:RDF>
      <cc:Work
         rdf:about="">
        <dc:format>image/svg+xml</dc:format>
        <dc:type
           rdf:resource="http://purl.org/dc/dcmitype/StillImage" />
        <dc:title />
      </cc:Work>
    </rdf:RDF>
  </metadata>
  <defs
     id="defs10" />
  <path
     id="path2"
     d="m 6.5,4e-7 c -2.4850527,5.52e-4 -4.499448,2.0149473 -4.5,4.5 0,0.284 0.062281,0.5350156 0.1132812,0.7910156 C 0.92828125,5.689016 0,6.6810004 0,8.0000004 0,9.6530004 1.347,11 3,11 h 10 c 1.653,0 3,-1.3469996 3,-2.9999996 0,-1.298 -0.885922,-2.3086094 -2.044922,-2.7246094 -0.122,-1.82 -1.604078,-3.2753906 -3.455078,-3.2753906 -0.128,0 -0.235563,0.021156 -0.351562,0.035156 C 9.3434375,0.8451567 8.05,4e-7 6.5,4e-7 Z m 0,1 c 1.32,0 2.4410156,0.724875 3.0410156,1.796875 l 0.171875,0.3105469 0.3496094,-0.0625 c 0.156,-0.028 0.3005,-0.044922 0.4375,-0.044922 1.394,0 2.5,1.106 2.5,2.5 0,-0.094 -0.0039,-0.081984 -0.0059,0.041016 L 12.9882,5.957032 13.396403,6.039063 C 14.314484,6.2210629 15,7.0200004 15,8.0000004 15,9.1170004 14.117,10 13,10 H 3 C 1.883,10 1,9.1170004 1,8.0000004 c 0,-1.02 0.73975,-1.83175 1.71875,-1.96875 L 3.2792969,5.9511723 3.1328125,5.4062504 C 3.0489483,5.1113878 3.004419,4.8065254 3,4.5000004 c 0,-1.948 1.552,-3.5 3.5,-3.5 z" />
  <path
     style="opacity:0.4"
     id="path4"
     d="m 6.5,0.5000004 c -2.216,0 -4,1.784 -4,4 0,0.36 0.062,0.703 0.15,1.035 C 1.4175901,5.7031113 0.49909394,6.7561778 0.5,8.0000004 0.5,9.3850004 1.615,10.5 3,10.5 c 4.4136663,0 5.474269,0 10,0 1.385,0 2.5,-1.1149996 2.5,-2.4999996 0.0029,-1.1913673 -0.837581,-2.2182728 -2.006,-2.451 0,-0.017 0.006,-0.032 0.006,-0.049 0,-1.662 -1.338,-3 -3,-3 -0.18,0 -0.353,0.023 -0.523,0.053 C 9.2780668,1.2868153 7.9462822,0.500461 6.5,0.5000004 Z" />
  <path
     id="path847"
     d="M 3.5 12 A 1.5 1.5 0 0 0 2 13.5 A 1.5 1.5 0 0 0 3.5 15 A 1.5 1.5 0 0 0 5 13.5 A 1.5 1.5 0 0 0 3.5 12 z M 11.5 12 A 1.5 1.5 0 0 0 10 13.5 A 1.5 1.5 0 0 0 11.5 15 A 1.5 1.5 0 0 0 13 13.5 A 1.5 1.5 0 0 0 11.5 12 z M 3.5 13 A 0.5 0.5 0 0 1 4 13.5 A 0.5 0.5 0 0 1 3.5 14 A 0.5 0.5 0 0 1 3 13.5 A 0.5 0.5 0 0 1 3.5 13 z M 7.5 13 A 1.5 1.5 0 0 0 6 14.5 A 1.5 1.5 0 0 0 7.5 16 A 1.5 1.5 0 0 0 9 14.5 A 1.5 1.5 0 0 0 7.5 13 z M 11.5 13 A 0.5 0.5 0 0 1 12 13.5 A 0.5 0.5 0 0 1 11.5 14 A 0.5 0.5 0 0 1 11 13.5 A 0.5 0.5 0 0 1 11.5 13 z M 7.5 14 A 0.5 0.5 0 0 1 8 14.5 A 0.5 0.5 0 0 1 7.5 15 A 0.5 0.5 0 0 1 7 14.5 A 0.5 0.5 0 0 1 7.5 14 z "
     style="opacity:0.4;fill:#000000;fill-opacity:1;stroke:none;stroke-width:1;stroke-linecap:round;stroke-linejoin:round;stroke-miterlimit:4;stroke-dasharray:none;stroke-dashoffset:0;stroke-opacity:1" />
</svg>
