<?xml version="1.0" encoding="UTF-8" standalone="no"?>
<svg
   xmlns:dc="http://purl.org/dc/elements/1.1/"
   xmlns:cc="http://creativecommons.org/ns#"
   xmlns:rdf="http://www.w3.org/1999/02/22-rdf-syntax-ns#"
   xmlns:svg="http://www.w3.org/2000/svg"
   xmlns="http://www.w3.org/2000/svg"
   id="svg6"
   version="1.1"
   viewBox="0 0 16 16">
  <metadata
     id="metadata12">
    <rdf:RDF>
      <cc:Work
         rdf:about="">
        <dc:format>image/svg+xml</dc:format>
        <dc:type
           rdf:resource="http://purl.org/dc/dcmitype/StillImage" />
        <dc:title />
      </cc:Work>
    </rdf:RDF>
  </metadata>
  <defs
     id="defs10" />
  <path
     id="path2"
     d="M 6.5,0 C 4.0149473,5.52e-4 2.000552,2.0149473 2,4.5 2,4.784 2.0622812,5.0350156 2.1132812,5.2910156 0.92828125,5.6890156 0,6.681 0,8 0,9.653 1.347,11 3,11 H 13 C 14.653,11 16,9.653 16,8 16,6.702 15.114078,5.6913906 13.955078,5.2753906 13.833078,3.4553906 12.351,2 10.5,2 10.372,2 10.264437,2.0211562 10.148438,2.0351562 9.3434375,0.8451563 8.05,0 6.5,0 Z m 0,1 c 1.32,0 2.4410156,0.724875 3.0410156,1.796875 l 0.171875,0.3105469 0.3496094,-0.0625 C 10.2185,3.0169219 10.363,3 10.5,3 11.894,3 13,4.106 13,5.5 13,5.406 12.9961,5.418016 12.9941,5.541016 l -0.0059,0.4160156 0.408203,0.082031 C 14.314484,6.2210625 15,7.02 15,8 c 0,1.117 -0.883,2 -2,2 H 3 C 1.883,10 1,9.117 1,8 1,6.98 1.73975,6.16825 2.71875,6.03125 L 3.2792969,5.9511719 3.1328125,5.40625 C 3.0489483,5.1113874 3.004419,4.806525 3,4.5 3,2.552 4.552,1 6.5,1 Z" />
  <path
     style="opacity:0.2"
     id="path4"
     d="m 6.5,0.5 c -2.216,0 -4,1.784 -4,4 0,0.36 0.062,0.703 0.15,1.035 C 1.4175901,5.7031109 0.49909394,6.7561774 0.5,8 c 0,1.385 1.115,2.5 2.5,2.5 4.4136663,0 5.474269,0 10,0 1.385,0 2.5,-1.115 2.5,-2.5 0.0029,-1.1913673 -0.837581,-2.2182728 -2.006,-2.451 0,-0.017 0.006,-0.032 0.006,-0.049 0,-1.662 -1.338,-3 -3,-3 -0.18,0 -0.353,0.023 -0.523,0.053 C 9.2780668,1.2868149 7.9462822,0.5004606 6.5,0.5 Z" />
  <path
     id="path820"
     d="M 2.5 12 A 0.50005 0.50005 0 1 0 2.5 13 L 8.5 13 A 0.50005 0.50005 0 1 0 8.5 12 L 2.5 12 z M 10.5 12 A 0.50005 0.50005 0 1 0 10.5 13 L 13.5 13 A 0.50005 0.50005 0 1 0 13.5 12 L 10.5 12 z M 4.5 14 A 0.50005 0.50005 0 1 0 4.5 15 L 12.5 15 A 0.50005 0.50005 0 1 0 12.5 14 L 4.5 14 z "
     style="color:#000000;font-style:normal;font-variant:normal;font-weight:normal;font-stretch:normal;font-size:medium;line-height:normal;font-family:sans-serif;font-variant-ligatures:normal;font-variant-position:normal;font-variant-caps:normal;font-variant-numeric:normal;font-variant-alternates:normal;font-feature-settings:normal;text-indent:0;text-align:start;text-decoration:none;text-decoration-line:none;text-decoration-style:solid;text-decoration-color:#000000;letter-spacing:normal;word-spacing:normal;text-transform:none;writing-mode:lr-tb;direction:ltr;text-orientation:mixed;dominant-baseline:auto;baseline-shift:baseline;text-anchor:start;white-space:normal;shape-padding:0;clip-rule:nonzero;display:inline;overflow:visible;visibility:visible;opacity:0.4;isolation:auto;mix-blend-mode:normal;color-interpolation:sRGB;color-interpolation-filters:linearRGB;solid-color:#000000;solid-opacity:1;vector-effect:none;fill:#000000;fill-opacity:1;fill-rule:nonzero;stroke:none;stroke-width:1px;stroke-linecap:round;stroke-linejoin:miter;stroke-miterlimit:4;stroke-dasharray:none;stroke-dashoffset:0;stroke-opacity:1;color-rendering:auto;image-rendering:auto;shape-rendering:auto;text-rendering:auto;enable-background:accumulate" />
</svg>
