<svg xmlns="http://www.w3.org/2000/svg" viewBox="0 0 16 16" fill="currentColor" height="16px" width="16px">
    <path d="M9.5 5C11.985 5 14 7.015 14 9.5c0 .284-.062.535-.113.791C15.072 10.689 16 11.681 16 13c0 1.653-1.347 3-3 3H3c-1.653 0-3-1.347-3-3 0-1.298.886-2.309 2.045-2.725C2.167 8.455 3.649 7 5.5 7c.128 0 .236.021.352.035C6.657 5.845 7.95 5 9.5 5zm0 1c-1.32 0-2.441.725-3.041 1.797l-.172.31-.35-.062A2.49 2.49 0 005.5 8 2.483 2.483 0 003 10.5c0-.094.004-.082.006.041l.006.416-.408.082A1.987 1.987 0 001 13c0 1.117.883 2 2 2h10c1.117 0 2-.883 2-2 0-1.02-.74-1.832-1.719-1.969l-.56-.08.146-.545c.084-.295.129-.6.133-.906C13 7.552 11.448 6 9.5 6z"/>
    <path d="M9.5 5.5c2.216 0 4 1.784 4 4 0 .36-.062.703-.15 1.035A2.486 2.486 0 0115.5 13c0 1.385-1.115 2.5-2.5 2.5H3A2.495 2.495 0 01.5 13a2.493 2.493 0 012.006-2.451c0-.017-.006-.032-.006-.049 0-1.662 1.338-3 3-3 .18 0 .353.023.523.053A3.973 3.973 0 019.5 5.5z" opacity=".4"/>
    <path d="M8 .5l-2 3-4.5-2 2 4.5-3 2 2.193 1.463a2.98 2.98 0 012.352-1.918 2.993 2.993 0 014.64-2.027 3.974 3.974 0 013.8 3.826L15.5 8l-3-2 1-3.5-3.5 1-2-3z" opacity=".2"/>
    <path d="M7.992 0a.5.5 0 00-.408.223L5.818 2.87 1.703 1.043a.5.5 0 00-.66.66l1.828 4.115L.223 7.584a.5.5 0 000 .832l2.33 1.553c.062-.347.188-.669.357-.963L1.402 8l2.375-1.584a.5.5 0 00.18-.62L2.484 2.485l3.313 1.473a.5.5 0 00.619-.18L8 1.402l1.584 2.375a.5.5 0 00.62.18l3.312-1.473-1.473 3.313a.5.5 0 00.18.619L14.598 8l-1.17.78c.042.234.072.473.072.72 0 .157-.017.308-.037.459l2.314-1.543a.5.5 0 000-.832L13.13 5.818l1.828-4.115a.5.5 0 00-.66-.66l-4.115 1.828L8.416.223A.5.5 0 007.992 0zM8 4a3.994 3.994 0 00-3.99 3.908c.314-.18.661-.306 1.035-.363a2.993 2.993 0 014.64-2.027c.646.03 1.247.213 1.776.511C10.772 4.823 9.489 4 8 4zM1 14.49a.5.5 0 00.51.51 2.486 2.486 0 01-.51-.51zm14 0a2.486 2.486 0 01-.51.51.5.5 0 00.51-.51zM7.398 15.5l.186.277a.5.5 0 00.832 0l.186-.277H7.398z"/>
</svg>
