<svg xmlns="http://www.w3.org/2000/svg" viewBox="0 0 16 16" fill="currentColor" height="16px" width="16px">
    <path d="M4 3C1.784 3 0 4.784 0 7v3c0 2.216 1.784 4 4 4h3v1H4v1h8v-1H9v-1h3c2.216 0 4-1.784 4-4V7c0-2.216-1.784-4-4-4H4zm0 1h8c1.662 0 3 1.338 3 3v3c0 1.662-1.338 3-3 3H4c-1.662 0-3-1.338-3-3V7c0-1.662 1.338-3 3-3zm4 1a3 3 0 00-3 3 3 3 0 003 3 3 3 0 003-3 3 3 0 00-3-3zm0 1a2 2 0 012 2 2 2 0 01-2 2 2 2 0 01-2-2 2 2 0 012-2zm4 4a1 1 0 00-1 1 1 1 0 001 1 1 1 0 001-1 1 1 0 00-1-1z"/>
    <path d="M4 4C2.338 4 1 5.338 1 7v3c0 1.662 1.338 3 3 3h8c1.662 0 3-1.338 3-3V7c0-1.662-1.338-3-3-3H4zm4 1c1.662 0 3 1.338 3 3s-1.338 3-3 3-3-1.338-3-3 1.338-3 3-3zm1.732 2l-.867.5A1 1 0 019 8a1 1 0 01-1 1 1 1 0 01-.865-.5l-.867.5a2 2 0 103.464-2z" opacity=".2"/>
    <path d="M6.268 9a2 2 0 013.464-2l-.867.5A1 1 0 008 7a1 1 0 00-1 1 1 1 0 00.135.5z" opacity=".1"/>
    <path d="M8.5 8.866A1 1 0 008.866 7.5l-1.732 1a1 1 0 001.366.366z" opacity=".5"/>
    <path d="M7.5 7.134a1 1 0 011.366.366l-1.732 1A1 1 0 017.5 7.134z" opacity=".3"/>
</svg>
