<svg xmlns="http://www.w3.org/2000/svg" viewBox="0 0 16 16">
    <path d="M3 2h10c.554 0 1 .446 1 1v10c0 .554-.446 1-1 1H3c-.554 0-1-.446-1-1V3c0-.554.446-1 1-1z" opacity=".2"/>
    <path d="M3 1c-1.108 0-2 .892-2 2v10c0 1.108.892 2 2 2h10c1.108 0 2-.892 2-2V3c0-1.108-.892-2-2-2zm0 1h10c.554 0 1 .446 1 1v10c0 .554-.446 1-1 1H3c-.554 0-1-.446-1-1V3c0-.554.446-1 1-1zm0 2v.652L5.398 8 3 11.348V12h1v-.348L6 9l2 2.652V12h1v-.652L6.602 8 9 4.652V4H8v.348L6 7 4 4.348V4zm9 1v3h-1c-1 0-2 .5-2 2s1 2 2 2h2V5zm-1 4h1v2h-1c-.5 0-1-.254-1-1s.5-1 1-1z"/>
</svg>
