<svg xmlns="http://www.w3.org/2000/svg" viewBox="0 0 16 16" fill="currentColor" height="16px" width="16px">
    <path d="M15 8a7 7 0 01-7 7 7 7 0 01-7-7 7 7 0 017-7 7 7 0 017 7z" opacity=".2"/>
    <path d="M8 0C2.812-.197-1.359 5.47.357 10.363 1.64 15.067 7.64 17.5 11.834 15.02c2.909-1.538 4.581-5.003 4.078-8.235.01-.02.025-.041.035-.062l-.049-.026a7.139 7.139 0 00-.255-1.06C14.67 2.344 11.43-.047 8 0zm0 1c3.34-.128 6.17 2.525 6.857 5.633-.986 1.803-2.622 3.65-4.396 4.627-.945.52-1.915.795-2.848.734a3.822 3.822 0 01-1.449-.4c2.087-1.144 3.591-2.748 4.31-4.373.564-1.273.712-2.538.32-3.557-.39-1.018-1.405-1.703-2.763-1.662-2.473.074-4.071 1.67-4.685 3.576-.614 1.906-.348 4.137.775 5.73l.025.036.03.029c.013.013.028.017.04.03-.616.22-1.263.41-1.968.534C1.322 10.595.836 8.95 1.035 7.301 1.32 3.81 4.497.935 8 1zm.063 2.002c1.049-.032 1.543.356 1.798 1.02.255.663.185 1.693-.302 2.794-.67 1.511-2.14 3.089-4.282 4.135-.117-.097-.237-.141-.353-.256-.889-1.285-1.136-3.222-.625-4.808.515-1.6 1.69-2.823 3.763-2.885zm6.947 5.303a6.067 6.067 0 01-.39 1.963c-1.014 3.193-4.56 5.263-7.83 4.62-1.48-.227-2.803-.988-3.815-2.052a12.26 12.26 0 002.25-.713c.75.48 1.526.817 2.322.87 1.171.075 2.328-.268 3.396-.856 1.595-.879 3.015-2.3 4.067-3.832z"/>
</svg>
