<svg xmlns="http://www.w3.org/2000/svg" viewBox="0 0 16 16" fill="currentColor" height="16px" width="16px">
    <path d="M7.95 8.773l-5.34 6.282c.097 0 .132-.011.17-.018.015-.003.066-.008.066-.008l7.08-3.931z" opacity=".4"/>
    <path d="M2.45 0A1.503 1.503 0 001 1.5v13a1.5 1.5 0 002.217 1.316l11.998-6.498c.496-.267.798-.791.783-1.355H16a1.5 1.5 0 00-.785-1.277L3.217.184A1.489 1.489 0 002.449 0zm.22.943c.104.003.174.026.174.026l7.082 3.935-1.977 2.323L2.613.949c.019 0 .04-.006.057-.006zm-.668.832L7.293 8l-5.291 6.225V1.775zm8.814 3.623l3.838 2.133S15 7.678 15 8c0 .321-.344.469-.344.469l-3.838 2.133L8.608 8l2.208-2.602zM7.95 8.773l1.977 2.325-7.08 3.933s-.101.023-.237.024l5.34-6.282z"/>
    <path d="M2.002 1.775v12.45L7.293 8z" opacity=".3"/>
    <path d="M2.67.943c-.017 0-.038.005-.057.006L7.95 7.227l1.977-2.323L2.846.97h-.002S2.774.946 2.67.943z" opacity=".2"/>
    <path d="M10.816 5.398l3.838 2.133S15 7.678 15 8c0 .321-.344.469-.344.469l-3.838 2.133L8.608 8z" opacity=".1"/>
</svg>
