<svg xmlns="http://www.w3.org/2000/svg" viewBox="0 0 16 16" fill="currentColor" height="16px" width="16px">
    <path d="M8 0a8 8 0 108 8c0-.692-.097-1.36-.262-2H7v4h4.459A4 4 0 018 12a4 4 0 01-4-4 4 4 0 014-4 4 4 0 013.271 1.715l.706-.735a5 5 0 00-.002-.001l1.136-1.26.69-.803.172-.225A7.973 7.973 0 008 0zm0 1c1.777 0 3.395.667 4.629 1.758l-1.34 1.486A5 5 0 008 3a5 5 0 00-3.908 1.885l-1.42-1.42A6.982 6.982 0 018 1zM2.076 4.283L3.54 5.746A5 5 0 003 8a5 5 0 00.344 1.809l-1.733 1.04a6.958 6.958 0 01.465-6.566zM8 7h6.922c.047.327.078.66.078 1a6.971 6.971 0 01-1.982 4.873l-1.575-1.26A5 5 0 0012.895 9H8V7zm-4.2 3.705A5 5 0 008 13a5 5 0 002.629-.756l1.629 1.303A6.96 6.96 0 018 15a6.988 6.988 0 01-5.914-3.268L3.8 10.705z"/>
    <path d="M8 7v2h4.895a5 5 0 01-1.452 2.613l1.575 1.26c.306-.315.583-.66.826-1.027.089-.135.168-.276.248-.416a7 7 0 00.11-.19c.051-.098.095-.201.142-.302.054-.114.106-.228.154-.344.033-.083.06-.17.09-.254.048-.131.092-.263.133-.397.024-.084.043-.17.064-.255.036-.139.068-.278.096-.418.018-.1.03-.203.045-.305A6.998 6.998 0 0015 8a6.831 6.831 0 00-.084-1H11.867z" opacity=".4"/>
    <path d="M10.953 10.69c-7.302 3.54-3.65 1.77 0 0zm-7.152.015l-1.713 1.027.01.018a7.067 7.067 0 002.552 2.389c.193.106.393.2.596.287l.154.07c.245.098.495.184.752.254.076.018.151.035.227.05a6.924 6.924 0 00.85.15c.254.027.51.05.771.05.218 0 .437-.012.654-.033.07-.007.137-.017.205-.026a6.907 6.907 0 001.5-.36 7.039 7.039 0 001.885-1.024l.014-.01-1.63-1.303A5 5 0 018 13a5 5 0 01-4.2-2.295zm7.002.139zm-.29.258zm-.302.222zm-.334.201zm-.39.182zm-.34.12zm-.383.093zm-.44.062z" opacity=".3"/>
    <path d="M8 1c-.254 0-.503.017-.75.043a7 7 0 00-.232.035 6.99 6.99 0 00-.498.084 7 7 0 00-.295.076c-.134.035-.268.07-.399.114-.105.035-.21.073-.312.113-.129.049-.256.1-.381.156a6.992 6.992 0 00-1.477.898 7.06 7.06 0 00-.98.95l1.416 1.416A5 5 0 018 3a5 5 0 013.29 1.244l1.333-1.48c-.056-.05-.112-.1-.17-.149-.07-.059-.141-.118-.215-.174a7 7 0 00-.33-.234c-.072-.049-.142-.1-.217-.146a7 7 0 00-.396-.225c-.06-.032-.117-.067-.178-.098a7 7 0 00-1.281-.49 7 7 0 00-.647-.143c-.055-.01-.112-.015-.168-.023A7 7 0 008 1zm5.111 2.719l-1.136 1.26.002.001.523-.548z" opacity=".2"/>
    <path d="M2.076 4.283L3.54 5.746A5 5 0 003 8a5 5 0 00.344 1.809l-1.733 1.04a6.958 6.958 0 01.465-6.566z" opacity=".1"/>
</svg>
