<svg xmlns="http://www.w3.org/2000/svg" viewBox="0 0 16 16" fill="currentColor" height="16px" width="16px">
    <path d="M3 13v-3h10v3c-.5.932-2.5 2-5 2s-4.423-1-5-2z" opacity=".1"/>
    <path d="M8-.014c-.552 0-1.064.051-1.555.125h-.01a.5.5 0 00-.033.004l-.029.006c-.34.054-.664.122-.975.207C3.858.75 2.666 1.53 1.816 2.471c-.208.23-.388.472-.558.716a7.16 7.16 0 00-.393.633C.271 4.9 0 6.033 0 7c0 1.242.59 2.117 1.451 2.531.174.084.36.143.549.2V13c0 2 3.5 3 6 3s6-1 6-3V9.73a3.77 3.77 0 00.549-.199C15.41 9.117 16 8.242 16 7a.5.5 0 000-.016c-.028-.947-.3-2.063-.88-3.13l-.003-.006a.5.5 0 00-.006-.012c-.002-.005-.007-.009-.01-.014a7.301 7.301 0 00-.357-.584c-.011-.017-.021-.034-.033-.05a7.169 7.169 0 00-.555-.715c-.666-.745-1.546-1.386-2.642-1.834a8.132 8.132 0 00-.897-.305L10.604.33c-.01-.002-.02-.003-.028-.006A8.94 8.94 0 009.64.123l-.04-.008A.5.5 0 009.546.11H9.54A10.279 10.279 0 008-.014zm0 1c.352 0 .685.02 1.004.051A4.005 4.005 0 0013 5c.494 0 .982-.093 1.44-.27.362.8.537 1.61.558 2.278-.002.966-.302 1.343-.885 1.623-.492.237-1.244.332-2.115.357A4.006 4.006 0 008 5C5.8 5 4.009 6.79 4.002 8.988c-.871-.025-1.623-.12-2.115-.357C1.302 8.349 1 7.974 1 7c0-.665.169-1.476.533-2.28C2 4.905 2.497 5 3 5a4.005 4.005 0 003.996-3.963c.32-.032.652-.05 1.004-.05zm-2.158.397C5.63 2.835 4.512 4 3 4c-.283 0-.54-.13-.81-.209.745-1.077 1.928-1.956 3.652-2.408zm4.316.002c1.717.454 2.889 1.333 3.63 2.414-.264.074-.513.2-.788.201-1.512 0-2.63-1.164-2.842-2.615zM8 6c1.663 0 3 1.337 3 3H5c0-1.663 1.337-3 3-3zm-5 4h10v3c-.5.932-2.5 2-5 2s-4.423-1-5-2v-3zm3.5 1c-.277 0-.5.223-.5.5v2a.499.499 0 101 0v-2c0-.277-.223-.5-.5-.5zm3 0c-.277 0-.5.223-.5.5v2a.499.499 0 101 0v-2c0-.277-.223-.5-.5-.5z" style="line-height:normal;font-variant-ligatures:normal;font-variant-position:normal;font-variant-caps:normal;font-variant-numeric:normal;font-variant-alternates:normal;font-variant-east-asian:normal;font-feature-settings:normal;font-variation-settings:normal;text-indent:0;text-align:start;text-decoration-line:none;text-decoration-style:solid;text-decoration-color:#000;text-transform:none;text-orientation:mixed;white-space:normal;shape-padding:0;shape-margin:0;inline-size:0;isolation:auto;mix-blend-mode:normal;solid-color:#000;solid-opacity:1" color="#000" font-family="sans-serif" font-weight="400" overflow="visible"/>
    <path style="line-height:normal;font-variant-ligatures:normal;font-variant-position:normal;font-variant-caps:normal;font-variant-numeric:normal;font-variant-alternates:normal;font-variant-east-asian:normal;font-feature-settings:normal;font-variation-settings:normal;text-indent:0;text-align:start;text-decoration-line:none;text-decoration-style:solid;text-decoration-color:#000;text-transform:none;text-orientation:mixed;white-space:normal;shape-padding:0;shape-margin:0;inline-size:0;isolation:auto;mix-blend-mode:normal;solid-color:#000;solid-opacity:1" d="M8 .986c.352 0 .685.02 1.004.051A4.005 4.005 0 0013 5c.494 0 .982-.093 1.44-.27.362.8.537 1.61.558 2.278-.002.966-.302 1.343-.885 1.623-.492.237-1.244.332-2.115.357A4.006 4.006 0 008 5C5.8 5 4.009 6.79 4.002 8.988c-.871-.025-1.623-.12-2.115-.357C1.302 8.349 1 7.974 1 7c0-.665.169-1.476.533-2.28C2 4.905 2.497 5 3 5a4.005 4.005 0 003.996-3.963c.32-.032.652-.05 1.004-.05zM6.5 11c-.277 0-.5.223-.5.5v2a.499.499 0 101 0v-2c0-.277-.223-.5-.5-.5zm3 0c-.277 0-.5.223-.5.5v2a.499.499 0 101 0v-2c0-.277-.223-.5-.5-.5z" color="#000" font-family="sans-serif" font-weight="400" opacity=".2" overflow="visible"/>
</svg>
