<svg xmlns="http://www.w3.org/2000/svg" viewBox="0 0 16 16">
    <path d="M7.975 0C5.92.017 3.442.238 2.29.765c0 0-2.285 1.017-2.285 4.488 0 .795-.016 1.745.01 2.753.083 3.394.625 6.74 3.779 7.57 1.454.383 2.703.463 3.709.408C9 15.984 10 16 10 16v-2H7.523C5 14 4 12.5 4 11.5c0 0 2 .5 4.001.5C10 12 11 11.768 12 11.5c4.007-1.201 4-2.379 4-6.247S13.714.765 13.714.765C12.56.238 10.08.017 8.024 0h-.049zM5.75 3c.932 0 1.752.46 2.249 1.166A2.74 2.74 0 0 1 10.247 3a2.744 2.744 0 0 1 2.75 2.75C12.998 7 13 7 13 9h-1.992V6a1 1 0 1 0-2 0L9 8H7V6c0-.554-.446-1-1-1s-1 .446-1 1v3H3V5.75A2.744 2.744 0 0 1 5.75 3z"/>
</svg>
