<svg xmlns="http://www.w3.org/2000/svg" viewBox="0 0 16 16" fill="currentColor" height="16px" width="16px">
    <path d="M10 2v12h2.5c1.385 0 2.5-1.115 2.5-2.5v-7C15 3.115 13.885 2 12.5 2z" opacity=".4"/>
    <path d="M3.5 2A2.495 2.495 0 001 4.5v7C1 12.885 2.115 14 3.5 14H6V2z" opacity=".2"/>
    <path d="M3.5 1C1.57 1 0 2.57 0 4.5v7C0 13.43 1.57 15 3.5 15H7V1H3.5zM9 1v14h3.5c1.93 0 3.5-1.57 3.5-3.5v-7C16 2.57 14.43 1 12.5 1H9zM3.5 2H6v12H3.5A2.484 2.484 0 011 11.5v-7C1 3.106 2.106 2 3.5 2zM10 2h2.5C13.894 2 15 3.106 15 4.5v7c0 1.394-1.106 2.5-2.5 2.5H10V2zM3.51 4a1.5 1.5 0 00-1.5 1.5A1.5 1.5 0 003.51 7a1.5 1.5 0 001.5-1.5A1.5 1.5 0 003.51 4zm8.982 4a1.5 1.5 0 00-1.5 1.5 1.5 1.5 0 001.5 1.5 1.5 1.5 0 001.5-1.5 1.5 1.5 0 00-1.5-1.5z"/>
</svg>
