<svg xmlns="http://www.w3.org/2000/svg" viewBox="0 0 16 16" fill="currentColor" height="16px" width="16px">
    <path fill-rule="evenodd" d="M5.972 1v12l3.004 1V4c0-1 1.001-1 1.001 0v4c4.2.194 3.505-5.33 1.002-6zM4.971 8.564L1.73 9.828s-.905.298-1.437.692c-1.33 1.327 2.174 2.523 4.42 2.523L4.97 13v-1.969c-2.504 1.28-3.826-.175 0-.953zm7.783.444c-.695.029-1.317.127-1.566.193-.272.073-.388.134-1.21.549v1.566l1.902-1.068c.477-.171 1.176-.207 1.563-.08.387.126.314.367-.163.537l-3.303 1.578v1.51l4.81-2.13s.766-.282 1.079-.677c.313-.394.13-1.37-1.101-1.76-.546-.206-1.315-.247-2.01-.218z"/>
</svg>
