<svg xmlns="http://www.w3.org/2000/svg" viewBox="0 0 16 16" fill="currentColor" height="16px" width="16px">
    <path d="M8 0C2.812-.197-1.359 5.47.357 10.363 1.64 15.067 7.64 17.5 11.834 15.02c3.257-1.722 4.973-5.862 3.809-9.383C14.67 2.344 11.43-.047 8 0zm0 1c1.36-.052 2.634.36 3.717 1.072a7 7 0 01.32.221l.055.037a7 7 0 01.013.012 7 7 0 012.674 3.945c.02.071.038.143.055.215a7 7 0 01.039.184c.022.104.05.208.066.314h-.02A7 7 0 0115 8h-4a3 3 0 00-.174-1h-.002a3 3 0 00-.113-.277 3 3 0 00-.143-.264 3 3 0 00-.166-.25 3 3 0 00-.187-.227 3 3 0 00-.004-.005 3 3 0 00-.002-.002 3 3 0 00-.211-.21 3 3 0 00-.232-.187 3 3 0 00-.198-.13 3 3 0 00-.082-.052 3 3 0 00-.183-.095 3 3 0 00-.076-.035 3 3 0 00-.182-.075 3 3 0 00-.113-.04 3 3 0 00-.168-.047 3 3 0 00-.118-.03 3 3 0 00-.156-.03 3 3 0 00-.152-.023 3 3 0 00-.149-.011A3 3 0 008 5a3 3 0 00-.264.014 3 3 0 00-.107.013 3 3 0 00-.2.03 3 3 0 00-.091.021 3 3 0 00-.195.049 3 3 0 00-.086.03 3 3 0 00-.215.077 3 3 0 00-.035.016 3 3 0 00-.233.113 3 3 0 00-.047.028 3 3 0 00-.195.119 3 3 0 00-.078.054 3 3 0 00-.172.131 3 3 0 00-.047.043 3 3 0 00-.172.158 3 3 0 00-.047.051 3 3 0 00-.154.178 3 3 0 00-.037.047 3 3 0 00-.137.193 3 3 0 00-.035.055 3 3 0 00-.117.207 3 3 0 00-.022.045 3 3 0 00-.101.224A3 3 0 005 8H1a7 7 0 01.078-1h-.004c.003-.024.01-.048.014-.072a7 7 0 01.05-.283 6.43 6.43 0 01.106-.47 7 7 0 01.031-.105c.054-.186.113-.37.182-.55a7 7 0 01.045-.114 6.78 6.78 0 01.191-.43 7 7 0 01.135-.269c.035-.063.071-.125.108-.187a7 7 0 012.45-2.506l.08-.05a7 7 0 01.352-.19c.118-.062.237-.12.358-.174a7 7 0 01.166-.073A6.525 6.525 0 018 1zm0 5a2 2 0 012 2 2 2 0 01-2 2 2 2 0 01-2-2 2 2 0 012-2zm0 1a1 1 0 00-1 1 1 1 0 001 1 1 1 0 001-1 1 1 0 00-1-1zM1.07 9h4.106a3 3 0 00.113.277 3 3 0 00.143.264 3 3 0 00.166.25 3 3 0 00.187.227 3 3 0 00.006.007 3 3 0 00.211.21 3 3 0 00.232.187 3 3 0 00.198.13 3 3 0 00.082.052 3 3 0 00.183.095 3 3 0 00.076.035 3 3 0 00.182.075 3 3 0 00.113.04 3 3 0 00.168.047 3 3 0 00.118.03 3 3 0 00.156.03 3 3 0 00.152.023 3 3 0 00.149.011A3 3 0 008 11a3 3 0 00.264-.014 3 3 0 00.107-.013 3 3 0 00.2-.03 3 3 0 00.091-.021 3 3 0 00.195-.049 3 3 0 00.086-.03 3 3 0 00.215-.077 3 3 0 00.01-.004 3 3 0 00.025-.012 3 3 0 00.233-.113 3 3 0 00.011-.006 3 3 0 00.036-.022 3 3 0 00.195-.119 3 3 0 00.078-.054 3 3 0 00.172-.131 3 3 0 00.014-.012 3 3 0 00.033-.031 3 3 0 00.172-.158 3 3 0 00.047-.051 3 3 0 00.154-.178 3 3 0 00.037-.047 3 3 0 00.137-.193 3 3 0 00.011-.016 3 3 0 00.024-.039 3 3 0 00.117-.207 3 3 0 00.008-.014 3 3 0 00.014-.03 3 3 0 00.101-.225A3 3 0 0010.822 9H14.943c-.043.287-.112.57-.195.854a7 7 0 01-.031.103c-.033.103-.058.208-.098.31-.016.052-.039.1-.056.151a7 7 0 01-.069.186 6.544 6.544 0 01-1.406 2.197 7 7 0 01-.074.082 7 7 0 01-3.157 1.86l-.007.001a7 7 0 01-.03.006 7 7 0 01-.521.125 6.83 6.83 0 01-1.795.107 6.256 6.256 0 01-.428-.05 7 7 0 01-1.16-.258 6.322 6.322 0 01-.357-.12 7 7 0 01-.79-.347c-.048-.026-.094-.055-.142-.082a7 7 0 01-3.53-5.01c-.006-.039-.02-.076-.027-.115z"/>
    <path d="M8 1a7 7 0 00-7 7h5a2 2 0 002 2 2 2 0 002-2h5a7 7 0 00-7-7z" opacity=".2"/>
</svg>
