<svg xmlns="http://www.w3.org/2000/svg" viewBox="0 0 16 16" fill="currentColor" height="16px" width="16px">
    <path d="M10.5 1C9.669 1 9 1.669 9 2.5v4c0 .831.669 1.5 1.5 1.5S12 7.331 12 6.5v-4c0-.831-.669-1.5-1.5-1.5zm0 1c.277 0 .5.223.5.5v4a.499.499 0 11-1 0v-4c0-.277.223-.5.5-.5zm4 3c-.831 0-1.5.669-1.5 1.5v1c0 .277.223.5.5.5h1c.831 0 1.5-.669 1.5-1.5S15.331 5 14.5 5zm0 1a.499.499 0 110 1 .499.499 0 110-1zM10.5 9C9.669 9 9 9.669 9 10.5s.669 1.5 1.5 1.5h4c.831 0 1.5-.669 1.5-1.5S15.331 9 14.5 9zm0 1h4a.499.499 0 110 1h-4a.499.499 0 110-1zm-1 3c-.277 0-.5.223-.5.5v1c0 .831.669 1.5 1.5 1.5s1.5-.669 1.5-1.5-.669-1.5-1.5-1.5zm1 1a.499.499 0 110 1 .499.499 0 110-1zM6.5 1C5.669 1 5 1.669 5 2.5S5.669 4 6.5 4h1c.277 0 .5-.223.5-.5v-1C8 1.669 7.331 1 6.5 1zm0 1a.499.499 0 110 1 .499.499 0 110-1zm-4 3C1.669 5 1 5.669 1 6.5S1.669 8 2.5 8h4C7.331 8 8 7.331 8 6.5S7.331 5 6.5 5zm0 1h4a.499.499 0 110 1h-4a.499.499 0 110-1zM2.5 9C1.669 9 1 9.669 1 10.5S1.669 12 2.5 12 4 11.331 4 10.5v-1c0-.277-.223-.5-.5-.5zm4 0C5.669 9 5 9.669 5 10.5v4c0 .831.669 1.5 1.5 1.5S8 15.331 8 14.5v-4C8 9.669 7.331 9 6.5 9zm-4 1a.499.499 0 110 1 .499.499 0 110-1zm4 0c.277 0 .5.223.5.5v4a.499.499 0 11-1 0v-4c0-.277.223-.5.5-.5z"/>
    <path d="M2.5 10a.499.499 0 100 1 .499.499 0 100-1zm4 0c-.277 0-.5.223-.5.5v4a.499.499 0 101 0v-4c0-.277-.223-.5-.5-.5z" opacity=".2"/>
    <path d="M10.5 2c-.277 0-.5.223-.5.5v4a.499.499 0 101 0v-4c0-.277-.223-.5-.5-.5zm4 4a.499.499 0 100 1 .499.499 0 100-1z" opacity=".3"/>
    <path d="M6.5 2a.499.499 0 100 1 .499.499 0 100-1zm-4 4a.499.499 0 100 1h4a.499.499 0 100-1z" opacity=".4"/>
    <path d="M10.5 10h4a.499.499 0 110 1h-4a.499.499 0 110-1zm0 4a.499.499 0 110 1 .499.499 0 110-1z" opacity=".1"/>
</svg>
