<svg xmlns="http://www.w3.org/2000/svg" viewBox="0 0 16 16" fill="currentColor" height="16px" width="16px">
    <path d="M15 8a7 7 0 01-7 7 7 7 0 01-7-7 7 7 0 017-7 7 7 0 017 7z" opacity=".2"/>
    <path d="M8 0C2.812-.197-1.359 5.47.357 10.363 1.64 15.067 7.64 17.5 11.834 15.02c3.257-1.722 4.973-5.862 3.809-9.383C14.67 2.344 11.43-.047 8 0zm0 1c4.618-.177 8.283 4.957 6.62 9.268-1.014 3.193-4.56 5.263-7.83 4.62-3.51-.54-6.18-4.063-5.755-7.587C1.32 3.81 4.497.935 8 1zm0 2c-1.387.334-2.776.651-4 2-.943.959-1.633 2.13-1.5 4C3.288 7.967 3.703 6.663 5 6v5H4c1.19 1.114 2.446 2.024 4 2l1.5-1 1 1c1.35-.753 2.015-1.833 2.5-3-.677.372-1.5 1.308-2 1V5.5L12 4c-.965.04-1.96.335-3 1H8l1 1v3s0 1-1 1-1-1-1-1V6s-.446-.27-.5-.5c-.121-.513.223-1.052.5-1.5.248-.401 1-1 1-1z"/>
</svg>
