<svg xmlns="http://www.w3.org/2000/svg" viewBox="0 0 16 16" fill="currentColor" height="16px" width="16px">
    <path d="M8 1c-.5.003-.71.5-.998.996L4.272 7h7.46l-2.73-5.002c-.288-.498-.497-.993-.998-.996L8 1zm4.283 7.01L8.861 14h5.141c1 0 1.292-.504 1.004-1.004L12.283 8.01zm-8.564.004L.998 12.996C.71 13.496 1.002 14 2.002 14h5.137l-3.42-5.986z" opacity=".2"/>
    <path d="M7.963 0a1.499 1.499 0 00-1.277.785L.184 12.783A1.5 1.5 0 001.5 15h13a1.5 1.5 0 001.316-2.217L9.318.785A1.496 1.496 0 007.963 0zM8 1h.004c.5.003.71.5.998.996L11.734 7H4.271l2.731-5.002c.288-.498.497-.993.998-.996V1zM4.861 8h6.278L8 13.492 4.861 8zm7.424.01l2.72 4.984c.289.5-.003 1.004-1.003 1.004h-5.14l3.423-5.988zm-8.566.004l3.42 5.984H2.002c-1 0-1.293-.504-1.004-1.004l2.72-4.98z"/>
</svg>
