<?xml version="1.0" encoding="UTF-8" standalone="no"?>
<svg
   xmlns:dc="http://purl.org/dc/elements/1.1/"
   xmlns:cc="http://creativecommons.org/ns#"
   xmlns:rdf="http://www.w3.org/1999/02/22-rdf-syntax-ns#"
   xmlns:svg="http://www.w3.org/2000/svg"
   xmlns="http://www.w3.org/2000/svg"
   xmlns:sodipodi="http://sodipodi.sourceforge.net/DTD/sodipodi-0.dtd"
   xmlns:inkscape="http://www.inkscape.org/namespaces/inkscape"
   height="48"
   width="48"
   version="1.1"
   id="svg8"
   sodipodi:docname="shades-logo.svg"
   inkscape:version="0.92.4 5da689c313, 2019-01-14">
  <metadata
     id="metadata14">
    <rdf:RDF>
      <cc:Work
         rdf:about="">
        <dc:format>image/svg+xml</dc:format>
        <dc:type
           rdf:resource="http://purl.org/dc/dcmitype/StillImage" />
        <dc:title></dc:title>
      </cc:Work>
    </rdf:RDF>
  </metadata>
  <defs
     id="defs12" />
  <sodipodi:namedview
     pagecolor="#ffffff"
     bordercolor="#666666"
     borderopacity="1"
     objecttolerance="10"
     gridtolerance="10"
     guidetolerance="10"
     inkscape:pageopacity="0"
     inkscape:pageshadow="2"
     inkscape:window-width="1920"
     inkscape:window-height="1017"
     id="namedview10"
     showgrid="true"
     inkscape:zoom="2.8284271"
     inkscape:cx="-36.147624"
     inkscape:cy="-47.91563"
     inkscape:window-x="0"
     inkscape:window-y="30"
     inkscape:window-maximized="1"
     inkscape:current-layer="svg8"
     showborder="true">
    <inkscape:grid
       type="xygrid"
       id="grid821"
       empspacing="4"
       visible="true"
       snapvisiblegridlinesonly="true" />
    <inkscape:grid
       type="xygrid"
       id="grid823"
       empspacing="2"
       color="#ffef3f"
       opacity="0.2745098"
       empcolor="#ffef3f"
       empopacity="0.2745098"
       spacingy="0.5"
       spacingx="0.5"
       dotted="true"
       visible="true" />
  </sodipodi:namedview>
  <g
     id="g822"
     transform="scale(3)">
    <path
       sodipodi:nodetypes="ssczcccczcsssccsssssczcsssssczcss"
       inkscape:connector-curvature="0"
       id="rect880"
       d="M 2,5 C 0.892,5 0,5.892 0,7 v 2 c 0,1 0.5,3 3,3 2.5,0 4,-1.5 4,-3 V 8 h 2 v 1 c 0,1.5 1.5,3 4,3 2.5,0 3,-2 3,-3 V 7 C 16,5.892 15.108,5 14,5 H 11 C 9.892,5 9,5.892 9,7 H 7 C 7,5.892 6.108,5 5,5 Z M 2,6 H 5 C 5.554,6 6,6.446 6,7 V 9 C 6,10 4.5,11 3,11 1.5,11 1,10 1,9 V 7 C 1,6.446 1.446,6 2,6 Z m 9,0 h 3 c 0.554,0 1,0.446 1,1 v 2 c 0,1 -0.5,2 -2,2 -1.5,0 -3,-1 -3,-2 V 7 c 0,-0.554 0.446,-1 1,-1 z"
       style="opacity:1;vector-effect:none;fill:#000000;fill-opacity:1;stroke:none;stroke-width:1.00000012;stroke-linecap:round;stroke-linejoin:miter;stroke-miterlimit:4;stroke-dasharray:none;stroke-dashoffset:0;stroke-opacity:1" />
    <path
       sodipodi:nodetypes="czcsccssczcsss"
       inkscape:connector-curvature="0"
       id="rect882"
       d="m 1,9 c 0,1 0.5,2 2,2 1.5,0 3,-1 3,-2 V 7 C 6,6.446 5.554,6 5,6 Z M 11,6 c -0.554,0 -1,0.446 -1,1 v 2 c 0,1 1.5,2 3,2 1.5,0 2,-1 2,-2 V 7 C 15,6.446 14.554,6 14,6 Z"
       style="opacity:0.5;vector-effect:none;fill:#000000;fill-opacity:1;stroke:none;stroke-width:1.00000012;stroke-linecap:round;stroke-linejoin:miter;stroke-miterlimit:4;stroke-dasharray:none;stroke-dashoffset:0;stroke-opacity:1" />
    <path
       sodipodi:nodetypes="sccss"
       inkscape:connector-curvature="0"
       id="rect815"
       d="M 2,6 H 5 C 3.6707031,7 2,8.2568125 1,9 V 7 C 1,6.446 1.446,6 2,6 Z"
       style="opacity:0.2;fill:#000000;fill-opacity:1;stroke:none;stroke-width:1;stroke-linecap:round;stroke-linejoin:round;stroke-miterlimit:4;stroke-dasharray:none;stroke-dashoffset:0.5;stroke-opacity:1" />
  </g>
</svg>
