<?xml version="1.0" encoding="UTF-8" standalone="no"?>
<svg
   xmlns:dc="http://purl.org/dc/elements/1.1/"
   xmlns:cc="http://creativecommons.org/ns#"
   xmlns:rdf="http://www.w3.org/1999/02/22-rdf-syntax-ns#"
   xmlns:svg="http://www.w3.org/2000/svg"
   xmlns="http://www.w3.org/2000/svg"
   xmlns:sodipodi="http://sodipodi.sourceforge.net/DTD/sodipodi-0.dtd"
   xmlns:inkscape="http://www.inkscape.org/namespaces/inkscape"
   height="64"
   width="280"
   version="1.1"
   id="svg8"
   sodipodi:docname="shades-logotype.svg"
   inkscape:version="1.0 (4035a4fb49, 2020-05-01)">
  <metadata
     id="metadata14">
    <rdf:RDF>
      <cc:Work
         rdf:about="">
        <dc:format>image/svg+xml</dc:format>
        <dc:type
           rdf:resource="http://purl.org/dc/dcmitype/StillImage" />
        <dc:title></dc:title>
      </cc:Work>
    </rdf:RDF>
  </metadata>
  <defs
     id="defs12" />
  <sodipodi:namedview
     pagecolor="#ffffff"
     bordercolor="#666666"
     borderopacity="1"
     objecttolerance="10"
     gridtolerance="10"
     guidetolerance="10"
     inkscape:pageopacity="0"
     inkscape:pageshadow="2"
     inkscape:window-width="2560"
     inkscape:window-height="1373"
     id="namedview10"
     showgrid="true"
     inkscape:zoom="2.8284271"
     inkscape:cx="130.31071"
     inkscape:cy="2.2230638"
     inkscape:window-x="0"
     inkscape:window-y="30"
     inkscape:window-maximized="1"
     inkscape:current-layer="svg8"
     showborder="true"
     inkscape:document-rotation="0">
    <inkscape:grid
       type="xygrid"
       id="grid821"
       empspacing="4"
       visible="true"
       snapvisiblegridlinesonly="true" />
    <inkscape:grid
       type="xygrid"
       id="grid823"
       empspacing="2"
       color="#ffef3f"
       opacity="0.2745098"
       empcolor="#ffef3f"
       empopacity="0.2745098"
       spacingy="0.5"
       spacingx="0.5"
       dotted="true"
       visible="true" />
  </sodipodi:namedview>
  <g
     style="stroke-width:0.5"
     id="g886"
     transform="matrix(2,0,0,2,90,-8)">
    <g
       style="stroke-width:0.5"
       transform="scale(3)"
       id="g822">
      <path
         style="opacity:1;vector-effect:none;fill:#000000;fill-opacity:1;stroke:none;stroke-width:0.5;stroke-linecap:round;stroke-linejoin:miter;stroke-miterlimit:4;stroke-dasharray:none;stroke-dashoffset:0;stroke-opacity:1"
         d="M 2,5 C 0.892,5 0,5.892 0,7 v 2 c 0,1 0.5,3 3,3 2.5,0 4,-1.5 4,-3 V 8 h 2 v 1 c 0,1.5 1.5,3 4,3 2.5,0 3,-2 3,-3 V 7 C 16,5.892 15.108,5 14,5 H 11 C 9.892,5 9,5.892 9,7 H 7 C 7,5.892 6.108,5 5,5 Z M 2,6 H 5 C 5.554,6 6,6.446 6,7 V 9 C 6,10 4.5,11 3,11 1.5,11 1,10 1,9 V 7 C 1,6.446 1.446,6 2,6 Z m 9,0 h 3 c 0.554,0 1,0.446 1,1 v 2 c 0,1 -0.5,2 -2,2 -1.5,0 -3,-1 -3,-2 V 7 c 0,-0.554 0.446,-1 1,-1 z"
         id="rect880"
         inkscape:connector-curvature="0"
         sodipodi:nodetypes="ssczcccczcsssccsssssczcsssssczcss" />
      <path
         style="opacity:0.5;vector-effect:none;fill:#000000;fill-opacity:1;stroke:none;stroke-width:0.5;stroke-linecap:round;stroke-linejoin:miter;stroke-miterlimit:4;stroke-dasharray:none;stroke-dashoffset:0;stroke-opacity:1"
         d="m 1,9 c 0,1 0.5,2 2,2 1.5,0 3,-1 3,-2 V 7 C 6,6.446 5.554,6 5,6 Z M 11,6 c -0.554,0 -1,0.446 -1,1 v 2 c 0,1 1.5,2 3,2 1.5,0 2,-1 2,-2 V 7 C 15,6.446 14.554,6 14,6 Z"
         id="rect882"
         inkscape:connector-curvature="0"
         sodipodi:nodetypes="czcsccssczcsss" />
      <path
         style="opacity:0.2;fill:#000000;fill-opacity:1;stroke:none;stroke-width:0.5;stroke-linecap:round;stroke-linejoin:round;stroke-miterlimit:4;stroke-dasharray:none;stroke-dashoffset:0.5;stroke-opacity:1"
         d="M 2,6 H 5 C 3.6707031,7 2,8.2568125 1,9 V 7 C 1,6.446 1.446,6 2,6 Z"
         id="rect815"
         inkscape:connector-curvature="0"
         sodipodi:nodetypes="sccss" />
    </g>
    <g
       style="stroke-width:0.5"
       transform="translate(0,2.8)"
       id="g869" />
    <rect
       y="4"
       x="45"
       height="32"
       width="3"
       id="rect871"
       style="opacity:1;fill:#000000;fill-opacity:1;stroke:none;stroke-width:1;stroke-linecap:butt;stroke-linejoin:round;stroke-miterlimit:4;stroke-dasharray:none;stroke-dashoffset:0;stroke-opacity:1" />
    <rect
       y="24"
       x="18"
       height="12"
       width="3"
       id="rect873"
       style="opacity:1;fill:#000000;fill-opacity:1;stroke:none;stroke-width:1;stroke-linecap:butt;stroke-linejoin:round;stroke-miterlimit:4;stroke-dasharray:none;stroke-dashoffset:0;stroke-opacity:1" />
    <rect
       style="opacity:1;fill:#000000;fill-opacity:1;stroke:none;stroke-width:1;stroke-linecap:butt;stroke-linejoin:round;stroke-miterlimit:4;stroke-dasharray:none;stroke-dashoffset:0;stroke-opacity:1"
       id="rect849"
       width="3"
       height="32"
       x="-22"
       y="4" />
    <path
       id="rect851"
       style="opacity:1;fill:#000000;fill-opacity:1;stroke:none;stroke-width:1;stroke-linecap:butt;stroke-linejoin:round;stroke-miterlimit:4;stroke-dasharray:none;stroke-dashoffset:0;stroke-opacity:1"
       d="M 26,8 V 25 29.5 40 h 3 V 29.5 25 c 0,-1.687946 1.312054,-3 3,-3 h 6 c 1.687946,0 3,1.312054 3,3 v 4 0.5 10.5 h 3 V 29.5 29 25 c 0,-3.298054 -2.701946,-6 -6,-6 h -6 c -1.091766,0 -2.115272,0.300622 -3,0.816406 V 8 Z"
       transform="translate(-48,-4)" />
  </g>
  <rect
     style="opacity:0.3;fill:none;stroke:none;stroke-width:3;stroke-linecap:round;stroke-linejoin:round;stop-color:#000000"
     id="rect847"
     width="6"
     height="40"
     x="180"
     y="6.6394819e-09"
     rx="0"
     ry="0" />
  <path
     id="path885"
     style="color:#000000;font-style:normal;font-variant:normal;font-weight:normal;font-stretch:normal;font-size:medium;line-height:normal;font-family:sans-serif;font-variant-ligatures:normal;font-variant-position:normal;font-variant-caps:normal;font-variant-numeric:normal;font-variant-alternates:normal;font-variant-east-asian:normal;font-feature-settings:normal;font-variation-settings:normal;text-indent:0;text-align:start;text-decoration:none;text-decoration-line:none;text-decoration-style:solid;text-decoration-color:#000000;letter-spacing:normal;word-spacing:normal;text-transform:none;writing-mode:lr-tb;direction:ltr;text-orientation:mixed;dominant-baseline:auto;baseline-shift:baseline;text-anchor:start;white-space:normal;shape-padding:0;shape-margin:0;inline-size:0;clip-rule:nonzero;display:inline;overflow:visible;visibility:visible;opacity:1;isolation:auto;mix-blend-mode:normal;color-interpolation:sRGB;color-interpolation-filters:linearRGB;solid-color:#000000;solid-opacity:1;vector-effect:none;fill:#000000;fill-opacity:1;fill-rule:nonzero;stroke:none;stroke-width:3;stroke-linecap:round;stroke-linejoin:round;stroke-miterlimit:4;stroke-dasharray:none;stroke-dashoffset:0;stroke-opacity:1;color-rendering:auto;image-rendering:auto;shape-rendering:auto;text-rendering:auto;enable-background:accumulate;stop-color:#000000;stop-opacity:1"
     d="M 12,6 C 5.4038916,6 0,11.403892 0,18 v 6 c 0,6.596108 5.4038916,12 12,12 h 5 5 4 c 3.375892,0 6,2.624108 6,6 v 10 c 0,3.375892 -2.624108,6 -6,6 H 12 C 8.6241084,58 6,55.375892 6,52 V 50 H 0 v 2 c 0,6.596108 5.4038916,12 12,12 h 14 c 6.596108,0 12,-5.403892 12,-12 V 42 C 38,35.403892 32.596108,30 26,30 H 22 17 12 C 8.6241084,30 6,27.375892 6,24 v -6 c 0,-3.375892 2.6241084,-6 6,-6 h 14 c 3.375892,0 6,2.624108 6,6 h 6 C 38,11.403892 32.596108,6 26,6 Z" />
  <path
     id="path907"
     style="color:#000000;font-style:normal;font-variant:normal;font-weight:normal;font-stretch:normal;font-size:medium;line-height:normal;font-family:sans-serif;font-variant-ligatures:normal;font-variant-position:normal;font-variant-caps:normal;font-variant-numeric:normal;font-variant-alternates:normal;font-variant-east-asian:normal;font-feature-settings:normal;font-variation-settings:normal;text-indent:0;text-align:start;text-decoration:none;text-decoration-line:none;text-decoration-style:solid;text-decoration-color:#000000;letter-spacing:normal;word-spacing:normal;text-transform:none;writing-mode:lr-tb;direction:ltr;text-orientation:mixed;dominant-baseline:auto;baseline-shift:baseline;text-anchor:start;white-space:normal;shape-padding:0;shape-margin:0;inline-size:0;clip-rule:nonzero;display:inline;overflow:visible;visibility:visible;opacity:1;isolation:auto;mix-blend-mode:normal;color-interpolation:sRGB;color-interpolation-filters:linearRGB;solid-color:#000000;solid-opacity:1;vector-effect:none;fill:#000000;fill-opacity:1;fill-rule:nonzero;stroke:none;stroke-width:3;stroke-linecap:round;stroke-linejoin:round;stroke-miterlimit:4;stroke-dasharray:none;stroke-dashoffset:0;stroke-opacity:1;color-rendering:auto;image-rendering:auto;shape-rendering:auto;text-rendering:auto;enable-background:accumulate;stop-color:#000000;stop-opacity:1"
     d="m 210,20 c -8.8121,0 -16,7.187892 -16,16 v 12 c 0,8.812108 7.1879,16 16,16 h 10 c 7.4296,0 13.68658,-5.115526 15.47266,-12 h -6.29298 c -1.52122,3.553956 -5.01806,6 -9.17968,6 h -10 c -5.5919,0 -10,-4.408108 -10,-10 v -4 h 30 6 v -8 c 0,-8.812108 -7.1879,-16 -16,-16 z m 0,6 h 10 c 5.5919,0 10,4.408108 10,10 v 2 h -30 v -2 c 0,-5.591892 4.4081,-10 10,-10 z" />
  <path
     id="path925"
     style="color:#000000;font-style:normal;font-variant:normal;font-weight:normal;font-stretch:normal;font-size:medium;line-height:normal;font-family:sans-serif;font-variant-ligatures:normal;font-variant-position:normal;font-variant-caps:normal;font-variant-numeric:normal;font-variant-alternates:normal;font-variant-east-asian:normal;font-feature-settings:normal;font-variation-settings:normal;text-indent:0;text-align:start;text-decoration:none;text-decoration-line:none;text-decoration-style:solid;text-decoration-color:#000000;letter-spacing:normal;word-spacing:normal;text-transform:none;writing-mode:lr-tb;direction:ltr;text-orientation:mixed;dominant-baseline:auto;baseline-shift:baseline;text-anchor:start;white-space:normal;shape-padding:0;shape-margin:0;inline-size:0;clip-rule:nonzero;display:inline;overflow:visible;visibility:visible;opacity:1;isolation:auto;mix-blend-mode:normal;color-interpolation:sRGB;color-interpolation-filters:linearRGB;solid-color:#000000;solid-opacity:1;vector-effect:none;fill:#000000;fill-opacity:1;fill-rule:nonzero;stroke:none;stroke-width:3;stroke-linecap:round;stroke-linejoin:round;stroke-miterlimit:4;stroke-dasharray:none;stroke-dashoffset:0;stroke-opacity:1;color-rendering:auto;image-rendering:auto;shape-rendering:auto;text-rendering:auto;enable-background:accumulate;stop-color:#000000;stop-opacity:1"
     d="m 256,22 c -6.58506,0 -12,5.36447 -12,11.9375 v 0.125 C 244,40.635524 249.41494,46 256,46 h 5 3 4 c 3.3759,0 6,2.624108 6,6 0,3.375892 -2.6241,6 -6,6 h -12 c -3.3759,0 -6,-2.624108 -6,-6 h -6 c 0,6.596108 5.4039,12 12,12 h 12 c 6.5961,0 12,-5.403892 12,-12 0,-6.596108 -5.4039,-12 -12,-12 h -4 -3 -5 c -3.38694,0 -6,-2.606936 -6,-5.9375 v -0.125 C 250,30.606926 252.61306,28 256,28 h 12 c 3.38694,0 6,2.606936 6,5.9375 V 34 h 6 V 33.9375 C 280,27.364476 274.58506,22 268,22 Z" />
</svg>
