<?xml version="1.0" encoding="UTF-8" standalone="no"?>
<svg
   xmlns:dc="http://purl.org/dc/elements/1.1/"
   xmlns:cc="http://creativecommons.org/ns#"
   xmlns:rdf="http://www.w3.org/1999/02/22-rdf-syntax-ns#"
   xmlns:svg="http://www.w3.org/2000/svg"
   xmlns="http://www.w3.org/2000/svg"
   xmlns:sodipodi="http://sodipodi.sourceforge.net/DTD/sodipodi-0.dtd"
   xmlns:inkscape="http://www.inkscape.org/namespaces/inkscape"
   inkscape:version="1.0 (4035a4fb49, 2020-05-01)"
   sodipodi:docname="shades-logotype.svg"
   id="svg8"
   version="1.1"
   width="140"
   height="48">
  <metadata
     id="metadata14">
    <rdf:RDF>
      <cc:Work
         rdf:about="">
        <dc:format>image/svg+xml</dc:format>
        <dc:type
           rdf:resource="http://purl.org/dc/dcmitype/StillImage" />
        <dc:title></dc:title>
      </cc:Work>
    </rdf:RDF>
  </metadata>
  <defs
     id="defs12" />
  <sodipodi:namedview
     inkscape:document-rotation="0"
     showborder="true"
     inkscape:current-layer="svg8"
     inkscape:window-maximized="1"
     inkscape:window-y="30"
     inkscape:window-x="0"
     inkscape:cy="-6.1489338"
     inkscape:cx="36.769777"
     inkscape:zoom="5.6568542"
     showgrid="true"
     id="namedview10"
     inkscape:window-height="1373"
     inkscape:window-width="2560"
     inkscape:pageshadow="2"
     inkscape:pageopacity="0"
     guidetolerance="10"
     gridtolerance="10"
     objecttolerance="10"
     borderopacity="1"
     bordercolor="#666666"
     pagecolor="#ffffff">
    <inkscape:grid
       snapvisiblegridlinesonly="true"
       visible="true"
       empspacing="4"
       id="grid821"
       type="xygrid" />
    <inkscape:grid
       visible="true"
       dotted="true"
       spacingx="0.5"
       spacingy="0.5"
       empopacity="0.2745098"
       empcolor="#ffef3f"
       opacity="0.2745098"
       color="#ffef3f"
       empspacing="2"
       id="grid823"
       type="xygrid" />
  </sodipodi:namedview>
  <g
     transform="translate(45,4)"
     id="g886">
    <g
       id="g822"
       transform="scale(3)">
      <path
         sodipodi:nodetypes="ssczcccczcsssccsssssczcsssssczcss"
         inkscape:connector-curvature="0"
         id="rect880"
         d="M 2,5 C 0.892,5 0,5.892 0,7 v 2 c 0,1 0.5,3 3,3 2.5,0 4,-1.5 4,-3 V 8 h 2 v 1 c 0,1.5 1.5,3 4,3 2.5,0 3,-2 3,-3 V 7 C 16,5.892 15.108,5 14,5 H 11 C 9.892,5 9,5.892 9,7 H 7 C 7,5.892 6.108,5 5,5 Z M 2,6 H 5 C 5.554,6 6,6.446 6,7 V 9 C 6,10 4.5,11 3,11 1.5,11 1,10 1,9 V 7 C 1,6.446 1.446,6 2,6 Z m 9,0 h 3 c 0.554,0 1,0.446 1,1 v 2 c 0,1 -0.5,2 -2,2 -1.5,0 -3,-1 -3,-2 V 7 c 0,-0.554 0.446,-1 1,-1 z"
         style="opacity:1;vector-effect:none;fill:#000000;fill-opacity:1;stroke:none;stroke-width:1;stroke-linecap:round;stroke-linejoin:miter;stroke-miterlimit:4;stroke-dasharray:none;stroke-dashoffset:0;stroke-opacity:1" />
      <path
         sodipodi:nodetypes="czcsccssczcsss"
         inkscape:connector-curvature="0"
         id="rect882"
         d="m 1,9 c 0,1 0.5,2 2,2 1.5,0 3,-1 3,-2 V 7 C 6,6.446 5.554,6 5,6 Z M 11,6 c -0.554,0 -1,0.446 -1,1 v 2 c 0,1 1.5,2 3,2 1.5,0 2,-1 2,-2 V 7 C 15,6.446 14.554,6 14,6 Z"
         style="opacity:0.5;vector-effect:none;fill:#000000;fill-opacity:1;stroke:none;stroke-width:1;stroke-linecap:round;stroke-linejoin:miter;stroke-miterlimit:4;stroke-dasharray:none;stroke-dashoffset:0;stroke-opacity:1" />
      <path
         sodipodi:nodetypes="sccss"
         inkscape:connector-curvature="0"
         id="rect815"
         d="M 2,6 H 5 C 3.6707031,7 2,8.2568125 1,9 V 7 C 1,6.446 1.446,6 2,6 Z"
         style="opacity:0.2;fill:#000000;fill-opacity:1;stroke:none;stroke-width:1;stroke-linecap:round;stroke-linejoin:round;stroke-miterlimit:4;stroke-dasharray:none;stroke-dashoffset:0.5;stroke-opacity:1" />
    </g>
    <g
       id="g869"
       transform="translate(0,2.8)" />
    <rect
       style="opacity:1;fill:#000000;fill-opacity:1;stroke:none;stroke-width:2;stroke-linecap:butt;stroke-linejoin:round;stroke-miterlimit:4;stroke-dasharray:none;stroke-dashoffset:0;stroke-opacity:1"
       id="rect871"
       width="3"
       height="32"
       x="45"
       y="4" />
    <rect
       style="opacity:1;fill:#000000;fill-opacity:1;stroke:none;stroke-width:2;stroke-linecap:butt;stroke-linejoin:round;stroke-miterlimit:4;stroke-dasharray:none;stroke-dashoffset:0;stroke-opacity:1"
       id="rect873"
       width="3"
       height="12"
       x="18"
       y="24" />
    <rect
       y="4"
       x="-22"
       height="32"
       width="3"
       id="rect849"
       style="opacity:1;fill:#000000;fill-opacity:1;stroke:none;stroke-width:2;stroke-linecap:butt;stroke-linejoin:round;stroke-miterlimit:4;stroke-dasharray:none;stroke-dashoffset:0;stroke-opacity:1" />
    <path
       transform="translate(-48,-4)"
       d="M 26,8 V 25 29.5 40 h 3 V 29.5 25 c 0,-1.687946 1.312054,-3 3,-3 h 6 c 1.687946,0 3,1.312054 3,3 v 4 0.5 10.5 h 3 V 29.5 29 25 c 0,-3.298054 -2.701946,-6 -6,-6 h -6 c -1.091766,0 -2.115272,0.300622 -3,0.816406 V 8 Z"
       style="opacity:1;fill:#000000;fill-opacity:1;stroke:none;stroke-width:2;stroke-linecap:butt;stroke-linejoin:round;stroke-miterlimit:4;stroke-dasharray:none;stroke-dashoffset:0;stroke-opacity:1"
       id="rect851" />
  </g>
  <rect
     ry="0"
     rx="0"
     y="8"
     x="90"
     height="20"
     width="3"
     id="rect847"
     style="opacity:0.3;fill:none;stroke:none;stroke-width:3;stroke-linecap:round;stroke-linejoin:round;stop-color:#000000" />
  <path
     d="m 6,11 c -3.2980542,0 -6,2.701946 -6,6 v 3 c 0,3.298054 2.7019458,6 6,6 h 2.5 2.5 2 c 1.687946,0 3,1.312054 3,3 v 5 c 0,1.687946 -1.312054,3 -3,3 H 6 C 4.3120542,37 3,35.687946 3,34 V 33 H 0 v 1 c 0,3.298054 2.7019458,6 6,6 h 7 c 3.298054,0 6,-2.701946 6,-6 v -5 c 0,-3.298054 -2.701946,-6 -6,-6 H 11 8.5 6 C 4.3120542,23 3,21.687946 3,20 v -3 c 0,-1.687946 1.3120542,-3 3,-3 h 7 c 1.687946,0 3,1.312054 3,3 h 3 c 0,-3.298054 -2.701946,-6 -6,-6 z"
     style="color:#000000;font-style:normal;font-variant:normal;font-weight:normal;font-stretch:normal;font-size:medium;line-height:normal;font-family:sans-serif;font-variant-ligatures:normal;font-variant-position:normal;font-variant-caps:normal;font-variant-numeric:normal;font-variant-alternates:normal;font-variant-east-asian:normal;font-feature-settings:normal;font-variation-settings:normal;text-indent:0;text-align:start;text-decoration:none;text-decoration-line:none;text-decoration-style:solid;text-decoration-color:#000000;letter-spacing:normal;word-spacing:normal;text-transform:none;writing-mode:lr-tb;direction:ltr;text-orientation:mixed;dominant-baseline:auto;baseline-shift:baseline;text-anchor:start;white-space:normal;shape-padding:0;shape-margin:0;inline-size:0;clip-rule:nonzero;display:inline;overflow:visible;visibility:visible;opacity:1;isolation:auto;mix-blend-mode:normal;color-interpolation:sRGB;color-interpolation-filters:linearRGB;solid-color:#000000;solid-opacity:1;vector-effect:none;fill:#000000;fill-opacity:1;fill-rule:nonzero;stroke:none;stroke-width:3;stroke-linecap:round;stroke-linejoin:round;stroke-miterlimit:4;stroke-dasharray:none;stroke-dashoffset:0;stroke-opacity:1;color-rendering:auto;image-rendering:auto;shape-rendering:auto;text-rendering:auto;enable-background:accumulate;stop-color:#000000;stop-opacity:1"
     id="path885" />
  <path
     d="m 105,18 c -4.40605,0 -8,3.593946 -8,8 v 6 c 0,4.406054 3.59395,8 8,8 h 5 c 3.7148,0 6.84329,-2.557763 7.73633,-6 h -3.14649 c -0.76061,1.776978 -2.50903,3 -4.58984,3 h -5 c -2.79595,0 -5,-2.204054 -5,-5 v -2 h 15 3 v -4 c 0,-4.406054 -3.59395,-8 -8,-8 z m 0,3 h 5 c 2.79595,0 5,2.204054 5,5 v 1 h -15 v -1 c 0,-2.795946 2.20405,-5 5,-5 z"
     style="color:#000000;font-style:normal;font-variant:normal;font-weight:normal;font-stretch:normal;font-size:medium;line-height:normal;font-family:sans-serif;font-variant-ligatures:normal;font-variant-position:normal;font-variant-caps:normal;font-variant-numeric:normal;font-variant-alternates:normal;font-variant-east-asian:normal;font-feature-settings:normal;font-variation-settings:normal;text-indent:0;text-align:start;text-decoration:none;text-decoration-line:none;text-decoration-style:solid;text-decoration-color:#000000;letter-spacing:normal;word-spacing:normal;text-transform:none;writing-mode:lr-tb;direction:ltr;text-orientation:mixed;dominant-baseline:auto;baseline-shift:baseline;text-anchor:start;white-space:normal;shape-padding:0;shape-margin:0;inline-size:0;clip-rule:nonzero;display:inline;overflow:visible;visibility:visible;opacity:1;isolation:auto;mix-blend-mode:normal;color-interpolation:sRGB;color-interpolation-filters:linearRGB;solid-color:#000000;solid-opacity:1;vector-effect:none;fill:#000000;fill-opacity:1;fill-rule:nonzero;stroke:none;stroke-width:3;stroke-linecap:round;stroke-linejoin:round;stroke-miterlimit:4;stroke-dasharray:none;stroke-dashoffset:0;stroke-opacity:1;color-rendering:auto;image-rendering:auto;shape-rendering:auto;text-rendering:auto;enable-background:accumulate;stop-color:#000000;stop-opacity:1"
     id="path907" />
  <path
     d="m 128,19 c -3.29253,0 -6,2.682235 -6,5.96875 v 0.0625 C 122,28.317762 124.70747,31 128,31 h 2.5 1.5 2 c 1.68795,0 3,1.312054 3,3 0,1.687946 -1.31205,3 -3,3 h -6 c -1.68795,0 -3,-1.312054 -3,-3 h -3 c 0,3.298054 2.70195,6 6,6 h 6 c 3.29805,0 6,-2.701946 6,-6 0,-3.298054 -2.70195,-6 -6,-6 h -2 -1.5 -2.5 c -1.69347,0 -3,-1.303468 -3,-2.96875 v -0.0625 C 125,23.303463 126.30653,22 128,22 h 6 c 1.69347,0 3,1.303468 3,2.96875 V 25 h 3 V 24.96875 C 140,21.682238 137.29253,19 134,19 Z"
     style="color:#000000;font-style:normal;font-variant:normal;font-weight:normal;font-stretch:normal;font-size:medium;line-height:normal;font-family:sans-serif;font-variant-ligatures:normal;font-variant-position:normal;font-variant-caps:normal;font-variant-numeric:normal;font-variant-alternates:normal;font-variant-east-asian:normal;font-feature-settings:normal;font-variation-settings:normal;text-indent:0;text-align:start;text-decoration:none;text-decoration-line:none;text-decoration-style:solid;text-decoration-color:#000000;letter-spacing:normal;word-spacing:normal;text-transform:none;writing-mode:lr-tb;direction:ltr;text-orientation:mixed;dominant-baseline:auto;baseline-shift:baseline;text-anchor:start;white-space:normal;shape-padding:0;shape-margin:0;inline-size:0;clip-rule:nonzero;display:inline;overflow:visible;visibility:visible;opacity:1;isolation:auto;mix-blend-mode:normal;color-interpolation:sRGB;color-interpolation-filters:linearRGB;solid-color:#000000;solid-opacity:1;vector-effect:none;fill:#000000;fill-opacity:1;fill-rule:nonzero;stroke:none;stroke-width:3;stroke-linecap:round;stroke-linejoin:round;stroke-miterlimit:4;stroke-dasharray:none;stroke-dashoffset:0;stroke-opacity:1;color-rendering:auto;image-rendering:auto;shape-rendering:auto;text-rendering:auto;enable-background:accumulate;stop-color:#000000;stop-opacity:1"
     id="path925" />
</svg>
