<?xml version="1.0" encoding="UTF-8" standalone="no"?>
<svg
   xmlns:dc="http://purl.org/dc/elements/1.1/"
   xmlns:cc="http://creativecommons.org/ns#"
   xmlns:rdf="http://www.w3.org/1999/02/22-rdf-syntax-ns#"
   xmlns:svg="http://www.w3.org/2000/svg"
   xmlns="http://www.w3.org/2000/svg"
   id="svg6"
   version="1.1"
   viewBox="0 0 16 16">
  <metadata
     id="metadata12">
    <rdf:RDF>
      <cc:Work
         rdf:about="">
        <dc:format>image/svg+xml</dc:format>
        <dc:type
           rdf:resource="http://purl.org/dc/dcmitype/StillImage" />
      </cc:Work>
    </rdf:RDF>
  </metadata>
  <defs
     id="defs10" />
  <path
     id="path2"
     opacity=".2"
     d="M1.983 1.983h12v12h-12z" />
  <path
     id="path4"
     d="M1 1v14h14V1H1zm1 1h12v12H2V2zm3.123 2L3 12h1l.537-2h2.926L8 12h1L6.88 4H5.124zm.754 1h.242l1.074 4H4.805l1.072-4zM10 8v4h1V9.5a.499.499 0 1 1 1 0V12h1V9.5c0-.831-.669-1.5-1.5-1.5-.177 0-.343.036-.5.092V8h-1z" />
</svg>
