<?xml version="1.0" encoding="UTF-8" standalone="no"?>
<svg
   xmlns:dc="http://purl.org/dc/elements/1.1/"
   xmlns:cc="http://creativecommons.org/ns#"
   xmlns:rdf="http://www.w3.org/1999/02/22-rdf-syntax-ns#"
   xmlns:svg="http://www.w3.org/2000/svg"
   xmlns="http://www.w3.org/2000/svg"
   id="svg6"
   version="1.1"
   viewBox="0 0 16 16">
  <metadata
     id="metadata12">
    <rdf:RDF>
      <cc:Work
         rdf:about="">
        <dc:format>image/svg+xml</dc:format>
        <dc:type
           rdf:resource="http://purl.org/dc/dcmitype/StillImage" />
      </cc:Work>
    </rdf:RDF>
  </metadata>
  <defs
     id="defs10" />
  <path
     id="path2"
     opacity=".2"
     d="M1.983 1.983h12v12h-12z" />
  <path
     id="path4"
     d="M1 1v14h14V1H1zm1 1h12v12H2V2zm2 2v8h1V9h1.5C7.885 9 9 7.885 9 6.5S7.885 4 6.5 4H4zm1 1h1.5C7.331 5 8 5.669 8 6.5S7.331 8 6.5 8H5V5zm4 3v4h1v-2s0-1 1-1h1V8h-1c-.778 0-1 .5-1 .5V8H9z" />
</svg>
