<?xml version="1.0" encoding="UTF-8" standalone="no"?>
<svg
   xmlns:dc="http://purl.org/dc/elements/1.1/"
   xmlns:cc="http://creativecommons.org/ns#"
   xmlns:rdf="http://www.w3.org/1999/02/22-rdf-syntax-ns#"
   xmlns:svg="http://www.w3.org/2000/svg"
   xmlns="http://www.w3.org/2000/svg"
   id="svg6"
   version="1.1"
   viewBox="0 0 16 16">
  <metadata
     id="metadata12">
    <rdf:RDF>
      <cc:Work
         rdf:about="">
        <dc:format>image/svg+xml</dc:format>
        <dc:type
           rdf:resource="http://purl.org/dc/dcmitype/StillImage" />
      </cc:Work>
    </rdf:RDF>
  </metadata>
  <defs
     id="defs10" />
  <path
     id="path2"
     opacity=".2"
     d="M1.983 1.983h12v12h-12z" />
  <path
     id="path4"
     d="M1 1v14h14V1H1zm1 1h12v12H2V2zm2 2v8h2.5C7.885 12 9 10.885 9 9.5c0-1.004-.59-1.86-1.44-2.258A1.996 1.996 0 0 0 6 4H4zm1 1h1c.554 0 1 .446 1 1s-.446 1-1 1H5V5zm0 3h1.5C7.331 8 8 8.669 8 9.5S7.331 11 6.5 11H5V8zm5 0v4h1v-2s0-1 1-1h1V8h-1c-.778 0-1 .5-1 .5V8h-1z" />
</svg>
