<?xml version="1.0" encoding="UTF-8" standalone="no"?>
<svg
   xmlns:dc="http://purl.org/dc/elements/1.1/"
   xmlns:cc="http://creativecommons.org/ns#"
   xmlns:rdf="http://www.w3.org/1999/02/22-rdf-syntax-ns#"
   xmlns:svg="http://www.w3.org/2000/svg"
   xmlns="http://www.w3.org/2000/svg"
   id="svg6"
   version="1.1"
   viewBox="0 0 16 16">
  <metadata
     id="metadata12">
    <rdf:RDF>
      <cc:Work
         rdf:about="">
        <dc:format>image/svg+xml</dc:format>
        <dc:type
           rdf:resource="http://purl.org/dc/dcmitype/StillImage" />
      </cc:Work>
    </rdf:RDF>
  </metadata>
  <defs
     id="defs10" />
  <path
     id="path2"
     opacity=".2"
     d="M3 2h10c.554 0 1 .446 1 1v10c0 .554-.446 1-1 1H3c-.554 0-1-.446-1-1V3c0-.554.446-1 1-1z" />
  <path
     id="path4"
     d="M3 1c-1.108 0-2 .892-2 2v10c0 1.108.892 2 2 2h10c1.108 0 2-.892 2-2V3c0-1.108-.892-2-2-2zm0 1h10c.554 0 1 .446 1 1v10c0 .554-.446 1-1 1H3c-.554 0-1-.446-1-1V3c0-.554.446-1 1-1zm3 2C4.5 4 4 5 4 6s.5 2 2 2c.5 0 1 0 1 1 0 .79-.5 1-1 1s-1 0-1-1H4c0 1.5.5 2 2 2s2-1 2-2-.5-2-2-2c-.5 0-1 0-1-1 0-.79.5-1 1-1s1 0 1 1h1c0-1.5-.5-2-2-2zm3 3v5h1v-2h.5c.831 0 1.5-.642 1.5-1.44v-.12c0-.798-.679-1.568-1.5-1.44H10zm1 1h.5a.499.499 0 1 1 0 1H10z" />
</svg>
