<?xml version="1.0" encoding="UTF-8" standalone="no"?>
<svg
   xmlns:dc="http://purl.org/dc/elements/1.1/"
   xmlns:cc="http://creativecommons.org/ns#"
   xmlns:rdf="http://www.w3.org/1999/02/22-rdf-syntax-ns#"
   xmlns:svg="http://www.w3.org/2000/svg"
   xmlns="http://www.w3.org/2000/svg"
   id="svg6"
   version="1.1"
   viewBox="0 0 16 16">
  <metadata
     id="metadata12">
    <rdf:RDF>
      <cc:Work
         rdf:about="">
        <dc:format>image/svg+xml</dc:format>
        <dc:type
           rdf:resource="http://purl.org/dc/dcmitype/StillImage" />
      </cc:Work>
    </rdf:RDF>
  </metadata>
  <defs
     id="defs10" />
  <path
     id="path2"
     opacity=".2"
     d="M1.983 1.983h12v12h-12z" />
  <path
     id="path4"
     d="M1 1v14h14V1H1zm1 1h12v12H2V2zm3.123 2L3 12h1l.537-2h2.926L8 12h1L6.88 4H5.124zm.754 1h.242l1.074 4H4.805l1.072-4zm5.676 2C10 7 10 8 10 9v1.994C10 11.5 10.5 12 11 12h2v-1h-1c-1 0-1 0-1-1h2V9c0-1 0-2-1.447-2zm-.112 1c.554 0 .559.5.559 1h-1c0-.5 0-1 .441-1z" />
</svg>
