<?xml version="1.0" encoding="UTF-8" standalone="no"?>
<svg
   xmlns:dc="http://purl.org/dc/elements/1.1/"
   xmlns:cc="http://creativecommons.org/ns#"
   xmlns:rdf="http://www.w3.org/1999/02/22-rdf-syntax-ns#"
   xmlns:svg="http://www.w3.org/2000/svg"
   xmlns="http://www.w3.org/2000/svg"
   id="svg6"
   version="1.1"
   viewBox="0 0 16 16">
  <metadata
     id="metadata12">
    <rdf:RDF>
      <cc:Work
         rdf:about="">
        <dc:format>image/svg+xml</dc:format>
        <dc:type
           rdf:resource="http://purl.org/dc/dcmitype/StillImage" />
      </cc:Work>
    </rdf:RDF>
  </metadata>
  <defs
     id="defs10" />
  <path
     id="path2"
     opacity=".2"
     d="M2 2h12v12H2z" />
  <path
     id="path4"
     d="M1 1v14h14V1H1zm1 1h12v12H2V2zm1 2v8h2.5C7 12 8 10.5 8 9V7c0-2-1-3-2.5-3H3zm5 3l1 5h1l.5-3.5.5 3.5h1l1-5h-1l-.5 3.5L11 7h-1l-.5 3.5L9 7H8zM4 5h1.5C6.5 5 7 6 7 7v2c0 1-.5 2-1.5 2H4V5z" />
</svg>
