<?xml version="1.0" encoding="UTF-8" standalone="no"?>
<svg
   xmlns:dc="http://purl.org/dc/elements/1.1/"
   xmlns:cc="http://creativecommons.org/ns#"
   xmlns:rdf="http://www.w3.org/1999/02/22-rdf-syntax-ns#"
   xmlns:svg="http://www.w3.org/2000/svg"
   xmlns="http://www.w3.org/2000/svg"
   id="svg6"
   version="1.1"
   viewBox="0 0 16 16">
  <metadata
     id="metadata12">
    <rdf:RDF>
      <cc:Work
         rdf:about="">
        <dc:format>image/svg+xml</dc:format>
        <dc:type
           rdf:resource="http://purl.org/dc/dcmitype/StillImage" />
        <dc:title />
      </cc:Work>
    </rdf:RDF>
  </metadata>
  <defs
     id="defs10" />
  <path
     id="path4"
     d="M 1.4941406 1.9941406 A 0.50005 0.50005 0 0 0 1.0839844 2.7773438 L 3.0605469 5.7421875 C 1.1066937 7.3511166 -0.13027675 9.8645442 0 12.410156 L 0 13 L 0.044921875 13 L 1 13 L 1.0703125 13 L 14.943359 13 L 15.933594 13 L 16 13 L 16 12.203125 C 16.029975 11.340072 15.91837 10.470966 15.642578 9.6367188 C 15.181334 8.0756955 14.200162 6.7302262 12.941406 5.7382812 L 14.916016 2.7773438 A 0.50005 0.50005 0 0 0 14.490234 1.9941406 A 0.50005 0.50005 0 0 0 14.083984 2.2226562 L 12.115234 5.1738281 C 10.881658 4.424432 9.4646856 3.97993 8 4 C 6.4945375 3.9428342 5.0826341 4.3880092 3.8710938 5.15625 L 1.9160156 2.2226562 A 0.50005 0.50005 0 0 0 1.4941406 1.9941406 z M 8 5 C 9.3598351 4.94788 10.634104 5.3598826 11.716797 6.0722656 C 11.825592 6.1428516 11.932403 6.2164479 12.037109 6.2929688 C 12.054819 6.3060747 12.074207 6.3168071 12.091797 6.3300781 C 12.096397 6.3339781 12.100899 6.3378879 12.105469 6.3417969 C 13.43079 7.3036596 14.37694 8.6997336 14.779297 10.287109 C 14.798917 10.358419 14.816644 10.430089 14.833984 10.501953 C 14.847824 10.562973 14.860847 10.624177 14.873047 10.685547 C 14.895327 10.790216 14.923086 10.894995 14.947266 11.113281 C 14.971451 11.331568 14.997258 11.665181 15 12 L 1 12 C 1.0021 11.665227 1.028204 11.331036 1.078125 11 L 1.0742188 11 C 1.0774088 10.97559 1.0844226 10.952084 1.0878906 10.927734 C 1.1028756 10.832994 1.1198069 10.738574 1.1386719 10.644531 C 1.1685279 10.486525 1.2028069 10.330266 1.2441406 10.175781 C 1.2542806 10.140541 1.2646976 10.105383 1.2753906 10.070312 C 1.3287106 9.883759 1.3877935 9.6999744 1.4570312 9.5195312 C 1.4716763 9.4816413 1.4866501 9.443881 1.5019531 9.40625 C 1.5608381 9.260752 1.6246355 9.117409 1.6933594 8.9765625 C 1.7363424 8.8857625 1.7812744 8.7958978 1.828125 8.7070312 C 1.8625399 8.6436873 1.89919 8.5817643 1.9355469 8.5195312 C 2.526858 7.4898756 3.3703586 6.6275515 4.3867188 6.0136719 C 4.4133405 5.9972983 4.4399636 5.9808665 4.4667969 5.9648438 C 4.5821358 5.8977034 4.6993712 5.8338752 4.8183594 5.7734375 C 4.9358855 5.711962 5.0549306 5.6543284 5.1757812 5.5996094 C 5.2308059 5.5748061 5.2861491 5.5507154 5.3417969 5.5273438 C 6.1740294 5.176418 7.0740562 4.9828186 8 5 z M 5 8 A 1 1 0 0 0 4 9 A 1 1 0 0 0 5 10 A 1 1 0 0 0 6 9 A 1 1 0 0 0 5 8 z M 11 8 A 1 1 0 0 0 10 9 A 1 1 0 0 0 11 10 A 1 1 0 0 0 12 9 A 1 1 0 0 0 11 8 z " />
  <path
     id="path838"
     d="M 8,5 C 4.1340068,5 1,8.134007 1,12 h 5 c 1.5,0 2,-0.06079 4,0 h 5 C 15,8.134007 11.865993,5 8,5 Z"
     style="opacity:0.2;fill:#000000;fill-opacity:1;stroke:none;stroke-linecap:round;stroke-linejoin:round;stroke-opacity:1" />
</svg>
