<svg xmlns="http://www.w3.org/2000/svg" viewBox="0 0 16 16" fill="currentColor" height="16px" width="16px">
    <path d="M1.494 1.994a.5.5 0 00-.41.783l1.977 2.965C1.107 7.352-.13 9.865 0 12.41V13h16v-.797a7.352 7.352 0 00-.357-2.566C15.18 8.076 14.2 6.73 12.94 5.738l1.975-2.96a.5.5 0 00-.426-.784.5.5 0 00-.406.229l-1.969 2.95C10.882 4.425 9.465 3.98 8 4c-1.505-.057-2.917.388-4.129 1.156L1.916 2.223a.5.5 0 00-.422-.229zM8 5c1.36-.052 2.634.36 3.717 1.072a7 7 0 01.32.221l.055.037.013.012a7 7 0 012.674 3.945 6.983 6.983 0 01.094.399c.022.104.05.209.074.427.024.219.05.552.053.887H1a7 7 0 01.078-1h-.004c.003-.024.01-.048.014-.072a7 7 0 01.05-.283 6.43 6.43 0 01.555-1.668c.043-.091.088-.181.135-.27.035-.063.071-.125.108-.187a7 7 0 012.45-2.506l.08-.05a7 7 0 01.352-.19 6.994 6.994 0 01.524-.247A6.525 6.525 0 018 5zM5 8a1 1 0 00-1 1 1 1 0 001 1 1 1 0 001-1 1 1 0 00-1-1zm6 0a1 1 0 00-1 1 1 1 0 001 1 1 1 0 001-1 1 1 0 00-1-1z"/>
    <path d="M8 5a7 7 0 00-7 7h5c1.5 0 2-.06 4 0h5a7 7 0 00-7-7z" opacity=".2"/>
</svg>
