<?xml version="1.0" encoding="UTF-8" standalone="no"?>
<svg
   xmlns:dc="http://purl.org/dc/elements/1.1/"
   xmlns:cc="http://creativecommons.org/ns#"
   xmlns:rdf="http://www.w3.org/1999/02/22-rdf-syntax-ns#"
   xmlns:svg="http://www.w3.org/2000/svg"
   xmlns="http://www.w3.org/2000/svg"
   id="svg6"
   version="1.1"
   width="16.002"
   height="16">
  <metadata
     id="metadata12">
    <rdf:RDF>
      <cc:Work
         rdf:about="">
        <dc:format>image/svg+xml</dc:format>
        <dc:type
           rdf:resource="http://purl.org/dc/dcmitype/StillImage" />
        <dc:title />
      </cc:Work>
    </rdf:RDF>
  </metadata>
  <defs
     id="defs10" />
  <g
     id="g4"
     transform="translate(-932 -523.948)"
     color="#000">
    <path
       id="path2"
       style="isolation:auto;mix-blend-mode:normal;fill:#000000;fill-opacity:1;fill-rule:evenodd"
       d="M 933,524.948 932,528 v 1 c 0,2 2,2 2,2 1.108,0 2,-0.892 2,-2 0,1.108 0.892,2 2,2 1.108,0 2,-0.892 2,-2 0,1.108 0.892,2 2,2 1.108,0 2,-0.892 2,-2 0,1.108 0.892,2 2,2 0,0 2,0 2,-2 v -1 l -1,-3.052 z m 0,7 v 6 c 0,0 0,1 1,1 h 12 c 1,0 1,-1 1,-1 v -6 h -1 v 6 h -2 v -3.5 c 0,-0.831 -0.669,-1.5 -1.5,-1.5 -0.831,0 -1.5,0.669 -1.5,1.5 v 3.5 h -7 v -6 z m 3,1 v 3 h 3 v -3 z" />
  </g>
  <rect
     ry="1"
     rx="1"
     y="5"
     x="1"
     height="10"
     width="14"
     id="rect826"
     style="opacity:0.2;fill:#000000;fill-opacity:1;stroke:none;stroke-width:2;stroke-linecap:round;stroke-linejoin:round;stroke-miterlimit:4;stroke-dasharray:none;stroke-dashoffset:0;stroke-opacity:1" />
</svg>
