<svg xmlns="http://www.w3.org/2000/svg" viewBox="0 0 16 16" fill="currentColor" height="16px" width="16px">
    <path d="M11 1c0 .5 0 1-.5 1.5S9.438 3 9 3c0-.5.019-.982.518-1.5C10 1 10.5 1 11 1zM6 5c.917 0 1.088.16 1.375.39.287.23.764.61 1.625.61s1.338-.38 1.625-.61C10.912 5.16 11.083 5 12 5s1.39.221 1.646.479c.203.202.243.499.278.802C13 6.281 12 7.561 12 9c0 1.447 1 2.727 1.941 2.727-.028.17-.054.351-.166.638a7.18 7.18 0 01-.632 1.24c-.262.408-.567.777-.864 1.028-.297.25-.57.367-.779.367-.694 0-.96-.098-1.252-.215C9.957 14.67 9.583 14.5 9 14.5s-.957.169-1.248.285c-.291.117-.558.215-1.252.215-.153 0-.519-.158-.918-.53-.4-.37-.83-.92-1.219-1.546C3.588 11.67 3 10.084 3 9c0-1.15.349-2.17.896-2.883C4.444 5.405 5.166 5 6 5z" opacity=".2"/>
    <path d="M11.5 0c-1.083 0-1.986.279-2.604.896C8.28 1.514 8 2.416 8 3.5a.5.5 0 00.5.5c1.083 0 1.986-.279 2.604-.896C11.72 2.486 12 1.584 12 .5a.5.5 0 00-.5-.5zM11 1c0 .5 0 1-.5 1.5S9.438 3 9 3c0-.5.019-.982.518-1.5C10 1 10.5 1 11 1zM6 4c-1.167 0-2.194.595-2.896 1.508C2.4 6.42 2 7.65 2 9c0 1.417.662 3.08 1.512 4.451.424.686.899 1.293 1.39 1.75.492.457 1 .799 1.598.799.806 0 1.29-.152 1.623-.285.334-.134.46-.215.877-.215s.543.081.877.215c.334.133.817.285 1.623.285.542 0 1.018-.259 1.424-.602.406-.343.758-.786 1.058-1.253.301-.468.55-.961.727-1.416.177-.456.291-.854.291-1.229V11h-.5c-.667 0-1.5-.722-1.5-2s.833-2 1.5-2h.5v-.5c0-.583-.154-1.236-.646-1.729C13.86 4.28 13.084 4 12 4c-1.083 0-1.662.34-2 .61-.338.27-.361.39-1 .39s-.662-.12-1-.39C7.662 4.34 7.083 4 6 4zm0 1c.917 0 1.088.16 1.375.39.287.23.764.61 1.625.61s1.338-.38 1.625-.61C10.912 5.16 11.083 5 12 5s1.39.221 1.646.479c.203.202.243.499.278.802C13 6.281 12 7.561 12 9c0 1.447 1 2.727 1.941 2.727-.028.17-.054.351-.166.638a7.18 7.18 0 01-.632 1.24c-.262.408-.567.777-.864 1.028-.297.25-.57.367-.779.367-.694 0-.96-.098-1.252-.215C9.957 14.67 9.583 14.5 9 14.5s-.957.169-1.248.285c-.291.117-.558.215-1.252.215-.153 0-.519-.158-.918-.53-.4-.37-.83-.92-1.219-1.546C3.588 11.67 3 10.084 3 9c0-1.15.349-2.17.896-2.883C4.444 5.405 5.166 5 6 5z"/>
</svg>
