<?xml version="1.0" encoding="UTF-8" standalone="no"?>
<svg
   xmlns:dc="http://purl.org/dc/elements/1.1/"
   xmlns:cc="http://creativecommons.org/ns#"
   xmlns:rdf="http://www.w3.org/1999/02/22-rdf-syntax-ns#"
   xmlns:svg="http://www.w3.org/2000/svg"
   xmlns="http://www.w3.org/2000/svg"
   id="svg6"
   version="1.1"
   viewBox="0 0 16 16">
  <metadata
     id="metadata12">
    <rdf:RDF>
      <cc:Work
         rdf:about="">
        <dc:format>image/svg+xml</dc:format>
        <dc:type
           rdf:resource="http://purl.org/dc/dcmitype/StillImage" />
        <dc:title />
      </cc:Work>
    </rdf:RDF>
  </metadata>
  <defs
     id="defs10" />
  <path
     style="color:#000000;font-style:normal;font-variant:normal;font-weight:normal;font-stretch:normal;font-size:medium;line-height:normal;font-family:sans-serif;font-variant-ligatures:normal;font-variant-position:normal;font-variant-caps:normal;font-variant-numeric:normal;font-variant-alternates:normal;font-feature-settings:normal;text-indent:0;text-align:start;text-decoration:none;text-decoration-line:none;text-decoration-style:solid;text-decoration-color:#000000;letter-spacing:normal;word-spacing:normal;text-transform:none;writing-mode:lr-tb;direction:ltr;text-orientation:mixed;dominant-baseline:auto;baseline-shift:baseline;text-anchor:start;white-space:normal;shape-padding:0;clip-rule:nonzero;display:inline;overflow:visible;visibility:visible;opacity:0.2;isolation:auto;mix-blend-mode:normal;color-interpolation:sRGB;color-interpolation-filters:linearRGB;solid-color:#000000;solid-opacity:1;vector-effect:none;fill:#000000;fill-opacity:1;fill-rule:nonzero;stroke:none;stroke-width:1px;stroke-linecap:butt;stroke-linejoin:miter;stroke-miterlimit:4;stroke-dasharray:none;stroke-dashoffset:0;stroke-opacity:1;color-rendering:auto;image-rendering:auto;shape-rendering:auto;text-rendering:auto;enable-background:accumulate"
     d="M 11,1 C 11,1.5 11,2.0000015 10.5,2.5 10,3 9.4375719,3 9,3 9,2.5 9.0187485,2.0181238 9.5175781,1.5 9.99977,0.9991573 10.5,1 11,1 Z M 6,5 C 6.9166667,5 7.0878941,5.1609403 7.375,5.390625 7.6621059,5.6203097 8.1388889,6 9,6 9.8611111,6 10.337894,5.6203097 10.625,5.390625 10.912106,5.1609403 11.083333,5 12,5 12.916667,5 13.389336,5.2213668 13.646484,5.4785156 13.848529,5.68056 13.889043,5.9778918 13.923828,6.28125 13,6.28125 12,7.561337 12,9 c 0,1.447165 1,2.726563 1.941406,2.726562 -0.02839,0.170406 -0.05447,0.351834 -0.166015,0.638672 -0.151107,0.38856 -0.371085,0.833102 -0.632813,1.240235 -0.261728,0.407132 -0.566339,0.776593 -0.863281,1.027343 C 11.982355,14.883564 11.708333,15 11.5,15 10.805556,15 10.539203,14.901619 10.248047,14.785156 9.9568911,14.668694 9.5833333,14.5 9,14.5 8.4166667,14.5 8.0431088,14.668694 7.7519531,14.785156 7.4607974,14.901619 7.1944444,15 6.5,15 6.3472222,15 5.9812455,14.841902 5.5820312,14.470703 5.1828171,14.099504 4.7511232,13.550342 4.3632812,12.923828 3.5875973,11.6708 3,10.083333 3,9 3,7.85 3.3485482,6.8295045 3.8964844,6.1171875 4.4444206,5.4048705 5.1666667,5 6,5 Z"
     id="path841" />
  <path
     id="path825"
     d="M 11.5 0 C 10.416667 0 9.5143355 0.27863324 8.8964844 0.89648438 C 8.2786332 1.5143355 8 2.4166667 8 3.5 C 8.0000276 3.7761309 8.2238691 3.9999724 8.5 4 C 9.5833333 4 10.485664 3.7213668 11.103516 3.1035156 C 11.721367 2.4856645 12 1.5833333 12 0.5 C 11.999972 0.22386906 11.776131 2.7608953e-05 11.5 0 z M 11 1 C 11 1.5 11 2.0000015 10.5 2.5 C 10 3 9.4375719 3 9 3 C 9 2.5 9.0187485 2.0181238 9.5175781 1.5 C 9.99977 0.9991573 10.5 1 11 1 z M 6 4 C 4.8333333 4 3.8055794 4.5951295 3.1035156 5.5078125 C 2.4014518 6.4204955 2 7.65 2 9 C 2 10.416667 2.6624027 12.0792 3.5117188 13.451172 C 3.9363767 14.137158 4.4109329 14.744246 4.9023438 15.201172 C 5.3937546 15.658098 5.9027778 16 6.5 16 C 7.3055556 16 7.7892026 15.848381 8.1230469 15.714844 C 8.4568912 15.581306 8.5833333 15.5 9 15.5 C 9.4166667 15.5 9.5431088 15.58131 9.8769531 15.714844 C 10.210797 15.848381 10.694444 16 11.5 16 C 12.041667 16 12.517645 15.741436 12.923828 15.398438 C 13.330011 15.055438 13.68165 14.612399 13.982422 14.144531 C 14.283194 13.676664 14.531966 13.183706 14.708984 12.728516 C 14.886003 12.273325 15 11.875 15 11.5 L 15 11 L 14.5 11 C 13.833333 11 13 10.277778 13 9 C 13 7.7222222 13.833333 7 14.5 7 L 15 7 L 15 6.5 C 15 5.9166667 14.846367 5.2643355 14.353516 4.7714844 C 13.860664 4.2786332 13.083333 4 12 4 C 10.916667 4 10.337894 4.3390597 10 4.609375 C 9.6621059 4.8796903 9.6388889 5 9 5 C 8.3611111 5 8.3378941 4.8796903 8 4.609375 C 7.6621059 4.3390597 7.0833333 4 6 4 z M 6 5 C 6.9166667 5 7.0878941 5.1609403 7.375 5.390625 C 7.6621059 5.6203097 8.1388889 6 9 6 C 9.8611111 6 10.337894 5.6203097 10.625 5.390625 C 10.912106 5.1609403 11.083333 5 12 5 C 12.916667 5 13.389336 5.2213668 13.646484 5.4785156 C 13.848529 5.68056 13.889043 5.9778918 13.923828 6.28125 C 13 6.28125 12 7.561337 12 9 C 12 10.447165 13 11.726563 13.941406 11.726562 C 13.913016 11.896968 13.886936 12.078396 13.775391 12.365234 C 13.624284 12.753794 13.404306 13.198336 13.142578 13.605469 C 12.88085 14.012601 12.576239 14.382062 12.279297 14.632812 C 11.982355 14.883564 11.708333 15 11.5 15 C 10.805556 15 10.539203 14.901619 10.248047 14.785156 C 9.9568911 14.668694 9.5833333 14.5 9 14.5 C 8.4166667 14.5 8.0431088 14.668694 7.7519531 14.785156 C 7.4607974 14.901619 7.1944444 15 6.5 15 C 6.3472222 15 5.9812455 14.841902 5.5820312 14.470703 C 5.1828171 14.099504 4.7511232 13.550342 4.3632812 12.923828 C 3.5875973 11.6708 3 10.083333 3 9 C 3 7.85 3.3485482 6.8295045 3.8964844 6.1171875 C 4.4444206 5.4048705 5.1666667 5 6 5 z "
     style="color:#000000;font-style:normal;font-variant:normal;font-weight:normal;font-stretch:normal;font-size:medium;line-height:normal;font-family:sans-serif;font-variant-ligatures:normal;font-variant-position:normal;font-variant-caps:normal;font-variant-numeric:normal;font-variant-alternates:normal;font-feature-settings:normal;text-indent:0;text-align:start;text-decoration:none;text-decoration-line:none;text-decoration-style:solid;text-decoration-color:#000000;letter-spacing:normal;word-spacing:normal;text-transform:none;writing-mode:lr-tb;direction:ltr;text-orientation:mixed;dominant-baseline:auto;baseline-shift:baseline;text-anchor:start;white-space:normal;shape-padding:0;clip-rule:nonzero;display:inline;overflow:visible;visibility:visible;opacity:1;isolation:auto;mix-blend-mode:normal;color-interpolation:sRGB;color-interpolation-filters:linearRGB;solid-color:#000000;solid-opacity:1;vector-effect:none;fill:#000000;fill-opacity:1;fill-rule:nonzero;stroke:none;stroke-width:1px;stroke-linecap:butt;stroke-linejoin:miter;stroke-miterlimit:4;stroke-dasharray:none;stroke-dashoffset:0;stroke-opacity:1;color-rendering:auto;image-rendering:auto;shape-rendering:auto;text-rendering:auto;enable-background:accumulate" />
</svg>
