<svg xmlns="http://www.w3.org/2000/svg" viewBox="0 0 16 16">
    <path d="M12 10a2 2 0 0 1-2 2 2 2 0 0 1-2-2 2 2 0 0 1 2-2 2 2 0 0 1 2 2z" opacity=".2"/>
    <path d="M6.988-.01c-.986-.057-1.374 1.403-.515 1.87L9.088 4c-2.404.003-4.808-.006-7.211.004-.945.014-1.217 1.444-.412 1.869.568.229 1.204.087 1.805.127h2.265c-.9 1.011-1.905 1.928-2.85 2.9C1.84 9.762.96 10.593.138 11.475c-.6.776.46 1.944 1.295 1.447.719-.588 1.331-1.304 2.006-1.945l.578-.579c.13 2.746 2.386 5.188 5.111 5.54 2.629.433 5.405-1.135 6.402-3.602 1.062-2.407.28-5.447-1.812-7.043-1.047-1.025-2.24-1.888-3.356-2.834-.96-.775-1.9-1.576-2.873-2.334a.997.997 0 0 0-.5-.135zM10 6a4 4 0 0 1 4 4 4 4 0 0 1-4 4 4 4 0 0 1-4-4 4 4 0 0 1 4-4zm0 1a3 3 0 0 0-3 3 3 3 0 0 0 3 3 3 3 0 0 0 3-3 3 3 0 0 0-3-3zm0 1a2 2 0 0 1 2 2 2 2 0 0 1-2 2 2 2 0 0 1-2-2 2 2 0 0 1 2-2z"/>
</svg>
