<svg xmlns="http://www.w3.org/2000/svg" viewBox="0 0 16 16">
    <path d="M6 2S3.004 2 2 3.004c0 0-2 4.394-2 8.992 0 0 1.97 1.904 4.998 2.004 0 0 .004-.365.004-1.002-1.74-.542-2.999-2.005-2.999-2.005C5 12.996 11 12.996 14.002 10.996c0 0-1.21 1.47-3.004 1.999l-.001 1.001c3.027-.1 5.003-2 5.003-2C16 7.398 14 3 14 3c-1-1-4-1-4-1v.5c2.329.743 2.999 1.498 2.999 1.498-2.499-1.251-7.499-1.294-9.997 0 0 0 .532-.755 2.998-1.498zm-.5 4.998a1.5 1.5 0 1 1 0 3 1.5 1.5 0 0 1 0-3zm5 0a1.5 1.5 0 1 1 0 3 1.5 1.5 0 0 1 0-3z"/>
</svg>
