<svg xmlns="http://www.w3.org/2000/svg" viewBox="0 0 16 16">
    <path d="M15 8a7 7 0 0 1-7 7 7 7 0 0 1-7-7 7 7 0 0 1 7-7 7 7 0 0 1 7 7z" opacity=".2"/>
    <path d="M8 0C3.587 0 0 3.587 0 8c0 4.412 3.587 8 8 8s8-3.588 8-8c0-4.413-3.587-8-8-8zm-.514 1.025a11 11 0 0 1 2.291 4.827A11 11 0 0 1 8 6a11 11 0 0 1-5.906-1.742 6.987 6.987 0 0 1 5.392-3.233zm1.285.026a6.98 6.98 0 0 1 5.145 3.213 11 11 0 0 1-3.15 1.375A12 12 0 0 0 8.77 1.05zm5.608 4.09a6.994 6.994 0 0 1 .414 4.49A12 12 0 0 0 11 9a12 12 0 0 0-.049.002A12 12 0 0 0 11 8a12 12 0 0 0-.086-1.373 12 12 0 0 0 3.465-1.486zM1.61 5.152A12 12 0 0 0 8 7a12 12 0 0 0 1.926-.17A11 11 0 0 1 10 8a11 11 0 0 1-.053 1.053 12 12 0 0 0-7.34 3.386A6.987 6.987 0 0 1 1 8a6.987 6.987 0 0 1 .611-2.848zM11 10a11 11 0 0 1 3.498.584 6.994 6.994 0 0 1-5.738 4.367 12 12 0 0 0 2.07-4.945A11 11 0 0 1 11 10zm-1.203.078a11 11 0 0 1-2.305 4.897 6.987 6.987 0 0 1-4.199-1.805 11 11 0 0 1 6.504-3.092z"/>
</svg>
