<?xml version="1.0" encoding="UTF-8" standalone="no"?>
<svg
   xmlns:dc="http://purl.org/dc/elements/1.1/"
   xmlns:cc="http://creativecommons.org/ns#"
   xmlns:rdf="http://www.w3.org/1999/02/22-rdf-syntax-ns#"
   xmlns:svg="http://www.w3.org/2000/svg"
   xmlns="http://www.w3.org/2000/svg"
   id="svg6"
   version="1.1"
   viewBox="0 0 16 16">
  <metadata
     id="metadata12">
    <rdf:RDF>
      <cc:Work
         rdf:about="">
        <dc:format>image/svg+xml</dc:format>
        <dc:type
           rdf:resource="http://purl.org/dc/dcmitype/StillImage" />
        <dc:title />
      </cc:Work>
    </rdf:RDF>
  </metadata>
  <defs
     id="defs10" />
  <path
     id="path2"
     opacity=".2"
     d="M15 8a7 7 0 0 1-7 7 7 7 0 0 1-7-7 7 7 0 0 1 7-7 7 7 0 0 1 7 7z" />
  <path
     id="path4"
     d="M 8 0 C 2.812 -0.197 -1.3585781 5.4702813 0.35742188 10.363281 C 1.6404219 15.067281 7.6399844 17.499531 11.833984 15.019531 C 14.742565 13.481743 16.415011 10.016727 15.912109 6.7851562 C 15.922753 6.7641717 15.936779 6.7436296 15.947266 6.7226562 L 15.898438 6.6972656 C 15.838362 6.3398736 15.757696 5.9849398 15.642578 5.6367188 C 14.669578 2.3437187 11.43 -0.047 8 0 z M 8 1 C 11.34014 0.87197818 14.169912 3.5250005 14.857422 6.6328125 C 13.871362 8.436278 12.234535 10.282519 10.460938 11.259766 C 9.5158188 11.780522 8.5458734 12.05488 7.6132812 11.994141 C 7.1241971 11.962287 6.6407906 11.828674 6.1640625 11.59375 C 8.2514899 10.449934 9.755236 8.8458784 10.474609 7.2207031 C 11.038006 5.9479044 11.185846 4.6825223 10.794922 3.6640625 C 10.403998 2.6456027 9.389356 1.9612157 8.03125 2.0019531 C 5.5575325 2.0761541 3.9596147 3.6726991 3.3457031 5.578125 C 2.7317915 7.4835509 2.9975183 9.7147876 4.1210938 11.308594 L 4.1464844 11.34375 L 4.1757812 11.373047 C 4.1887213 11.385987 4.2038139 11.389564 4.2167969 11.402344 C 3.600258 11.62262 2.9533247 11.813109 2.2480469 11.9375 C 1.3222065 10.594372 0.83625668 8.9500097 1.0351562 7.3007812 C 1.3201562 3.8097812 4.497 0.935 8 1 z M 8.0625 3.0019531 C 9.1119984 2.9704726 9.6064782 3.3575339 9.8613281 4.0214844 C 10.116178 4.6854349 10.0463 5.7146025 9.5585938 6.8164062 C 8.8898377 8.327228 7.4182613 9.9048756 5.2773438 10.951172 C 5.1601733 10.853794 5.0401335 10.80952 4.9238281 10.695312 C 4.0354223 9.409516 3.7876199 7.4733793 4.2988281 5.8867188 C 4.8141808 4.2871946 5.9894093 3.064137 8.0625 3.0019531 z M 15.009766 8.3046875 C 14.984222 8.9640408 14.867365 9.6244909 14.619141 10.267578 C 13.606141 13.460578 10.059062 15.530672 6.7890625 14.888672 C 5.3105607 14.661145 3.9866635 13.89956 2.9746094 12.835938 C 3.7833727 12.663282 4.5300773 12.418674 5.2246094 12.123047 C 5.9755387 12.602883 6.7514091 12.940379 7.546875 12.992188 C 8.7182 13.068478 9.8752428 12.725248 10.943359 12.136719 C 12.538003 11.258075 13.957738 9.8368825 15.009766 8.3046875 z " />
  <g
     id="g4"
     transform="matrix(1.1428571,0,0,1.1428571,-1296,395.42856)"
     style="color:#bebebe" />
</svg>
