<?xml version="1.0" encoding="UTF-8" standalone="no"?>
<svg
   xmlns:dc="http://purl.org/dc/elements/1.1/"
   xmlns:cc="http://creativecommons.org/ns#"
   xmlns:rdf="http://www.w3.org/1999/02/22-rdf-syntax-ns#"
   xmlns:svg="http://www.w3.org/2000/svg"
   xmlns="http://www.w3.org/2000/svg"
   id="svg6"
   version="1.1"
   viewBox="0 0 16 16">
  <metadata
     id="metadata12">
    <rdf:RDF>
      <cc:Work
         rdf:about="">
        <dc:format>image/svg+xml</dc:format>
        <dc:type
           rdf:resource="http://purl.org/dc/dcmitype/StillImage" />
        <dc:title />
      </cc:Work>
    </rdf:RDF>
  </metadata>
  <defs
     id="defs10" />
  <path
     id="path2"
     d="M 7.9492188,8.7734375 2.609375,15.054688 c 0.097218,-3.3e-4 0.1328751,-0.01088 0.1699219,-0.01758 0.015777,-0.0032 0.066406,-0.0078 0.066406,-0.0078 l 7.0800781,-3.931641 z"
     style="opacity:0.4" />
  <path
     id="path4"
     d="M 2.4492188 0 C 1.6858978 0.027462427 1.0011835 0.64760611 1 1.5 L 1 14.5 C 1.00158 15.636525 2.2181065 16.358909 3.2167969 15.816406 L 15.214844 9.3183594 C 15.710844 9.0513594 16.013047 8.5268906 15.998047 7.9628906 L 16 7.9628906 C 15.984824 7.4274101 15.686075 6.940323 15.214844 6.6855469 L 3.2167969 0.18359375 C 2.9671243 0.047968005 2.7036591 -0.0091541423 2.4492188 0 z M 2.6699219 0.94335938 C 2.7742969 0.94585937 2.84375 0.96875 2.84375 0.96875 L 9.9257812 4.9042969 L 7.9492188 7.2265625 L 2.6132812 0.94921875 C 2.6315079 0.94842863 2.6532833 0.94296085 2.6699219 0.94335938 z M 2.0019531 1.7753906 L 7.2929688 8 L 2.0019531 14.224609 C 2.0020457 9.8551819 2.0020084 6.0260419 2.0019531 1.7753906 z M 10.816406 5.3984375 L 14.654297 7.53125 C 14.654297 7.53125 15 7.678 15 8 C 15 8.321 14.65625 8.46875 14.65625 8.46875 L 10.818359 10.601562 L 8.6074219 8 L 10.816406 5.3984375 z M 7.9492188 8.7734375 L 9.9257812 11.097656 L 2.8457031 15.03125 C 2.8457031 15.03125 2.7445288 15.05423 2.609375 15.054688 L 7.9492188 8.7734375 z " />
  <path
     style="opacity:0.3"
     d="m 2.0019531,1.7753906 c 5.53e-5,4.2506513 9.26e-5,8.0797917 0,12.4492184 L 7.2929688,8 Z"
     id="path832" />
  <path
     style="opacity:0.2"
     d="m 2.6699219,0.94335938 c -0.016639,-3.9854e-4 -0.038414,0.005069 -0.056641,0.005859 L 7.9492188,7.2265625 9.9257812,4.9042969 2.8457031,0.96875 c 0,0 -0.00194,5.28e-6 -0.00195,0 0,0 -0.069453,-0.0228906 -0.1738281,-0.0253906 z"
     id="path836" />
</svg>
