<?xml version="1.0" encoding="UTF-8" standalone="no"?>
<svg
   xmlns:dc="http://purl.org/dc/elements/1.1/"
   xmlns:cc="http://creativecommons.org/ns#"
   xmlns:rdf="http://www.w3.org/1999/02/22-rdf-syntax-ns#"
   xmlns:svg="http://www.w3.org/2000/svg"
   xmlns="http://www.w3.org/2000/svg"
   id="svg6"
   version="1.1"
   viewBox="0 0 16 16">
  <metadata
     id="metadata12">
    <rdf:RDF>
      <cc:Work
         rdf:about="">
        <dc:format>image/svg+xml</dc:format>
        <dc:type
           rdf:resource="http://purl.org/dc/dcmitype/StillImage" />
        <dc:title />
      </cc:Work>
    </rdf:RDF>
  </metadata>
  <defs
     id="defs10" />
  <path
     id="path815"
     d="M 8 0 C 3.581722 0 0 3.581722 0 8 C 0 12.418278 3.581722 16 8 16 C 12.418278 16 16 12.418278 16 8 C 16 7.3079116 15.903498 6.6404847 15.738281 6 L 14.703125 6 L 13 6 L 12.574219 6 L 11.458984 6 L 11 6 L 8 6 L 7 6 L 7 10 L 8 10 L 11.458984 10 A 4 4 0 0 1 8 12 A 4 4 0 0 1 4 8 A 4 4 0 0 1 8 4 A 4 4 0 0 1 11.271484 5.7148438 L 11.976562 4.9804688 A 5 5 0 0 0 11.974609 4.9785156 L 13.111328 3.71875 L 13.800781 2.9160156 L 13.972656 2.6914062 C 12.507323 1.0442988 10.378005 2.9605947e-16 8 0 z M 8 1 C 9.77689 1 11.394507 1.6669128 12.628906 2.7578125 L 11.289062 4.2441406 A 5 5 0 0 0 8 3 A 5 5 0 0 0 4.0917969 4.8847656 L 2.671875 3.4648438 C 3.9558243 1.9579757 5.8651609 1 8 1 z M 2.0761719 4.2832031 L 3.5390625 5.7460938 A 5 5 0 0 0 3 8 A 5 5 0 0 0 3.34375 9.8085938 L 1.6113281 10.849609 C 1.2220616 9.9783584 1 9.0159416 1 8 C 1 6.6326707 1.3983739 5.3611329 2.0761719 4.2832031 z M 8 7 L 11.869141 7 L 12.896484 7 L 13.5 7 L 14.921875 7 C 14.969024 7.3273215 15 7.6595127 15 8 C 15 9.8961913 14.24205 11.61247 13.017578 12.873047 L 11.443359 11.613281 A 5 5 0 0 0 12.894531 9 L 11.867188 9 L 8 9 L 8 7 z M 3.8007812 10.705078 A 5 5 0 0 0 8 13 A 5 5 0 0 0 10.628906 12.244141 L 12.257812 13.546875 C 11.077345 14.454403 9.6040944 15 8 15 C 5.5079251 15 3.3262976 13.693562 2.0859375 11.732422 L 3.8007812 10.705078 z "
     style="opacity:1;fill:#000000;fill-opacity:1;stroke:none;stroke-linecap:round;stroke-linejoin:round;stroke-opacity:1" />
  <path
     id="path890"
     d="m 8,7 v 2 h 3.867188 1.027343 c -0.205931,0.9986903 -0.712288,1.910543 -1.451172,2.613281 l 1.574219,1.259766 c 0.306118,-0.315144 0.582923,-0.659546 0.826172,-1.027344 0.08896,-0.134506 0.168329,-0.275255 0.248047,-0.416015 0.03744,-0.06258 0.07391,-0.125737 0.109375,-0.189454 0.05182,-0.09858 0.0954,-0.201456 0.142578,-0.302734 0.05451,-0.113178 0.105958,-0.227803 0.154297,-0.34375 0.03332,-0.08302 0.05966,-0.169345 0.08984,-0.253906 0.04821,-0.13081 0.0925,-0.26303 0.132812,-0.3964846 0.02441,-0.084146 0.04316,-0.1704341 0.06445,-0.2558594 0.03616,-0.138313 0.06808,-0.2777013 0.0957,-0.4179688 0.01848,-0.100234 0.03078,-0.2029927 0.04492,-0.3046874 0.01817,-0.1213301 0.03315,-0.243117 0.04492,-0.3652344 C 14.987666,8.4013783 15,8.2026788 15,8 15,7.6847849 14.969086,7.377932 14.927734,7.0742188 14.923961,7.0494584 14.920055,7.0247185 14.916016,7 H 13.5 h -0.603516 -1.027343 -0.002 z"
     style="opacity:0.4;fill:#000000;fill-opacity:1;stroke:none;stroke-linecap:round;stroke-linejoin:round;stroke-opacity:1" />
  <path
     style="opacity:0.3;fill:#000000;fill-opacity:1;stroke:none;stroke-linecap:round;stroke-linejoin:round;stroke-opacity:1"
     d="m 10.953125,10.689453 c -7.3020833,3.540365 -3.6510417,1.770182 0,0 z m -7.1523438,0.01563 -1.7128906,1.027344 c 0.00325,0.0059 0.0065,0.01172 0.00977,0.01758 0.4537765,0.712721 1.034577,1.336675 1.7070313,1.84375 0.039412,0.02906 0.079128,0.05771 0.1191406,0.08594 0.1799696,0.129887 0.3663709,0.250671 0.5585938,0.363281 0.055546,0.03267 0.1115413,0.06458 0.1679687,0.0957 0.1927507,0.105843 0.3924362,0.199483 0.5957032,0.287109 0.051147,0.02406 0.1025825,0.0475 0.1542968,0.07031 0.2441797,0.09823 0.4949921,0.183417 0.7519532,0.253906 0.075235,0.01818 0.150766,0.03511 0.2265624,0.05078 0.1957494,0.04672 0.3938997,0.08737 0.5957032,0.117188 0.084438,0.01196 0.1690875,0.02238 0.2539062,0.03125 C 7.4827302,14.977299 7.7382019,15 8,15 c 0.2184976,-8.5e-4 0.4368357,-0.01193 0.6542969,-0.0332 0.069125,-0.0065 0.1365648,-0.0169 0.2050781,-0.02539 0.1274485,-0.01538 0.2544496,-0.03427 0.3808594,-0.05664 0.3408089,-0.06168 0.6725241,-0.148453 0.9941406,-0.257813 0.04181,-0.01458 0.08348,-0.02955 0.125,-0.04492 0.682487,-0.246803 1.318477,-0.592145 1.884766,-1.02539 0.0046,-0.0033 0.0091,-0.0065 0.01367,-0.0098 L 10.628906,12.244141 C 9.8398991,12.73556 8.9295255,12.99731 8,13 6.3013009,12.998014 4.7198034,12.133707 3.8007812,10.705078 Z m 7.0019528,0.138672 c -0.04205,0.04197 -0.08503,0.08299 -0.128906,0.123047 0.04388,-0.04005 0.08686,-0.08108 0.128906,-0.123047 z m -0.289062,0.257812 c -0.05168,0.04299 -0.104427,0.08467 -0.158203,0.125 0.05378,-0.04033 0.106527,-0.08201 0.158203,-0.125 z m -0.302734,0.222657 c -0.06578,0.0443 -0.132871,0.08664 -0.201172,0.126953 0.0683,-0.04031 0.135388,-0.08265 0.201172,-0.126953 z m -0.3339849,0.201172 c -0.067975,0.03715 -0.1370141,0.07232 -0.2070312,0.105468 0.070017,-0.03314 0.1390566,-0.06831 0.2070312,-0.105468 z m -0.390625,0.18164 c -0.063802,0.0264 -0.1282764,0.05115 -0.1933593,0.07422 0.065083,-0.02307 0.1295576,-0.04781 0.1933593,-0.07422 z m -0.3398437,0.119141 c -0.083863,0.02556 -0.1685446,0.04836 -0.2539063,0.06836 0.085362,-0.02 0.1700429,-0.0428 0.2539063,-0.06836 z m -0.3828125,0.09375 c -0.080917,0.01684 -0.1623361,0.03117 -0.2441407,0.04297 0.081805,-0.0118 0.1632239,-0.02613 0.2441407,-0.04297 z m -0.4394531,0.0625 c -0.076007,0.0074 -0.1522103,0.0126 -0.2285157,0.01563 0.076305,-0.003 0.1525086,-0.0082 0.2285157,-0.01563 z"
     id="path897" />
  <path
     id="path899"
     d="m 8,1 c -0.2536494,0 -0.503388,0.016608 -0.75,0.042969 -0.077665,0.010417 -0.1551502,0.022137 -0.2324219,0.035156 -0.1674709,0.023651 -0.3346223,0.048675 -0.4980469,0.083984 -0.098848,0.023249 -0.1971787,0.048645 -0.2949218,0.076172 -0.1340432,0.03521 -0.267669,0.070434 -0.3984375,0.1132813 -0.1050486,0.035282 -0.2092447,0.073053 -0.3125,0.1132813 -0.1285485,0.049075 -0.2560767,0.099935 -0.3808594,0.15625 C 5.0413891,1.6627602 4.9508733,1.7063901 4.8613281,1.7519531 4.7303037,1.8180614 4.6007566,1.8869921 4.4746094,1.9609375 4.3982182,2.0057243 4.3226838,2.0519566 4.2480469,2.0996094 4.1134521,2.1855362 3.981646,2.2744763 3.8535156,2.3691406 3.7868773,2.4181017 3.7211118,2.4682398 3.65625,2.5195312 3.5293332,2.6204093 3.4066612,2.7266682 3.2871094,2.8359375 3.2295981,2.8877289 3.1729497,2.9404705 3.1171875,2.9941406 2.9952584,3.1131772 2.8786687,3.2376538 2.765625,3.3652344 2.73534,3.3994456 2.7053906,3.4339524 2.6757812,3.46875 L 4.0917969,4.8847656 C 5.0398639,3.6945444 6.4783375,3.0008278 8,3 c 1.2108327,0.00278 2.379519,0.4448561 3.289062,1.2441406 L 12.623047,2.7636719 C 12.567207,2.7132831 12.510559,2.6637975 12.453125,2.6152344 12.382189,2.5564533 12.311509,2.4974258 12.238281,2.4414062 12.130538,2.3601154 12.020466,2.2819577 11.908203,2.2070312 11.835969,2.1580596 11.765517,2.106868 11.691406,2.0605469 11.561717,1.9813941 11.429486,1.9064846 11.294922,1.8359375 11.235392,1.8038982 11.177729,1.7686333 11.117188,1.7382812 10.915976,1.6372629 10.710007,1.546011 10.5,1.4648438 10.282392,1.3815714 10.060762,1.3092157 9.8359375,1.2480469 9.6228119,1.1903516 9.4070759,1.1427724 9.1894531,1.1054688 9.1339929,1.0958904 9.0773888,1.0902879 9.0214844,1.0820312 8.8626765,1.0576651 8.7030768,1.0387737 8.5429688,1.0253906 8.363382,1.0114755 8.1832191,1 8,1 Z m 5.111328,2.71875 -1.136719,1.2597656 0.002,0.00195 L 12.5,4.4316406 Z"
     style="opacity:0.2;fill:#000000;fill-opacity:1;stroke:none;stroke-linecap:round;stroke-linejoin:round;stroke-opacity:1" />
</svg>
