<svg xmlns="http://www.w3.org/2000/svg" viewBox="0 0 16 16" fill="currentColor" height="16px" width="16px">
    <path d="M12.5 0c-.647 0-1.198.421-1.406 1H3c-1.108 0-2 .892-2 2v10c0 1.108.892 2 2 2h10c1.108 0 2-.892 2-2V6.5c0-.822-.678-1.5-1.5-1.5h-7C5.678 5 5 5.678 5 6.5v2c0 .822.678 1.5 1.5 1.5h1.668c.213.552.746 1 1.37 1 .854 0 1.47-.666 1.47-1.521 0-.864-.617-1.473-1.47-1.473-.64 0-1.183.42-1.384.994H6.5a.488.488 0 01-.5-.5v-2c0-.286.214-.5.5-.5h7c.286 0 .5.214.5.5V13c0 .554-.446 1-1 1H3c-.554 0-1-.446-1-1V3c0-.554.446-1 1-1h8.094c.208.579.76 1 1.406 1 .823 0 1.5-.677 1.5-1.5S13.323 0 12.5 0zm0 1c.282 0 .5.218.5.5 0 .282-.218.5-.5.5a.493.493 0 01-.5-.5c0-.282.218-.5.5-.5zM9.537 9.006c.266 0 .47.206.47.473 0 .266-.204.47-.47.47a.463.463 0 01-.47-.47c0-.267.204-.473.47-.473z"/>
    <path d="M12.488 1a.5.5 0 00-.488.5.5.5 0 00.5.5.5.5 0 00.5-.5.5.5 0 00-.5-.5.5.5 0 00-.012 0zm-3 8A.5.5 0 009 9.5a.5.5 0 00.5.5.5.5 0 00.5-.5.5.5 0 00-.5-.5.5.5 0 00-.012 0z" opacity=".2"/>
</svg>
