<?xml version="1.0" encoding="UTF-8" standalone="no"?>
<svg
   xmlns:dc="http://purl.org/dc/elements/1.1/"
   xmlns:cc="http://creativecommons.org/ns#"
   xmlns:rdf="http://www.w3.org/1999/02/22-rdf-syntax-ns#"
   xmlns:svg="http://www.w3.org/2000/svg"
   xmlns="http://www.w3.org/2000/svg"
   id="svg6"
   version="1.1"
   viewBox="0 0 16 16">
  <metadata
     id="metadata12">
    <rdf:RDF>
      <cc:Work
         rdf:about="">
        <dc:format>image/svg+xml</dc:format>
        <dc:type
           rdf:resource="http://purl.org/dc/dcmitype/StillImage" />
      </cc:Work>
    </rdf:RDF>
  </metadata>
  <defs
     id="defs10" />
  <path
     id="path2"
     opacity=".2"
     d="M4.5 2A2.495 2.495 0 0 0 2 4.5v7C2 12.885 3.115 14 4.5 14h7c1.385 0 2.5-1.115 2.5-2.5v-7C14 3.115 12.885 2 11.5 2h-7zM8 6a2 2 0 0 1 2 2 2 2 0 0 1-2 2 2 2 0 0 1-2-2 2 2 0 0 1 2-2z" />
  <path
     id="path4"
     d="M4.5 1C2.57 1 1 2.57 1 4.5v7C1 13.43 2.57 15 4.5 15h7c1.93 0 3.5-1.57 3.5-3.5v-7C15 2.57 13.43 1 11.5 1h-7zm0 1h7C12.894 2 14 3.106 14 4.5v7c0 1.394-1.106 2.5-2.5 2.5h-7A2.484 2.484 0 0 1 2 11.5v-7C2 3.106 3.106 2 4.5 2zm7 2a.5.5 0 0 0-.5.5.5.5 0 0 0 .5.5.5.5 0 0 0 .5-.5.5.5 0 0 0-.5-.5zM8 5C6.35 5 5 6.35 5 8s1.35 3 3 3 3-1.35 3-3-1.35-3-3-3zm0 1c1.11 0 2 .89 2 2 0 1.11-.89 2-2 2-1.11 0-2-.89-2-2 0-1.11.89-2 2-2z" />
</svg>
