<svg xmlns="http://www.w3.org/2000/svg" viewBox="0 0 16 16" fill="currentColor" height="16px" width="16px">
    <path d="M8 1a7 7 0 0 0-7 7 7 7 0 0 0 7 7 7 7 0 0 0 7-7 7 7 0 0 0-7-7zm4 5c.335.715.893.999 1.127 1.71.234.713.126 1.39-.627 1.29-.319-.042-.64-.357-.563-1-.125.631-.437 1.134-.937 1-.888-.29-.331-1.426.152-1.732.484-.307.569-.774.848-1.268z" opacity="0.2"/>
    <path d="M12 6c-.28.494-.364.961-.848 1.268C10.67 7.574 10.112 8.71 11 9c.5.134.812-.369.938-1-.078.643.243.958.562 1 .753.1.861-.577.627-1.29C12.893 7 12.335 6.716 12 6Z" opacity="0.4"/>
    <path d="M8 0a8 8 0 0 0-8 8 8 8 0 0 0 8 8 8 8 0 0 0 8-8 8 8 0 0 0-8-8Zm0 1a7 7 0 0 1 7 7 7 7 0 0 1-7 7 7 7 0 0 1-7-7 7 7 0 0 1 7-7Zm0 .875A6.125 6.125 0 0 0 1.875 8c.006 2.199 1.02 4.043 3.125 5-2.369-3.83-.803-6.71 3.5-8 1.5-.402-.498-1.001-.498-1.5 0-.501 1.53-1.146.703-1.582A6.14 6.14 0 0 0 8 1.875Zm4.326 1.809c-.528.024-1.78 1.702-2.258 3.08C9 7.499 6.993 7 7.5 10c.5-1 1.423-.5 2-1.5-.162 3.007-1.338 4.417-3.5 5.5h2c3.383 0 6.125-2.617 6.125-6 0-1.304-.437-3.062-1.44-4.12-.126-.124-.248-.201-.359-.196ZM12 6c.335.715.893.999 1.127 1.71.234.713.126 1.39-.627 1.29-.319-.042-.64-.357-.563-1-.125.631-.437 1.134-.937 1-.888-.29-.331-1.426.152-1.732.484-.307.569-.774.848-1.268Z"/>
</svg>
