<svg xmlns="http://www.w3.org/2000/svg" viewBox="0 0 16 16" fill="currentColor" height="16px" width="16px">
  <path d="M9.479.262c-.204.304-.89.239-1.362.22a7.436 7.436 0 0 0-3.107.625c-.901-.05-1.57.833-2.117 1.46-.411.448-.88.916-.93 1.523-.065.304-.864.824-.43.201-.201-.888-.81.559-.896.896C.242 6.335.167 7.562.225 8.764c-.526.585.493.522.619.658.18.296.627.183.556.726.03.626.793 1.433.686 1.82-.708.02.31 1.034.543 1.317.121.113-.393-.155-.05.262-.033.23.685.44.245.416.953 1.267 2.593 1.747 4.096 1.965 2.37.22 4.879-.442 6.676-2.037.576-.951 1.179-1.895 1.716-2.864.33-.638.846-1.358.612-2.107-.178-.923.052-1.915-.358-2.799-.267-1.01-.41-2.132-1.207-2.894-.49-.585-1.282-.884-1.66-1.553-.4-.953-1.544-.39-2.232-.92-.326-.169-.634-.39-.988-.492zm-6.655 13.7-.094-.142c-.077.05.085.14.094.143zM8.418 1.17c1.843.02 3.671.783 4.902 2.172.255.164 1.092 1.537.73.67-.33-.834.71.875.583 1.342.273.708.586.59.664 1.384.364 1.292.141 2.646-.252 3.899-.584.338-.779 1.086-1.082 1.638.009.603-.8 1.3-1.402 1.536-.93.355-1.8.87-2.748 1.168a7.897 7.897 0 0 1-2.213.136c-1.147.044-2.398-.16-3.194-1.068-.811-.948-1.605-1.926-2.252-2.994-.78-1.41-.97-3.114-.71-4.69.193-1.189 1.163-1.968 1.857-2.869.312-.887 1.068-1.46 1.976-1.674 2.081-.554 4.291-.04 6.233.776.694.328-.265-.702-.621-.715-.896-.399-1.872-.588-2.84-.705.123-.006.246-.007.369-.006zm-2.979.623-.152.035c-.777.15-.101.394.152-.035zm2.899.613a5.881 5.881 0 0 0-5.881 5.881c.006 2.111 1.195 4.318 3.217 5.236C3.4 9.847 4.5 6.803 8.633 5.564c.735-.183-.311-.828-.358-1.474-.038-.54 1.532-1.224.739-1.643a5.863 5.863 0 0 0-.676-.04zM2.365 3.711c-.116.305-.76 1.324-.707 1.031.207-.362.443-.708.707-1.031zm10.365.906c-.51.024-1.963 1.179-2.416 2.506-.796 1.783-.194 3.996-1.654 5.512-1.103.827-1.398 1.116-2.783.99a5.879 5.879 0 0 0 7.2-8.818c-.123-.12-.24-.195-.347-.19zm-.15 1.42c.064.152.178.326.28.379.22.106.398.433.369.678a.57.57 0 0 1-.264.388c-.057.025-.006-.199-.117-.353-.08-.11-.147-.105-.23-.211a.573.573 0 0 1-.116-.3.578.578 0 0 1-.238.218c-.121.056-.202-.017-.37.074-.173.093-.25.333-.265.264-.086-.14-.038-.299.01-.455.081-.233.388-.446.632-.442.152.014.197-.14.31-.24zm-.154.928c.077.328.197.45.232.767.035.318-.108.653-.414.545-.13-.045-.196-.265-.107-.527-.108.253-.356.373-.475.305-.345-.2-.02-.594.21-.68.228-.086.394-.228.554-.41zm-2.62.953c-.877.653-2.873.579-2.443 3.125 1.037-1.037 2.29-.507 2.444-3.125zm-8.152 4.496c-.616.183.058.845 0 0zm12.74.97c-.562.097.296.192 0 0zm-10.546.647c.345.107 1.272.707.382.264a57.614 57.614 0 0 0-.382-.264zm7.859.77c-.362.232-.978.525-.264.152.09-.048.176-.103.264-.152zm-5.523.629c.516.097 1.74.07 1.795.113-.6.107-1.222.125-1.795-.113z"/>
  <path d="M8.68 16.067c.119-.346.797-.46 1.258-.564a7.436 7.436 0 0 0 2.84-1.408c.883-.184 1.3-1.21 1.668-1.957.28-.54.612-1.114.503-1.713-.016-.31.622-1.02.364-.305.424.806.636-.75.633-1.098.084-1.21-.16-2.414-.527-3.561.356-.702-.613-.378-.77-.476-.25-.24-.652-.015-.725-.558-.19-.596-1.136-1.178-1.133-1.58.678-.203-.567-.918-.865-1.132-.147-.077.418.048-.02-.266-.029-.23-.776-.247-.345-.338C10.313.134 8.605.096 7.097.274 4.752.674 2.5 1.963 1.177 3.97.865 5.037.527 6.104.258 7.179c-.153.702-.467 1.53-.046 2.193.41.846.447 1.863 1.07 2.611.521.907.95 1.954 1.915 2.485.625.437 1.469.521 2.007 1.07.633.817 1.59-.023 2.393.31.358.08.714.213 1.083.219zm2.881-14.956.128.114c.062-.068-.118-.113-.128-.114zM9.825 14.815c-1.876.592-4.001.362-5.653-.728-.289-.093-1.452-1.202-.879-.458.536.72-.911-.661-.91-1.144-.447-.613-.717-.42-.999-1.167-.686-1.153-.82-2.52-.765-3.831.477-.478.47-1.25.62-1.862-.164-.58.436-1.461.957-1.845.806-.584 1.514-1.307 2.353-1.84a7.894 7.894 0 0 1 2.101-.705C7.746.896 9.008.77 10.012 1.44c1.03.705 2.05 1.444 2.95 2.31 1.12 1.16 1.743 2.755 1.9 4.344.121 1.2-.614 2.204-1.051 3.253-.072.938-.654 1.688-1.476 2.13-1.866 1.073-4.134 1.149-6.22.863-.756-.138.436.608.784.53.968.152 1.96.083 2.926-.055zm2.36-1.272c.135-.48.85-.418.14-.073zm2.472-2.648c.034-.325.393-1.475.418-1.178a7.446 7.446 0 0 1-.418 1.178zm-1.565-8.59c.548-.335-.274-.8 0 0zM.536 4.666c.518-.238-.335-.108 0 0zm10.42-3.22c-.029.004-.126-.05 0 0zm-.4-.135c-.362-.014-1.413-.353-.44-.156l.44.156zm-7.79 1.292c.289-.318.806-.762.213-.216-.073.07-.14.145-.213.216Zm.728-.68.068-.055ZM7.937.563c-.524.04-1.7.381-1.763.355C6.727.659 7.32.482 7.937.564Z" opacity="0.2"/>
</svg>
