<?xml version="1.0" encoding="UTF-8" standalone="no"?>
<svg
   xmlns:dc="http://purl.org/dc/elements/1.1/"
   xmlns:cc="http://creativecommons.org/ns#"
   xmlns:rdf="http://www.w3.org/1999/02/22-rdf-syntax-ns#"
   xmlns:svg="http://www.w3.org/2000/svg"
   xmlns="http://www.w3.org/2000/svg"
   id="svg6"
   version="1.1"
   viewBox="0 0 16 16">
  <metadata
     id="metadata12">
    <rdf:RDF>
      <cc:Work
         rdf:about="">
        <dc:format>image/svg+xml</dc:format>
        <dc:type
           rdf:resource="http://purl.org/dc/dcmitype/StillImage" />
      </cc:Work>
    </rdf:RDF>
  </metadata>
  <defs
     id="defs10" />
  <path
     id="path2"
     opacity=".2"
     d="M11.5 2L7.922 7.574l.754 1.696L14 2.234V2h-2.5zM2 3.898V12l2-5.5v-.162l-2-2.44zM14 6l-2 6v2h2V6z" />
  <path
     id="path4"
     d="M1 1v14h4V7.559L7 10h2l2-2.441V15h4V1h-3.793L7.436 6.48 5 1H1zm10.5 1H14v.234L8.676 9.27l-.754-1.696L11.5 2zM2 3.898l2 2.44V6.5L2 12V3.898zM14 6v8h-2v-2l2-6z" />
</svg>
