<svg xmlns="http://www.w3.org/2000/svg" viewBox="0 0 16 16">
    <path d="M12 4c.004.271.061.71 0 1-.47 2.216-2.58 4-4.933 4H6.005l-.742 4.5c-.005.024-.021.045-.03.068l-.197.932-.107.5h3.127l.103-.5.745-3.5h2.123C13 11 15 9 15 7c0-1.367-1.5-3-2.5-3z" opacity=".2"/>
    <path d="M2.986 0c-.294 0-.578.223-.637.5L.86 8.5l-.85 5c-.06.277.13.5.425.5h3.645l-.32 1.5c-.06.277.13.5.425.5H8.37c.294 0 .578-.223.637-.5l.744-3.5H11c2.355 0 5-2 5-5 0-2.094-2-4-3.975-4 0-1-1.525-3-3.259-3H7.705zM12.5 4c1 0 2.5 1.633 2.5 3 0 2-2 4-3.972 4H8.904l-.744 3.5-.105.5H4.928l.108-.5.197-.932c.009-.023.025-.044.03-.068L6.005 9h1.063C9.42 9 11.529 7.216 12 5c.061-.29.004-.729 0-1z"/>
</svg>
