<?xml version="1.0" encoding="UTF-8" standalone="no"?>
<svg
   xmlns:dc="http://purl.org/dc/elements/1.1/"
   xmlns:cc="http://creativecommons.org/ns#"
   xmlns:rdf="http://www.w3.org/1999/02/22-rdf-syntax-ns#"
   xmlns:svg="http://www.w3.org/2000/svg"
   xmlns="http://www.w3.org/2000/svg"
   id="svg6"
   version="1.1"
   viewBox="0 0 16 16">
  <metadata
     id="metadata12">
    <rdf:RDF>
      <cc:Work
         rdf:about="">
        <dc:format>image/svg+xml</dc:format>
        <dc:type
           rdf:resource="http://purl.org/dc/dcmitype/StillImage" />
        <dc:title />
      </cc:Work>
    </rdf:RDF>
  </metadata>
  <defs
     id="defs10" />
  <path
     id="path835"
     d="M 15,8 A 7,7 0 0 1 8,15 7,7 0 0 1 1,8 7,7 0 0 1 8,1 7,7 0 0 1 15,8 Z"
     style="opacity:0.2;fill:#000000;fill-opacity:1;stroke:none;stroke-linecap:round;stroke-linejoin:round;stroke-opacity:1" />
  <path
     id="path815"
     d="M 8 0 A 8 8 0 0 0 0 8 A 8 8 0 0 0 8 16 A 8 8 0 0 0 16 8 A 8 8 0 0 0 8 0 z M 8 1 A 7 7 0 0 1 15 8 A 7 7 0 0 1 8 15 A 7 7 0 0 1 1 8 A 7 7 0 0 1 8 1 z M 7 4 C 5.892 4 5 4.892 5 6 L 5 7 L 5 8 L 5 10 L 5 10.5 L 5 12 C 5 13 5.5 13 6 13 L 8 10 L 9 10 C 10.662 10 12 8.662 12 7 C 12 5.338 10.662 4 9 4 L 8 4 L 7 4 z "
     style="opacity:1;fill:#000000;fill-opacity:1.0;stroke:none;stroke-linecap:round;stroke-linejoin:round;stroke-opacity:1" />
</svg>
