<?xml version="1.0" encoding="UTF-8" standalone="no"?>
<svg
   xmlns:dc="http://purl.org/dc/elements/1.1/"
   xmlns:cc="http://creativecommons.org/ns#"
   xmlns:rdf="http://www.w3.org/1999/02/22-rdf-syntax-ns#"
   xmlns:svg="http://www.w3.org/2000/svg"
   xmlns="http://www.w3.org/2000/svg"
   id="svg6"
   version="1.1"
   viewBox="0 0 16 16">
  <metadata
     id="metadata12">
    <rdf:RDF>
      <cc:Work
         rdf:about="">
        <dc:format>image/svg+xml</dc:format>
        <dc:type
           rdf:resource="http://purl.org/dc/dcmitype/StillImage" />
        <dc:title />
      </cc:Work>
    </rdf:RDF>
  </metadata>
  <defs
     id="defs10" />
  <path
     id="path4"
     d="M 8 0 C 2.812 -0.197 -1.3585781 5.4702819 0.35742188 10.363281 C 1.6404219 15.067281 7.6399852 17.499531 11.833984 15.019531 C 15.090984 13.297531 16.806578 9.1577187 15.642578 5.6367188 C 14.669578 2.3437187 11.43 -0.047 8 0 z M 8 1 C 9.3598351 0.94787985 10.634104 1.3598826 11.716797 2.0722656 A 7 7 0 0 1 12.037109 2.2929688 C 12.05482 2.3060744 12.074205 2.3168068 12.091797 2.3300781 A 7 7 0 0 1 12.105469 2.3417969 A 7 7 0 0 1 14.779297 6.2871094 C 14.798916 6.3584167 14.816643 6.4300892 14.833984 6.5019531 A 7 7 0 0 1 14.873047 6.6855469 C 14.895322 6.7902165 14.922131 6.8944157 14.939453 7 L 14.919922 7 A 7 7 0 0 1 15 8 L 11 8 A 3 3 0 0 0 10.826172 7 L 10.824219 7 A 3 3 0 0 0 10.710938 6.7226562 A 3 3 0 0 0 10.568359 6.4589844 A 3 3 0 0 0 10.402344 6.2089844 A 3 3 0 0 0 10.214844 5.9824219 A 3 3 0 0 0 10.210938 5.9765625 A 3 3 0 0 0 10.208984 5.9746094 A 3 3 0 0 0 9.9980469 5.765625 A 3 3 0 0 0 9.765625 5.578125 A 3 3 0 0 0 9.5683594 5.4472656 A 3 3 0 0 0 9.4863281 5.3964844 A 3 3 0 0 0 9.3027344 5.3007812 A 3 3 0 0 0 9.2265625 5.265625 A 3 3 0 0 0 9.0449219 5.1914062 A 3 3 0 0 0 8.9316406 5.1503906 A 3 3 0 0 0 8.7636719 5.1035156 A 3 3 0 0 0 8.6464844 5.0742188 A 3 3 0 0 0 8.4902344 5.0449219 A 3 3 0 0 0 8.3378906 5.0214844 A 3 3 0 0 0 8.1894531 5.0097656 A 3 3 0 0 0 8 5 A 3 3 0 0 0 7.7363281 5.0136719 A 3 3 0 0 0 7.6289062 5.0273438 A 3 3 0 0 0 7.4296875 5.0566406 A 3 3 0 0 0 7.3378906 5.078125 A 3 3 0 0 0 7.1425781 5.1269531 A 3 3 0 0 0 7.0566406 5.15625 A 3 3 0 0 0 6.8417969 5.234375 A 3 3 0 0 0 6.8066406 5.25 A 3 3 0 0 0 6.5742188 5.3632812 A 3 3 0 0 0 6.5273438 5.390625 A 3 3 0 0 0 6.3320312 5.5097656 A 3 3 0 0 0 6.2539062 5.5644531 A 3 3 0 0 0 6.0820312 5.6953125 A 3 3 0 0 0 6.0351562 5.7382812 A 3 3 0 0 0 5.8632812 5.8964844 A 3 3 0 0 0 5.8164062 5.9472656 A 3 3 0 0 0 5.6621094 6.125 A 3 3 0 0 0 5.625 6.171875 A 3 3 0 0 0 5.4882812 6.3652344 A 3 3 0 0 0 5.453125 6.4199219 A 3 3 0 0 0 5.3359375 6.6269531 A 3 3 0 0 0 5.3144531 6.671875 A 3 3 0 0 0 5.2128906 6.8964844 A 3 3 0 0 0 5 8 L 1 8 A 7 7 0 0 1 1.078125 7 L 1.0742188 7 C 1.0774066 6.9755888 1.0844228 6.9520767 1.0878906 6.9277344 A 7 7 0 0 1 1.1386719 6.6445312 C 1.1685275 6.4865254 1.2028072 6.3302666 1.2441406 6.1757812 A 7 7 0 0 1 1.2753906 6.0703125 C 1.3287067 5.8837584 1.3877932 5.6999738 1.4570312 5.5195312 A 7 7 0 0 1 1.5019531 5.40625 C 1.5608378 5.2607524 1.6246355 5.1174093 1.6933594 4.9765625 A 7 7 0 0 1 1.828125 4.7070312 C 1.8625403 4.6436831 1.8991896 4.5817641 1.9355469 4.5195312 A 7 7 0 0 1 4.3867188 2.0136719 C 4.4133405 1.9972983 4.4399636 1.9808667 4.4667969 1.9648438 A 7 7 0 0 1 4.8183594 1.7734375 C 4.9358855 1.711962 5.0549306 1.6543284 5.1757812 1.5996094 A 7 7 0 0 1 5.3417969 1.5273438 C 6.1740294 1.176418 7.0740562 0.98281863 8 1 z M 8 6 A 2 2 0 0 1 10 8 A 2 2 0 0 1 8 10 A 2 2 0 0 1 6 8 A 2 2 0 0 1 8 6 z M 8 7 A 1 1 0 0 0 7 8 A 1 1 0 0 0 8 9 A 1 1 0 0 0 9 8 A 1 1 0 0 0 8 7 z M 1.0703125 9 L 5.1757812 9 A 3 3 0 0 0 5.2890625 9.2773438 A 3 3 0 0 0 5.4316406 9.5410156 A 3 3 0 0 0 5.5976562 9.7910156 A 3 3 0 0 0 5.7851562 10.017578 A 3 3 0 0 0 5.7910156 10.025391 A 3 3 0 0 0 6.0019531 10.234375 A 3 3 0 0 0 6.234375 10.421875 A 3 3 0 0 0 6.4316406 10.552734 A 3 3 0 0 0 6.5136719 10.603516 A 3 3 0 0 0 6.6972656 10.699219 A 3 3 0 0 0 6.7734375 10.734375 A 3 3 0 0 0 6.9550781 10.808594 A 3 3 0 0 0 7.0683594 10.849609 A 3 3 0 0 0 7.2363281 10.896484 A 3 3 0 0 0 7.3535156 10.925781 A 3 3 0 0 0 7.5097656 10.955078 A 3 3 0 0 0 7.6621094 10.978516 A 3 3 0 0 0 7.8105469 10.990234 A 3 3 0 0 0 8 11 A 3 3 0 0 0 8.2636719 10.986328 A 3 3 0 0 0 8.3710938 10.972656 A 3 3 0 0 0 8.5703125 10.943359 A 3 3 0 0 0 8.6621094 10.921875 A 3 3 0 0 0 8.8574219 10.873047 A 3 3 0 0 0 8.9433594 10.84375 A 3 3 0 0 0 9.1582031 10.765625 A 3 3 0 0 0 9.1679688 10.761719 A 3 3 0 0 0 9.1933594 10.75 A 3 3 0 0 0 9.4257812 10.636719 A 3 3 0 0 0 9.4375 10.630859 A 3 3 0 0 0 9.4726562 10.609375 A 3 3 0 0 0 9.6679688 10.490234 A 3 3 0 0 0 9.7460938 10.435547 A 3 3 0 0 0 9.9179688 10.304688 A 3 3 0 0 0 9.9316406 10.292969 A 3 3 0 0 0 9.9648438 10.261719 A 3 3 0 0 0 10.136719 10.103516 A 3 3 0 0 0 10.183594 10.052734 A 3 3 0 0 0 10.337891 9.875 A 3 3 0 0 0 10.375 9.828125 A 3 3 0 0 0 10.511719 9.6347656 A 3 3 0 0 0 10.523438 9.6191406 A 3 3 0 0 0 10.546875 9.5800781 A 3 3 0 0 0 10.664062 9.3730469 A 3 3 0 0 0 10.671875 9.359375 A 3 3 0 0 0 10.685547 9.328125 A 3 3 0 0 0 10.787109 9.1035156 A 3 3 0 0 0 10.822266 9 L 14.921875 9 L 14.943359 9 C 14.899546 9.2865578 14.830644 9.5705191 14.748047 9.8535156 A 7 7 0 0 1 14.716797 9.9570312 C 14.684348 10.060493 14.658741 10.164984 14.619141 10.267578 C 14.602873 10.318854 14.580063 10.367278 14.5625 10.417969 A 7 7 0 0 1 14.494141 10.603516 C 14.178016 11.429184 13.694352 12.171099 13.087891 12.800781 A 7 7 0 0 1 13.013672 12.882812 A 7 7 0 0 1 9.8574219 14.742188 C 9.854845 14.742921 9.852187 14.74341 9.8496094 14.744141 A 7 7 0 0 1 9.8203125 14.75 A 7 7 0 0 1 9.2988281 14.875 C 9.1006451 14.91418 8.9000678 14.943416 8.6992188 14.964844 C 8.3028247 15.007134 7.9031528 15.013537 7.5039062 14.982422 C 7.3609804 14.971283 7.2185933 14.952679 7.0761719 14.931641 A 7 7 0 0 1 5.9160156 14.673828 C 5.7953364 14.636788 5.6764648 14.598683 5.5585938 14.554688 A 7 7 0 0 1 4.7695312 14.207031 C 4.7209484 14.181175 4.6748733 14.152035 4.6269531 14.125 A 7 7 0 0 1 1.0976562 9.1152344 C 1.0910595 9.0762041 1.0762103 9.0391591 1.0703125 9 z " />
  <path
     id="path838"
     d="M 8 1 C 4.1340068 1 1 4.134007 1 8 L 6 8 A 2 2 0 0 0 8 10 A 2 2 0 0 0 10 8 L 15 8 C 15 4.134007 11.865993 1 8 1 z "
     style="opacity:0.2;fill:#000000;fill-opacity:1;stroke:none;stroke-linecap:round;stroke-linejoin:round;stroke-opacity:1" />
</svg>
