<?xml version="1.0" encoding="UTF-8" standalone="no"?>
<svg
   xmlns:dc="http://purl.org/dc/elements/1.1/"
   xmlns:cc="http://creativecommons.org/ns#"
   xmlns:rdf="http://www.w3.org/1999/02/22-rdf-syntax-ns#"
   xmlns:svg="http://www.w3.org/2000/svg"
   xmlns="http://www.w3.org/2000/svg"
   id="svg6"
   version="1.1"
   viewBox="0 0 16 16">
  <metadata
     id="metadata12">
    <rdf:RDF>
      <cc:Work
         rdf:about="">
        <dc:format>image/svg+xml</dc:format>
        <dc:type
           rdf:resource="http://purl.org/dc/dcmitype/StillImage" />
        <dc:title />
      </cc:Work>
    </rdf:RDF>
  </metadata>
  <defs
     id="defs10" />
  <path
     id="rect826"
     d="M 10.5,1 C 9.669,1 9,1.669 9,2.5 v 4 C 9,7.331 9.669,8 10.5,8 11.331,8 12,7.331 12,6.5 v -4 C 12,1.669 11.331,1 10.5,1 Z m 0,1 C 10.777,2 11,2.223 11,2.5 v 4 C 11,6.777 10.777,7 10.5,7 10.223,7 10,6.777 10,6.5 v -4 C 10,2.223 10.223,2 10.5,2 Z m 4,3 C 13.669,5 13,5.669 13,6.5 v 1 C 13,7.777 13.223,8 13.5,8 h 1 C 15.331,8 16,7.331 16,6.5 16,5.669 15.331,5 14.5,5 Z m 0,1 C 14.777,6 15,6.223 15,6.5 15,6.777 14.777,7 14.5,7 14.223,7 14,6.777 14,6.5 14,6.223 14.223,6 14.5,6 Z"
     style="opacity:1;fill:#000000;fill-opacity:1;stroke:none;stroke-width:1;stroke-linecap:round;stroke-linejoin:round;stroke-miterlimit:4;stroke-dasharray:none;stroke-dashoffset:0.5;stroke-opacity:1" />
  <path
     id="rect828"
     d="M 10.5,9 C 9.669,9 9,9.669 9,10.5 9,11.331 9.669,12 10.5,12 h 4 C 15.331,12 16,11.331 16,10.5 16,9.669 15.331,9 14.5,9 Z m 0,1 h 4 c 0.277,0 0.5,0.223 0.5,0.5 0,0.277 -0.223,0.5 -0.5,0.5 h -4 C 10.223,11 10,10.777 10,10.5 10,10.223 10.223,10 10.5,10 Z m -1,3 C 9.223,13 9,13.223 9,13.5 v 1 C 9,15.331 9.669,16 10.5,16 11.331,16 12,15.331 12,14.5 12,13.669 11.331,13 10.5,13 Z m 1,1 C 10.777,14 11,14.223 11,14.5 11,14.777 10.777,15 10.5,15 10.223,15 10,14.777 10,14.5 10,14.223 10.223,14 10.5,14 Z"
     style="opacity:1;fill:#000000;fill-opacity:1;stroke:none;stroke-width:1;stroke-linecap:round;stroke-linejoin:round;stroke-miterlimit:4;stroke-dasharray:none;stroke-dashoffset:0.5;stroke-opacity:1" />
  <path
     id="rect830"
     d="M 6.5,1 C 5.669,1 5,1.669 5,2.5 5,3.331 5.669,4 6.5,4 h 1 C 7.777,4 8,3.777 8,3.5 v -1 C 8,1.669 7.331,1 6.5,1 Z m 0,1 C 6.777,2 7,2.223 7,2.5 7,2.777 6.777,3 6.5,3 6.223,3 6,2.777 6,2.5 6,2.223 6.223,2 6.5,2 Z m -4,3 C 1.669,5 1,5.669 1,6.5 1,7.331 1.669,8 2.5,8 h 4 C 7.331,8 8,7.331 8,6.5 8,5.669 7.331,5 6.5,5 Z m 0,1 h 4 C 6.777,6 7,6.223 7,6.5 7,6.777 6.777,7 6.5,7 h -4 C 2.223,7 2,6.777 2,6.5 2,6.223 2.223,6 2.5,6 Z"
     style="opacity:1;fill:#000000;fill-opacity:1;stroke:none;stroke-width:1;stroke-linecap:round;stroke-linejoin:round;stroke-miterlimit:4;stroke-dasharray:none;stroke-dashoffset:0.5;stroke-opacity:1" />
  <path
     id="rect832"
     d="M 2.5,9 C 1.669,9 1,9.669 1,10.5 1,11.331 1.669,12 2.5,12 3.331,12 4,11.331 4,10.5 v -1 C 4,9.223 3.777,9 3.5,9 Z m 4,0 C 5.669,9 5,9.669 5,10.5 v 4 C 5,15.331 5.669,16 6.5,16 7.331,16 8,15.331 8,14.5 v -4 C 8,9.669 7.331,9 6.5,9 Z m -4,1 C 2.777,10 3,10.223 3,10.5 3,10.777 2.777,11 2.5,11 2.223,11 2,10.777 2,10.5 2,10.223 2.223,10 2.5,10 Z m 4,0 C 6.777,10 7,10.223 7,10.5 v 4 C 7,14.777 6.777,15 6.5,15 6.223,15 6,14.777 6,14.5 v -4 C 6,10.223 6.223,10 6.5,10 Z"
     style="opacity:1;fill:#000000;fill-opacity:1;stroke:none;stroke-width:1;stroke-linecap:round;stroke-linejoin:round;stroke-miterlimit:4;stroke-dasharray:none;stroke-dashoffset:0.5;stroke-opacity:1" />
  <path
     id="rect842"
     d="M 2.5,10 C 2.223,10 2,10.223 2,10.5 2,10.777 2.223,11 2.5,11 2.777,11 3,10.777 3,10.5 3,10.223 2.777,10 2.5,10 Z m 4,0 C 6.223,10 6,10.223 6,10.5 v 4 C 6,14.777 6.223,15 6.5,15 6.777,15 7,14.777 7,14.5 v -4 C 7,10.223 6.777,10 6.5,10 Z"
     style="opacity:0.2;fill:#000000;fill-opacity:1;stroke:none;stroke-width:1;stroke-linecap:round;stroke-linejoin:round;stroke-miterlimit:4;stroke-dasharray:none;stroke-dashoffset:0.5;stroke-opacity:1" />
  <path
     id="rect846"
     d="M 10.5,2 C 10.223,2 10,2.223 10,2.5 v 4 C 10,6.777 10.223,7 10.5,7 10.777,7 11,6.777 11,6.5 v -4 C 11,2.223 10.777,2 10.5,2 Z m 4,4 C 14.223,6 14,6.223 14,6.5 14,6.777 14.223,7 14.5,7 14.777,7 15,6.777 15,6.5 15,6.223 14.777,6 14.5,6 Z"
     style="opacity:0.3;fill:#000000;fill-opacity:1;stroke:none;stroke-width:1;stroke-linecap:round;stroke-linejoin:round;stroke-miterlimit:4;stroke-dasharray:none;stroke-dashoffset:0.5;stroke-opacity:1" />
  <path
     id="rect860"
     d="M 6.5,2 C 6.223,2 6,2.223 6,2.5 6,2.777 6.223,3 6.5,3 6.777,3 7,2.777 7,2.5 7,2.223 6.777,2 6.5,2 Z m -4,4 C 2.223,6 2,6.223 2,6.5 2,6.777 2.223,7 2.5,7 h 4 C 6.777,7 7,6.777 7,6.5 7,6.223 6.777,6 6.5,6 Z"
     style="opacity:0.4;fill:#000000;fill-opacity:1;stroke:none;stroke-width:1;stroke-linecap:round;stroke-linejoin:round;stroke-miterlimit:4;stroke-dasharray:none;stroke-dashoffset:0.5;stroke-opacity:1" />
</svg>
