<?xml version="1.0" encoding="UTF-8" standalone="no"?>
<svg
   xmlns:dc="http://purl.org/dc/elements/1.1/"
   xmlns:cc="http://creativecommons.org/ns#"
   xmlns:rdf="http://www.w3.org/1999/02/22-rdf-syntax-ns#"
   xmlns:svg="http://www.w3.org/2000/svg"
   xmlns="http://www.w3.org/2000/svg"
   id="svg6"
   version="1.1"
   viewBox="0 0 16 16">
  <metadata
     id="metadata12">
    <rdf:RDF>
      <cc:Work
         rdf:about="">
        <dc:format>image/svg+xml</dc:format>
        <dc:type
           rdf:resource="http://purl.org/dc/dcmitype/StillImage" />
      </cc:Work>
    </rdf:RDF>
  </metadata>
  <defs
     id="defs10" />
  <path
     id="path2"
     opacity=".2"
     d="M3 2h10c.554 0 1 .446 1 1v10c0 .554-.446 1-1 1H3c-.554 0-1-.446-1-1V3c0-.554.446-1 1-1z" />
  <path
     id="path4"
     d="M3 1c-1.108 0-2 .892-2 2v10c0 1.108.892 2 2 2h10c1.108 0 2-.892 2-2V3c0-1.108-.892-2-2-2H3zm0 1h10c.554 0 1 .446 1 1v10c0 .554-.446 1-1 1H3c-.554 0-1-.446-1-1V3c0-.554.446-1 1-1zm5.459 1a.306.3 0 0 0-.297.24L8 4.008c-1.493.075-2.76.818-2.76 2.34 0 1.317 1.046 1.883 2.153 2.271 1.045.39 1.6.536 1.6 1.086 0 .566-.552.897-1.368.897-.742 0-1.522-.244-2.125-.836a.301.295 0 0 0-.426 0l-.627.613a.315.309 0 0 0 0 .435c.487.47 1.104.812 1.807 1l-.172.811a.303.303 0 0 0 .295.365l1.125.01a.306.3 0 0 0 .3-.24l.163-.77c1.797-.118 2.892-1.089 2.892-2.504 0-1.303-1.09-1.853-2.412-2.3-.756-.275-1.41-.464-1.41-1.03 0-.55.61-.767 1.223-.767.776 0 1.522.315 2.012.744h.001a.298.298 0 0 0 .416 0l.58-.592c.123-.114.117-.317-.013-.44a4.575 4.481 0 0 0-1.559-.872l.184-.864A.303.303 0 0 0 9.582 3H8.459z" />
</svg>
