<svg xmlns="http://www.w3.org/2000/svg" xml:space="preserve" viewBox="0 0 16 16" fill="currentColor" height="16px" width="16px">
    <path d="M15 6V4c-2 0-3-1-3-3h-2v10.514c-.004 1.225-1.274 2.472-2.5 2.472-1.5 0-2.5-1-2.5-2.5S6 9 8 9V6c-6.5 0-5 2.836-5 5.486 0 2.492 1.45 4.496 4 4.5 2.685 0 5-1.5 5-4.472V5c.5.866 2 1 3 1z" opacity="0.4"/>
    <path d="M14 5V3c-2 0-3-1-3-3H8v9.529C7.996 10.753 6.726 12 5.5 12 4 12 3 11 3 9.5s2-2.486 4-2.486V5C2.5 5 1 7 1 9.5c0 2.492 1.45 4.496 4 4.5 2.685 0 4.471-1.547 5-4.471L11 4c.5.866 2 1 3 1Z" opacity="0.2"/>
    <path d="M14 6V4c-2 0-3-1-3-3H9v9.529C8.996 11.753 7.726 13 6.5 13 5 13 4 12 4 10.5s1-2.486 3-2.486V6c-3.5 0-5 1.85-5 4.5 0 2.492 1.45 4.496 4 4.5 2.685 0 5-1.5 5-4.471V5c.5.866 2 1 3 1z"/>
</svg>
