<?xml version="1.0" encoding="UTF-8" standalone="no"?>
<svg
   xmlns:dc="http://purl.org/dc/elements/1.1/"
   xmlns:cc="http://creativecommons.org/ns#"
   xmlns:rdf="http://www.w3.org/1999/02/22-rdf-syntax-ns#"
   xmlns:svg="http://www.w3.org/2000/svg"
   xmlns="http://www.w3.org/2000/svg"
   id="svg4"
   version="1.1"
   viewBox="0 0 16 16">
  <metadata
     id="metadata10">
    <rdf:RDF>
      <cc:Work
         rdf:about="">
        <dc:format>image/svg+xml</dc:format>
        <dc:type
           rdf:resource="http://purl.org/dc/dcmitype/StillImage" />
      </cc:Work>
    </rdf:RDF>
  </metadata>
  <defs
     id="defs8" />
  <path
     id="path2"
     d="M11.516 2C9.574 2 8 3.548 8 5.457 8.002 5.617 8 6 8 6s-.32-.004-.5 0C5 6 2.5 5 .873 2.031.5 3.001 0 4 0 5.473.003 8.473 2 11 5 12c-1 1-2.5 1.5-5 1.5 1.5.855 3.832 1.497 5.5 1.5 5.123-.003 9.32-4.001 9.488-9.037a3.41 3.41 0 0 0 .043-.506c0-.24.016-.23-.031-.457 1-1 1-2 1-3-1.5 1-1.5 1-2 1h-.014a3.532 3.532 0 0 0-2.47-1z" />
</svg>
