<?xml version="1.0" encoding="UTF-8" standalone="no"?>
<svg
   xmlns:dc="http://purl.org/dc/elements/1.1/"
   xmlns:cc="http://creativecommons.org/ns#"
   xmlns:rdf="http://www.w3.org/1999/02/22-rdf-syntax-ns#"
   xmlns:svg="http://www.w3.org/2000/svg"
   xmlns="http://www.w3.org/2000/svg"
   id="svg6"
   version="1.1"
   viewBox="0 0 16 16">
  <metadata
     id="metadata12">
    <rdf:RDF>
      <cc:Work
         rdf:about="">
        <dc:format>image/svg+xml</dc:format>
        <dc:type
           rdf:resource="http://purl.org/dc/dcmitype/StillImage" />
        <dc:title />
      </cc:Work>
    </rdf:RDF>
  </metadata>
  <defs
     id="defs10" />
  <path
     id="path2"
     opacity=".2"
     d="M15 8a7 7 0 0 1-7 7 7 7 0 0 1-7-7 7 7 0 0 1 7-7 7 7 0 0 1 7 7z" />
  <path
     id="path4"
     d="M 8 0 C 2.812 -0.197 -1.3585781 5.4702813 0.35742188 10.363281 C 1.6404219 15.067281 7.6399844 17.499531 11.833984 15.019531 C 15.090984 13.297531 16.806578 9.1577187 15.642578 5.6367188 C 14.669578 2.3437187 11.43 -0.047 8 0 z M 8 1 C 12.618 0.823 16.283141 5.9565781 14.619141 10.267578 C 13.606141 13.460578 10.059062 15.530672 6.7890625 14.888672 C 3.2800625 14.348672 0.61015625 10.824781 1.0351562 7.3007812 C 1.3201562 3.8097812 4.497 0.935 8 1 z M 8 3 C 6.6134185 3.3338655 5.2241708 3.6510675 4 5 C 3.0570262 5.9585093 2.366858 7.1309311 2.5 9 C 3.2875791 7.9667341 3.7028286 6.6627638 5 6 L 5 10 L 5 11 L 4 11 C 5.1906318 12.11423 6.4462997 13.024484 8 13 L 9.5 12 L 10.5 13 C 11.849261 12.246642 12.515349 11.16669 13 10 C 12.323223 10.37209 11.499456 11.30764 11 11 L 11 10 L 11 6 L 11 5.5 L 12 4 C 11.035094 4.0408815 10.039843 4.3346407 9 5 L 8 5 L 9 6 L 9 9 C 9 9 9 10 8 10 C 7 10 7 9 7 9 L 7 6 C 7 6 6.5541533 5.729397 6.5 5.5 C 6.3789096 4.9870527 6.7229154 4.4483323 7 4 C 7.247832 3.5989994 8 3 8 3 z "
     style="fill:#000000;fill-opacity:1.0" />
</svg>
