<?xml version="1.0" encoding="UTF-8" standalone="no"?>
<svg
   xmlns:dc="http://purl.org/dc/elements/1.1/"
   xmlns:cc="http://creativecommons.org/ns#"
   xmlns:rdf="http://www.w3.org/1999/02/22-rdf-syntax-ns#"
   xmlns:svg="http://www.w3.org/2000/svg"
   xmlns="http://www.w3.org/2000/svg"
   id="svg6"
   version="1.1"
   viewBox="0 0 16 16">
  <metadata
     id="metadata12">
    <rdf:RDF>
      <cc:Work
         rdf:about="">
        <dc:format>image/svg+xml</dc:format>
        <dc:type
           rdf:resource="http://purl.org/dc/dcmitype/StillImage" />
      </cc:Work>
    </rdf:RDF>
  </metadata>
  <defs
     id="defs10" />
  <path
     id="path2"
     opacity=".2"
     d="M3 2h10c.554 0 1 .446 1 1v10c0 .554-.446 1-1 1H3c-.554 0-1-.446-1-1V3c0-.554.446-1 1-1z" />
  <path
     id="path4"
     d="M3 1c-1.108 0-2 .892-2 2v10c0 1.108.892 2 2 2h10c1.108 0 2-.892 2-2V3c0-1.108-.892-2-2-2H3zm0 1h10c.554 0 1 .446 1 1v10c0 .554-.446 1-1 1H3c-.554 0-1-.446-1-1V3c0-.554.446-1 1-1zm3 1.988V4H3v.156c0 .407.039.408.072.576.034.169.077.365.13.596.104.461.246 1.05.403 1.692.314 1.284.69 2.786.936 3.826L4.812 12h3.042l.316-.158c.768-.384 1.672-1.054 2.557-2.012C11.61 8.872 12.5 7.625 12.5 6c0-.75-.231-1.38-.375-1.709C11.981 3.962 12 4.004 12 4H9c0 .707.269 1.249.375 1.492.106.244.125.258.125.508 0 .375-.36 1.128-.977 1.795-.498.54-1.018.878-1.37 1.103-.212-.863-.424-1.732-.633-2.59-.156-.636-.295-1.216-.393-1.646a20.033 20.033 0 0 1-.111-.512A1.012 1.012 0 0 1 6 3.988z" />
</svg>
