<svg xmlns="http://www.w3.org/2000/svg" viewBox="0 0 16 16" fill="currentColor" height="16px" width="16px">
    <path d="M15 8a7 7 0 01-7 7 7 7 0 01-7-7 7 7 0 017-7 7 7 0 017 7z" opacity=".2"/>
    <path d="M8 0a8 8 0 100 16A8 8 0 008 0zm0 1c1.498 0 2.883.474 4.021 1.275C10.756 2.765 9.385 3.583 8 4.78 6.615 3.583 5.244 2.764 3.979 2.275A6.962 6.962 0 018 1zM3.582 2.572a7 7 0 00-.06.05c.02-.018.04-.033.06-.05zm8.844.006l.049.04a7 7 0 00-.05-.04zm-9.447.55c.083.048.128.068.216.12 1.128.667 2.266 1.507 3.57 2.688C4.97 7.74 3.835 9.57 3.263 11.199a7.242 7.242 0 00-.373 1.572A6.967 6.967 0 011 8c0-1.895.756-3.61 1.979-4.871zm10.042 0A6.973 6.973 0 0115 8c0 1.846-.72 3.52-1.889 4.771a7.242 7.242 0 00-.373-1.572c-.572-1.63-1.708-3.458-3.504-5.263 1.305-1.181 2.443-2.021 3.57-2.688.09-.052.134-.072.217-.12zM8 7.11c1.717 1.758 2.814 3.18 3.648 4.592.396.67.678 1.232.891 1.623A6.968 6.968 0 018 15a6.968 6.968 0 01-4.54-1.676c.214-.39.496-.953.892-1.623C5.186 10.29 6.283 8.867 8 7.11z"/>
</svg>
