<svg xmlns="http://www.w3.org/2000/svg" viewBox="0 0 16 16">
    <path d="M2.96 4.004A1.982 1.982 0 0 0 1 6v6c0 1.117.883 2 2 2h10c1.117 0 2-.883 2-2V6a1.982 1.982 0 0 0-1.96-1.996zM5 5l3.5 2 2.746 1.568.754.434L8.5 11 5 13V9.002z" opacity=".2"/>
    <path d="M3 3C1.347 3 0 4.347 0 6v6c0 1.653 1.347 3 3 3h10c1.653 0 3-1.347 3-3V6c0-1.653-1.347-3-3-3H3zm0 1h10c1.117 0 2 .883 2 2v6c0 1.117-.883 2-2 2H3c-1.117 0-2-.883-2-2V6c0-1.117.883-2 2-2zm2 1v8l3.5-2L12 9.002l-.754-.434L8.5 7 5 5zm1.006 1.723l1.99 1.138 1.992 1.137-1.992 1.14-1.99 1.14V6.721z"/>
</svg>
