<svg xmlns="http://www.w3.org/2000/svg" viewBox="0 0 16 16" fill="currentColor" height="16px" width="16px">
    <path d="M9 .063c-1.099 0-2 .9-2 2 0 1.098.901 2 2 2s2-.902 2-2c0-1.1-.901-2-2-2zm0 1c.558 0 1 .441 1 1 0 .558-.442 1-1 1s-1-.442-1-1c0-.559.442-1 1-1zm-3.5 3c-.583 0-1.203.142-1.695.552C3.312 5.025 3 5.701 3 6.562c0 .277.603.518.879.518s1.127-.208 1.127-.484c0-.64-.818-.997-.56-1.211.257-.215.637-.322 1.054-.322.375 0 .664.127 1.027.378.364.252.773.629 1.297 1.022.361.27.569.455 1.176 1.1L6.3 9.92c-1.38-.11-2.8.01-3.292.143a.52.52 0 00-.006 0h-.006c-1.1.296-1.969 1.09-1.996 2 0 1.098.901 2 2 2 .9 0 1.274-.564 1.854-1.147l.015-.018 1.668-1.666a21.28 21.28 0 012.336.33c1.156.241 2.344.474 2.979 1.108.392.393.18 1.071.18 1.893.116.437 1.922 2.843 1.968 0 0-1.179-.668-2.103-1.59-2.723-.922-.62-1.966-1.276-3.193-1.531a20.798 20.798 0 00-1.631-.26L10 8.063c.785.248 1.843.958 3 .958a.5.5 0 00.09-.01C14.147 8.964 15 7.132 15 6.064c0-1.1-.901-2-2-2-.908 0-1.28.574-1.87 1.164L9.856 6.5a6.777 6.777 0 01-1.43-.838c-.475-.357-.878-.73-1.327-1.04-.45-.312-.973-.56-1.598-.56zm7.5 1c.558 0 1 .441 1 1 0 .558-.442 1-1 1-.82 0-1.495-.083-2.076-.217l.922-.924c.225-.225.783-.86 1.154-.86zm-10.002 6H3c.45.006 1.287.02 2.225.068l-1.07 1.072-.009.006c-.228.23-.777.854-1.146.854-.558 0-1-.442-1-1s.44-1 .998-1z"/>
    <circle cx="9" cy="2.063" r="1.5" opacity=".2"/>
</svg>
