<svg xmlns="http://www.w3.org/2000/svg" viewBox="0 0 16 16" fill="currentColor" height="16px" width="16px">
    <path d="M10.422 1.516C7.493 1.57 3.47 4.167 2.236 6.305a5.498 5.498 0 0 0 8.391 6.879l1.986 1.146a1.25 1.25 0 1 0 1.25-2.164l-1.777-1.025c1.35-2.85 2.244-8.006.14-9.221-.511-.295-1.128-.417-1.804-.404z" opacity=".2"/>
    <path d="M10.611 1.002C9.326.973 7.896 1.43 6.557 2.086c-2.04 1-3.904 2.496-4.754 3.969a6.006 6.006 0 0 0 2.195 8.195 6.01 6.01 0 0 0 6.678-.459l1.687.973a1.76 1.76 0 0 0 2.393-.641c.48-.832.189-1.91-.643-2.39l-1.373-.792a16.358 16.358 0 0 0 1.172-4.521c.11-1.027.1-2.021-.1-2.885-.2-.864-.61-1.627-1.335-2.047a3.63 3.63 0 0 0-1.325-.443 4.654 4.654 0 0 0-.54-.043zm-.195 1.027c.61-.015 1.148.086 1.56.325.41.236.7.707.862 1.408.163.7.181 1.601.08 2.552-.202 1.903-.883 4.016-1.59 5.24-.132.23-.283.44-.445.64l-.045.056c-.1.12-.213.224-.322.332a4.977 4.977 0 0 1-6.018.803 4.992 4.992 0 0 1-1.83-6.83c.669-1.158 2.437-2.643 4.33-3.57.947-.465 1.915-.782 2.785-.903.218-.03.43-.048.633-.053zM10 5a1 1 0 0 0-1 1 1 1 0 0 0 1 1 1 1 0 0 0 1-1 1 1 0 0 0-1-1zM5 7a1 1 0 0 0-1 1 1 1 0 0 0 1 1 1 1 0 0 0 1-1 1 1 0 0 0-1-1zm3 0a1 1 0 0 0-1 1 1 1 0 0 0 1 1 1 1 0 0 0 1-1 1 1 0 0 0-1-1zm-3 3a1 1 0 0 0-1 1 1 1 0 0 0 1 1 1 1 0 0 0 1-1 1 1 0 0 0-1-1zm3 0a1 1 0 0 0-1 1 1 1 0 0 0 1 1 1 1 0 0 0 1-1 1 1 0 0 0-1-1zm4.299 1.842 1.314.758a.737.737 0 0 1 .276 1.023.739.739 0 0 1-1.026.273l-1.416-.818c.28-.309.532-.649.748-1.023.037-.063.068-.147.104-.213z"/>
</svg>
