<?xml version="1.0" encoding="UTF-8" standalone="no"?>
<svg
   xmlns:dc="http://purl.org/dc/elements/1.1/"
   xmlns:cc="http://creativecommons.org/ns#"
   xmlns:rdf="http://www.w3.org/1999/02/22-rdf-syntax-ns#"
   xmlns:svg="http://www.w3.org/2000/svg"
   xmlns="http://www.w3.org/2000/svg"
   id="svg6"
   version="1.1"
   viewBox="0 0 16 16">
  <metadata
     id="metadata12">
    <rdf:RDF>
      <cc:Work
         rdf:about="">
        <dc:format>image/svg+xml</dc:format>
        <dc:type
           rdf:resource="http://purl.org/dc/dcmitype/StillImage" />
        <dc:title />
      </cc:Work>
    </rdf:RDF>
  </metadata>
  <defs
     id="defs10" />
  <path
     style="opacity:0.2"
     id="path2"
     d="M 8 1 A 7 7 0 0 0 1 8 A 7 7 0 0 0 8 15 A 7 7 0 0 0 15 8 A 7 7 0 0 0 8 1 z M 5 10 L 11 10 C 11.554 10 12 10.446 12 11 C 12 11.554 11.554 12 11 12 L 5 12 C 4.446 12 4 11.554 4 11 C 4 10.446 4.446 10 5 10 z " />
  <path
     id="path4"
     d="M 8 0 C 2.812 -0.197 -1.3585781 5.4702813 0.35742188 10.363281 C 1.6404219 15.067281 7.6399844 17.499531 11.833984 15.019531 C 15.090984 13.297531 16.806578 9.1577187 15.642578 5.6367188 C 14.669578 2.3437187 11.43 -0.047 8 0 z M 8 1 C 12.618 0.823 16.283141 5.9565781 14.619141 10.267578 C 13.606141 13.460578 10.059062 15.530672 6.7890625 14.888672 C 3.2800625 14.348672 0.61015625 10.824781 1.0351562 7.3007812 C 1.3201562 3.8097812 4.497 0.935 8 1 z M 5 4 C 4.446 4 4 4.446 4 5 L 4 7 C 4 7.554 4.446 8 5 8 C 5.554 8 6 7.554 6 7 L 6 5 C 6 4.446 5.554 4 5 4 z M 11 4 C 10.446 4 10 4.446 10 5 L 10 7 C 10 7.554 10.446 8 11 8 C 11.554 8 12 7.554 12 7 L 12 5 C 12 4.446 11.554 4 11 4 z M 5 9 C 3.892 9 3 9.892 3 11 C 3 12.108 3.892 13 5 13 L 11 13 C 12.108 13 13 12.108 13 11 C 13 9.892 12.108 9 11 9 L 5 9 z M 5 10 L 6 10 L 6 12 L 5 12 C 4.446 12 4 11.554 4 11 C 4 10.446 4.446 10 5 10 z M 7 10 L 9 10 L 9 12 L 7 12 L 7 10 z M 10 10 L 11 10 C 11.554 10 12 10.446 12 11 C 12 11.554 11.554 12 11 12 L 10 12 L 10 10 z " />
</svg>
