<?xml version="1.0" encoding="UTF-8" standalone="no"?>
<svg
   xmlns:dc="http://purl.org/dc/elements/1.1/"
   xmlns:cc="http://creativecommons.org/ns#"
   xmlns:rdf="http://www.w3.org/1999/02/22-rdf-syntax-ns#"
   xmlns:svg="http://www.w3.org/2000/svg"
   xmlns="http://www.w3.org/2000/svg"
   id="svg6"
   version="1.1"
   viewBox="0 0 16 16">
  <metadata
     id="metadata12">
    <rdf:RDF>
      <cc:Work
         rdf:about="">
        <dc:format>image/svg+xml</dc:format>
        <dc:type
           rdf:resource="http://purl.org/dc/dcmitype/StillImage" />
        <dc:title />
      </cc:Work>
    </rdf:RDF>
  </metadata>
  <defs
     id="defs10" />
  <path
     style="opacity:0.2"
     id="path2"
     d="m 15,8.0014023 a 7,7 0 0 0 -7,-7 7,7 0 0 0 -7,7 7,7 0 0 0 7,6.9999997 7,7 0 0 0 7,-6.9999997 z" />
  <path
     id="path4"
     d="M 8.4511719 0.001953125 C 4.9341875 -0.13951563 1.3196719 2.1106719 0.35742188 5.6386719 C -1.3585781 10.531672 2.812 16.198953 8 16.001953 C 11.43 16.048953 14.669578 13.658234 15.642578 10.365234 C 16.806578 6.8442347 15.090984 2.7024687 11.833984 0.98046875 C 10.785484 0.36046874 9.6235 0.049109378 8.4511719 0.001953125 z M 8.0234375 0.99609375 C 10.90685 1.0056778 13.732766 2.9405 14.619141 5.734375 C 16.283141 10.045375 12.618 15.178953 8 15.001953 C 4.497 15.066953 1.3201562 12.192172 1.0351562 8.7011719 C 0.61015625 5.1771719 3.2800625 1.6532813 6.7890625 1.1132812 C 7.1978125 1.0330313 7.6115215 0.99472461 8.0234375 0.99609375 z M 8 3 C 5.8330269 3 4.6122532 4.1583061 4.0527344 5.2773438 A 0.50005814 0.50005814 0 1 0 4.9472656 5.7246094 C 5.3877468 4.843647 6.1669731 4 8 4 C 9.8330269 4 10.612253 4.843647 11.052734 5.7246094 A 0.5000585 0.5000585 0 1 0 11.947266 5.2773438 C 11.387747 4.1583061 10.166973 3 8 3 z M 5 8.0019531 C 4.446 8.0019531 4 8.4479531 4 9.0019531 L 4 11.001953 C 4 11.555953 4.446 12.001953 5 12.001953 C 5.554 12.001953 6 11.555953 6 11.001953 L 6 9.0019531 C 6 8.4479531 5.554 8.0019531 5 8.0019531 z M 11 8.0019531 C 10.446 8.0019531 10 8.4479531 10 9.0019531 L 10 11.001953 C 10 11.555953 10.446 12.001953 11 12.001953 C 11.554 12.001953 12 11.555953 12 11.001953 L 12 9.0019531 C 12 8.4479531 11.554 8.0019531 11 8.0019531 z " />
</svg>
