<?xml version="1.0" encoding="UTF-8" standalone="no"?>
<svg
   xmlns:dc="http://purl.org/dc/elements/1.1/"
   xmlns:cc="http://creativecommons.org/ns#"
   xmlns:rdf="http://www.w3.org/1999/02/22-rdf-syntax-ns#"
   xmlns:svg="http://www.w3.org/2000/svg"
   xmlns="http://www.w3.org/2000/svg"
   id="svg6"
   version="1.1"
   viewBox="0 0 16 16">
  <metadata
     id="metadata12">
    <rdf:RDF>
      <cc:Work
         rdf:about="">
        <dc:format>image/svg+xml</dc:format>
        <dc:type
           rdf:resource="http://purl.org/dc/dcmitype/StillImage" />
        <dc:title />
      </cc:Work>
    </rdf:RDF>
  </metadata>
  <defs
     id="defs10" />
  <path
     id="rect828"
     d="M 9 1 C 7.3909328 1 7.0139031 2.5647003 5.9316406 4 L 5 4 C 3.338 4 2 5.338 2 7 C 2 7.8711579 2.3736975 8.6462648 2.9628906 9.1933594 C 1.8173582 9.6149765 1 10.704606 1 12 C 1 13.662 2.338 15 4 15 L 12 15 C 13.662 15 15 13.662 15 12 C 15 10.704606 14.182642 9.6149765 13.037109 9.1933594 C 13.626302 8.6462648 14 7.8711579 14 7 C 14 5.338 12.662 4 11 4 L 9.75 4 L 9 3 L 9 1 z M 4 10 L 12 10 L 12 11 L 4 11 L 4 10 z "
     style="opacity:0.4;fill:#000000;fill-opacity:1;stroke:none;stroke-width:2;stroke-linecap:round;stroke-linejoin:round;stroke-miterlimit:4;stroke-dasharray:none;stroke-dashoffset:0;stroke-opacity:1" />
  <path
     id="rect820"
     d="M 9.5 0 C 8.29838 0 7.3967248 0.73072885 6.6074219 1.5644531 C 6.1745373 2.0217001 5.755154 2.519798 5.3183594 3 L 5 3 C 2.784 3 1 4.784 1 7 C 1 7.6169138 1.1491297 8.1940614 1.3964844 8.7148438 C 0.55236068 9.352702 -1.4802974e-16 10.355738 0 11.5 L 0 12.5 C 0 14.439 1.561 16 3.5 16 L 12.5 16 C 14.439 16 16 14.439 16 12.5 L 16 11.5 C 16 10.355738 15.447639 9.3527021 14.603516 8.7148438 C 14.85087 8.1940614 15 7.6169138 15 7 C 15 4.784 13.216 3 11 3 L 10.707031 3 L 10 2.2929688 L 10 0.5 C 9.9999724 0.22386906 9.7761309 2.7608953e-05 9.5 0 z M 9 1 L 9 3 L 9.75 4 L 11 4 C 12.662 4 14 5.338 14 7 C 14 7.8711579 13.626302 8.6462648 13.037109 9.1933594 C 14.182642 9.6149765 15 10.704606 15 12 C 15 13.662 13.662 15 12 15 L 4 15 C 2.338 15 1 13.662 1 12 C 1 10.704606 1.8173582 9.6149765 2.9628906 9.1933594 C 2.3736975 8.6462648 2 7.8711579 2 7 C 2 5.338 3.338 4 5 4 L 5.9316406 4 C 7.0139031 2.5647003 7.3909328 1 9 1 z M 5 5 C 4.446 5 4 5.446 4 6 L 4 8 C 4 8.554 4.446 9 5 9 C 5.554 9 6 8.554 6 8 L 6 6 C 6 5.446 5.554 5 5 5 z M 5 9 L 3.5 9 C 3.223869 9.000028 3.0000276 9.223869 3 9.5 C 3 10.083333 3.1323497 11.170055 3.84375 12.166016 C 4.5551503 13.161976 5.875 14 8 14 C 10.125 14 11.44485 13.161976 12.15625 12.166016 C 12.86765 11.170055 13 10.083333 13 9.5 C 12.999972 9.223869 12.776131 9.000028 12.5 9 L 11 9 L 5 9 z M 11 9 C 11.554 9 12 8.554 12 8 L 12 6 C 12 5.446 11.554 5 11 5 C 10.446 5 10 5.446 10 6 L 10 8 C 10 8.554 10.446 9 11 9 z M 4.1582031 10 L 11.841797 10 C 11.785427 10.469227 11.774597 10.5 11.640625 11 L 4.359375 11 C 4.2254004 10.5 4.2145763 10.469227 4.1582031 10 z "
     style="opacity:1;fill:#000000;fill-opacity:1;stroke:none;stroke-width:2;stroke-linecap:round;stroke-linejoin:round;stroke-miterlimit:4;stroke-dasharray:none;stroke-dashoffset:0;stroke-opacity:1" />
</svg>
