<svg xmlns="http://www.w3.org/2000/svg" viewBox="0 0 16 16" fill="currentColor" height="16px" width="16px">
    <path d="M15 8a7 7 0 01-7 7 7 7 0 01-7-7 7 7 0 017-7 7 7 0 017 7z" opacity=".2"/>
    <path d="M8 0C2.812-.197-1.359 5.47.357 10.363 1.64 15.067 7.64 17.5 11.834 15.02c3.257-1.722 4.973-5.862 3.809-9.383C14.67 2.344 11.43-.047 8 0zm0 1c4.618-.177 8.283 4.957 6.62 9.268-1.014 3.193-4.56 5.263-7.83 4.62-3.51-.54-6.18-4.063-5.755-7.587C1.32 3.81 4.497.935 8 1zM5.01 4.98c-1.334 0-1.947 1.28-1.947 1.28-.35.613.617 1.092.894.443 0 0 .387-.723 1.053-.723.667 0 1.053.723 1.053.723.276.65 1.243.17.894-.443 0 0-.613-1.28-1.947-1.28zm6 0c-1.334 0-1.947 1.28-1.947 1.28-.35.613.617 1.092.894.443 0 0 .387-.723 1.053-.723.667 0 1.053.723 1.053.723.276.65 1.243.17.894-.443 0 0-.613-1.28-1.947-1.28zM4.453 8.994c-.31.038-.591.355-.4.729C4.612 10.842 5.833 12 8 12s3.387-1.158 3.947-2.277c.306-.599-.598-1.05-.894-.448C10.612 10.156 9.833 11 8 11s-2.613-.844-3.053-1.725a.47.47 0 00-.494-.28z"/>
</svg>
