<svg xmlns="http://www.w3.org/2000/svg" viewBox="0 0 16 16" fill="currentColor" height="16px" width="16px">
    <path d="M8 1a7 7 0 00-7 7 7 7 0 007 7 7 7 0 007-7 7 7 0 00-7-7zm4 6a1 1 0 011 1 1 1 0 01-1 1 1 1 0 01-1-1 1 1 0 011-1z" opacity=".2"/>
    <path d="M8 0C2.812-.197-1.359 5.47.357 10.363 1.64 15.067 7.64 17.5 11.834 15.02c3.257-1.722 4.973-5.862 3.809-9.383C14.67 2.344 11.43-.047 8 0zm0 1c4.618-.177 8.283 4.957 6.62 9.268-1.014 3.193-4.56 5.263-7.83 4.62-3.51-.54-6.18-4.063-5.755-7.587C1.32 3.81 4.497.935 8 1zM5 4c-.554 0-1 .446-1 1v2c0 .554.446 1 1 1s1-.446 1-1V5c0-.554-.446-1-1-1zm6 0c-.554 0-1 .446-1 1v2c0 .147.035.285.092.41A2 2 0 0010 8a2 2 0 002 2 2 2 0 002-2 2 2 0 00-2-2V5c0-.554-.446-1-1-1zm1 3a1 1 0 011 1 1 1 0 01-1 1 1 1 0 01-1-1 1 1 0 011-1zM8 8.998c-2.167 0-3.388 1.16-3.947 2.28a.5.5 0 10.894.445c.44-.881 1.22-1.725 3.053-1.725s2.612.844 3.053 1.725a.5.5 0 10.894-.446c-.56-1.119-1.78-2.279-3.947-2.279z"/>
</svg>
