<svg xmlns="http://www.w3.org/2000/svg" viewBox="0 0 16 16" fill="currentColor" height="16px" width="16px">
    <path d="M8 1a7 7 0 00-7 7 7 7 0 007 7 7 7 0 007-7 7 7 0 00-7-7zm-3.842 9h7.684c-.037.306-.074.644-.201 1H4.359c-.127-.356-.164-.694-.2-1z" opacity=".2"/>
    <path d="M8 0C2.812-.197-1.359 5.47.357 10.363 1.64 15.067 7.64 17.5 11.834 15.02c3.257-1.722 4.973-5.862 3.809-9.383C14.67 2.344 11.43-.047 8 0zm0 1c4.618-.177 8.283 4.957 6.62 9.268-1.014 3.193-4.56 5.263-7.83 4.62-3.51-.54-6.18-4.063-5.755-7.587C1.32 3.81 4.497.935 8 1zM5 4c-.554 0-1 .446-1 1v2c0 .554.446 1 1 1s1-.446 1-1V5c0-.554-.446-1-1-1zm6 0c-.554 0-1 .446-1 1v2c0 .554.446 1 1 1s1-.446 1-1V5c0-.554-.446-1-1-1zM3.5 9a.5.5 0 00-.5.5c0 .583.132 1.67.844 2.666C4.555 13.162 5.875 14 8 14c2.125 0 3.445-.838 4.156-1.834.712-.996.844-2.083.844-2.666a.5.5 0 00-.5-.5h-9zm.658 1h7.684c-.057.47-.067.5-.201 1H4.359c-.134-.5-.144-.53-.2-1z"/>
</svg>
