<?xml version="1.0" encoding="UTF-8" standalone="no"?>
<svg
   xmlns:dc="http://purl.org/dc/elements/1.1/"
   xmlns:cc="http://creativecommons.org/ns#"
   xmlns:rdf="http://www.w3.org/1999/02/22-rdf-syntax-ns#"
   xmlns:svg="http://www.w3.org/2000/svg"
   xmlns="http://www.w3.org/2000/svg"
   id="svg6"
   version="1.1"
   viewBox="0 0 16 16">
  <metadata
     id="metadata12">
    <rdf:RDF>
      <cc:Work
         rdf:about="">
        <dc:format>image/svg+xml</dc:format>
        <dc:type
           rdf:resource="http://purl.org/dc/dcmitype/StillImage" />
        <dc:title />
      </cc:Work>
    </rdf:RDF>
  </metadata>
  <defs
     id="defs10" />
  <path
     id="path2"
     d="M 8 1 A 7 7 0 0 0 2.2578125 4 L 5 4 C 5.554 4 6 4.446 6 5 L 6 7 C 6 7.554 5.554 8 5 8 L 2 8 C 1.8728296 8 1.754393 7.9732794 1.6445312 7.9296875 C 1.5846747 7.9069233 1.5360764 7.8692101 1.4824219 7.8359375 C 1.441885 7.8096489 1.399383 7.7877874 1.3632812 7.7558594 C 1.295358 7.698694 1.2420217 7.6318129 1.1914062 7.5585938 C 1.1825815 7.5452495 1.1722771 7.53332 1.1640625 7.5195312 C 1.1090667 7.4311694 1.0722331 7.3365673 1.046875 7.2324219 C 1.0465241 7.2309806 1.0452669 7.2299592 1.0449219 7.2285156 A 7 7 0 0 0 1 8 A 7 7 0 0 0 8 15 A 7 7 0 0 0 15 8 A 7 7 0 0 0 14.951172 7.2441406 C 14.925136 7.3458052 14.886426 7.4371001 14.832031 7.5234375 C 14.822449 7.5393195 14.811172 7.5530766 14.800781 7.5683594 C 14.75054 7.6391209 14.697452 7.702442 14.630859 7.7578125 C 14.595625 7.7885939 14.555024 7.8104879 14.515625 7.8359375 C 14.462374 7.8688397 14.414811 7.907119 14.355469 7.9296875 C 14.245542 7.9733845 14.127323 8 14 8 L 11 8 C 10.446 8 10 7.554 10 7 L 10 5 C 10 4.896125 10.015852 4.7952456 10.044922 4.7011719 C 10.132131 4.4189507 10.340008 4.1916797 10.609375 4.078125 C 10.729094 4.0276562 10.8615 4 11 4 L 13.734375 4 A 7 7 0 0 0 8 1 z "
     style="opacity:0.2" />
  <path
     id="rect882"
     d="M 1,7 C 1,7.554 1.446,8 2,8 H 5 C 5.554,8 6,7.554 6,7 V 5 C 6,4.446 5.554,4 5,4 3,5.5 3,5.5 1,7 Z M 11,4 c -0.554,0 -1,0.446 -1,1 v 2 c 0,0.554 0.446,1 1,1 h 3 c 0.554,0 1,-0.446 1,-1 V 5 C 15,4.446 14.554,4 14,4 Z"
     style="opacity:0.3;vector-effect:none;fill:#000000;fill-opacity:1;stroke:none;stroke-width:1.00000012;stroke-linecap:round;stroke-linejoin:miter;stroke-miterlimit:4;stroke-dasharray:none;stroke-dashoffset:0;stroke-opacity:1" />
  <path
     id="path4"
     d="M 8 0 C 2.812 -0.197 -1.3585781 5.4702816 0.35742188 10.363281 C 1.6404219 15.067281 7.6399848 17.499531 11.833984 15.019531 C 15.090984 13.297531 16.806578 9.1577187 15.642578 5.6367188 C 14.669578 2.3437187 11.43 -0.047 8 0 z M 8 1 C 10.329209 0.91072541 12.41417 2.1741465 13.697266 4 L 14 4 C 14.554 4 15 4.446 15 5 L 15 7 C 15 7.0699159 14.974465 7.1314694 14.960938 7.1972656 C 15.097039 8.2142397 15.007156 9.2623305 14.619141 10.267578 C 13.606141 13.460578 10.059062 15.530672 6.7890625 14.888672 C 3.2800625 14.348672 0.6101563 10.824781 1.0351562 7.3007812 C 1.0372008 7.2757371 1.0425806 7.2515425 1.0449219 7.2265625 C 1.0272094 7.1518269 1 7.0803034 1 7 L 1 5 C 1 4.446 1.446 4 2 4 L 2.2714844 4 C 3.5631853 2.1760252 5.7082812 0.95747596 8 1 z " />
  <rect
     ry="1"
     rx="1"
     y="5"
     x="3"
     height="3"
     width="2"
     id="rect826"
     style="opacity:1;vector-effect:none;fill:#000000;fill-opacity:1;stroke:none;stroke-width:1;stroke-linecap:round;stroke-linejoin:round;stroke-miterlimit:4;stroke-dasharray:none;stroke-dashoffset:0.5;stroke-opacity:1;marker:none" />
  <rect
     ry="1"
     rx="1"
     y="5"
     x="11"
     height="3"
     width="2"
     id="rect828"
     style="opacity:1;vector-effect:none;fill:#000000;fill-opacity:1;stroke:none;stroke-width:1;stroke-linecap:round;stroke-linejoin:round;stroke-miterlimit:4;stroke-dasharray:none;stroke-dashoffset:0.5;stroke-opacity:1;marker:none" />
  <path
     id="path830"
     d="M 11.5,10.5 C 11,11.5 10,12.501839 8,12.501839 6,12.501839 5,11.5 4.5,10.5"
     style="opacity:1;vector-effect:none;fill:none;fill-opacity:1;stroke:#000000;stroke-width:0.99999988;stroke-linecap:round;stroke-linejoin:round;stroke-miterlimit:4;stroke-dasharray:none;stroke-dashoffset:0.5;stroke-opacity:1;marker:none" />
  <path
     id="rect880"
     d="M 2,3 C 0.892,3 0,3.892 0,5 V 7 C 0,8.108 0.892,9 2,9 H 5 C 6.108,9 7,8.108 7,7 V 6 h 2 v 1 c 0,1.108 0.892,2 2,2 h 3 c 1.108,0 2,-0.892 2,-2 V 5 C 16,3.892 15.108,3 14,3 H 11 C 9.892,3 9,3.892 9,5 H 7 C 7,3.892 6.108,3 5,3 Z M 2,4 H 5 C 5.554,4 6,4.446 6,5 V 7 C 6,7.554 5.554,8 5,8 H 2 C 1.446,8 1,7.554 1,7 V 5 C 1,4.446 1.446,4 2,4 Z m 9,0 h 3 c 0.554,0 1,0.446 1,1 v 2 c 0,0.554 -0.446,1 -1,1 H 11 C 10.446,8 10,7.554 10,7 V 5 c 0,-0.554 0.446,-1 1,-1 z"
     style="opacity:1;vector-effect:none;fill:#000000;fill-opacity:1;stroke:none;stroke-width:1.00000012;stroke-linecap:round;stroke-linejoin:miter;stroke-miterlimit:4;stroke-dasharray:none;stroke-dashoffset:0;stroke-opacity:1" />
</svg>
