<svg xmlns="http://www.w3.org/2000/svg" viewBox="0 0 16 16" fill="currentColor" height="16px" width="16px">
    <path d="M8 1a7 7 0 00-7 7 7 7 0 007 7 7 7 0 007-7 7 7 0 00-7-7zM3 7a1 1 0 011 1 1 1 0 01-1 1 1 1 0 01-1-1 1 1 0 011-1zm10 0a1 1 0 011 1 1 1 0 01-1 1 1 1 0 01-1-1 1 1 0 011-1zm-8.842 3h7.684c-.037.306-.074.644-.201 1H4.359c-.127-.356-.164-.694-.2-1z" opacity=".2"/>
    <path d="M8 0C2.812-.197-1.359 5.47.357 10.363 1.64 15.067 7.64 17.5 11.834 15.02c3.257-1.722 4.973-5.862 3.809-9.383C14.67 2.344 11.43-.047 8 0zm0 1c4.618-.177 8.283 4.957 6.62 9.268-1.014 3.193-4.56 5.263-7.83 4.62-3.51-.54-6.18-4.063-5.755-7.587C1.32 3.81 4.497.935 8 1zM5 5c-.953 0-1.523.643-1.78 1.016A2 2 0 003 6a2 2 0 00-2 2 2 2 0 002 2 2 2 0 00.03-.002 4.62 4.62 0 00.814 2.168C4.555 13.162 5.875 14 8 14c2.125 0 3.445-.838 4.156-1.834a4.62 4.62 0 00.815-2.168A2 2 0 0013 10a2 2 0 002-2 2 2 0 00-2-2 2 2 0 00-.223.014C12.52 5.64 11.951 5 11 5 9.667 5 9.053 6.277 9.053 6.277a.5.5 0 10.894.446S10.333 6 11 6c.37 0 .626.203.805.4A2 2 0 0011 8a2 2 0 00.27 1H4.729A2 2 0 005 8a2 2 0 00-.805-1.602C4.375 6.201 4.633 6 5 6c.667 0 1.053.723 1.053.723a.5.5 0 10.894-.446S6.333 5 5 5zM3 7a1 1 0 011 1 1 1 0 01-1 1 1 1 0 01-1-1 1 1 0 011-1zm10 0a1 1 0 011 1 1 1 0 01-1 1 1 1 0 01-1-1 1 1 0 011-1zm-8.842 3h7.684c-.057.47-.067.5-.201 1H4.359c-.134-.5-.144-.53-.2-1z"/>
</svg>
