<?xml version="1.0" encoding="UTF-8" standalone="no"?>
<svg
   xmlns:dc="http://purl.org/dc/elements/1.1/"
   xmlns:cc="http://creativecommons.org/ns#"
   xmlns:rdf="http://www.w3.org/1999/02/22-rdf-syntax-ns#"
   xmlns:svg="http://www.w3.org/2000/svg"
   xmlns="http://www.w3.org/2000/svg"
   id="svg6"
   version="1.1"
   viewBox="0 0 16 16">
  <metadata
     id="metadata12">
    <rdf:RDF>
      <cc:Work
         rdf:about="">
        <dc:format>image/svg+xml</dc:format>
        <dc:type
           rdf:resource="http://purl.org/dc/dcmitype/StillImage" />
        <dc:title />
      </cc:Work>
    </rdf:RDF>
  </metadata>
  <defs
     id="defs10" />
  <path
     style="opacity:0.2"
     id="path2"
     d="M 8 1 A 7 7 0 0 0 1 8 A 7 7 0 0 0 8 15 A 7 7 0 0 0 15 8 A 7 7 0 0 0 8 1 z M 12.5 9 C 12.777 9 13 9.223 13 9.5 L 13 10 L 13.5 10 C 13.777 10 14 10.223 14 10.5 C 14 10.777 13.777 11 13.5 11 L 13 11 L 12.5 11 L 12 11 L 12 10.5 L 12 10 L 12 9.5 C 12 9.223 12.223 9 12.5 9 z " />
  <path
     id="path4"
     d="M 8 0 C 2.812 -0.197 -1.3585781 5.4702822 0.35742188 10.363281 C 1.6404219 15.067281 7.6399856 17.499531 11.833984 15.019531 C 15.090984 13.297531 16.806578 9.1577186 15.642578 5.6367188 C 14.669578 2.3437186 11.43 -0.047 8 0 z M 8 1 C 12.435049 0.83001221 15.976497 5.5564396 14.777344 9.75 C 14.58704 9.4306189 14.294722 9.1795537 13.929688 9.0703125 C 13.744616 8.4518921 13.180209 8 12.5 8 C 11.669 8 11 8.669 11 9.5 L 11 12 L 11.5 12 L 13.5 12 L 13.751953 12 C 12.226077 14.165768 9.4191784 15.405043 6.7890625 14.888672 C 3.2800625 14.348672 0.6101564 10.824781 1.0351562 7.3007812 C 1.3201562 3.8097813 4.497 0.935 8 1 z M 5 4 C 4.446 4 4 4.446 4 5 L 4 7 C 4 7.554 4.446 8 5 8 C 5.554 8 6 7.554 6 7 L 6 5 C 6 4.446 5.554 4 5 4 z M 11.009766 4.9804688 C 9.6764315 4.9804688 9.0625 6.2578125 9.0625 6.2578125 C 8.7273555 6.8665539 9.6733412 7.3374812 9.9570312 6.703125 C 9.9570312 6.703125 10.343099 5.9804686 11.009766 5.9804688 C 11.676433 5.9804688 12.0625 6.703125 12.0625 6.703125 C 12.346189 7.3374852 13.29218 6.866555 12.957031 6.2578125 C 12.957031 6.2578125 12.343099 4.9804688 11.009766 4.9804688 z M 8.1152344 7.9199219 C 7.6948621 7.9298619 7.3789064 8.015625 7.3789062 8.015625 C 6.6867855 8.1484184 6.9479079 9.1929084 7.6210938 8.984375 C 7.6210938 8.984375 8.0596265 8.8863598 8.4375 8.9335938 C 8.6264367 8.9572107 8.7764814 9.0170678 8.8574219 9.0878906 C 8.9383623 9.1587132 9 9.2361111 9 9.5 C 9 9.7638889 8.9383623 9.8412865 8.8574219 9.9121094 C 8.8201975 9.9446807 8.7276584 9.9571099 8.6640625 9.9824219 C 8.6303128 9.9768658 8.5954946 9.9455306 8.5625 9.9414062 C 7.9403735 9.8636408 7.3789062 10.015625 7.3789062 10.015625 C 6.877801 10.144137 6.877801 10.855863 7.3789062 10.984375 C 7.3789062 10.984375 7.9403735 11.136358 8.5625 11.058594 C 8.595495 11.054494 8.630313 11.023138 8.6640625 11.017578 C 8.7276585 11.042888 8.8201975 11.055321 8.8574219 11.087891 C 8.9383623 11.158726 9 11.236111 9 11.5 C 9 11.763889 8.938362 11.841286 8.8574219 11.912109 C 8.7764809 11.982929 8.6264367 12.042789 8.4375 12.066406 C 8.0596265 12.113636 7.6210938 12.015625 7.6210938 12.015625 C 6.947908 11.807092 6.6867854 12.851582 7.3789062 12.984375 C 7.3789062 12.984375 7.9403735 13.136358 8.5625 13.058594 C 8.8735633 13.019714 9.2235186 12.923318 9.5175781 12.666016 C 9.8116377 12.40871 10 11.986111 10 11.5 C 10 11.083053 9.8110982 10.759132 9.5859375 10.5 C 9.8110982 10.240868 10 9.9169475 10 9.5 C 10 9.0138889 9.8116377 8.5912865 9.5175781 8.3339844 C 9.2235186 8.0766823 8.8735633 7.9802892 8.5625 7.9414062 C 8.4069684 7.9219648 8.2553585 7.9166091 8.1152344 7.9199219 z M 12.5 9 C 12.777 9 13 9.223 13 9.5 L 13 10 L 13.5 10 C 13.777 10 14 10.223 14 10.5 C 14 10.777 13.777 11 13.5 11 L 13 11 L 12.5 11 L 12 11 L 12 10.5 L 12 10 L 12 9.5 C 12 9.223 12.223 9 12.5 9 z " />
</svg>
