<svg xmlns="http://www.w3.org/2000/svg" viewBox="0 0 16 16" fill="currentColor" height="16px" width="16px">
    <path d="M15 8a7 7 0 01-7 7 7 7 0 01-7-7 7 7 0 017-7 7 7 0 017 7z" opacity=".2"/>
    <path d="M8 0C2.812-.197-1.359 5.47.357 10.363 1.64 15.067 7.64 17.5 11.834 15.02c3.257-1.722 4.973-5.862 3.809-9.383C14.67 2.344 11.43-.047 8 0zm0 1c4.618-.177 8.283 4.957 6.62 9.268-1.014 3.193-4.56 5.263-7.83 4.62-3.51-.54-6.18-4.063-5.755-7.587C1.32 3.81 4.497.935 8 1zM3.268 5a2 2 0 003.464 2L3.268 5zm9.43 0L9.231 7a2 2 0 003.465-2zM8 8.998c-2.167 0-3.388 1.16-3.947 2.28a.5.5 0 10.894.445c.44-.881 1.22-1.725 3.053-1.725s2.612.844 3.053 1.725a.5.5 0 10.894-.446c-.56-1.119-1.78-2.279-3.947-2.279z"/>
</svg>
