<?xml version="1.0" encoding="UTF-8" standalone="no"?>
<svg
   xmlns:dc="http://purl.org/dc/elements/1.1/"
   xmlns:cc="http://creativecommons.org/ns#"
   xmlns:rdf="http://www.w3.org/1999/02/22-rdf-syntax-ns#"
   xmlns:svg="http://www.w3.org/2000/svg"
   xmlns="http://www.w3.org/2000/svg"
   id="svg6"
   version="1.1"
   viewBox="0 0 16 16">
  <metadata
     id="metadata12">
    <rdf:RDF>
      <cc:Work
         rdf:about="">
        <dc:format>image/svg+xml</dc:format>
        <dc:type
           rdf:resource="http://purl.org/dc/dcmitype/StillImage" />
        <dc:title />
      </cc:Work>
    </rdf:RDF>
  </metadata>
  <defs
     id="defs10" />
  <path
     id="path2"
     opacity=".2"
     d="M15 8a7 7 0 0 1-7 7 7 7 0 0 1-7-7 7 7 0 0 1 7-7 7 7 0 0 1 7 7z" />
  <path
     id="path4"
     d="M 8 0 C 2.812 -0.197 -1.3585781 5.4702813 0.35742188 10.363281 C 1.6404219 15.067281 7.6399844 17.499531 11.833984 15.019531 C 15.090984 13.297531 16.806578 9.1577187 15.642578 5.6367188 C 14.669578 2.3437187 11.43 -0.047 8 0 z M 8 1 C 12.618 0.823 16.283141 5.9565781 14.619141 10.267578 C 13.606141 13.460578 10.059062 15.530672 6.7890625 14.888672 C 3.2800625 14.348672 0.61015625 10.824781 1.0351562 7.3007812 C 1.3201562 3.8097812 4.497 0.935 8 1 z M 5.0097656 4.9804688 C 3.6764323 4.9804688 3.0625 6.2578125 3.0625 6.2578125 A 0.50005 0.50005 0 1 0 3.9570312 6.703125 C 3.9570312 6.703125 4.3430989 5.9804687 5.0097656 5.9804688 C 5.6764323 5.9804688 6.0625 6.703125 6.0625 6.703125 A 0.50005 0.50005 0 1 0 6.9570312 6.2578125 C 6.9570312 6.2578125 6.3430989 4.9804688 5.0097656 4.9804688 z M 11.009766 4.9804688 C 9.6764327 4.9804688 9.0625 6.2578125 9.0625 6.2578125 A 0.50005 0.50005 0 1 0 9.9570312 6.703125 C 9.9570312 6.703125 10.343099 5.9804687 11.009766 5.9804688 C 11.676433 5.9804688 12.0625 6.703125 12.0625 6.703125 A 0.50005 0.50005 0 1 0 12.957031 6.2578125 C 12.957031 6.2578125 12.343099 4.9804688 11.009766 4.9804688 z M 8.1152344 7.9199219 C 7.6948621 7.9298601 7.3789062 8.015625 7.3789062 8.015625 A 0.50005 0.50005 0 1 0 7.6210938 8.984375 C 7.6210938 8.984375 8.0596265 8.8863598 8.4375 8.9335938 C 8.6264367 8.9572107 8.7764814 9.0170678 8.8574219 9.0878906 C 8.9383623 9.1587133 9 9.2361111 9 9.5 C 9 9.7638889 8.9383623 9.8412865 8.8574219 9.9121094 C 8.8201975 9.9446807 8.7276584 9.9571099 8.6640625 9.9824219 C 8.6303128 9.9768658 8.5954946 9.9455306 8.5625 9.9414062 C 7.9403735 9.8636405 7.3789062 10.015625 7.3789062 10.015625 A 0.50005 0.50005 0 0 0 7.3789062 10.984375 C 7.3789062 10.984375 7.9403735 11.136359 8.5625 11.058594 C 8.595495 11.054494 8.630313 11.023138 8.6640625 11.017578 C 8.7276585 11.042888 8.8201975 11.055321 8.8574219 11.087891 C 8.9383623 11.15872 9 11.236111 9 11.5 C 9 11.763889 8.938362 11.841286 8.8574219 11.912109 C 8.7764809 11.982929 8.6264367 12.042789 8.4375 12.066406 C 8.0596265 12.113636 7.6210938 12.015625 7.6210938 12.015625 A 0.50005 0.50005 0 1 0 7.3789062 12.984375 C 7.3789062 12.984375 7.9403735 13.136359 8.5625 13.058594 C 8.8735633 13.019714 9.2235186 12.923318 9.5175781 12.666016 C 9.8116377 12.408712 10 11.986111 10 11.5 C 10 11.083053 9.8110982 10.759132 9.5859375 10.5 C 9.8110982 10.240868 10 9.9169475 10 9.5 C 10 9.0138889 9.8116377 8.5912865 9.5175781 8.3339844 C 9.2235186 8.0766823 8.8735633 7.9802892 8.5625 7.9414062 C 8.4069684 7.9219648 8.2553585 7.9166091 8.1152344 7.9199219 z " />
</svg>
