<?xml version="1.0" encoding="UTF-8" standalone="no"?>
<svg
   xmlns:dc="http://purl.org/dc/elements/1.1/"
   xmlns:cc="http://creativecommons.org/ns#"
   xmlns:rdf="http://www.w3.org/1999/02/22-rdf-syntax-ns#"
   xmlns:svg="http://www.w3.org/2000/svg"
   xmlns="http://www.w3.org/2000/svg"
   id="svg6"
   version="1.1"
   viewBox="0 0 16 16">
  <metadata
     id="metadata12">
    <rdf:RDF>
      <cc:Work
         rdf:about="">
        <dc:format>image/svg+xml</dc:format>
        <dc:type
           rdf:resource="http://purl.org/dc/dcmitype/StillImage" />
        <dc:title />
      </cc:Work>
    </rdf:RDF>
  </metadata>
  <defs
     id="defs10" />
  <path
     style="opacity:0.2"
     id="path861"
     d="M 8,1 C 4.1340068,1 1,4.1340068 1,8 c 0.00382,3.149751 2.1108671,5.909052 5.1484375,6.742188 C 6.0551744,14.511775 6,14.262677 6,14 V 12.595703 C 5.0359787,12.159732 4.4085695,11.434327 4.0527344,10.722656 3.8796345,10.385841 4.1292006,9.9863209 4.5078125,9.9941406 4.6959101,9.998352 4.8657238,10.107788 4.9472656,10.277344 5.3877468,11.158306 6.1669731,12.001953 8,12.001953 c 1.8330269,0 2.612253,-0.843647 3.052734,-1.724609 0.0788,-0.175363 0.251167,-0.2900189 0.44336,-0.2949221 0.38551,-0.00977 0.636524,0.4020651 0.451172,0.7402341 C 11.59143,11.434327 10.964021,12.159732 10,12.595703 V 14 c 0,0.265502 -0.055216,0.517565 -0.1503906,0.75 C 12.89075,13.916829 14.999451,11.153206 15,8 15,4.1340068 11.865993,1 8,1 Z" />
  <path
     id="path4"
     d="M 8 0 C 2.812 -0.197 -1.3585781 5.4702813 0.35742188 10.363281 C 1.2710255 13.712924 4.5759994 15.899579 7.9179688 15.992188 C 7.9456979 15.993344 7.9720015 16 8 16 C 8.0206688 16 8.0400232 15.994773 8.0605469 15.994141 C 9.3644389 16.006803 10.668985 15.70842 11.833984 15.019531 C 15.090984 13.297531 16.806578 9.1577187 15.642578 5.6367188 C 14.669578 2.3437187 11.43 -0.047 8 0 z M 8 1 C 12.618 0.823 16.283141 5.9565781 14.619141 10.267578 C 13.922703 12.462766 12.029984 14.127182 9.8515625 14.744141 C 9.9452672 14.513258 10 14.263332 10 14 L 10 12.595703 C 10.964021 12.159732 11.59143 11.434327 11.947266 10.722656 A 0.50004994 0.50004994 0 0 0 11.496094 9.9824219 A 0.50004994 0.50004994 0 0 0 11.052734 10.277344 C 10.612253 11.158306 9.8330269 12.001953 8 12.001953 C 6.1669731 12.001953 5.3877468 11.158306 4.9472656 10.277344 A 0.50004994 0.50004994 0 0 0 4.5078125 9.9941406 A 0.50004994 0.50004994 0 0 0 4.0527344 10.722656 C 4.4085695 11.434327 5.0359787 12.159732 6 12.595703 L 6 14 C 6 14.267017 6.0561365 14.520391 6.1523438 14.753906 C 2.9642011 13.913104 0.63631844 10.607851 1.0351562 7.3007812 C 1.3201562 3.8097812 4.497 0.935 8 1 z M 5 4 C 4.446 4 4 4.446 4 5 L 4 7 C 4 7.554 4.446 8 5 8 C 5.554 8 6 7.554 6 7 L 6 5 C 6 4.446 5.554 4 5 4 z M 11 5 C 9.6666668 5 9.0527344 6.2773436 9.0527344 6.2773438 A 0.50005 0.50005 0 1 0 9.9472656 6.7226562 C 9.9472656 6.7226562 10.333333 6 11 6 C 11.666667 6 12.052734 6.7226564 12.052734 6.7226562 A 0.50005 0.50005 0 1 0 12.947266 6.2773438 C 12.947266 6.2773438 12.333333 5 11 5 z M 7 12.900391 C 7.3106246 12.959594 7.6378512 13.001953 8 13.001953 C 8.3621488 13.001953 8.6893754 12.959594 9 12.900391 L 9 14 C 9 14.562649 8.5626486 15 8 15 C 7.4373514 15 7 14.562649 7 14 L 7 12.900391 z " />
  <path
     id="rect815"
     d="M 7 12.900391 L 7 14 C 7 14.562649 7.4373514 15 8 15 C 8.5626486 15 9 14.562649 9 14 L 9 12.900391 C 8.6893754 12.959594 8.3621488 13.001953 8 13.001953 C 7.6378512 13.001953 7.3106246 12.959594 7 12.900391 z "
     style="opacity:0.4;fill:#000000;fill-opacity:1.0;stroke:none;stroke-width:1;stroke-linecap:round;stroke-linejoin:round;stroke-miterlimit:4;stroke-dasharray:none;stroke-dashoffset:0.5;stroke-opacity:1" />
</svg>
