<svg xmlns="http://www.w3.org/2000/svg" viewBox="0 0 16 16" fill="currentColor" height="16px" width="16px">
    <path d="M9 1C7.39 1 7.014 2.565 5.932 4H5a2.993 2.993 0 00-2.037 5.193A2.986 2.986 0 001 12c0 1.662 1.338 3 3 3h8c1.662 0 3-1.338 3-3a2.986 2.986 0 00-1.963-2.807A2.993 2.993 0 0011 4H9.75L9 3V1zm-5 9h8v1H4v-1z" opacity=".4"/>
    <path d="M9.5 0C8.298 0 7.397.73 6.607 1.564c-.432.458-.852.956-1.289 1.436H5C2.784 3 1 4.784 1 7a4 4 0 00.396 1.715A3.48 3.48 0 000 11.5v1C0 14.439 1.561 16 3.5 16h9c1.939 0 3.5-1.561 3.5-3.5v-1a3.48 3.48 0 00-1.396-2.785A3.98 3.98 0 0015 7c0-2.216-1.784-4-4-4h-.293L10 2.293V.5a.5.5 0 00-.5-.5zM9 1v2l.75 1H11a2.993 2.993 0 012.037 5.193A2.986 2.986 0 0115 12c0 1.662-1.338 3-3 3H4c-1.662 0-3-1.338-3-3 0-1.295.817-2.385 1.963-2.807A2.993 2.993 0 015 4h.932C7.014 2.565 7.39 1 9 1zM5 5c-.554 0-1 .446-1 1v2c0 .554.446 1 1 1s1-.446 1-1V6c0-.554-.446-1-1-1zm0 4H3.5a.5.5 0 00-.5.5c0 .583.132 1.67.844 2.666C4.555 13.162 5.875 14 8 14c2.125 0 3.445-.838 4.156-1.834.712-.996.844-2.083.844-2.666a.5.5 0 00-.5-.5H5zm6 0c.554 0 1-.446 1-1V6c0-.554-.446-1-1-1s-1 .446-1 1v2c0 .554.446 1 1 1zm-6.842 1h7.684c-.057.47-.067.5-.201 1H4.359c-.134-.5-.144-.53-.2-1z"/>
</svg>
