<svg xmlns="http://www.w3.org/2000/svg" viewBox="0 0 16 16" fill="currentColor" height="16px" width="16px">
    <path d="M15 8a7 7 0 01-7 7 7 7 0 01-7-7 7 7 0 017-7 7 7 0 017 7z" opacity=".2"/>
    <path d="M8 0C2.812-.197-1.359 5.47.357 10.363 1.64 15.067 7.64 17.5 11.834 15.02c3.257-1.722 4.973-5.862 3.809-9.383C14.67 2.344 11.43-.047 8 0zm0 1c4.618-.177 8.283 4.957 6.62 9.268-1.014 3.193-4.56 5.263-7.83 4.62-3.51-.54-6.18-4.063-5.755-7.587C1.32 3.81 4.497.935 8 1zM5 4c-.554 0-1 .446-1 1v2c0 .554.446 1 1 1s1-.446 1-1V5c0-.554-.446-1-1-1zm6 0c-.554 0-1 .446-1 1v2c0 .554.446 1 1 1s1-.446 1-1V5c0-.554-.446-1-1-1zm-6.5 6a.5.5 0 00-.5.5.5.5 0 00.5.5h7a.5.5 0 00.5-.5.5.5 0 00-.5-.5h-7zM11.5 10.5h-7"/>
</svg>
