<?xml version="1.0" encoding="UTF-8" standalone="no"?>
<svg
   xmlns:dc="http://purl.org/dc/elements/1.1/"
   xmlns:cc="http://creativecommons.org/ns#"
   xmlns:rdf="http://www.w3.org/1999/02/22-rdf-syntax-ns#"
   xmlns:svg="http://www.w3.org/2000/svg"
   xmlns="http://www.w3.org/2000/svg"
   id="svg6"
   version="1.1"
   viewBox="0 0 16 16">
  <metadata
     id="metadata12">
    <rdf:RDF>
      <cc:Work
         rdf:about="">
        <dc:format>image/svg+xml</dc:format>
        <dc:type
           rdf:resource="http://purl.org/dc/dcmitype/StillImage" />
        <dc:title />
      </cc:Work>
    </rdf:RDF>
  </metadata>
  <defs
     id="defs10" />
  <path
     id="path2"
     d="M 8 1 A 7 7 0 0 0 1 8 A 7 7 0 0 0 8 15 A 7 7 0 0 0 15 8 A 7 7 0 0 0 8 1 z M 3 7 A 1 1 0 0 1 4 8 A 1 1 0 0 1 3 9 A 1 1 0 0 1 2 8 A 1 1 0 0 1 3 7 z M 13 7 A 1 1 0 0 1 14 8 A 1 1 0 0 1 13 9 A 1 1 0 0 1 12 8 A 1 1 0 0 1 13 7 z M 4.1582031 10 L 11.841797 10 C 11.805075 10.305673 11.767817 10.644183 11.640625 11 L 4.359375 11 C 4.2321841 10.644183 4.1949268 10.305673 4.1582031 10 z "
     style="opacity:0.2" />
  <path
     id="path4"
     d="M 8 0 C 2.812 -0.197 -1.3585781 5.4702813 0.35742188 10.363281 C 1.6404219 15.067281 7.6399844 17.499531 11.833984 15.019531 C 15.090984 13.297531 16.806578 9.1577187 15.642578 5.6367188 C 14.669578 2.3437187 11.43 -0.047 8 0 z M 8 1 C 12.618 0.823 16.283141 5.9565781 14.619141 10.267578 C 13.606141 13.460578 10.059062 15.530672 6.7890625 14.888672 C 3.2800625 14.348672 0.61015625 10.824781 1.0351562 7.3007812 C 1.3201562 3.8097812 4.497 0.935 8 1 z M 5 5 C 4.0473881 5 3.4773404 5.6432668 3.2207031 6.015625 A 2 2 0 0 0 3 6 A 2 2 0 0 0 1 8 A 2 2 0 0 0 3 10 A 2 2 0 0 0 3.0292969 9.9980469 C 3.0965442 10.59952 3.3015639 11.406955 3.84375 12.166016 C 4.5551503 13.161976 5.875 14 8 14 C 10.125 14 11.44485 13.161976 12.15625 12.166016 C 12.698436 11.406955 12.903456 10.59952 12.970703 9.9980469 A 2 2 0 0 0 13 10 A 2 2 0 0 0 15 8 A 2 2 0 0 0 13 6 A 2 2 0 0 0 12.777344 6.0136719 C 12.519983 5.6409804 11.950889 5 11 5 C 9.6666667 5 9.0527344 6.2773436 9.0527344 6.2773438 A 0.50005 0.50005 0 1 0 9.9472656 6.7226562 C 9.9472656 6.7226562 10.333333 6 11 6 C 11.369064 6 11.625507 6.2026594 11.804688 6.4003906 A 2 2 0 0 0 11 8 A 2 2 0 0 0 11.269531 9 L 4.7285156 9 A 2 2 0 0 0 5 8 A 2 2 0 0 0 4.1953125 6.3984375 C 4.3746355 6.2014933 4.6328503 6 5 6 C 5.6666667 6 6.0527344 6.7226564 6.0527344 6.7226562 A 0.50005 0.50005 0 1 0 6.9472656 6.2773438 C 6.9472656 6.2773438 6.3333333 5 5 5 z M 3 7 A 1 1 0 0 1 4 8 A 1 1 0 0 1 3 9 A 1 1 0 0 1 2 8 A 1 1 0 0 1 3 7 z M 13 7 A 1 1 0 0 1 14 8 A 1 1 0 0 1 13 9 A 1 1 0 0 1 12 8 A 1 1 0 0 1 13 7 z M 4.1582031 10 L 11.841797 10 C 11.785427 10.469227 11.774597 10.5 11.640625 11 L 4.359375 11 C 4.2254004 10.5 4.2145763 10.469227 4.1582031 10 z " />
</svg>
