<svg xmlns="http://www.w3.org/2000/svg" viewBox="0 0 16 16" fill="currentColor" height="16px" width="16px">
    <path d="M8 1a7 7 0 00-5.742 3H5c.554 0 1 .446 1 1v2c0 1-1.5 2-3 2-1.296 0-1.845-.747-1.97-1.596A7 7 0 001 8a7 7 0 007 7 7 7 0 007-7 7 7 0 00-.03-.598C14.847 8.252 14.298 9 13 9c-1.5 0-3-1-3-2V5c0-.554.446-1 1-1h2.734A7 7 0 008 1z" opacity=".2"/>
    <path d="M8 0C5.52-.094 3.28 1.16 1.797 3.021A1.987 1.987 0 000 5v2c0 .083.01.18.018.275a7.047 7.047 0 00.34 3.088C1.64 15.067 7.64 17.5 11.833 15.02c2.74-1.449 4.38-4.608 4.143-7.67.012-.124.023-.245.023-.35V5a1.989 1.989 0 00-1.74-1.975C12.759 1.16 10.429-.033 8 0zm0 1c1.87-.072 3.575.737 4.842 2H11c-1.108 0-2 .892-2 2H7c0-1.108-.892-2-2-2H3.14C4.428 1.751 6.164.966 8 1zM2 4h3c.554 0 1 .446 1 1v2c0 1-1.5 2-3 2-1.298 0-1.847-.75-1.97-1.6v-.004A2.813 2.813 0 011 7V5c0-.554.446-1 1-1zm9 0h3c.554 0 1 .446 1 1v2c0 .12-.008.24-.023.357v.016C14.86 8.234 14.312 9 13 9c-1.5 0-3-1-3-2V5c0-.554.446-1 1-1zM7 6h2v1c0 1.5 1.5 3 4 3 .829 0 1.421-.23 1.865-.56-.062.278-.14.554-.246.828-1.013 3.194-4.56 5.263-7.83 4.62-2.785-.428-5.034-2.738-5.633-5.435C1.598 9.775 2.184 10 3 10c2.5 0 4-1.5 4-3V6zm4.537 5.01a.47.47 0 00-.494.281c-.441.881-1.151.715-2.984.715s-2.66.172-3.1-.71a.47.47 0 00-.494-.28c-.31.038-.592.354-.4.728.558 1.12 1.827 1.262 3.994 1.262 2.167 0 3.319-.149 3.879-1.268.19-.374-.09-.69-.4-.728z"/>
    <path d="M1 7c0 1 .5 2 2 2s3-1 3-2V5c0-.554-.446-1-1-1zm10-3c-.554 0-1 .446-1 1v2c0 1 1.5 2 3 2s2-1 2-2V5c0-.554-.446-1-1-1z" opacity=".5"/>
    <path d="M2 4h3C3.67 5 2 6.257 1 7V5c0-.554.446-1 1-1z" opacity=".1"/>
</svg>
