<svg xmlns="http://www.w3.org/2000/svg" viewBox="0 0 16 16" fill="currentColor" height="16px" width="16px">
    <path d="M8 1a7 7 0 00-7 7 7 7 0 007 7 7 7 0 007-7 7 7 0 00-7-7zm4.5 8c.277 0 .5.223.5.5v.5h.5a.499.499 0 110 1H12V9.5c0-.277.223-.5.5-.5z" opacity=".2"/>
    <path d="M8 0C2.812-.197-1.359 5.47.357 10.363 1.64 15.067 7.64 17.5 11.834 15.02c3.257-1.722 4.973-5.862 3.809-9.383C14.67 2.344 11.43-.047 8 0zm0 1c4.435-.17 7.976 4.556 6.777 8.75a1.49 1.49 0 00-.847-.68A1.497 1.497 0 0011 9.5V12h2.752c-1.526 2.166-4.333 3.405-6.963 2.889C3.28 14.349.61 10.825 1.035 7.3 1.32 3.81 4.497.935 8 1zM5.01 4.98c-1.334 0-1.947 1.278-1.947 1.278a.5.5 0 10.894.445s.386-.723 1.053-.723c.666 0 1.053.723 1.053.723a.5.5 0 10.894-.445S6.343 4.98 5.01 4.98zm6 0c-1.334 0-1.947 1.278-1.947 1.278a.5.5 0 10.894.445s.386-.723 1.053-.723c.666 0 1.053.723 1.053.723a.5.5 0 10.894-.445S12.343 4.98 11.01 4.98zM8.115 7.92c-.42.01-.736.096-.736.096a.5.5 0 10.242.968s.439-.098.816-.05c.19.023.34.083.42.154.081.07.143.148.143.412s-.062.341-.143.412c-.037.033-.13.045-.193.07-.034-.005-.069-.036-.101-.04-.623-.078-1.184.074-1.184.074a.5.5 0 000 .968s.561.152 1.184.075c.032-.005.067-.036.101-.041.064.025.156.037.193.07.081.07.143.148.143.412s-.062.341-.143.412c-.08.07-.23.13-.42.154-.377.048-.816-.05-.816-.05a.5.5 0 10-.242.968s.561.152 1.184.075c.31-.04.66-.136.955-.393.294-.257.482-.68.482-1.166 0-.417-.189-.74-.414-1 .225-.26.414-.583.414-1 0-.486-.188-.909-.482-1.166-.294-.257-.644-.354-.956-.393a3.041 3.041 0 00-.447-.021zM12.5 9c.277 0 .5.223.5.5v.5h.5a.499.499 0 110 1H12V9.5c0-.277.223-.5.5-.5z"/>
</svg>
