<?xml version="1.0" encoding="UTF-8" standalone="no"?>
<svg
   xmlns:dc="http://purl.org/dc/elements/1.1/"
   xmlns:cc="http://creativecommons.org/ns#"
   xmlns:rdf="http://www.w3.org/1999/02/22-rdf-syntax-ns#"
   xmlns:svg="http://www.w3.org/2000/svg"
   xmlns="http://www.w3.org/2000/svg"
   id="svg6"
   version="1.1"
   viewBox="0 0 16 16">
  <metadata
     id="metadata12">
    <rdf:RDF>
      <cc:Work
         rdf:about="">
        <dc:format>image/svg+xml</dc:format>
        <dc:type
           rdf:resource="http://purl.org/dc/dcmitype/StillImage" />
        <dc:title />
      </cc:Work>
    </rdf:RDF>
  </metadata>
  <defs
     id="defs10" />
  <path
     id="path2"
     d="M 8 1 C 4.1340068 1 1 4.1340068 1 8 C 1 9.3149786 1.3693467 10.540718 2 11.591797 L 2 11 L 2 8 C 2 7.8621659 2.0281152 7.7305863 2.078125 7.6113281 C 2.0783383 7.6108238 2.0779109 7.6098789 2.078125 7.609375 C 2.2295313 7.2502187 2.5845 7 3 7 C 3.1380712 7 3.2690335 7.0275222 3.3886719 7.078125 C 3.389248 7.0783666 3.3900494 7.0778824 3.390625 7.078125 C 3.748735 7.230291 4 7.5863685 4 8 L 4 11 L 4 13.740234 C 5.1343032 14.532164 6.5116658 15 8 15 C 9.4883341 15 10.865697 14.532164 12 13.740234 L 12 8 C 12 7.446 12.367102 7 12.824219 7 L 13 7 L 13.175781 7 C 13.632898 7 14 7.446 14 8 L 14 11 L 14 11.591797 C 14.630653 10.540718 15 9.3149786 15 8 C 15 4.1340068 11.865993 1 8 1 z "
     style="opacity:0.2" />
  <path
     id="path4"
     d="M 8 0 C 2.812 -0.197 -1.3585781 5.4702822 0.35742188 10.363281 C 0.50732751 10.912896 0.72937102 11.425071 1 11.90625 L 1 12.371094 C 0.43161659 12.722584 0 13.284045 0 14 C 0 15.099351 0.90064862 16 2 16 L 3 16 C 3.1402456 16 3.2749079 15.98493 3.4023438 15.958984 C 3.8910275 15.859492 4.3097483 15.578496 4.5976562 15.193359 C 6.7337283 16.195476 9.275285 16.306339 11.427734 15.21875 C 11.794593 15.69003 12.360562 16 13 16 L 14 16 C 15.099351 16 16 15.099351 16 14 C 16 13.284045 15.568384 12.722584 15 12.371094 L 15 11.792969 C 16.006502 9.9262958 16.318792 7.6822052 15.642578 5.6367188 C 14.669578 2.3437187 11.43 -0.047 8 0 z M 8 1 C 12.044848 0.84496794 15.357874 4.7646751 15 8.6367188 L 15 8 A 2 2 0 0 0 14.958984 7.5976562 A 2 2 0 0 0 13.783203 6.1621094 A 2 2 0 0 0 13.767578 6.15625 A 2 2 0 0 0 13.423828 6.046875 C 13.410813 6.0440354 13.397872 6.041645 13.384766 6.0390625 A 2 2 0 0 0 13 6 A 2 2 0 0 0 12.777344 6.0136719 C 12.519983 5.6409804 11.950889 5 11 5 C 9.6666667 5 9.0527344 6.2773436 9.0527344 6.2773438 A 0.50005 0.50005 0 1 0 9.9472656 6.7226562 C 9.9472656 6.7226562 10.333333 6 11 6 C 11.369064 6 11.625507 6.2026594 11.804688 6.4003906 A 2 2 0 0 0 11.603516 6.5761719 C 11.59357 6.5859279 11.583961 6.59551 11.574219 6.6054688 A 2 2 0 0 0 11.355469 6.8691406 C 11.347137 6.8811887 11.340104 6.8940146 11.332031 6.90625 A 2 2 0 0 0 11.164062 7.2148438 C 11.160111 7.2239922 11.156161 7.2329702 11.152344 7.2421875 A 2 2 0 0 0 11.046875 7.578125 C 11.042953 7.5961853 11.040536 7.6145787 11.037109 7.6328125 A 2 2 0 0 0 11 8 L 11 9.3808594 C 10.26676 8.5416438 9.2019581 8 8 8 C 6.7980419 8 5.7332403 8.5416438 5 9.3808594 L 5 8.0488281 A 2 2 0 0 0 5 8 A 2 2 0 0 0 4.9609375 7.6132812 A 2 2 0 0 0 4.9589844 7.6035156 C 4.9569355 7.5934321 4.9533733 7.584248 4.9511719 7.5742188 A 2 2 0 0 0 4.4121094 6.5878906 A 2 2 0 0 0 4.1953125 6.3984375 C 4.3746355 6.2014933 4.6328503 6 5 6 C 5.6666667 6 6.0527344 6.7226564 6.0527344 6.7226562 A 0.50005 0.50005 0 1 0 6.9472656 6.2773438 C 6.9472656 6.2773438 6.3333333 5 5 5 C 4.0473881 5 3.4773404 5.6432668 3.2207031 6.015625 A 2 2 0 0 0 3 6 A 2 2 0 0 0 2.5976562 6.0410156 A 2 2 0 0 0 1.1621094 7.2167969 C 1.1598975 7.2219369 1.1584198 7.2272601 1.15625 7.2324219 A 2 2 0 0 0 1.046875 7.5761719 C 1.0440354 7.589187 1.041645 7.6021284 1.0390625 7.6152344 A 2 2 0 0 0 1 8 L 1 8.28125 C 0.98745117 7.9562025 0.99564089 7.6284335 1.0351562 7.3007812 C 1.3201562 3.8097812 4.497 0.935 8 1 z M 3 7 C 3.1302035 7 3.2523177 7.0273381 3.3652344 7.0703125 A 1 1 0 0 1 3.3867188 7.078125 C 3.387872 7.0786061 3.3894739 7.0776397 3.390625 7.078125 A 1 1 0 0 1 3.3964844 7.0820312 A 1 1 0 0 1 3.421875 7.0957031 C 3.5184624 7.1397247 3.6053859 7.1985986 3.6816406 7.2695312 A 1 1 0 0 1 3.7050781 7.2910156 A 1 1 0 0 1 3.7089844 7.2949219 A 1 1 0 0 1 3.7324219 7.3222656 C 3.8010617 7.3967166 3.859144 7.4805465 3.9023438 7.5742188 A 1 1 0 0 1 3.9140625 7.5976562 C 3.9172851 7.6050026 3.920778 7.6117021 3.9238281 7.6191406 A 1 1 0 0 1 3.9296875 7.6347656 C 3.9726619 7.7476823 4 7.8697965 4 8 L 4 9.7265625 L 4 12 L 4 13.728516 L 4 14 C 4 14.129972 3.9724008 14.251178 3.9296875 14.365234 C 3.8943434 14.456642 3.8461484 14.539864 3.7871094 14.615234 C 3.7815434 14.62234 3.7791925 14.631728 3.7734375 14.638672 C 3.7729094 14.639396 3.7720139 14.639902 3.7714844 14.640625 C 3.6294735 14.810991 3.430544 14.932214 3.203125 14.978516 C 3.1349163 14.992402 3.0675044 15 3 15 L 2 15 C 1.4373514 15 1 14.562649 1 14 C 1 13.558769 1.2760075 13.200566 1.6660156 13.0625 A 0.50005 0.50005 0 0 0 1.8515625 12.945312 C 1.9002538 12.928426 1.9469049 12.906498 2 12.900391 L 2 12.607422 A 0.50005 0.50005 0 0 0 2 12.591797 L 2 11.558594 L 2 9.7285156 L 2 8 C 2 7.8697965 2.0273381 7.7476823 2.0703125 7.6347656 A 1 1 0 0 1 2.078125 7.6132812 C 2.078125 7.6132812 2.078125 7.6113281 2.078125 7.6113281 A 1 1 0 0 1 2.078125 7.609375 C 2.0790542 7.6071707 2.0810868 7.6057117 2.0820312 7.6035156 A 1 1 0 0 1 2.0957031 7.578125 C 2.1397247 7.4815376 2.1985986 7.3946141 2.2695312 7.3183594 A 1 1 0 0 1 2.2910156 7.2949219 A 1 1 0 0 1 2.2929688 7.2929688 C 2.2929688 7.2929688 2.2949219 7.2910156 2.2949219 7.2910156 A 1 1 0 0 1 2.3222656 7.2675781 C 2.3967166 7.1989383 2.4805465 7.140856 2.5742188 7.0976562 A 1 1 0 0 1 2.5976562 7.0859375 C 2.6050027 7.0827149 2.6117021 7.079222 2.6191406 7.0761719 A 1 1 0 0 1 2.6347656 7.0703125 C 2.7476823 7.0273381 2.8697965 7 3 7 z M 13 7 C 13.404805 7 13.73956 7.2298502 13.898438 7.5664062 C 13.909491 7.5940061 13.922583 7.6195 13.931641 7.6484375 C 13.97162 7.7579167 14 7.8746254 14 8 L 14 9.7304688 L 14 11.613281 L 14 12.591797 L 14 12.886719 C 14.043906 12.889382 14.082415 12.906591 14.123047 12.917969 A 0.50005 0.50005 0 0 0 14.333984 13.0625 C 14.723993 13.200567 15 13.558769 15 14 C 15 14.562649 14.562649 15 14 15 L 13 15 C 12.578013 15 12.225551 14.754904 12.076172 14.394531 C 12.026379 14.274407 12 14.140662 12 14 L 12 13.9375 L 12 13.724609 L 12 12 L 12 9.7285156 L 12 8 C 12 7.8752967 12.028789 7.7593866 12.068359 7.6503906 C 12.077592 7.6206825 12.092193 7.5947106 12.103516 7.5664062 C 12.262594 7.2304033 12.595597 7 13 7 z M 8 9 C 9.3807119 9 11 10.119288 11 11.5 C 11 11.5 9.5 12 8 12 C 6.5 12 5 11.5 5 11.5 C 5 10.119288 6.6192881 9 8 9 z M 5 12.542969 C 5.6301148 12.777721 6.5867586 13 8 13 C 9.4132414 13 10.369885 12.777721 11 12.542969 L 11 14 C 11 14.096742 11.015826 14.190017 11.029297 14.283203 C 9.7214515 14.918885 8.2303557 15.171642 6.7890625 14.888672 C 6.1487679 14.790137 5.5421987 14.581457 4.9726562 14.300781 C 4.9876062 14.202427 5 14.102342 5 14 L 5 12.542969 z " />
  <path
     style="opacity:0.4;fill:#000000;fill-opacity:1;stroke:none;stroke-width:0.55555558;stroke-linecap:round;stroke-linejoin:round;stroke-miterlimit:4;stroke-dasharray:none;stroke-dashoffset:0.5;stroke-opacity:1"
     d="M 11,11.5 C 11,11.5 9.5,12 8,12 6.5,12 5,11.5 5,11.5 5,10.119288 6.6192881,9 8,9 c 1.3807119,0 3,1.119288 3,2.5 z"
     id="path837" />
</svg>
