<?xml version="1.0" encoding="UTF-8" standalone="no"?>
<svg
   xmlns:dc="http://purl.org/dc/elements/1.1/"
   xmlns:cc="http://creativecommons.org/ns#"
   xmlns:rdf="http://www.w3.org/1999/02/22-rdf-syntax-ns#"
   xmlns:svg="http://www.w3.org/2000/svg"
   xmlns="http://www.w3.org/2000/svg"
   id="svg6"
   version="1.1"
   viewBox="0 0 16 16">
  <metadata
     id="metadata12">
    <rdf:RDF>
      <cc:Work
         rdf:about="">
        <dc:format>image/svg+xml</dc:format>
        <dc:type
           rdf:resource="http://purl.org/dc/dcmitype/StillImage" />
        <dc:title />
      </cc:Work>
    </rdf:RDF>
  </metadata>
  <defs
     id="defs10" />
  <path
     id="path2"
     opacity=".2"
     d="M15 8a7 7 0 0 1-7 7 7 7 0 0 1-7-7 7 7 0 0 1 7-7 7 7 0 0 1 7 7z" />
  <path
     id="path4"
     d="M 8 0 C 2.812 -0.197 -1.3585781 5.4702816 0.35742188 10.363281 C 1.6404219 15.067281 7.6399848 17.499531 11.833984 15.019531 C 15.090984 13.297531 16.806578 9.1577187 15.642578 5.6367188 C 14.669578 2.3437187 11.43 -0.047 8 0 z M 8 1 C 12.618 0.823 16.283141 5.9565782 14.619141 10.267578 C 13.606141 13.460578 10.059062 15.530672 6.7890625 14.888672 C 3.2800625 14.348672 0.6101563 10.824781 1.0351562 7.3007812 C 1.3201562 3.8097812 4.497 0.935 8 1 z M 6.4648438 4 L 3 6 C 3.552285 6.9565852 4.7758369 7.2847064 5.7324219 6.7324219 C 6.6890069 6.1801372 7.0171288 4.9565852 6.4648438 4 z M 9.5 4 C 8.9477152 4.9565852 9.2758364 6.1801372 10.232422 6.7324219 C 11.189007 7.2847064 12.412559 6.9565852 12.964844 6 L 9.5 4 z M 4.4824219 7.9960938 A 0.50005 0.50005 0 0 0 4.2773438 8.9472656 C 4.2773438 8.9472656 4.4203209 9.0136826 4.609375 9.25 C 4.7984291 9.4863177 5 9.8611111 5 10.5 C 5 11.138889 4.7984291 11.513682 4.609375 11.75 C 4.4203209 11.986318 4.2773437 12.052734 4.2773438 12.052734 A 0.50005 0.50005 0 1 0 4.7226562 12.947266 C 4.7226562 12.947266 5.0796791 12.763682 5.390625 12.375 C 5.6798708 12.013443 5.948877 11.438354 5.9863281 10.667969 C 6.0206461 10.619449 6.0869162 10.542967 6.2773438 10.416016 C 6.5670051 10.222908 7.0833333 10 8 10 C 8.9166667 10 9.4329949 10.222908 9.7226562 10.416016 C 9.9130843 10.542967 9.979354 10.619449 10.013672 10.667969 C 10.051123 11.438354 10.320129 12.013443 10.609375 12.375 C 10.920321 12.763682 11.277344 12.947266 11.277344 12.947266 A 0.50005 0.50005 0 1 0 11.722656 12.052734 C 11.722656 12.052734 11.579679 11.986314 11.390625 11.75 C 11.201571 11.513682 11 11.138889 11 10.5 C 11 9.8611111 11.201571 9.4863177 11.390625 9.25 C 11.579679 9.0136823 11.722656 8.9472656 11.722656 8.9472656 A 0.50005 0.50005 0 0 0 11.501953 7.9960938 A 0.50005 0.50005 0 0 0 11.277344 8.0527344 C 11.277344 8.0527344 10.920321 8.2363177 10.609375 8.625 C 10.434086 8.8441108 10.268457 9.1462955 10.152344 9.515625 C 9.6881668 9.2384208 8.9986198 9 8 9 C 7.0013802 9 6.3118329 9.2384208 5.8476562 9.515625 C 5.731543 9.1462954 5.5659138 8.844111 5.390625 8.625 C 5.0796791 8.2363177 4.7226564 8.0527344 4.7226562 8.0527344 A 0.50005 0.50005 0 0 0 4.4824219 7.9960938 z " />
</svg>
