<?xml version="1.0" encoding="UTF-8" standalone="no"?>
<svg
   xmlns:dc="http://purl.org/dc/elements/1.1/"
   xmlns:cc="http://creativecommons.org/ns#"
   xmlns:rdf="http://www.w3.org/1999/02/22-rdf-syntax-ns#"
   xmlns:svg="http://www.w3.org/2000/svg"
   xmlns="http://www.w3.org/2000/svg"
   id="svg6"
   version="1.1"
   viewBox="0 0 16 16">
  <metadata
     id="metadata12">
    <rdf:RDF>
      <cc:Work
         rdf:about="">
        <dc:format>image/svg+xml</dc:format>
        <dc:type
           rdf:resource="http://purl.org/dc/dcmitype/StillImage" />
        <dc:title />
      </cc:Work>
    </rdf:RDF>
  </metadata>
  <defs
     id="defs10" />
  <path
     id="path2"
     opacity=".2"
     d="M15 8a7 7 0 0 1-7 7 7 7 0 0 1-7-7 7 7 0 0 1 7-7 7 7 0 0 1 7 7z" />
  <path
     id="path4"
     d="M8 0C2.812-.197-1.359 5.47.357 10.363 1.64 15.067 7.64 17.5 11.834 15.02c3.257-1.722 4.973-5.862 3.809-9.383C14.67 2.344 11.43-.047 8 0zm0 1c4.618-.177 8.284 4.957 6.62 9.268-1.013 3.193-4.56 5.262-7.83 4.62-3.509-.54-6.18-4.063-5.755-7.587C1.32 3.81 4.497.935 8 1z" />
  <rect
     ry="1"
     rx="1"
     y="4"
     x="4"
     height="4"
     width="2"
     id="rect826"
     style="opacity:1;vector-effect:none;fill:#000000;fill-opacity:1;stroke:none;stroke-width:1;stroke-linecap:round;stroke-linejoin:round;stroke-miterlimit:4;stroke-dasharray:none;stroke-dashoffset:0.5;stroke-opacity:1;marker:none" />
  <rect
     ry="1"
     rx="1"
     y="4"
     x="10"
     height="4"
     width="2"
     id="rect828"
     style="opacity:1;vector-effect:none;fill:#000000;fill-opacity:1;stroke:none;stroke-width:1;stroke-linecap:round;stroke-linejoin:round;stroke-miterlimit:4;stroke-dasharray:none;stroke-dashoffset:0.5;stroke-opacity:1;marker:none" />
  <path
     id="path830"
     d="M 11.5,11.5 C 11,10.5 10,9.498161 8,9.498161 6,9.498161 5,10.5 4.5,11.5"
     style="opacity:1;vector-effect:none;fill:none;fill-opacity:1;stroke:#000000;stroke-width:0.99999988;stroke-linecap:round;stroke-linejoin:round;stroke-miterlimit:4;stroke-dasharray:none;stroke-dashoffset:0.5;stroke-opacity:1;marker:none" />
</svg>
