<?xml version="1.0" encoding="UTF-8" standalone="no"?>
<svg
   xmlns:dc="http://purl.org/dc/elements/1.1/"
   xmlns:cc="http://creativecommons.org/ns#"
   xmlns:rdf="http://www.w3.org/1999/02/22-rdf-syntax-ns#"
   xmlns:svg="http://www.w3.org/2000/svg"
   xmlns="http://www.w3.org/2000/svg"
   id="svg6"
   version="1.1"
   viewBox="0 0 16 16">
  <metadata
     id="metadata12">
    <rdf:RDF>
      <cc:Work
         rdf:about="">
        <dc:format>image/svg+xml</dc:format>
        <dc:type
           rdf:resource="http://purl.org/dc/dcmitype/StillImage" />
        <dc:title />
      </cc:Work>
    </rdf:RDF>
  </metadata>
  <defs
     id="defs10" />
  <path
     style="opacity:0.2"
     id="path2"
     d="M 8 1 A 7 7 0 0 0 1 8 A 7 7 0 0 0 8 15 A 7 7 0 0 0 15 8 A 7 7 0 0 0 8 1 z M 12 7 A 1 1 0 0 1 13 8 A 1 1 0 0 1 12 9 A 1 1 0 0 1 11 8 A 1 1 0 0 1 12 7 z " />
  <path
     id="path4"
     d="M 8 0 C 2.812 -0.197 -1.3585781 5.4702813 0.35742188 10.363281 C 1.6404219 15.067281 7.6399844 17.499531 11.833984 15.019531 C 15.090984 13.297531 16.806578 9.1577187 15.642578 5.6367188 C 14.669578 2.3437187 11.43 -0.047 8 0 z M 8 1 C 12.618 0.823 16.283141 5.9565781 14.619141 10.267578 C 13.606141 13.460578 10.059062 15.530672 6.7890625 14.888672 C 3.2800625 14.348672 0.61015625 10.824781 1.0351562 7.3007812 C 1.3201562 3.8097812 4.497 0.935 8 1 z M 5 4 C 4.446 4 4 4.446 4 5 L 4 7 C 4 7.554 4.446 8 5 8 C 5.554 8 6 7.554 6 7 L 6 5 C 6 4.446 5.554 4 5 4 z M 11 4 C 10.446 4 10 4.446 10 5 L 10 7 C 10 7.1471328 10.035212 7.2845906 10.091797 7.4101562 A 2 2 0 0 0 10 8 A 2 2 0 0 0 12 10 A 2 2 0 0 0 14 8 A 2 2 0 0 0 12 6 L 12 5 C 12 4.446 11.554 4 11 4 z M 12 7 A 1 1 0 0 1 13 8 A 1 1 0 0 1 12 9 A 1 1 0 0 1 11 8 A 1 1 0 0 1 12 7 z M 8 8.9980469 C 5.8330269 8.9980469 4.6122532 10.158306 4.0527344 11.277344 A 0.50004994 0.50004994 0 1 0 4.9472656 11.722656 C 5.3877468 10.841694 6.1669731 9.9980469 8 9.9980469 C 9.8330269 9.9980469 10.612253 10.841694 11.052734 11.722656 A 0.50004994 0.50004994 0 1 0 11.947266 11.277344 C 11.387747 10.158306 10.166973 8.9980469 8 8.9980469 z " />
</svg>
