<svg xmlns="http://www.w3.org/2000/svg" viewBox="0 0 16 16" fill="currentColor" height="16px" width="16px">
    <path d="M15 8a7 7 0 01-7 7 7 7 0 01-7-7 7 7 0 017-7 7 7 0 017 7z" opacity=".2"/>
    <path d="M8 0C2.812-.197-1.359 5.47.357 10.363 1.64 15.067 7.64 17.5 11.834 15.02c3.257-1.722 4.973-5.862 3.809-9.383C14.67 2.344 11.43-.047 8 0zm0 1c4.618-.177 8.283 4.957 6.62 9.268-1.014 3.193-4.56 5.263-7.83 4.62-3.51-.54-6.18-4.063-5.755-7.587C1.32 3.81 4.497.935 8 1zM6.465 4L3 6a2 2 0 003.465-2zM9.5 4a2 2 0 003.465 2L9.5 4zM4.482 7.996a.5.5 0 00-.205.951s.143.067.332.303c.19.236.391.611.391 1.25s-.202 1.014-.39 1.25c-.19.236-.333.303-.333.303a.5.5 0 10.446.894s.357-.183.668-.572c.289-.362.558-.937.595-1.707.035-.049.1-.125.291-.252C6.567 10.223 7.083 10 8 10s1.433.223 1.723.416c.19.127.256.203.29.252.038.77.307 1.345.596 1.707.311.389.668.572.668.572a.5.5 0 10.446-.894s-.143-.067-.332-.303c-.19-.236-.391-.611-.391-1.25s.202-1.014.39-1.25c.19-.236.333-.303.333-.303a.5.5 0 00-.221-.95.5.5 0 00-.225.056s-.357.183-.668.572a2.76 2.76 0 00-.457.89C9.688 9.239 9 9 8 9c-.999 0-1.688.238-2.152.516a2.76 2.76 0 00-.457-.891 2.319 2.319 0 00-.668-.572.5.5 0 00-.24-.057z"/>
</svg>
