<svg xmlns="http://www.w3.org/2000/svg" viewBox="0 0 16 16" fill="currentColor" height="16px" width="16px">
    <path d="M15 8.001a7 7 0 00-7-7 7 7 0 00-7 7 7 7 0 007 7 7 7 0 007-7z" opacity=".2"/>
    <path d="M8.451.002C4.934-.14 1.32 2.111.357 5.639-1.359 10.532 2.812 16.199 8 16.002c3.43.047 6.67-2.344 7.643-5.637 1.164-3.52-.552-7.663-3.809-9.385A7.179 7.179 0 008.451.002zm-.428.994c2.884.01 5.71 1.945 6.596 4.738 1.664 4.311-2.001 9.445-6.619 9.268-3.503.065-6.68-2.81-6.965-6.3C.61 5.176 3.28 1.652 6.79 1.112A6.3 6.3 0 018.023.996zM8 3C5.833 3 4.612 4.158 4.053 5.277a.5.5 0 10.894.448C5.387 4.844 6.167 4 8 4s2.612.844 3.053 1.725a.5.5 0 10.894-.448C11.387 4.158 10.167 3 8 3zM5 8.002c-.554 0-1 .446-1 1v2c0 .554.446 1 1 1s1-.446 1-1v-2c0-.554-.446-1-1-1zm6 0c-.554 0-1 .446-1 1v2c0 .554.446 1 1 1s1-.446 1-1v-2c0-.554-.446-1-1-1z"/>
</svg>
