<svg xmlns="http://www.w3.org/2000/svg" viewBox="0 0 16 16" fill="currentColor" height="16px" width="16px">
    <path style="line-height:normal;font-variant-ligatures:normal;font-variant-position:normal;font-variant-caps:normal;font-variant-numeric:normal;font-variant-alternates:normal;font-feature-settings:normal;text-indent:0;text-align:start;text-decoration-line:none;text-decoration-style:solid;text-decoration-color:#000;text-transform:none;text-orientation:mixed;white-space:normal;shape-padding:0;isolation:auto;mix-blend-mode:normal;solid-color:#000;solid-opacity:1" d="M1.68 3.027l-.473.473 2.799 2.799L4 6.3l1.703 1.703 4.018-4.018c-2.475-.241-5.313-.525-8.041-.959zm10.338 3.248l-4.022 4.022L9.7 12l.002-.006 2.799 2.799.473-.473c-.317-2.535-.746-5.623-.955-8.045zM1 11v.295l.71.705.997-1H1.293zm4 2.281l-1 1.037.707.682H5v-.293z" color="#000" font-family="sans-serif" font-weight="400" opacity=".4" overflow="visible"/>
    <path style="line-height:normal;font-variant-ligatures:normal;font-variant-position:normal;font-variant-caps:normal;font-variant-numeric:normal;font-variant-alternates:normal;font-feature-settings:normal;text-indent:0;text-align:start;text-decoration-line:none;text-decoration-style:solid;text-decoration-color:#000;text-transform:none;text-orientation:mixed;white-space:normal;shape-padding:0;isolation:auto;mix-blend-mode:normal;solid-color:#000;solid-opacity:1" d="M12.709 1l-.209.207-.5.5-.793.793.006.006-.707.707-.006-.006-.646.647-.133.132-4.018 4.018-.35.35a.502.502 0 01-.025.023L3.707 10l-.5.5-.5.5-.996 1L1 11.295l3.012 3.01L5 13.28l.494-.494.006.006.5-.5 1.646-1.647.35-.35 4.022-4.02.128-.13a.42.42 0 01.012-.011l.635-.635.5-.5h-.012l1-1h.012l.5-.5.207-.193V1h-2.291z" color="#000" font-family="sans-serif" font-weight="400" opacity=".2" overflow="visible"/>
    <path style="line-height:normal;font-variant-ligatures:normal;font-variant-position:normal;font-variant-caps:normal;font-variant-numeric:normal;font-variant-alternates:normal;font-feature-settings:normal;text-indent:0;text-align:start;text-decoration-line:none;text-decoration-style:solid;text-decoration-color:#000;text-transform:none;text-orientation:mixed;white-space:normal;shape-padding:0;isolation:auto;mix-blend-mode:normal;solid-color:#000;solid-opacity:1" d="M12.484 0a.5.5 0 00-.091.012.5.5 0 00-.133.049l-.006.003a.5.5 0 00-.076.053l-.006.006a.513.513 0 00-.026.023L9.32 2.973l-7.758-.97a.5.5 0 00-.416.143l-1 1a.5.5 0 000 .708L4.293 8l-1.998 2H0V11.426a.5.5 0 00.146.428L.295 12 4 15.707l.146.147a.5.5 0 00.446.146H6v-2.293l2-2 4.146 4.147a.5.5 0 00.708 0l1-1a.5.5 0 00.142-.416l-.969-7.758 2.827-2.826A.5.5 0 0016 3.492V0h-3.5a.5.5 0 00-.016 0zm.225 1H15v2.307l-.207.193-.5.5h-.012l-1 1h.012l-.5.5-.635.635a.42.42 0 00-.012.011l-.128.13c.192 2.64.61 5.279.955 8.044l-.473.473-2.799-2.799L9.7 12l-1.703-1.703-.35.35L6 12.292l-.5.5-.006-.006-.494.494V15h-.293L1 11.295V11H2.707l.5-.5.5-.5 1.621-1.623a.502.502 0 00.026-.023l.35-.35L4 6.3l.006-.002L1.207 3.5l.473-.473c2.865.456 5.44.705 8.04.96l.134-.133.646-.647.006.006.707-.707-.006-.006.793-.793.5-.5.209-.207z" color="#000" font-family="sans-serif" font-weight="400" overflow="visible"/>
</svg>
