<svg xmlns="http://www.w3.org/2000/svg" viewBox="0 0 16 16" fill="currentColor" height="16px" width="16px">
    <circle cx="8" cy="9" r="6" opacity=".2"/>
    <path d="M3.98-.01a1 1 0 00-.687.303l-2 2a1 1 0 101.414 1.414l2-2A1 1 0 003.98-.01zm8.01 0a1 1 0 00-.697 1.717l2 2a1 1 0 101.414-1.414l-2-2a1 1 0 00-.717-.303zM8 2a7 7 0 00-7 7 7 7 0 001.984 4.873l-.9 1.35a.5.5 0 10.832.554l.82-1.232A7 7 0 008 16a7 7 0 004.262-1.457l.822 1.234a.5.5 0 10.832-.554l-.896-1.344A7 7 0 0015 9a7 7 0 00-7-7zm0 1a6 6 0 016 6 6 6 0 01-6 6 6 6 0 01-6-6 6 6 0 016-6zm2.5 3a.5.5 0 00-.383.176L7.771 9H5.5c-.676-.01-.676 1.01 0 1h2.48a.494.494 0 00.124-.01.5.5 0 00.32-.215l2.447-2.94A.5.5 0 0010.5 6z"/>
</svg>
