<svg xmlns="http://www.w3.org/2000/svg" viewBox="0 0 4.233 4.233" fill="currentColor" height="16px" width="16px">
    <path d="M.265.529h1.058v.794H.265z" opacity=".4"/>
    <path d="M1.852 1.058v.794h1.323v-.794H1.852zm0 1.588v.794H3.97v-.794H1.852z" opacity=".2"/>
    <path d="M1.323 0v.265H.133A.132.132 0 000 .397v1.058c0 .073.059.132.132.132h1.19v2.646h.53v-.529h2.249a.132.132 0 00.132-.132V2.514a.132.132 0 00-.132-.133H1.852v-.264h1.455a.132.132 0 00.133-.133V.926a.132.132 0 00-.133-.132H1.852V0h-.53zM.265.53h1.058v.793H.265V.529zm1.587.528h1.323v.794H1.852v-.794zm0 1.588H3.97v.794H1.852v-.794z" style="marker:none"/>
</svg>
