<svg xmlns="http://www.w3.org/2000/svg" viewBox="0 0 16 16" fill="currentColor" height="16px" width="16px">
    <path d="M11 2.003h4.006v2.998h-4.007z" opacity=".4"/>
    <path d="M4 4v3h5V4zM1.001 10v3.002h7.994V10z" opacity=".2"/>
    <path d="M11 0v1.002H15.5c.276 0 .499.223.499.499V5.5a.499.499 0 01-.499.499h-4.498V16H9v-2H.499A.499.499 0 010 13.502v-4A.5.5 0 01.499 9h8.505v-.998H3.496a.499.499 0 01-.499-.503V3.5c0-.276.223-.499.5-.499h5.499V0zm4.006 2.003h-4.007v2.998h4.007zM9.004 4H3.999V7h5zm0 6.002H1.002v3.002h7.994z"/>
</svg>
