<svg xmlns="http://www.w3.org/2000/svg" viewBox="0 0 4.233 4.233" fill="currentColor" height="16px" width="16px">
    <path d="M2.91.53H3.97v.793H2.91z" opacity=".4"/>
    <path d="M1.058 1.058v.794h1.323v-.794H1.058zM.265 2.646v.794H2.38v-.794H.265z" opacity=".2"/>
    <path d="M2.91 0v.265h1.191c.073 0 .132.059.132.132v1.058a.132.132 0 01-.132.132h-1.19v2.646h-.53v-.529H.132A.132.132 0 010 3.572V2.514c0-.074.059-.133.132-.133h2.25v-.264H.925a.132.132 0 01-.132-.133V.926c0-.073.059-.132.132-.132h1.455V0zM3.97.53H2.91v.793H3.97zm-1.588.528H1.058v.794h1.323zm0 1.588H.265v.794H2.38z" style="marker:none"/>
</svg>
