<svg xmlns="http://www.w3.org/2000/svg" viewBox="0 0 4.233 4.233" fill="currentColor" height="16px" width="16px">
    <path d="M1.058.794v1.058h2.117V.794H1.058zM.53 2.646v1.058h3.175V2.646H.53z" opacity=".2"/>
    <path style="marker:none" d="M1.852 0v.794h.53V0zM.926.53A.132.132 0 00.794.66v1.323c0 .074.059.133.132.133h.661v-.265h-.529V.794h.53V.529zm1.72 0v.264h.529v1.058h-.53v.265h.662a.132.132 0 00.133-.133V.661A.132.132 0 003.307.53zm-.794.528v1.059h.53V1.058zM.397 2.381a.132.132 0 00-.132.133v1.322c0 .074.059.133.132.133h1.19v-.265H.53V2.646h1.058V2.38zm2.249 0v.265h1.058v1.058H2.646v.265h1.19a.132.132 0 00.133-.133V2.514a.132.132 0 00-.133-.133zm-.794 0V3.44h.53V2.38zm0 1.323v.53h.53v-.53z"/>
</svg>
