<svg xmlns="http://www.w3.org/2000/svg" viewBox="0 0 4.233 4.233" fill="currentColor" height="16px" width="16px">
    <path d="M.53.53v3.174h1.057V.53H.53zm1.851.528v2.117H3.44V1.058H2.38z" opacity=".2"/>
    <path style="marker:none" d="M.397.265a.132.132 0 00-.132.132v1.19h.264V.53h1.058v1.058h.265V.397A.132.132 0 001.72.265zm1.852.529a.132.132 0 00-.132.132v.661h.264v-.529H3.44v.53h.264V.925a.132.132 0 00-.132-.132zM0 1.852v.53h.53v-.53zm.794 0v.53h1.058v-.53zm1.323 0v.53h1.058v-.53zm1.323 0v.53h.793v-.53zm-3.175.794v1.19c0 .074.059.133.132.133H1.72a.132.132 0 00.132-.133v-1.19h-.265v1.058H.53V2.646zm1.852 0v.661c0 .074.059.133.132.133h1.323a.132.132 0 00.132-.133v-.661H3.44v.529H2.38v-.53z"/>
</svg>
