<svg xmlns="http://www.w3.org/2000/svg" viewBox="0 0 4.233 4.233" fill="currentColor" height="16px" width="16px">
    <path d="M2.91.265h.794v1.058H2.91z" opacity=".4"/>
    <path d="M.794 1.852V3.97h.793V1.852H.794zm1.587 0v1.323h.794V1.852h-.794z" opacity=".2"/>
    <path d="M4.233 1.323H3.97V.133A.132.132 0 003.836 0H2.778a.132.132 0 00-.132.132v1.19H0v.53h.53v2.249c0 .073.058.132.131.132H1.72a.132.132 0 00.132-.132V1.852h.265v1.455c0 .074.059.133.132.133h1.058a.132.132 0 00.133-.133V1.852h.793zM3.704.265v1.058H2.91V.265zm-.529 1.587v1.323h-.794V1.852zm-1.587 0V3.97H.794V1.852z" style="marker:none"/>
</svg>
