<svg xmlns="http://www.w3.org/2000/svg" viewBox="0 0 16 16" fill="currentColor" height="16px" width="16px">
    <path d="M3.997 3V7h8V3zM2 10v3.997H14V10z" opacity=".2"/>
    <path d="M7 0v3h2V0zM3.5 2.003a.499.499 0 00-.499.491v5a.5.5 0 00.499.502h2.496V6.995H3.999V3h2V2zm6.498 0V3h2.001V7H9.994V8h2.504a.499.499 0 00.503-.503v-5a.499.499 0 00-.503-.494zM7 3.998V8h2V3.998zm-5.502 5c-.277 0-.5.225-.499.502v4.998a.5.5 0 00.5.503h4.497v-1.002H2v-4H6V8.994zm8.5 0v1.001h4.001v4H9.998v1.002h4.5a.499.499 0 00.503-.503V9.5a.499.499 0 00-.503-.502zM7 8.998V13h2V8.994zm0 5.001V16h2v-2z"/>
</svg>
