<svg xmlns="http://www.w3.org/2000/svg" viewBox="0 0 16 16" fill="currentColor" height="16px" width="16px">
    <path d="M14 2v1H2V2zm0 4v1H6V6zm0 4v1H2v-1zm0 4v1H6v-1z" opacity=".2"/>
    <path d="M14.5 1c.277 0 .5.223.5.5v2c0 .277-.223.5-.5.5h-13a.499.499 0 01-.5-.5v-2c0-.277.223-.5.5-.5zM14 2H2v1h12zm.5 3c.277 0 .5.223.5.5v2c0 .277-.223.5-.5.5h-9a.499.499 0 01-.5-.5v-2c0-.277.223-.5.5-.5zM14 6H6v1h8zm.5 3c.277 0 .5.223.5.5v2c0 .277-.223.5-.5.5h-13a.499.499 0 01-.5-.5v-2c0-.277.223-.5.5-.5zm-.5 1H2v1h12zm.5 3c.277 0 .5.223.5.5v2c0 .277-.223.5-.5.5h-9a.499.499 0 01-.5-.5v-2c0-.277.223-.5.5-.5zm-.5 1H6v1h8z"/>
</svg>
