<svg xmlns="http://www.w3.org/2000/svg" viewBox="0 0 16 16" fill="currentColor" height="16px" width="16px">
    <path d="M2 2v1h12V2H2zm0 4v1h12V6H2zm0 4v1h12v-1H2zm0 4v1h12v-1H2z" opacity=".2"/>
    <path d="M1.5 1c-.277 0-.5.223-.5.5v2c0 .277.223.5.5.5h13c.277 0 .5-.223.5-.5v-2c0-.277-.223-.5-.5-.5h-13zM2 2h12v1H2V2zm-.5 3c-.277 0-.5.223-.5.5v2c0 .277.223.5.5.5h13c.277 0 .5-.223.5-.5v-2c0-.277-.223-.5-.5-.5h-13zM2 6h12v1H2V6zm-.5 3c-.277 0-.5.223-.5.5v2c0 .277.223.5.5.5h13c.277 0 .5-.223.5-.5v-2c0-.277-.223-.5-.5-.5h-13zm.5 1h12v1H2v-1zm-.5 3c-.277 0-.5.223-.5.5v2c0 .277.223.5.5.5h13c.277 0 .5-.223.5-.5v-2c0-.277-.223-.5-.5-.5h-13zm.5 1h12v1H2v-1z"/>
</svg>
