<svg xmlns="http://www.w3.org/2000/svg" viewBox="0 0 16 16">
    <path d="M15 8.001a7 7 0 0 0-7-7 7 7 0 0 0-7 7 7 7 0 0 0 7 7 7 7 0 0 0 7-7z" opacity=".2"/>
    <path d="M8 16.001c-5.188.197-9.359-5.47-7.643-10.363C1.64.934 7.64-1.498 11.834.982c3.257 1.722 4.973 5.861 3.809 9.382-.973 3.293-4.213 5.684-7.643 5.637zm0-1c4.618.177 8.283-4.957 6.62-9.268C13.605 2.54 10.06.47 6.79 1.113 3.28 1.652.61 5.175 1.034 8.7 1.32 12.191 4.497 15.066 8 15.001zm-.02-2a.5.5 0 0 1-.39-.213l-3.498-5a.5.5 0 0 1 .41-.787h2.496v-4H9l-.002 4h2.5a.5.5 0 0 1 .41.787l-3.498 5a.5.5 0 0 1-.43.213z"/>
</svg>
