<svg xmlns="http://www.w3.org/2000/svg" viewBox="0 0 16 16" fill="currentColor" height="16px" width="16px">
    <path d="M2 4c-.554 0-1 .446-1 1v7c0 .554.446 1 1 1h11c.554 0 1-.446 1-1v-2h1V7h-1V5c0-.554-.446-1-1-1H2zm.5 1H5v7H2.5a.499.499 0 01-.5-.5v-6c0-.277.223-.5.5-.5z" opacity=".2"/>
    <path d="M2 3C.892 3 0 3.892 0 5v7c0 1.108.892 2 2 2h11c1.108 0 2-.892 2-2v-1c.545 0 1-.455 1-1V7c0-.545-.455-1-1-1V5c0-1.108-.892-2-2-2H2zm0 1h11c.554 0 1 .446 1 1v2h1v3h-1v2c0 .554-.446 1-1 1H2c-.554 0-1-.446-1-1V5c0-.554.446-1 1-1z"/>
    <path d="M2.5 5c-.277 0-.5.223-.5.5v6c0 .277.223.5.5.5H5V5H2.5z" opacity=".5"/>
</svg>
