<svg xmlns="http://www.w3.org/2000/svg" viewBox="0 0 16 16" fill="currentColor" height="16px" width="16px">
    <path d="M3 16c-.417 0-.849-.163-1.25-.484C1.349 15.195 1 14.666 1 14c0-2.083 3.098-5.555 3.543-7C4.988 5.555 5 5.433 5 3V2c0-1.1.9-2 2-2h2c1.1 0 2 .9 2 2v1c0 2.433.068 2.547.457 4C11.847 8.453 15 11.917 15 14c0 .667-.349 1.195-.75 1.516-.401.32-.833.484-1.25.484zm0-1h10c.083 0 .401-.087.625-.266.224-.179.375-.4.375-.734 0-1.917-3.148-5.393-3.5-6.707C10.148 5.979 10 5.567 10 3V2c0-.563-.437-1-1-1H7c-.563 0-1 .437-1 1v1c0 2.567-.148 2.98-.5 4.293C5.148 8.607 2 12.083 2 14c0 .333.151.555.375.734.224.18.542.266.625.266z"/>
    <path d="M3 15h10c.083 0 .401-.087.625-.266.224-.179.375-.4.375-.734 0-1.917-2-4-2.5-5h-7C4 10 2 12.083 2 14c0 .333.151.555.375.734.224.18.542.266.625.266z" opacity=".2"/>
</svg>
