<svg xmlns="http://www.w3.org/2000/svg" viewBox="0 0 16 16" fill="currentColor" height="16px" width="16px">
    <path d="M3 4v9.5c0 .831.669 1.5 1.5 1.5h6c.831 0 1.5-.669 1.5-1.5V4H3zm2.5 1c.277 0 .5.223.5.5v7a.499.499 0 11-1 0v-7c0-.277.223-.5.5-.5zm2 0c.277 0 .5.223.5.5v7a.499.499 0 11-1 0v-7c0-.277.223-.5.5-.5zm2 0c.277 0 .5.223.5.5v7a.499.499 0 11-1 0v-7c0-.277.223-.5.5-.5z" opacity=".2"/>
    <path d="M2 1v11.5C2 13.876 3.124 15 4.5 15h6c1.376 0 2.5-1.124 2.5-2.5V11c3.99-.627 3.99-6.373 0-7V1zm1 1h9v10.5c0 .84-.66 1.5-1.5 1.5h-6c-.84 0-1.498-.66-1.5-1.5zm10 4.066c.59.203 1 .754 1 1.434 0 .68-.41 1.23-1 1.434z"/>
    <path d="M5.5 5c-.277 0-.5.223-.5.5v7a.499.499 0 101 0v-7c0-.277-.223-.5-.5-.5zm2 0c-.277 0-.5.223-.5.5v7a.499.499 0 101 0v-7c0-.277-.223-.5-.5-.5zm2 0c-.277 0-.5.223-.5.5v7a.499.499 0 101 0v-7c0-.277-.223-.5-.5-.5z" opacity=".1"/>
</svg>
