<svg xmlns="http://www.w3.org/2000/svg" viewBox="0 0 16 16" fill="currentColor" height="16px" width="16px">
    <path d="M1.5 4c0 1 2 4 2 9v1c0 .831.669 1.5 1.5 1.5h6c.831 0 1.5-.669 1.5-1.5v-1c0-5 2-8 2-9-2 0-11.5.055-13 0z" opacity=".2"/>
    <path d="M3 0c-.417 0-.849.163-1.25.484C1.349.805 1 1.334 1 2c0 2.083.524 3.653 1.021 5.271C2.52 8.89 3 10.567 3 13v1c0 1.1.9 2 2 2h6c1.1 0 2-.9 2-2v-1c0-2.433.48-4.11.979-5.729C14.476 5.653 15 4.083 15 2c0-.667-.349-1.195-.75-1.516C13.849.164 13.417 0 13 0zm0 1h10c.083 0 .401.087.625.266.224.179.375.4.375.734 0 1.917-.476 3.347-.979 4.979C12.52 8.61 12 10.433 12 13v1c0 .563-.437 1-1 1H5c-.563 0-1-.437-1-1v-1c0-2.567-.52-4.39-1.021-6.021C2.476 5.347 2 3.917 2 2c0-.333.151-.555.375-.734C2.599 1.086 2.917 1 3 1z"/>
</svg>
