<svg xmlns="http://www.w3.org/2000/svg" viewBox="0 0 16 16" fill="currentColor" height="16px" width="16px">
    <path d="M8.002 1.001h-.004a.998.998 0 00-.998 1c0 .05.02.092.028.139-.093.023-.186.044-.278.07l-.103.035c-.14.05-.273.11-.405.174-.049.025-.101.044-.15.07A3.972 3.972 0 004 6.001v2c0 1.5-1.495 2.264-2 3.5 0 .831.67 1.5 1.5 1.5h9c.831 0 1.5-.669 1.5-1.5-.537-1.979-2-2-2-3.494V6a3.955 3.955 0 00-3.027-3.86c0-.006.003-.012.004-.019v-.006c.005-.04.023-.074.023-.115 0-.044-.02-.082-.025-.125a.999.999 0 00-.027-.137l-.002-.01a.96.96 0 00-.09-.216V1.51a.99.99 0 00-.106-.154l-.002-.002a.96.96 0 00-.105-.104l-.006-.006a.987.987 0 00-.2-.134l-.001-.002-.006-.002c-.026-.013-.05-.025-.078-.036-.002 0-.003 0-.004-.002a.995.995 0 00-.346-.068zm0 0c.024 0 .047.004.07.004a1 1 0 00-.07-.004z" opacity=".2"/>
    <path d="M8 0a2 2 0 011.91 1.412C11.817 2.282 13 4.447 13 7v.957c.89 1.543 2 2.33 2 3.543 0 1.385-1.115 2.5-2.5 2.5H10a2 2 0 11-4 0H3.5A2.495 2.495 0 011 11.5c0-1.214 1.612-2 2-3.45V7c0-2.553 1.182-4.718 3.088-5.588A2 2 0 018 0zm.002 1h-.004A.998.998 0 007 2c0 .05.02.091.027.139-.092.023-.186.044-.277.07l-.104.035c-.139.05-.272.11-.404.174-.05.025-.102.044-.15.07A3.972 3.972 0 004 6v2c0 1.5-1.495 2.263-2 3.5 0 .831.669 1.5 1.5 1.5h9c.831 0 1.5-.669 1.5-1.5-.5-2-2-2-2-3.594V6a3.955 3.955 0 00-3.027-3.86c0-.006.002-.012.004-.019v-.006C8.98 2.075 9 2.041 9 2c0-.044-.02-.082-.025-.125a.999.999 0 00-.027-.137c-.002-.003-.002-.006-.003-.01a.96.96 0 00-.09-.216V1.51a.99.99 0 00-.105-.155l-.002-.002a.96.96 0 00-.105-.103l-.006-.006a.987.987 0 00-.2-.135l-.002-.002c-.001 0-.004 0-.005-.002-.026-.012-.051-.024-.079-.035l-.004-.002A.995.995 0 008.002 1zm0 0c.024 0 .046.004.07.004A.996.996 0 008.002 1zm.982 13h-2a1 1 0 102 0z"/>
    <path d="M8.984 14h-2a1 1 0 102 0z" opacity=".4"/>
</svg>
