<svg xmlns="http://www.w3.org/2000/svg" viewBox="0 0 16 16" fill="currentColor" height="16px" width="16px">
    <path d="M8.002 1.001h-.004a.998.998 0 00-.998 1c0 .05.02.092.028.139-.093.023-.186.044-.278.07l-.103.035c-.14.05-.273.11-.405.174-.049.025-.101.044-.15.07A3.972 3.972 0 004 6.001v2c0 1.5-1.495 2.264-2 3.5 0 .831.67 1.5 1.5 1.5h9c.831 0 1.5-.669 1.5-1.5-.537-1.979-2-2-2-3.494V6a3.955 3.955 0 00-3.027-3.86c0-.006.003-.012.004-.019v-.006c.005-.04.023-.074.023-.115 0-.044-.02-.082-.025-.125a.999.999 0 00-.027-.137l-.002-.01a.96.96 0 00-.09-.216V1.51a.99.99 0 00-.106-.154l-.002-.002a.96.96 0 00-.105-.104l-.006-.006a.987.987 0 00-.2-.134l-.001-.002-.006-.002c-.026-.013-.05-.025-.078-.036-.002 0-.003 0-.004-.002a.995.995 0 00-.346-.068zm0 0c.024 0 .047.004.07.004a1 1 0 00-.07-.004z" opacity=".2"/>
    <path d="M3.514-.004a.5.5 0 00-.272.074C1.962.838 1.112 1.533.615 2.527.118 3.522 0 4.727 0 6.5a.5.5 0 101 0c0-1.726.132-2.772.51-3.527.378-.756 1.027-1.311 2.248-2.043a.5.5 0 00-.244-.934zm8.957 0a.5.5 0 00-.229.934c1.22.732 1.87 1.287 2.248 2.043.378.755.51 1.8.51 3.527a.5.5 0 101 0c0-1.774-.118-2.978-.615-3.973-.497-.994-1.348-1.689-2.627-2.457a.5.5 0 00-.287-.074zM8 0a2 2 0 00-1.912 1.412C4.182 2.282 3 4.447 3 7v1.05c-.388 1.45-2 2.236-2 3.45C1 12.885 2.115 14 3.5 14H6a2 2 0 104 0h2.5c1.385 0 2.5-1.115 2.5-2.5 0-1.214-1.11-2-2-3.543V7c0-2.553-1.183-4.718-3.09-5.588A2 2 0 008 0zm-.002 1h.004c.122 0 .237.028.346.068l.004.002c.027.01.052.023.078.035l.006.002.002.002a.987.987 0 01.199.135l.006.006a.96.96 0 01.105.104l.002.001c.04.048.074.1.105.155v.002a.96.96 0 01.09.217l.002.01a.999.999 0 01.028.136C8.98 1.918 9 1.955 9 2c0 .04-.019.076-.023.115v.006l-.004.02A3.955 3.955 0 0112 6V7.906C12 9.5 13.5 9.5 14 11.5c0 .831-.669 1.5-1.5 1.5h-9c-.831 0-1.5-.669-1.5-1.5.505-1.237 2-2 2-3.5V6c0-1.531.848-2.842 2.092-3.512.048-.026.1-.045.15-.07.132-.064.265-.125.404-.174l.104-.035c.091-.026.185-.047.277-.07C7.021 2.09 7 2.049 7 2c0-.553.445-.999.998-1zM6.984 14h2a1 1 0 11-2 0z"/>
    <path d="M8.984 14h-2a1 1 0 102 0z" opacity=".4"/>
</svg>
