<svg xmlns="http://www.w3.org/2000/svg" viewBox="0 0 16 16" fill="currentColor" height="16px" width="16px">
    <path d="M2.328 2.179h-.002l-.001.002a.998.998 0 00-.365 1.365c.025.042.064.069.093.106-.068.066-.139.131-.205.2l-.072.082a3.942 3.942 0 00-.263.352c-.03.046-.066.09-.095.137a3.972 3.972 0 00-.056 4.087l.5.866.5.866c.75 1.299-.163 2.708.018 4.03.416.72 1.33.965 2.05.55l7.793-4.5c.72-.416.965-1.33.55-2.05-1.455-1.444-2.732-.731-3.48-2.025l-.502-.871-.5-.866A3.955 3.955 0 003.739 2.68l-.006-.019c0-.002-.003-.003-.003-.005-.016-.037-.017-.076-.038-.111-.022-.039-.058-.062-.084-.096a.999.999 0 00-.092-.105l-.007-.007a.96.96 0 00-.186-.143v-.002a.99.99 0 00-.17-.08l-.002-.001a.96.96 0 00-.143-.037L3 2.073a.987.987 0 00-.24-.017l-.003-.001-.006.001c-.029.002-.056.004-.085.009H2.66a.994.994 0 00-.333.114zm0 0c.02-.012.042-.02.063-.032a.999.999 0 00-.063.032z" opacity=".2"/>
    <path d="M3.049 1.057a2 2 0 011.137.524c2.086-.2 4.194 1.083 5.47 3.295l.479.828c1.543.89 2.895 1.017 3.502 2.068.692 1.2.2 2.592-.914 3.414l-1.135.838a2 2 0 01-3.465 2l-3.195 1.662c-1.229.64-2.722.286-3.414-.914-.607-1.051.396-2.539.008-3.988l-.526-.908C-.28 7.666-.34 5.197.876 3.49a2 2 0 012.173-2.434zm-.293.996l-.006.002c-.029.002-.057.003-.086.008H2.66a1 1 0 00-.334.115l-.002.002a.998.998 0 00-.365 1.366c.025.042.064.068.094.105-.069.066-.14.13-.205.2-.024.027-.05.053-.072.081a3.958 3.958 0 00-.264.354c-.03.046-.067.09-.096.137a3.97 3.97 0 00-.055 4.086l.5.867.5.865c.75 1.299-.163 2.708.018 4.031.416.72 1.33.965 2.049.549l7.795-4.5c.72-.415.964-1.33.549-2.049-1.433-1.482-2.733-.733-3.53-2.113l-.453-.783-.5-.867A3.954 3.954 0 003.74 2.68c-.003-.006-.004-.013-.006-.02-.001-.001-.004-.001-.004-.003-.016-.037-.017-.076-.037-.111-.023-.039-.058-.062-.084-.096a.99.99 0 00-.092-.105l-.008-.008a.954.954 0 00-.176-.137l-.01-.006-.002-.002a.982.982 0 00-.168-.08L3.15 2.11a.979.979 0 00-.144-.037l-.008-.002a.973.973 0 00-.238-.016l-.004-.002zm12.725 2.965a.5.5 0 01.347.86l-1 1a.5.5 0 11-.707-.707l1-1a.5.5 0 01.36-.153zm-.006 3.006a.499.499 0 110 1 .499.499 0 110-1zm-.99 2.996a.5.5 0 01.343.15l1 1a.5.5 0 11-.707.708l-1-1a.5.5 0 01.364-.858zm-3.776 1.512l-1.732 1a1 1 0 001.732-1z"/>
    <path d="M10.707 12.524l-1.732 1a1 1 0 101.732-1z" opacity=".4"/>
</svg>
