<svg xmlns="http://www.w3.org/2000/svg" viewBox="0 0 16 16" fill="currentColor" height="16px" width="16px">
    <path d="M13.647 2.154l.001.001.002.001a.998.998 0 01.364 1.365c-.024.043-.063.07-.093.107.069.066.14.13.205.2a3.942 3.942 0 01.335.435c.031.045.067.088.096.135a3.972 3.972 0 01.056 4.088l-.5.866-.5.866c-.75 1.299.163 2.707-.018 4.03-.416.72-1.33.965-2.05.55l-7.794-4.5a1.497 1.497 0 01-.549-2.05c1.455-1.444 2.732-.731 3.48-2.026l.502-.87.5-.866a3.955 3.955 0 014.552-1.83l.006-.018c0-.002.003-.003.003-.005.016-.037.017-.076.037-.112.023-.038.059-.06.085-.095a.999.999 0 01.092-.105l.007-.007a.96.96 0 01.186-.143v-.002a.99.99 0 01.17-.08l.002-.001a.96.96 0 01.143-.037l.008-.002a.987.987 0 01.24-.018H13.224c.028.003.056.005.085.01h.004c.114.02.228.052.334.113zm0 0c-.021-.012-.042-.02-.063-.031l.063.031z" opacity=".2"/>
    <path d="M12.926 1.033a2 2 0 00-1.137.524c-2.086-.2-4.194 1.083-5.47 3.295l-.48.828c-1.542.89-2.894 1.017-3.501 2.068-.693 1.2-.2 2.592.914 3.414L4.387 12a2 2 0 003.465 2l3.195 1.662c1.228.64 2.721.285 3.414-.914.607-1.051-.396-2.539-.008-3.988l.526-.908c1.276-2.211 1.336-4.679.12-6.385a2 2 0 00-2.173-2.434zm.293.996l.006.002c.028.002.057.003.086.008h.003a1 1 0 01.334.115l.002.002a.998.998 0 01.366 1.365c-.025.043-.065.068-.094.106.068.066.139.13.205.2.024.026.049.053.072.081.096.113.182.233.264.354.03.046.067.09.096.136a3.97 3.97 0 01.054 4.086l-.5.868-.5.865c-.75 1.299.164 2.708-.017 4.031-.416.72-1.33.964-2.05.549l-7.794-4.5a1.496 1.496 0 01-.549-2.049c1.433-1.482 2.733-.733 3.53-2.113l.453-.783.5-.868a3.954 3.954 0 014.55-1.828c.003-.006.004-.013.006-.02 0-.001.004-.001.004-.003.016-.037.017-.076.037-.112.022-.038.058-.06.084-.095a.992.992 0 01.092-.105l.008-.009a.954.954 0 01.176-.136l.01-.006.001-.002a.982.982 0 01.168-.08l.002-.002a.98.98 0 01.145-.037l.008-.002a.973.973 0 01.238-.016l.004-.002zM.494 4.994a.5.5 0 00-.348.86l1 1a.5.5 0 10.708-.708l-1-1a.5.5 0 00-.36-.152zM.5 8a.499.499 0 100 1 .499.499 0 100-1zm.99 2.996a.5.5 0 00-.344.15l-1 1a.5.5 0 10.708.708l1-1a.5.5 0 00-.364-.858zm3.776 1.512l1.732 1a1 1 0 01-1.732-1z"/>
    <path d="M5.268 12.5L7 13.5a1 1 0 11-1.732-1z" opacity=".4"/>
</svg>
