<svg xmlns="http://www.w3.org/2000/svg" viewBox="0 0 16 16">
    <path d="M8 1C6.338 1 5 2.338 5 4v1.018A4.97 4.97 0 0 0 3 9v1a4.984 4.984 0 0 0 3.002 4.58L8 8l1.998 6.58A4.984 4.984 0 0 0 13 10V9a4.97 4.97 0 0 0-2-3.982V4c0-1.662-1.338-3-3-3zM6.037 14.6l.045.017-.045-.017zm3.926 0l-.045.017.045-.017zm-3.027.28c.038.01.076.02.115.028-.043-.008-.075-.019-.115-.027zm2.128 0c-.04.01-.072.02-.115.028.04-.007.077-.019.115-.027zm-1.77.065zM8 15z" opacity=".2"/>
    <path d="M8 0C5.784 0 4 1.784 4 4v.531a6.036 6.036 0 0 0-1.193 1.467H2V6A.994.994 0 0 1 .996 4.996V4H0v.996c0 1.1.9 2 2 2v.002h.348A5.971 5.971 0 0 0 2 9H0v1h2c0 .703.127 1.374.348 2H2v.002c-1.1 0-2 .9-2 2v.996h.996v-.996A.994.994 0 0 1 2 12.998V13h.805A5.98 5.98 0 0 0 8 16a5.98 5.98 0 0 0 5.195-3H14v-.002a.994.994 0 0 1 1.004 1.004v.996H16v-.996c0-1.1-.9-2-2-2V12h-.348c.22-.626.348-1.297.348-2h2V9h-2c0-.704-.126-1.376-.348-2.002H14v-.002c1.1 0 2-.9 2-2V4h-.996v.996A.994.994 0 0 1 14 6v-.002h-.807A6.043 6.043 0 0 0 12 4.529V4c0-2.216-1.784-4-4-4zm0 1c1.662 0 3 1.338 3 3v1c0 .5-1.259 1-2 1H7c-.741 0-2-.5-2-1V4c0-1.662 1.338-3 3-3zM4.193 5.775C4.651 6.67 5.891 7 7 7h.32l-2.205 7.059A4.956 4.956 0 0 1 3 10V9a4.94 4.94 0 0 1 1.193-3.225zm7.614 0A4.936 4.936 0 0 1 13 9v1a4.956 4.956 0 0 1-2.115 4.059L8.68 7H9c1.11 0 2.349-.33 2.807-1.225zM8 8.174L8.883 11H7.117L8 8.174zM6.805 12h2.39l.313 1H6.492l.313-1zm-.625 2h3.64l.18.572-.004.002.004.012s-.091.032-.105.039l-.127.049c-.141.061-.317.126-.706.209-.02.004-.04.013-.062.017h-.02c-.284.056-.602.1-.98.1s-.696-.044-.98-.1H7c-.022-.004-.041-.013-.063-.017-.388-.083-.564-.148-.705-.21-.042-.015-.085-.03-.127-.048a2.658 2.658 0 0 0-.105-.04l.004-.01L6 14.571 6.18 14z"/>
</svg>
