<svg xmlns="http://www.w3.org/2000/svg" viewBox="0 0 16 16" fill="currentColor" height="16px" width="16px">
    <path d="M2 1a2 2 0 00-2 2 2 2 0 002 2 2 2 0 002-2 2 2 0 00-2-2zm4.5 0C5.678 1 5 1.678 5 2.5v1C5 4.322 5.678 5 6.5 5h8c.822 0 1.5-.678 1.5-1.5v-1c0-.822-.678-1.5-1.5-1.5h-8zM2 2a1 1 0 011 1 1 1 0 01-1 1 1 1 0 01-1-1 1 1 0 011-1zm4.5 0h8c.286 0 .5.214.5.5v1c0 .286-.214.5-.5.5h-8a.488.488 0 01-.5-.5v-1c0-.286.214-.5.5-.5zM2 6a2 2 0 00-2 2 2 2 0 002 2 2 2 0 002-2 2 2 0 00-2-2zm4.5 0C5.678 6 5 6.678 5 7.5v1c0 .822.678 1.5 1.5 1.5h8c.822 0 1.5-.678 1.5-1.5v-1c0-.822-.678-1.5-1.5-1.5h-8zM2 7a1 1 0 011 1 1 1 0 01-1 1 1 1 0 01-1-1 1 1 0 011-1zm4.5 0h8c.285 0 .5.214.5.5v1c0 .286-.215.5-.5.5h-8a.488.488 0 01-.5-.5v-1c0-.286.214-.5.5-.5zM2 11a2 2 0 00-2 2 2 2 0 002 2 2 2 0 002-2 2 2 0 00-2-2zm4.5 0c-.822 0-1.5.678-1.5 1.5v1c0 .822.678 1.5 1.5 1.5h8c.822 0 1.5-.678 1.5-1.5v-1c0-.822-.678-1.5-1.5-1.5h-8zM2 12a1 1 0 011 1 1 1 0 01-1 1 1 1 0 01-1-1 1 1 0 011-1zm4.5 0h8c.286 0 .5.214.5.5v1c0 .286-.214.5-.5.5h-8a.488.488 0 01-.5-.5v-1c0-.286.214-.5.5-.5z"/>
    <path d="M15 2v2H6V2zm0 5v2H6V7zm0 5v2H6v-2z" opacity=".4"/>
    <path d="M2 2a1 1 0 00-1 1 1 1 0 001 1 1 1 0 001-1 1 1 0 00-1-1zm0 5a1 1 0 00-1 1 1 1 0 001 1 1 1 0 001-1 1 1 0 00-1-1zm0 5a1 1 0 00-1 1 1 1 0 001 1 1 1 0 001-1 1 1 0 00-1-1z" opacity=".3"/>
</svg>
