<svg xmlns="http://www.w3.org/2000/svg" viewBox="0 0 16 16" fill="currentColor" height="16px" width="16px">
    <path d="M2 3c-.554 0-1 .446-1 1v1h4.361A4 4 0 018 4a4 4 0 012.639 1H15V4c0-.554-.446-1-1-1H2.5zm6 2a3 3 0 00-3 3 3 3 0 001.502 2.596l.5-.866a2 2 0 111.996-3.46l.5-.866A3 3 0 008 5zm-7 7v1c0 .554.446 1 1 1h12c.554 0 1-.446 1-1v-1z" opacity=".1"/>
    <path d="M1 5v7h14V5H8a3 3 0 013 3 3 3 0 01-3 3 3 3 0 01-3-3 3 3 0 013-3H1z" opacity=".4"/>
    <path d="M2.5 1c-.277 0-.5.223-.5.5V2C.892 2 0 2.892 0 4v9c0 1.108.892 2 2 2h12c1.108 0 2-.892 2-2V4c0-1.108-.892-2-2-2h-1v-.5c0-.277-.223-.5-.5-.5h-4c-.277 0-.5.223-.5.5V2H4v-.5c0-.277-.223-.5-.5-.5h-1zM2 3h12c.554 0 1 .446 1 1v9c0 .554-.446 1-1 1H2c-.554 0-1-.446-1-1V4c0-.554.446-1 1-1zm6 1a4 4 0 00-4 4 4 4 0 004 4 4 4 0 004-4 4 4 0 00-4-4zm0 1a3 3 0 013 3 3 3 0 01-3 3 3 3 0 01-3-3 3 3 0 013-3z"/>
    <path d="M9.5 5.402L9 6.27A2 2 0 0110 8a2 2 0 01-2 2 2 2 0 01-1-.27l-.5.868a3 3 0 103-5.196z" opacity=".2"/>
    <path d="M8 6a2 2 0 00-2 2 2 2 0 001 1.73l2-3.46A2 2 0 008 6zM7 9.73a2 2 0 00.15.079A2 2 0 017 9.73zm2.09-3.404a2 2 0 01.115.082 2 2 0 00-.115-.082zm.166.12a2 2 0 01.119.105 2 2 0 00-.12-.106zm.142.128a2 2 0 01.118.123 2 2 0 00-.118-.123zm.137.145a2 2 0 01.09.119 2 2 0 00-.09-.12zm.125.168a2 2 0 01.078.129 2 2 0 00-.078-.13zm.1.166a2 2 0 01.054.113 2 2 0 00-.054-.113zm.094.203a2 2 0 01.03.082 2 2 0 00-.03-.082zm.06.172a2 2 0 01.04.15 2 2 0 00-.04-.15zm.047.187a2 2 0 01.018.112 2 2 0 00-.018-.112zm.031.229A2 2 0 0110 8a2 2 0 00-.008-.156zm0 .312a2 2 0 01-.015.14 2 2 0 00.015-.14zm-.025.203a2 2 0 01-.024.106 2 2 0 00.024-.106zm-.051.211a2 2 0 01-.031.092 2 2 0 00.031-.092zm-.062.174a2 2 0 01-.045.106 2 2 0 00.045-.106zm-.084.184a2 2 0 01-.051.092 2 2 0 00.05-.092zm-.225.342a2 2 0 01-.06.068 2 2 0 00.06-.068zm-.13.144a2 2 0 01-.077.07 2 2 0 00.076-.07zm-.145.13a2 2 0 01-.102.077 2 2 0 00.102-.076zm-.159.118a2 2 0 01-.091.057 2 2 0 00.091-.057zm-.183.108a2 2 0 01-.078.039 2 2 0 00.078-.04zm-1.739.056a2 2 0 00.145.057 2 2 0 01-.145-.057zm1.555.028a2 2 0 01-.082.03 2 2 0 00.082-.03zm-1.371.042a2 2 0 00.162.047 2 2 0 01-.162-.047zm1.197.02a2 2 0 01-.105.027 2 2 0 00.105-.027zm-1.008.035a2 2 0 00.155.028 2 2 0 01-.154-.028zm.797.016a2 2 0 01-.062.01 2 2 0 00.062-.01zm-.59.02a2 2 0 00.106.007 2 2 0 01-.105-.008zm.387.005A2 2 0 018 10a2 2 0 00.156-.008z" opacity=".3"/>
    <path d="M9 6.27L7 9.73A2 2 0 008 10a2 2 0 002-2 2 2 0 00-1-1.73z" opacity=".5"/>
</svg>
