<svg xmlns="http://www.w3.org/2000/svg" viewBox="0 0 16 16" fill="currentColor" height="16px" width="16px">
    <path d="M15 8a7 7 0 01-7 7 7 7 0 01-7-7 7 7 0 017-7 7 7 0 017 7z" opacity=".2"/>
    <path d="M8 0C2.812-.197-1.359 5.47.357 10.363 1.64 15.067 7.64 17.5 11.834 15.02c3.257-1.722 4.973-5.862 3.809-9.383C14.67 2.344 11.43-.047 8 0zm0 1c4.48-.172 8.049 4.652 6.74 8.877L7.56 7.312h1.826l.379-.792H5.79c.147-.805.453-1.424.916-1.854.463-.43 1.055-.645 1.775-.645.468 0 .896.098 1.282.292.39.193.793.514 1.21.966V3.904a4.503 4.503 0 00-1.238-.683 3.772 3.772 0 00-1.308-.233c-1.083 0-1.98.312-2.692.936-.64.562-1.055 1.331-1.267 2.285L1.592 5.182C2.694 2.722 5.242.949 8 1zM1.248 6.12l1.934.69-.24.503h1.335c0 .098 0 .2-.006.304v.735a6.4 6.4 0 01.006.296H3.32l-.379.795h1.454c.183 1.115.629 1.984 1.335 2.608.712.624 1.61.935 2.698.935.44 0 .873-.077 1.295-.232a4.767 4.767 0 001.252-.697v-1.362c-.418.452-.821.775-1.211.97-.386.193-.814.288-1.282.288-.72 0-1.312-.216-1.775-.65-.463-.435-.77-1.055-.916-1.86h2.574l.324-.666 5.723 2.043c-1.225 2.875-4.546 4.673-7.623 4.069C3.28 14.349.61 10.825 1.035 7.3c.033-.404.107-.798.213-1.182zM5.66 7.694l2.67.953H5.682a7.203 7.203 0 01-.022-.302v-.651z"/>
</svg>
