<svg xmlns="http://www.w3.org/2000/svg" viewBox="0 0 16 16" fill="currentColor" height="16px" width="16px">
    <path d="M15 8a7 7 0 01-7 7 7 7 0 01-7-7 7 7 0 017-7 7 7 0 017 7z" opacity=".2"/>
    <path d="M8 0C2.812-.197-1.359 5.47.357 10.363 1.64 15.067 7.64 17.5 11.834 15.02c3.257-1.722 4.973-5.862 3.809-9.383C14.67 2.344 11.43-.047 8 0zm0 1c4.48-.172 8.049 4.652 6.74 8.877l-4.295-1.533c-.032-.035-.058-.075-.093-.108-.398-.372-1.017-.632-1.856-.779L8 7.363V4.896c.052-.001.09-.013.145-.013.352 0 .718.046 1.097.138a7.32 7.32 0 011.21.42v-1.01a9.216 9.216 0 00-1.243-.292 7.509 7.509 0 00-1.191-.098L8 4.043V3H7v1.148c-.44.095-.821.25-1.127.479-.516.39-.775.923-.775 1.6 0 .075.011.142.017.212L1.592 5.182C2.694 2.722 5.242.949 8 1zM7 5.07v2.043l-.113-.04c-.126-.051-.254-.1-.33-.159-.22-.174-.328-.431-.328-.77 0-.403.165-.714.496-.933.082-.054.175-.1.275-.14zM1.248 6.12l4.783 1.708c.266.15.574.282.969.383v2.863a5.158 5.158 0 01-.525-.11 6.896 6.896 0 01-1.344-.532v1.066c.475.16.935.283 1.377.365.169.031.33.051.492.07V13h1v-1.025c.924-.028 1.643-.21 2.139-.563.542-.383.814-.945.814-1.687 0-.051-.009-.096-.012-.145l3.471 1.24c-1.225 2.875-4.546 4.673-7.623 4.069C3.28 14.349.61 10.825 1.035 7.3c.033-.404.107-.798.213-1.182zM8 8.53l1.56.557c.145.19.217.429.217.713 0 .43-.174.761-.523.994-.301.2-.734.299-1.254.326v-2.59z"/>
</svg>
