<svg xmlns="http://www.w3.org/2000/svg" viewBox="0 0 16 16" fill="currentColor" height="16px" width="16px">
    <path d="M15 8a7 7 0 01-7 7 7 7 0 01-7-7 7 7 0 017-7 7 7 0 017 7z" opacity=".2"/>
    <path d="M8 0C2.812-.197-1.359 5.47.357 10.363 1.64 15.067 7.64 17.5 11.834 15.02c3.257-1.722 4.973-5.862 3.809-9.383C14.67 2.344 11.43-.047 8 0zm-.035 1A7 7 0 018 1c1.211-.046 2.35.282 3.35.855a7 7 0 01.005.002l.065.04c.14.082.283.163.418.255a7 7 0 013.031 4.532 7 7 0 01.07.472c.1.717.084 1.449-.068 2.172a7 7 0 01-.084.354c-.018.065-.027.13-.047.195l-.004-.002a7 7 0 01-.332.941l.008.004a6.514 6.514 0 01-1.021 1.64 7 7 0 01-.112.13 6.94 6.94 0 01-.207.223 7 7 0 01-2.842 1.812 7 7 0 01-1.1.281 6.531 6.531 0 01-1.825.059H7.3a7 7 0 01-.23-.035c-.094-.014-.189-.023-.282-.041l-.008-.002a7 7 0 01-.377-.078 6.244 6.244 0 01-.457-.118 7 7 0 01-.04-.013 6.401 6.401 0 01-.608-.221 7 7 0 01-.069-.03 6.637 6.637 0 01-.498-.241 7 7 0 01-.218-.123 6.83 6.83 0 01-.266-.163 7 7 0 01-.434-.3 7 7 0 01-2.5-3.55c-.018-.058-.04-.116-.058-.175a7 7 0 01-.002-.01 6.447 6.447 0 01-.219-2.564c.033-.404.107-.798.213-1.182l.016.006a7 7 0 01.332-.941l-.004-.002c.015-.035.038-.066.054-.1a7 7 0 01.41-.762c.01-.014.017-.029.026-.043a7 7 0 012.902-2.586c.071-.034.143-.065.215-.097a7 7 0 01.516-.201 6.63 6.63 0 01.928-.254c.057-.012.113-.028.171-.037.15-.026.301-.04.454-.055A7 7 0 017.965 1zM8 3C5.784 3 4 4.784 4 7v2c0 2.216 1.784 4 4 4s4-1.784 4-4V7c0-2.216-1.784-4-4-4zm0 1c1.662 0 3 1.784 3 4 0 .18-.022.353-.04.527L5.226 6.48C5.672 5.022 6.743 4 8 4zM5.04 7.473l5.735 2.048C10.328 10.978 9.257 12 8 12c-1.662 0-3-1.784-3-4 0-.18.022-.353.04-.527z"/>
</svg>
