<svg xmlns="http://www.w3.org/2000/svg" viewBox="0 0 16 16" fill="currentColor" height="16px" width="16px">
    <path d="M15 8a7 7 0 01-7 7 7 7 0 01-7-7 7 7 0 017-7 7 7 0 017 7z" opacity=".2"/>
    <path d="M8 0C2.812-.197-1.359 5.47.357 10.363 1.64 15.067 7.64 17.5 11.834 15.02c3.257-1.722 4.973-5.862 3.809-9.383C14.67 2.344 11.43-.047 8 0zm0 1c4.618-.177 8.283 4.957 6.62 9.268-1.014 3.193-4.56 5.263-7.83 4.62-3.51-.54-6.18-4.063-5.755-7.587C1.32 3.81 4.497.935 8 1z"/>
    <path d="M8 3a3.981 3.981 0 00-3.861 3H2.5a.5.5 0 00-.354.854l2 2a.5.5 0 00.708 0l2-2A.5.5 0 006.5 6H5.182C5.593 4.835 6.69 4 8 4c1.662 0 3 1.338 3 3v2c0 1.662-1.338 3-3 3a2.985 2.985 0 01-2.818-2H4.139A3.981 3.981 0 008 13c2.216 0 4-1.784 4-4V7c0-2.216-1.784-4-4-4z"/>
</svg>
