<svg xmlns="http://www.w3.org/2000/svg" viewBox="0 0 16 16" fill="currentColor" height="16px" width="16px">
    <path d="M15 8a7 7 0 01-7 7 7 7 0 01-7-7 7 7 0 017-7 7 7 0 017 7z" opacity=".2"/>
    <path d="M8 0C2.812-.197-1.359 5.47.357 10.363 1.64 15.067 7.64 17.5 11.834 15.02c3.257-1.722 4.973-5.862 3.809-9.383C14.67 2.344 11.43-.047 8 0zm0 1c4.618-.177 8.283 4.957 6.62 9.268-1.014 3.193-4.56 5.263-7.83 4.62-3.51-.54-6.18-4.063-5.755-7.587C1.32 3.81 4.497.935 8 1zM5 5a3 3 0 00-3 3 3 3 0 003 3 3 3 0 002.826-2H6.73A2 2 0 015 10a2 2 0 01-2-2 2 2 0 012-2 2 2 0 011.729 1h1.095A3 3 0 005 5zm6 0a3 3 0 00-3 3 3 3 0 003 3 3 3 0 002.826-2H12.73A2 2 0 0111 10a2 2 0 01-2-2 2 2 0 012-2 2 2 0 011.729 1h1.095A3 3 0 0011 5z"/>
</svg>
