<svg xmlns="http://www.w3.org/2000/svg" viewBox="0 0 16 16" fill="currentColor" height="16px" width="16px">
    <path d="M1 1c-.554 0-1 .446-1 1v2c0 .554.446 1 1 1h2c.554 0 1-.446 1-1V2c0-.554-.446-1-1-1H1zm5.5 0C5.678 1 5 1.678 5 2.5v1C5 4.322 5.678 5 6.5 5h8c.822 0 1.5-.678 1.5-1.5v-1c0-.822-.678-1.5-1.5-1.5h-8zM1 2h2v2H1V2zm5.5 0h8c.286 0 .5.214.5.5v1c0 .286-.214.5-.5.5h-8a.488.488 0 01-.5-.5v-1c0-.286.214-.5.5-.5zM1 6c-.554 0-1 .446-1 1v2c0 .554.446 1 1 1h2c.554 0 1-.446 1-1V7c0-.554-.446-1-1-1H1zm5.5 0C5.678 6 5 6.678 5 7.5v1c0 .822.678 1.5 1.5 1.5h8c.822 0 1.5-.678 1.5-1.5v-1c0-.822-.678-1.5-1.5-1.5h-8zM1 7h2v2H1V7zm5.5 0h8c.285 0 .5.214.5.5v1c0 .286-.215.5-.5.5h-8a.488.488 0 01-.5-.5v-1c0-.286.214-.5.5-.5zM1 11c-.554 0-1 .446-1 1v2c0 .554.446 1 1 1h2c.554 0 1-.446 1-1v-2c0-.554-.446-1-1-1H1zm5.5 0c-.822 0-1.5.678-1.5 1.5v1c0 .822.678 1.5 1.5 1.5h8c.822 0 1.5-.678 1.5-1.5v-1c0-.822-.678-1.5-1.5-1.5h-8zM1 12h2v2H1v-2zm5.5 0h8c.286 0 .5.214.5.5v1c0 .286-.214.5-.5.5h-8a.488.488 0 01-.5-.5v-1c0-.286.214-.5.5-.5z"/>
    <path d="M15 2v2H6V2zm0 5v2H6V7zm0 5v2H6v-2z" opacity=".4"/>
</svg>
