<svg xmlns="http://www.w3.org/2000/svg" viewBox="0 0 16 16" fill="currentColor" height="16px" width="16px">
    <path d="M6.5 2A4.501 4.501 0 002 6.5c0 .284.062.535.113.791C.928 7.689 0 8.681 0 10c0 1.653 1.347 3 3 3h10c1.653 0 3-1.347 3-3 0-1.298-.886-2.309-2.045-2.725C13.833 5.455 12.351 4 10.5 4c-.128 0-.236.021-.352.035C9.343 2.845 8.05 2 6.5 2zm0 1c1.32 0 2.441.725 3.041 1.797l.172.31.35-.062c.155-.028.3-.045.437-.045C11.894 5 13 6.106 13 7.5c0-.094-.004-.082-.006.041l-.006.416.408.082C14.314 8.221 15 9.02 15 10c0 1.117-.883 2-2 2H3c-1.117 0-2-.883-2-2 0-1.02.74-1.832 1.719-1.969l.56-.08-.146-.545A3.498 3.498 0 013 6.5C3 4.552 4.552 3 6.5 3z"/>
    <path d="M6.5 2.5c-2.216 0-4 1.784-4 4 0 .36.062.703.15 1.035A2.486 2.486 0 00.5 10c0 1.385 1.115 2.5 2.5 2.5h10c1.385 0 2.5-1.115 2.5-2.5a2.493 2.493 0 00-2.006-2.451c0-.017.006-.032.006-.049 0-1.662-1.338-3-3-3-.18 0-.353.023-.523.053A3.973 3.973 0 006.5 2.5z" opacity=".2"/>
</svg>
