<svg xmlns="http://www.w3.org/2000/svg" viewBox="0 0 16 16" fill="currentColor" height="16px" width="16px">
    <path d="M4 1v1H3c-.554 0-1 .446-1 1v1c0 .554.446 1 1 1h10c.554 0 1-.446 1-1V3c0-.554-.446-1-1-1h-1V1zM3 8l.5 4h9l.5-4z" opacity=".2"/>
    <path d="M4 0c-.554 0-1 .446-1 1-1.1 0-2 .9-2 2v1c0 .734.406 1.37 1 1.719L3 14c.132 1.092.9 2 2 2h6c1.1 0 1.868-.908 2-2l1-8.281c.594-.348 1-.985 1-1.719V3c0-1.1-.9-2-2-2 0-.554-.446-1-1-1H4zm0 1h8v1h1c.563 0 1 .437 1 1v1c0 .563-.437 1-1 1H3c-.563 0-1-.437-1-1V3c0-.563.437-1 1-1h1V1zM3 6h10l-.25 2h-9.5L3 6zm.375 3h9.25l-.25 2h-8.75l-.25-2zm.375 3h8.5L12 14c-.07.559-.437 1-1 1H5c-.563 0-.878-.45-1-1l-.25-2z"/>
</svg>
