<svg xmlns="http://www.w3.org/2000/svg" viewBox="0 0 16 16" fill="currentColor" height="16px" width="16px">
    <path d="M6.5 0c-.277 0-.5.223-.5.5v1.844a6 6 0 00-.586.242L4.111 1.283a.498.498 0 00-.707 0l-2.12 2.121a.499.499 0 000 .707l1.302 1.303A6 6 0 002.344 6H.5c-.277 0-.5.223-.5.5v3c0 .277.223.5.5.5h1.844a6 6 0 00.242.586l-1.303 1.303a.499.499 0 000 .707l2.121 2.12a.499.499 0 00.707 0l1.303-1.302a6 6 0 00.586.242V15.5c0 .277.223.5.5.5h3c.277 0 .5-.223.5-.5v-1.844a6 6 0 00.586-.242l1.303 1.303a.499.499 0 00.707 0l2.12-2.121a.499.499 0 000-.707l-1.302-1.303a6 6 0 00.242-.586H15.5c.277 0 .5-.223.5-.5v-3c0-.277-.223-.5-.5-.5h-1.844a6 6 0 00-.242-.586l1.303-1.303a.499.499 0 000-.707l-2.121-2.12a.498.498 0 00-.707 0l-1.303 1.302A6 6 0 0010 2.344V.5c0-.277-.223-.5-.5-.5h-3zM7 1h2V3.102a5 5 0 01.031.005 5 5 0 01.088.02 5 5 0 01.096.023 5 5 0 01.012.002 5 5 0 01.148.041 5 5 0 01.021.006 5 5 0 01.018.006 5 5 0 01.162.05 5 5 0 01.168.06 5 5 0 01.01.003 5 5 0 01.01.004 5 5 0 01.164.067 5 5 0 01.162.07 5 5 0 01.01.004 5 5 0 01.007.004 5 5 0 01.163.08 5 5 0 01.154.082 5 5 0 01.012.006 5 5 0 01.076.043 5 5 0 01.086.05 5 5 0 01.025.016 5 5 0 01.133.086l.72-.72.766-.766 1.414 1.414-.765.765-.72.72a5 5 0 01.018.027 5 5 0 01.059.093 5 5 0 01.006.01 5 5 0 01.09.152 5 5 0 01.086.159 5 5 0 01.004.005 5 5 0 01.002.004 5 5 0 01.082.166 5 5 0 01.033.07 5 5 0 01.013.032 5 5 0 01.059.139 5 5 0 01.002.002 5 5 0 01.002.003 5 5 0 01.06.157 5 5 0 01.006.015 5 5 0 01.037.104 5 5 0 01.006.02 5 5 0 01.051.16 5 5 0 01.049.173 5 5 0 01.002.006 5 5 0 01.02.076 5 5 0 01.01.043 5 5 0 01.028.13 5 5 0 01.002.011H15v2H12.898a5 5 0 01-.005.031 5 5 0 01-.02.088 5 5 0 01-.023.096 5 5 0 01-.002.012 5 5 0 01-.041.148 5 5 0 01-.006.021 5 5 0 01-.006.018 5 5 0 01-.05.162 5 5 0 01-.06.168 5 5 0 01-.003.01 5 5 0 01-.004.01 5 5 0 01-.067.164 5 5 0 01-.07.162 5 5 0 01-.004.01 5 5 0 01-.004.007 5 5 0 01-.08.163 5 5 0 01-.082.154 5 5 0 01-.006.012 5 5 0 01-.043.076 5 5 0 01-.05.086 5 5 0 01-.016.025 5 5 0 01-.086.133l.72.72.766.766-1.414 1.414-.765-.765-.72-.72a5 5 0 01-.027.018 5 5 0 01-.093.059 5 5 0 01-.01.006 5 5 0 01-.152.09 5 5 0 01-.159.086 5 5 0 01-.005.004 5 5 0 01-.004.002 5 5 0 01-.166.082 5 5 0 01-.07.033 5 5 0 01-.032.013 5 5 0 01-.139.059 5 5 0 01-.002.002 5 5 0 01-.003.002 5 5 0 01-.157.06 5 5 0 01-.015.006 5 5 0 01-.104.037 5 5 0 01-.02.006 5 5 0 01-.16.051 5 5 0 01-.173.049 5 5 0 01-.006.002 5 5 0 01-.076.02 5 5 0 01-.043.01 5 5 0 01-.13.028 5 5 0 01-.011.002V15H7V12.898a5 5 0 01-.07-.015 5 5 0 01-.127-.03 5 5 0 01-.03-.005 5 5 0 01-.148-.041 5 5 0 01-.04-.012 5 5 0 01-.161-.05 5 5 0 01-.168-.06 5 5 0 01-.02-.007 5 5 0 01-.164-.067 5 5 0 01-.162-.07 5 5 0 01-.017-.008 5 5 0 01-.163-.08 5 5 0 01-.154-.082 5 5 0 01-.031-.016 5 5 0 01-.102-.06 5 5 0 01-.066-.04 5 5 0 01-.133-.085l-.72.72-.766.766-1.414-1.414.765-.765.72-.72a5 5 0 01-.067-.107 5 5 0 01-.016-.023 5 5 0 01-.09-.152 5 5 0 01-.086-.159 5 5 0 01-.006-.01 5 5 0 01-.082-.165 5 5 0 01-.033-.07 5 5 0 01-.013-.032 5 5 0 01-.059-.139 5 5 0 01-.004-.005 5 5 0 01-.06-.157 5 5 0 01-.02-.054 5 5 0 01-.03-.084 5 5 0 01-.05-.16 5 5 0 01-.049-.174 5 5 0 01-.004-.016 5 5 0 01-.027-.11 5 5 0 01-.03-.128A5 5 0 013.103 9H1V7H3.102a5 5 0 01.015-.07 5 5 0 01.03-.127 5 5 0 01.005-.03 5 5 0 01.041-.148 5 5 0 01.012-.04 5 5 0 01.05-.161 5 5 0 01.06-.168 5 5 0 01.007-.02 5 5 0 01.067-.164 5 5 0 01.07-.162 5 5 0 01.008-.017 5 5 0 01.08-.163 5 5 0 01.082-.154 5 5 0 01.016-.031 5 5 0 01.06-.102 5 5 0 01.04-.066 5 5 0 01.085-.133l-.72-.72-.766-.766 1.414-1.414.765.765.72.72a5 5 0 01.107-.067 5 5 0 01.023-.016 5 5 0 01.152-.09 5 5 0 01.159-.086 5 5 0 01.01-.006 5 5 0 01.165-.082 5 5 0 01.07-.033 5 5 0 01.032-.013 5 5 0 01.139-.059 5 5 0 01.005-.004 5 5 0 01.157-.06 5 5 0 01.054-.02 5 5 0 01.084-.03 5 5 0 01.16-.05 5 5 0 01.174-.049 5 5 0 01.016-.004 5 5 0 01.11-.027 5 5 0 01.128-.03A5 5 0 017 3.103V1z"/>
    <path d="M7.95 5A3 3 0 005 8a3 3 0 003 3 3 3 0 003-3 3 3 0 00-3-3 3 3 0 00-.05 0zm.001 1A2 2 0 018 6a2 2 0 012 2 2 2 0 01-2 2 2 2 0 01-2-2 2 2 0 011.951-2z"/>
    <path d="M7 1v2.102a5 5 0 00-1.758.726L3.758 2.344 2.344 3.758 3.83 5.244A5 5 0 003.102 7H1v2h2.102a5 5 0 00.726 1.758l-1.484 1.484 1.414 1.414 1.486-1.486A5 5 0 007 12.898V15h2v-2.102a5 5 0 001.758-.726l1.484 1.484 1.414-1.414-1.486-1.486A5 5 0 0012.898 9H15V7h-2.102a5 5 0 00-.726-1.758l1.484-1.484-1.414-1.414-1.486 1.486A5 5 0 009 3.102V1H7zm.95 4A3 3 0 018 5a3 3 0 013 3 3 3 0 01-3 3 3 3 0 01-3-3 3 3 0 012.95-3z" opacity=".2"/>
</svg>
