<svg xmlns="http://www.w3.org/2000/svg" viewBox="0 0 16 16" fill="currentColor" height="16px" width="16px">
    <path style="line-height:normal;font-variant-ligatures:normal;font-variant-position:normal;font-variant-caps:normal;font-variant-numeric:normal;font-variant-alternates:normal;font-feature-settings:normal;text-indent:0;text-align:start;text-decoration-line:none;text-decoration-style:solid;text-decoration-color:#000;text-transform:none;text-orientation:mixed;white-space:normal;shape-padding:0;isolation:auto;mix-blend-mode:normal;solid-color:#000;solid-opacity:1" d="M12.98 2.99a1 1 0 00-.687.303L9 6.586l-2.07-2.07a2 2 0 01-1.412 1.416L7.586 8l-2.07 2.07a2 2 0 011.416 1.412L9 9.414l3.293 3.293a1 1 0 00.887.293h1.32a.5.5 0 00.32-.885l-1.761-1.47L10.414 8l2.645-2.645 1.761-1.47A.5.5 0 0014.5 3h-1.354a1 1 0 00-.166-.01z" color="#000" font-family="sans-serif" font-weight="400" opacity=".4" overflow="visible"/>
    <path style="line-height:normal;font-variant-ligatures:normal;font-variant-position:normal;font-variant-caps:normal;font-variant-numeric:normal;font-variant-alternates:normal;font-feature-settings:normal;text-indent:0;text-align:start;text-decoration-line:none;text-decoration-style:solid;text-decoration-color:#000;text-transform:none;text-orientation:mixed;white-space:normal;shape-padding:0;isolation:auto;mix-blend-mode:normal;solid-color:#000;solid-opacity:1" d="M5 1a3 3 0 00-3 3 3 3 0 003 3 3 3 0 00.164-.008L6.172 8 5.166 9.006A3 3 0 005 9a3 3 0 00-3 3 3 3 0 003 3 3 3 0 003-3 3 3 0 00-.008-.164L9 10.828l2.572 2.572a2.003 2.003 0 001.774.586L13.18 14h1.318c.652.001 1.22-.453 1.414-.99a1.541 1.541 0 00-.451-1.662l-.002-.002-1.725-1.44L11.828 8l1.906-1.906 1.725-1.44a1.541 1.541 0 00.453-1.664C15.718 2.454 15.151 2 14.5 2h-1.354l.141.01a2 2 0 00-.332-.02h-.004a2.002 2.002 0 00-1.375.606L9 5.172 7.994 4.166A3 3 0 008 4a3 3 0 00-3-3zm0 1a2 2 0 011.436.607 2 2 0 01.13.149 2 2 0 01.002.002 2 2 0 01.295.517 2 2 0 01.002.002 2 2 0 01.063.188 2 2 0 010 .002 2 2 0 01.043.193 2 2 0 010 .002 2 2 0 01.023.197A2 2 0 017 4a2 2 0 01-.07.516 2 2 0 01-1.412 1.416 2 2 0 01-.178.039 2 2 0 01-.2.023A2 2 0 015 6a2 2 0 01-.2-.01 2 2 0 01-.392-.08 2 2 0 01-.187-.068 2 2 0 01-.627-.422A2 2 0 013 4a2 2 0 012-2zm7.98.99a1 1 0 01.166.01H14.5a.5.5 0 01.32.885l-1.761 1.47L10.414 8l2.645 2.645 1.761 1.47a.5.5 0 01-.32.885h-1.32a1 1 0 01-.887-.293L9 9.414 7.705 10.71a3 3 0 00-1.414-1.414L7.586 8 6.29 6.705a3 3 0 001.414-1.414L9 6.586l3.293-3.293a1 1 0 01.687-.303zM9 7a1 1 0 00-1 1 1 1 0 001 1 1 1 0 001-1 1 1 0 00-1-1zm-4 3a2 2 0 01.516.07 2 2 0 011.416 1.412 2 2 0 01.039.178 2 2 0 01.023.2A2 2 0 017 12a2 2 0 01-.01.2 2 2 0 01-.08.392 2 2 0 01-.068.187 2 2 0 01-.422.627 2 2 0 01-.004.004A2 2 0 015 14a2 2 0 01-2-2 2 2 0 01.607-1.436 2 2 0 01.15-.132 2 2 0 01.163-.116 2 2 0 01.357-.181 2 2 0 01.125-.041A2 2 0 015 10z" color="#000" font-family="sans-serif" font-weight="400" overflow="visible"/>
</svg>
