<svg xmlns="http://www.w3.org/2000/svg" viewBox="0 0 16 16" fill="currentColor" height="16px" width="16px">
    <path style="line-height:normal;font-variant-ligatures:normal;font-variant-position:normal;font-variant-caps:normal;font-variant-numeric:normal;font-variant-alternates:normal;font-feature-settings:normal;text-indent:0;text-align:start;text-decoration-line:none;text-decoration-style:solid;text-decoration-color:#000;text-transform:none;text-orientation:mixed;white-space:normal;shape-padding:0;isolation:auto;mix-blend-mode:normal;solid-color:#000;solid-opacity:1" d="M14.516 3a.5.5 0 01.483.5v11a.5.5 0 01-.809.393L8 10.028v4.473a.5.5 0 01-.809.392l-7-5.5a.5.5 0 010-.785l7-5.5a.5.5 0 01.326-.107.5.5 0 01.483.5v4.473l6.191-4.866a.5.5 0 01.326-.107zM14 4.529L8.308 9.001l5.69 4.473zm-7 0L1.308 9.001l5.69 4.473z" color="#000" font-family="sans-serif" font-weight="400" overflow="visible"/>
    <path d="M6.999 4.528L1.308 9.001l5.69 4.473z" style="line-height:normal;font-variant-ligatures:normal;font-variant-position:normal;font-variant-caps:normal;font-variant-numeric:normal;font-variant-alternates:normal;font-feature-settings:normal;text-indent:0;text-align:start;text-decoration-line:none;text-decoration-style:solid;text-decoration-color:#000;text-transform:none;text-orientation:mixed;white-space:normal;shape-padding:0;isolation:auto;mix-blend-mode:normal;solid-color:#000;solid-opacity:1" color="#000" font-family="sans-serif" font-weight="400" opacity=".4" overflow="visible"/>
    <path style="line-height:normal;font-variant-ligatures:normal;font-variant-position:normal;font-variant-caps:normal;font-variant-numeric:normal;font-variant-alternates:normal;font-feature-settings:normal;text-indent:0;text-align:start;text-decoration-line:none;text-decoration-style:solid;text-decoration-color:#000;text-transform:none;text-orientation:mixed;white-space:normal;shape-padding:0;isolation:auto;mix-blend-mode:normal;solid-color:#000;solid-opacity:1" d="M13.999 4.528L8.308 9.001l5.69 4.473z" color="#000" font-family="sans-serif" font-weight="400" opacity=".2" overflow="visible"/>
</svg>
