<svg xmlns="http://www.w3.org/2000/svg" viewBox="0 0 16 16" fill="currentColor" height="16px" width="16px">
    <path style="line-height:normal;font-variant-ligatures:normal;font-variant-position:normal;font-variant-caps:normal;font-variant-numeric:normal;font-variant-alternates:normal;font-feature-settings:normal;text-indent:0;text-align:start;text-decoration-line:none;text-decoration-style:solid;text-decoration-color:#000;text-transform:none;text-orientation:mixed;white-space:normal;shape-padding:0;isolation:auto;mix-blend-mode:normal;solid-color:#000;solid-opacity:1" d="M1.482 3A.5.5 0 001 3.5v11a.5.5 0 00.809.393L8 10.028v4.473a.5.5 0 00.809.392l7-5.5a.5.5 0 000-.785l-7-5.5a.5.5 0 00-.327-.107.5.5 0 00-.482.5v4.473L1.809 3.108a.5.5 0 00-.327-.107zM2 4.529l5.691 4.473L2 13.474zm7 0l5.691 4.473L9 13.474z" color="#000" font-family="sans-serif" font-weight="400" overflow="visible"/>
    <path d="M9 4.528l5.691 4.473L9 13.474z" style="line-height:normal;font-variant-ligatures:normal;font-variant-position:normal;font-variant-caps:normal;font-variant-numeric:normal;font-variant-alternates:normal;font-feature-settings:normal;text-indent:0;text-align:start;text-decoration-line:none;text-decoration-style:solid;text-decoration-color:#000;text-transform:none;text-orientation:mixed;white-space:normal;shape-padding:0;isolation:auto;mix-blend-mode:normal;solid-color:#000;solid-opacity:1" color="#000" font-family="sans-serif" font-weight="400" opacity=".4" overflow="visible"/>
    <path style="line-height:normal;font-variant-ligatures:normal;font-variant-position:normal;font-variant-caps:normal;font-variant-numeric:normal;font-variant-alternates:normal;font-feature-settings:normal;text-indent:0;text-align:start;text-decoration-line:none;text-decoration-style:solid;text-decoration-color:#000;text-transform:none;text-orientation:mixed;white-space:normal;shape-padding:0;isolation:auto;mix-blend-mode:normal;solid-color:#000;solid-opacity:1" d="M2 4.528l5.691 4.473L2 13.474z" color="#000" font-family="sans-serif" font-weight="400" opacity=".2" overflow="visible"/>
</svg>
