<svg xmlns="http://www.w3.org/2000/svg" viewBox="0 0 16 16" fill="currentColor" height="16px" width="16px">
    <path style="marker:none" d="M8.012 0a.5.5 0 00-.262.066c-.534.309-.955.788-1.258 1.309C6.19 1.896 6 2.458 6 3c0 .474.229.875.508 1.219-.151-.035-.278-.151-.43-.172a8.006 8.006 0 00-1.256-.06c-.205.004-.343.015-.343.015a.5.5 0 00-.461.46s-.04.525 0 1.132c.03.47.203.96.45 1.41a.5.5 0 00-.45.459s-.04.524 0 1.13c.03.47.203.96.45 1.41a.5.5 0 00-.45.46s-.04.524 0 1.13c.039.608.077 1.315.584 1.821A2.003 2.003 0 007 13.73V16h2v-2.277a2.004 2.004 0 002.414-.309c.506-.506.545-1.213.584-1.82.04-.607 0-1.131 0-1.131a.5.5 0 00-.451-.461c.246-.45.42-.939.451-1.408.04-.607 0-1.131 0-1.131a.5.5 0 00-.451-.461c.246-.45.42-.939.451-1.408.04-.607 0-1.131 0-1.131a.5.5 0 00-.46-.461s-.14-.01-.345-.016a8.006 8.006 0 00-1.255.06c-.158.023-.29.142-.448.179C9.772 3.88 10 3.476 10 3c0-.542-.19-1.104-.492-1.625-.303-.521-.724-1-1.258-1.309A.5.5 0 008.012 0zM8 1.2c.232.197.477.393.643.679C8.873 2.276 9 2.713 9 3c0 .558-.442 1-1 1s-1-.442-1-1c0-.287.127-.724.357-1.121.166-.286.41-.482.643-.68zM5.014 4.993c.27-.002.597 0 .925.045.389.054.724.194.784.254A.985.985 0 017 5.9v.2a.985.985 0 01-.277.607.992.992 0 01-1.414 0c-.08-.08-.261-.65-.295-1.178-.019-.284-.005-.35 0-.535zm5.988 0c.005.185.018.251 0 .535-.034.527-.215 1.099-.295 1.178a.992.992 0 01-1.414 0A.995.995 0 019 6.02v-.04a.995.995 0 01.293-.687c.06-.06.395-.2.783-.254.329-.046.656-.047.926-.045zm-5.988 3c.27-.002.597 0 .925.045.389.054.724.194.784.254A.985.985 0 017 8.9v.2a.985.985 0 01-.277.607.992.992 0 01-1.414 0c-.08-.08-.261-.65-.295-1.178-.019-.284-.005-.35 0-.535zm5.988 0c.005.185.018.251 0 .535-.034.527-.215 1.099-.295 1.178a.992.992 0 01-1.414 0A.995.995 0 019 9.02v-.04a.995.995 0 01.293-.687c.06-.06.395-.2.783-.254.329-.046.656-.047.926-.045zm-5.988 3c.27-.002.597 0 .925.045.389.054.724.194.784.254A.985.985 0 017 11.9v.2a.985.985 0 01-.277.607.992.992 0 01-1.414 0c-.08-.08-.261-.65-.295-1.178-.019-.284-.005-.35 0-.535zm5.988 0c.005.185.018.251 0 .535-.034.527-.215 1.099-.295 1.178a.992.992 0 01-1.414 0A.995.995 0 019 12.02v-.04a.995.995 0 01.293-.687c.06-.06.395-.2.783-.254.329-.046.656-.047.926-.045z"/>
    <path d="M8 .5C7.134 1 6.5 2.172 6.5 3a1.5 1.5 0 003 0c0-.828-.634-2-1.5-2.5zM4.834 4.486a7.112 7.112 0 00-.318.014s-.147 1.975.44 2.56a1.5 1.5 0 102.12-2.12c-.44-.44-1.66-.467-2.242-.454zm6.348 0c-.583-.013-1.803.014-2.243.453a1.5 1.5 0 102.122 2.122c.585-.586.439-2.561.439-2.561s-.124-.01-.318-.014zm-6.348 3a7.112 7.112 0 00-.318.014s-.147 1.975.44 2.56a1.5 1.5 0 102.12-2.12c-.44-.44-1.66-.467-2.242-.454zm6.348 0c-.583-.013-1.803.014-2.243.453a1.5 1.5 0 102.122 2.122c.585-.586.439-2.561.439-2.561s-.124-.01-.318-.014zm-6.348 3c-.194.005-.318.014-.318.014s-.147 1.975.44 2.56a1.5 1.5 0 102.12-2.12c-.44-.44-1.66-.467-2.242-.454zm6.348 0c-.583-.013-1.803.014-2.243.453a1.5 1.5 0 102.122 2.122c.585-.586.439-2.561.439-2.561s-.124-.01-.318-.014z" style="marker:none" opacity=".2"/>
</svg>
