<svg xmlns="http://www.w3.org/2000/svg" viewBox="0 0 16 16" fill="currentColor" height="16px" width="16px">
    <path style="line-height:normal;font-variant-ligatures:normal;font-variant-position:normal;font-variant-caps:normal;font-variant-numeric:normal;font-variant-alternates:normal;font-feature-settings:normal;text-indent:0;text-align:start;text-decoration-line:none;text-decoration-style:solid;text-decoration-color:#000;text-transform:none;text-orientation:mixed;white-space:normal;shape-padding:0;isolation:auto;mix-blend-mode:normal;solid-color:#000;solid-opacity:1" d="M2.5 1C1.678 1 1 1.678 1 2.5v1C1 4.322 1.678 5 2.5 5h11c.822 0 1.5-.678 1.5-1.5v-1c0-.822-.678-1.5-1.5-1.5h-11zm0 1h11c.286 0 .5.214.5.5v1c0 .286-.214.5-.5.5h-11a.488.488 0 01-.5-.5v-1c0-.286.214-.5.5-.5zm2 4C3.678 6 3 6.678 3 7.5v1c0 .822.678 1.5 1.5 1.5h9c.822 0 1.5-.678 1.5-1.5v-1c0-.822-.678-1.5-1.5-1.5h-9zm0 1h9c.286 0 .5.214.5.5v1c0 .286-.214.5-.5.5h-9a.488.488 0 01-.5-.5v-1c0-.286.214-.5.5-.5zm-2 4c-.822 0-1.5.678-1.5 1.5v1c0 .822.678 1.5 1.5 1.5h11c.822 0 1.5-.678 1.5-1.5v-1c0-.822-.678-1.5-1.5-1.5h-11zm0 1h11c.286 0 .5.214.5.5v1c0 .286-.214.5-.5.5h-11a.488.488 0 01-.5-.5v-1c0-.286.214-.5.5-.5z" color="#000" font-family="sans-serif" font-weight="400" overflow="visible"/>
    <path d="M2 2v2h12V2zm2 5v2h10V7zm-2 5v2h12v-2z" opacity=".2"/>
</svg>
