<svg xmlns="http://www.w3.org/2000/svg" viewBox="0 0 16 16" fill="currentColor" height="16px" width="16px">
    <path style="line-height:normal;font-variant-ligatures:normal;font-variant-position:normal;font-variant-caps:normal;font-variant-numeric:normal;font-variant-alternates:normal;font-feature-settings:normal;text-indent:0;text-align:start;text-decoration-line:none;text-decoration-style:solid;text-decoration-color:#000;text-transform:none;text-orientation:mixed;white-space:normal;shape-padding:0;isolation:auto;mix-blend-mode:normal;solid-color:#000;solid-opacity:1;marker:none" d="M4 2C1.75 2 .033 3.75 0 5.992V6c0 2.063.43 3.499 1.621 4.889 1.191 1.39 3.08 2.763 6.078 5.011l.133.1h.336l.133-.1c2.998-2.248 4.887-3.621 6.078-5.011C15.57 9.499 16 8.063 16 6c0-2.25-1.75-3.977-3.994-4H12c-1.078 0-1.95.265-2.658.752-.54.371-.937.94-1.344 1.506-.407-.564-.803-1.13-1.342-1.496-.708-.483-1.574-.746-2.648-.762H4zm7.996 1C13.751 3.019 15 4.25 15 6c0 1.938-.32 3.001-1.379 4.236C12.616 11.41 10.741 12.8 8 14.854c-2.74-2.055-4.616-3.445-5.621-4.618C1.322 9.003 1 7.94 1 6.008v-.002c.027-1.756 1.25-3.002 2.996-3.004.923.014 1.557.217 2.098.586.474.323.887.819 1.306 1.437L6.07 7.242a.5.5 0 00.153.674l2.492 1.662-1.569 1.568a.5.5 0 10.708.708l2-2a.5.5 0 00-.077-.77L7.174 7.348 8.422 5.27l.004-.006.004-.006c.48-.75.94-1.312 1.478-1.682.54-.371 1.169-.575 2.088-.576z" color="#000" font-family="sans-serif" font-weight="400" overflow="visible"/>
    <path d="M4 2.5C2 2.5.53 4 .5 6c0 4 1.5 5 7.5 9.5C14 11 15.5 10 15.5 6c0-2-1.5-3.48-3.5-3.5-2 0-3 .938-4 2.5-1-1.563-2-2.47-4-2.5z" style="marker:none" opacity=".2"/>
</svg>
