<svg xmlns="http://www.w3.org/2000/svg" viewBox="0 0 16 16" fill="currentColor" height="16px" width="16px">
    <path style="line-height:normal;font-variant-ligatures:normal;font-variant-position:normal;font-variant-caps:normal;font-variant-numeric:normal;font-variant-alternates:normal;font-feature-settings:normal;text-indent:0;text-align:start;text-decoration-line:none;text-decoration-style:solid;text-decoration-color:#000;text-transform:none;text-orientation:mixed;white-space:normal;shape-padding:0;isolation:auto;mix-blend-mode:normal;solid-color:#000;solid-opacity:1" d="M8 0c-.554 0-1 .446-1 1v1c0 .022.01.04.012.063C3.652 2.475 1 4.973 1 8.494a.5.5 0 00.5.5c.477 0 .905-.013 1.295-.039-.51.966-.795 2.004-.795 3.39a.5.5 0 00.5.5c.689 0 1.278-.071 1.814-.177C5 14.346 6 15 7.7 15.898a.5.5 0 00.602 0C10 15 11 14.346 11.676 12.695c.538.089 1.126.15 1.824.15.276 0 .5-.075.5-.35 0-1.388-.285-2.574-.795-3.54.39.026.818.04 1.295.04a.5.5 0 00.5-.5c0-3.521-2.652-6.019-6.012-6.432C8.99 2.04 9 2.022 9 2V1c0-.554-.446-1-1-1zm-.021 2.996c.007 0 .013.004.021.004.008 0 .014-.004.021-.004 3.14.01 5.552 1.96 5.86 4.918-1.532-.054-2.782-.185-3.428-.447a.5.5 0 00-.656.289c-.224.6-.878 1.249-1.797 2.002-.919-.753-1.573-1.401-1.797-2.002a.5.5 0 00-.072-.131.5.5 0 00-.338-.191h-.002a.5.5 0 00-.244.033c-.646.262-1.896.393-3.428.447.308-2.959 2.72-4.909 5.86-4.918zM5.502 8.49c.291.579.72 1.133 1.371 1.723-.572.78-1.597 1.503-3.785 1.658.101-1.274.441-2.313 1.01-3.064.544-.076 1-.186 1.404-.317zm4.994.002c.405.131.862.238 1.406.315.579.765.926 1.823 1.018 3.13-1.19-.063-2.065-.27-2.656-.556a3.555 3.555 0 01-.338-.188c-.427-.285-.652-.608-.85-.93.683-.608 1.12-1.177 1.42-1.77zm-2.912 2.502H8.301c.283.397.667.812 1.25 1.152.303.178.673.324 1.078.454C10.5 13.61 9.5 13.994 8 14.994c-1.5-1-2.5-1.5-2.648-2.457 1.06-.389 1.759-.97 2.232-1.543z" color="#000" font-family="sans-serif" font-weight="400" overflow="visible"/>
    <path d="M8 2.994c3.15 0 5.572 1.955 5.88 4.92-1.53-.054-2.78-.185-3.427-.447a.5.5 0 00-.656.29c-.224.6-.878 1.248-1.797 2.001-.919-.753-1.573-1.401-1.797-2.002a.5.5 0 00-.072-.13.5.5 0 00-.584-.159c-.646.262-1.896.393-3.428.447C2.43 4.95 4.85 2.994 8 2.994zM5.502 8.49c.291.579.72 1.133 1.371 1.723-.572.78-1.597 1.504-3.785 1.658.101-1.273.441-2.313 1.01-3.064.544-.076 1-.186 1.404-.317zm4.994.002c.405.131.862.239 1.406.315.579.765.926 1.823 1.018 3.13-1.19-.063-2.065-.269-2.656-.556a3.555 3.555 0 01-.338-.187c-.427-.285-.652-.609-.85-.93.683-.608 1.12-1.178 1.42-1.772zm-2.912 2.502H8.301c.283.397.667.812 1.25 1.153.303.177.673.324 1.078.453C10.18 14.053 9 14.807 8 15.5c-1.295-.97-2.208-1.466-2.648-2.963 1.06-.388 1.759-.97 2.232-1.543z" style="line-height:normal;font-variant-ligatures:normal;font-variant-position:normal;font-variant-caps:normal;font-variant-numeric:normal;font-variant-alternates:normal;font-feature-settings:normal;text-indent:0;text-align:start;text-decoration-line:none;text-decoration-style:solid;text-decoration-color:#000;text-transform:none;text-orientation:mixed;white-space:normal;shape-padding:0;isolation:auto;mix-blend-mode:normal;solid-color:#000;solid-opacity:1" color="#000" font-family="sans-serif" font-weight="400" opacity=".2" overflow="visible"/>
</svg>
