<svg xmlns="http://www.w3.org/2000/svg" viewBox="0 0 16 16" fill="currentColor" height="16px" width="16px">
    <path d="M5.564 7.143L2 10.707v3.275h11.982v-1.226zm8.418.252l-3.285 1.97 3.285 2.19z" opacity=".4"/>
    <path d="M1 1v14h14V1H1zm1 1h12v4.215L9.775 8.75l-4.34-2.893L2 9.293V2zm8 1c-1.099 0-2 .901-2 2s.901 2 2 2 2-.901 2-2-.901-2-2-2zm0 1c.558 0 1 .442 1 1s-.442 1-1 1-1-.442-1-1 .442-1 1-1zM5.564 7.143L14 12.768V14H2v-3.293l3.564-3.564zM14 7.385v4.181l-3.303-2.2L14 7.384z"/>
    <path d="M10 4c-.558 0-1 .442-1 1s.442 1 1 1 1-.442 1-1-.442-1-1-1z" opacity=".1"/>
    <path d="M2 2h12v4.215L9.775 8.75l-4.34-2.893L2 9.293zm8 1c-1.099 0-2 .901-2 2s.901 2 2 2 2-.901 2-2-.901-2-2-2z" opacity=".2"/>
</svg>
