<svg xmlns="http://www.w3.org/2000/svg" viewBox="0 0 16 16" fill="currentColor" height="16px" width="16px">
    <path style="marker:none" d="M8 4.5A3.5 3.5 0 004.5 8a3.5 3.5 0 00.055.617L8.613 4.56A3.5 3.5 0 008 4.5zm3.445 2.883L7.387 11.44A3.5 3.5 0 008 11.5 3.5 3.5 0 0011.5 8a3.5 3.5 0 00-.055-.617z" opacity=".2"/>
    <path style="line-height:normal;font-variant-ligatures:normal;font-variant-position:normal;font-variant-caps:normal;font-variant-numeric:normal;font-variant-alternates:normal;font-feature-settings:normal;text-indent:0;text-align:start;text-decoration-line:none;text-decoration-style:solid;text-decoration-color:#000;text-transform:none;text-orientation:mixed;white-space:normal;shape-padding:0;isolation:auto;mix-blend-mode:normal;solid-color:#000;solid-opacity:1;marker:none" d="M12.98 1.99a1 1 0 00-.687.303l-11 11a1 1 0 101.414 1.414l11-11a1 1 0 00-.727-1.717zM8.002 3c-2.633-.01-4.543 1.2-5.809 2.521C.928 6.843.27 8.286.043 8.8L0 8.895v.21l.043.096c.18.41.652 1.405 1.469 2.46l.705-.706C1.615 10.15 1.277 9.415 1.09 9c.25-.555.769-1.683 1.826-2.787C4.05 5.029 5.67 3.99 7.998 4A4.008 4.008 0 004 8c0 .355.063.693.15 1.021l.866-.865C5.013 8.103 5 8.054 5 8c0-1.663 1.337-3 3-3 .054 0 .103.013.156.016l.865-.866a4.91 4.91 0 00-.49-.105c.183.016.374.02.55.047l.849-.85A7.992 7.992 0 008.002 3zm5.543 2.283l-.707.707c.082.08.168.158.246.239C14.142 7.328 14.661 8.449 14.91 9c-.25.552-.768 1.678-1.826 2.78C11.95 12.96 10.329 14 8 14a6.768 6.768 0 01-2.648-.523l-.758.757A7.743 7.743 0 008 15c2.632 0 4.539-1.21 5.805-2.53 1.266-1.318 1.925-2.754 2.152-3.269L16 9.105v-.21l-.043-.096c-.227-.517-.886-1.948-2.152-3.264-.082-.085-.173-.168-.26-.252zM11.85 6.98l-.866.865c.003.053.016.102.016.156 0 1.663-1.337 3-3 3-.054 0-.103-.013-.156-.016l-.865.866c.328.087.666.15 1.021.15 2.203 0 4-1.797 4-4 0-.355-.063-.693-.15-1.021z" color="#000" font-family="sans-serif" font-weight="400" overflow="visible"/>
</svg>
