<svg xmlns="http://www.w3.org/2000/svg" viewBox="0 0 16 16" fill="currentColor" height="16px" width="16px">
    <path d="M2.5 1C1.678 1 1 1.678 1 2.5v7.898c-.341.718-.587 1.628-.951 2.385a.5.5 0 00-.049.219l.006 1.215c0 .2.117.35.2.42.08.07.146.097.206.12.12.049.228.073.354.095.251.044.562.072.914.093A38.87 38.87 0 003.893 15h8.226c.662 0 1.513-.013 2.215-.057.351-.021.663-.05.914-.093.126-.023.234-.044.354-.092a.675.675 0 00.207-.123.58.58 0 00.197-.424L16 12.998a.5.5 0 00-.045-.203c-.347-.771-.627-1.687-.955-2.39V2.5c0-.822-.678-1.5-1.5-1.5h-11zm0 1h11c.286 0 .5.214.5.5V10H2V2.5c0-.286.214-.5.5-.5zm-.664 9H3.5L3 13h10l-.5-2h1.662c.242.559.504 1.326.838 2.094l.004.779a8.22 8.22 0 01-.73.072c-.665.041-1.507.055-2.155.055H3.893a38.28 38.28 0 01-2.15-.053 8.101 8.101 0 01-.74-.076L1 13.094c.36-.783.6-1.55.836-2.094z"/>
    <path d="M13.5 2l-12 6v2.5h13v-8c0-.277-.5-.5-1-.5zm-7 11a.499.499 0 100 1h3a.499.499 0 100-1h-3z" opacity=".2"/>
</svg>
