<svg xmlns="http://www.w3.org/2000/svg" viewBox="0 0 16 16" fill="currentColor" height="16px" width="16px">
    <path d="M3.5 4.207L1 6.707V9h4V6h.293L3.5 4.207zM6 7v1h1V7H6zm2 0v8h5V7H8zm1.473 2a.503.503 0 01.328.1l2 1.5a.5.5 0 010 .8l-2 1.5A.5.5 0 019 12.5v-3a.5.5 0 01.473-.5z" opacity=".2"/>
    <path d="M0 0v10h5v6h11V6h-6V0H0zm1 1h8v5H6.707L3.5 2.793 1 5.293V1zm6 1a1 1 0 00-1 1 1 1 0 001 1 1 1 0 001-1 1 1 0 00-1-1zM3.5 4.207L5.293 6H5v3H1V6.707l2.5-2.5zM6 7h1v1H6V7zm2 0h5v8H8V7zm6 0h1v1h-1V7zM6 9h1v1H6V9zm3.473 0A.5.5 0 009 9.5v3a.5.5 0 00.8.4l2-1.5a.5.5 0 000-.8l-2-1.5a.5.5 0 00-.327-.1zM14 9h1v1h-1V9zm-8 2h1v1H6v-1zm8 0h1v1h-1v-1zm-8 2h1v1H6v-1zm8 0h1v1h-1v-1z"/>
</svg>
