<svg xmlns="http://www.w3.org/2000/svg" viewBox="0 0 16 16" fill="currentColor" height="16px" width="16px">
    <path style="marker:none" d="M8 1C6.338 1 5 2.338 5 4v2h6V4c0-1.662-1.338-3-3-3z" opacity=".2"/>
    <path style="line-height:normal;font-variant-ligatures:normal;font-variant-position:normal;font-variant-caps:normal;font-variant-numeric:normal;font-variant-alternates:normal;font-feature-settings:normal;text-indent:0;text-align:start;text-decoration-line:none;text-decoration-style:solid;text-decoration-color:#000;text-transform:none;text-orientation:mixed;white-space:normal;shape-padding:0;isolation:auto;mix-blend-mode:normal;solid-color:#000;solid-opacity:1;marker:none" d="M8 0C5.793 0 4 1.793 4 4v4c0 2.207 1.793 4 4 4s4-1.793 4-4V4c0-2.207-1.793-4-4-4zm0 1c.39 0 .76.08 1.102.213A.488.488 0 009 1.5a.499.499 0 00.943.223c.121.102.232.213.334.334A.499.499 0 0010.5 3c.11 0 .205-.042.287-.102C10.92 3.24 11 3.61 11 4v2H5V4c0-.115.021-.223.033-.334A.494.494 0 005.5 4a.499.499 0 10-.373-.826 2.958 2.958 0 012.047-2.047A.493.493 0 007 1.5a.499.499 0 10.666-.467C7.777 1.021 7.886 1 8 1zM5 5.5a.499.499 0 101 0 .499.499 0 10-1 0zm2.5.5a.499.499 0 100-1 .499.499 0 100 1zm2 0a.499.499 0 100-1 .499.499 0 100 1zM11 4.5a.499.499 0 10-1 0 .499.499 0 101 0zM6.5 2a.499.499 0 100 1 .499.499 0 100-1zm2 0a.499.499 0 100 1 .499.499 0 100-1zm-1 1a.499.499 0 100 1 .499.499 0 100-1zm2 0a.499.499 0 100 1 .499.499 0 100-1zm-3 1a.499.499 0 100 1 .499.499 0 100-1zm2 0a.499.499 0 100 1 .499.499 0 100-1zm-6 2a.5.5 0 00-.5.5V8a5.995 5.995 0 005 5.91V15H4.5a.5.5 0 000 1h7a.5.5 0 000-1H9v-1.09A5.995 5.995 0 0014 8V6.5a.5.5 0 00-.5-.5.5.5 0 00-.5.5V8c0 2.779-2.221 5-5 5s-5-2.221-5-5V6.5a.5.5 0 00-.5-.5zM5 7h6v1c0 1.67-1.33 3-3 3S5 9.67 5 8V7z"/>
    <path d="M5 7v1c0 1.662 1.338 3 3 3s3-1.338 3-3V7z" style="marker:none" opacity=".4"/>
</svg>
