<svg xmlns="http://www.w3.org/2000/svg" viewBox="0 0 16 16" fill="currentColor" height="16px" width="16px">
    <path d="M4.957 1.063C1.232 3.03.032 7.995 1.806 11.606l-.105-.181c.045.095.1.183.148.275a6.706 6.706 0 00.342.592c.056.089.105.18.165.266l-.105-.18c2.24 3.341 7.141 4.784 10.706 2.542 1.598-.894 2.58-2.19 3.043-3.92.224-.387-.203-1.184-.64-.932l-.44.254a5 5 0 11-5-8.66l.44-.254c.437-.252.016-1.326-.43-1.326-1.784-.278-3.4.044-4.973.981zm.5.866c1.116-.702 2.38-.98 3.636-.928a6 6 0 105.986 10.369c-.583 1.112-1.456 2.069-2.622 2.684-3.001 1.808-7.19.906-9.182-1.974a6.204 6.204 0 01-.387-.584 6.205 6.205 0 01-.313-.628C1.077 7.703 2.391 3.625 5.457 1.93z"/>
    <path d="M5.457 1.93a7 7 0 007 12.124 7 7 0 002.62-2.684A6 6 0 019.091 1.002a7 7 0 00-3.634.927z" opacity=".2"/>
</svg>
