<svg xmlns="http://www.w3.org/2000/svg" viewBox="0 0 16 16" fill="currentColor" height="16px" width="16px">
    <path d="M12.5 5.5v9H14c.831 0 1.53-.67 1.5-1.5V6c0-.277-.223-.5-.5-.5h-2.5zm-5.973 1v4H10.5v-4H6.527z" opacity=".2"/>
    <path d="M.5 1a.5.5 0 00-.5.5V13c0 1.1.9 2 2 2h12c1.1 0 2-.9 2-2V6c0-.545-.455-1-1-1h-2V1.5a.5.5 0 00-.5-.5H.5zM1 2h11v10.5c-.003.48 0 .982 0 1.5H2c-.563 0-1-.437-1-1V2zm1 1v1h2V3H2zm3 0v1h6V3H5zM2 6v1h3V6H2zm4.027 0v5H11V6H6.027zM13 6h2v7c0 .563-.437 1-1 1h-1c0-.519-.003-1.022 0-1.496a.5.5 0 000-.004V6zM7.027 7H10v3H7.027V7zM2 8v1h3V8H2zm0 2v1h3v-1H2zm0 2v1h9v-1H2z"/>
</svg>
