<svg xmlns="http://www.w3.org/2000/svg" viewBox="0 0 16 16" fill="currentColor" height="16px" width="16px">
    <path style="line-height:normal;font-variant-ligatures:normal;font-variant-position:normal;font-variant-caps:normal;font-variant-numeric:normal;font-variant-alternates:normal;font-feature-settings:normal;text-indent:0;text-align:start;text-decoration-line:none;text-decoration-style:solid;text-decoration-color:#000;text-transform:none;text-orientation:mixed;white-space:normal;shape-padding:0;isolation:auto;mix-blend-mode:normal;solid-color:#000;solid-opacity:1" d="M12.492 0a.5.5 0 00-.346.146l-12 12A.5.5 0 000 12.5V16h3.5a.5.5 0 00.354-.146l12-12a.5.5 0 000-.708l-3-3A.5.5 0 0012.492 0zm.008 1.207L14.793 3.5 13.5 4.793 11.207 2.5 12.5 1.207zm-2 2L12.793 5.5 5 13.293V12.5a.5.5 0 00-.5-.5H4v-.5a.5.5 0 00-.5-.5h-.793L10.5 3.207zM1.707 12H3v.5a.5.5 0 00.5.5H4v1.293L3.293 15H2v-1H1v-1.293L1.707 12z" color="#000" font-family="sans-serif" font-weight="400" overflow="visible"/>
    <path d="M12.5 1.207L14.793 3.5 13.5 4.793 11.207 2.5z" style="line-height:normal;font-variant-ligatures:normal;font-variant-position:normal;font-variant-caps:normal;font-variant-numeric:normal;font-variant-alternates:normal;font-feature-settings:normal;text-indent:0;text-align:start;text-decoration-line:none;text-decoration-style:solid;text-decoration-color:#000;text-transform:none;text-orientation:mixed;white-space:normal;shape-padding:0;isolation:auto;mix-blend-mode:normal;solid-color:#000;solid-opacity:1" color="#000" font-family="sans-serif" font-weight="400" opacity=".2" overflow="visible"/>
    <path style="line-height:normal;font-variant-ligatures:normal;font-variant-position:normal;font-variant-caps:normal;font-variant-numeric:normal;font-variant-alternates:normal;font-feature-settings:normal;text-indent:0;text-align:start;text-decoration-line:none;text-decoration-style:solid;text-decoration-color:#000;text-transform:none;text-orientation:mixed;white-space:normal;shape-padding:0;isolation:auto;mix-blend-mode:normal;solid-color:#000;solid-opacity:1" d="M10.5 3.207L12.793 5.5 5 13.293V12.5a.5.5 0 00-.5-.5H4v-.5a.5.5 0 00-.5-.5h-.793z" color="#000" font-family="sans-serif" font-weight="400" opacity=".4" overflow="visible"/>
</svg>
