<svg xmlns="http://www.w3.org/2000/svg" viewBox="0 0 16 16" fill="currentColor" height="16px" width="16px">
    <path d="M2.002 2c-.25 0-.456.03-.62.086-.245.083-.394.219-.456.38a.495.495 0 00-.033.17.709.709 0 00.105.368L1.541 4h12.922l.543-.996a.718.718 0 00.105-.367c-.005-.235-.163-.441-.49-.551A1.956 1.956 0 0014.002 2h-12zM5 6c-.558 0-1 .442-1 1s.442 1 1 1 1-.442 1-1-.442-1-1-1zm5 2c-.558 0-1 .442-1 1s.442 1 1 1 1-.442 1-1-.442-1-1-1zm-4 4c-.03 0-.054.013-.082.016l.87 1.593A.993.993 0 006 12z" opacity=".2"/>
    <path d="M1.5 1A1.5 1.5 0 00.184 3.215l6.502 11.998A1.5 1.5 0 007.963 16a1.498 1.498 0 001.355-.787l6.498-11.998A1.5 1.5 0 0014.5 1h-13zm.502 1h12c1 0 1.292.504 1.004 1.004L14.463 4H1.54l-.543-.996C.709 2.504 1.002 2 2.002 2zm.086 3h11.828l-1.959 3.59A2.009 2.009 0 0010 7c-1.099 0-2 .901-2 2s.901 2 2 2c.253 0 .493-.054.717-.14l-1.715 3.142c-.288.497-.498.995-.998.998H8v-.002c-.32-.002-.515-.225-.693-.5.422-.366.693-.9.693-1.498 0-1.099-.901-2-2-2-.204 0-.399.036-.584.096L4.168 8.81C4.423 8.929 4.702 9 5 9c1.099 0 2-.901 2-2s-.901-2-2-2a2.003 2.003 0 00-1.973 1.723L2.087 5zM5 6c.558 0 1 .442 1 1s-.442 1-1 1-1-.442-1-1 .442-1 1-1zm5 2c.558 0 1 .442 1 1s-.442 1-1 1-1-.442-1-1 .442-1 1-1zm-4 4a.993.993 0 01.787 1.61l-.869-1.594C5.946 12.013 5.971 12 6 12z"/>
</svg>
