<svg xmlns="http://www.w3.org/2000/svg" viewBox="0 0 16 16" fill="currentColor" height="16px" width="16px">
    <path d="M15 8c0 .322-.344.469-.344.469L2.846 15.03s-.36.093-.633-.067c-.273-.161-.211-.401-.211-.401V1.438s.015-.237.289-.398c.273-.161.555-.071.555-.071l11.81 6.562S15 7.678 15 8z" opacity=".2"/>
    <path d="M16 7.963a1.5 1.5 0 00-.786-1.277L3.216.184A1.5 1.5 0 001 1.5v13a1.5 1.5 0 002.216 1.316l11.998-6.498c.496-.267.8-.791.785-1.355zM15 8c0 .321-.344.468-.344.468l-11.81 6.563s-.36.092-.633-.069c-.274-.16-.211-.4-.211-.4L2.001 1.438s.015-.238.289-.399c.273-.16.554-.07.554-.07l11.81 6.562S15 7.678 15 8z"/>
</svg>
