<svg xmlns="http://www.w3.org/2000/svg" viewBox="0 0 16 16" fill="currentColor" height="16px" width="16px">
    <path d="M15 8a7 7 0 01-7 7 7 7 0 01-7-7 7 7 0 017-7 7 7 0 017 7z" opacity=".2"/>
    <path d="M8 0C2.812-.197-1.359 5.47.357 10.363 1.64 15.067 7.64 17.5 11.834 15.02c3.257-1.722 4.973-5.862 3.809-9.383C14.67 2.344 11.43-.047 8 0zm0 1c4.618-.177 8.283 4.957 6.62 9.268-1.014 3.193-4.56 5.263-7.83 4.62-3.51-.54-6.18-4.063-5.755-7.587C1.32 3.81 4.497.935 8 1zm0 2a3 3 0 00-3 3h2a1 1 0 012 0c.077 1.07-1 1-1 1L7 8v2h2V8.824A3 3 0 0011 6a3 3 0 00-3-3zm-1.002 8v2H9v-2H7z"/>
</svg>
