<svg xmlns="http://www.w3.org/2000/svg" viewBox="0 0 16 16" fill="currentColor" height="16px" width="16px">
    <path style="line-height:normal;font-variant-ligatures:normal;font-variant-position:normal;font-variant-caps:normal;font-variant-numeric:normal;font-variant-alternates:normal;font-feature-settings:normal;text-indent:0;text-align:start;text-decoration-line:none;text-decoration-style:solid;text-decoration-color:#000;text-transform:none;text-orientation:mixed;white-space:normal;shape-padding:0;isolation:auto;mix-blend-mode:normal;solid-color:#000;solid-opacity:1" d="M8.004 0a.5.5 0 00-.451.277L5.19 5H.5a.5.5 0 00-.354.854l3.782 3.78-1.903 5.708a.5.5 0 00.715.597L8 13.07l5.26 2.87a.5.5 0 00.715-.598l-1.903-5.707 3.782-3.781A.5.5 0 0015.5 5h-4.691L8.447.277A.5.5 0 008.004 0zM8 1.617l2.053 4.106A.5.5 0 0010.5 6h3.793l-3.147 3.146a.5.5 0 00-.12.512l1.597 4.793-4.383-2.39a.5.5 0 00-.48 0l-4.383 2.39 1.598-4.793a.5.5 0 00-.121-.512L1.707 6H5.5a.5.5 0 00.447-.277z" color="#000" font-family="sans-serif" font-weight="400" overflow="visible"/>
</svg>
