<svg xmlns="http://www.w3.org/2000/svg" viewBox="0 0 16 16">
    <path d="M15 8a7 7 0 0 1-7 7 7 7 0 0 1-7-7 7 7 0 0 1 7-7 7 7 0 0 1 7 7z" opacity=".2"/>
    <path d="M8 0C2.812-.197-1.358 5.471.358 10.364 1.64 15.068 7.639 17.5 11.834 15.02c3.257-1.722 4.973-5.863 3.809-9.384C14.67 2.343 11.43-.047 8 0zm0 1a6.988 6.988 0 0 1 5.213 2.34L7.979 9.068 5.447 6.41 4 7.79 8.008 12l6.34-6.936c1.55 3.13.238 7.263-2.798 8.96-2.81 1.745-6.784 1.06-8.878-1.495C-.272 9.312.873 3.601 4.825 1.762A7.005 7.005 0 0 1 8 1z"/>
</svg>
