<svg xmlns="http://www.w3.org/2000/svg" viewBox="0 0 16 16" fill="currentColor" height="16px" width="16px">
    <path d="M2 5C.892 5 0 5.892 0 7v2c0 1 .5 3 3 3s4-1.5 4-3V8h2v1c0 1.5 1.5 3 4 3s3-2 3-3V7c0-1.108-.892-2-2-2h-3c-1.108 0-2 .892-2 2H7c0-1.108-.892-2-2-2zm0 1h3c.554 0 1 .446 1 1v2c0 1-1.5 2-3 2s-2-1-2-2V7c0-.554.446-1 1-1zm9 0h3c.554 0 1 .446 1 1v2c0 1-.5 2-2 2s-3-1-3-2V7c0-.554.446-1 1-1z"/>
    <path d="M1 9c0 1 .5 2 2 2s3-1 3-2V7c0-.554-.446-1-1-1zm10-3c-.554 0-1 .446-1 1v2c0 1 1.5 2 3 2s2-1 2-2V7c0-.554-.446-1-1-1z" opacity=".5"/>
    <path d="M2 6h3C3.67 7 2 8.257 1 9V7c0-.554.446-1 1-1z" opacity=".2"/>
</svg>
