<svg xmlns="http://www.w3.org/2000/svg" viewBox="0 0 16 16" fill="currentColor" height="16px" width="16px">
    <path d="M2 5c-.554 0-1 .446-1 1v7c0 .554.446 1 1 1h9c.554 0 1-.446 1-1V6c0-.554-.446-1-1-1H2zm1.5 3h4c.277 0 .5.223.5.5v2c0 .277-.223.5-.5.5h-4a.499.499 0 01-.5-.5v-2c0-.277.223-.5.5-.5z" opacity=".2"/>
    <path d="M4 1c-.554 0-1 .446-1 1s.446 1 1 1h4v1H2C.892 4 0 4.892 0 6v7c0 1.108.892 2 2 2h9c1.108 0 2-.892 2-2v-1.293l2.146 2.147A.5.5 0 0016 13.5v-8a.5.5 0 00-.516-.5.5.5 0 00-.338.146L13 7.293V6c0-1.108-.892-2-2-2h-1V2c0-.554-.446-1-1-1H4zM2 5h9c.554 0 1 .446 1 1v7c0 .554-.446 1-1 1H2c-.554 0-1-.446-1-1V6c0-.554.446-1 1-1zm8.5 1a.5.5 0 00-.5.5.5.5 0 00.5.5.5.5 0 00.5-.5.5.5 0 00-.5-.5zm4.5.707v5.586l-2-2V8.707l2-2zM3.5 7C2.669 7 2 7.669 2 8.5v2c0 .831.669 1.5 1.5 1.5h4c.831 0 1.5-.669 1.5-1.5v-2C9 7.669 8.331 7 7.5 7h-4zm0 1h4c.277 0 .5.223.5.5v2c0 .277-.223.5-.5.5h-4a.499.499 0 01-.5-.5v-2c0-.277.223-.5.5-.5z"/>
    <rect width="5" height="3" x="3" y="8" opacity=".3" rx=".5" ry=".5"/>
    <path d="M15 6.707v5.586l-2-2V8.707z" opacity=".4"/>
</svg>
