<svg xmlns="http://www.w3.org/2000/svg" viewBox="0 0 16 16" fill="currentColor" height="16px" width="16px">
    <path d="M2.5 4C1.66 4 1 4.66 1 5.5v6c0 .84.66 1.5 1.5 1.5H5c.08 0 .112-.014.236-.15.125-.136.283-.38.487-.65C6.13 11.655 6.833 11 8 11s1.868.657 2.275 1.2c.204.27.36.514.485.65.124.135.157.15.24.15h2.5c.84 0 1.5-.66 1.5-1.5v-6c0-.84-.66-1.5-1.5-1.5h-11zM5 6c1.099 0 2 .901 2 2s-.901 2-2 2-2-.901-2-2 .901-2 2-2zm5.969 0c1.098 0 2 .901 2 2s-.902 2-2 2c-1.099 0-2-.901-2-2s.901-2 2-2z" style="line-height:normal;font-variant-ligatures:normal;font-variant-position:normal;font-variant-caps:normal;font-variant-numeric:normal;font-variant-alternates:normal;font-feature-settings:normal;text-indent:0;text-align:start;text-decoration-line:none;text-decoration-style:solid;text-decoration-color:#000;text-transform:none;text-orientation:mixed;white-space:normal;shape-padding:0;isolation:auto;mix-blend-mode:normal;solid-color:#000;solid-opacity:1" color="#000" font-family="sans-serif" font-weight="400" opacity=".2" overflow="visible"/>
    <path d="M2.5 3A2.506 2.506 0 000 5.5v6C0 12.876 1.124 14 2.5 14H5c.416 0 .756-.236.975-.475.218-.239.375-.496.546-.724C6.865 12.344 7.167 12 8 12c.833 0 1.132.343 1.475.8.171.23.327.486.546.725.22.24.562.475.979.475h2.5c1.376 0 2.5-1.124 2.5-2.5v-6C16 4.124 14.876 3 13.5 3h-11zm0 1h11c.84 0 1.5.66 1.5 1.5v6c0 .84-.66 1.5-1.5 1.5H11c-.083 0-.116-.015-.24-.15-.125-.136-.281-.38-.485-.65C9.868 11.656 9.167 11 8 11c-1.167 0-1.87.656-2.277 1.2-.204.27-.362.514-.487.65-.124.136-.156.15-.236.15H2.5c-.84 0-1.5-.66-1.5-1.5v-6C1 4.66 1.66 4 2.5 4zM5 6c-1.099 0-2 .901-2 2s.901 2 2 2 2-.901 2-2-.901-2-2-2zm5.969 0c-1.099 0-2 .901-2 2s.901 2 2 2c1.098 0 2-.901 2-2s-.902-2-2-2zM5 7c.558 0 1 .442 1 1s-.442 1-1 1-1-.442-1-1 .442-1 1-1zm5.969 0c.558 0 1 .442 1 1s-.442 1-1 1-1-.442-1-1 .442-1 1-1z" style="line-height:normal;font-variant-ligatures:normal;font-variant-position:normal;font-variant-caps:normal;font-variant-numeric:normal;font-variant-alternates:normal;font-feature-settings:normal;text-indent:0;text-align:start;text-decoration-line:none;text-decoration-style:solid;text-decoration-color:#000;text-transform:none;text-orientation:mixed;white-space:normal;shape-padding:0;isolation:auto;mix-blend-mode:normal;solid-color:#000;solid-opacity:1" color="#000" font-family="sans-serif" font-weight="400" overflow="visible"/>
</svg>
