<svg xmlns="http://www.w3.org/2000/svg" viewBox="0 0 16 16">
    <path d="M8 .999V1c-.5.003-.71.5-.998.997L.998 12.996C.71 13.496 1.002 14 2.002 14h12c1 0 1.292-.504 1.004-1.004L9.002 1.998c-.288-.498-.497-.994-.998-.997z" opacity=".2"/>
    <path d="M7.963 0a1.499 1.499 0 0 0-1.277.786L.184 12.784A1.5 1.5 0 0 0 1.5 15h13a1.5 1.5 0 0 0 1.316-2.216L9.318.786A1.496 1.496 0 0 0 7.963 0zM8 1h.004c.5.003.71.5.998.997l6.004 10.998c.288.5-.004 1.004-1.004 1.004h-12c-1 0-1.293-.504-1.004-1.004L7.002 1.998c.288-.498.497-.994.998-.997zm-.998 3.003v6.007h2l.002-6.008h-2zm0 7.006v2h2v-2z"/>
</svg>
