<svg xmlns="http://www.w3.org/2000/svg" viewBox="0 0 16 16" fill="currentColor" height="16px" width="16px">
    <path style="line-height:normal;font-variant-ligatures:normal;font-variant-position:normal;font-variant-caps:normal;font-variant-numeric:normal;font-variant-alternates:normal;font-feature-settings:normal;text-indent:0;text-align:start;text-decoration-line:none;text-decoration-style:solid;text-decoration-color:#000;text-transform:none;text-orientation:mixed;white-space:normal;shape-padding:0;isolation:auto;mix-blend-mode:normal;solid-color:#000;solid-opacity:1;marker:none" d="M7.973 0a.5.5 0 00-.407.25c-.978 1.695-2.34 3.299-3.48 4.88C2.946 6.714 2 8.29 2 10c0 3.308 2.692 6 6 6s6-2.692 6-6c0-1.71-.951-3.296-2.094-4.883C10.764 3.531 9.402 1.927 8.434.25A.5.5 0 007.973 0zM8 1.36c.973 1.533 2.122 2.992 3.094 4.341C12.2 7.24 13 8.673 13 10c0 2.767-2.233 5-5 5s-5-2.233-5-5c0-1.328.793-2.751 1.898-4.285C5.868 4.369 7.02 2.905 8 1.359zm3.492 8.632A.5.5 0 0011 10.5s.004.155-.1.467a3.015 3.015 0 01-.754 1.18c-.44.44-.867.65-1.18.753-.311.104-.466.1-.466.1a.5.5 0 100 1s.345-.004.783-.15a4.045 4.045 0 001.57-.996c.56-.56.85-1.133.997-1.57.146-.439.15-.784.15-.784a.5.5 0 00-.508-.508z" color="#000" font-family="sans-serif" font-weight="400" overflow="visible"/>
    <path style="marker:none" d="M8 1.36c-.98 1.546-2.132 3.01-3.102 4.355C3.793 7.249 3 8.672 3 10c0 2.767 2.233 5 5 5s5-2.233 5-5c0-1.327-.799-2.76-1.906-4.299C10.122 4.352 8.974 2.893 8 1.36zm3.492 8.632A.5.5 0 0112 10.5s-.004.345-.15.783a4.045 4.045 0 01-.996 1.57 4.045 4.045 0 01-1.57.997c-.439.146-.784.15-.784.15a.5.5 0 110-1s.155.004.467-.1a3.015 3.015 0 001.18-.754c.44-.44.65-.867.753-1.18.104-.311.1-.466.1-.466a.5.5 0 01.492-.508z" opacity=".1"/>
</svg>
