<svg xmlns="http://www.w3.org/2000/svg" viewBox="0 0 16 16" fill="currentColor" height="16px" width="16px">
    <path d="M6.5 0A4.501 4.501 0 002 4.5c0 .284.062.535.113.791C.928 5.689 0 6.681 0 8c0 1.255.778 2.329 1.875 2.775.197-.099.406-.181.63-.226 0-.017-.005-.032-.005-.049 0-.19.021-.373.055-.553A1.979 1.979 0 011 8c0-1.02.74-1.832 1.719-1.969l.56-.08-.146-.545A3.498 3.498 0 013 4.5C3 2.552 4.552 1 6.5 1c1.32 0 2.441.725 3.041 1.797l.172.31.35-.062c.155-.028.3-.045.437-.045C11.894 3 13 4.106 13 5.5c0-.094-.004-.082-.006.041l-.006.416.408.082C14.315 6.221 15 7.02 15 8c0 .956-.649 1.735-1.535 1.941a4.72 4.72 0 01-.115.594c.275.038.532.126.77.244A3.004 3.004 0 0016 8c0-1.298-.886-2.309-2.045-2.725C13.833 3.455 12.351 2 10.5 2c-.128 0-.236.021-.352.035C9.343.845 8.05 0 6.5 0z"/>
    <path d="M6.5.5c-2.216 0-4 1.784-4 4 0 .36.062.703.15 1.035A2.486 2.486 0 00.5 8c0 1.216.859 2.223 2.006 2.451A2.99 2.99 0 015.5 7.5c.18 0 .353.023.523.053A3.972 3.972 0 019.5 5.5c2.216 0 4 1.784 4 4 0 .334-.057.653-.135.963A2.486 2.486 0 0015.5 8a2.493 2.493 0 00-2.006-2.451c0-.017.006-.032.006-.049 0-1.662-1.338-3-3-3-.18 0-.353.023-.523.053A3.972 3.972 0 006.5.5z" opacity=".3"/>
    <path d="M9.5 5C11.985 5 14 7.015 14 9.5c0 .284-.062.535-.113.791C15.072 10.689 16 11.681 16 13c0 1.653-1.347 3-3 3H3c-1.653 0-3-1.347-3-3 0-1.298.886-2.309 2.045-2.725C2.167 8.455 3.649 7 5.5 7c.128 0 .236.021.352.035C6.657 5.845 7.95 5 9.5 5zm0 1c-1.32 0-2.441.725-3.041 1.797l-.172.31-.35-.062A2.49 2.49 0 005.5 8 2.483 2.483 0 003 10.5c0-.094.004-.082.006.041l.006.416-.408.082A1.987 1.987 0 001 13c0 1.117.883 2 2 2h10c1.117 0 2-.883 2-2 0-1.02-.74-1.832-1.719-1.969l-.56-.08.146-.545c.084-.295.129-.6.133-.906C13 7.552 11.448 6 9.5 6z"/>
    <path d="M9.5 5.5c2.216 0 4 1.784 4 4 0 .36-.062.703-.15 1.035A2.486 2.486 0 0115.5 13c0 1.385-1.115 2.5-2.5 2.5H3A2.495 2.495 0 01.5 13a2.493 2.493 0 012.006-2.451c0-.017-.006-.032-.006-.049 0-1.662 1.338-3 3-3 .18 0 .353.023.523.053A3.973 3.973 0 019.5 5.5z" opacity=".2"/>
</svg>
