<svg xmlns="http://www.w3.org/2000/svg" viewBox="0 0 16 16" fill="currentColor" height="16px" width="16px">
    <path d="M9.5 5C11.985 5 14 7.015 14 9.5c0 .284-.062.535-.113.791C15.072 10.689 16 11.681 16 13c0 1.653-1.347 3-3 3H3c-1.653 0-3-1.347-3-3 0-1.298.886-2.309 2.045-2.725C2.167 8.455 3.649 7 5.5 7c.128 0 .236.021.352.035C6.657 5.845 7.95 5 9.5 5zm0 1c-1.32 0-2.441.725-3.041 1.797l-.172.31-.35-.062A2.49 2.49 0 005.5 8 2.483 2.483 0 003 10.5c0-.094.004-.082.006.041l.006.416-.408.082A1.987 1.987 0 001 13c0 1.117.883 2 2 2h10c1.117 0 2-.883 2-2 0-1.02-.74-1.832-1.719-1.969l-.56-.08.146-.545c.084-.295.129-.6.133-.906C13 7.552 11.448 6 9.5 6z"/>
    <path d="M9.5 5.5c2.216 0 4 1.784 4 4 0 .36-.062.703-.15 1.035A2.486 2.486 0 0115.5 13c0 1.385-1.115 2.5-2.5 2.5H3A2.495 2.495 0 01.5 13a2.493 2.493 0 012.006-2.451c0-.017-.006-.032-.006-.049 0-1.662 1.338-3 3-3 .18 0 .353.023.523.053A3.973 3.973 0 019.5 5.5z" opacity=".4"/>
    <path d="M7.621-.014C6.341.003 5.137.36 3.957 1.063.233 3.027-.967 7.994.807 11.604l-.106-.18c.045.096.1.184.149.276l.007.016c.188-.314.445-.58.75-.785-.009-.022-.022-.041-.03-.063-1.5-3.166-.186-7.244 2.88-8.94C5.573 1.228 6.837.95 8.092 1a5.997 5.997 0 00-2.469 6.512c.135.007.27.018.4.04.139-.25.309-.476.493-.687-.358-2.013.53-4.121 2.404-5.203l.441-.254c.436-.251.016-1.326-.431-1.326A7.789 7.789 0 007.62-.014zm6.9 10.034a.336.336 0 00-.16.048l-.441.254a5.033 5.033 0 01-.467.237c.571.102 1.07.39 1.432.802.038-.12.082-.237.115-.361.196-.339-.108-.991-.479-.98zM5.326 15.5c1.753.632 3.702.686 5.46 0h-5.46z"/>
    <path d="M8.092 1.002a7.001 7.001 0 00-3.635.928 6.997 6.997 0 00-2.85 9c.267-.18.568-.315.899-.381 0-.017-.006-.032-.006-.049 0-1.662 1.338-3 3-3 .042 0 .08.01.121.012a5.997 5.997 0 012.47-6.51z" opacity=".2"/>
</svg>
